;Coverted using MIDI2ASM
;Code by TriteHexagon
;Version 5.2.0 (16-Nov-2022)
;Visit github.com/TriteHexagon/Midi2ASM-Converter for up-to-date versions.

; ============================================================================================================

Music_Academy:
	channel_count 3
	channel 1, Music_Academy_Ch1
	channel 2, Music_Academy_Ch2
	channel 3, Music_Academy_Ch3
	channel 4, Music_Academy_Ch4

Music_Academy_Ch1:
	volume 7, 7
	duty_cycle 1
	note_type 12, 10, 7
	tempo 159
;Bar 1
	octave 1
	volume_envelope 3, 7
	note B_, 3
	octave 3
	;note F#, 0 | WARNING: Rounded down to 0
	;note D#, 0 | WARNING: Rounded down to 0
	octave 2
	volume_envelope 2, 7
	note B_, 1
	octave 1
	volume_envelope 4, 7
	note D#, 3
	octave 3
	volume_envelope 3, 7
	;note F#, 0 | WARNING: Rounded down to 0
	;note D#, 0 | WARNING: Rounded down to 0
	octave 2
	note B_, 1
	octave 1
	volume_envelope 4, 7
	note F#, 3
	octave 3
	volume_envelope 2, 7
	;note F#, 0 | WARNING: Rounded down to 0
	octave 2
	volume_envelope 3, 7
	;note B_, 0 | WARNING: Rounded down to 0
	octave 3
	note D#, 1
	octave 1
	volume_envelope 4, 7
	note G#, 3
	octave 2
	;note B_, 0 | WARNING: Rounded down to 0
	octave 3
	;note D#, 0 | WARNING: Rounded down to 0
	volume_envelope 3, 7
	note F#, 1
;Bar 2
	octave 1
	note B_, 3
	octave 3
	;note F#, 0 | WARNING: Rounded down to 0
	octave 2
	;note B_, 0 | WARNING: Rounded down to 0
	octave 3
	volume_envelope 4, 7
	note D#, 1
	octave 1
	note D#, 3
	octave 2
	volume_envelope 3, 7
	;note B_, 0 | WARNING: Rounded down to 0
	octave 3
	volume_envelope 4, 7
	;note F#, 0 | WARNING: Rounded down to 0
	note D#, 1
	octave 1
	note F#, 3
	octave 3
	volume_envelope 3, 7
	;note F#, 0 | WARNING: Rounded down to 0
	octave 2
	;note B_, 0 | WARNING: Rounded down to 0
	octave 3
	volume_envelope 4, 7
	note D#, 1
	octave 1
	note G#, 3
	octave 3
	volume_envelope 3, 7
	;note F#, 0 | WARNING: Rounded down to 0
	octave 2
	;note B_, 0 | WARNING: Rounded down to 0
	octave 3
	note D#, 1
;Bar 3
	octave 1
	note F#, 3
	octave 3
	;note F#, 0 | WARNING: Rounded down to 0
	volume_envelope 4, 7
	;note C#, 0 | WARNING: Rounded down to 0
	octave 2
	volume_envelope 3, 7
	note A#, 1
	octave 1
	volume_envelope 4, 7
	note A#, 3
	octave 3
	volume_envelope 3, 7
	;note F#, 0 | WARNING: Rounded down to 0
	;note C#, 0 | WARNING: Rounded down to 0
	octave 2
	note A#, 1
	octave 1
	volume_envelope 4, 7
	note C#, 3
	octave 3
	volume_envelope 3, 7
	;note F#, 0 | WARNING: Rounded down to 0
	;note C#, 0 | WARNING: Rounded down to 0
	octave 2
	note A#, 1
	octave 1
	volume_envelope 4, 7
	note D#, 3
	octave 3
	volume_envelope 3, 7
	;note F#, 0 | WARNING: Rounded down to 0
	volume_envelope 4, 7
	;note C#, 0 | WARNING: Rounded down to 0
	octave 2
	volume_envelope 3, 7
	note A#, 1
;Bar 4
	octave 1
	volume_envelope 4, 7
	note F#, 3
	octave 3
	volume_envelope 3, 7
	;note F#, 0 | WARNING: Rounded down to 0
	;note C#, 0 | WARNING: Rounded down to 0
	octave 2
	note A#, 1
	octave 1
	volume_envelope 4, 7
	note A#, 3
	octave 3
	volume_envelope 3, 7
	;note F#, 0 | WARNING: Rounded down to 0
	;note C#, 0 | WARNING: Rounded down to 0
	octave 2
	note A#, 1
	octave 1
	volume_envelope 5, 7
	note C#, 3
	octave 3
	volume_envelope 3, 7
	;note F#, 0 | WARNING: Rounded down to 0
	volume_envelope 4, 7
	;note C#, 0 | WARNING: Rounded down to 0
	octave 2
	note A#, 1
	octave 1
	note D#, 3
	octave 3
	;note F#, 0 | WARNING: Rounded down to 0
	octave 2
	;note A#, 0 | WARNING: Rounded down to 0
	octave 3
	note C#, 1
;Bar 5
	octave 1
	volume_envelope 3, 7
	note F#, 3
	octave 3
	;note F#, 0 | WARNING: Rounded down to 0
	volume_envelope 4, 7
	;note C#, 0 | WARNING: Rounded down to 0
	octave 2
	note A#, 1
	octave 1
	note A#, 3
	octave 2
	;note A#, 0 | WARNING: Rounded down to 0
	octave 3
	volume_envelope 3, 7
	;note F#, 0 | WARNING: Rounded down to 0
	volume_envelope 4, 7
	note C#, 1
	octave 1
	note C#, 3
	octave 3
	volume_envelope 3, 7
	;note F#, 0 | WARNING: Rounded down to 0
	volume_envelope 4, 7
	;note C#, 0 | WARNING: Rounded down to 0
	octave 2
	volume_envelope 3, 7
	note A#, 1
	octave 1
	volume_envelope 4, 7
	note D#, 3
	octave 3
	;note F#, 0 | WARNING: Rounded down to 0
	;note C#, 0 | WARNING: Rounded down to 0
	octave 2
	note A#, 1
;Bar 6
	octave 1
	note F#, 3
	octave 3
	;note F#, 0 | WARNING: Rounded down to 0
	;note C#, 0 | WARNING: Rounded down to 0
	octave 2
	note A#, 1
	octave 1
	volume_envelope 5, 7
	note A#, 3
	octave 3
	volume_envelope 4, 7
	;note F#, 0 | WARNING: Rounded down to 0
	;note C#, 0 | WARNING: Rounded down to 0
	octave 2
	note A#, 1
	octave 1
	note C#, 3
	octave 3
	;note F#, 0 | WARNING: Rounded down to 0
	;note C#, 0 | WARNING: Rounded down to 0
	octave 2
	note A#, 1
	octave 1
	note D#, 3
	octave 3
	;note F#, 0 | WARNING: Rounded down to 0
	octave 2
	;note A#, 0 | WARNING: Rounded down to 0
	octave 3
	note C#, 1
;Bar 7
	octave 1
	note C#, 3
	octave 2
	;note G#, 0 | WARNING: Rounded down to 0
	octave 3
	;note C#, 0 | WARNING: Rounded down to 0
	volume_envelope 3, 7
	note E_, 1
	octave 1
	volume_envelope 4, 7
	;note G#, 0 | WARNING: Rounded down to 0
	rest 3
	octave 3
	volume_envelope 3, 7
	;note E_, 0 | WARNING: Rounded down to 0
	octave 2
	volume_envelope 4, 7
	;note G#, 0 | WARNING: Rounded down to 0
	octave 3
	note C#, 1
	octave 1
	note F#, 3
	octave 3
	;note C#, 0 | WARNING: Rounded down to 0
	volume_envelope 3, 7
	;note F#, 0 | WARNING: Rounded down to 0
	octave 2
	note A#, 1
	octave 1
	volume_envelope 4, 7
	note A#, 3
	octave 3
	volume_envelope 3, 7
	;note F#, 0 | WARNING: Rounded down to 0
	octave 2
	volume_envelope 4, 7
	;note A#, 0 | WARNING: Rounded down to 0
	octave 3
	note C#, 1
;Bar 8
	octave 1
	note B_, 3
	octave 2
	volume_envelope 3, 7
	;note B_, 0 | WARNING: Rounded down to 0
	octave 3
	;note F#, 0 | WARNING: Rounded down to 0
	volume_envelope 4, 7
	note D#, 1
	octave 1
	note G#, 3
	octave 2
	volume_envelope 3, 7
	;note B_, 0 | WARNING: Rounded down to 0
	octave 3
	;note F#, 0 | WARNING: Rounded down to 0
	volume_envelope 4, 7
	note D#, 1
	octave 1
	note F#, 3
	octave 3
	;note D#, 0 | WARNING: Rounded down to 0
	octave 2
	;note B_, 0 | WARNING: Rounded down to 0
	octave 3
	volume_envelope 3, 7
	note F#, 1
	octave 1
	volume_envelope 4, 7
	note D#, 3
	octave 3
	;note D#, 0 | WARNING: Rounded down to 0
	octave 2
	;note B_, 0 | WARNING: Rounded down to 0
	octave 3
	note F#, 1
;Bar 9
	octave 1
	note B_, 3
	octave 2
	volume_envelope 3, 7
	;note B_, 0 | WARNING: Rounded down to 0
	octave 3
	volume_envelope 4, 7
	;note D#, 0 | WARNING: Rounded down to 0
	note F#, 1
	octave 1
	volume_envelope 5, 7
	note D#, 3
	octave 3
	volume_envelope 4, 7
	;note D#, 0 | WARNING: Rounded down to 0
	octave 2
	volume_envelope 3, 7
	;note B_, 0 | WARNING: Rounded down to 0
	octave 3
	volume_envelope 4, 7
	note F#, 1
	octave 1
	note F#, 3
	octave 2
	;note B_, 0 | WARNING: Rounded down to 0
	octave 3
	;note D#, 0 | WARNING: Rounded down to 0
	note F#, 1
	octave 1
	note G#, 3
	octave 3
	;note D#, 0 | WARNING: Rounded down to 0
	octave 2
	;note B_, 0 | WARNING: Rounded down to 0
	octave 3
	note F#, 1
;Bar 10
	octave 1
	note B_, 3
	octave 3
	;note D#, 0 | WARNING: Rounded down to 0
	octave 2
	;note B_, 0 | WARNING: Rounded down to 0
	octave 3
	note F#, 1
	octave 1
	note D#, 3
	octave 3
	;note D#, 0 | WARNING: Rounded down to 0
	octave 2
	;note B_, 0 | WARNING: Rounded down to 0
	octave 3
	note F#, 1
	octave 1
	note F#, 3
	octave 2
	volume_envelope 3, 7
	;note B_, 0 | WARNING: Rounded down to 0
	octave 3
	volume_envelope 4, 7
	;note D#, 0 | WARNING: Rounded down to 0
	note F#, 1
	octave 1
	note G#, 3
	octave 2
	volume_envelope 3, 7
	;note B_, 0 | WARNING: Rounded down to 0
	octave 3
	volume_envelope 4, 7
	;note D#, 0 | WARNING: Rounded down to 0
	note F#, 1
;Bar 11
	octave 1
	note F#, 3
	octave 2
	;note A#, 0 | WARNING: Rounded down to 0
	octave 3
	volume_envelope 5, 7
	;note C#, 0 | WARNING: Rounded down to 0
	volume_envelope 4, 7
	note F#, 1
	octave 1
	note A#, 3
	octave 3
	;note F#, 0 | WARNING: Rounded down to 0
	octave 2
	;note A#, 0 | WARNING: Rounded down to 0
	octave 3
	note C#, 1
	octave 1
	volume_envelope 5, 7
	note C#, 3
	octave 3
	volume_envelope 3, 7
	;note F#, 0 | WARNING: Rounded down to 0
	volume_envelope 4, 7
	;note C#, 0 | WARNING: Rounded down to 0
	octave 2
	note A#, 1
	octave 1
	note D#, 3
	octave 3
	volume_envelope 3, 7
	;note F#, 0 | WARNING: Rounded down to 0
	volume_envelope 4, 7
	;note C#, 0 | WARNING: Rounded down to 0
	octave 2
	note A#, 1
;Bar 12
	octave 1
	note F#, 3
	octave 3
	;note F#, 0 | WARNING: Rounded down to 0
	;note C#, 0 | WARNING: Rounded down to 0
	octave 2
	note A#, 1
	octave 1
	note A#, 3
	octave 2
	;note A#, 0 | WARNING: Rounded down to 0
	octave 3
	;note F#, 0 | WARNING: Rounded down to 0
	note C#, 1
	octave 1
	volume_envelope 5, 7
	note C#, 3
	octave 3
	volume_envelope 4, 7
	;note F#, 0 | WARNING: Rounded down to 0
	;note C#, 0 | WARNING: Rounded down to 0
	octave 2
	note A#, 1
	octave 1
	volume_envelope 5, 7
	note D#, 3
	octave 3
	volume_envelope 4, 7
	;note F#, 0 | WARNING: Rounded down to 0
	;note C#, 0 | WARNING: Rounded down to 0
	octave 2
	note A#, 1
;Bar 13
	octave 1
	note F#, 3
	octave 3
	;note F#, 0 | WARNING: Rounded down to 0
	;note C#, 0 | WARNING: Rounded down to 0
	octave 2
	note A#, 1
	octave 1
	volume_envelope 5, 7
	note A#, 3
	octave 3
	volume_envelope 4, 7
	;note F#, 0 | WARNING: Rounded down to 0
	octave 2
	;note A#, 0 | WARNING: Rounded down to 0
	octave 3
	note C#, 1
	octave 1
	note C#, 3
	octave 3
	volume_envelope 3, 7
	;note F#, 0 | WARNING: Rounded down to 0
	octave 2
	volume_envelope 4, 7
	;note A#, 0 | WARNING: Rounded down to 0
	octave 3
	note C#, 1
	octave 1
	note D#, 3
	octave 3
	;note F#, 0 | WARNING: Rounded down to 0
	octave 2
	;note A#, 0 | WARNING: Rounded down to 0
	octave 3
	note C#, 1
;Bar 14
	octave 1
	note F#, 3
	octave 3
	;note F#, 0 | WARNING: Rounded down to 0
	octave 2
	;note A#, 0 | WARNING: Rounded down to 0
	octave 3
	note C#, 1
	octave 1
	note D#, 3
	octave 3
	;note F#, 0 | WARNING: Rounded down to 0
	octave 2
	;note A#, 0 | WARNING: Rounded down to 0
	octave 3
	note C#, 1
	octave 1
	volume_envelope 5, 7
	note C#, 3
	octave 3
	volume_envelope 3, 7
	;note F#, 0 | WARNING: Rounded down to 0
	octave 2
	volume_envelope 4, 7
	;note A#, 0 | WARNING: Rounded down to 0
	octave 3
	note C#, 1
	octave 1
	note A#, 3
	octave 3
	volume_envelope 3, 7
	;note F#, 0 | WARNING: Rounded down to 0
	octave 2
	volume_envelope 4, 7
	;note A#, 0 | WARNING: Rounded down to 0
	octave 3
	note C#, 1
;Bar 15
	octave 1
	note C#, 3
	octave 2
	volume_envelope 3, 7
	;note G#, 0 | WARNING: Rounded down to 0
	octave 3
	volume_envelope 4, 7
	;note C#, 0 | WARNING: Rounded down to 0
	volume_envelope 3, 7
	note E_, 1
	octave 1
	volume_envelope 5, 7
	note G#, 3
	octave 2
	volume_envelope 3, 7
	;note G#, 0 | WARNING: Rounded down to 0
	octave 3
	;note E_, 0 | WARNING: Rounded down to 0
	note C#, 1
	octave 1
	volume_envelope 5, 7
	note F#, 3
	octave 3
	volume_envelope 3, 7
	;note F#, 0 | WARNING: Rounded down to 0
	volume_envelope 4, 7
	;note C#, 0 | WARNING: Rounded down to 0
	octave 2
	volume_envelope 3, 7
	note A#, 1
	octave 1
	volume_envelope 5, 7
	note A#, 3
	octave 3
	volume_envelope 3, 7
	;note F#, 0 | WARNING: Rounded down to 0
	volume_envelope 4, 7
	;note C#, 0 | WARNING: Rounded down to 0
	octave 2
	volume_envelope 3, 7
	note A#, 1
;Bar 16
	octave 1
	note B_, 3
	octave 2
	volume_envelope 4, 7
	;note B_, 0 | WARNING: Rounded down to 0
	octave 3
	;note D#, 0 | WARNING: Rounded down to 0
	volume_envelope 3, 7
	note F#, 1
	octave 1
	volume_envelope 4, 7
	note G#, 3
	octave 2
	volume_envelope 3, 7
	;note B_, 0 | WARNING: Rounded down to 0
	octave 3
	volume_envelope 4, 7
	;note D#, 0 | WARNING: Rounded down to 0
	volume_envelope 3, 7
	note F#, 1
	octave 1
	note F#, 3
	octave 3
	;note F#, 0 | WARNING: Rounded down to 0
	volume_envelope 4, 7
	;note D#, 0 | WARNING: Rounded down to 0
	octave 2
	volume_envelope 3, 7
	note B_, 1
	octave 1
	volume_envelope 4, 7
	note G#, 3
	octave 3
	volume_envelope 3, 7
	;note F#, 0 | WARNING: Rounded down to 0
	volume_envelope 4, 7
	;note D#, 0 | WARNING: Rounded down to 0
	octave 2
	note B_, 1
;Bar 17
	octave 1
	volume_envelope 3, 7
	note D#, 3
	octave 2
	;note A#, 0 | WARNING: Rounded down to 0
	octave 3
	;note D#, 0 | WARNING: Rounded down to 0
	volume_envelope 2, 7
	note G_, 1
	octave 1
	note G_, 3
	octave 2
	volume_envelope 4, 7
	;note A#, 0 | WARNING: Rounded down to 0
	octave 3
	;note D#, 0 | WARNING: Rounded down to 0
	volume_envelope 3, 7
	note G_, 1
	octave 1
	volume_envelope 4, 7
	note A#, 3
	octave 2
	;note A#, 0 | WARNING: Rounded down to 0
	octave 3
	;note D_, 0 | WARNING: Rounded down to 0
	note F_, 1
	octave 1
	volume_envelope 3, 7
	note D_, 3
	octave 2
	volume_envelope 4, 7
	;note A#, 0 | WARNING: Rounded down to 0
	octave 3
	;note F_, 0 | WARNING: Rounded down to 0
	volume_envelope 5, 7
	note D_, 1
;Bar 18
	octave 1
	volume_envelope 3, 7
	note D#, 3
	octave 2
	volume_envelope 4, 7
	;note A#, 0 | WARNING: Rounded down to 0
	octave 3
	;note D#, 0 | WARNING: Rounded down to 0
	volume_envelope 3, 7
	note G_, 1
	octave 1
	note C_, 3
	octave 3
	;note D#, 0 | WARNING: Rounded down to 0
	octave 2
	volume_envelope 4, 7
	;note A#, 0 | WARNING: Rounded down to 0
	octave 3
	volume_envelope 2, 7
	note G_, 1
	octave 1
	volume_envelope 4, 7
	note A#, 3
	octave 3
	volume_envelope 3, 7
	;note D#, 0 | WARNING: Rounded down to 0
	octave 2
	volume_envelope 4, 7
	;note A#, 0 | WARNING: Rounded down to 0
	octave 3
	volume_envelope 3, 7
	note G_, 1
	octave 1
	volume_envelope 2, 7
	note G_, 3
	octave 2
	volume_envelope 3, 7
	;note A#, 0 | WARNING: Rounded down to 0
	octave 3
	;note D#, 0 | WARNING: Rounded down to 0
	volume_envelope 2, 7
	note G_, 1
;Bar 19
	octave 1
	volume_envelope 3, 7
	note D#, 3
	octave 3
	;note D#, 0 | WARNING: Rounded down to 0
	volume_envelope 2, 7
	;note G_, 0 | WARNING: Rounded down to 0
	octave 2
	volume_envelope 3, 7
	note A#, 1
	octave 1
	volume_envelope 2, 7
	note G_, 3
	octave 3
	volume_envelope 4, 7
	;note D#, 0 | WARNING: Rounded down to 0
	octave 2
	;note A#, 0 | WARNING: Rounded down to 0
	octave 3
	volume_envelope 3, 7
	note G_, 1
	octave 1
	volume_envelope 4, 7
	note A#, 3
	octave 2
	;note A#, 0 | WARNING: Rounded down to 0
	octave 3
	;note F_, 0 | WARNING: Rounded down to 0
	note D_, 1
	octave 1
	volume_envelope 3, 7
	note D_, 3
	octave 3
	;note F_, 0 | WARNING: Rounded down to 0
	volume_envelope 4, 7
	;note D_, 0 | WARNING: Rounded down to 0
	octave 2
	note A#, 1
;Bar 20
	octave 1
	volume_envelope 3, 7
	note D#, 3
	octave 3
	;note G_, 0 | WARNING: Rounded down to 0
	volume_envelope 4, 7
	;note D#, 0 | WARNING: Rounded down to 0
	octave 2
	note A#, 1
	octave 1
	volume_envelope 3, 7
	note C_, 3
	octave 2
	;note A#, 0 | WARNING: Rounded down to 0
	octave 3
	;note D#, 0 | WARNING: Rounded down to 0
	volume_envelope 2, 7
	note G_, 1
	octave 1
	volume_envelope 4, 7
	note A#, 3
	octave 2
	volume_envelope 3, 7
	;note A#, 0 | WARNING: Rounded down to 0
	octave 3
	;note D#, 0 | WARNING: Rounded down to 0
	volume_envelope 2, 7
	note G_, 1
	octave 1
	note G_, 3
	octave 2
	volume_envelope 4, 7
	;note A#, 0 | WARNING: Rounded down to 0
	octave 3
	volume_envelope 2, 7
	;note G_, 0 | WARNING: Rounded down to 0
	volume_envelope 3, 7
	note D#, 1
;Bar 21
	octave 1
	note F#, 3
	octave 3
	;note F#, 0 | WARNING: Rounded down to 0
	octave 2
	volume_envelope 4, 7
	;note A#, 0 | WARNING: Rounded down to 0
	octave 3
	note C#, 1
	octave 1
	volume_envelope 3, 7
	note A#, 3
	octave 2
	volume_envelope 4, 7
	;note A#, 0 | WARNING: Rounded down to 0
	octave 3
	volume_envelope 3, 7
	;note F#, 0 | WARNING: Rounded down to 0
	volume_envelope 4, 7
	note C#, 1
	octave 1
	note C#, 3
	octave 3
	volume_envelope 3, 7
	;note C#, 0 | WARNING: Rounded down to 0
	octave 2
	;note G#, 0 | WARNING: Rounded down to 0
	octave 3
	note F_, 1
	octave 1
	note F_, 3
	octave 2
	volume_envelope 4, 7
	;note G#, 0 | WARNING: Rounded down to 0
	octave 3
	;note C#, 0 | WARNING: Rounded down to 0
	volume_envelope 3, 7
	note F_, 1
;Bar 22
	octave 1
	note F#, 3
	octave 3
	;note F#, 0 | WARNING: Rounded down to 0
	octave 2
	volume_envelope 4, 7
	;note A#, 0 | WARNING: Rounded down to 0
	octave 3
	note C#, 1
	octave 1
	note D#, 3
	octave 2
	;note A#, 0 | WARNING: Rounded down to 0
	octave 3
	volume_envelope 3, 7
	;note F#, 0 | WARNING: Rounded down to 0
	volume_envelope 4, 7
	note C#, 1
	octave 1
	note C#, 3
	octave 2
	;note A#, 0 | WARNING: Rounded down to 0
	octave 3
	volume_envelope 3, 7
	;note F#, 0 | WARNING: Rounded down to 0
	volume_envelope 4, 7
	note C#, 1
	octave 1
	note A#, 3
	octave 3
	volume_envelope 2, 7
	;note F#, 0 | WARNING: Rounded down to 0
	octave 2
	volume_envelope 4, 7
	;note A#, 0 | WARNING: Rounded down to 0
	octave 3
	note C#, 1
;Bar 23
	octave 1
	note G#, 3
	octave 3
	volume_envelope 3, 7
	;note D#, 0 | WARNING: Rounded down to 0
	octave 2
	;note G#, 0 | WARNING: Rounded down to 0
	octave 3
	note C_, 1
	octave 1
	volume_envelope 4, 7
	note D#, 3
	octave 3
	volume_envelope 3, 7
	;note D#, 0 | WARNING: Rounded down to 0
	;note C_, 0 | WARNING: Rounded down to 0
	octave 2
	note G#, 1
	octave 1
	volume_envelope 4, 7
	note C#, 3
	octave 3
	;note C#, 0 | WARNING: Rounded down to 0
	octave 2
	volume_envelope 3, 7
	;note G#, 0 | WARNING: Rounded down to 0
	octave 3
	note F_, 1
	octave 1
	note G#, 3
	octave 3
	volume_envelope 2, 7
	;note F_, 0 | WARNING: Rounded down to 0
	volume_envelope 3, 7
	;note C#, 0 | WARNING: Rounded down to 0
	octave 2
	note G#, 1
;Bar 24
	octave 1
	volume_envelope 4, 7
	note F#, 3
	octave 3
	volume_envelope 3, 7
	;note F#, 0 | WARNING: Rounded down to 0
	volume_envelope 4, 7
	;note C#, 0 | WARNING: Rounded down to 0
	octave 2
	volume_envelope 3, 7
	note A#, 1
	octave 1
	volume_envelope 4, 7
	note E_, 3
	octave 3
	volume_envelope 3, 7
	;note F#, 0 | WARNING: Rounded down to 0
	octave 2
	volume_envelope 4, 7
	;note A#, 0 | WARNING: Rounded down to 0
	octave 3
	note C#, 1
	octave 1
	note D#, 3
	octave 3
	;note D#, 0 | WARNING: Rounded down to 0
	volume_envelope 3, 7
	;note F#, 0 | WARNING: Rounded down to 0
	octave 2
	volume_envelope 4, 7
	note A#, 1
	octave 1
	volume_envelope 5, 7
	note C#, 3
	octave 3
	volume_envelope 3, 7
	;note F#, 0 | WARNING: Rounded down to 0
	volume_envelope 4, 7
	;note C#, 0 | WARNING: Rounded down to 0
	octave 2
	note A#, 1
;Bar 25
	octave 1
	volume_envelope 3, 7
	note B_, 3
	octave 3
	volume_envelope 4, 7
	;note D#, 0 | WARNING: Rounded down to 0
	octave 2
	volume_envelope 3, 7
	;note B_, 0 | WARNING: Rounded down to 0
	octave 3
	note F#, 1
	octave 1
	volume_envelope 4, 7
	note D#, 3
	octave 2
	;note B_, 0 | WARNING: Rounded down to 0
	octave 3
	;note D#, 0 | WARNING: Rounded down to 0
	note F#, 1
	octave 1
	note F#, 3
	octave 2
	volume_envelope 3, 7
	;note B_, 0 | WARNING: Rounded down to 0
	octave 3
	volume_envelope 4, 7
	;note D#, 0 | WARNING: Rounded down to 0
	volume_envelope 3, 7
	note F#, 1
	octave 1
	volume_envelope 4, 7
	note G#, 3
	octave 3
	;note D#, 0 | WARNING: Rounded down to 0
	octave 2
	;note B_, 0 | WARNING: Rounded down to 0
	octave 3
	note F#, 1
;Bar 26
	octave 1
	volume_envelope 3, 7
	note B_, 3
	octave 3
	;note F#, 0 | WARNING: Rounded down to 0
	volume_envelope 4, 7
	;note D#, 0 | WARNING: Rounded down to 0
	octave 2
	note B_, 1
	octave 1
	note D#, 3
	octave 3
	;note D#, 0 | WARNING: Rounded down to 0
	octave 2
	volume_envelope 3, 7
	;note B_, 0 | WARNING: Rounded down to 0
	octave 3
	note F#, 1
	octave 1
	volume_envelope 4, 7
	note F#, 3
	octave 3
	;note D#, 0 | WARNING: Rounded down to 0
	volume_envelope 3, 7
	;note F#, 0 | WARNING: Rounded down to 0
	octave 2
	volume_envelope 4, 7
	note B_, 1
	octave 1
	note G#, 3
	octave 2
	;note B_, 0 | WARNING: Rounded down to 0
	octave 3
	;note D#, 0 | WARNING: Rounded down to 0
	note F#, 1
;Bar 27
	octave 1
	volume_envelope 3, 7
	note F#, 3
	octave 3
	;note F#, 0 | WARNING: Rounded down to 0
	volume_envelope 4, 7
	;note C#, 0 | WARNING: Rounded down to 0
	octave 2
	volume_envelope 3, 7
	note A#, 1
	octave 1
	volume_envelope 4, 7
	note A#, 3
	octave 3
	volume_envelope 3, 7
	;note F#, 0 | WARNING: Rounded down to 0
	octave 2
	;note A#, 0 | WARNING: Rounded down to 0
	octave 3
	volume_envelope 4, 7
	note C#, 1
	octave 1
	note C#, 3
	octave 3
	volume_envelope 3, 7
	;note F#, 0 | WARNING: Rounded down to 0
	;note C#, 0 | WARNING: Rounded down to 0
	octave 2
	volume_envelope 4, 7
	note A#, 1
	octave 1
	note D#, 3
	octave 3
	volume_envelope 3, 7
	;note F#, 0 | WARNING: Rounded down to 0
	volume_envelope 4, 7
	;note C#, 0 | WARNING: Rounded down to 0
	octave 2
	volume_envelope 3, 7
	note A#, 1
;Bar 28
	octave 1
	volume_envelope 4, 7
	note F#, 3
	octave 3
	volume_envelope 3, 7
	;note F#, 0 | WARNING: Rounded down to 0
	;note C#, 0 | WARNING: Rounded down to 0
	octave 2
	note A#, 1
	octave 1
	volume_envelope 4, 7
	note A#, 3
	octave 3
	volume_envelope 3, 7
	;note F#, 0 | WARNING: Rounded down to 0
	;note C#, 0 | WARNING: Rounded down to 0
	octave 2
	volume_envelope 4, 7
	note A#, 1
	octave 1
	volume_envelope 5, 7
	note C#, 3
	octave 3
	volume_envelope 2, 7
	;note F#, 0 | WARNING: Rounded down to 0
	volume_envelope 3, 7
	;note C#, 0 | WARNING: Rounded down to 0
	octave 2
	note A#, 1
	octave 1
	volume_envelope 4, 7
	note D#, 3
	octave 3
	volume_envelope 3, 7
	;note F#, 0 | WARNING: Rounded down to 0
	volume_envelope 4, 7
	;note C#, 0 | WARNING: Rounded down to 0
	octave 2
	note A#, 1
;Bar 29
	octave 1
	volume_envelope 3, 7
	note F#, 3
	octave 3
	;note F#, 0 | WARNING: Rounded down to 0
	;note C#, 0 | WARNING: Rounded down to 0
	octave 2
	note A#, 1
	octave 1
	volume_envelope 4, 7
	note A#, 3
	octave 3
	volume_envelope 3, 7
	;note F#, 0 | WARNING: Rounded down to 0
	;note C#, 0 | WARNING: Rounded down to 0
	octave 2
	note A#, 1
	octave 1
	volume_envelope 4, 7
	note C#, 3
	octave 3
	volume_envelope 3, 7
	;note F#, 0 | WARNING: Rounded down to 0
	volume_envelope 4, 7
	;note C#, 0 | WARNING: Rounded down to 0
	octave 2
	volume_envelope 3, 7
	note A#, 1
	octave 1
	volume_envelope 4, 7
	note D#, 3
	octave 3
	volume_envelope 3, 7
	;note F#, 0 | WARNING: Rounded down to 0
	;note C#, 0 | WARNING: Rounded down to 0
	octave 2
	note A#, 1
;Bar 30
	octave 1
	volume_envelope 4, 7
	note F#, 3
	octave 3
	volume_envelope 3, 7
	;note F#, 0 | WARNING: Rounded down to 0
	volume_envelope 4, 7
	;note C#, 0 | WARNING: Rounded down to 0
	octave 2
	note A#, 1
	octave 1
	volume_envelope 5, 7
	note A#, 3
	octave 3
	volume_envelope 3, 7
	;note F#, 0 | WARNING: Rounded down to 0
	volume_envelope 4, 7
	;note C#, 0 | WARNING: Rounded down to 0
	octave 2
	note A#, 1
	octave 1
	note C#, 3
	octave 3
	volume_envelope 3, 7
	;note F#, 0 | WARNING: Rounded down to 0
	octave 2
	volume_envelope 4, 7
	;note A#, 0 | WARNING: Rounded down to 0
	octave 3
	note C#, 1
	octave 1
	note D#, 3
	octave 3
	volume_envelope 3, 7
	;note F#, 0 | WARNING: Rounded down to 0
	octave 2
	volume_envelope 4, 7
	;note A#, 0 | WARNING: Rounded down to 0
	octave 3
	note C#, 1
;Bar 31
	octave 1
	note C#, 3
	octave 2
	;note G#, 0 | WARNING: Rounded down to 0
	octave 3
	;note E_, 0 | WARNING: Rounded down to 0
	note C#, 1
	octave 1
	note G#, 3
	octave 3
	volume_envelope 3, 7
	;note E_, 0 | WARNING: Rounded down to 0
	octave 2
	volume_envelope 4, 7
	;note G#, 0 | WARNING: Rounded down to 0
	octave 3
	note C#, 1
	octave 1
	note F#, 3
	octave 3
	volume_envelope 3, 7
	;note F#, 0 | WARNING: Rounded down to 0
	octave 2
	volume_envelope 4, 7
	;note A#, 0 | WARNING: Rounded down to 0
	octave 3
	note C#, 1
	octave 1
	note A#, 3
	octave 3
	volume_envelope 3, 7
	;note F#, 0 | WARNING: Rounded down to 0
	octave 2
	;note A#, 0 | WARNING: Rounded down to 0
	octave 3
	volume_envelope 4, 7
	note C#, 1
;Bar 32
	octave 1
	note B_, 3
	octave 3
	volume_envelope 3, 7
	;note F#, 0 | WARNING: Rounded down to 0
	octave 2
	;note B_, 0 | WARNING: Rounded down to 0
	octave 3
	volume_envelope 4, 7
	note D#, 1
	octave 1
	note G#, 3
	octave 3
	volume_envelope 3, 7
	;note F#, 0 | WARNING: Rounded down to 0
	octave 2
	volume_envelope 4, 7
	;note B_, 0 | WARNING: Rounded down to 0
	octave 3
	note D#, 1
	octave 1
	note F#, 3
	octave 3
	;note D#, 0 | WARNING: Rounded down to 0
	volume_envelope 3, 7
	;note F#, 0 | WARNING: Rounded down to 0
	octave 2
	volume_envelope 4, 7
	note B_, 1
	octave 1
	note D#, 3
	octave 3
	volume_envelope 3, 7
	;note F#, 0 | WARNING: Rounded down to 0
	volume_envelope 4, 7
	;note D#, 0 | WARNING: Rounded down to 0
	octave 2
	volume_envelope 3, 7
	note B_, 1
;Bar 33
	octave 1
	note D#, 3
	octave 2
	;note A#, 0 | WARNING: Rounded down to 0
	octave 3
	;note D#, 0 | WARNING: Rounded down to 0
	volume_envelope 2, 7
	note G_, 1
	octave 1
	note G_, 3
	octave 2
	volume_envelope 4, 7
	;note A#, 0 | WARNING: Rounded down to 0
	octave 3
	;note D#, 0 | WARNING: Rounded down to 0
	volume_envelope 3, 7
	note G_, 1
	octave 1
	volume_envelope 4, 7
	note A#, 3
	octave 2
	;note A#, 0 | WARNING: Rounded down to 0
	octave 3
	;note D_, 0 | WARNING: Rounded down to 0
	note F_, 1
	octave 1
	volume_envelope 3, 7
	note D_, 3
	octave 2
	volume_envelope 4, 7
	;note A#, 0 | WARNING: Rounded down to 0
	octave 3
	;note F_, 0 | WARNING: Rounded down to 0
	volume_envelope 5, 7
	note D_, 1
;Bar 34
	octave 1
	volume_envelope 3, 7
	note D#, 3
	octave 2
	volume_envelope 4, 7
	;note A#, 0 | WARNING: Rounded down to 0
	octave 3
	;note D#, 0 | WARNING: Rounded down to 0
	volume_envelope 3, 7
	note G_, 1
	octave 1
	note C_, 3
	octave 3
	;note D#, 0 | WARNING: Rounded down to 0
	octave 2
	volume_envelope 4, 7
	;note A#, 0 | WARNING: Rounded down to 0
	octave 3
	volume_envelope 2, 7
	note G_, 1
	octave 1
	volume_envelope 4, 7
	note A#, 3
	octave 3
	volume_envelope 3, 7
	;note D#, 0 | WARNING: Rounded down to 0
	octave 2
	volume_envelope 4, 7
	;note A#, 0 | WARNING: Rounded down to 0
	octave 3
	volume_envelope 3, 7
	note G_, 1
	octave 1
	volume_envelope 2, 7
	note G_, 3
	octave 2
	volume_envelope 3, 7
	;note A#, 0 | WARNING: Rounded down to 0
	octave 3
	;note D#, 0 | WARNING: Rounded down to 0
	volume_envelope 2, 7
	note G_, 1
;Bar 35
	octave 1
	volume_envelope 3, 7
	note D#, 3
	octave 3
	;note D#, 0 | WARNING: Rounded down to 0
	volume_envelope 2, 7
	;note G_, 0 | WARNING: Rounded down to 0
	octave 2
	volume_envelope 3, 7
	note A#, 1
	octave 1
	volume_envelope 2, 7
	note G_, 3
	octave 3
	volume_envelope 4, 7
	;note D#, 0 | WARNING: Rounded down to 0
	octave 2
	;note A#, 0 | WARNING: Rounded down to 0
	octave 3
	volume_envelope 3, 7
	note G_, 1
	octave 1
	volume_envelope 4, 7
	note A#, 3
	octave 2
	;note A#, 0 | WARNING: Rounded down to 0
	octave 3
	;note F_, 0 | WARNING: Rounded down to 0
	note D_, 1
	octave 1
	volume_envelope 3, 7
	note D_, 3
	octave 3
	;note F_, 0 | WARNING: Rounded down to 0
	volume_envelope 4, 7
	;note D_, 0 | WARNING: Rounded down to 0
	octave 2
	note A#, 1
;Bar 36
	octave 1
	volume_envelope 3, 7
	note D#, 3
	octave 3
	;note G_, 0 | WARNING: Rounded down to 0
	volume_envelope 4, 7
	;note D#, 0 | WARNING: Rounded down to 0
	octave 2
	note A#, 1
	octave 1
	volume_envelope 3, 7
	note C_, 3
	octave 2
	;note A#, 0 | WARNING: Rounded down to 0
	octave 3
	;note D#, 0 | WARNING: Rounded down to 0
	volume_envelope 2, 7
	note G_, 1
	octave 1
	volume_envelope 4, 7
	note A#, 3
	octave 2
	volume_envelope 3, 7
	;note A#, 0 | WARNING: Rounded down to 0
	octave 3
	;note D#, 0 | WARNING: Rounded down to 0
	volume_envelope 2, 7
	note G_, 1
	octave 1
	note G_, 3
	octave 2
	volume_envelope 4, 7
	;note A#, 0 | WARNING: Rounded down to 0
	octave 3
	volume_envelope 2, 7
	;note G_, 0 | WARNING: Rounded down to 0
	volume_envelope 3, 7
	note D#, 1
;Bar 37
	octave 1
	note F#, 3
	octave 3
	;note F#, 0 | WARNING: Rounded down to 0
	octave 2
	volume_envelope 4, 7
	;note A#, 0 | WARNING: Rounded down to 0
	octave 3
	note C#, 1
	octave 1
	volume_envelope 3, 7
	note A#, 3
	octave 2
	volume_envelope 4, 7
	;note A#, 0 | WARNING: Rounded down to 0
	octave 3
	volume_envelope 3, 7
	;note F#, 0 | WARNING: Rounded down to 0
	volume_envelope 4, 7
	note C#, 1
	octave 1
	note C#, 3
	octave 3
	volume_envelope 3, 7
	;note C#, 0 | WARNING: Rounded down to 0
	octave 2
	;note G#, 0 | WARNING: Rounded down to 0
	octave 3
	note F_, 1
	octave 1
	note F_, 3
	octave 2
	volume_envelope 4, 7
	;note G#, 0 | WARNING: Rounded down to 0
	octave 3
	;note C#, 0 | WARNING: Rounded down to 0
	volume_envelope 3, 7
	note F_, 1
;Bar 38
	octave 1
	note F#, 3
	octave 3
	;note F#, 0 | WARNING: Rounded down to 0
	octave 2
	volume_envelope 4, 7
	;note A#, 0 | WARNING: Rounded down to 0
	octave 3
	note C#, 1
	octave 1
	note D#, 3
	octave 2
	;note A#, 0 | WARNING: Rounded down to 0
	octave 3
	volume_envelope 3, 7
	;note F#, 0 | WARNING: Rounded down to 0
	volume_envelope 4, 7
	note C#, 1
	octave 1
	note C#, 3
	octave 2
	;note A#, 0 | WARNING: Rounded down to 0
	octave 3
	volume_envelope 3, 7
	;note F#, 0 | WARNING: Rounded down to 0
	volume_envelope 4, 7
	note C#, 1
	octave 1
	note A#, 3
	octave 3
	volume_envelope 2, 7
	;note F#, 0 | WARNING: Rounded down to 0
	octave 2
	volume_envelope 4, 7
	;note A#, 0 | WARNING: Rounded down to 0
	octave 3
	note C#, 1
;Bar 39
	octave 1
	note G#, 3
	octave 3
	volume_envelope 3, 7
	;note D#, 0 | WARNING: Rounded down to 0
	octave 2
	;note G#, 0 | WARNING: Rounded down to 0
	octave 3
	note C_, 1
	octave 1
	volume_envelope 4, 7
	note D#, 3
	octave 3
	volume_envelope 3, 7
	;note D#, 0 | WARNING: Rounded down to 0
	;note C_, 0 | WARNING: Rounded down to 0
	octave 2
	note G#, 1
	octave 1
	volume_envelope 4, 7
	note C#, 3
	octave 3
	;note C#, 0 | WARNING: Rounded down to 0
	octave 2
	volume_envelope 3, 7
	;note G#, 0 | WARNING: Rounded down to 0
	octave 3
	note F_, 1
	octave 1
	note G#, 3
	octave 3
	volume_envelope 2, 7
	;note F_, 0 | WARNING: Rounded down to 0
	volume_envelope 3, 7
	;note C#, 0 | WARNING: Rounded down to 0
	octave 2
	note G#, 1
;Bar 40
	octave 1
	volume_envelope 4, 7
	note F#, 3
	octave 3
	volume_envelope 3, 7
	;note F#, 0 | WARNING: Rounded down to 0
	volume_envelope 4, 7
	;note C#, 0 | WARNING: Rounded down to 0
	octave 2
	volume_envelope 3, 7
	note A#, 1
	octave 1
	volume_envelope 4, 7
	note E_, 3
	octave 3
	volume_envelope 3, 7
	;note F#, 0 | WARNING: Rounded down to 0
	octave 2
	volume_envelope 4, 7
	;note A#, 0 | WARNING: Rounded down to 0
	octave 3
	note C#, 1
	octave 1
	note D#, 3
	octave 3
	;note D#, 0 | WARNING: Rounded down to 0
	volume_envelope 3, 7
	;note F#, 0 | WARNING: Rounded down to 0
	octave 2
	volume_envelope 4, 7
	note A#, 1
	octave 1
	volume_envelope 5, 7
	note C#, 3
	octave 3
	volume_envelope 3, 7
	;note F#, 0 | WARNING: Rounded down to 0
	volume_envelope 4, 7
	;note C#, 0 | WARNING: Rounded down to 0
	octave 2
	note A#, 1
;Bar 41
	octave 1
	volume_envelope 3, 7
	note C_, 3
	octave 3
	volume_envelope 4, 7
	;note E_, 0 | WARNING: Rounded down to 0
	volume_envelope 3, 7
	;note C_, 0 | WARNING: Rounded down to 0
	note G_, 1
	octave 1
	volume_envelope 4, 7
	note E_, 3
	octave 3
	;note C_, 0 | WARNING: Rounded down to 0
	;note E_, 0 | WARNING: Rounded down to 0
	note G_, 1
	octave 1
	note G_, 3
	octave 3
	volume_envelope 3, 7
	;note C_, 0 | WARNING: Rounded down to 0
	volume_envelope 4, 7
	;note E_, 0 | WARNING: Rounded down to 0
	volume_envelope 3, 7
	note G_, 1
	octave 1
	volume_envelope 4, 7
	note A_, 3
	octave 3
	;note E_, 0 | WARNING: Rounded down to 0
	;note C_, 0 | WARNING: Rounded down to 0
	note G_, 1
;Bar 42
	octave 1
	volume_envelope 3, 7
	note C_, 3
	octave 3
	;note G_, 0 | WARNING: Rounded down to 0
	volume_envelope 4, 7
	;note E_, 0 | WARNING: Rounded down to 0
	note C_, 1
	octave 1
	note E_, 3
	octave 3
	;note E_, 0 | WARNING: Rounded down to 0
	volume_envelope 3, 7
	;note C_, 0 | WARNING: Rounded down to 0
	note G_, 1
	octave 1
	volume_envelope 4, 7
	note G_, 3
	octave 3
	;note E_, 0 | WARNING: Rounded down to 0
	volume_envelope 3, 7
	;note G_, 0 | WARNING: Rounded down to 0
	volume_envelope 4, 7
	note C_, 1
	octave 1
	note A_, 3
	octave 3
	;note C_, 0 | WARNING: Rounded down to 0
	;note E_, 0 | WARNING: Rounded down to 0
	note G_, 1
;Bar 43
	octave 1
	volume_envelope 3, 7
	note G_, 3
	octave 3
	;note G_, 0 | WARNING: Rounded down to 0
	volume_envelope 4, 7
	;note D_, 0 | WARNING: Rounded down to 0
	octave 2
	volume_envelope 3, 7
	note B_, 1
	octave 1
	volume_envelope 4, 7
	note B_, 3
	octave 3
	volume_envelope 3, 7
	;note G_, 0 | WARNING: Rounded down to 0
	octave 2
	;note B_, 0 | WARNING: Rounded down to 0
	octave 3
	volume_envelope 4, 7
	note D_, 1
	octave 1
	note D_, 3
	octave 3
	volume_envelope 3, 7
	;note G_, 0 | WARNING: Rounded down to 0
	;note D_, 0 | WARNING: Rounded down to 0
	octave 2
	volume_envelope 4, 7
	note B_, 1
	octave 1
	note E_, 3
	octave 3
	volume_envelope 3, 7
	;note G_, 0 | WARNING: Rounded down to 0
	volume_envelope 4, 7
	;note D_, 0 | WARNING: Rounded down to 0
	octave 2
	volume_envelope 3, 7
	note B_, 1
;Bar 44
	octave 1
	volume_envelope 4, 7
	note G_, 3
	octave 3
	volume_envelope 3, 7
	;note G_, 0 | WARNING: Rounded down to 0
	;note D_, 0 | WARNING: Rounded down to 0
	octave 2
	note B_, 1
	octave 1
	volume_envelope 4, 7
	note B_, 3
	octave 3
	volume_envelope 3, 7
	;note G_, 0 | WARNING: Rounded down to 0
	;note D_, 0 | WARNING: Rounded down to 0
	octave 2
	volume_envelope 4, 7
	note B_, 1
	octave 1
	volume_envelope 5, 7
	note D_, 3
	octave 3
	volume_envelope 2, 7
	;note G_, 0 | WARNING: Rounded down to 0
	volume_envelope 3, 7
	;note D_, 0 | WARNING: Rounded down to 0
	octave 2
	note B_, 1
	octave 1
	volume_envelope 4, 7
	note E_, 3
	octave 3
	volume_envelope 3, 7
	;note G_, 0 | WARNING: Rounded down to 0
	volume_envelope 4, 7
	;note D_, 0 | WARNING: Rounded down to 0
	octave 2
	note B_, 1
;Bar 45
	octave 1
	volume_envelope 3, 7
	note G_, 3
	octave 3
	;note G_, 0 | WARNING: Rounded down to 0
	;note D_, 0 | WARNING: Rounded down to 0
	octave 2
	note B_, 1
	octave 1
	volume_envelope 4, 7
	note B_, 3
	octave 3
	volume_envelope 3, 7
	;note G_, 0 | WARNING: Rounded down to 0
	;note D_, 0 | WARNING: Rounded down to 0
	octave 2
	note B_, 1
	octave 1
	volume_envelope 4, 7
	note D_, 3
	octave 3
	volume_envelope 3, 7
	;note G_, 0 | WARNING: Rounded down to 0
	volume_envelope 4, 7
	;note D_, 0 | WARNING: Rounded down to 0
	octave 2
	volume_envelope 3, 7
	note B_, 1
	octave 1
	volume_envelope 4, 7
	note E_, 3
	octave 3
	volume_envelope 3, 7
	;note G_, 0 | WARNING: Rounded down to 0
	;note D_, 0 | WARNING: Rounded down to 0
	octave 2
	note B_, 1
;Bar 46
	octave 1
	volume_envelope 4, 7
	note G_, 3
	octave 3
	volume_envelope 3, 7
	;note G_, 0 | WARNING: Rounded down to 0
	volume_envelope 4, 7
	;note D_, 0 | WARNING: Rounded down to 0
	octave 2
	note B_, 1
	octave 1
	volume_envelope 5, 7
	note B_, 3
	octave 3
	volume_envelope 3, 7
	;note G_, 0 | WARNING: Rounded down to 0
	volume_envelope 4, 7
	;note D_, 0 | WARNING: Rounded down to 0
	octave 2
	note B_, 1
	octave 1
	note D_, 3
	octave 3
	volume_envelope 3, 7
	;note G_, 0 | WARNING: Rounded down to 0
	octave 2
	volume_envelope 4, 7
	;note B_, 0 | WARNING: Rounded down to 0
	octave 3
	note D_, 1
	octave 1
	note E_, 3
	octave 3
	volume_envelope 3, 7
	;note G_, 0 | WARNING: Rounded down to 0
	octave 2
	volume_envelope 4, 7
	;note B_, 0 | WARNING: Rounded down to 0
	octave 3
	note D_, 1
;Bar 47
	octave 1
	note D_, 3
	octave 2
	;note A_, 0 | WARNING: Rounded down to 0
	octave 3
	;note F_, 0 | WARNING: Rounded down to 0
	note D_, 1
	octave 1
	note A_, 3
	octave 3
	volume_envelope 3, 7
	;note F_, 0 | WARNING: Rounded down to 0
	octave 2
	volume_envelope 4, 7
	;note A_, 0 | WARNING: Rounded down to 0
	octave 3
	note D_, 1
	octave 1
	note G_, 3
	octave 3
	volume_envelope 3, 7
	;note G_, 0 | WARNING: Rounded down to 0
	octave 2
	volume_envelope 4, 7
	;note B_, 0 | WARNING: Rounded down to 0
	octave 3
	note D_, 1
	octave 1
	note B_, 3
	octave 3
	volume_envelope 3, 7
	;note G_, 0 | WARNING: Rounded down to 0
	octave 2
	;note B_, 0 | WARNING: Rounded down to 0
	octave 3
	volume_envelope 4, 7
	note D_, 1
;Bar 48
	octave 1
	note C_, 3
	octave 3
	volume_envelope 3, 7
	;note G_, 0 | WARNING: Rounded down to 0
	;note C_, 0 | WARNING: Rounded down to 0
	volume_envelope 4, 7
	note E_, 1
	octave 1
	note A_, 3
	octave 3
	volume_envelope 3, 7
	;note G_, 0 | WARNING: Rounded down to 0
	volume_envelope 4, 7
	;note C_, 0 | WARNING: Rounded down to 0
	note E_, 1
	octave 1
	note G_, 3
	octave 3
	;note E_, 0 | WARNING: Rounded down to 0
	volume_envelope 3, 7
	;note G_, 0 | WARNING: Rounded down to 0
	volume_envelope 4, 7
	note C_, 1
	octave 1
	note E_, 3
	octave 3
	volume_envelope 3, 7
	;note G_, 0 | WARNING: Rounded down to 0
	volume_envelope 4, 7
	;note E_, 0 | WARNING: Rounded down to 0
	volume_envelope 3, 7
	note C_, 1
;Bar 49
	octave 1
	note G_, 3
	octave 3
	;note G_, 0 | WARNING: Rounded down to 0
	;note D_, 0 | WARNING: Rounded down to 0
	octave 2
	note B_, 1
	octave 1
	volume_envelope 4, 7
	note B_, 3
	octave 3
	volume_envelope 3, 7
	;note G_, 0 | WARNING: Rounded down to 0
	;note D_, 0 | WARNING: Rounded down to 0
	octave 2
	note B_, 1
	octave 1
	volume_envelope 4, 7
	note D_, 3
	octave 3
	volume_envelope 3, 7
	;note G_, 0 | WARNING: Rounded down to 0
	volume_envelope 4, 7
	;note D_, 0 | WARNING: Rounded down to 0
	octave 2
	volume_envelope 3, 7
	note B_, 1
	octave 1
	volume_envelope 4, 7
	note E_, 3
	octave 3
	volume_envelope 3, 7
	;note G_, 0 | WARNING: Rounded down to 0
	;note D_, 0 | WARNING: Rounded down to 0
	octave 2
	note B_, 1
;Bar 50
	octave 1
	volume_envelope 4, 7
	note G_, 3
	octave 3
	volume_envelope 3, 7
	;note G_, 0 | WARNING: Rounded down to 0
	volume_envelope 4, 7
	;note D_, 0 | WARNING: Rounded down to 0
	octave 2
	note B_, 1
	octave 1
	volume_envelope 5, 7
	note B_, 3
	octave 3
	volume_envelope 3, 7
	;note G_, 0 | WARNING: Rounded down to 0
	volume_envelope 4, 7
	;note D_, 0 | WARNING: Rounded down to 0
	octave 2
	note B_, 1
	octave 1
	note D_, 3
	octave 3
	volume_envelope 3, 7
	;note G_, 0 | WARNING: Rounded down to 0
	octave 2
	volume_envelope 4, 7
	;note B_, 0 | WARNING: Rounded down to 0
	octave 3
	note D_, 1
	octave 1
	note E_, 3
	octave 3
	volume_envelope 3, 7
	;note G_, 0 | WARNING: Rounded down to 0
	octave 2
	volume_envelope 4, 7
	;note B_, 0 | WARNING: Rounded down to 0
	octave 3
	note D_, 1
;Bar 51
	octave 1
	note D_, 4
	octave 1
	note A_, 4
	note G_, 4
	note B_, 4
;Bar 52
	octave 4
	volume_envelope 3, 7
	;note C_, 0 | WARNING: Rounded down to 0
	octave 3
	volume_envelope 4, 7
	;note G_, 0 | WARNING: Rounded down to 0
	;note C_, 0 | WARNING: Rounded down to 0
	;note E_, 0 | WARNING: Rounded down to 0
	octave 1
	note C_, 16
	note C_, 8
	sound_ret

; ============================================================================================================

Music_Academy_Ch2:
	duty_cycle 2
	note_type 12, 10, 7
;Bar 1
	volume_envelope 6, 7
	rest 12
	octave 4
	volume_envelope 7, 7
	;note F#, 0 | WARNING: Rounded down to 0
	volume_envelope 8, 7
	note D#, 3
	volume_envelope 6, 7
	;note F#, 0 | WARNING: Rounded down to 0
	note D#, 1
;Bar 2
	;note D#, 0 | WARNING: Rounded down to 0
	note F#, 12
	volume_envelope 7, 7
	;note F#, 0 | WARNING: Rounded down to 0
	note D#, 3
	volume_envelope 8, 7
	;note F#, 0 | WARNING: Rounded down to 0
	volume_envelope 7, 7
	note D#, 1
;Bar 3
	octave 3
	;note B_, 0 | WARNING: Rounded down to 0
	octave 4
	volume_envelope 6, 7
	note D#, 3
	volume_envelope 7, 7
	;note D#, 0 | WARNING: Rounded down to 0
	;note F#, 0 | WARNING: Rounded down to 0
	rest 9
	;note D#, 0 | WARNING: Rounded down to 0
	note F#, 3
	;note F#, 0 | WARNING: Rounded down to 0
	volume_envelope 8, 7
	note D#, 1
;Bar 4
	volume_envelope 7, 7
	;note F#, 0 | WARNING: Rounded down to 0
	volume_envelope 8, 7
	note C#, 5
	rest 7
	volume_envelope 7, 7
	;note F#, 0 | WARNING: Rounded down to 0
	note C#, 3
	volume_envelope 6, 7
	;note F#, 0 | WARNING: Rounded down to 0
	note C#, 1 ; WARNING: Auto-Sync says: Rounded up!
;Bar 5
	volume_envelope 8, 7
	;note C#, 0 | WARNING: Rounded down to 0
	note E_, 3 ; WARNING: Auto-Sync says: Rounded up!
	volume_envelope 7, 7
	;note F#, 0 | WARNING: Rounded down to 0
	note C#, 1 ; WARNING: Auto-Sync says: Rounded up!
	rest 7
	volume_envelope 8, 7
	;note F#, 0 | WARNING: Rounded down to 0
	note D#, 1
	volume_envelope 7, 7
	;note G#, 0 | WARNING: Rounded down to 0
	note E_, 1
	rest 2
	volume_envelope 6, 7
	;note F_, 0 | WARNING: Rounded down to 0
	note A_, 1
;Bar 6
	volume_envelope 7, 7
	;note A#, 0 | WARNING: Rounded down to 0
	note F#, 3
	;note A#, 0 | WARNING: Rounded down to 0
	note F#, 1
	volume_envelope 6, 7
	;note A#, 0 | WARNING: Rounded down to 0
	note F#, 3
	volume_envelope 8, 7
	;note E_, 0 | WARNING: Rounded down to 0
	note G#, 9
;Bar 7
	volume_envelope 7, 7
	;note F#, 0 | WARNING: Rounded down to 0
	note D#, 3
	;note F#, 0 | WARNING: Rounded down to 0
	volume_envelope 6, 7
	note D#, 1
	volume_envelope 7, 7
	;note D#, 0 | WARNING: Rounded down to 0
	volume_envelope 8, 7
	note F#, 1
	rest 2
	;note E_, 0 | WARNING: Rounded down to 0
	note C#, 8
	rest 1
;Bar 8
	volume_envelope 7, 7
	;note D#, 0 | WARNING: Rounded down to 0
	octave 3
	volume_envelope 8, 7
	note B_, 1
	rest 2
	volume_envelope 6, 7
	;note B_, 0 | WARNING: Rounded down to 0
	octave 4
	note D#, 1
	octave 3
	;note B_, 0 | WARNING: Rounded down to 0
	octave 4
	note D#, 1
	rest 2
	octave 3
	volume_envelope 7, 7
	;note B_, 0 | WARNING: Rounded down to 0
	octave 4
	note D#, 1 ; WARNING: Auto-Sync says: Rounded up!
	;note C#, 0 | WARNING: Rounded down to 0
	octave 3
	note A#, 1
	rest 2
	octave 4
	volume_envelope 6, 7
	;note C#, 0 | WARNING: Rounded down to 0
	octave 3
	note A#, 1
	octave 4
	volume_envelope 7, 7
	;note C#, 0 | WARNING: Rounded down to 0
	octave 3
	note A#, 1
	rest 2
	;note A#, 0 | WARNING: Rounded down to 0
	octave 4
	note C#, 1 ; WARNING: Auto-Sync says: Rounded up!
;Bar 9
	octave 3
	;note B_, 0 | WARNING: Rounded down to 0
	note F#, 12 ; WARNING: Auto-Sync says: Rounded up!
	octave 4
	;note F#, 0 | WARNING: Rounded down to 0
	volume_envelope 8, 7
	note D#, 3
	volume_envelope 6, 7
	;note F#, 0 | WARNING: Rounded down to 0
	note D#, 1 ; WARNING: Auto-Sync says: Rounded down!
;Bar 10
	;note F#, 0 | WARNING: Rounded down to 0
	note D#, 12
	volume_envelope 7, 7
	;note D#, 0 | WARNING: Rounded down to 0
	note F#, 3 ; WARNING: Auto-Sync says: Rounded up!
	volume_envelope 8, 7
	;note F#, 0 | WARNING: Rounded down to 0
	volume_envelope 7, 7
	note D#, 1 ; WARNING: Auto-Sync says: Rounded up!
;Bar 11
	octave 3
	;note B_, 0 | WARNING: Rounded down to 0
	octave 4
	volume_envelope 6, 7
	note D#, 3 ; WARNING: Auto-Sync says: Rounded up!
	volume_envelope 7, 7
	;note D#, 0 | WARNING: Rounded down to 0
	;note F#, 0 | WARNING: Rounded down to 0
	rest 9
	;note D#, 0 | WARNING: Rounded down to 0
	note F#, 3
	;note F#, 0 | WARNING: Rounded down to 0
	volume_envelope 8, 7
	note D#, 1
;Bar 12
	volume_envelope 7, 7
	;note F#, 0 | WARNING: Rounded down to 0
	volume_envelope 8, 7
	note C#, 5
	rest 7
	volume_envelope 7, 7
	;note F#, 0 | WARNING: Rounded down to 0
	note C#, 3 ; WARNING: Auto-Sync says: Rounded down!
	volume_envelope 6, 7
	;note F#, 0 | WARNING: Rounded down to 0
	note C#, 1 ; WARNING: Auto-Sync says: Rounded up!
;Bar 13
	octave 3
	volume_envelope 8, 7
	;note B_, 0 | WARNING: Rounded down to 0
	octave 4
	note E_, 3 ; WARNING: Auto-Sync says: Rounded up!
	volume_envelope 7, 7
	;note F#, 0 | WARNING: Rounded down to 0
	note C#, 1 ; WARNING: Auto-Sync says: Rounded up!
	rest 7
	volume_envelope 8, 7
	;note F#, 0 | WARNING: Rounded down to 0
	note D#, 1
	volume_envelope 7, 7
	;note G#, 0 | WARNING: Rounded down to 0
	note E_, 1
	rest 2
	volume_envelope 6, 7
	;note F_, 0 | WARNING: Rounded down to 0
	note A_, 1
;Bar 14
	volume_envelope 7, 7
	;note A#, 0 | WARNING: Rounded down to 0
	note F#, 3
	;note A#, 0 | WARNING: Rounded down to 0
	note F#, 1
	volume_envelope 6, 7
	;note A#, 0 | WARNING: Rounded down to 0
	note F#, 3
	volume_envelope 8, 7
	;note E_, 0 | WARNING: Rounded down to 0
	note G#, 9
;Bar 15
	volume_envelope 7, 7
	;note F#, 0 | WARNING: Rounded down to 0
	note D#, 3
	;note F#, 0 | WARNING: Rounded down to 0
	volume_envelope 6, 7
	note D#, 1
	volume_envelope 7, 7
	;note D#, 0 | WARNING: Rounded down to 0
	volume_envelope 8, 7
	note F#, 1 ; WARNING: Auto-Sync says: Rounded up!
	rest 2
	;note E_, 0 | WARNING: Rounded down to 0
	note C#, 8
	rest 1
;Bar 16
	;note D#, 0 | WARNING: Rounded down to 0
	note F#, 3
	volume_envelope 6, 7
	;note D#, 0 | WARNING: Rounded down to 0
	volume_envelope 7, 7
	note F#, 1 ; WARNING: Auto-Sync says: Rounded up!
	;note D#, 0 | WARNING: Rounded down to 0
	note F#, 1 ; WARNING: Auto-Sync says: Rounded up!
	rest 2
	volume_envelope 8, 7
	;note F#, 0 | WARNING: Rounded down to 0
	note D#, 1
	;note E_, 0 | WARNING: Rounded down to 0
	note C#, 3
	volume_envelope 7, 7
	;note E_, 0 | WARNING: Rounded down to 0
	note C#, 1
	volume_envelope 8, 7
	;note E_, 0 | WARNING: Rounded down to 0
	note C#, 1
	rest 2
	;note C#, 0 | WARNING: Rounded down to 0
	note E_, 1
;Bar 17
	octave 3
	volume_envelope 7, 7
	;note B_, 0 | WARNING: Rounded down to 0
	octave 4
	note D#, 11
	rest 5
;Bar 18
	octave 3
	volume_envelope 4, 7
	;note G_, 0 | WARNING: Rounded down to 0
	volume_envelope 5, 7
	note A#, 3
	volume_envelope 4, 7
	;note G_, 0 | WARNING: Rounded down to 0
	volume_envelope 5, 7
	note A#, 1
	octave 4
	volume_envelope 7, 7
	;note G_, 0 | WARNING: Rounded down to 0
	note D#, 1
	rest 2
	volume_envelope 6, 7
	;note G_, 0 | WARNING: Rounded down to 0
	volume_envelope 7, 7
	note D#, 1
	volume_envelope 4, 7
	;note C_, 0 | WARNING: Rounded down to 0
	octave 3
	volume_envelope 5, 7
	note G#, 1 ; WARNING: Auto-Sync says: Rounded up!
	rest 2
	octave 4
	;note C_, 0 | WARNING: Rounded down to 0
	octave 3
	volume_envelope 6, 7
	note G#, 1
	octave 4
	volume_envelope 7, 7
	;note G#, 0 | WARNING: Rounded down to 0
	note F_, 3
	volume_envelope 5, 7
	;note F_, 0 | WARNING: Rounded down to 0
	volume_envelope 6, 7
	note G#, 1
;Bar 19
	;note D#, 0 | WARNING: Rounded down to 0
	volume_envelope 7, 7
	note G_, 1
	rest 2
	;note D#, 0 | WARNING: Rounded down to 0
	octave 3
	note A#, 1 ; WARNING: Auto-Sync says: Rounded up!
	rest 12
;Bar 20
	volume_envelope 5, 7
	;note G_, 0 | WARNING: Rounded down to 0
	volume_envelope 7, 7
	note A#, 3
	volume_envelope 5, 7
	;note G_, 0 | WARNING: Rounded down to 0
	volume_envelope 6, 7
	note A#, 1
	octave 4
	volume_envelope 7, 7
	;note D#, 0 | WARNING: Rounded down to 0
	note G_, 1
	rest 2
	;note G_, 0 | WARNING: Rounded down to 0
	note D#, 1
	volume_envelope 5, 7
	;note C_, 0 | WARNING: Rounded down to 0
	octave 3
	note G#, 1
	rest 2
	octave 4
	;note C_, 0 | WARNING: Rounded down to 0
	octave 3
	volume_envelope 6, 7
	note G#, 1
	octave 4
	volume_envelope 8, 7
	;note G#, 0 | WARNING: Rounded down to 0
	volume_envelope 7, 7
	note F_, 1
	rest 2
	;note G#, 0 | WARNING: Rounded down to 0
	volume_envelope 6, 7
	note F_, 1
;Bar 21
	volume_envelope 7, 7
	;note G_, 0 | WARNING: Rounded down to 0
	note D#, 15
	rest 1
;Bar 22
	volume_envelope 8, 7
	;note C#, 0 | WARNING: Rounded down to 0
	octave 3
	volume_envelope 6, 7
	note A#, 1
	rest 2
	octave 4
	volume_envelope 7, 7
	;note C#, 0 | WARNING: Rounded down to 0
	octave 3
	volume_envelope 6, 7
	note A#, 1
	octave 4
	volume_envelope 8, 7
	;note F#, 0 | WARNING: Rounded down to 0
	volume_envelope 7, 7
	note A#, 1
	rest 2
	;note A#, 0 | WARNING: Rounded down to 0
	note F#, 1
	octave 3
	;note B_, 0 | WARNING: Rounded down to 0
	octave 4
	volume_envelope 8, 7
	note D#, 1
	rest 2
	volume_envelope 7, 7
	;note D#, 0 | WARNING: Rounded down to 0
	octave 3
	volume_envelope 6, 7
	note B_, 1
	octave 4
	volume_envelope 8, 7
	;note G#, 0 | WARNING: Rounded down to 0
	note B_, 1
	rest 2
	volume_envelope 7, 7
	;note B_, 0 | WARNING: Rounded down to 0
	note G#, 1
;Bar 23
	volume_envelope 8, 7
	;note A#, 0 | WARNING: Rounded down to 0
	note F#, 1
	rest 2
	volume_envelope 7, 7
	;note F#, 0 | WARNING: Rounded down to 0
	volume_envelope 8, 7
	note C#, 10
	rest 3
;Bar 24
	volume_envelope 7, 7
	;note A#, 0 | WARNING: Rounded down to 0
	note F#, 1
	rest 2
	;note A#, 0 | WARNING: Rounded down to 0
	note F#, 1
	;note D#, 0 | WARNING: Rounded down to 0
	volume_envelope 6, 7
	note C_, 1
	rest 2
	;note C_, 0 | WARNING: Rounded down to 0
	note D#, 1
	volume_envelope 7, 7
	;note G#, 0 | WARNING: Rounded down to 0
	volume_envelope 8, 7
	note C#, 1
	rest 2
	volume_envelope 7, 7
	;note G#, 0 | WARNING: Rounded down to 0
	note C#, 1
	volume_envelope 6, 7
	;note C#, 0 | WARNING: Rounded down to 0
	octave 3
	volume_envelope 8, 7
	note G#, 1
	rest 2
	volume_envelope 7, 7
	;note G#, 0 | WARNING: Rounded down to 0
	octave 4
	volume_envelope 6, 7
	note C#, 1
;Bar 25
	octave 3
	volume_envelope 8, 7
	;note A#, 0 | WARNING: Rounded down to 0
	octave 4
	volume_envelope 7, 7
	note F#, 12
	;note F#, 0 | WARNING: Rounded down to 0
	volume_envelope 8, 7
	note D#, 3
	volume_envelope 6, 7
	;note F#, 0 | WARNING: Rounded down to 0
	note D#, 1
;Bar 26
	;note F#, 0 | WARNING: Rounded down to 0
	note D#, 12
	volume_envelope 7, 7
	;note D#, 0 | WARNING: Rounded down to 0
	note F#, 3
	volume_envelope 8, 7
	;note F#, 0 | WARNING: Rounded down to 0
	volume_envelope 7, 7
	note D#, 1
;Bar 27
	octave 3
	;note B_, 0 | WARNING: Rounded down to 0
	octave 4
	volume_envelope 6, 7
	note D#, 3
	volume_envelope 7, 7
	;note D#, 0 | WARNING: Rounded down to 0
	;note F#, 0 | WARNING: Rounded down to 0
	rest 9
	;note D#, 0 | WARNING: Rounded down to 0
	note F#, 3
	;note F#, 0 | WARNING: Rounded down to 0
	volume_envelope 8, 7
	note D#, 1
;Bar 28
	volume_envelope 7, 7
	;note F#, 0 | WARNING: Rounded down to 0
	volume_envelope 8, 7
	note C#, 5
	rest 7
	volume_envelope 7, 7
	;note F#, 0 | WARNING: Rounded down to 0
	note C#, 3
	volume_envelope 6, 7
	;note F#, 0 | WARNING: Rounded down to 0
	note C#, 1
;Bar 29
	volume_envelope 8, 7
	;note C#, 0 | WARNING: Rounded down to 0
	note E_, 3
	volume_envelope 7, 7
	;note F#, 0 | WARNING: Rounded down to 0
	note C#, 1
	rest 7
	volume_envelope 8, 7
	;note F#, 0 | WARNING: Rounded down to 0
	note D#, 1
	volume_envelope 7, 7
	;note G#, 0 | WARNING: Rounded down to 0
	note E_, 1
	rest 2
	volume_envelope 6, 7
	;note F_, 0 | WARNING: Rounded down to 0
	note A_, 1
;Bar 30
	volume_envelope 7, 7
	;note A#, 0 | WARNING: Rounded down to 0
	note F#, 3
	;note A#, 0 | WARNING: Rounded down to 0
	note F#, 1
	volume_envelope 6, 7
	;note A#, 0 | WARNING: Rounded down to 0
	note F#, 3
	volume_envelope 8, 7
	;note E_, 0 | WARNING: Rounded down to 0
	note G#, 9
;Bar 31
	volume_envelope 7, 7
	;note F#, 0 | WARNING: Rounded down to 0
	note D#, 3
	;note F#, 0 | WARNING: Rounded down to 0
	volume_envelope 6, 7
	note D#, 1
	volume_envelope 7, 7
	;note D#, 0 | WARNING: Rounded down to 0
	volume_envelope 8, 7
	note F#, 1
	rest 2
	;note E_, 0 | WARNING: Rounded down to 0
	note C#, 8
	rest 1
;Bar 32
	volume_envelope 7, 7
	;note D#, 0 | WARNING: Rounded down to 0
	octave 3
	volume_envelope 8, 7
	note B_, 1
	rest 2
	volume_envelope 6, 7
	;note B_, 0 | WARNING: Rounded down to 0
	octave 4
	note D#, 1
	octave 3
	;note B_, 0 | WARNING: Rounded down to 0
	octave 4
	note D#, 1
	rest 2
	octave 3
	volume_envelope 7, 7
	;note B_, 0 | WARNING: Rounded down to 0
	octave 4
	note D#, 1
	;note C#, 0 | WARNING: Rounded down to 0
	octave 3
	note A#, 1
	rest 2
	octave 4
	volume_envelope 6, 7
	;note C#, 0 | WARNING: Rounded down to 0
	octave 3
	note A#, 1
	octave 4
	volume_envelope 7, 7
	;note C#, 0 | WARNING: Rounded down to 0
	octave 3
	note A#, 1
	rest 2
	;note A#, 0 | WARNING: Rounded down to 0
	octave 4
	note C#, 1
;Bar 33
	octave 3
	;note B_, 0 | WARNING: Rounded down to 0
	note F#, 13
	rest 16
	rest 16
	rest 16
	rest 16
	rest 16
	rest 16
	rest 16
	rest 15
;Bar 41
	octave 4
	;note G_, 0 | WARNING: Rounded down to 0
	volume_envelope 8, 7
	note E_, 3
	volume_envelope 6, 7
	;note G_, 0 | WARNING: Rounded down to 0
	note E_, 1
;Bar 42
	;note G_, 0 | WARNING: Rounded down to 0
	note E_, 12
	volume_envelope 7, 7
	;note E_, 0 | WARNING: Rounded down to 0
	note G_, 3
	volume_envelope 8, 7
	;note G_, 0 | WARNING: Rounded down to 0
	volume_envelope 7, 7
	note E_, 1
;Bar 43
	;note C_, 0 | WARNING: Rounded down to 0
	volume_envelope 6, 7
	note E_, 3
	volume_envelope 7, 7
	;note E_, 0 | WARNING: Rounded down to 0
	;note G_, 0 | WARNING: Rounded down to 0
	rest 9
	;note E_, 0 | WARNING: Rounded down to 0
	note G_, 3
	;note G_, 0 | WARNING: Rounded down to 0
	volume_envelope 8, 7
	note E_, 1
;Bar 44
	volume_envelope 7, 7
	;note G_, 0 | WARNING: Rounded down to 0
	volume_envelope 8, 7
	note D_, 5
	rest 7
	volume_envelope 7, 7
	;note G_, 0 | WARNING: Rounded down to 0
	note D_, 3
	volume_envelope 6, 7
	;note G_, 0 | WARNING: Rounded down to 0
	note D_, 1
;Bar 45
	volume_envelope 8, 7
	;note D_, 0 | WARNING: Rounded down to 0
	note F_, 3
	volume_envelope 7, 7
	;note G_, 0 | WARNING: Rounded down to 0
	note D_, 1
	rest 7
	volume_envelope 8, 7
	;note E_, 0 | WARNING: Rounded down to 0
	note G_, 1
	volume_envelope 7, 7
	;note A_, 0 | WARNING: Rounded down to 0
	note F_, 1
	rest 2
	volume_envelope 6, 7
	;note F#, 0 | WARNING: Rounded down to 0
	note A#, 1
;Bar 46
	volume_envelope 7, 7
	;note B_, 0 | WARNING: Rounded down to 0
	note G_, 3
	;note B_, 0 | WARNING: Rounded down to 0
	note G_, 1
	volume_envelope 6, 7
	;note B_, 0 | WARNING: Rounded down to 0
	note G_, 3
	volume_envelope 8, 7
	;note F_, 0 | WARNING: Rounded down to 0
	note A_, 9
;Bar 47
	volume_envelope 7, 7
	;note G_, 0 | WARNING: Rounded down to 0
	note E_, 3
	;note G_, 0 | WARNING: Rounded down to 0
	volume_envelope 6, 7
	note E_, 1
	volume_envelope 7, 7
	;note E_, 0 | WARNING: Rounded down to 0
	volume_envelope 8, 7
	note G_, 1
	rest 2
	;note F_, 0 | WARNING: Rounded down to 0
	note D_, 8
	rest 1
;Bar 48
	volume_envelope 7, 7
	;note E_, 0 | WARNING: Rounded down to 0
	volume_envelope 8, 7
	note C_, 1
	rest 2
	volume_envelope 6, 7
	;note C_, 0 | WARNING: Rounded down to 0
	note E_, 1
	;note C_, 0 | WARNING: Rounded down to 0
	note E_, 1
	rest 2
	volume_envelope 7, 7
	;note C_, 0 | WARNING: Rounded down to 0
	note E_, 1
	;note D_, 0 | WARNING: Rounded down to 0
	octave 3
	note B_, 1
	rest 2
	octave 4
	volume_envelope 6, 7
	;note D_, 0 | WARNING: Rounded down to 0
	octave 3
	note B_, 1
	octave 4
	volume_envelope 7, 7
	;note D_, 0 | WARNING: Rounded down to 0
	octave 3
	note B_, 1
	rest 2
	;note B_, 0 | WARNING: Rounded down to 0
	octave 4
	note D_, 1
;Bar 49
	octave 3
	;note G_, 0 | WARNING: Rounded down to 0
	octave 4
	note C_, 1
	rest 10
	volume_envelope 8, 7
	;note E_, 0 | WARNING: Rounded down to 0
	note G_, 1
	volume_envelope 7, 7
	;note A_, 0 | WARNING: Rounded down to 0
	note F_, 1
	rest 2
	volume_envelope 6, 7
	;note F#, 0 | WARNING: Rounded down to 0
	note A#, 1
;Bar 50
	volume_envelope 7, 7
	;note B_, 0 | WARNING: Rounded down to 0
	note G_, 3
	;note B_, 0 | WARNING: Rounded down to 0
	note G_, 1
	volume_envelope 6, 7
	;note B_, 0 | WARNING: Rounded down to 0
	note G_, 3
	volume_envelope 8, 7
	;note F_, 0 | WARNING: Rounded down to 0
	note A_, 9
;Bar 51
	volume_envelope 7, 7
	;note G_, 0 | WARNING: Rounded down to 0
	note E_, 3
	;note G_, 0 | WARNING: Rounded down to 0
	volume_envelope 6, 7
	note E_, 1
	volume_envelope 7, 7
	;note E_, 0 | WARNING: Rounded down to 0
	volume_envelope 8, 7
	note G_, 1
	rest 2
	;note F_, 0 | WARNING: Rounded down to 0
	note D_, 8
	rest 1
;Bar 52
	octave 3
	volume_envelope 6, 7
	;note F#, 0 | WARNING: Rounded down to 0
	volume_envelope 7, 7
	note A_, 3
	octave 4
	volume_envelope 6, 7
	;note C_, 0 | WARNING: Rounded down to 0
	octave 3
	volume_envelope 7, 7
	note A_, 1
	octave 4
	volume_envelope 5, 7
	;note C_, 0 | WARNING: Rounded down to 0
	volume_envelope 6, 7
	note E_, 3
	volume_envelope 7, 7
	;note E_, 0 | WARNING: Rounded down to 0
	volume_envelope 6, 7
	note F#, 1
	octave 3
	;note F_, 0 | WARNING: Rounded down to 0
	note G#, 3
	volume_envelope 7, 7
	;note B_, 0 | WARNING: Rounded down to 0
	volume_envelope 6, 7
	note G#, 1
	volume_envelope 5, 7
	;note A_, 0 | WARNING: Rounded down to 0
	octave 4
	volume_envelope 6, 7
	;note D_, 0 | WARNING: Rounded down to 0
	octave 3
	volume_envelope 5, 7
	note B_, 3
	octave 4
	volume_envelope 7, 7
	;note F_, 0 | WARNING: Rounded down to 0
	note D_, 1
;Bar 53
	;note C_, 0 | WARNING: Rounded down to 0
	note E_, 16
	note E_, 4
	sound_ret

; ============================================================================================================

Music_Academy_Ch3:
	note_type 12, 1, 0
;Bar 1
	volume_envelope 2, 0
	rest 16
	rest 16
	rest 16
	rest 16
	rest 16
	rest 16
	rest 16
	rest 16
	rest 16
;Bar 10
	octave 6
	note D#, 4
	octave 5
	note B_, 4
	octave 6
	note C#, 4
	octave 5
	note F#, 4
;Bar 11
	octave 6
	note D#, 4
	octave 5
	note B_, 4
	octave 6
	note C#, 4
	octave 5
	note F#, 4
;Bar 12
	octave 6
	note C#, 4
	octave 5
	note F#, 4
	octave 6
	note F#, 4
	note C#, 4
;Bar 13
	note C#, 4
	octave 5
	note F#, 4
	octave 6
	note F#, 4
	note C#, 4
;Bar 14
	note C#, 4
	octave 5
	note F#, 4
	octave 6
	note F#, 4
	note C#, 4
;Bar 15
	note C#, 4
	octave 5
	note F#, 4
	octave 6
	note F#, 4
	note C#, 4
;Bar 16
	note C#, 4
	octave 5
	note G#, 4
	note F#, 4
	note A#, 4
;Bar 17
	note B_, 4
	note F#, 4
	octave 6
	note D#, 4
	octave 5
	note B_, 3
	rest 16
	rest 16
	rest 16
	rest 16
	rest 16
	rest 16
	rest 16
	rest 16
	rest 1
;Bar 26
	octave 6
	note D#, 4
	octave 5
	note B_, 4
	octave 6
	note C#, 4
	octave 5
	note F#, 4
;Bar 27
	octave 6
	note D#, 4
	octave 5
	note B_, 4
	octave 6
	note C#, 4
	octave 5
	note F#, 4
;Bar 28
	octave 6
	note C#, 4
	octave 5
	note F#, 4
	octave 6
	note F#, 4
	note C#, 4
;Bar 29
	note C#, 4
	octave 5
	note F#, 4
	octave 6
	note F#, 4
	note C#, 4
;Bar 30
	note C#, 4
	octave 5
	note F#, 4
	octave 6
	note F#, 4
	note C#, 4
;Bar 31
	note C#, 4
	octave 5
	note F#, 4
	octave 6
	note F#, 4
	note C#, 4
;Bar 32
	note C#, 4
	octave 5
	note G#, 4
	note F#, 4
	note A#, 4
;Bar 33
	note B_, 4
	note F#, 4
	octave 6
	note D#, 4
	octave 5
	note B_, 3
	sound_ret

; ============================================================================================================

Music_Academy_Ch4:
	toggle_noise 1
	drum_speed 12
;Bar 1
	rest 16
;Bar 2
	;note D#, 0 | WARNING: Rounded down to 0
	drum_note 1, 3
	drum_note 4, 1
	;note D#, 0 | WARNING: Rounded down to 0
	drum_note 3, 3
	drum_note 4, 1
	;note C_, 0 | WARNING: Rounded down to 0
	drum_note 4, 3
	drum_note 4, 1
	;note D_, 0 | WARNING: Rounded down to 0
	drum_note 4, 3
	drum_note 4, 1
;Bar 3
	;note D#, 0 | WARNING: Rounded down to 0
	drum_note 1, 3
	drum_note 4, 1
	;note D#, 0 | WARNING: Rounded down to 0
	drum_note 3, 3
	drum_note 4, 1
	;note C_, 0 | WARNING: Rounded down to 0
	drum_note 4, 3
	drum_note 4, 1
	;note D_, 0 | WARNING: Rounded down to 0
	drum_note 4, 3
	drum_note 4, 1
;Bar 4
	;note D#, 0 | WARNING: Rounded down to 0
	drum_note 1, 3
	drum_note 4, 1
	;note D#, 0 | WARNING: Rounded down to 0
	drum_note 3, 3
	drum_note 4, 1
	;note C_, 0 | WARNING: Rounded down to 0
	drum_note 4, 3
	drum_note 4, 1
	;note D_, 0 | WARNING: Rounded down to 0
	drum_note 4, 3
	drum_note 4, 1
;Bar 5
	;note D#, 0 | WARNING: Rounded down to 0
	drum_note 1, 3
	drum_note 4, 1
	;note D#, 0 | WARNING: Rounded down to 0
	drum_note 3, 3
	drum_note 4, 1
	;note C_, 0 | WARNING: Rounded down to 0
	drum_note 4, 3
	drum_note 4, 1
	;note D_, 0 | WARNING: Rounded down to 0
	drum_note 4, 3
	drum_note 4, 1
;Bar 6
	;note D#, 0 | WARNING: Rounded down to 0
	drum_note 1, 3
	drum_note 4, 1
	;note D#, 0 | WARNING: Rounded down to 0
	drum_note 3, 3
	drum_note 4, 1
	;note C_, 0 | WARNING: Rounded down to 0
	drum_note 4, 3
	drum_note 4, 1
	;note D_, 0 | WARNING: Rounded down to 0
	drum_note 4, 3
	drum_note 4, 1
;Bar 7
	;note D#, 0 | WARNING: Rounded down to 0
	drum_note 1, 3
	drum_note 4, 1
	;note D#, 0 | WARNING: Rounded down to 0
	drum_note 3, 3
	drum_note 4, 1
	;note C_, 0 | WARNING: Rounded down to 0
	drum_note 4, 3
	drum_note 4, 1
	;note D_, 0 | WARNING: Rounded down to 0
	drum_note 4, 3
	drum_note 4, 1
;Bar 8
	;note D#, 0 | WARNING: Rounded down to 0
	drum_note 1, 3
	drum_note 4, 1
	;note D#, 0 | WARNING: Rounded down to 0
	drum_note 3, 3
	drum_note 4, 1
	;note C_, 0 | WARNING: Rounded down to 0
	drum_note 4, 3
	drum_note 4, 1
	;note D_, 0 | WARNING: Rounded down to 0
	drum_note 4, 3
	drum_note 4, 1
;Bar 9
	;note D#, 0 | WARNING: Rounded down to 0
	drum_note 1, 3
	drum_note 4, 1
	;note D#, 0 | WARNING: Rounded down to 0
	drum_note 3, 3
	drum_note 4, 1
	;note C_, 0 | WARNING: Rounded down to 0
	drum_note 4, 3
	drum_note 4, 1
	;note D_, 0 | WARNING: Rounded down to 0
	drum_note 4, 3
	drum_note 4, 1
;Bar 10
	;note D#, 0 | WARNING: Rounded down to 0
	drum_note 1, 3
	drum_note 4, 1
	;note D#, 0 | WARNING: Rounded down to 0
	drum_note 3, 3
	drum_note 4, 1
	;note C_, 0 | WARNING: Rounded down to 0
	drum_note 4, 3
	drum_note 4, 1
	;note D_, 0 | WARNING: Rounded down to 0
	drum_note 4, 3
	drum_note 4, 1
;Bar 11
	;note D#, 0 | WARNING: Rounded down to 0
	drum_note 1, 3
	drum_note 4, 1
	;note D#, 0 | WARNING: Rounded down to 0
	drum_note 3, 3
	drum_note 4, 1
	;note C_, 0 | WARNING: Rounded down to 0
	drum_note 4, 3
	drum_note 4, 1
	;note D_, 0 | WARNING: Rounded down to 0
	drum_note 4, 3
	drum_note 4, 1
;Bar 12
	;note D#, 0 | WARNING: Rounded down to 0
	drum_note 1, 3
	drum_note 4, 1
	;note D#, 0 | WARNING: Rounded down to 0
	drum_note 3, 3
	drum_note 4, 1
	;note C_, 0 | WARNING: Rounded down to 0
	drum_note 4, 3
	drum_note 4, 1
	;note D_, 0 | WARNING: Rounded down to 0
	drum_note 4, 3
	drum_note 4, 1
;Bar 13
	;note D#, 0 | WARNING: Rounded down to 0
	drum_note 1, 3
	drum_note 4, 1
	;note D#, 0 | WARNING: Rounded down to 0
	drum_note 3, 3
	drum_note 4, 1
	;note C_, 0 | WARNING: Rounded down to 0
	drum_note 4, 3
	drum_note 4, 1
	;note D_, 0 | WARNING: Rounded down to 0
	drum_note 4, 3
	drum_note 4, 1
;Bar 14
	;note D#, 0 | WARNING: Rounded down to 0
	drum_note 1, 3
	drum_note 4, 1
	;note D#, 0 | WARNING: Rounded down to 0
	drum_note 3, 3
	drum_note 4, 1
	;note C_, 0 | WARNING: Rounded down to 0
	drum_note 4, 3
	drum_note 4, 1
	;note D_, 0 | WARNING: Rounded down to 0
	drum_note 4, 3
	drum_note 4, 1
;Bar 15
	;note D#, 0 | WARNING: Rounded down to 0
	drum_note 1, 3
	drum_note 4, 1
	;note D#, 0 | WARNING: Rounded down to 0
	drum_note 3, 3
	drum_note 4, 1
	;note C_, 0 | WARNING: Rounded down to 0
	drum_note 4, 3
	drum_note 4, 1
	;note D_, 0 | WARNING: Rounded down to 0
	drum_note 4, 3
	drum_note 4, 1
;Bar 16
	;note D#, 0 | WARNING: Rounded down to 0
	drum_note 1, 3
	drum_note 4, 1
	;note D#, 0 | WARNING: Rounded down to 0
	drum_note 3, 3
	drum_note 4, 1
	;note C_, 0 | WARNING: Rounded down to 0
	drum_note 4, 3
	drum_note 4, 1
	;note D_, 0 | WARNING: Rounded down to 0
	drum_note 4, 3
	drum_note 4, 1
;Bar 17
	;note D#, 0 | WARNING: Rounded down to 0
	drum_note 1, 3
	drum_note 4, 1
	;note D#, 0 | WARNING: Rounded down to 0
	drum_note 3, 3
	drum_note 4, 1
	;note C_, 0 | WARNING: Rounded down to 0
	drum_note 4, 3
	drum_note 4, 1
	;note D_, 0 | WARNING: Rounded down to 0
	drum_note 4, 3
	drum_note 4, 1
;Bar 18
	;note D#, 0 | WARNING: Rounded down to 0
	drum_note 1, 3
	drum_note 4, 1
	;note D#, 0 | WARNING: Rounded down to 0
	drum_note 3, 3
	drum_note 4, 1
	;note C_, 0 | WARNING: Rounded down to 0
	drum_note 4, 3
	drum_note 4, 1
	;note D_, 0 | WARNING: Rounded down to 0
	drum_note 4, 3
	drum_note 4, 1
;Bar 19
	;note D#, 0 | WARNING: Rounded down to 0
	drum_note 1, 3
	drum_note 4, 1
	;note D#, 0 | WARNING: Rounded down to 0
	drum_note 3, 3
	drum_note 4, 1
	;note C_, 0 | WARNING: Rounded down to 0
	drum_note 4, 3
	drum_note 4, 1
	;note D_, 0 | WARNING: Rounded down to 0
	drum_note 4, 3
	drum_note 4, 1
;Bar 20
	;note D#, 0 | WARNING: Rounded down to 0
	drum_note 1, 3
	drum_note 4, 1
	;note D#, 0 | WARNING: Rounded down to 0
	drum_note 3, 3
	drum_note 4, 1
	;note C_, 0 | WARNING: Rounded down to 0
	drum_note 4, 3
	drum_note 4, 1
	;note D_, 0 | WARNING: Rounded down to 0
	drum_note 4, 3
	drum_note 4, 1
;Bar 21
	;note D#, 0 | WARNING: Rounded down to 0
	drum_note 1, 3
	drum_note 4, 1
	;note D#, 0 | WARNING: Rounded down to 0
	drum_note 3, 3
	drum_note 4, 1
	;note C_, 0 | WARNING: Rounded down to 0
	drum_note 4, 3
	drum_note 4, 1
	;note D_, 0 | WARNING: Rounded down to 0
	drum_note 4, 3
	drum_note 4, 1
;Bar 22
	;note D#, 0 | WARNING: Rounded down to 0
	drum_note 1, 3
	drum_note 4, 1
	;note D#, 0 | WARNING: Rounded down to 0
	drum_note 3, 3
	drum_note 4, 1
	;note C_, 0 | WARNING: Rounded down to 0
	drum_note 4, 3
	drum_note 4, 1
	;note D_, 0 | WARNING: Rounded down to 0
	drum_note 4, 3
	drum_note 4, 1
;Bar 23
	;note D#, 0 | WARNING: Rounded down to 0
	drum_note 1, 3
	drum_note 4, 1
	;note D#, 0 | WARNING: Rounded down to 0
	drum_note 3, 3
	drum_note 4, 1
	;note C_, 0 | WARNING: Rounded down to 0
	drum_note 4, 3
	drum_note 4, 1
	;note D_, 0 | WARNING: Rounded down to 0
	drum_note 4, 3
	drum_note 4, 1
;Bar 24
	;note D#, 0 | WARNING: Rounded down to 0
	drum_note 1, 3
	drum_note 4, 1
	;note D#, 0 | WARNING: Rounded down to 0
	drum_note 3, 3
	drum_note 4, 1
	;note C_, 0 | WARNING: Rounded down to 0
	drum_note 4, 3
	drum_note 4, 1
	;note D_, 0 | WARNING: Rounded down to 0
	drum_note 4, 3
	drum_note 4, 1
;Bar 25
	;note D#, 0 | WARNING: Rounded down to 0
	drum_note 1, 3
	drum_note 4, 1
	;note D#, 0 | WARNING: Rounded down to 0
	drum_note 3, 3
	drum_note 4, 1
	;note C_, 0 | WARNING: Rounded down to 0
	drum_note 4, 3
	drum_note 4, 1
	;note D_, 0 | WARNING: Rounded down to 0
	drum_note 4, 3
	drum_note 4, 1
;Bar 26
	;note D#, 0 | WARNING: Rounded down to 0
	drum_note 1, 3
	drum_note 4, 1
	;note D#, 0 | WARNING: Rounded down to 0
	drum_note 3, 3
	drum_note 4, 1
	;note C_, 0 | WARNING: Rounded down to 0
	drum_note 4, 3
	drum_note 4, 1
	;note D_, 0 | WARNING: Rounded down to 0
	drum_note 4, 3
	drum_note 4, 1
;Bar 27
	;note D#, 0 | WARNING: Rounded down to 0
	drum_note 1, 3
	drum_note 4, 1
	;note D#, 0 | WARNING: Rounded down to 0
	drum_note 3, 3
	drum_note 4, 1
	;note C_, 0 | WARNING: Rounded down to 0
	drum_note 4, 3
	drum_note 4, 1
	;note D_, 0 | WARNING: Rounded down to 0
	drum_note 4, 3
	drum_note 4, 1
;Bar 28
	;note D#, 0 | WARNING: Rounded down to 0
	drum_note 1, 3
	drum_note 4, 1
	;note D#, 0 | WARNING: Rounded down to 0
	drum_note 3, 3
	drum_note 4, 1
	;note C_, 0 | WARNING: Rounded down to 0
	drum_note 4, 3
	drum_note 4, 1
	;note D_, 0 | WARNING: Rounded down to 0
	drum_note 4, 3
	drum_note 4, 1
;Bar 29
	;note D#, 0 | WARNING: Rounded down to 0
	drum_note 1, 3
	drum_note 4, 1
	;note D#, 0 | WARNING: Rounded down to 0
	drum_note 3, 3
	drum_note 4, 1
	;note C_, 0 | WARNING: Rounded down to 0
	drum_note 4, 3
	drum_note 4, 1
	;note D_, 0 | WARNING: Rounded down to 0
	drum_note 4, 3
	drum_note 4, 1
;Bar 30
	;note D#, 0 | WARNING: Rounded down to 0
	drum_note 1, 3
	drum_note 4, 1
	;note D#, 0 | WARNING: Rounded down to 0
	drum_note 3, 3
	drum_note 4, 1
	;note C_, 0 | WARNING: Rounded down to 0
	drum_note 4, 3
	drum_note 4, 1
	;note D_, 0 | WARNING: Rounded down to 0
	drum_note 4, 3
	drum_note 4, 1
;Bar 31
	;note D#, 0 | WARNING: Rounded down to 0
	drum_note 1, 3
	drum_note 4, 1
	;note D#, 0 | WARNING: Rounded down to 0
	drum_note 3, 3
	drum_note 4, 1
	;note C_, 0 | WARNING: Rounded down to 0
	drum_note 4, 3
	drum_note 4, 1
	;note D_, 0 | WARNING: Rounded down to 0
	drum_note 4, 3
	drum_note 4, 1
;Bar 32
	;note D#, 0 | WARNING: Rounded down to 0
	drum_note 1, 3
	drum_note 4, 1
	;note D#, 0 | WARNING: Rounded down to 0
	drum_note 3, 3
	drum_note 4, 1
	;note C_, 0 | WARNING: Rounded down to 0
	drum_note 4, 3
	drum_note 4, 1
	;note D_, 0 | WARNING: Rounded down to 0
	drum_note 4, 3
	drum_note 4, 1
;Bar 33
	;note D#, 0 | WARNING: Rounded down to 0
	drum_note 1, 3
	drum_note 4, 1
	;note D#, 0 | WARNING: Rounded down to 0
	drum_note 3, 3
	drum_note 4, 1
	;note C_, 0 | WARNING: Rounded down to 0
	drum_note 4, 3
	drum_note 4, 1
	;note D_, 0 | WARNING: Rounded down to 0
	drum_note 4, 3
	drum_note 4, 1
;Bar 34
	;note D#, 0 | WARNING: Rounded down to 0
	drum_note 1, 3
	drum_note 4, 1
	;note D#, 0 | WARNING: Rounded down to 0
	drum_note 3, 3
	drum_note 4, 1
	;note C_, 0 | WARNING: Rounded down to 0
	drum_note 4, 3
	drum_note 4, 1
	;note D_, 0 | WARNING: Rounded down to 0
	drum_note 4, 3
	drum_note 4, 1
;Bar 35
	;note D#, 0 | WARNING: Rounded down to 0
	drum_note 1, 3
	drum_note 4, 1
	;note D#, 0 | WARNING: Rounded down to 0
	drum_note 3, 3
	drum_note 4, 1
	;note C_, 0 | WARNING: Rounded down to 0
	drum_note 4, 3
	drum_note 4, 1
	;note D_, 0 | WARNING: Rounded down to 0
	drum_note 4, 3
	drum_note 4, 1
;Bar 36
	;note D#, 0 | WARNING: Rounded down to 0
	drum_note 1, 3
	drum_note 4, 1
	;note D#, 0 | WARNING: Rounded down to 0
	drum_note 3, 3
	drum_note 4, 1
	;note C_, 0 | WARNING: Rounded down to 0
	drum_note 4, 3
	drum_note 4, 1
	;note D_, 0 | WARNING: Rounded down to 0
	drum_note 4, 3
	drum_note 4, 1
;Bar 37
	;note D#, 0 | WARNING: Rounded down to 0
	drum_note 1, 3
	drum_note 4, 1
	;note D#, 0 | WARNING: Rounded down to 0
	drum_note 3, 3
	drum_note 4, 1
	;note C_, 0 | WARNING: Rounded down to 0
	drum_note 4, 3
	drum_note 4, 1
	;note D_, 0 | WARNING: Rounded down to 0
	drum_note 4, 3
	drum_note 4, 1
;Bar 38
	;note D#, 0 | WARNING: Rounded down to 0
	drum_note 1, 3
	drum_note 4, 1
	;note D#, 0 | WARNING: Rounded down to 0
	drum_note 3, 3
	drum_note 4, 1
	;note C_, 0 | WARNING: Rounded down to 0
	drum_note 4, 3
	drum_note 4, 1
	;note D_, 0 | WARNING: Rounded down to 0
	drum_note 4, 3
	drum_note 4, 1
;Bar 39
	;note D#, 0 | WARNING: Rounded down to 0
	drum_note 1, 3
	drum_note 4, 1
	;note D#, 0 | WARNING: Rounded down to 0
	drum_note 3, 3
	drum_note 4, 1
	;note C_, 0 | WARNING: Rounded down to 0
	drum_note 4, 3
	drum_note 4, 1
	;note D_, 0 | WARNING: Rounded down to 0
	drum_note 4, 3
	drum_note 4, 1
;Bar 40
	;note D#, 0 | WARNING: Rounded down to 0
	drum_note 1, 3
	drum_note 4, 1
	;note D#, 0 | WARNING: Rounded down to 0
	drum_note 3, 3
	drum_note 4, 1
	;note C_, 0 | WARNING: Rounded down to 0
	drum_note 4, 3
	drum_note 4, 1
	;note D_, 0 | WARNING: Rounded down to 0
	drum_note 4, 3
	drum_note 4, 1
;Bar 41
	;note D#, 0 | WARNING: Rounded down to 0
	drum_note 1, 3
	drum_note 4, 1
	;note D#, 0 | WARNING: Rounded down to 0
	drum_note 3, 3
	drum_note 4, 1
	;note C_, 0 | WARNING: Rounded down to 0
	drum_note 4, 3
	drum_note 4, 1
	;note D_, 0 | WARNING: Rounded down to 0
	drum_note 4, 3
	drum_note 4, 1
;Bar 42
	;note D#, 0 | WARNING: Rounded down to 0
	drum_note 1, 3
	drum_note 4, 1
	;note D#, 0 | WARNING: Rounded down to 0
	drum_note 3, 3
	drum_note 4, 1
	;note C_, 0 | WARNING: Rounded down to 0
	drum_note 4, 3
	drum_note 4, 1
	;note D_, 0 | WARNING: Rounded down to 0
	drum_note 4, 3
	drum_note 4, 1
;Bar 43
	;note D#, 0 | WARNING: Rounded down to 0
	drum_note 1, 3
	drum_note 4, 1
	;note D#, 0 | WARNING: Rounded down to 0
	drum_note 3, 3
	drum_note 4, 1
	;note C_, 0 | WARNING: Rounded down to 0
	drum_note 4, 3
	drum_note 4, 1
	;note D_, 0 | WARNING: Rounded down to 0
	drum_note 4, 3
	drum_note 4, 1
;Bar 44
	;note D#, 0 | WARNING: Rounded down to 0
	drum_note 1, 3
	drum_note 4, 1
	;note D#, 0 | WARNING: Rounded down to 0
	drum_note 3, 3
	drum_note 4, 1
	;note C_, 0 | WARNING: Rounded down to 0
	drum_note 4, 3
	drum_note 4, 1
	;note D_, 0 | WARNING: Rounded down to 0
	drum_note 4, 3
	drum_note 4, 1
;Bar 45
	;note D#, 0 | WARNING: Rounded down to 0
	drum_note 1, 3
	drum_note 4, 1
	;note D#, 0 | WARNING: Rounded down to 0
	drum_note 3, 3
	drum_note 4, 1
	;note C_, 0 | WARNING: Rounded down to 0
	drum_note 4, 3
	drum_note 4, 1
	;note D_, 0 | WARNING: Rounded down to 0
	drum_note 4, 3
	drum_note 4, 1
;Bar 46
	;note D#, 0 | WARNING: Rounded down to 0
	drum_note 1, 3
	drum_note 4, 1
	;note D#, 0 | WARNING: Rounded down to 0
	drum_note 3, 3
	drum_note 4, 1
	;note C_, 0 | WARNING: Rounded down to 0
	drum_note 4, 3
	drum_note 4, 1
	;note D_, 0 | WARNING: Rounded down to 0
	drum_note 4, 3
	drum_note 4, 1
;Bar 47
	;note D#, 0 | WARNING: Rounded down to 0
	drum_note 1, 3
	drum_note 4, 1
	;note D#, 0 | WARNING: Rounded down to 0
	drum_note 3, 3
	drum_note 4, 1
	;note C_, 0 | WARNING: Rounded down to 0
	drum_note 4, 3
	drum_note 4, 1
	;note D_, 0 | WARNING: Rounded down to 0
	drum_note 4, 3
	drum_note 4, 1
;Bar 48
	;note D#, 0 | WARNING: Rounded down to 0
	drum_note 1, 3
	drum_note 4, 1
	;note D#, 0 | WARNING: Rounded down to 0
	drum_note 3, 3
	drum_note 4, 1
	;note C_, 0 | WARNING: Rounded down to 0
	drum_note 4, 3
	drum_note 4, 1
	;note D_, 0 | WARNING: Rounded down to 0
	drum_note 4, 3
	drum_note 4, 1
;Bar 49
	;note D#, 0 | WARNING: Rounded down to 0
	drum_note 1, 3
	drum_note 4, 1
	;note D#, 0 | WARNING: Rounded down to 0
	drum_note 3, 3
	drum_note 4, 1
	;note C_, 0 | WARNING: Rounded down to 0
	drum_note 4, 3
	drum_note 4, 1
	;note D_, 0 | WARNING: Rounded down to 0
	drum_note 4, 3
	drum_note 4, 1
;Bar 50
	;note D#, 0 | WARNING: Rounded down to 0
	drum_note 1, 3
	drum_note 4, 1
	;note D#, 0 | WARNING: Rounded down to 0
	drum_note 3, 3
	drum_note 4, 1
	;note C_, 0 | WARNING: Rounded down to 0
	drum_note 4, 3
	drum_note 4, 1
	;note D_, 0 | WARNING: Rounded down to 0
	drum_note 4, 3
	drum_note 4, 1
;Bar 51
	;note D#, 0 | WARNING: Rounded down to 0
	drum_note 1, 3
	drum_note 4, 1
	;note D#, 0 | WARNING: Rounded down to 0
	drum_note 3, 3
	drum_note 4, 1
	;note C_, 0 | WARNING: Rounded down to 0
	drum_note 4, 3
	drum_note 4, 1
	;note D_, 0 | WARNING: Rounded down to 0
	drum_note 4, 3
	drum_note 4, 1
;Bar 52
	;note D#, 0 | WARNING: Rounded down to 0
	drum_note 1, 3
	drum_note 4, 1
	;note D#, 0 | WARNING: Rounded down to 0
	drum_note 3, 3
	drum_note 4, 1
	;note C_, 0 | WARNING: Rounded down to 0
	drum_note 4, 3
	drum_note 4, 1
	;note D_, 0 | WARNING: Rounded down to 0
	drum_note 4, 3
	drum_note 4, 1
;Bar 53
	;note D#, 0 | WARNING: Rounded down to 0
	;note C_, 0 | WARNING: Rounded down to 0
	drum_note 2, 8
	sound_ret

; ============================================================================================================

