;Coverted using MIDI2ASM
;Code by TriteHexagon
;Version 5.2.0 (16-Nov-2022)
;Visit github.com/TriteHexagon/Midi2ASM-Converter for up-to-date versions.

; ============================================================================================================

Music_Blue:
	channel_count 2
	channel 1, Music_Blue_Ch1
	channel 2, Music_Blue_Ch2

Music_Blue_Ch1:
	volume 7, 7
	duty_cycle 2
	note_type 12, 10, 7
	tempo 143
.mainloop
;Bar 1
	octave 3
	volume_envelope 9, 7
	note A_, 4
	note A#, 2
	note D_, 2
	note G_, 2
	note A#, 2
	octave 4
	note C_, 2
	octave 3
	note F_, 2
;Bar 2
	note A_, 2
	note A#, 4
	note G_, 2
	note A#, 2
	octave 4
	note D_, 2
	note D#, 2
	octave 3
	note G_, 2
;Bar 3
	octave 4
	note D_, 2
	note C_, 2
	octave 3
	note A#, 2
	note D_, 2
	note G_, 2
	note A#, 2
	octave 4
	note C_, 2
	octave 3
	note F_, 2
;Bar 4
	note A_, 2
	note A#, 4
	note G_, 2
	note A#, 2
	octave 4
	note D_, 2
	note D#, 2
	octave 3
	note G_, 2
;Bar 5
	octave 4
	note D_, 2
	note C_, 2
	octave 3
	note A#, 2
	note D_, 2
	note G_, 2
	note A#, 2
	octave 4
	note C_, 2
	octave 3
	note F_, 2
;Bar 6
	note A_, 2
	note A#, 4
	note G_, 2
	note A#, 2
	octave 4
	note D_, 2
	note D#, 2
	octave 3
	note G_, 2
;Bar 7
	octave 4
	note D_, 2
	note C_, 2
	octave 3
	note A#, 2
	note D_, 2
	note G_, 2
	note A#, 2
	note A_, 2
	note C_, 2
;Bar 8
	note F_, 2
	note G_, 4
	note C_, 2
	note F_, 2
	note G_, 4
	note F_, 2
;Bar 9
	note G_, 2
	note A_, 2
	note A#, 2
	note D_, 2
	note G_, 2
	note A#, 2
	octave 4
	note C_, 2
	octave 3
	note F_, 2
;Bar 10
	note A_, 2
	note A#, 4
	note G_, 2
	note A#, 2
	octave 4
	note D_, 2
	note D#, 2
	octave 3
	note G_, 2
;Bar 11
	octave 4
	note D_, 2
	note C_, 2
	octave 3
	note A#, 2
	note D_, 2
	note G_, 2
	note A#, 2
	octave 4
	note C_, 2
	octave 3
	note F_, 2
;Bar 12
	note A_, 2
	note A#, 4
	note G_, 2
	note A#, 2
	octave 4
	note D_, 2
	note D#, 2
	octave 3
	note G_, 2
;Bar 13
	octave 4
	note D_, 2
	note C_, 2
	octave 3
	note A#, 2
	note D_, 2
	note G_, 2
	note A#, 2
	octave 4
	note C_, 2
	octave 3
	note F_, 2
;Bar 14
	note A_, 2
	note A#, 4
	note G_, 2
	note A#, 2
	octave 4
	note D_, 2
	note D#, 2
	octave 3
	note G_, 2
;Bar 15
	octave 4
	note D_, 2
	note C_, 2
	octave 3
	note A#, 2
	note D_, 2
	note G_, 2
	note A#, 2
	note A_, 2
	note C_, 2
;Bar 16
	note F_, 2
	note G_, 4
	note C_, 2
	note F_, 2
	note G_, 4
	rest 16
	rest 2
;Bar 18
	octave 2
	note A_, 2
	rest 2
	note A#, 1
	rest 1
	note D_, 1
	rest 1
	note G_, 1
	rest 1
	note A#, 1
	rest 1
	octave 3
	note C_, 1
	rest 1
	octave 2
	note F_, 1
	rest 1
;Bar 19
	note A_, 1
	rest 1
	note A#, 4
	note G_, 1
	rest 1
	note A#, 1
	rest 1
	octave 3
	note D_, 1
	rest 1
	note D#, 1
	rest 1
	octave 2
	note G_, 1
	rest 1
;Bar 20
	octave 3
	note D_, 1
	rest 1
	note C_, 1
	rest 1
	octave 2
	note A#, 1
	rest 1
	note D_, 1
	rest 1
	note G_, 1
	rest 1
	note A#, 1
	rest 1
	octave 3
	note C_, 1
	rest 1
	octave 2
	note F_, 1
	rest 1
;Bar 21
	note A_, 1
	rest 1
	note A#, 4
	note G_, 1
	rest 1
	note A#, 1
	rest 1
	octave 3
	note D_, 1
	rest 1
	note D#, 1
	rest 1
	octave 2
	note G_, 1
	rest 1
;Bar 22
	octave 3
	note D_, 1
	rest 1
	note C_, 1
	rest 1
	octave 2
	note A#, 1
	rest 1
	note D_, 1
	rest 1
	note G_, 1
	rest 1
	note A#, 1
	rest 1
	octave 3
	note C_, 1
	rest 1
	octave 2
	note F_, 1
	rest 1
;Bar 23
	note A_, 1
	rest 1
	note A#, 4
	note G_, 1
	rest 1
	note A#, 1
	rest 1
	octave 3
	note D_, 1
	rest 1
	note D#, 1
	rest 1
	octave 2
	note G_, 1
	rest 1
;Bar 24
	octave 3
	note D_, 1
	rest 1
	note C_, 1
	rest 1
	octave 2
	note A#, 1
	rest 1
	note D_, 1
	rest 1
	note G_, 1
	rest 1
	note A#, 1
	rest 1
	note A_, 1
	rest 1
	note C_, 1
	rest 1
;Bar 25
	note F_, 1
	rest 1
	note G_, 12
	note F_, 2
;Bar 26
	note G_, 2
	note A_, 2
	note A#, 2
	note D_, 2
	note G_, 2
	note A#, 2
	octave 3
	note C_, 2
	octave 2
	note F_, 2
;Bar 27
	note A_, 2
	note A#, 4
	note G_, 2
	note A#, 2
	octave 3
	note D_, 2
	note D#, 2
	octave 2
	note G_, 2
;Bar 28
	octave 3
	note D_, 2
	note C_, 2
	octave 2
	note A#, 2
	note D_, 2
	note G_, 2
	note A#, 2
	octave 3
	note C_, 2
	octave 2
	note F_, 2
;Bar 29
	note A_, 2
	note A#, 4
	note G_, 2
	note A#, 2
	octave 3
	note D_, 2
	note D#, 2
	octave 2
	note G_, 2
;Bar 30
	octave 3
	note D_, 2
	note C_, 2
	octave 2
	note A#, 2
	note D_, 2
	note G_, 2
	note A#, 2
	octave 3
	note C_, 2
	octave 2
	note F_, 2
;Bar 31
	note A_, 2
	note A#, 4
	note G_, 2
	note A#, 2
	octave 3
	note D_, 2
	note D#, 2
	octave 2
	note G_, 2
;Bar 32
	octave 3
	note D_, 2
	note C_, 2
	octave 2
	note A#, 2
	note D_, 2
	note G_, 2
	note A#, 2
	note A_, 2
	note C_, 2
;Bar 33
	note F_, 2
	note G_, 4
	note C_, 2
	note F_, 2
	note G_, 9
;Bar 34
	rest 16
	rest 3
;Bar 35
	octave 3
	note D_, 2
	note D_, 2
	note D#, 2
	note D#, 2
	note D_, 2
;Bar 36
	note D_, 2
	note D#, 2
	note D#, 2
	note D_, 2
	note D_, 11
;Bar 37
	rest 3
	note D_, 2
	note D_, 2
	note D#, 2
	note D#, 2
	note D_, 4
;Bar 38
	note D_, 2
	note D#, 2
	note D#, 2
	note D_, 2
	note G_, 2
	note F#, 8
;Bar 39
	rest 2
	note D_, 2
	note D_, 2
	note D#, 2
	note D#, 2
	note D_, 2
;Bar 40
	note D_, 2
	note D#, 2
	note D#, 2
	note D_, 2
	note G_, 11
;Bar 41
	rest 3
	note D_, 2
	note F_, 2
	note G_, 2
	note D_, 2
	note D_, 4
;Bar 42
	note D_, 2
	note D_, 2
	octave 2
	note A#, 2
	note A#, 2
	note A#, 9
;Bar 43
	rest 3
	octave 3
	note D_, 2
	note D_, 2
	note D#, 2
	note D#, 2
	note D_, 2
;Bar 44
	note D_, 2
	note D#, 2
	note D#, 2
	note D_, 2
	note D_, 11
;Bar 45
	rest 3
	note D_, 2
	note D_, 2
	note D#, 2
	note D#, 2
	note D_, 4
;Bar 46
	note D_, 2
	note D#, 2
	note D#, 2
	note D_, 2
	note G_, 2
	note F#, 8
;Bar 47
	rest 2
	note D_, 2
	note D_, 2
	note D#, 2
	note D#, 2
	note D_, 2
;Bar 48
	note D_, 2
	note D#, 2
	note D#, 2
	note D_, 2
	note G_, 11
;Bar 49
	rest 3
	note D_, 2
	note F_, 2
	note G_, 2
	note D_, 2
	note D_, 4
;Bar 50
	note D_, 2
	note D_, 2
	octave 2
	note A#, 2
	note A#, 2
	note A#, 4
	octave 3
	note F_, 2
;Bar 51
	note G_, 2
	note A_, 2
	note A#, 2
	note D_, 2
	note G_, 2
	note A#, 2
	octave 4
	note C_, 2
	octave 3
	note F_, 2
;Bar 52
	note A_, 2
	note A#, 4
	note G_, 2
	note A#, 2
	octave 4
	note D_, 2
	note D#, 2
	octave 3
	note G_, 2
;Bar 53
	octave 4
	note D_, 2
	note C_, 2
	octave 3
	note A#, 2
	note D_, 2
	note G_, 2
	note A#, 2
	octave 4
	note C_, 2
	octave 3
	note F_, 2
;Bar 54
	note A_, 2
	note A#, 4
	note G_, 2
	note A#, 2
	octave 4
	note D_, 2
	note D#, 2
	octave 3
	note G_, 2
;Bar 55
	octave 4
	note D_, 2
	note C_, 2
	octave 3
	note A#, 2
	note D_, 2
	note G_, 2
	note A#, 2
	octave 4
	note C_, 2
	octave 3
	note F_, 2
;Bar 56
	note A_, 2
	note A#, 4
	note G_, 2
	note A#, 2
	octave 4
	note D_, 2
	note D#, 2
	octave 3
	note G_, 2
;Bar 57
	octave 4
	note D_, 2
	note C_, 2
	octave 3
	note A#, 2
	note D_, 2
	note G_, 2
	note A#, 2
	note A_, 2
	note C_, 2
;Bar 58
	note F_, 2
	note G_, 4
	note C_, 2
	note F_, 2
	note G_, 4
	note F_, 2
;Bar 59
	note G_, 2
	note A_, 2
	note A#, 2
	note D_, 2
	note G_, 2
	note A#, 2
	octave 4
	note C_, 2
	octave 3
	note F_, 2
;Bar 60
	note A_, 2
	note A#, 4
	note G_, 2
	note A#, 2
	octave 4
	note D_, 2
	note D#, 2
	octave 3
	note G_, 2
;Bar 61
	octave 4
	note D_, 2
	note C_, 2
	octave 3
	note A#, 2
	note D_, 2
	note G_, 2
	note A#, 2
	octave 4
	note C_, 2
	octave 3
	note F_, 2
;Bar 62
	note A_, 2
	note A#, 4
	note G_, 2
	note A#, 2
	octave 4
	note D_, 2
	note D#, 2
	octave 3
	note G_, 2
;Bar 63
	octave 4
	note D_, 2
	note C_, 2
	octave 3
	note A#, 2
	note D_, 2
	note G_, 2
	note A#, 2
	octave 4
	note C_, 2
	octave 3
	note F_, 2
;Bar 64
	note A_, 2
	note A#, 4
	note G_, 2
	note A#, 2
	octave 4
	note D_, 2
	note D#, 2
	octave 3
	note G_, 2
;Bar 65
	octave 4
	note D_, 2
	note C_, 2
	octave 3
	note A#, 2
	note D_, 2
	note G_, 2
	note A#, 2
	note A_, 2
	note C_, 2
;Bar 66
	note F_, 2
	note G_, 4
	note C_, 2
	note F_, 2
	note G_, 4
	note F_, 2
;Bar 67
	note G_, 2
	note A_, 2
	note A#, 2
	note D_, 2
	note G_, 2
	note A#, 2
	octave 4
	note C_, 2
	octave 3
	note F_, 2
;Bar 68
	note A_, 2
	note A#, 4
	note G_, 2
	note A#, 2
	octave 4
	note D_, 2
	note D#, 2
	octave 3
	note G_, 2
;Bar 69
	octave 4
	note D_, 2
	note C_, 2
	octave 3
	note A#, 2
	note D_, 2
	note G_, 2
	note A#, 2
	octave 4
	note C_, 2
	octave 3
	note F_, 2
;Bar 70
	note A_, 2
	note A#, 4
	note G_, 2
	note A#, 2
	octave 4
	note D_, 2
	note D#, 2
	octave 3
	note G_, 2
;Bar 71
	octave 4
	note D_, 2
	note C_, 2
	octave 3
	note A#, 2
	note D_, 2
	note G_, 2
	note A#, 2
	octave 4
	note C_, 2
	octave 3
	note F_, 2
;Bar 72
	note A_, 2
	note A#, 4
	note G_, 2
	note A#, 2
	octave 4
	note D_, 2
	note D#, 2
	octave 3
	note G_, 2
;Bar 73
	octave 4
	note D_, 2
	note C_, 2
	octave 3
	note A#, 2
	note D_, 2
	note G_, 2
	note A#, 2
	note A_, 2
	note C_, 2
;Bar 74
	note F_, 2
	note G_, 4
	note C_, 2
	note F_, 2
	note G_, 9
;Bar 75
	rest 16
	rest 3
;Bar 76
	;note D_, 0 | WARNING: Rounded down to 0
	octave 4
	note D_, 2
	octave 3
	;note D_, 0 | WARNING: Rounded down to 0
	octave 4
	note D_, 2
	octave 3
	;note D#, 0 | WARNING: Rounded down to 0
	octave 4
	note D#, 2
	octave 3
	;note D#, 0 | WARNING: Rounded down to 0
	octave 4
	note D#, 2
	octave 3
	;note D_, 0 | WARNING: Rounded down to 0
	octave 4
	note D_, 2
;Bar 77
	octave 3
	;note D_, 0 | WARNING: Rounded down to 0
	octave 4
	note D_, 2
	octave 3
	;note D#, 0 | WARNING: Rounded down to 0
	octave 4
	note D#, 2
	octave 3
	;note D#, 0 | WARNING: Rounded down to 0
	octave 4
	note D#, 2
	octave 3
	;note D_, 0 | WARNING: Rounded down to 0
	octave 4
	note D_, 2
	octave 3
	;note D_, 0 | WARNING: Rounded down to 0
	octave 4
	note D_, 11
;Bar 78
	rest 3
	octave 3
	;note D_, 0 | WARNING: Rounded down to 0
	octave 4
	note D_, 2
	octave 3
	;note D_, 0 | WARNING: Rounded down to 0
	octave 4
	note D_, 2
	octave 3
	;note D#, 0 | WARNING: Rounded down to 0
	octave 4
	note D#, 2
	octave 3
	;note D#, 0 | WARNING: Rounded down to 0
	octave 4
	note D#, 2
	octave 3
	;note D_, 0 | WARNING: Rounded down to 0
	octave 4
	note D_, 4
;Bar 79
	octave 3
	;note D_, 0 | WARNING: Rounded down to 0
	octave 4
	note D_, 2
	octave 3
	;note D#, 0 | WARNING: Rounded down to 0
	octave 4
	note D#, 2
	octave 3
	;note D#, 0 | WARNING: Rounded down to 0
	octave 4
	note D#, 2
	octave 3
	;note D_, 0 | WARNING: Rounded down to 0
	octave 4
	note D_, 2
	octave 3
	;note G_, 0 | WARNING: Rounded down to 0
	octave 4
	note G_, 2
	octave 3
	;note F#, 0 | WARNING: Rounded down to 0
	octave 4
	note F#, 8
;Bar 80
	rest 2
	octave 3
	;note D_, 0 | WARNING: Rounded down to 0
	octave 4
	note D_, 2
	octave 3
	;note D_, 0 | WARNING: Rounded down to 0
	octave 4
	note D_, 2
	octave 3
	;note D#, 0 | WARNING: Rounded down to 0
	octave 4
	note D#, 2
	octave 3
	;note D#, 0 | WARNING: Rounded down to 0
	octave 4
	note D#, 2
	octave 3
	;note D_, 0 | WARNING: Rounded down to 0
	octave 4
	note D_, 2
;Bar 81
	octave 3
	;note D_, 0 | WARNING: Rounded down to 0
	octave 4
	note D_, 2
	octave 3
	;note D#, 0 | WARNING: Rounded down to 0
	octave 4
	note D#, 2
	octave 3
	;note D#, 0 | WARNING: Rounded down to 0
	octave 4
	note D#, 2
	octave 3
	;note D_, 0 | WARNING: Rounded down to 0
	octave 4
	note D_, 2
	octave 3
	;note G_, 0 | WARNING: Rounded down to 0
	octave 4
	note G_, 11
;Bar 82
	rest 3
	octave 3
	;note D_, 0 | WARNING: Rounded down to 0
	octave 4
	note D_, 2
	octave 3
	;note F_, 0 | WARNING: Rounded down to 0
	octave 4
	note F_, 2
	octave 3
	;note G_, 0 | WARNING: Rounded down to 0
	octave 4
	note G_, 2
	octave 3
	;note D_, 0 | WARNING: Rounded down to 0
	octave 4
	note D_, 2
	octave 3
	;note D_, 0 | WARNING: Rounded down to 0
	octave 4
	note D_, 4
;Bar 83
	octave 3
	;note D_, 0 | WARNING: Rounded down to 0
	octave 4
	note D_, 2
	octave 3
	;note D_, 0 | WARNING: Rounded down to 0
	octave 4
	note D_, 2
	octave 2
	;note A#, 0 | WARNING: Rounded down to 0
	octave 3
	note A#, 2
	octave 2
	;note A#, 0 | WARNING: Rounded down to 0
	octave 3
	note A#, 2
	octave 2
	;note A#, 0 | WARNING: Rounded down to 0
	octave 3
	note A#, 9
;Bar 84
	rest 3
	;note D_, 0 | WARNING: Rounded down to 0
	octave 4
	note D_, 2
	octave 3
	;note D_, 0 | WARNING: Rounded down to 0
	octave 4
	note D_, 2
	octave 3
	;note D#, 0 | WARNING: Rounded down to 0
	octave 4
	note D#, 2
	octave 3
	;note D#, 0 | WARNING: Rounded down to 0
	octave 4
	note D#, 2
	octave 3
	;note D_, 0 | WARNING: Rounded down to 0
	octave 4
	note D_, 2
;Bar 85
	octave 3
	;note D_, 0 | WARNING: Rounded down to 0
	octave 4
	note D_, 2
	octave 3
	;note D#, 0 | WARNING: Rounded down to 0
	octave 4
	note D#, 2
	octave 3
	;note D#, 0 | WARNING: Rounded down to 0
	octave 4
	note D#, 2
	octave 3
	;note D_, 0 | WARNING: Rounded down to 0
	octave 4
	note D_, 2
	octave 3
	;note D_, 0 | WARNING: Rounded down to 0
	octave 4
	note D_, 11
;Bar 86
	rest 3
	octave 3
	;note D_, 0 | WARNING: Rounded down to 0
	octave 4
	note D_, 2
	octave 3
	;note D_, 0 | WARNING: Rounded down to 0
	octave 4
	note D_, 2
	octave 3
	;note D#, 0 | WARNING: Rounded down to 0
	octave 4
	note D#, 2
	octave 3
	;note D#, 0 | WARNING: Rounded down to 0
	octave 4
	note D#, 2
	octave 3
	;note D_, 0 | WARNING: Rounded down to 0
	octave 4
	note D_, 4
;Bar 87
	octave 3
	;note D_, 0 | WARNING: Rounded down to 0
	octave 4
	note D_, 2
	octave 3
	;note D#, 0 | WARNING: Rounded down to 0
	octave 4
	note D#, 2
	octave 3
	;note D#, 0 | WARNING: Rounded down to 0
	octave 4
	note D#, 2
	octave 3
	;note D_, 0 | WARNING: Rounded down to 0
	octave 4
	note D_, 2
	octave 3
	;note G_, 0 | WARNING: Rounded down to 0
	octave 4
	note G_, 2
	octave 3
	;note F#, 0 | WARNING: Rounded down to 0
	octave 4
	note F#, 8
;Bar 88
	rest 2
	octave 3
	;note D_, 0 | WARNING: Rounded down to 0
	octave 4
	note D_, 2
	octave 3
	;note D_, 0 | WARNING: Rounded down to 0
	octave 4
	note D_, 2
	octave 3
	;note D#, 0 | WARNING: Rounded down to 0
	octave 4
	note D#, 2
	octave 3
	;note D#, 0 | WARNING: Rounded down to 0
	octave 4
	note D#, 2
	octave 3
	;note D_, 0 | WARNING: Rounded down to 0
	octave 4
	note D_, 2
;Bar 89
	octave 3
	;note D_, 0 | WARNING: Rounded down to 0
	octave 4
	note D_, 2
	octave 3
	;note D#, 0 | WARNING: Rounded down to 0
	octave 4
	note D#, 2
	octave 3
	;note D#, 0 | WARNING: Rounded down to 0
	octave 4
	note D#, 2
	octave 3
	;note D_, 0 | WARNING: Rounded down to 0
	octave 4
	note D_, 2
	octave 3
	;note G_, 0 | WARNING: Rounded down to 0
	octave 4
	note G_, 11
;Bar 90
	rest 3
	octave 3
	;note D_, 0 | WARNING: Rounded down to 0
	octave 4
	note D_, 2
	octave 3
	;note F_, 0 | WARNING: Rounded down to 0
	octave 4
	note F_, 2
	octave 3
	;note G_, 0 | WARNING: Rounded down to 0
	octave 4
	note G_, 2
	octave 3
	;note D_, 0 | WARNING: Rounded down to 0
	octave 4
	note D_, 2
	octave 3
	;note D_, 0 | WARNING: Rounded down to 0
	octave 4
	note D_, 4
;Bar 91
	octave 3
	;note D_, 0 | WARNING: Rounded down to 0
	octave 4
	note D_, 2
	octave 3
	;note D_, 0 | WARNING: Rounded down to 0
	octave 4
	note D_, 2
	octave 2
	;note A#, 0 | WARNING: Rounded down to 0
	octave 3
	note A#, 2
	octave 2
	;note A#, 0 | WARNING: Rounded down to 0
	octave 3
	note A#, 2
	octave 2
	;note A#, 0 | WARNING: Rounded down to 0
	octave 3
	note A#, 4
	note F_, 2
;Bar 92
	note G_, 2
	note A_, 2
	note A#, 2
	note D_, 2
	note G_, 2
	note A#, 2
	octave 4
	note C_, 2
	octave 3
	note F_, 2
;Bar 93
	note A_, 2
	note A#, 4
	note G_, 2
	note A#, 2
	octave 4
	note D_, 2
	note D#, 2
	octave 3
	note G_, 2
;Bar 94
	octave 4
	note D_, 2
	note C_, 2
	octave 3
	note A#, 2
	note D_, 2
	note G_, 2
	note A#, 2
	octave 4
	note C_, 2
	octave 3
	note F_, 2
;Bar 95
	note A_, 2
	note A#, 4
	note G_, 2
	note A#, 2
	octave 4
	note D_, 2
	note D#, 2
	octave 3
	note G_, 2
;Bar 96
	octave 4
	note D_, 2
	note C_, 2
	octave 3
	note A#, 2
	note D_, 2
	note G_, 2
	note A#, 2
	octave 4
	note C_, 2
	octave 3
	note F_, 2
;Bar 97
	note A_, 2
	note A#, 4
	note G_, 2
	note A#, 2
	octave 4
	note D_, 2
	note D#, 2
	octave 3
	note G_, 2
;Bar 98
	octave 4
	note D_, 2
	note C_, 2
	octave 3
	note A#, 2
	note D_, 2
	note G_, 2
	note A#, 2
	note A_, 2
	note C_, 2
;Bar 99
	note F_, 2
	note G_, 4
	note C_, 2
	note F_, 2
	note G_, 4
	note F_, 2
;Bar 100
	note G_, 2
	note A_, 2
	note A#, 2
	note D_, 2
	note G_, 2
	note A#, 2
	octave 4
	note C_, 2
	octave 3
	note F_, 2
;Bar 101
	note A_, 2
	note A#, 4
	note G_, 2
	note A#, 2
	octave 4
	note D_, 2
	note D#, 2
	octave 3
	note G_, 2
;Bar 102
	octave 4
	note D_, 2
	note C_, 2
	octave 3
	note A#, 2
	note D_, 2
	note G_, 2
	note A#, 2
	octave 4
	note C_, 2
	octave 3
	note F_, 2
;Bar 103
	note A_, 2
	note A#, 4
	note G_, 2
	note A#, 2
	octave 4
	note D_, 2
	note D#, 2
	octave 3
	note G_, 2
;Bar 104
	octave 4
	note D_, 2
	note C_, 2
	octave 3
	note A#, 2
	note D_, 2
	note G_, 2
	note A#, 2
	octave 4
	note C_, 2
	octave 3
	note F_, 2
;Bar 105
	note A_, 2
	note A#, 4
	note G_, 2
	note A#, 2
	octave 4
	note D_, 2
	note D#, 2
	octave 3
	note G_, 2
;Bar 106
	octave 4
	note D_, 2
	note C_, 2
	octave 3
	note A#, 2
	note D_, 2
	note G_, 2
	note A#, 2
	note A_, 2
	note C_, 2
;Bar 107
	note F_, 2
	note G_, 4
	note C_, 2
	note F_, 2
	note G_, 4
	note F_, 2
;Bar 108
	note G_, 2
	note A_, 2
	note A#, 2
	note D_, 2
	note G_, 2
	note A#, 2
	octave 4
	note C_, 2
	octave 3
	note F_, 2
;Bar 109
	note A_, 2
	note A#, 4
	note G_, 2
	note A#, 2
	octave 4
	note D_, 2
	note D#, 2
	octave 3
	note G_, 2
;Bar 110
	octave 4
	note D_, 2
	note C_, 2
	octave 3
	note A#, 2
	note D_, 2
	note G_, 2
	note A#, 2
	octave 4
	note C_, 2
	octave 3
	note F_, 2
;Bar 111
	note A_, 2
	note A#, 4
	note G_, 2
	note A#, 2
	octave 4
	note D_, 2
	note D#, 2
	octave 3
	note G_, 2
;Bar 112
	octave 4
	note D_, 2
	note C_, 2
	octave 3
	note A#, 2
	note D_, 2
	note G_, 2
	note A#, 2
	octave 4
	note C_, 2
	octave 3
	note F_, 2
;Bar 113
	note A_, 2
	note A#, 4
	note G_, 2
	note A#, 2
	octave 4
	note D_, 2
	note D#, 2
	octave 3
	note G_, 2
;Bar 114
	octave 4
	note D_, 2
	note C_, 2
	octave 3
	note A#, 2
	note D_, 2
	note G_, 2
	note A#, 2
	note A_, 2
	note C_, 2
;Bar 115
	note F_, 2
	note G_, 4
	note C_, 2
	note F_, 2
	note G_, 4
	note F_, 2
;Bar 116
	note G_, 2
	note A_, 2
	note A#, 2
	note D_, 2
	note G_, 2
	note A#, 2
	octave 4
	note C_, 2
	octave 3
	note F_, 2
;Bar 117
	note A_, 2
	note A#, 4
	note G_, 2
	note A#, 2
	octave 4
	note D_, 2
	note D#, 2
	octave 3
	note G_, 2
;Bar 118
	octave 4
	note D_, 2
	note C_, 2
	octave 3
	note A#, 2
	note D_, 2
	note G_, 2
	note A#, 2
	octave 4
	note C_, 2
	octave 3
	note F_, 2
;Bar 119
	note A_, 2
	note A#, 4
	note G_, 2
	note A#, 2
	octave 4
	note D_, 2
	note D#, 2
	octave 3
	note G_, 2
;Bar 120
	octave 4
	note D_, 2
	note C_, 2
	octave 3
	note A#, 2
	note D_, 2
	note G_, 2
	note A#, 2
	octave 4
	note C_, 2
	octave 3
	note F_, 2
;Bar 121
	note A_, 2
	note A#, 4
	note G_, 2
	note A#, 2
	octave 4
	note D_, 2
	note D#, 2
	octave 3
	note G_, 2
;Bar 122
	octave 4
	note D_, 2
	note C_, 2
	octave 3
	note A#, 2
	note D_, 2
	note G_, 2
	note A#, 2
	note A_, 2
	note C_, 2
;Bar 123
	note F_, 2
	note G_, 4
	note C_, 2
	note F_, 2
	note G_, 4
	note F_, 2
;Bar 124
	note G_, 2
	note A_, 2
	note A#, 2
	note D_, 2
	note G_, 2
	note A#, 2
	octave 4
	note C_, 2
	octave 3
	note F_, 2
;Bar 125
	note A_, 2
	note A#, 4
	note G_, 2
	note A#, 2
	octave 4
	note D_, 2
	note D#, 2
	octave 3
	note G_, 2
;Bar 126
	octave 4
	note D_, 2
	note C_, 2
	octave 3
	note A#, 2
	note D_, 2
	note G_, 2
	note A#, 2
	octave 4
	note C_, 2
	octave 3
	note F_, 2
;Bar 127
	note A_, 2
	note A#, 4
	note G_, 2
	note A#, 2
	octave 4
	note D_, 2
	note D#, 2
	octave 3
	note G_, 2
;Bar 128
	octave 4
	note D_, 2
	note C_, 2
	octave 3
	note A#, 2
	note D_, 2
	note G_, 2
	note A#, 2
	octave 4
	note C_, 2
	octave 3
	note F_, 2
;Bar 129
	note A_, 2
	note A#, 4
	note G_, 2
	note A#, 2
	octave 4
	note D_, 2
	note D#, 2
	octave 3
	note G_, 2
;Bar 130
	octave 4
	note D_, 2
	note C_, 2
	octave 3
	note A#, 2
	note D_, 2
	note G_, 2
	note A#, 2
	note A_, 2
	note C_, 2
;Bar 131
	note F_, 2
	note G_, 4
	note C_, 2
	note F_, 2
	note G_, 4
	octave 4
	note F_, 2
;Bar 132
	note G_, 2
	note A_, 2
	note A#, 2
	note D_, 2
	note G_, 2
	note A#, 2
	octave 5
	note C_, 2
	octave 4
	note F_, 2
;Bar 133
	note A_, 2
	note A#, 4
	note G_, 2
	note A#, 2
	octave 5
	note D_, 2
	note D#, 2
	octave 4
	note G_, 2
;Bar 134
	octave 5
	note D_, 2
	note C_, 2
	octave 4
	note A#, 2
	note D_, 2
	note G_, 2
	note A#, 2
	octave 5
	note C_, 2
	octave 4
	note F_, 2
;Bar 135
	note A_, 2
	note A#, 4
	note G_, 2
	note A#, 2
	octave 5
	note D_, 2
	note D#, 2
	octave 4
	note G_, 2
;Bar 136
	octave 5
	note D_, 2
	note C_, 2
	octave 4
	note A#, 2
	note D_, 2
	note G_, 2
	note A#, 2
	octave 5
	note C_, 2
	octave 4
	note F_, 2
;Bar 137
	note A_, 2
	note A#, 4
	note G_, 2
	note A#, 2
	octave 5
	note D_, 2
	note D#, 2
	octave 4
	note G_, 2
;Bar 138
	octave 5
	note D_, 2
	note C_, 2
	octave 4
	note A#, 2
	note D_, 2
	note G_, 2
	note A#, 2
	note A_, 2
	note C_, 2
;Bar 139
	note F_, 2
	note G_, 4
	note C_, 2
	note F_, 2
	note G_, 8
;Bar 140
	octave 3
	note G_, 2
	sound_loop 0, .mainloop

; ============================================================================================================

Music_Blue_Ch2:
	duty_cycle 1
	note_type 12, 10, 7
.mainloop
;Bar 1
	volume_envelope 9, 7
	rest 4
	octave 1
	note G_, 8
	note F_, 6
;Bar 2
	note D#, 10
	note C_, 8
;Bar 3
	note G_, 8
	note F_, 6
;Bar 4
	note D#, 10
	note C_, 8
;Bar 5
	note G_, 8
	note F_, 6
;Bar 6
	note D#, 10
	note C_, 8
;Bar 7
	note G_, 8
	note F_, 6
;Bar 8
	note D#, 8
	note D#, 10
;Bar 9
	;note G_, 0 | WARNING: Rounded down to 0
	octave 2
	note G_, 4
	octave 1
	note G_, 4
	;note F_, 0 | WARNING: Rounded down to 0
	octave 2
	note F_, 4
;Bar 10
	octave 1
	note F_, 4
	;note D#, 0 | WARNING: Rounded down to 0
	octave 2
	note D#, 4
	octave 1
	note D#, 4
	;note C_, 0 | WARNING: Rounded down to 0
	octave 2
	note D_, 4
;Bar 11
	octave 1
	note C_, 4
	;note G_, 0 | WARNING: Rounded down to 0
	octave 2
	note G_, 4
	octave 1
	note G_, 4
	;note F_, 0 | WARNING: Rounded down to 0
	octave 2
	note F_, 4
;Bar 12
	octave 1
	note F_, 4
	;note D#, 0 | WARNING: Rounded down to 0
	octave 2
	note D#, 4
	octave 1
	note D#, 4
	;note C_, 0 | WARNING: Rounded down to 0
	octave 2
	note D_, 4
;Bar 13
	octave 1
	note C_, 4
	;note G_, 0 | WARNING: Rounded down to 0
	octave 2
	note G_, 4
	octave 1
	note G_, 4
	;note F_, 0 | WARNING: Rounded down to 0
	octave 2
	note F_, 4
;Bar 14
	octave 1
	note F_, 4
	;note D#, 0 | WARNING: Rounded down to 0
	octave 2
	note D#, 4
	octave 1
	note D#, 4
	;note C_, 0 | WARNING: Rounded down to 0
	octave 2
	note D_, 4
;Bar 15
	octave 1
	note C_, 4
	;note G_, 0 | WARNING: Rounded down to 0
	octave 2
	note G_, 4
	octave 1
	note G_, 4
	;note F_, 0 | WARNING: Rounded down to 0
	octave 2
	note F_, 4
;Bar 16
	octave 1
	note F_, 4
	;note D#, 0 | WARNING: Rounded down to 0
	octave 2
	note D#, 4
	octave 1
	note D#, 4
	;note D#, 0 | WARNING: Rounded down to 0
	octave 2
	note D#, 4
;Bar 17
	octave 1
	note D#, 4
	;note D#, 0 | WARNING: Rounded down to 0
	octave 2
	note D#, 4
	octave 1
	note D#, 4
	;note D_, 0 | WARNING: Rounded down to 0
	octave 2
	note D#, 4
;Bar 18
	octave 1
	note D_, 4
	note G_, 2
	rest 2
	note G_, 2
	rest 2
	note G_, 2
	rest 2
;Bar 19
	note G_, 2
	rest 2
	note G_, 2
	rest 2
	note G_, 2
	rest 2
	note G_, 2
	rest 2
;Bar 20
	note G_, 2
	rest 2
	note G_, 2
	rest 2
	note G_, 2
	rest 2
	note G_, 2
	rest 2
;Bar 21
	note G_, 2
	rest 2
	note G_, 2
	rest 2
	note G_, 2
	rest 2
	note G_, 2
	rest 2
;Bar 22
	note G_, 2
	rest 2
	note G_, 2
	rest 2
	note G_, 2
	rest 2
	note G_, 2
	rest 2
;Bar 23
	note G_, 2
	rest 2
	note G_, 2
	rest 2
	note G_, 2
	rest 2
	note G_, 2
	rest 2
;Bar 24
	note G_, 2
	rest 2
	note G_, 2
	rest 2
	note G_, 2
	rest 2
	note G_, 2
	rest 2
;Bar 25
	note G_, 2
	rest 2
	note G_, 2
	rest 2
	note G_, 2
	rest 2
	note G_, 2
	rest 2
;Bar 26
	note G_, 2
	rest 2
	note G_, 2
	octave 1
	note G_, 2
	octave 1
	note G_, 2
	octave 1
	note G_, 2
	octave 1
	note F_, 2
	octave 1
	note F_, 2
;Bar 27
	octave 1
	note F_, 2
	octave 1
	note F_, 2
	octave 1
	note D#, 2
	octave 1
	note D#, 2
	octave 1
	note D#, 2
	octave 1
	note D#, 2
	octave 1
	note C_, 2
	octave 1
	note C_, 2
;Bar 28
	octave 1
	note C_, 2
	octave 1
	note C_, 2
	octave 1
	note G_, 2
	octave 1
	note G_, 2
	octave 1
	note G_, 2
	octave 1
	note G_, 2
	octave 1
	note F_, 2
	octave 1
	note F_, 2
;Bar 29
	octave 1
	note F_, 2
	octave 1
	note F_, 2
	octave 1
	note D#, 2
	octave 1
	note D#, 2
	octave 1
	note D#, 2
	octave 1
	note D#, 2
	octave 1
	note C_, 2
	octave 1
	note C_, 2
;Bar 30
	octave 1
	note C_, 2
	octave 1
	note C_, 2
	octave 1
	note G_, 2
	octave 1
	note G_, 2
	octave 1
	note G_, 2
	octave 1
	note G_, 2
	octave 1
	note F_, 2
	octave 1
	note F_, 2
;Bar 31
	octave 1
	note F_, 2
	octave 1
	note F_, 2
	octave 1
	note D#, 2
	octave 1
	note D#, 2
	octave 1
	note D#, 2
	octave 1
	note D#, 2
	octave 1
	note C_, 2
	octave 1
	note C_, 2
;Bar 32
	octave 1
	note C_, 2
	octave 1
	note C_, 2
	octave 1
	note G_, 2
	octave 1
	note G_, 2
	octave 1
	note G_, 2
	octave 1
	note G_, 2
	octave 1
	note F_, 2
	octave 1
	note F_, 2
;Bar 33
	octave 1
	note F_, 2
	octave 1
	note F_, 2
	octave 1
	note D#, 2
	octave 1
	note D#, 2
	octave 1
	note D#, 2
	octave 1
	note D#, 2
	octave 1
	note D#, 2
	octave 1
	note D#, 2
;Bar 34
	octave 1
	note D#, 2
	octave 1
	note D#, 2
	octave 1
	note D#, 2
	octave 1
	note D#, 2
	octave 1
	note D#, 2
	octave 1
	note D#, 2
	octave 1
	note D#, 2
	octave 1
	note D#, 2
;Bar 35
	octave 1
	note D#, 2
	octave 1
	note D#, 2
	;note G_, 0 | WARNING: Rounded down to 0
	octave 1
	note G_, 8
	octave 1
	;note G_, 0 | WARNING: Rounded down to 0
	octave 1
	note G_, 8
;Bar 36
	octave 1
	;note G_, 0 | WARNING: Rounded down to 0
	octave 1
	note G_, 8
	octave 1
	;note G_, 0 | WARNING: Rounded down to 0
	octave 1
	note G_, 4
;Bar 37
	octave 1
	;note G#, 0 | WARNING: Rounded down to 0
	octave 1
	note G#, 4
	octave 1
	;note G_, 0 | WARNING: Rounded down to 0
	octave 1
	note G_, 8
	octave 1
	;note G_, 0 | WARNING: Rounded down to 0
	octave 1
	note G_, 8
;Bar 38
	octave 1
	;note G_, 0 | WARNING: Rounded down to 0
	octave 1
	note G_, 8
	octave 1
	;note G_, 0 | WARNING: Rounded down to 0
	octave 1
	note G_, 4
;Bar 39
	octave 1
	;note G#, 0 | WARNING: Rounded down to 0
	octave 1
	note G#, 4
	octave 1
	;note G_, 0 | WARNING: Rounded down to 0
	octave 1
	note G_, 8
	octave 1
	;note G_, 0 | WARNING: Rounded down to 0
	octave 1
	note G_, 8
;Bar 40
	octave 1
	;note G_, 0 | WARNING: Rounded down to 0
	octave 1
	note G_, 8
	octave 1
	;note G_, 0 | WARNING: Rounded down to 0
	octave 1
	note G_, 4
;Bar 41
	octave 1
	;note G#, 0 | WARNING: Rounded down to 0
	octave 1
	note G#, 4
	octave 1
	;note G_, 0 | WARNING: Rounded down to 0
	octave 1
	note G_, 8
	octave 1
	;note G_, 0 | WARNING: Rounded down to 0
	octave 1
	note G_, 8
;Bar 42
	octave 1
	;note G_, 0 | WARNING: Rounded down to 0
	octave 1
	note G_, 8
	octave 1
	;note G_, 0 | WARNING: Rounded down to 0
	octave 1
	note G_, 8
;Bar 43
	;note G_, 0 | WARNING: Rounded down to 0
	octave 2
	note G_, 4
	octave 1
	;note G_, 0 | WARNING: Rounded down to 0
	octave 2
	note G_, 4
	octave 1
	;note G_, 0 | WARNING: Rounded down to 0
	octave 2
	note G_, 4
;Bar 44
	octave 1
	;note G_, 0 | WARNING: Rounded down to 0
	octave 2
	note G_, 4
	octave 1
	;note G_, 0 | WARNING: Rounded down to 0
	octave 2
	note G_, 4
	octave 1
	;note G_, 0 | WARNING: Rounded down to 0
	octave 2
	note G_, 4
	octave 1
	;note G_, 0 | WARNING: Rounded down to 0
	octave 2
	note G_, 4
;Bar 45
	octave 1
	;note G#, 0 | WARNING: Rounded down to 0
	octave 2
	note G#, 4
	octave 1
	;note G_, 0 | WARNING: Rounded down to 0
	octave 2
	note G_, 4
	octave 1
	;note G_, 0 | WARNING: Rounded down to 0
	octave 2
	note G_, 4
	octave 1
	;note G_, 0 | WARNING: Rounded down to 0
	octave 2
	note G_, 4
;Bar 46
	octave 1
	;note G_, 0 | WARNING: Rounded down to 0
	octave 2
	note G_, 4
	octave 1
	;note G_, 0 | WARNING: Rounded down to 0
	octave 2
	note G_, 4
	octave 1
	;note G_, 0 | WARNING: Rounded down to 0
	octave 2
	note G_, 4
	octave 1
	;note G_, 0 | WARNING: Rounded down to 0
	octave 2
	note G_, 4
;Bar 47
	octave 1
	;note G#, 0 | WARNING: Rounded down to 0
	octave 2
	note G#, 4
	octave 1
	;note G_, 0 | WARNING: Rounded down to 0
	octave 2
	note G_, 4
	octave 1
	;note G_, 0 | WARNING: Rounded down to 0
	octave 2
	note G_, 4
	octave 1
	;note G_, 0 | WARNING: Rounded down to 0
	octave 2
	note G_, 4
;Bar 48
	octave 1
	;note G_, 0 | WARNING: Rounded down to 0
	octave 2
	note G_, 4
	octave 1
	;note G_, 0 | WARNING: Rounded down to 0
	octave 2
	note G_, 4
	octave 1
	;note G_, 0 | WARNING: Rounded down to 0
	octave 2
	note G_, 4
	octave 1
	;note G_, 0 | WARNING: Rounded down to 0
	octave 2
	note G_, 4
;Bar 49
	octave 1
	;note G#, 0 | WARNING: Rounded down to 0
	octave 2
	note G#, 4
	octave 1
	;note G_, 0 | WARNING: Rounded down to 0
	octave 2
	note G_, 4
	octave 1
	;note G_, 0 | WARNING: Rounded down to 0
	octave 2
	note G_, 4
	octave 1
	;note G_, 0 | WARNING: Rounded down to 0
	octave 2
	note G_, 4
;Bar 50
	octave 1
	;note G_, 0 | WARNING: Rounded down to 0
	octave 2
	note G_, 4
	octave 1
	;note G_, 0 | WARNING: Rounded down to 0
	octave 2
	note G_, 4
	octave 1
	;note G_, 0 | WARNING: Rounded down to 0
	octave 2
	note G_, 4
	octave 1
	;note G_, 0 | WARNING: Rounded down to 0
	octave 2
	note G_, 4
;Bar 51
	octave 1
	;note G_, 0 | WARNING: Rounded down to 0
	octave 2
	note G_, 4
	octave 1
	;note G_, 0 | WARNING: Rounded down to 0
	octave 2
	note G_, 4
	octave 1
	;note G_, 0 | WARNING: Rounded down to 0
	octave 2
	note G_, 4
	octave 1
	;note F_, 0 | WARNING: Rounded down to 0
	octave 2
	note F_, 4
;Bar 52
	octave 1
	;note F_, 0 | WARNING: Rounded down to 0
	octave 2
	note F_, 4
	octave 1
	;note D#, 0 | WARNING: Rounded down to 0
	octave 2
	note D#, 4
	octave 1
	;note D#, 0 | WARNING: Rounded down to 0
	octave 2
	note D#, 4
	octave 1
	;note C_, 0 | WARNING: Rounded down to 0
	octave 2
	note C_, 4
;Bar 53
	octave 1
	;note C_, 0 | WARNING: Rounded down to 0
	octave 2
	note C_, 4
	octave 1
	;note G_, 0 | WARNING: Rounded down to 0
	octave 2
	note G_, 4
	octave 1
	;note G_, 0 | WARNING: Rounded down to 0
	octave 2
	note G_, 4
	octave 1
	;note F_, 0 | WARNING: Rounded down to 0
	octave 2
	note F_, 4
;Bar 54
	octave 1
	;note F_, 0 | WARNING: Rounded down to 0
	octave 2
	note F_, 4
	octave 1
	;note D#, 0 | WARNING: Rounded down to 0
	octave 2
	note D#, 4
	octave 1
	;note D#, 0 | WARNING: Rounded down to 0
	octave 2
	note D#, 4
	octave 1
	;note C_, 0 | WARNING: Rounded down to 0
	octave 2
	note C_, 4
;Bar 55
	octave 1
	;note C_, 0 | WARNING: Rounded down to 0
	octave 2
	note C_, 4
	octave 1
	;note G_, 0 | WARNING: Rounded down to 0
	octave 2
	note G_, 4
	octave 1
	;note G_, 0 | WARNING: Rounded down to 0
	octave 2
	note G_, 4
	octave 1
	;note F_, 0 | WARNING: Rounded down to 0
	octave 2
	note F_, 4
;Bar 56
	octave 1
	;note F_, 0 | WARNING: Rounded down to 0
	octave 2
	note F_, 4
	octave 1
	;note D#, 0 | WARNING: Rounded down to 0
	octave 2
	note D#, 4
	octave 1
	;note D#, 0 | WARNING: Rounded down to 0
	octave 2
	note D#, 4
	octave 1
	;note C_, 0 | WARNING: Rounded down to 0
	octave 2
	note C_, 4
;Bar 57
	octave 1
	;note C_, 0 | WARNING: Rounded down to 0
	octave 2
	note C_, 4
	octave 1
	;note G_, 0 | WARNING: Rounded down to 0
	octave 2
	note G_, 4
	octave 1
	;note G_, 0 | WARNING: Rounded down to 0
	octave 2
	note G_, 4
	octave 1
	;note F_, 0 | WARNING: Rounded down to 0
	octave 2
	note F_, 4
;Bar 58
	octave 1
	;note F_, 0 | WARNING: Rounded down to 0
	octave 2
	note F_, 4
	octave 1
	;note D#, 0 | WARNING: Rounded down to 0
	octave 2
	note D#, 4
	octave 1
	;note D#, 0 | WARNING: Rounded down to 0
	octave 2
	note D#, 4
	octave 1
	;note D#, 0 | WARNING: Rounded down to 0
	octave 2
	note D#, 4
;Bar 59
	octave 1
	;note D#, 0 | WARNING: Rounded down to 0
	octave 2
	note D#, 4
	octave 1
	note G_, 2
	octave 2
	note G_, 2
	octave 1
	note G_, 2
	octave 2
	note G_, 2
	octave 1
	note F_, 2
	octave 2
	note F_, 2
;Bar 60
	octave 1
	note F_, 2
	octave 2
	note F_, 2
	octave 1
	note D#, 2
	octave 2
	note D#, 2
	octave 1
	note D#, 2
	octave 2
	note D#, 2
	octave 1
	note C_, 2
	octave 2
	note C_, 2
;Bar 61
	octave 1
	note C_, 2
	octave 2
	note C_, 2
	octave 1
	note G_, 2
	octave 2
	note G_, 2
	octave 1
	note G_, 2
	octave 2
	note G_, 2
	octave 1
	note F_, 2
	octave 2
	note F_, 2
;Bar 62
	octave 1
	note F_, 2
	octave 2
	note F_, 2
	octave 1
	note D#, 2
	octave 2
	note D#, 2
	octave 1
	note D#, 2
	octave 2
	note D#, 2
	octave 1
	note C_, 2
	octave 2
	note C_, 2
;Bar 63
	octave 1
	note C_, 2
	octave 2
	note C_, 2
	octave 1
	note G_, 2
	octave 2
	note G_, 2
	octave 1
	note G_, 2
	octave 2
	note G_, 2
	octave 1
	note F_, 2
	octave 2
	note F_, 2
;Bar 64
	octave 1
	note F_, 2
	octave 2
	note F_, 2
	octave 1
	note D#, 2
	octave 2
	note D#, 2
	octave 1
	note D#, 2
	octave 2
	note D#, 2
	octave 1
	note C_, 2
	octave 2
	note C_, 2
;Bar 65
	octave 1
	note C_, 2
	octave 2
	note C_, 2
	octave 1
	note G_, 2
	octave 2
	note G_, 2
	octave 1
	note G_, 2
	octave 2
	note G_, 2
	octave 1
	note F_, 2
	octave 2
	note F_, 2
;Bar 66
	octave 1
	note F_, 2
	octave 2
	note F_, 2
	octave 1
	note D#, 2
	octave 2
	note D#, 2
	octave 1
	note D#, 2
	octave 2
	note D#, 2
	octave 1
	note D#, 2
	octave 2
	note D#, 2
;Bar 67
	octave 1
	note D#, 2
	octave 2
	note D#, 2
	octave 1
	;note G_, 0 | WARNING: Rounded down to 0
	octave 2
	note G_, 4
	;note G_, 0 | WARNING: Rounded down to 0
	octave 3
	note D_, 4
	octave 1
	;note F_, 0 | WARNING: Rounded down to 0
	octave 2
	note F_, 4
;Bar 68
	;note F_, 0 | WARNING: Rounded down to 0
	octave 3
	note C_, 4
	octave 1
	;note D#, 0 | WARNING: Rounded down to 0
	octave 2
	note D#, 4
	;note D#, 0 | WARNING: Rounded down to 0
	note A#, 4
	octave 1
	;note C_, 0 | WARNING: Rounded down to 0
	octave 2
	note C_, 4
;Bar 69
	;note C_, 0 | WARNING: Rounded down to 0
	note G_, 4
	octave 1
	;note G_, 0 | WARNING: Rounded down to 0
	octave 2
	note G_, 4
	;note G_, 0 | WARNING: Rounded down to 0
	octave 3
	note D_, 4
	octave 1
	;note F_, 0 | WARNING: Rounded down to 0
	octave 2
	note F_, 4
;Bar 70
	;note F_, 0 | WARNING: Rounded down to 0
	octave 3
	note C_, 4
	octave 1
	;note D#, 0 | WARNING: Rounded down to 0
	octave 2
	note D#, 4
	;note D#, 0 | WARNING: Rounded down to 0
	note A#, 4
	octave 1
	;note C_, 0 | WARNING: Rounded down to 0
	octave 2
	note C_, 4
;Bar 71
	;note C_, 0 | WARNING: Rounded down to 0
	note G_, 4
	octave 1
	;note G_, 0 | WARNING: Rounded down to 0
	octave 2
	note G_, 4
	;note G_, 0 | WARNING: Rounded down to 0
	octave 3
	note D_, 4
	octave 1
	;note F_, 0 | WARNING: Rounded down to 0
	octave 2
	note F_, 4
;Bar 72
	;note F_, 0 | WARNING: Rounded down to 0
	octave 3
	note C_, 4
	octave 1
	;note D#, 0 | WARNING: Rounded down to 0
	octave 2
	note D#, 4
	;note D#, 0 | WARNING: Rounded down to 0
	note A#, 4
	octave 1
	;note C_, 0 | WARNING: Rounded down to 0
	octave 2
	note C_, 4
;Bar 73
	;note C_, 0 | WARNING: Rounded down to 0
	note G_, 4
	octave 1
	;note G_, 0 | WARNING: Rounded down to 0
	octave 2
	note G_, 4
	;note G_, 0 | WARNING: Rounded down to 0
	octave 3
	note D_, 4
	octave 1
	;note F_, 0 | WARNING: Rounded down to 0
	octave 2
	note F_, 4
;Bar 74
	;note F_, 0 | WARNING: Rounded down to 0
	octave 3
	note C_, 4
	octave 1
	;note D#, 0 | WARNING: Rounded down to 0
	octave 2
	note D#, 4
	;note D#, 0 | WARNING: Rounded down to 0
	note A#, 4
	;note D#, 0 | WARNING: Rounded down to 0
	note A#, 4
;Bar 75
	;note D#, 0 | WARNING: Rounded down to 0
	note A#, 4
	;note D#, 0 | WARNING: Rounded down to 0
	note A#, 4
	;note D#, 0 | WARNING: Rounded down to 0
	note A#, 4
	;note D#, 0 | WARNING: Rounded down to 0
	note A#, 4
;Bar 76
	;note D#, 0 | WARNING: Rounded down to 0
	note A#, 4
	octave 1
	;note G_, 0 | WARNING: Rounded down to 0
	octave 2
	;note D_, 0 | WARNING: Rounded down to 0
	note G_, 8
	octave 1
	;note G_, 0 | WARNING: Rounded down to 0
	octave 2
	;note D_, 0 | WARNING: Rounded down to 0
	note G_, 8
;Bar 77
	octave 1
	;note G_, 0 | WARNING: Rounded down to 0
	octave 2
	;note D_, 0 | WARNING: Rounded down to 0
	note G_, 8
	octave 1
	;note G_, 0 | WARNING: Rounded down to 0
	octave 2
	;note D_, 0 | WARNING: Rounded down to 0
	note G_, 4
;Bar 78
	octave 1
	;note G#, 0 | WARNING: Rounded down to 0
	octave 2
	;note D#, 0 | WARNING: Rounded down to 0
	note G#, 4
	octave 1
	;note G_, 0 | WARNING: Rounded down to 0
	octave 2
	;note D_, 0 | WARNING: Rounded down to 0
	note G_, 8
	octave 1
	;note G_, 0 | WARNING: Rounded down to 0
	octave 2
	;note D_, 0 | WARNING: Rounded down to 0
	note G_, 8
;Bar 79
	octave 1
	;note G_, 0 | WARNING: Rounded down to 0
	octave 2
	;note D_, 0 | WARNING: Rounded down to 0
	note G_, 8
	octave 1
	;note G_, 0 | WARNING: Rounded down to 0
	octave 2
	;note D_, 0 | WARNING: Rounded down to 0
	note G_, 4
;Bar 80
	octave 1
	;note G#, 0 | WARNING: Rounded down to 0
	octave 2
	;note D#, 0 | WARNING: Rounded down to 0
	note G#, 4
	octave 1
	;note G_, 0 | WARNING: Rounded down to 0
	octave 2
	;note D_, 0 | WARNING: Rounded down to 0
	note G_, 8
	octave 1
	;note G_, 0 | WARNING: Rounded down to 0
	octave 2
	;note D_, 0 | WARNING: Rounded down to 0
	note G_, 8
;Bar 81
	octave 1
	;note G_, 0 | WARNING: Rounded down to 0
	octave 2
	;note D_, 0 | WARNING: Rounded down to 0
	note G_, 8
	octave 1
	;note G_, 0 | WARNING: Rounded down to 0
	octave 2
	;note D_, 0 | WARNING: Rounded down to 0
	note G_, 4
;Bar 82
	octave 1
	;note G#, 0 | WARNING: Rounded down to 0
	octave 2
	;note D#, 0 | WARNING: Rounded down to 0
	note G#, 4
	octave 1
	;note G_, 0 | WARNING: Rounded down to 0
	octave 2
	;note D_, 0 | WARNING: Rounded down to 0
	note G_, 8
	octave 1
	;note G_, 0 | WARNING: Rounded down to 0
	octave 2
	;note D_, 0 | WARNING: Rounded down to 0
	note G_, 8
;Bar 83
	octave 1
	;note G_, 0 | WARNING: Rounded down to 0
	octave 2
	;note D_, 0 | WARNING: Rounded down to 0
	note G_, 8
	octave 1
	;note G_, 0 | WARNING: Rounded down to 0
	octave 2
	;note D_, 0 | WARNING: Rounded down to 0
	note G_, 8
;Bar 84
	octave 1
	;note G_, 0 | WARNING: Rounded down to 0
	octave 2
	;note D_, 0 | WARNING: Rounded down to 0
	note G_, 4
	octave 1
	;note G_, 0 | WARNING: Rounded down to 0
	octave 2
	;note D_, 0 | WARNING: Rounded down to 0
	note G_, 4
	octave 1
	;note G_, 0 | WARNING: Rounded down to 0
	octave 2
	;note D_, 0 | WARNING: Rounded down to 0
	note G_, 4
;Bar 85
	octave 1
	;note G_, 0 | WARNING: Rounded down to 0
	octave 2
	;note D_, 0 | WARNING: Rounded down to 0
	note G_, 4
	octave 1
	;note G_, 0 | WARNING: Rounded down to 0
	octave 2
	;note D_, 0 | WARNING: Rounded down to 0
	note G_, 4
	octave 1
	;note G_, 0 | WARNING: Rounded down to 0
	octave 2
	;note D_, 0 | WARNING: Rounded down to 0
	note G_, 4
	octave 1
	;note G_, 0 | WARNING: Rounded down to 0
	octave 2
	;note D_, 0 | WARNING: Rounded down to 0
	note G_, 4
;Bar 86
	octave 1
	;note G#, 0 | WARNING: Rounded down to 0
	octave 2
	;note D#, 0 | WARNING: Rounded down to 0
	note G#, 4
	octave 1
	;note G_, 0 | WARNING: Rounded down to 0
	octave 2
	;note D_, 0 | WARNING: Rounded down to 0
	note G_, 4
	octave 1
	;note G_, 0 | WARNING: Rounded down to 0
	octave 2
	;note D_, 0 | WARNING: Rounded down to 0
	note G_, 4
	octave 1
	;note G_, 0 | WARNING: Rounded down to 0
	octave 2
	;note D_, 0 | WARNING: Rounded down to 0
	note G_, 4
;Bar 87
	octave 1
	;note G_, 0 | WARNING: Rounded down to 0
	octave 2
	;note D_, 0 | WARNING: Rounded down to 0
	note G_, 4
	octave 1
	;note G_, 0 | WARNING: Rounded down to 0
	octave 2
	;note D_, 0 | WARNING: Rounded down to 0
	note G_, 4
	octave 1
	;note G_, 0 | WARNING: Rounded down to 0
	octave 2
	;note D_, 0 | WARNING: Rounded down to 0
	note G_, 4
	octave 1
	;note G_, 0 | WARNING: Rounded down to 0
	octave 2
	;note D_, 0 | WARNING: Rounded down to 0
	note G_, 4
;Bar 88
	octave 1
	;note G#, 0 | WARNING: Rounded down to 0
	octave 2
	;note D#, 0 | WARNING: Rounded down to 0
	note G#, 4
	octave 1
	;note G_, 0 | WARNING: Rounded down to 0
	octave 2
	;note D_, 0 | WARNING: Rounded down to 0
	note G_, 4
	octave 1
	;note G_, 0 | WARNING: Rounded down to 0
	octave 2
	;note D_, 0 | WARNING: Rounded down to 0
	note G_, 4
	octave 1
	;note G_, 0 | WARNING: Rounded down to 0
	octave 2
	;note D_, 0 | WARNING: Rounded down to 0
	note G_, 4
;Bar 89
	octave 1
	;note G_, 0 | WARNING: Rounded down to 0
	octave 2
	;note D_, 0 | WARNING: Rounded down to 0
	note G_, 4
	octave 1
	;note G_, 0 | WARNING: Rounded down to 0
	octave 2
	;note D_, 0 | WARNING: Rounded down to 0
	note G_, 4
	octave 1
	;note G_, 0 | WARNING: Rounded down to 0
	octave 2
	;note D_, 0 | WARNING: Rounded down to 0
	note G_, 4
	octave 1
	;note G_, 0 | WARNING: Rounded down to 0
	octave 2
	;note D_, 0 | WARNING: Rounded down to 0
	note G_, 4
;Bar 90
	octave 1
	;note G#, 0 | WARNING: Rounded down to 0
	octave 2
	;note D#, 0 | WARNING: Rounded down to 0
	note G#, 4
	octave 1
	;note G_, 0 | WARNING: Rounded down to 0
	octave 2
	;note D_, 0 | WARNING: Rounded down to 0
	note G_, 4
	octave 1
	;note G_, 0 | WARNING: Rounded down to 0
	octave 2
	;note D_, 0 | WARNING: Rounded down to 0
	note G_, 4
	octave 1
	;note G_, 0 | WARNING: Rounded down to 0
	octave 2
	;note D_, 0 | WARNING: Rounded down to 0
	note G_, 4
;Bar 91
	octave 1
	;note G_, 0 | WARNING: Rounded down to 0
	octave 2
	;note D_, 0 | WARNING: Rounded down to 0
	note G_, 4
	octave 1
	;note G_, 0 | WARNING: Rounded down to 0
	octave 2
	;note D_, 0 | WARNING: Rounded down to 0
	note G_, 4
	octave 1
	;note G_, 0 | WARNING: Rounded down to 0
	octave 2
	;note D_, 0 | WARNING: Rounded down to 0
	note G_, 4
	octave 1
	;note G_, 0 | WARNING: Rounded down to 0
	octave 2
	;note D_, 0 | WARNING: Rounded down to 0
	note G_, 4
;Bar 92
	octave 1
	;note G_, 0 | WARNING: Rounded down to 0
	octave 2
	;note D_, 0 | WARNING: Rounded down to 0
	note G_, 4
	octave 1
	;note G_, 0 | WARNING: Rounded down to 0
	octave 2
	;note D_, 0 | WARNING: Rounded down to 0
	note G_, 4
	octave 1
	;note G_, 0 | WARNING: Rounded down to 0
	octave 2
	;note D_, 0 | WARNING: Rounded down to 0
	note G_, 4
	octave 1
	;note F_, 0 | WARNING: Rounded down to 0
	octave 2
	;note C_, 0 | WARNING: Rounded down to 0
	note F_, 4
;Bar 93
	octave 1
	;note F_, 0 | WARNING: Rounded down to 0
	octave 2
	;note C_, 0 | WARNING: Rounded down to 0
	note F_, 4
	octave 1
	;note D#, 0 | WARNING: Rounded down to 0
	;note A#, 0 | WARNING: Rounded down to 0
	octave 2
	note D#, 4
	octave 1
	;note D#, 0 | WARNING: Rounded down to 0
	;note A#, 0 | WARNING: Rounded down to 0
	octave 2
	note D#, 4
	octave 1
	;note C_, 0 | WARNING: Rounded down to 0
	;note G_, 0 | WARNING: Rounded down to 0
	octave 2
	note C_, 4
;Bar 94
	octave 1
	;note C_, 0 | WARNING: Rounded down to 0
	;note G_, 0 | WARNING: Rounded down to 0
	octave 2
	note C_, 4
	octave 1
	;note G_, 0 | WARNING: Rounded down to 0
	octave 2
	;note D_, 0 | WARNING: Rounded down to 0
	note G_, 4
	octave 1
	;note G_, 0 | WARNING: Rounded down to 0
	octave 2
	;note D_, 0 | WARNING: Rounded down to 0
	note G_, 4
	octave 1
	;note F_, 0 | WARNING: Rounded down to 0
	octave 2
	;note C_, 0 | WARNING: Rounded down to 0
	note F_, 4
;Bar 95
	octave 1
	;note F_, 0 | WARNING: Rounded down to 0
	octave 2
	;note C_, 0 | WARNING: Rounded down to 0
	note F_, 4
	octave 1
	;note D#, 0 | WARNING: Rounded down to 0
	;note A#, 0 | WARNING: Rounded down to 0
	octave 2
	note D#, 4
	octave 1
	;note D#, 0 | WARNING: Rounded down to 0
	;note A#, 0 | WARNING: Rounded down to 0
	octave 2
	note D#, 4
	octave 1
	;note C_, 0 | WARNING: Rounded down to 0
	;note G_, 0 | WARNING: Rounded down to 0
	octave 2
	note C_, 4
;Bar 96
	octave 1
	;note C_, 0 | WARNING: Rounded down to 0
	;note G_, 0 | WARNING: Rounded down to 0
	octave 2
	note C_, 4
	octave 1
	;note G_, 0 | WARNING: Rounded down to 0
	octave 2
	;note D_, 0 | WARNING: Rounded down to 0
	note G_, 4
	octave 1
	;note G_, 0 | WARNING: Rounded down to 0
	octave 2
	;note D_, 0 | WARNING: Rounded down to 0
	note G_, 4
	octave 1
	;note F_, 0 | WARNING: Rounded down to 0
	octave 2
	;note C_, 0 | WARNING: Rounded down to 0
	note F_, 4
;Bar 97
	octave 1
	;note F_, 0 | WARNING: Rounded down to 0
	octave 2
	;note C_, 0 | WARNING: Rounded down to 0
	note F_, 4
	octave 1
	;note D#, 0 | WARNING: Rounded down to 0
	;note A#, 0 | WARNING: Rounded down to 0
	octave 2
	note D#, 4
	octave 1
	;note D#, 0 | WARNING: Rounded down to 0
	;note A#, 0 | WARNING: Rounded down to 0
	octave 2
	note D#, 4
	octave 1
	;note C_, 0 | WARNING: Rounded down to 0
	;note G_, 0 | WARNING: Rounded down to 0
	octave 2
	note C_, 4
;Bar 98
	octave 1
	;note C_, 0 | WARNING: Rounded down to 0
	;note G_, 0 | WARNING: Rounded down to 0
	octave 2
	note C_, 4
	octave 1
	;note G_, 0 | WARNING: Rounded down to 0
	octave 2
	;note D_, 0 | WARNING: Rounded down to 0
	note G_, 4
	octave 1
	;note G_, 0 | WARNING: Rounded down to 0
	octave 2
	;note D_, 0 | WARNING: Rounded down to 0
	note G_, 4
	octave 1
	;note F_, 0 | WARNING: Rounded down to 0
	octave 2
	;note C_, 0 | WARNING: Rounded down to 0
	note F_, 4
;Bar 99
	octave 1
	;note F_, 0 | WARNING: Rounded down to 0
	octave 2
	;note C_, 0 | WARNING: Rounded down to 0
	note F_, 4
	octave 1
	;note D#, 0 | WARNING: Rounded down to 0
	;note A#, 0 | WARNING: Rounded down to 0
	octave 2
	note D#, 4
	octave 1
	;note D#, 0 | WARNING: Rounded down to 0
	;note A#, 0 | WARNING: Rounded down to 0
	octave 2
	note D#, 4
	octave 1
	;note D#, 0 | WARNING: Rounded down to 0
	;note A#, 0 | WARNING: Rounded down to 0
	octave 2
	note D#, 4
;Bar 100
	octave 1
	;note D#, 0 | WARNING: Rounded down to 0
	;note A#, 0 | WARNING: Rounded down to 0
	octave 2
	note D#, 4
	octave 1
	;note G_, 0 | WARNING: Rounded down to 0
	octave 2
	note D_, 2
	note G_, 2
	octave 1
	;note G_, 0 | WARNING: Rounded down to 0
	octave 2
	note D_, 2
	note G_, 2
	octave 1
	;note F_, 0 | WARNING: Rounded down to 0
	octave 2
	note C_, 2
	note F_, 2
;Bar 101
	octave 1
	;note F_, 0 | WARNING: Rounded down to 0
	octave 2
	note C_, 2
	note F_, 2
	octave 1
	;note D#, 0 | WARNING: Rounded down to 0
	note A#, 2
	octave 2
	note D#, 2
	octave 1
	;note D#, 0 | WARNING: Rounded down to 0
	note A#, 2
	octave 2
	note D#, 2
	octave 1
	;note C_, 0 | WARNING: Rounded down to 0
	note G_, 2
	octave 2
	note C_, 2
;Bar 102
	octave 1
	;note C_, 0 | WARNING: Rounded down to 0
	note G_, 2
	octave 2
	note C_, 2
	octave 1
	;note G_, 0 | WARNING: Rounded down to 0
	octave 2
	note D_, 2
	note G_, 2
	octave 1
	;note G_, 0 | WARNING: Rounded down to 0
	octave 2
	note D_, 2
	note G_, 2
	octave 1
	;note F_, 0 | WARNING: Rounded down to 0
	octave 2
	note C_, 2
	note F_, 2
;Bar 103
	octave 1
	;note F_, 0 | WARNING: Rounded down to 0
	octave 2
	note C_, 2
	note F_, 2
	octave 1
	;note D#, 0 | WARNING: Rounded down to 0
	note A#, 2
	octave 2
	note D#, 2
	octave 1
	;note D#, 0 | WARNING: Rounded down to 0
	note A#, 2
	octave 2
	note D#, 2
	octave 1
	;note C_, 0 | WARNING: Rounded down to 0
	note G_, 2
	octave 2
	note C_, 2
;Bar 104
	octave 1
	;note C_, 0 | WARNING: Rounded down to 0
	note G_, 2
	octave 2
	note C_, 2
	octave 1
	;note G_, 0 | WARNING: Rounded down to 0
	octave 2
	note D_, 2
	note G_, 2
	octave 1
	;note G_, 0 | WARNING: Rounded down to 0
	octave 2
	note D_, 2
	note G_, 2
	octave 1
	;note F_, 0 | WARNING: Rounded down to 0
	octave 2
	note C_, 2
	note F_, 2
;Bar 105
	octave 1
	;note F_, 0 | WARNING: Rounded down to 0
	octave 2
	note C_, 2
	note F_, 2
	octave 1
	;note D#, 0 | WARNING: Rounded down to 0
	note A#, 2
	octave 2
	note D#, 2
	octave 1
	;note D#, 0 | WARNING: Rounded down to 0
	note A#, 2
	octave 2
	note D#, 2
	octave 1
	;note C_, 0 | WARNING: Rounded down to 0
	note G_, 2
	octave 2
	note C_, 2
;Bar 106
	octave 1
	;note C_, 0 | WARNING: Rounded down to 0
	note G_, 2
	octave 2
	note C_, 2
	octave 1
	;note G_, 0 | WARNING: Rounded down to 0
	octave 2
	note D_, 2
	note G_, 2
	octave 1
	;note G_, 0 | WARNING: Rounded down to 0
	octave 2
	note D_, 2
	note G_, 2
	octave 1
	;note F_, 0 | WARNING: Rounded down to 0
	octave 2
	note C_, 2
	note F_, 2
;Bar 107
	octave 1
	;note F_, 0 | WARNING: Rounded down to 0
	octave 2
	note C_, 2
	note F_, 2
	octave 1
	;note D#, 0 | WARNING: Rounded down to 0
	note A#, 2
	octave 2
	note D#, 2
	octave 1
	;note D#, 0 | WARNING: Rounded down to 0
	note A#, 2
	octave 2
	note D#, 2
	octave 1
	;note D#, 0 | WARNING: Rounded down to 0
	note A#, 2
	octave 2
	note D#, 2
;Bar 108
	octave 1
	;note D#, 0 | WARNING: Rounded down to 0
	note A#, 2
	octave 2
	note D#, 2
	octave 1
	;note G_, 0 | WARNING: Rounded down to 0
	octave 1
	note G_, 4
	;note G_, 0 | WARNING: Rounded down to 0
	octave 2
	;note D_, 0 | WARNING: Rounded down to 0
	note G_, 4
	octave 1
	;note F_, 0 | WARNING: Rounded down to 0
	octave 1
	note F_, 4
;Bar 109
	;note F_, 0 | WARNING: Rounded down to 0
	octave 2
	;note C_, 0 | WARNING: Rounded down to 0
	note F_, 4
	octave 1
	;note D#, 0 | WARNING: Rounded down to 0
	octave 1
	note D#, 4
	;note D#, 0 | WARNING: Rounded down to 0
	;note A#, 0 | WARNING: Rounded down to 0
	octave 2
	note D#, 4
	octave 1
	;note C_, 0 | WARNING: Rounded down to 0
	octave 1
	note C_, 4
;Bar 110
	;note C_, 0 | WARNING: Rounded down to 0
	;note G_, 0 | WARNING: Rounded down to 0
	octave 2
	note C_, 4
	octave 1
	;note G_, 0 | WARNING: Rounded down to 0
	octave 1
	note G_, 4
	;note G_, 0 | WARNING: Rounded down to 0
	octave 2
	;note D_, 0 | WARNING: Rounded down to 0
	note G_, 4
	octave 1
	;note F_, 0 | WARNING: Rounded down to 0
	octave 1
	note F_, 4
;Bar 111
	;note F_, 0 | WARNING: Rounded down to 0
	octave 2
	;note C_, 0 | WARNING: Rounded down to 0
	note F_, 4
	octave 1
	;note D#, 0 | WARNING: Rounded down to 0
	octave 1
	note D#, 4
	;note D#, 0 | WARNING: Rounded down to 0
	;note A#, 0 | WARNING: Rounded down to 0
	octave 2
	note D#, 4
	octave 1
	;note C_, 0 | WARNING: Rounded down to 0
	octave 1
	note C_, 4
;Bar 112
	;note C_, 0 | WARNING: Rounded down to 0
	;note G_, 0 | WARNING: Rounded down to 0
	octave 2
	note C_, 4
	octave 1
	;note G_, 0 | WARNING: Rounded down to 0
	octave 1
	note G_, 4
	;note G_, 0 | WARNING: Rounded down to 0
	octave 2
	;note D_, 0 | WARNING: Rounded down to 0
	note G_, 4
	octave 1
	;note F_, 0 | WARNING: Rounded down to 0
	octave 1
	note F_, 4
;Bar 113
	;note F_, 0 | WARNING: Rounded down to 0
	octave 2
	;note C_, 0 | WARNING: Rounded down to 0
	note F_, 4
	octave 1
	;note D#, 0 | WARNING: Rounded down to 0
	octave 1
	note D#, 4
	;note D#, 0 | WARNING: Rounded down to 0
	;note A#, 0 | WARNING: Rounded down to 0
	octave 2
	note D#, 4
	octave 1
	;note C_, 0 | WARNING: Rounded down to 0
	octave 1
	note C_, 4
;Bar 114
	;note C_, 0 | WARNING: Rounded down to 0
	;note G_, 0 | WARNING: Rounded down to 0
	octave 2
	note C_, 4
	octave 1
	;note G_, 0 | WARNING: Rounded down to 0
	octave 1
	note G_, 4
	;note G_, 0 | WARNING: Rounded down to 0
	octave 2
	;note D_, 0 | WARNING: Rounded down to 0
	note G_, 4
	octave 1
	;note F_, 0 | WARNING: Rounded down to 0
	octave 1
	note F_, 4
;Bar 115
	;note F_, 0 | WARNING: Rounded down to 0
	octave 2
	;note C_, 0 | WARNING: Rounded down to 0
	note F_, 4
	octave 1
	;note D#, 0 | WARNING: Rounded down to 0
	octave 1
	note D#, 4
	;note D#, 0 | WARNING: Rounded down to 0
	;note A#, 0 | WARNING: Rounded down to 0
	octave 2
	note D#, 4
	octave 1
	;note D#, 0 | WARNING: Rounded down to 0
	;note A#, 0 | WARNING: Rounded down to 0
	octave 2
	note D#, 4
;Bar 116
	octave 1
	;note D#, 0 | WARNING: Rounded down to 0
	;note A#, 0 | WARNING: Rounded down to 0
	octave 2
	note D#, 4
	octave 1
	note G_, 2
	octave 2
	note D_, 2
	note G_, 2
	note D_, 2
	octave 1
	note F_, 2
	octave 2
	note C_, 2
;Bar 117
	note F_, 2
	note C_, 2
	octave 1
	note D#, 2
	note A#, 2
	octave 2
	note D#, 2
	octave 1
	note A#, 2
	note C_, 2
	note G_, 2
;Bar 118
	octave 2
	note C_, 2
	octave 1
	note G_, 2
	note G_, 2
	octave 2
	note D_, 2
	note G_, 2
	note D_, 2
	octave 1
	note F_, 2
	octave 2
	note C_, 2
;Bar 119
	note F_, 2
	note C_, 2
	octave 1
	note D#, 2
	note A#, 2
	octave 2
	note D#, 2
	octave 1
	note A#, 2
	note C_, 2
	note G_, 2
;Bar 120
	octave 2
	note C_, 2
	octave 1
	note G_, 2
	note G_, 2
	octave 2
	note D_, 2
	note G_, 2
	note D_, 2
	octave 1
	note F_, 2
	octave 2
	note C_, 2
;Bar 121
	note F_, 2
	note C_, 2
	octave 1
	note D#, 2
	note A#, 2
	octave 2
	note D#, 2
	octave 1
	note A#, 2
	note C_, 2
	note G_, 2
;Bar 122
	octave 2
	note C_, 2
	octave 1
	note G_, 2
	note G_, 2
	octave 2
	note D_, 2
	note G_, 2
	note D_, 2
	octave 1
	note F_, 2
	octave 2
	note C_, 2
;Bar 123
	note F_, 2
	note C_, 2
	octave 1
	note D#, 2
	note A#, 2
	octave 2
	note D#, 2
	octave 1
	note A#, 2
	note D#, 2
	note A#, 2
;Bar 124
	octave 2
	note D#, 2
	octave 1
	note A#, 2
	octave 2
	;note G_, 0 | WARNING: Rounded down to 0
	octave 3
	note D_, 8
	octave 2
	;note F_, 0 | WARNING: Rounded down to 0
	octave 3
	note C_, 6
;Bar 125
	octave 2
	;note D#, 0 | WARNING: Rounded down to 0
	note A#, 10
	;note C_, 0 | WARNING: Rounded down to 0
	note G_, 8
;Bar 126
	;note G_, 0 | WARNING: Rounded down to 0
	octave 3
	note D_, 8
	octave 2
	;note F_, 0 | WARNING: Rounded down to 0
	octave 3
	note C_, 6
;Bar 127
	octave 2
	;note D#, 0 | WARNING: Rounded down to 0
	note A#, 10
	;note C_, 0 | WARNING: Rounded down to 0
	note G_, 8
;Bar 128
	;note G_, 0 | WARNING: Rounded down to 0
	octave 3
	note D_, 8
	octave 2
	;note F_, 0 | WARNING: Rounded down to 0
	octave 3
	note C_, 6
;Bar 129
	octave 2
	;note D#, 0 | WARNING: Rounded down to 0
	note A#, 10
	;note C_, 0 | WARNING: Rounded down to 0
	note G_, 8
;Bar 130
	;note G_, 0 | WARNING: Rounded down to 0
	octave 3
	note D_, 8
	octave 2
	;note F_, 0 | WARNING: Rounded down to 0
	octave 3
	note C_, 6
;Bar 131
	octave 2
	;note D#, 0 | WARNING: Rounded down to 0
	note A#, 10
	;note D#, 0 | WARNING: Rounded down to 0
	note A#, 8
;Bar 132
	octave 3
	note G_, 8
	note F_, 6
;Bar 133
	note D#, 10
	note C_, 8
;Bar 134
	note G_, 8
	note F_, 6
;Bar 135
	note D#, 10
	note C_, 8
;Bar 136
	note G_, 8
	note F_, 6
;Bar 137
	note D#, 10
	note C_, 8
;Bar 138
	note G_, 8
	note F_, 6
;Bar 139
	note D#, 10
	note D#, 8
	sound_loop 0, .mainloop

; ============================================================================================================

