;Coverted using MIDI2ASM
;Code by TriteHexagon
;Version 5.2.0 (16-Nov-2022)
;Visit github.com/TriteHexagon/Midi2ASM-Converter for up-to-date versions.

; ============================================================================================================

Music_Elysyann:
	channel_count 4
	channel 1, Music_Elysyann_Ch1
	channel 2, Music_Elysyann_Ch2
	channel 3, Music_Elysyann_Ch3
	channel 4, Music_Elysyann_Ch4

Music_Elysyann_Ch1:
	volume 7, 7
	duty_cycle 2
	note_type 12, 10, 7
	tempo 106
;Bar 1
	octave 1
	volume_envelope 7, 7
	note E_, 1
	rest 1
	note G_, 1
	rest 1
	octave 1
	note C_, 1
	rest 1
	note F#, 1
	rest 1
	note G_, 7
	rest 1
;Bar 2
	octave 1
	note E_, 1
	rest 1
	note G_, 1
	rest 1
	octave 1
	note C_, 1
	rest 1
	note F#, 1
	rest 1
	note G_, 7
	rest 1
;Bar 3
	octave 1
	note B_, 1
	rest 1
	octave 1
	note E_, 1
	rest 1
	note G_, 1
	rest 1
	octave 1
	note F#, 1
	rest 1
	note G_, 7
	rest 1
;Bar 4
	octave 1
	note B_, 1
	rest 1
	octave 1
	note E_, 1
	rest 1
	note G_, 1
	rest 1
	octave 1
	note F#, 1
	rest 1
	note G_, 7
	rest 1
;Bar 5
	octave 1
	note E_, 1
	rest 1
	note G_, 1
	rest 1
	octave 1
	note C_, 1
	rest 1
	note F#, 1
	rest 1
	note G_, 7
	rest 1
;Bar 6
	octave 1
	note E_, 1
	rest 1
	note G_, 1
	rest 1
	octave 1
	note C_, 1
	rest 1
	note F#, 1
	rest 1
	note G_, 7
	rest 1
;Bar 7
	octave 1
	note B_, 1
	rest 1
	octave 1
	note E_, 1
	rest 1
	note G_, 1
	rest 1
	octave 1
	note F#, 1
	rest 1
	note G_, 7
	rest 1
;Bar 8
	octave 1
	note B_, 1
	rest 1
	octave 1
	note E_, 1
	rest 1
	note G_, 1
	rest 1
	octave 1
	note F#, 1
	rest 1
	note G_, 7
	rest 1
;Bar 9
	octave 1
	note G_, 2
	octave 1
	note C_, 2
	note E_, 2
	note C_, 2
	note G_, 2
	note E_, 2
	octave 2
	note C_, 2
	octave 1
	note G_, 2 ; WARNING: Auto-Sync says: Rounded down!
;Bar 10
	octave 2
	note E_, 2
	note C_, 2
	octave 1
	note G_, 2
	note E_, 2
	octave 2
	note C_, 2
	octave 1
	note G_, 2
	note E_, 2
	note C_, 2
;Bar 11
	octave 1
	note B_, 2
	octave 1
	note E_, 2
	note G_, 2
	note E_, 2
	note B_, 2
	note G_, 2
	octave 2
	note E_, 2
	octave 1
	note B_, 2
;Bar 12
	octave 2
	note G_, 2
	note E_, 2
	octave 1
	note B_, 2
	note G_, 2
	octave 2
	note E_, 2
	octave 1
	note B_, 2
	note G_, 2
	note E_, 2
;Bar 13
	octave 1
	note G_, 2
	octave 1
	note C_, 2
	note E_, 2
	note C_, 2
	note G_, 2
	note E_, 2
	octave 2
	note C_, 2
	octave 1
	note G_, 2
;Bar 14
	octave 2
	note E_, 2
	note C_, 2
	octave 1
	note G_, 2
	note E_, 2
	octave 2
	note C_, 2
	octave 1
	note G_, 2
	note E_, 2
	note C_, 2
;Bar 15
	octave 1
	note B_, 2
	octave 1
	note E_, 2
	note G_, 2
	note E_, 2
	note B_, 2
	note G_, 2
	octave 2
	note E_, 2
	octave 1
	note B_, 2
;Bar 16
	octave 2
	note G_, 2
	note E_, 2
	octave 1
	note B_, 2
	note G_, 2
	octave 2
	note E_, 2
	octave 1
	note B_, 2
	note G_, 2
	note E_, 2
;Bar 17
	note E_, 2
	note G_, 2
	octave 2
	note C_, 2
	octave 1
	note G_, 2
	octave 2
	note E_, 2
	note C_, 2
	note G_, 2
	note E_, 2
;Bar 18
	octave 3
	note C_, 2
	octave 2
	note G_, 2
	note E_, 2
	note C_, 2
	note G_, 2
	note E_, 2
	note C_, 2
	octave 1
	note G_, 2
;Bar 19
	note E_, 2
	note G_, 2
	note B_, 2
	note G_, 2
	octave 2
	note E_, 2
	octave 1
	note B_, 2
	octave 2
	note G_, 2
	note E_, 2
;Bar 20
	note B_, 2
	note G_, 2
	note E_, 2
	octave 1
	note B_, 2
	octave 2
	note G_, 2
	note E_, 2
	octave 1
	note B_, 2
	note G_, 2
;Bar 21
	note E_, 2
	note G_, 2
	octave 2
	note C_, 2
	octave 1
	note G_, 2
	octave 2
	note E_, 2
	note C_, 2
	note G_, 2
	note E_, 2
;Bar 22
	octave 3
	note C_, 2
	octave 2
	note G_, 2
	note E_, 2
	note C_, 2
	note G_, 2
	note E_, 2
	note C_, 2
	octave 1
	note G_, 2
;Bar 23
	note G_, 2
	note B_, 2
	octave 2
	note E_, 2
	octave 1
	note B_, 2
	octave 2
	note G_, 2
	note E_, 2
	note B_, 2
	note G_, 2
;Bar 24
	octave 3
	note E_, 2
	octave 2
	note B_, 2
	note G_, 2
	note E_, 2
	note B_, 2
	note G_, 2
	note E_, 2
	octave 1
	note B_, 1
	sound_ret

; ============================================================================================================

Music_Elysyann_Ch2:
	duty_cycle 1
	note_type 12, 10, 7
;Bar 1
	octave 3
	volume_envelope 6, 7
	;note A_, 0 | WARNING: Rounded down to 0
	octave 4
	note C_, 2
	;note C_, 0 | WARNING: Rounded down to 0
	note E_, 2
	;note E_, 0 | WARNING: Rounded down to 0
	note G_, 2
	;note E_, 0 | WARNING: Rounded down to 0
	note A_, 6
	;note C_, 0 | WARNING: Rounded down to 0
	note G_, 4
;Bar 2
	octave 3
	;note A_, 0 | WARNING: Rounded down to 0
	octave 4
	note C_, 2
	;note C_, 0 | WARNING: Rounded down to 0
	note E_, 2
	;note E_, 0 | WARNING: Rounded down to 0
	note G_, 2
	;note E_, 0 | WARNING: Rounded down to 0
	note A_, 6
	;note C_, 0 | WARNING: Rounded down to 0
	note G_, 4
;Bar 3
	octave 3
	;note G_, 0 | WARNING: Rounded down to 0
	note B_, 2
	;note B_, 0 | WARNING: Rounded down to 0
	octave 4
	note E_, 2
	;note E_, 0 | WARNING: Rounded down to 0
	note G_, 2
	;note E_, 0 | WARNING: Rounded down to 0
	note A_, 4
	;note G_, 0 | WARNING: Rounded down to 0
	note B_, 6
;Bar 4
	octave 3
	;note G_, 0 | WARNING: Rounded down to 0
	note B_, 2
	;note B_, 0 | WARNING: Rounded down to 0
	octave 4
	note E_, 2
	;note E_, 0 | WARNING: Rounded down to 0
	note G_, 2
	;note E_, 0 | WARNING: Rounded down to 0
	note A_, 4
	;note G_, 0 | WARNING: Rounded down to 0
	note B_, 6
;Bar 5
	octave 3
	;note A_, 0 | WARNING: Rounded down to 0
	octave 4
	note C_, 2
	;note C_, 0 | WARNING: Rounded down to 0
	note E_, 2
	;note E_, 0 | WARNING: Rounded down to 0
	note G_, 2
	;note E_, 0 | WARNING: Rounded down to 0
	note A_, 6
	;note C_, 0 | WARNING: Rounded down to 0
	note G_, 4
;Bar 6
	octave 3
	;note A_, 0 | WARNING: Rounded down to 0
	octave 4
	note C_, 2
	;note C_, 0 | WARNING: Rounded down to 0
	note E_, 2
	;note E_, 0 | WARNING: Rounded down to 0
	note G_, 2 ; WARNING: Auto-Sync says: Rounded down!
	;note E_, 0 | WARNING: Rounded down to 0
	note A_, 6
	;note C_, 0 | WARNING: Rounded down to 0
	note G_, 4
;Bar 7
	octave 3
	;note G_, 0 | WARNING: Rounded down to 0
	note B_, 2
	;note B_, 0 | WARNING: Rounded down to 0
	octave 4
	note E_, 2
	;note E_, 0 | WARNING: Rounded down to 0
	note G_, 2
	;note E_, 0 | WARNING: Rounded down to 0
	note A_, 4
	;note E_, 0 | WARNING: Rounded down to 0
	note B_, 6
;Bar 8
	octave 3
	;note G_, 0 | WARNING: Rounded down to 0
	note B_, 2
	;note B_, 0 | WARNING: Rounded down to 0
	octave 4
	note E_, 2
	;note E_, 0 | WARNING: Rounded down to 0
	note G_, 2
	;note G_, 0 | WARNING: Rounded down to 0
	note A_, 4
	;note E_, 0 | WARNING: Rounded down to 0
	note B_, 6
;Bar 9
	volume_envelope 3, 7
	;note A_, 0 | WARNING: Rounded down to 0
	octave 5
	volume_envelope 6, 7
	note C_, 4
	octave 4
	volume_envelope 3, 7
	;note G_, 0 | WARNING: Rounded down to 0
	volume_envelope 6, 7
	note B_, 2
	volume_envelope 3, 7
	;note E_, 0 | WARNING: Rounded down to 0
	volume_envelope 6, 7
	note A_, 6
	volume_envelope 3, 7
	;note E_, 0 | WARNING: Rounded down to 0
	volume_envelope 6, 7
	note G_, 4
;Bar 10
	rest 4
	volume_envelope 3, 7
	;note D_, 0 | WARNING: Rounded down to 0
	volume_envelope 6, 7
	note F#, 4
	volume_envelope 3, 7
	;note E_, 0 | WARNING: Rounded down to 0
	volume_envelope 6, 7
	note G_, 4
	volume_envelope 3, 7
	;note F#, 0 | WARNING: Rounded down to 0
	volume_envelope 6, 7
	note A_, 4
;Bar 11
	volume_envelope 3, 7
	;note G_, 0 | WARNING: Rounded down to 0
	volume_envelope 6, 7
	note B_, 11
	rest 5
;Bar 12
	volume_envelope 3, 7
	;note E_, 0 | WARNING: Rounded down to 0
	volume_envelope 6, 7
	note G_, 13
	rest 3
;Bar 13
	volume_envelope 3, 7
	;note A_, 0 | WARNING: Rounded down to 0
	octave 5
	volume_envelope 6, 7
	note C_, 4
	octave 4
	volume_envelope 3, 7
	;note G_, 0 | WARNING: Rounded down to 0
	volume_envelope 6, 7
	note B_, 2
	volume_envelope 3, 7
	;note E_, 0 | WARNING: Rounded down to 0
	volume_envelope 6, 7
	note A_, 6
	volume_envelope 3, 7
	;note C_, 0 | WARNING: Rounded down to 0
	volume_envelope 6, 7
	note G_, 4
;Bar 14
	rest 4
	volume_envelope 3, 7
	;note D_, 0 | WARNING: Rounded down to 0
	volume_envelope 6, 7
	note F#, 4
	volume_envelope 3, 7
	;note E_, 0 | WARNING: Rounded down to 0
	volume_envelope 6, 7
	note G_, 4
	volume_envelope 3, 7
	;note F#, 0 | WARNING: Rounded down to 0
	volume_envelope 6, 7
	note A_, 4
;Bar 15
	volume_envelope 5, 7
	;note G_, 0 | WARNING: Rounded down to 0
	volume_envelope 6, 7
	note B_, 9
	rest 7
;Bar 16
	volume_envelope 3, 7
	;note B_, 0 | WARNING: Rounded down to 0
	octave 5
	volume_envelope 6, 7
	note E_, 10
	rest 6
;Bar 17
	volume_envelope 3, 7
	;note G_, 0 | WARNING: Rounded down to 0
	octave 6
	volume_envelope 6, 7
	note C_, 4
	octave 5
	volume_envelope 3, 7
	;note G_, 0 | WARNING: Rounded down to 0
	volume_envelope 6, 7
	note B_, 2
	volume_envelope 3, 7
	;note E_, 0 | WARNING: Rounded down to 0
	volume_envelope 6, 7
	note A_, 6
	volume_envelope 3, 7
	;note E_, 0 | WARNING: Rounded down to 0
	volume_envelope 6, 7
	note G_, 5
;Bar 18
	rest 3
	volume_envelope 3, 7
	;note C_, 0 | WARNING: Rounded down to 0
	volume_envelope 6, 7
	note F#, 4
	volume_envelope 3, 7
	;note E_, 0 | WARNING: Rounded down to 0
	volume_envelope 6, 7
	note G_, 4
	volume_envelope 3, 7
	;note E_, 0 | WARNING: Rounded down to 0
	volume_envelope 6, 7
	note A_, 4
;Bar 19
	volume_envelope 3, 7
	;note G_, 0 | WARNING: Rounded down to 0
	volume_envelope 6, 7
	note B_, 10
	rest 6
;Bar 20
	volume_envelope 3, 7
	;note E_, 0 | WARNING: Rounded down to 0
	volume_envelope 6, 7
	note G_, 13
	rest 3
;Bar 21
	volume_envelope 3, 7
	;note A_, 0 | WARNING: Rounded down to 0
	octave 6
	volume_envelope 6, 7
	note C_, 4
	octave 5
	volume_envelope 3, 7
	;note E_, 0 | WARNING: Rounded down to 0
	volume_envelope 6, 7
	note B_, 2
	volume_envelope 3, 7
	;note E_, 0 | WARNING: Rounded down to 0
	volume_envelope 6, 7
	note A_, 6
	volume_envelope 3, 7
	;note C_, 0 | WARNING: Rounded down to 0
	volume_envelope 6, 7
	note G_, 5
;Bar 22
	rest 3
	volume_envelope 3, 7
	;note D_, 0 | WARNING: Rounded down to 0
	volume_envelope 6, 7
	note F#, 4
	volume_envelope 3, 7
	;note E_, 0 | WARNING: Rounded down to 0
	volume_envelope 6, 7
	note G_, 4
	volume_envelope 3, 7
	;note F#, 0 | WARNING: Rounded down to 0
	volume_envelope 6, 7
	note A_, 4
;Bar 23
	volume_envelope 3, 7
	;note G_, 0 | WARNING: Rounded down to 0
	volume_envelope 6, 7
	note B_, 10
	rest 6
;Bar 24
	volume_envelope 3, 7
	;note B_, 0 | WARNING: Rounded down to 0
	octave 6
	volume_envelope 6, 7
	note E_, 16
;Bar 25
	octave 4
	volume_envelope 8, 7
	note C_, 2
	note E_, 2
	note G_, 2
	note A_, 6
	note G_, 4
;Bar 26
	note C_, 2
	note E_, 2
	note G_, 2
	note A_, 6
	note G_, 4
;Bar 27
	octave 3
	note B_, 2
	octave 4
	note E_, 2
	note G_, 2
	note A_, 4
	note B_, 6
;Bar 28
	octave 3
	note B_, 2
	octave 4
	note E_, 2
	note G_, 2
	note A_, 4
	note B_, 6
;Bar 29
	note C_, 2
	note E_, 2
	note G_, 2
	note A_, 6
	note G_, 4
;Bar 30
	note C_, 2
	note E_, 2
	note G_, 2
	note A_, 6
	note G_, 4
;Bar 31
	octave 3
	note B_, 2
	octave 4
	note E_, 2
	note G_, 2
	note A_, 4
	note B_, 6
;Bar 32
	octave 3
	note B_, 2
	octave 4
	note E_, 2
	note G_, 2
	note A_, 4
	note B_, 6
;Bar 33
	note C_, 2
	note E_, 2
	note G_, 2
	note A_, 6
	note G_, 4
;Bar 34
	note C_, 2
	note E_, 2
	note G_, 2
	note A_, 6
	note G_, 4
;Bar 35
	octave 3
	note B_, 2
	octave 4
	note E_, 2
	note G_, 2
	note A_, 4
	note B_, 6
;Bar 36
	octave 3
	note B_, 2
	octave 4
	note E_, 2
	note G_, 2
	note A_, 4
	note B_, 6
;Bar 37
	note C_, 2
	note E_, 2
	note G_, 2
	note A_, 6
	note G_, 4
;Bar 38
	note C_, 2
	note E_, 2
	note G_, 2
	note A_, 6
	note G_, 4
;Bar 39
	octave 3
	note B_, 2
	octave 4
	note E_, 2
	note G_, 2
	note A_, 4
	note B_, 6
;Bar 40
	octave 3
	note B_, 2
	octave 4
	note E_, 2
	note G_, 2
	note A_, 4
	note B_, 5
	sound_ret

; ============================================================================================================

Music_Elysyann_Ch3:
	note_type 12, 1, 0
;Bar 1
	octave 2
	volume_envelope 2, 0
	note E_, 6
	note C_, 4
	note E_, 6
;Bar 2
	note E_, 6
	note C_, 4
	note E_, 6
;Bar 3
	note G_, 6
	note E_, 2
	note B_, 8
;Bar 4
	note G_, 6
	note E_, 2
	note B_, 8
;Bar 5
	note E_, 6
	note C_, 4
	note E_, 6
;Bar 6
	note E_, 6
	note C_, 4
	note E_, 6
;Bar 7
	note G_, 6
	note E_, 2
	note B_, 8
;Bar 8
	note G_, 6
	note E_, 2
	note B_, 8
;Bar 9
	note E_, 12
	note C_, 4
;Bar 10
	note E_, 16
;Bar 11
	note G_, 12
	note E_, 4
;Bar 12
	note G_, 16
;Bar 13
	note E_, 12
	note C_, 4
;Bar 14
	note E_, 16
;Bar 15
	note G_, 12
	note E_, 4
;Bar 16
	note G_, 16
;Bar 17
	note E_, 12
	note C_, 4
;Bar 18
	note E_, 16
;Bar 19
	note E_, 12
	octave 1
	note B_, 4
;Bar 20
	octave 2
	note E_, 16
;Bar 21
	note G_, 12
	note E_, 4
;Bar 22
	note G_, 16
;Bar 23
	note B_, 12
	note G_, 4
;Bar 24
	note B_, 16
;Bar 25
	note E_, 5
	rest 1
	note C_, 4
	note E_, 5
	rest 1
;Bar 26
	note E_, 5
	rest 1
	note C_, 4
	note E_, 5
	rest 1
;Bar 27
	note G_, 5
	rest 1
	note E_, 2
	note B_, 7
	rest 1
;Bar 28
	note G_, 5
	rest 1
	note E_, 2
	note B_, 7
	rest 1
;Bar 29
	note E_, 5
	rest 1
	note C_, 4
	note E_, 5
	rest 1
;Bar 30
	note E_, 5
	rest 1
	note C_, 4
	note E_, 5
	rest 1
;Bar 31
	note G_, 5
	rest 1
	note E_, 2
	note B_, 7
	rest 1
;Bar 32
	note G_, 5
	rest 1
	note E_, 2
	note B_, 7
	rest 1
;Bar 33
	note E_, 5
	rest 1
	note C_, 4
	note E_, 5
	rest 1
;Bar 34
	note E_, 5
	rest 1
	note C_, 4
	note E_, 5
	rest 1
;Bar 35
	note E_, 12
	note C_, 4
;Bar 36
	note E_, 16
;Bar 37
	note E_, 5
	rest 1
	note C_, 4
	note E_, 5
	rest 1
;Bar 38
	note E_, 5
	rest 1
	note C_, 4
	note E_, 5
	rest 1
;Bar 39
	note G_, 5
	rest 1
	note E_, 2
	note B_, 7
	rest 1
;Bar 40
	note G_, 5
	rest 1
	note E_, 2
	note B_, 7
	sound_ret

; ============================================================================================================

Music_Elysyann_Ch4:
	toggle_noise 1
	drum_speed 12
;Bar 1
	rest 16
	rest 16
	rest 16
	rest 16
	rest 16
	rest 16
	rest 16
	rest 16
;Bar 9
	drum_note 1, 16
;Bar 10
	drum_note 1, 8
	drum_note 5, 8
;Bar 11
	;note E_, 0 | WARNING: Rounded down to 0
	drum_note 12, 16
;Bar 12
	drum_note 5, 8
	drum_note 3, 8
;Bar 13
	drum_note 1, 16
;Bar 14
	drum_note 1, 8
	drum_note 5, 8
;Bar 15
	;note E_, 0 | WARNING: Rounded down to 0
	drum_note 8, 16
;Bar 16
	drum_note 8, 8
	drum_note 7, 8
;Bar 17
	drum_note 5, 16
;Bar 18
	drum_note 5, 8
	;note G_, 0 | WARNING: Rounded down to 0
	drum_note 3, 8
;Bar 19
	;note G_, 0 | WARNING: Rounded down to 0
	drum_note 12, 16
;Bar 20
	drum_note 5, 8
	drum_note 3, 8
;Bar 21
	drum_note 8, 16
;Bar 22
	drum_note 8, 8
	drum_note 7, 8
;Bar 23
	drum_note 5, 16
;Bar 24
	drum_note 8, 8
	drum_note 3, 8
;Bar 25
	drum_note 10, 16
;Bar 26
	drum_note 10, 8
	drum_note 1, 8
;Bar 27
	;note B_, 0 | WARNING: Rounded down to 0
	drum_note 5, 16
;Bar 28
	;note B_, 0 | WARNING: Rounded down to 0
	drum_note 3, 16
;Bar 29
	;note A_, 0 | WARNING: Rounded down to 0
	drum_note 1, 16
;Bar 30
	;note E_, 0 | WARNING: Rounded down to 0
	drum_note 10, 16
;Bar 31
	;note G_, 0 | WARNING: Rounded down to 0
	drum_note 12, 16
;Bar 32
	;note B_, 0 | WARNING: Rounded down to 0
	drum_note 8, 16
;Bar 33
	;note C_, 0 | WARNING: Rounded down to 0
	drum_note 10, 16
;Bar 34
	;note A_, 0 | WARNING: Rounded down to 0
	drum_note 1, 8
	;note E_, 0 | WARNING: Rounded down to 0
	drum_note 10, 8
;Bar 35
	;note B_, 0 | WARNING: Rounded down to 0
	drum_note 5, 16
;Bar 36
	;note B_, 0 | WARNING: Rounded down to 0
	drum_note 3, 16
;Bar 37
	;note A_, 0 | WARNING: Rounded down to 0
	drum_note 1, 16
;Bar 38
	;note E_, 0 | WARNING: Rounded down to 0
	drum_note 10, 16
;Bar 39
	;note G_, 0 | WARNING: Rounded down to 0
	drum_note 12, 16
;Bar 40
	;note E_, 0 | WARNING: Rounded down to 0
	drum_note 8, 16
	sound_ret

; ============================================================================================================

