;Coverted using MIDI2ASM
;Code by TriteHexagon
;Version 5.2.0 (16-Nov-2022)
;Visit github.com/TriteHexagon/Midi2ASM-Converter for up-to-date versions.

; ============================================================================================================

Music_Ezio:
	channel_count 2
	channel 1, Music_Ezio_Ch1
	channel 2, Music_Ezio_Ch2

Music_Ezio_Ch1:
	volume 7, 7
	duty_cycle 2
	note_type 12, 10, 7
	tempo 290
.mainloop
;Bar 1
	octave 5
	volume_envelope 8, 7
	note D_, 4
	note F_, 4
	note G_, 4
	note A_, 4
;Bar 2
	note D_, 4
	note F_, 4
	note G_, 4
	note F_, 4
;Bar 3
	note D_, 4
	note F_, 4
	note G_, 4
	note A_, 4
;Bar 4
	note D_, 4
	note F_, 4
	note G_, 4
	note F_, 4
;Bar 5
	octave 4
	note D_, 4
	note F_, 4
	note G_, 4
	note A_, 4
;Bar 6
	note D_, 4
	note F_, 4
	note G_, 4
	note F_, 4
;Bar 7
	note D_, 4
	note F_, 4
	note G_, 4
	note A_, 4
;Bar 8
	note D_, 4
	note F_, 4
	note G_, 4
	note F_, 4
;Bar 9
	note D_, 4
	note F_, 4
	note G_, 4
	note A_, 4
;Bar 10
	note D_, 4
	note F_, 4
	note G_, 4
	note F_, 4
;Bar 11
	note D_, 4
	note F_, 4
	note G_, 4
	note A_, 4
;Bar 12
	note D_, 4
	note F_, 4
	note G_, 4
	note F_, 4
;Bar 13
	note D_, 4
	note F_, 4
	note G_, 4
	note A_, 4
;Bar 14
	note D_, 4
	note F_, 4
	note G_, 4
	note F_, 4
;Bar 15
	note D_, 4
	note F_, 4
	note G_, 4
	note A_, 4
;Bar 16
	note D_, 4
	note F_, 4
	note G_, 4
	note F_, 4
;Bar 17
	note D_, 4
	note F_, 4
	note G_, 4
	note A_, 4
;Bar 18
	note D_, 4
	note F_, 4
	note G_, 4
	note F_, 4
;Bar 19
	note D_, 4
	note F_, 4
	note G_, 4
	note A_, 4
;Bar 20
	note D_, 4
	note F_, 4
	note G_, 4
	note F_, 4
;Bar 21
	;note D_, 0 | WARNING: Rounded down to 0
	octave 3
	note D_, 4
	octave 4
	;note F_, 0 | WARNING: Rounded down to 0
	octave 3
	note F_, 4
	octave 4
	;note G_, 0 | WARNING: Rounded down to 0
	octave 3
	note G_, 4
	octave 4
	;note A_, 0 | WARNING: Rounded down to 0
	octave 3
	note A_, 4
;Bar 22
	octave 4
	;note D_, 0 | WARNING: Rounded down to 0
	octave 3
	note D_, 4
	;note F_, 0 | WARNING: Rounded down to 0
	octave 4
	note F_, 4
	;note G_, 0 | WARNING: Rounded down to 0
	octave 3
	note G_, 4
	octave 4
	;note F_, 0 | WARNING: Rounded down to 0
	octave 3
	note F_, 4
;Bar 23
	octave 4
	;note D_, 0 | WARNING: Rounded down to 0
	octave 3
	note D_, 4
	;note F_, 0 | WARNING: Rounded down to 0
	octave 4
	note F_, 4
	;note G_, 0 | WARNING: Rounded down to 0
	octave 3
	note G_, 4
	;note A_, 0 | WARNING: Rounded down to 0
	octave 4
	note A_, 4
;Bar 24
	;note D_, 0 | WARNING: Rounded down to 0
	octave 3
	note D_, 4
	;note F_, 0 | WARNING: Rounded down to 0
	octave 4
	note F_, 4
	;note G_, 0 | WARNING: Rounded down to 0
	octave 3
	note G_, 4
	octave 4
	;note F_, 0 | WARNING: Rounded down to 0
	octave 3
	note F_, 4
;Bar 25
	octave 4
	;note D_, 0 | WARNING: Rounded down to 0
	octave 5
	note D_, 4
	;note F_, 0 | WARNING: Rounded down to 0
	octave 4
	note F_, 4
	;note G_, 0 | WARNING: Rounded down to 0
	octave 5
	note G_, 4
	;note A_, 0 | WARNING: Rounded down to 0
	octave 4
	note A_, 4
;Bar 26
	;note D_, 0 | WARNING: Rounded down to 0
	octave 5
	note D_, 4
	;note F_, 0 | WARNING: Rounded down to 0
	octave 4
	note F_, 4
	;note G_, 0 | WARNING: Rounded down to 0
	octave 5
	note G_, 4
	;note F_, 0 | WARNING: Rounded down to 0
	octave 4
	note F_, 4
;Bar 27
	;note D_, 0 | WARNING: Rounded down to 0
	octave 5
	note D_, 4
	;note F_, 0 | WARNING: Rounded down to 0
	octave 4
	note F_, 4
	;note G_, 0 | WARNING: Rounded down to 0
	octave 5
	note G_, 4
	;note A_, 0 | WARNING: Rounded down to 0
	octave 4
	note A_, 4
;Bar 28
	;note D_, 0 | WARNING: Rounded down to 0
	octave 5
	note D_, 4
	;note F_, 0 | WARNING: Rounded down to 0
	octave 4
	note F_, 4
	;note G_, 0 | WARNING: Rounded down to 0
	octave 5
	note G_, 4
	;note F_, 0 | WARNING: Rounded down to 0
	octave 4
	note F_, 4
;Bar 29
	note D_, 4
	note F_, 4
	note G_, 4
	note A_, 4
;Bar 30
	note D_, 4
	note F_, 4
	note G_, 4
	note F_, 4
;Bar 31
	note D_, 4
	note F_, 4
	note G_, 4
	note A_, 4
;Bar 32
	note D_, 4
	note F_, 4
	note G_, 4
	note F_, 4
;Bar 33
	;note D_, 0 | WARNING: Rounded down to 0
	octave 3
	;note A_, 0 | WARNING: Rounded down to 0
	sound_loop 0, .mainloop

; ============================================================================================================

Music_Ezio_Ch2:
	duty_cycle 1
	note_type 12, 10, 7
.mainloop
;Bar 1
	octave 4
	volume_envelope 8, 7
	;note A_, 0 | WARNING: Rounded down to 0
	;note F_, 0 | WARNING: Rounded down to 0
	note D_, 16
;Bar 2
	;note G_, 0 | WARNING: Rounded down to 0
	;note E_, 0 | WARNING: Rounded down to 0
	note C_, 16
;Bar 3
	;note F_, 0 | WARNING: Rounded down to 0
	;note D_, 0 | WARNING: Rounded down to 0
	octave 3
	note A#, 16
;Bar 4
	octave 4
	;note G_, 0 | WARNING: Rounded down to 0
	;note E_, 0 | WARNING: Rounded down to 0
	note C_, 16
;Bar 5
	octave 3
	;note A_, 0 | WARNING: Rounded down to 0
	;note F_, 0 | WARNING: Rounded down to 0
	note D_, 16
;Bar 6
	;note G_, 0 | WARNING: Rounded down to 0
	;note E_, 0 | WARNING: Rounded down to 0
	note C_, 16
;Bar 7
	;note F_, 0 | WARNING: Rounded down to 0
	;note D_, 0 | WARNING: Rounded down to 0
	octave 2
	note A#, 16
;Bar 8
	octave 3
	;note G_, 0 | WARNING: Rounded down to 0
	;note E_, 0 | WARNING: Rounded down to 0
	note C_, 16
;Bar 9
	octave 1
	volume_envelope 5, 7
	note D_, 2
	octave 2
	note D_, 2
	octave 1
	note D_, 2
	octave 2
	note D_, 2
	octave 1
	note D_, 2
	octave 2
	note D_, 2
	octave 1
	note D_, 2
	octave 2
	note D_, 2
;Bar 10
	octave 1
	note C_, 2
	octave 2
	note C_, 2
	octave 1
	note C_, 2
	octave 2
	note C_, 2
	octave 1
	note C_, 2
	octave 2
	note C_, 2
	octave 1
	note C_, 2
	octave 2
	note C_, 2
;Bar 11
	octave 1
	note A#, 2
	octave 1
	note A#, 2
	octave 1
	note A#, 2
	octave 1
	note A#, 2
	octave 1
	note A#, 2
	octave 1
	note A#, 2
	octave 1
	note A#, 2
	octave 1
	note A#, 2
;Bar 12
	note C_, 2
	octave 2
	note C_, 2
	octave 1
	note C_, 2
	octave 2
	note C_, 2
	octave 1
	note C_, 2
	octave 2
	note C_, 2
	octave 1
	note C_, 2
	octave 2
	note C_, 2
;Bar 13
	octave 1
	note D_, 1
	octave 2
	note D_, 1
	octave 1
	note D_, 1
	octave 2
	note D_, 1
	octave 1
	note D_, 1
	octave 2
	note D_, 1
	octave 1
	note D_, 1
	octave 2
	note D_, 1
	octave 1
	note D_, 1
	octave 2
	note D_, 1
	octave 1
	note D_, 1
	octave 2
	note D_, 1
	octave 1
	note D_, 1
	octave 2
	note D_, 1
	octave 1
	note D_, 1
	octave 2
	note D_, 1
;Bar 14
	octave 1
	note C_, 1
	octave 2
	note C_, 1
	octave 1
	note C_, 1
	octave 2
	note C_, 1
	octave 1
	note C_, 1
	octave 2
	note C_, 1
	octave 1
	note C_, 1
	octave 2
	note C_, 1
	octave 1
	note C_, 1
	octave 2
	note C_, 1
	octave 1
	note C_, 1
	octave 2
	note C_, 1
	octave 1
	note C_, 1
	octave 2
	note C_, 1
	octave 1
	note C_, 1
	octave 2
	note C_, 1
;Bar 15
	octave 1
	note A#, 1
	octave 1
	note A#, 1
	octave 1
	note A#, 1
	octave 1
	note A#, 1
	octave 1
	note A#, 1
	octave 1
	note A#, 1
	octave 1
	note A#, 1
	octave 1
	note A#, 1
	octave 1
	note A#, 1
	octave 1
	note A#, 1
	octave 1
	note A#, 1
	octave 1
	note A#, 1
	octave 1
	note A#, 1
	octave 1
	note A#, 1
	octave 1
	note A#, 1
	octave 1
	note A#, 1
;Bar 16
	note C_, 1
	octave 2
	note C_, 1
	octave 1
	note C_, 1
	octave 2
	note C_, 1
	octave 1
	note C_, 1
	octave 2
	note C_, 1
	octave 1
	note C_, 1
	octave 2
	note C_, 1
	octave 1
	note C_, 1
	octave 2
	note C_, 1
	octave 1
	note C_, 1
	octave 2
	note C_, 1
	octave 1
	note C_, 1
	octave 2
	note C_, 1
	octave 1
	note C_, 1
	octave 2
	note C_, 1
;Bar 17
	note D_, 1
	note F_, 1
	note A_, 1
	octave 3
	note D_, 1
	octave 2
	note A_, 1
	note F_, 1
	note D_, 1
	note F_, 1
	note A_, 1
	octave 3
	note D_, 1
	octave 2
	note A_, 1
	note F_, 1
	note D_, 1
	note F_, 1
	note A_, 1
	octave 3
	note D_, 1
;Bar 18
	octave 2
	note C_, 1
	note E_, 1
	note G_, 1
	octave 3
	note C_, 1
	octave 2
	note G_, 1
	note E_, 1
	note C_, 1
	note E_, 1
	note G_, 1
	octave 3
	note C_, 1
	octave 2
	note G_, 1
	note E_, 1
	note C_, 1
	note E_, 1
	note G_, 1
	octave 3
	note C_, 1
;Bar 19
	octave 1
	note A#, 1
	octave 2
	note D_, 1
	note G_, 1
	note A#, 1
	note G_, 1
	note D_, 1
	octave 1
	note A#, 1
	octave 2
	note D_, 1
	note G_, 1
	note A#, 1
	note G_, 1
	note D_, 1
	octave 1
	note A#, 1
	octave 2
	note D_, 1
	note G_, 1
	note A#, 1
;Bar 20
	note C_, 1
	note E_, 1
	note G_, 1
	octave 3
	note C_, 1
	octave 2
	note G_, 1
	note E_, 1
	note C_, 1
	note E_, 1
	note G_, 1
	octave 3
	note C_, 1
	octave 2
	note G_, 1
	note E_, 1
	note C_, 1
	note E_, 1
	note G_, 1
	octave 3
	note C_, 1
;Bar 21
	octave 2
	note D_, 1
	note F_, 1
	note A_, 1
	octave 3
	note D_, 1
	octave 2
	note A_, 1
	note F_, 1
	note D_, 1
	note F_, 1
	note A_, 1
	octave 3
	note D_, 1
	octave 2
	note A_, 1
	note F_, 1
	note D_, 1
	note F_, 1
	note A_, 1
	octave 3
	note D_, 1
;Bar 22
	octave 2
	note C_, 1
	note E_, 1
	note G_, 1
	octave 3
	note C_, 1
	octave 2
	note G_, 1
	note E_, 1
	note C_, 1
	note E_, 1
	note G_, 1
	octave 3
	note C_, 1
	octave 2
	note G_, 1
	note E_, 1
	note C_, 1
	note E_, 1
	note G_, 1
	octave 3
	note C_, 1
;Bar 23
	octave 1
	note A#, 1
	octave 2
	note D_, 1
	note G_, 1
	note A#, 1
	note G_, 1
	note D_, 1
	octave 1
	note A#, 1
	octave 2
	note D_, 1
	note G_, 1
	note A#, 1
	note G_, 1
	note D_, 1
	octave 1
	note A#, 1
	octave 2
	note D_, 1
	note G_, 1
	note A#, 1
;Bar 24
	note C_, 1
	note E_, 1
	note G_, 1
	octave 3
	note C_, 1
	octave 2
	note G_, 1
	note E_, 1
	note C_, 1
	note E_, 1
	note G_, 1
	octave 3
	note C_, 1
	octave 2
	note G_, 1
	note E_, 1
	note C_, 1
	note E_, 1
	note G_, 1
	octave 3
	note C_, 1
;Bar 25
	octave 2
	note D_, 1
	note G_, 1
	note A_, 1
	octave 3
	note D_, 1
	octave 2
	note A_, 1
	note G_, 1
	note D_, 1
	note G_, 1
	note A_, 1
	octave 3
	note D_, 1
	octave 2
	note A_, 1
	note G_, 1
	note D_, 1
	note G_, 1
	note A_, 1
	octave 3
	note D_, 1
;Bar 26
	octave 2
	note C_, 1
	note E_, 1
	note G_, 1
	octave 3
	note C_, 1
	octave 2
	note G_, 1
	note E_, 1
	note C_, 1
	note E_, 1
	note G_, 1
	octave 3
	note C_, 1
	octave 2
	note G_, 1
	note E_, 1
	note C_, 1
	note E_, 1
	note G_, 1
	octave 3
	note C_, 1
;Bar 27
	octave 1
	note A#, 1
	octave 2
	note D_, 1
	note F_, 1
	note A#, 1
	note F_, 1
	note D_, 1
	octave 1
	note A#, 1
	octave 2
	note D_, 1
	note F_, 1
	note A#, 1
	note F_, 1
	note D_, 1
	octave 1
	note A#, 1
	octave 2
	note D_, 1
	note F_, 1
	note A#, 1
;Bar 28
	note C_, 1
	note E_, 1
	note G_, 1
	octave 3
	note C_, 1
	octave 2
	note G_, 1
	note E_, 1
	note C_, 1
	note E_, 1
	note G_, 1
	octave 3
	note C_, 1
	octave 2
	note G_, 1
	note E_, 1
	note C_, 1
	note E_, 1
	note G_, 1
	octave 3
	note C_, 1
;Bar 29
	volume_envelope 8, 7
	;note D_, 0 | WARNING: Rounded down to 0
	octave 2
	note D_, 16
;Bar 30
	octave 3
	;note C_, 0 | WARNING: Rounded down to 0
	octave 2
	note C_, 16
;Bar 31
	;note A#, 0 | WARNING: Rounded down to 0
	octave 1
	note A#, 16
;Bar 32
	octave 3
	;note C_, 0 | WARNING: Rounded down to 0
	octave 1
	note A_, 16
;Bar 33
	octave 3
	;note D_, 0 | WARNING: Rounded down to 0
	octave 2
	;note A_, 0 | WARNING: Rounded down to 0
	sound_loop 0, .mainloop

; ============================================================================================================

