;Coverted using MIDI2ASM
;Code by TriteHexagon
;Version 5.2.0 (16-Nov-2022)
;Visit github.com/TriteHexagon/Midi2ASM-Converter for up-to-date versions.

; ============================================================================================================

Music_Placeholder:
	channel_count 2
	channel 1, Music_Placeholder_Ch1
	channel 2, Music_Placeholder_Ch2
	channel 3, Music_Placeholder_Ch3
	channel 4, Music_Placeholder_Ch4

Music_Placeholder_Ch1:
	volume 7, 7
	duty_cycle 1
	note_type 12, 10, 7
	tempo 127
;Bar 5
	octave 2
	volume_envelope 11, 7
	note A_, 2
	note A_, 2
	octave 3
	volume_envelope 10, 7
	note D_, 2
	octave 2
	note A_, 2
	rest 2
	note A_, 2
	rest 2
	note A_, 2
;Bar 6
	octave 3
	note C_, 2
	octave 2
	note A_, 2
	rest 2
	note A_, 2
	rest 2
	note A_, 2
	note G_, 2
	octave 3
	volume_envelope 11, 7
	note G_, 1
	note A_, 1
;Bar 7
	octave 2
	;note A_, 0 | WARNING: Rounded down to 0
	octave 3
	note A_, 2
	octave 2
	;note A_, 0 | WARNING: Rounded down to 0
	octave 3
	note A_, 2
	;note D_, 0 | WARNING: Rounded down to 0
	octave 4
	note D_, 2
	octave 2
	;note A_, 0 | WARNING: Rounded down to 0
	octave 3
	note A_, 2
	;note C_, 0 | WARNING: Rounded down to 0
	octave 4
	note C_, 6
	octave 3
	;note A_, 0 | WARNING: Rounded down to 0
	octave 4
	note A_, 2
;Bar 8
	rest 2
	octave 2
	;note A_, 0 | WARNING: Rounded down to 0
	octave 3
	note A_, 2
	;note D_, 0 | WARNING: Rounded down to 0
	octave 4
	note D_, 4
	octave 3
	;note C_, 0 | WARNING: Rounded down to 0
	octave 4
	note C_, 4
	octave 2
	;note A_, 0 | WARNING: Rounded down to 0
	octave 3
	note A_, 2
	;note A_, 0 | WARNING: Rounded down to 0
	octave 4
	note A_, 2
;Bar 9
	rest 2
	octave 2
	;note A_, 0 | WARNING: Rounded down to 0
	octave 3
	note A_, 2
	;note D_, 0 | WARNING: Rounded down to 0
	octave 4
	note D_, 4
	octave 3
	;note C_, 0 | WARNING: Rounded down to 0
	octave 4
	note C_, 4
	octave 2
	;note A_, 0 | WARNING: Rounded down to 0
	octave 3
	note A_, 2
	;note A_, 0 | WARNING: Rounded down to 0
	octave 4
	note A_, 2
;Bar 10
	rest 2
	octave 2
	;note A_, 0 | WARNING: Rounded down to 0
	octave 3
	note A_, 2
	;note D_, 0 | WARNING: Rounded down to 0
	octave 4
	note D_, 4
	octave 3
	;note C_, 0 | WARNING: Rounded down to 0
	octave 4
	note C_, 4
	octave 2
	;note A_, 0 | WARNING: Rounded down to 0
	octave 3
	note A_, 2
	;note A_, 0 | WARNING: Rounded down to 0
	octave 4
	note A_, 2
;Bar 11
	rest 2
	octave 2
	;note A_, 0 | WARNING: Rounded down to 0
	octave 3
	note A_, 2
	;note D_, 0 | WARNING: Rounded down to 0
	octave 4
	note D_, 4
	octave 3
	;note C_, 0 | WARNING: Rounded down to 0
	octave 4
	note C_, 4
	octave 2
	;note A_, 0 | WARNING: Rounded down to 0
	octave 3
	note A_, 2
	;note A_, 0 | WARNING: Rounded down to 0
	octave 4
	note A_, 2
;Bar 12
	rest 2
	octave 2
	;note A_, 0 | WARNING: Rounded down to 0
	octave 3
	note A_, 2
	;note D_, 0 | WARNING: Rounded down to 0
	octave 4
	note D_, 4
	octave 3
	;note C_, 0 | WARNING: Rounded down to 0
	octave 4
	note C_, 4
	octave 2
	;note A_, 0 | WARNING: Rounded down to 0
	octave 3
	note A_, 2
	;note A_, 0 | WARNING: Rounded down to 0
	octave 4
	note A_, 2
;Bar 13
	rest 2
	octave 2
	;note A_, 0 | WARNING: Rounded down to 0
	octave 3
	note A_, 2
	;note D_, 0 | WARNING: Rounded down to 0
	octave 4
	note D_, 4
	octave 3
	;note C_, 0 | WARNING: Rounded down to 0
	octave 4
	note C_, 4
	octave 2
	;note A_, 0 | WARNING: Rounded down to 0
	octave 3
	note A_, 2
	;note A_, 0 | WARNING: Rounded down to 0
	octave 4
	note A_, 2
;Bar 14
	rest 2
	octave 2
	;note A_, 0 | WARNING: Rounded down to 0
	octave 3
	note A_, 2
	;note D_, 0 | WARNING: Rounded down to 0
	octave 4
	note D_, 4
	octave 3
	;note C_, 0 | WARNING: Rounded down to 0
	octave 4
	note C_, 4
	octave 2
	;note A_, 0 | WARNING: Rounded down to 0
	octave 3
	note A_, 2
	;note A_, 0 | WARNING: Rounded down to 0
	octave 4
	note A_, 2
;Bar 15
	rest 2
	octave 2
	;note A_, 0 | WARNING: Rounded down to 0
	octave 3
	note A_, 2
	;note D_, 0 | WARNING: Rounded down to 0
	octave 4
	note D_, 4
	octave 3
	;note C_, 0 | WARNING: Rounded down to 0
	octave 4
	note C_, 4
	octave 2
	;note A_, 0 | WARNING: Rounded down to 0
	octave 3
	note A_, 2
	;note A_, 0 | WARNING: Rounded down to 0
	octave 4
	note A_, 2
;Bar 16
	rest 2
	octave 2
	;note A_, 0 | WARNING: Rounded down to 0
	octave 3
	note A_, 2
	;note D_, 0 | WARNING: Rounded down to 0
	octave 4
	note D_, 4
	octave 3
	;note C_, 0 | WARNING: Rounded down to 0
	octave 4
	note C_, 4
	octave 2
	;note A_, 0 | WARNING: Rounded down to 0
	octave 3
	note A_, 2
	;note A_, 0 | WARNING: Rounded down to 0
	octave 4
	note A_, 2
;Bar 17
	rest 2
	octave 2
	;note A_, 0 | WARNING: Rounded down to 0
	octave 3
	note A_, 2
	;note D_, 0 | WARNING: Rounded down to 0
	octave 4
	note D_, 4
	octave 3
	;note C_, 0 | WARNING: Rounded down to 0
	octave 4
	note C_, 4
	octave 2
	;note A_, 0 | WARNING: Rounded down to 0
	octave 3
	note A_, 2
	;note A_, 0 | WARNING: Rounded down to 0
	octave 4
	note A_, 2
;Bar 18
	rest 2
	octave 2
	;note A_, 0 | WARNING: Rounded down to 0
	octave 3
	note A_, 2
	;note D_, 0 | WARNING: Rounded down to 0
	octave 4
	note D_, 4
	octave 3
	;note C_, 0 | WARNING: Rounded down to 0
	octave 4
	note C_, 4
	octave 2
	;note A_, 0 | WARNING: Rounded down to 0
	octave 3
	note A_, 2
	;note A_, 0 | WARNING: Rounded down to 0
	octave 4
	note A_, 2
;Bar 19
	rest 2
	octave 2
	;note A_, 0 | WARNING: Rounded down to 0
	octave 3
	note A_, 2
	;note D_, 0 | WARNING: Rounded down to 0
	octave 4
	note D_, 4
	octave 3
	;note C_, 0 | WARNING: Rounded down to 0
	octave 4
	note C_, 4
	octave 2
	;note A_, 0 | WARNING: Rounded down to 0
	octave 3
	note A_, 2
	;note A_, 0 | WARNING: Rounded down to 0
	octave 4
	note A_, 2
;Bar 20
	rest 2
	octave 2
	;note A_, 0 | WARNING: Rounded down to 0
	octave 3
	note A_, 2
	;note D_, 0 | WARNING: Rounded down to 0
	octave 4
	note D_, 4
	octave 3
	;note C_, 0 | WARNING: Rounded down to 0
	octave 4
	note C_, 4
	octave 2
	;note A_, 0 | WARNING: Rounded down to 0
	octave 3
	note A_, 2
	;note A_, 0 | WARNING: Rounded down to 0
	octave 4
	note A_, 2
;Bar 21
	rest 2
	octave 2
	;note A_, 0 | WARNING: Rounded down to 0
	octave 3
	note A_, 2
	;note D_, 0 | WARNING: Rounded down to 0
	octave 4
	note D_, 4
	octave 3
	;note C_, 0 | WARNING: Rounded down to 0
	octave 4
	note C_, 4
	octave 2
	;note A_, 0 | WARNING: Rounded down to 0
	octave 3
	note A_, 2
	;note A_, 0 | WARNING: Rounded down to 0
	octave 4
	note A_, 2
;Bar 22
	rest 2
	octave 2
	;note A_, 0 | WARNING: Rounded down to 0
	octave 3
	note A_, 2
	;note D_, 0 | WARNING: Rounded down to 0
	octave 4
	note D_, 4
	octave 3
	;note C_, 0 | WARNING: Rounded down to 0
	octave 4
	note C_, 4
	octave 2
	;note A_, 0 | WARNING: Rounded down to 0
	octave 3
	note A_, 2
	;note A_, 0 | WARNING: Rounded down to 0
	octave 4
	note A_, 2
;Bar 23
	rest 2
	octave 2
	;note A_, 0 | WARNING: Rounded down to 0
	octave 3
	note A_, 2
	;note D_, 0 | WARNING: Rounded down to 0
	octave 4
	note D_, 4
	octave 3
	;note C_, 0 | WARNING: Rounded down to 0
	octave 4
	note C_, 4
	octave 2
	;note A_, 0 | WARNING: Rounded down to 0
	octave 3
	note A_, 2
	;note A_, 0 | WARNING: Rounded down to 0
	octave 4
	note A_, 2
;Bar 24
	rest 2
	octave 2
	;note A_, 0 | WARNING: Rounded down to 0
	octave 3
	note A_, 2
	;note D_, 0 | WARNING: Rounded down to 0
	octave 4
	note D_, 4
	octave 3
	;note C_, 0 | WARNING: Rounded down to 0
	octave 4
	note C_, 4
	octave 2
	;note A_, 0 | WARNING: Rounded down to 0
	octave 3
	note A_, 2
	;note A_, 0 | WARNING: Rounded down to 0
	octave 4
	note A_, 2
;Bar 25
	rest 2
	octave 2
	;note A_, 0 | WARNING: Rounded down to 0
	octave 3
	note A_, 2
	;note D_, 0 | WARNING: Rounded down to 0
	octave 4
	note D_, 4
	octave 3
	;note C_, 0 | WARNING: Rounded down to 0
	octave 4
	note C_, 4
	octave 2
	;note A_, 0 | WARNING: Rounded down to 0
	octave 3
	note A_, 2
	;note A_, 0 | WARNING: Rounded down to 0
	octave 4
	note A_, 2
;Bar 26
	rest 2
	octave 2
	;note A_, 0 | WARNING: Rounded down to 0
	octave 3
	note A_, 2
	;note D_, 0 | WARNING: Rounded down to 0
	octave 4
	note D_, 4
	octave 3
	;note C_, 0 | WARNING: Rounded down to 0
	octave 4
	note C_, 4
	octave 2
	;note A_, 0 | WARNING: Rounded down to 0
	octave 3
	note A_, 2
	;note A_, 0 | WARNING: Rounded down to 0
	octave 4
	note A_, 2
;Bar 27
	rest 2
	octave 2
	;note A_, 0 | WARNING: Rounded down to 0
	octave 3
	note A_, 2
	;note D_, 0 | WARNING: Rounded down to 0
	octave 4
	note D_, 4
	octave 3
	;note C_, 0 | WARNING: Rounded down to 0
	octave 4
	note C_, 4
	octave 2
	;note A_, 0 | WARNING: Rounded down to 0
	octave 3
	note A_, 2
	;note A_, 0 | WARNING: Rounded down to 0
	octave 4
	note A_, 2
;Bar 28
	rest 2
	octave 2
	;note A_, 0 | WARNING: Rounded down to 0
	octave 3
	note A_, 2
	;note D_, 0 | WARNING: Rounded down to 0
	octave 4
	note D_, 4
	octave 3
	;note C_, 0 | WARNING: Rounded down to 0
	octave 4
	note C_, 4
	octave 2
	;note A_, 0 | WARNING: Rounded down to 0
	octave 3
	note A_, 2
	;note A_, 0 | WARNING: Rounded down to 0
	octave 4
	note A_, 2
;Bar 29
	rest 2
	octave 2
	;note A_, 0 | WARNING: Rounded down to 0
	octave 3
	note A_, 2
	;note D_, 0 | WARNING: Rounded down to 0
	octave 4
	note D_, 4
	octave 3
	;note C_, 0 | WARNING: Rounded down to 0
	octave 4
	note C_, 4
	octave 2
	;note A_, 0 | WARNING: Rounded down to 0
	octave 3
	note A_, 2
	;note A_, 0 | WARNING: Rounded down to 0
	octave 4
	note A_, 2
;Bar 30
	rest 2
	octave 2
	;note A_, 0 | WARNING: Rounded down to 0
	octave 3
	note A_, 2
	;note D_, 0 | WARNING: Rounded down to 0
	octave 4
	note D_, 4
	octave 3
	;note C_, 0 | WARNING: Rounded down to 0
	octave 4
	note C_, 4
	octave 2
	;note A_, 0 | WARNING: Rounded down to 0
	octave 3
	note A_, 2
	;note A_, 0 | WARNING: Rounded down to 0
	octave 4
	note A_, 2
;Bar 31
	octave 2
	;note A_, 0 | WARNING: Rounded down to 0
	octave 3
	note A_, 15
	sound_ret

; ============================================================================================================

Music_Placeholder_Ch2:
	duty_cycle 0
	note_type 12, 10, 7
;Bar 1
	octave 1
	volume_envelope 11, 7
	note A_, 2
	note A_, 2
	octave 2
	note D_, 2
	octave 1
	note A_, 2
	rest 2
	note A_, 2
	rest 2
	note A_, 2
;Bar 2
	octave 2
	note C_, 2
	octave 1
	note A_, 2
	rest 2
	note A_, 2
	rest 2
	note A_, 2
	note G_, 2
	note A_, 2
;Bar 3
	octave 1
	volume_envelope 15, 7
	;note A_, 0 | WARNING: Rounded down to 0
	octave 1
	note A_, 2
	octave 1
	;note A_, 0 | WARNING: Rounded down to 0
	octave 1
	note A_, 2
	octave 2
	volume_envelope 11, 7
	note D_, 2
	octave 1
	note A_, 2
	rest 2
	note A_, 2
	rest 2
	note A_, 2
;Bar 4
	octave 2
	note C_, 2
	octave 1
	note A_, 2
	rest 2
	note A_, 2
	rest 2
	note A_, 2
	note G_, 2
	note A_, 2
;Bar 5
	octave 1
	volume_envelope 15, 7
	;note A_, 0 | WARNING: Rounded down to 0
	octave 1
	note A_, 2
	octave 1
	;note A_, 0 | WARNING: Rounded down to 0
	octave 1
	note A_, 2
	octave 2
	volume_envelope 13, 7
	note D_, 2
	octave 1
	note A_, 2
	rest 2
	note A_, 2
	rest 2
	note A_, 2
;Bar 6
	octave 2
	note C_, 2
	octave 1
	note A_, 2
	rest 2
	note A_, 2
	rest 2
	note A_, 2
	note G_, 2
	note A_, 2
;Bar 7
	volume_envelope 15, 7
	note A_, 2
	note A_, 2
	note A_, 2
	note A_, 2
	note A_, 8
;Bar 8
	octave 1
	;note A_, 0 | WARNING: Rounded down to 0
	octave 1
	note A_, 2
	octave 1
	;note A_, 0 | WARNING: Rounded down to 0
	octave 1
	note A_, 2
	octave 1
	;note A_, 0 | WARNING: Rounded down to 0
	octave 1
	note A_, 2
	octave 1
	;note A_, 0 | WARNING: Rounded down to 0
	octave 1
	note A_, 2
	octave 1
	;note A_, 0 | WARNING: Rounded down to 0
	octave 1
	note A_, 2
	octave 1
	;note A_, 0 | WARNING: Rounded down to 0
	octave 1
	note A_, 2
	octave 1
	;note G_, 0 | WARNING: Rounded down to 0
	octave 1
	note G_, 2
	octave 1
	;note A_, 0 | WARNING: Rounded down to 0
	octave 1
	note A_, 2
;Bar 9
	octave 1
	;note A_, 0 | WARNING: Rounded down to 0
	octave 1
	note A_, 2
	octave 1
	;note A_, 0 | WARNING: Rounded down to 0
	octave 1
	note A_, 2
	octave 1
	;note A_, 0 | WARNING: Rounded down to 0
	octave 1
	note A_, 2
	octave 1
	;note A_, 0 | WARNING: Rounded down to 0
	octave 1
	note A_, 2
	octave 1
	;note A_, 0 | WARNING: Rounded down to 0
	octave 1
	note A_, 2
	octave 1
	;note A_, 0 | WARNING: Rounded down to 0
	octave 1
	note A_, 2
	octave 1
	;note G_, 0 | WARNING: Rounded down to 0
	octave 1
	note G_, 2
	octave 1
	;note A_, 0 | WARNING: Rounded down to 0
	octave 1
	note A_, 2
;Bar 10
	octave 1
	;note A_, 0 | WARNING: Rounded down to 0
	octave 1
	note A_, 2
	octave 1
	;note A_, 0 | WARNING: Rounded down to 0
	octave 1
	note A_, 2
	octave 1
	;note A_, 0 | WARNING: Rounded down to 0
	octave 1
	note A_, 2
	octave 1
	;note A_, 0 | WARNING: Rounded down to 0
	octave 1
	note A_, 2
	octave 1
	;note A_, 0 | WARNING: Rounded down to 0
	octave 1
	note A_, 2
	octave 1
	;note A_, 0 | WARNING: Rounded down to 0
	octave 1
	note A_, 2
	octave 1
	;note G_, 0 | WARNING: Rounded down to 0
	octave 1
	note G_, 2
	octave 1
	;note A_, 0 | WARNING: Rounded down to 0
	octave 1
	note A_, 2
;Bar 11
	octave 1
	;note A_, 0 | WARNING: Rounded down to 0
	octave 1
	note A_, 2
	octave 1
	;note A_, 0 | WARNING: Rounded down to 0
	octave 1
	note A_, 2
	octave 1
	;note A_, 0 | WARNING: Rounded down to 0
	octave 1
	note A_, 2
	octave 1
	;note A_, 0 | WARNING: Rounded down to 0
	octave 1
	note A_, 2
	octave 1
	;note A_, 0 | WARNING: Rounded down to 0
	octave 1
	note A_, 2
	octave 1
	;note A_, 0 | WARNING: Rounded down to 0
	octave 1
	note A_, 2
	octave 1
	;note G_, 0 | WARNING: Rounded down to 0
	octave 1
	note G_, 2
	octave 1
	;note A_, 0 | WARNING: Rounded down to 0
	octave 1
	note A_, 2
;Bar 12
	octave 1
	;note A_, 0 | WARNING: Rounded down to 0
	octave 1
	note A_, 2
	octave 1
	;note A_, 0 | WARNING: Rounded down to 0
	octave 1
	note A_, 2
	octave 1
	;note A_, 0 | WARNING: Rounded down to 0
	octave 1
	note A_, 2
	octave 1
	;note A_, 0 | WARNING: Rounded down to 0
	octave 1
	note A_, 2
	octave 1
	;note A_, 0 | WARNING: Rounded down to 0
	octave 1
	note A_, 2
	octave 1
	;note A_, 0 | WARNING: Rounded down to 0
	octave 1
	note A_, 2
	octave 1
	;note G_, 0 | WARNING: Rounded down to 0
	octave 1
	note G_, 2
	octave 1
	;note A_, 0 | WARNING: Rounded down to 0
	octave 1
	note A_, 2
;Bar 13
	octave 1
	;note A_, 0 | WARNING: Rounded down to 0
	octave 1
	note A_, 2
	octave 1
	;note A_, 0 | WARNING: Rounded down to 0
	octave 1
	note A_, 2
	octave 1
	;note A_, 0 | WARNING: Rounded down to 0
	octave 1
	note A_, 2
	octave 1
	;note A_, 0 | WARNING: Rounded down to 0
	octave 1
	note A_, 2
	octave 1
	;note A_, 0 | WARNING: Rounded down to 0
	octave 1
	note A_, 2
	octave 1
	;note A_, 0 | WARNING: Rounded down to 0
	octave 1
	note A_, 2
	octave 1
	;note G_, 0 | WARNING: Rounded down to 0
	octave 1
	note G_, 2
	octave 1
	;note A_, 0 | WARNING: Rounded down to 0
	octave 1
	note A_, 2
;Bar 14
	octave 1
	;note A_, 0 | WARNING: Rounded down to 0
	octave 1
	note A_, 2
	octave 1
	;note A_, 0 | WARNING: Rounded down to 0
	octave 1
	note A_, 2
	octave 1
	;note A_, 0 | WARNING: Rounded down to 0
	octave 1
	note A_, 2
	octave 1
	;note A_, 0 | WARNING: Rounded down to 0
	octave 1
	note A_, 2
	octave 1
	;note A_, 0 | WARNING: Rounded down to 0
	octave 1
	note A_, 2
	octave 1
	;note A_, 0 | WARNING: Rounded down to 0
	octave 1
	note A_, 2
	octave 1
	;note G_, 0 | WARNING: Rounded down to 0
	octave 1
	note G_, 2
	octave 1
	;note A_, 0 | WARNING: Rounded down to 0
	octave 1
	note A_, 2
;Bar 15
	;note D_, 0 | WARNING: Rounded down to 0
	octave 2
	note D_, 2
	octave 1
	;note D_, 0 | WARNING: Rounded down to 0
	octave 2
	note D_, 2
	octave 1
	;note D_, 0 | WARNING: Rounded down to 0
	octave 2
	note D_, 2
	octave 1
	;note D_, 0 | WARNING: Rounded down to 0
	octave 2
	note D_, 2
	octave 1
	;note D_, 0 | WARNING: Rounded down to 0
	octave 2
	note D_, 2
	octave 1
	;note D_, 0 | WARNING: Rounded down to 0
	octave 2
	note D_, 2
	octave 1
	;note C_, 0 | WARNING: Rounded down to 0
	octave 2
	note C_, 2
	octave 1
	;note D_, 0 | WARNING: Rounded down to 0
	octave 2
	note D_, 2
;Bar 16
	octave 1
	;note D_, 0 | WARNING: Rounded down to 0
	octave 2
	note D_, 2
	octave 1
	;note D_, 0 | WARNING: Rounded down to 0
	octave 2
	note D_, 2
	octave 1
	;note D_, 0 | WARNING: Rounded down to 0
	octave 2
	note D_, 2
	octave 1
	;note D_, 0 | WARNING: Rounded down to 0
	octave 2
	note D_, 2
	octave 1
	;note D_, 0 | WARNING: Rounded down to 0
	octave 2
	note D_, 2
	octave 1
	;note D_, 0 | WARNING: Rounded down to 0
	octave 2
	note D_, 2
	octave 1
	;note C_, 0 | WARNING: Rounded down to 0
	octave 2
	note C_, 2
	octave 1
	;note D_, 0 | WARNING: Rounded down to 0
	octave 2
	note D_, 2
;Bar 17
	octave 1
	;note D_, 0 | WARNING: Rounded down to 0
	octave 2
	note D_, 2
	octave 1
	;note D_, 0 | WARNING: Rounded down to 0
	octave 2
	note D_, 2
	octave 1
	;note D_, 0 | WARNING: Rounded down to 0
	octave 2
	note D_, 2
	octave 1
	;note D_, 0 | WARNING: Rounded down to 0
	octave 2
	note D_, 2
	octave 1
	;note D_, 0 | WARNING: Rounded down to 0
	octave 2
	note D_, 2
	octave 1
	;note D_, 0 | WARNING: Rounded down to 0
	octave 2
	note D_, 2
	octave 1
	;note C_, 0 | WARNING: Rounded down to 0
	octave 2
	note C_, 2
	octave 1
	;note D_, 0 | WARNING: Rounded down to 0
	octave 2
	note D_, 2
;Bar 18
	octave 1
	;note C_, 0 | WARNING: Rounded down to 0
	octave 2
	note C_, 2
	octave 1
	;note C_, 0 | WARNING: Rounded down to 0
	octave 2
	note C_, 2
	octave 1
	;note C_, 0 | WARNING: Rounded down to 0
	octave 2
	note C_, 2
	octave 1
	;note C_, 0 | WARNING: Rounded down to 0
	octave 2
	note C_, 2
	octave 1
	;note C_, 0 | WARNING: Rounded down to 0
	octave 2
	note C_, 2
	octave 1
	;note C_, 0 | WARNING: Rounded down to 0
	octave 2
	note C_, 2
	octave 1
	;note A#, 0 | WARNING: Rounded down to 0
	octave 1
	note A#, 2
	;note C_, 0 | WARNING: Rounded down to 0
	octave 2
	note C_, 2
;Bar 19
	octave 1
	;note C_, 0 | WARNING: Rounded down to 0
	octave 2
	note C_, 2
	octave 1
	;note C_, 0 | WARNING: Rounded down to 0
	octave 2
	note C_, 2
	octave 1
	;note C_, 0 | WARNING: Rounded down to 0
	octave 2
	note C_, 2
	octave 1
	;note C_, 0 | WARNING: Rounded down to 0
	octave 2
	note C_, 2
	octave 1
	;note C_, 0 | WARNING: Rounded down to 0
	octave 2
	note C_, 2
	octave 1
	;note C_, 0 | WARNING: Rounded down to 0
	octave 2
	note C_, 2
	octave 1
	;note A#, 0 | WARNING: Rounded down to 0
	octave 1
	note A#, 2
	;note C_, 0 | WARNING: Rounded down to 0
	octave 2
	note C_, 2
;Bar 20
	octave 1
	;note A_, 0 | WARNING: Rounded down to 0
	octave 1
	note A_, 2
	octave 1
	;note A_, 0 | WARNING: Rounded down to 0
	octave 1
	note A_, 2
	octave 1
	;note A_, 0 | WARNING: Rounded down to 0
	octave 1
	note A_, 2
	octave 1
	;note A_, 0 | WARNING: Rounded down to 0
	octave 1
	note A_, 2
	octave 1
	;note A_, 0 | WARNING: Rounded down to 0
	octave 1
	note A_, 2
	octave 1
	;note A_, 0 | WARNING: Rounded down to 0
	octave 1
	note A_, 2
	octave 1
	;note G_, 0 | WARNING: Rounded down to 0
	octave 1
	note G_, 2
	octave 1
	;note A_, 0 | WARNING: Rounded down to 0
	octave 1
	note A_, 2
;Bar 21
	octave 1
	;note A_, 0 | WARNING: Rounded down to 0
	octave 1
	note A_, 2
	octave 1
	;note A_, 0 | WARNING: Rounded down to 0
	octave 1
	note A_, 2
	octave 1
	;note A_, 0 | WARNING: Rounded down to 0
	octave 1
	note A_, 2
	octave 1
	;note A_, 0 | WARNING: Rounded down to 0
	octave 1
	note A_, 2
	octave 1
	;note A_, 0 | WARNING: Rounded down to 0
	octave 1
	note A_, 2
	octave 1
	;note A_, 0 | WARNING: Rounded down to 0
	octave 1
	note A_, 2
	octave 1
	;note G_, 0 | WARNING: Rounded down to 0
	octave 1
	note G_, 2
	octave 1
	;note A_, 0 | WARNING: Rounded down to 0
	octave 1
	note A_, 2
;Bar 22
	octave 1
	;note A_, 0 | WARNING: Rounded down to 0
	octave 1
	note A_, 2
	octave 1
	;note A_, 0 | WARNING: Rounded down to 0
	octave 1
	note A_, 2
	octave 1
	;note A_, 0 | WARNING: Rounded down to 0
	octave 1
	note A_, 2
	octave 1
	;note A_, 0 | WARNING: Rounded down to 0
	octave 1
	note A_, 2
	octave 1
	;note A_, 0 | WARNING: Rounded down to 0
	octave 1
	note A_, 2
	octave 1
	;note A_, 0 | WARNING: Rounded down to 0
	octave 1
	note A_, 2
	octave 1
	;note G_, 0 | WARNING: Rounded down to 0
	octave 1
	note G_, 2
	octave 1
	;note A_, 0 | WARNING: Rounded down to 0
	octave 1
	note A_, 2
;Bar 23
	octave 1
	;note A_, 0 | WARNING: Rounded down to 0
	octave 1
	note A_, 2
	octave 1
	;note A_, 0 | WARNING: Rounded down to 0
	octave 1
	note A_, 2
	octave 1
	;note A_, 0 | WARNING: Rounded down to 0
	octave 1
	note A_, 2
	octave 1
	;note A_, 0 | WARNING: Rounded down to 0
	octave 1
	note A_, 2
	octave 1
	;note A_, 0 | WARNING: Rounded down to 0
	octave 1
	note A_, 2
	octave 1
	;note A_, 0 | WARNING: Rounded down to 0
	octave 1
	note A_, 2
	octave 1
	;note G_, 0 | WARNING: Rounded down to 0
	octave 1
	note G_, 2
	octave 1
	;note A_, 0 | WARNING: Rounded down to 0
	octave 1
	note A_, 2
;Bar 24
	;note D_, 0 | WARNING: Rounded down to 0
	octave 2
	note D_, 2
	octave 1
	;note D_, 0 | WARNING: Rounded down to 0
	octave 2
	note D_, 2
	octave 1
	;note D_, 0 | WARNING: Rounded down to 0
	octave 2
	note D_, 2
	octave 1
	;note D_, 0 | WARNING: Rounded down to 0
	octave 2
	note D_, 2
	octave 1
	;note D_, 0 | WARNING: Rounded down to 0
	octave 2
	note D_, 2
	octave 1
	;note D_, 0 | WARNING: Rounded down to 0
	octave 2
	note D_, 2
	octave 1
	;note C_, 0 | WARNING: Rounded down to 0
	octave 2
	note C_, 2
	octave 1
	;note D_, 0 | WARNING: Rounded down to 0
	octave 2
	note D_, 2
;Bar 25
	octave 1
	;note D_, 0 | WARNING: Rounded down to 0
	octave 2
	note D_, 2
	octave 1
	;note D_, 0 | WARNING: Rounded down to 0
	octave 2
	note D_, 2
	octave 1
	;note D_, 0 | WARNING: Rounded down to 0
	octave 2
	note D_, 2
	octave 1
	;note D_, 0 | WARNING: Rounded down to 0
	octave 2
	note D_, 2
	octave 1
	;note D_, 0 | WARNING: Rounded down to 0
	octave 2
	note D_, 2
	octave 1
	;note D_, 0 | WARNING: Rounded down to 0
	octave 2
	note D_, 2
	octave 1
	;note C_, 0 | WARNING: Rounded down to 0
	octave 2
	note C_, 2
	octave 1
	;note D_, 0 | WARNING: Rounded down to 0
	octave 2
	note D_, 2
;Bar 26
	octave 1
	;note C_, 0 | WARNING: Rounded down to 0
	octave 2
	note C_, 2
	octave 1
	;note C_, 0 | WARNING: Rounded down to 0
	octave 2
	note C_, 2
	octave 1
	;note C_, 0 | WARNING: Rounded down to 0
	octave 2
	note C_, 2
	octave 1
	;note C_, 0 | WARNING: Rounded down to 0
	octave 2
	note C_, 2
	octave 1
	;note C_, 0 | WARNING: Rounded down to 0
	octave 2
	note C_, 2
	octave 1
	;note C_, 0 | WARNING: Rounded down to 0
	octave 2
	note C_, 2
	octave 1
	;note A#, 0 | WARNING: Rounded down to 0
	octave 1
	note A#, 2
	;note C_, 0 | WARNING: Rounded down to 0
	octave 2
	note C_, 2
;Bar 27
	octave 1
	;note C_, 0 | WARNING: Rounded down to 0
	octave 2
	note C_, 2
	octave 1
	;note C_, 0 | WARNING: Rounded down to 0
	octave 2
	note C_, 2
	octave 1
	;note C_, 0 | WARNING: Rounded down to 0
	octave 2
	note C_, 2
	octave 1
	;note C_, 0 | WARNING: Rounded down to 0
	octave 2
	note C_, 2
	octave 1
	;note C_, 0 | WARNING: Rounded down to 0
	octave 2
	note C_, 2
	octave 1
	;note C_, 0 | WARNING: Rounded down to 0
	octave 2
	note C_, 2
	octave 1
	;note A#, 0 | WARNING: Rounded down to 0
	octave 1
	note A#, 2
	;note C_, 0 | WARNING: Rounded down to 0
	octave 2
	note C_, 2
;Bar 28
	octave 1
	;note A_, 0 | WARNING: Rounded down to 0
	octave 1
	note A_, 2
	octave 1
	;note A_, 0 | WARNING: Rounded down to 0
	octave 1
	note A_, 2
	octave 1
	;note A_, 0 | WARNING: Rounded down to 0
	octave 1
	note A_, 2
	octave 1
	;note A_, 0 | WARNING: Rounded down to 0
	octave 1
	note A_, 2
	octave 1
	;note A_, 0 | WARNING: Rounded down to 0
	octave 1
	note A_, 2
	octave 1
	;note A_, 0 | WARNING: Rounded down to 0
	octave 1
	note A_, 2
	octave 1
	;note G_, 0 | WARNING: Rounded down to 0
	octave 1
	note G_, 2
	octave 1
	;note A_, 0 | WARNING: Rounded down to 0
	octave 1
	note A_, 2
;Bar 29
	octave 1
	;note A_, 0 | WARNING: Rounded down to 0
	octave 1
	note A_, 2
	octave 1
	;note A_, 0 | WARNING: Rounded down to 0
	octave 1
	note A_, 2
	octave 1
	;note A_, 0 | WARNING: Rounded down to 0
	octave 1
	note A_, 2
	octave 1
	;note A_, 0 | WARNING: Rounded down to 0
	octave 1
	note A_, 2
	octave 1
	;note A_, 0 | WARNING: Rounded down to 0
	octave 1
	note A_, 2
	octave 1
	;note A_, 0 | WARNING: Rounded down to 0
	octave 1
	note A_, 2
	octave 1
	;note G_, 0 | WARNING: Rounded down to 0
	octave 1
	note G_, 2
	octave 1
	;note A_, 0 | WARNING: Rounded down to 0
	octave 1
	note A_, 2
;Bar 30
	octave 1
	;note A_, 0 | WARNING: Rounded down to 0
	octave 1
	note A_, 2
	octave 1
	;note A_, 0 | WARNING: Rounded down to 0
	octave 1
	note A_, 2
	octave 1
	;note A_, 0 | WARNING: Rounded down to 0
	octave 1
	note A_, 2
	octave 1
	;note A_, 0 | WARNING: Rounded down to 0
	octave 1
	note A_, 2
	octave 1
	;note A_, 0 | WARNING: Rounded down to 0
	octave 1
	note A_, 2
	octave 1
	;note A_, 0 | WARNING: Rounded down to 0
	octave 1
	note A_, 2
	octave 1
	;note G_, 0 | WARNING: Rounded down to 0
	octave 1
	note G_, 2
	octave 1
	;note A_, 0 | WARNING: Rounded down to 0
	octave 1
	note A_, 2
;Bar 31
	octave 1
	;note A_, 0 | WARNING: Rounded down to 0
	octave 1
	note A_, 15
	sound_ret

; ============================================================================================================

