;Coverted using MIDI2ASM
;Code by TriteHexagon
;Version 5.2.0 (16-Nov-2022)
;Visit github.com/TriteHexagon/Midi2ASM-Converter for up-to-date versions.

; ============================================================================================================

Music_Hero:
	channel_count 3
	channel 1, Music_Hero_Ch1
	channel 2, Music_Hero_Ch2
	channel 3, Music_Hero_Ch3
	channel 4, Music_Hero_Ch4

Music_Hero_Ch1:
	volume 7, 7
	duty_cycle 0
	note_type 12, 10, 7
	tempo 131
;Bar 1
	octave 3
	volume_envelope 14, 7
	;note C_, 0 | WARNING: Rounded down to 0
	octave 2
	note A_, 4
	octave 3
	;note C_, 0 | WARNING: Rounded down to 0
	octave 2
	note A_, 3
	octave 3
	;note C_, 0 | WARNING: Rounded down to 0
	octave 2
	note A_, 1
	octave 3
	;note C_, 0 | WARNING: Rounded down to 0
	octave 2
	note A_, 2
	octave 3
	;note C_, 0 | WARNING: Rounded down to 0
	octave 2
	note A_, 4
	;note B_, 0 | WARNING: Rounded down to 0
	note G_, 2
;Bar 2
	octave 3
	;note C_, 0 | WARNING: Rounded down to 0
	octave 2
	note A_, 4
	octave 3
	;note C_, 0 | WARNING: Rounded down to 0
	octave 2
	note A_, 3
	;note B_, 0 | WARNING: Rounded down to 0
	note G_, 1
	octave 3
	;note C_, 0 | WARNING: Rounded down to 0
	octave 2
	note A_, 2
	octave 3
	;note D_, 0 | WARNING: Rounded down to 0
	octave 2
	note B_, 4
	note B_, 2
;Bar 3
	octave 3
	;note C_, 0 | WARNING: Rounded down to 0
	octave 2
	note A_, 4
	octave 3
	;note C_, 0 | WARNING: Rounded down to 0
	octave 2
	note A_, 3
	;note B_, 0 | WARNING: Rounded down to 0
	note G_, 1
	octave 3
	;note C_, 0 | WARNING: Rounded down to 0
	octave 2
	note A_, 2
	octave 3
	;note C_, 0 | WARNING: Rounded down to 0
	octave 2
	note A_, 4
	;note B_, 0 | WARNING: Rounded down to 0
	note G_, 2
;Bar 4
	octave 3
	;note C_, 0 | WARNING: Rounded down to 0
	octave 2
	note A_, 4
	octave 3
	;note C_, 0 | WARNING: Rounded down to 0
	octave 2
	note A_, 3
	;note B_, 0 | WARNING: Rounded down to 0
	note G_, 1
	octave 3
	;note C_, 0 | WARNING: Rounded down to 0
	octave 2
	note A_, 2
	octave 3
	;note D_, 0 | WARNING: Rounded down to 0
	octave 2
	note B_, 4
	note B_, 2
;Bar 5
	octave 3
	;note C_, 0 | WARNING: Rounded down to 0
	octave 2
	note A_, 4
	octave 3
	;note C_, 0 | WARNING: Rounded down to 0
	octave 2
	note A_, 3
	;note B_, 0 | WARNING: Rounded down to 0
	note G_, 1
	octave 3
	;note C_, 0 | WARNING: Rounded down to 0
	octave 2
	note A_, 2
	octave 3
	;note C_, 0 | WARNING: Rounded down to 0
	octave 2
	note A_, 4
	;note B_, 0 | WARNING: Rounded down to 0
	note G_, 2
;Bar 6
	octave 3
	;note C_, 0 | WARNING: Rounded down to 0
	octave 2
	note A_, 4
	octave 3
	;note C_, 0 | WARNING: Rounded down to 0
	octave 2
	note A_, 3
	;note B_, 0 | WARNING: Rounded down to 0
	note G_, 1
	octave 3
	;note C_, 0 | WARNING: Rounded down to 0
	octave 2
	note A_, 2
	octave 3
	;note D_, 0 | WARNING: Rounded down to 0
	octave 2
	note B_, 4
	note B_, 2
;Bar 7
	octave 3
	;note E_, 0 | WARNING: Rounded down to 0
	note C_, 4
	;note E_, 0 | WARNING: Rounded down to 0
	note C_, 3
	;note D_, 0 | WARNING: Rounded down to 0
	octave 2
	note B_, 1
	octave 3
	;note E_, 0 | WARNING: Rounded down to 0
	note C_, 2
	;note E_, 0 | WARNING: Rounded down to 0
	note C_, 4
	;note D_, 0 | WARNING: Rounded down to 0
	octave 2
	note B_, 2
;Bar 8
	octave 3
	;note F_, 0 | WARNING: Rounded down to 0
	note D_, 4
	;note E_, 0 | WARNING: Rounded down to 0
	note C_, 2
	;note D_, 0 | WARNING: Rounded down to 0
	octave 2
	note B_, 4
	octave 3
	;note C_, 0 | WARNING: Rounded down to 0
	octave 2
	note A_, 2
	;note B_, 0 | WARNING: Rounded down to 0
	note G#, 4
;Bar 9
	rest 4
	;note E_, 0 | WARNING: Rounded down to 0
	note C_, 2
	;note E_, 0 | WARNING: Rounded down to 0
	note C_, 2
	;note E_, 0 | WARNING: Rounded down to 0
	note C_, 4
	;note E_, 0 | WARNING: Rounded down to 0
	note C_, 2
	;note E_, 0 | WARNING: Rounded down to 0
	note C_, 4
;Bar 10
	;note E_, 0 | WARNING: Rounded down to 0
	note C_, 4
	;note F_, 0 | WARNING: Rounded down to 0
	note C_, 6
	;note E_, 0 | WARNING: Rounded down to 0
	note C_, 4
;Bar 11
	;note F_, 0 | WARNING: Rounded down to 0
	octave 1
	note B_, 4
	octave 2
	note E_, 2
	note E_, 2
	note D_, 4
	note D_, 2
	;note E_, 0 | WARNING: Rounded down to 0
	octave 1
	note B_, 10
;Bar 12
	rest 8
;Bar 13
	octave 2
	;note G_, 0 | WARNING: Rounded down to 0
	;note C_, 0 | WARNING: Rounded down to 0
	octave 1
	note A_, 4
	octave 2
	;note F_, 0 | WARNING: Rounded down to 0
	;note C_, 0 | WARNING: Rounded down to 0
	octave 1
	note A_, 2
	octave 2
	;note F_, 0 | WARNING: Rounded down to 0
	;note C_, 0 | WARNING: Rounded down to 0
	octave 1
	note A_, 4
	octave 2
	;note F_, 0 | WARNING: Rounded down to 0
	;note C_, 0 | WARNING: Rounded down to 0
	octave 1
	note A_, 4
	octave 2
	;note G_, 0 | WARNING: Rounded down to 0
	;note C_, 0 | WARNING: Rounded down to 0
	octave 1
	note A_, 6
;Bar 14
	octave 2
	;note F_, 0 | WARNING: Rounded down to 0
	;note C_, 0 | WARNING: Rounded down to 0
	octave 1
	note A_, 2
	octave 2
	;note F_, 0 | WARNING: Rounded down to 0
	;note C_, 0 | WARNING: Rounded down to 0
	octave 1
	note A_, 6
	octave 2
	;note F_, 0 | WARNING: Rounded down to 0
	;note C_, 0 | WARNING: Rounded down to 0
	octave 1
	note A_, 2
	octave 2
	;note E_, 0 | WARNING: Rounded down to 0
	octave 1
	;note B_, 0 | WARNING: Rounded down to 0
	note G#, 6
;Bar 15
	octave 2
	;note E_, 0 | WARNING: Rounded down to 0
	octave 1
	;note B_, 0 | WARNING: Rounded down to 0
	note G#, 2
	octave 2
	;note E_, 0 | WARNING: Rounded down to 0
	octave 1
	;note B_, 0 | WARNING: Rounded down to 0
	note G#, 6
	octave 2
	;note D_, 0 | WARNING: Rounded down to 0
	octave 1
	note A_, 2
	octave 2
	;note E_, 0 | WARNING: Rounded down to 0
	octave 1
	;note B_, 0 | WARNING: Rounded down to 0
	note G#, 10
;Bar 16
	rest 12
;Bar 17
	octave 2
	;note A_, 0 | WARNING: Rounded down to 0
	;note E_, 0 | WARNING: Rounded down to 0
	note C_, 2
	;note A_, 0 | WARNING: Rounded down to 0
	;note E_, 0 | WARNING: Rounded down to 0
	note C_, 2
	;note A_, 0 | WARNING: Rounded down to 0
	;note E_, 0 | WARNING: Rounded down to 0
	note C_, 4
	;note A_, 0 | WARNING: Rounded down to 0
	;note E_, 0 | WARNING: Rounded down to 0
	note C_, 2
	;note A_, 0 | WARNING: Rounded down to 0
	;note E_, 0 | WARNING: Rounded down to 0
	note C_, 6
;Bar 18
	;note B_, 0 | WARNING: Rounded down to 0
	;note E_, 0 | WARNING: Rounded down to 0
	note C_, 8
	;note A_, 0 | WARNING: Rounded down to 0
	note C_, 2
	;note C_, 0 | WARNING: Rounded down to 0
	note A_, 6
;Bar 19
	;note G_, 0 | WARNING: Rounded down to 0
	octave 1
	note B_, 2
	octave 2
	;note G_, 0 | WARNING: Rounded down to 0
	octave 1
	note B_, 6
	octave 2
	note E_, 2
	;note G_, 0 | WARNING: Rounded down to 0
	octave 1
	note B_, 10
;Bar 20
	rest 12
;Bar 21
	octave 2
	;note A_, 0 | WARNING: Rounded down to 0
	;note F_, 0 | WARNING: Rounded down to 0
	note D_, 2
	;note A_, 0 | WARNING: Rounded down to 0
	;note F_, 0 | WARNING: Rounded down to 0
	note D_, 2
	;note A_, 0 | WARNING: Rounded down to 0
	;note F_, 0 | WARNING: Rounded down to 0
	note D_, 4
	;note A_, 0 | WARNING: Rounded down to 0
	;note F_, 0 | WARNING: Rounded down to 0
	note D_, 2
	;note A_, 0 | WARNING: Rounded down to 0
	;note F_, 0 | WARNING: Rounded down to 0
	note D_, 4
;Bar 22
	;note A_, 0 | WARNING: Rounded down to 0
	;note F_, 0 | WARNING: Rounded down to 0
	note D_, 2
	;note A_, 0 | WARNING: Rounded down to 0
	;note F_, 0 | WARNING: Rounded down to 0
	note D_, 2
	;note A_, 0 | WARNING: Rounded down to 0
	;note F_, 0 | WARNING: Rounded down to 0
	note D_, 4
	note B_, 2
	octave 3
	note C_, 4
;Bar 23
	;note C_, 0 | WARNING: Rounded down to 0
	octave 2
	;note G#, 0 | WARNING: Rounded down to 0
	note E_, 4
	;note B_, 0 | WARNING: Rounded down to 0
	;note G#, 0 | WARNING: Rounded down to 0
	note E_, 4
	;note B_, 0 | WARNING: Rounded down to 0
	;note G#, 0 | WARNING: Rounded down to 0
	note E_, 2
	note A_, 4
	;note B_, 0 | WARNING: Rounded down to 0
	;note E_, 0 | WARNING: Rounded down to 0
	note G#, 10
;Bar 24
	rest 2
	note A_, 2
	note A_, 4
;Bar 25
	;note A_, 0 | WARNING: Rounded down to 0
	;note E_, 0 | WARNING: Rounded down to 0
	note C_, 4
	;note A_, 0 | WARNING: Rounded down to 0
	;note E_, 0 | WARNING: Rounded down to 0
	note C_, 4
	rest 2
	;note G_, 0 | WARNING: Rounded down to 0
	;note D_, 0 | WARNING: Rounded down to 0
	octave 1
	note B_, 4
	octave 2
	;note C_, 0 | WARNING: Rounded down to 0
	;note E_, 0 | WARNING: Rounded down to 0
	note A_, 4
;Bar 26
	;note A_, 0 | WARNING: Rounded down to 0
	;note E_, 0 | WARNING: Rounded down to 0
	note C_, 2
	;note A_, 0 | WARNING: Rounded down to 0
	;note E_, 0 | WARNING: Rounded down to 0
	note C_, 2
	;note A_, 0 | WARNING: Rounded down to 0
	;note E_, 0 | WARNING: Rounded down to 0
	note C_, 2
	;note A_, 0 | WARNING: Rounded down to 0
	;note E_, 0 | WARNING: Rounded down to 0
	note C_, 2
	;note A_, 0 | WARNING: Rounded down to 0
	;note E_, 0 | WARNING: Rounded down to 0
	note C_, 2
	;note A_, 0 | WARNING: Rounded down to 0
	;note E_, 0 | WARNING: Rounded down to 0
	note C_, 2
	;note A_, 0 | WARNING: Rounded down to 0
	;note E_, 0 | WARNING: Rounded down to 0
	note C_, 4
;Bar 27
	;note G_, 0 | WARNING: Rounded down to 0
	octave 1
	note B_, 2
	octave 2
	;note G_, 0 | WARNING: Rounded down to 0
	octave 1
	note B_, 2
	octave 2
	;note G_, 0 | WARNING: Rounded down to 0
	octave 1
	note B_, 2
	octave 2
	;note G_, 0 | WARNING: Rounded down to 0
	octave 1
	note B_, 2
	octave 2
	;note G_, 0 | WARNING: Rounded down to 0
	octave 1
	note B_, 2
	octave 2
	note E_, 2
	octave 1
	;note B_, 0 | WARNING: Rounded down to 0
	octave 2
	note G_, 4
;Bar 28
	;note A_, 0 | WARNING: Rounded down to 0
	octave 1
	note B_, 2
	rest 8
	octave 2
	note G_, 2
	;note G_, 0 | WARNING: Rounded down to 0
	octave 1
	note A_, 4
;Bar 29
	octave 2
	;note F_, 0 | WARNING: Rounded down to 0
	octave 1
	note A_, 2
	octave 2
	;note F_, 0 | WARNING: Rounded down to 0
	octave 1
	note A_, 2
	octave 2
	;note F_, 0 | WARNING: Rounded down to 0
	octave 1
	note A_, 4
	octave 2
	;note F_, 0 | WARNING: Rounded down to 0
	octave 1
	note A_, 2
	octave 2
	;note F_, 0 | WARNING: Rounded down to 0
	octave 1
	note A_, 2
	octave 2
	;note G_, 0 | WARNING: Rounded down to 0
	octave 1
	note A_, 4
;Bar 30
	octave 2
	;note F_, 0 | WARNING: Rounded down to 0
	octave 1
	note A_, 2
	octave 2
	;note F_, 0 | WARNING: Rounded down to 0
	octave 1
	note A_, 2
	;note A_, 0 | WARNING: Rounded down to 0
	octave 2
	note F_, 4
	;note F_, 0 | WARNING: Rounded down to 0
	octave 1
	note A_, 2
	octave 2
	;note F_, 0 | WARNING: Rounded down to 0
	octave 1
	note A_, 2
	;note G_, 0 | WARNING: Rounded down to 0
	octave 2
	;note C_, 0 | WARNING: Rounded down to 0
	note E_, 4
;Bar 31
	;note E_, 0 | WARNING: Rounded down to 0
	;note C_, 0 | WARNING: Rounded down to 0
	octave 1
	note G_, 2
	octave 2
	;note E_, 0 | WARNING: Rounded down to 0
	;note C_, 0 | WARNING: Rounded down to 0
	octave 1
	note G_, 2
	octave 2
	;note E_, 0 | WARNING: Rounded down to 0
	;note C_, 0 | WARNING: Rounded down to 0
	octave 1
	note G_, 4
	octave 2
	note D_, 2
	note C_, 2
	note D_, 4
;Bar 32
	;note E_, 0 | WARNING: Rounded down to 0
	octave 1
	note B_, 2
	rest 6
	octave 3
	note C_, 2
	note C_, 2
	octave 2
	note B_, 2
;Bar 33
	;note A_, 0 | WARNING: Rounded down to 0
	;note E_, 0 | WARNING: Rounded down to 0
	note C_, 4
	;note A_, 0 | WARNING: Rounded down to 0
	;note E_, 0 | WARNING: Rounded down to 0
	note C_, 4
	rest 2
	;note G_, 0 | WARNING: Rounded down to 0
	;note D_, 0 | WARNING: Rounded down to 0
	octave 1
	note B_, 4
	octave 2
	;note C_, 0 | WARNING: Rounded down to 0
	;note E_, 0 | WARNING: Rounded down to 0
	note A_, 4
;Bar 34
	;note A_, 0 | WARNING: Rounded down to 0
	;note E_, 0 | WARNING: Rounded down to 0
	note C_, 2
	;note A_, 0 | WARNING: Rounded down to 0
	;note E_, 0 | WARNING: Rounded down to 0
	note C_, 2
	;note A_, 0 | WARNING: Rounded down to 0
	;note E_, 0 | WARNING: Rounded down to 0
	note C_, 2
	;note A_, 0 | WARNING: Rounded down to 0
	;note E_, 0 | WARNING: Rounded down to 0
	note C_, 2
	;note A_, 0 | WARNING: Rounded down to 0
	;note E_, 0 | WARNING: Rounded down to 0
	note C_, 2
	;note A_, 0 | WARNING: Rounded down to 0
	;note E_, 0 | WARNING: Rounded down to 0
	note C_, 2
	;note A_, 0 | WARNING: Rounded down to 0
	;note E_, 0 | WARNING: Rounded down to 0
	note C_, 4
;Bar 35
	;note G_, 0 | WARNING: Rounded down to 0
	octave 1
	note B_, 2
	octave 2
	;note G_, 0 | WARNING: Rounded down to 0
	octave 1
	note B_, 2
	octave 2
	;note G_, 0 | WARNING: Rounded down to 0
	octave 1
	note B_, 2
	octave 2
	;note G_, 0 | WARNING: Rounded down to 0
	octave 1
	note B_, 2
	octave 2
	;note G_, 0 | WARNING: Rounded down to 0
	octave 1
	note B_, 2
	octave 2
	note E_, 2
	octave 1
	;note B_, 0 | WARNING: Rounded down to 0
	octave 2
	note G_, 4
;Bar 36
	;note A_, 0 | WARNING: Rounded down to 0
	octave 1
	note B_, 2
	rest 8
	octave 2
	note G_, 2
	;note G_, 0 | WARNING: Rounded down to 0
	octave 1
	note A_, 4
;Bar 37
	octave 2
	;note F_, 0 | WARNING: Rounded down to 0
	octave 1
	note A_, 2
	octave 2
	;note F_, 0 | WARNING: Rounded down to 0
	octave 1
	note A_, 2
	octave 2
	;note F_, 0 | WARNING: Rounded down to 0
	octave 1
	note A_, 4
	octave 2
	;note F_, 0 | WARNING: Rounded down to 0
	octave 1
	note A_, 2
	octave 2
	;note F_, 0 | WARNING: Rounded down to 0
	octave 1
	note A_, 2
	octave 2
	;note G_, 0 | WARNING: Rounded down to 0
	octave 1
	note A_, 4
;Bar 38
	octave 2
	;note F_, 0 | WARNING: Rounded down to 0
	octave 1
	note A_, 2
	octave 2
	;note F_, 0 | WARNING: Rounded down to 0
	octave 1
	note A_, 2
	;note A_, 0 | WARNING: Rounded down to 0
	octave 2
	note F_, 4
	;note F_, 0 | WARNING: Rounded down to 0
	octave 1
	note A_, 2
	octave 2
	;note F_, 0 | WARNING: Rounded down to 0
	octave 1
	note A_, 2
	;note G_, 0 | WARNING: Rounded down to 0
	octave 2
	;note C_, 0 | WARNING: Rounded down to 0
	note E_, 4
;Bar 39
	;note E_, 0 | WARNING: Rounded down to 0
	;note C_, 0 | WARNING: Rounded down to 0
	octave 1
	note G_, 2
	octave 2
	;note E_, 0 | WARNING: Rounded down to 0
	;note C_, 0 | WARNING: Rounded down to 0
	octave 1
	note G_, 2
	octave 2
	;note E_, 0 | WARNING: Rounded down to 0
	;note C_, 0 | WARNING: Rounded down to 0
	octave 1
	note G_, 4
	octave 2
	note D_, 2
	note C_, 2
	note D_, 4
;Bar 40
	;note E_, 0 | WARNING: Rounded down to 0
	octave 1
	note B_, 2
	rest 4
	octave 2
	note D_, 3
	note C_, 2
	octave 1
	note B_, 3
;Bar 41
	octave 3
	;note C_, 0 | WARNING: Rounded down to 0
	octave 2
	note A_, 4
	octave 3
	;note C_, 0 | WARNING: Rounded down to 0
	octave 2
	note A_, 3
	octave 3
	;note C_, 0 | WARNING: Rounded down to 0
	octave 2
	note A_, 1
	octave 3
	;note C_, 0 | WARNING: Rounded down to 0
	octave 2
	note A_, 2
	octave 3
	;note C_, 0 | WARNING: Rounded down to 0
	octave 2
	note A_, 4
	;note B_, 0 | WARNING: Rounded down to 0
	note G_, 2
;Bar 42
	octave 3
	;note C_, 0 | WARNING: Rounded down to 0
	octave 2
	note A_, 4
	octave 3
	;note C_, 0 | WARNING: Rounded down to 0
	octave 2
	note A_, 3
	;note B_, 0 | WARNING: Rounded down to 0
	note G_, 1
	octave 3
	;note C_, 0 | WARNING: Rounded down to 0
	octave 2
	note A_, 2
	octave 3
	;note D_, 0 | WARNING: Rounded down to 0
	octave 2
	note B_, 4
	note B_, 2
;Bar 43
	octave 3
	;note C_, 0 | WARNING: Rounded down to 0
	octave 2
	note A_, 4
	octave 3
	;note C_, 0 | WARNING: Rounded down to 0
	octave 2
	note A_, 3
	;note B_, 0 | WARNING: Rounded down to 0
	note G_, 1
	octave 3
	;note C_, 0 | WARNING: Rounded down to 0
	octave 2
	note A_, 2
	octave 3
	;note C_, 0 | WARNING: Rounded down to 0
	octave 2
	note A_, 4
	;note B_, 0 | WARNING: Rounded down to 0
	note G_, 2
;Bar 44
	octave 3
	;note C_, 0 | WARNING: Rounded down to 0
	octave 2
	note A_, 4
	octave 3
	;note C_, 0 | WARNING: Rounded down to 0
	octave 2
	note A_, 3
	;note B_, 0 | WARNING: Rounded down to 0
	note G_, 1
	octave 3
	;note C_, 0 | WARNING: Rounded down to 0
	octave 2
	note A_, 2
	octave 3
	;note D_, 0 | WARNING: Rounded down to 0
	octave 2
	note B_, 4
	note B_, 2
;Bar 45
	octave 3
	;note C_, 0 | WARNING: Rounded down to 0
	octave 2
	note A_, 4
	octave 3
	;note C_, 0 | WARNING: Rounded down to 0
	octave 2
	note A_, 3
	;note B_, 0 | WARNING: Rounded down to 0
	note G_, 1
	octave 3
	;note C_, 0 | WARNING: Rounded down to 0
	octave 2
	note A_, 2
	octave 3
	;note C_, 0 | WARNING: Rounded down to 0
	octave 2
	note A_, 4
	;note B_, 0 | WARNING: Rounded down to 0
	note G_, 2
;Bar 46
	octave 3
	;note C_, 0 | WARNING: Rounded down to 0
	octave 2
	note A_, 4
	octave 3
	;note C_, 0 | WARNING: Rounded down to 0
	octave 2
	note A_, 3
	;note B_, 0 | WARNING: Rounded down to 0
	note G_, 1
	octave 3
	;note C_, 0 | WARNING: Rounded down to 0
	octave 2
	note A_, 2
	octave 3
	;note D_, 0 | WARNING: Rounded down to 0
	octave 2
	note B_, 4
	note B_, 2
;Bar 47
	octave 3
	;note E_, 0 | WARNING: Rounded down to 0
	note C_, 4
	;note E_, 0 | WARNING: Rounded down to 0
	note C_, 3
	;note D_, 0 | WARNING: Rounded down to 0
	octave 2
	note B_, 1
	octave 3
	;note E_, 0 | WARNING: Rounded down to 0
	note C_, 2
	;note E_, 0 | WARNING: Rounded down to 0
	note C_, 4
	;note D_, 0 | WARNING: Rounded down to 0
	octave 2
	note B_, 2
;Bar 48
	octave 3
	;note F_, 0 | WARNING: Rounded down to 0
	note D_, 4
	;note E_, 0 | WARNING: Rounded down to 0
	note C_, 2
	;note D_, 0 | WARNING: Rounded down to 0
	octave 2
	note B_, 4
	octave 3
	;note C_, 0 | WARNING: Rounded down to 0
	octave 2
	note A_, 2
	;note B_, 0 | WARNING: Rounded down to 0
	note G#, 4
;Bar 49
	rest 4
	;note E_, 0 | WARNING: Rounded down to 0
	note C_, 2
	;note E_, 0 | WARNING: Rounded down to 0
	note C_, 2
	;note E_, 0 | WARNING: Rounded down to 0
	note C_, 4
	;note E_, 0 | WARNING: Rounded down to 0
	note C_, 2
	;note E_, 0 | WARNING: Rounded down to 0
	note C_, 4
;Bar 50
	;note E_, 0 | WARNING: Rounded down to 0
	note C_, 4
	;note F_, 0 | WARNING: Rounded down to 0
	note C_, 6
	;note E_, 0 | WARNING: Rounded down to 0
	note C_, 4
;Bar 51
	;note F_, 0 | WARNING: Rounded down to 0
	octave 1
	note B_, 4
	octave 2
	note E_, 2
	note E_, 2
	note D_, 4
	note D_, 2
	;note E_, 0 | WARNING: Rounded down to 0
	octave 1
	note B_, 10
;Bar 52
	rest 8
;Bar 53
	octave 2
	;note G_, 0 | WARNING: Rounded down to 0
	;note C_, 0 | WARNING: Rounded down to 0
	octave 1
	note A_, 4
	octave 2
	;note F_, 0 | WARNING: Rounded down to 0
	;note C_, 0 | WARNING: Rounded down to 0
	octave 1
	note A_, 2
	octave 2
	;note F_, 0 | WARNING: Rounded down to 0
	;note C_, 0 | WARNING: Rounded down to 0
	octave 1
	note A_, 4
	octave 2
	;note F_, 0 | WARNING: Rounded down to 0
	;note C_, 0 | WARNING: Rounded down to 0
	octave 1
	note A_, 4
	octave 2
	;note G_, 0 | WARNING: Rounded down to 0
	;note C_, 0 | WARNING: Rounded down to 0
	octave 1
	note A_, 6
;Bar 54
	octave 2
	;note F_, 0 | WARNING: Rounded down to 0
	;note C_, 0 | WARNING: Rounded down to 0
	octave 1
	note A_, 2
	octave 2
	;note F_, 0 | WARNING: Rounded down to 0
	;note C_, 0 | WARNING: Rounded down to 0
	octave 1
	note A_, 6
	octave 2
	;note F_, 0 | WARNING: Rounded down to 0
	;note C_, 0 | WARNING: Rounded down to 0
	octave 1
	note A_, 2
	octave 2
	;note E_, 0 | WARNING: Rounded down to 0
	octave 1
	;note B_, 0 | WARNING: Rounded down to 0
	note G#, 6
;Bar 55
	octave 2
	;note E_, 0 | WARNING: Rounded down to 0
	octave 1
	;note B_, 0 | WARNING: Rounded down to 0
	note G#, 2
	octave 2
	;note E_, 0 | WARNING: Rounded down to 0
	octave 1
	;note B_, 0 | WARNING: Rounded down to 0
	note G#, 6
	octave 2
	;note D_, 0 | WARNING: Rounded down to 0
	octave 1
	note A_, 2
	octave 2
	;note E_, 0 | WARNING: Rounded down to 0
	octave 1
	;note B_, 0 | WARNING: Rounded down to 0
	note G#, 10
;Bar 56
	rest 12
;Bar 57
	octave 2
	;note A_, 0 | WARNING: Rounded down to 0
	;note E_, 0 | WARNING: Rounded down to 0
	note C_, 2
	;note A_, 0 | WARNING: Rounded down to 0
	;note E_, 0 | WARNING: Rounded down to 0
	note C_, 2
	;note A_, 0 | WARNING: Rounded down to 0
	;note E_, 0 | WARNING: Rounded down to 0
	note C_, 4
	;note A_, 0 | WARNING: Rounded down to 0
	;note E_, 0 | WARNING: Rounded down to 0
	note C_, 2
	;note A_, 0 | WARNING: Rounded down to 0
	;note E_, 0 | WARNING: Rounded down to 0
	note C_, 6
;Bar 58
	;note B_, 0 | WARNING: Rounded down to 0
	;note E_, 0 | WARNING: Rounded down to 0
	note C_, 8
	;note A_, 0 | WARNING: Rounded down to 0
	note C_, 2
	;note C_, 0 | WARNING: Rounded down to 0
	note A_, 6
;Bar 59
	;note G_, 0 | WARNING: Rounded down to 0
	octave 1
	note B_, 2
	octave 2
	;note G_, 0 | WARNING: Rounded down to 0
	octave 1
	note B_, 6
	octave 2
	note E_, 2
	;note G_, 0 | WARNING: Rounded down to 0
	octave 1
	note B_, 10
;Bar 60
	rest 12
;Bar 61
	octave 2
	;note A_, 0 | WARNING: Rounded down to 0
	;note F_, 0 | WARNING: Rounded down to 0
	note D_, 2
	;note A_, 0 | WARNING: Rounded down to 0
	;note F_, 0 | WARNING: Rounded down to 0
	note D_, 2
	;note A_, 0 | WARNING: Rounded down to 0
	;note F_, 0 | WARNING: Rounded down to 0
	note D_, 4
	;note A_, 0 | WARNING: Rounded down to 0
	;note F_, 0 | WARNING: Rounded down to 0
	note D_, 2
	;note A_, 0 | WARNING: Rounded down to 0
	;note F_, 0 | WARNING: Rounded down to 0
	note D_, 4
;Bar 62
	;note A_, 0 | WARNING: Rounded down to 0
	;note F_, 0 | WARNING: Rounded down to 0
	note D_, 2
	;note A_, 0 | WARNING: Rounded down to 0
	;note F_, 0 | WARNING: Rounded down to 0
	note D_, 2
	;note A_, 0 | WARNING: Rounded down to 0
	;note F_, 0 | WARNING: Rounded down to 0
	note D_, 4
	note B_, 2 ; WARNING: Auto-Sync says: Rounded down!
	octave 3
	note C_, 4
;Bar 63
	;note C_, 0 | WARNING: Rounded down to 0
	octave 2
	;note G#, 0 | WARNING: Rounded down to 0
	note E_, 4
	;note B_, 0 | WARNING: Rounded down to 0
	;note G#, 0 | WARNING: Rounded down to 0
	note E_, 4
	;note B_, 0 | WARNING: Rounded down to 0
	;note G#, 0 | WARNING: Rounded down to 0
	note E_, 2
	note A_, 4
	;note B_, 0 | WARNING: Rounded down to 0
	;note E_, 0 | WARNING: Rounded down to 0
	note G#, 10
;Bar 64
	rest 2
	note A_, 2
	note A_, 4
;Bar 65
	;note A_, 0 | WARNING: Rounded down to 0
	;note E_, 0 | WARNING: Rounded down to 0
	note C_, 4 ; WARNING: Auto-Sync says: Rounded down!
	;note A_, 0 | WARNING: Rounded down to 0
	;note E_, 0 | WARNING: Rounded down to 0
	note C_, 4
	rest 2
	;note G_, 0 | WARNING: Rounded down to 0
	;note D_, 0 | WARNING: Rounded down to 0
	octave 1
	note B_, 4
	octave 2
	;note C_, 0 | WARNING: Rounded down to 0
	;note E_, 0 | WARNING: Rounded down to 0
	note A_, 4
;Bar 66
	;note A_, 0 | WARNING: Rounded down to 0
	;note E_, 0 | WARNING: Rounded down to 0
	note C_, 2
	;note A_, 0 | WARNING: Rounded down to 0
	;note E_, 0 | WARNING: Rounded down to 0
	note C_, 2 ; WARNING: Auto-Sync says: Rounded down!
	;note A_, 0 | WARNING: Rounded down to 0
	;note E_, 0 | WARNING: Rounded down to 0
	note C_, 2
	;note A_, 0 | WARNING: Rounded down to 0
	;note E_, 0 | WARNING: Rounded down to 0
	note C_, 2
	;note A_, 0 | WARNING: Rounded down to 0
	;note E_, 0 | WARNING: Rounded down to 0
	note C_, 2
	;note A_, 0 | WARNING: Rounded down to 0
	;note E_, 0 | WARNING: Rounded down to 0
	note C_, 2 ; WARNING: Auto-Sync says: Rounded down!
	;note A_, 0 | WARNING: Rounded down to 0
	;note E_, 0 | WARNING: Rounded down to 0
	note C_, 4
;Bar 67
	;note G_, 0 | WARNING: Rounded down to 0
	octave 1
	note B_, 2
	octave 2
	;note G_, 0 | WARNING: Rounded down to 0
	octave 1
	note B_, 2
	octave 2
	;note G_, 0 | WARNING: Rounded down to 0
	octave 1
	note B_, 2
	octave 2
	;note G_, 0 | WARNING: Rounded down to 0
	octave 1
	note B_, 2
	octave 2
	;note G_, 0 | WARNING: Rounded down to 0
	octave 1
	note B_, 2
	octave 2
	note E_, 2
	octave 1
	;note B_, 0 | WARNING: Rounded down to 0
	octave 2
	note G_, 4
;Bar 68
	;note A_, 0 | WARNING: Rounded down to 0
	octave 1
	note B_, 2
	rest 8
	octave 2
	note G_, 2
	;note G_, 0 | WARNING: Rounded down to 0
	octave 1
	note A_, 4
;Bar 69
	octave 2
	;note F_, 0 | WARNING: Rounded down to 0
	octave 1
	note A_, 2
	octave 2
	;note F_, 0 | WARNING: Rounded down to 0
	octave 1
	note A_, 2
	octave 2
	;note F_, 0 | WARNING: Rounded down to 0
	octave 1
	note A_, 4
	octave 2
	;note F_, 0 | WARNING: Rounded down to 0
	octave 1
	note A_, 2
	octave 2
	;note F_, 0 | WARNING: Rounded down to 0
	octave 1
	note A_, 2
	octave 2
	;note G_, 0 | WARNING: Rounded down to 0
	octave 1
	note A_, 4
;Bar 70
	octave 2
	;note F_, 0 | WARNING: Rounded down to 0
	octave 1
	note A_, 2
	octave 2
	;note F_, 0 | WARNING: Rounded down to 0
	octave 1
	note A_, 2
	;note A_, 0 | WARNING: Rounded down to 0
	octave 2
	note F_, 4
	;note F_, 0 | WARNING: Rounded down to 0
	octave 1
	note A_, 2
	octave 2
	;note F_, 0 | WARNING: Rounded down to 0
	octave 1
	note A_, 2
	;note G_, 0 | WARNING: Rounded down to 0
	octave 2
	;note C_, 0 | WARNING: Rounded down to 0
	note E_, 4
;Bar 71
	;note E_, 0 | WARNING: Rounded down to 0
	;note C_, 0 | WARNING: Rounded down to 0
	octave 1
	note G_, 2
	octave 2
	;note E_, 0 | WARNING: Rounded down to 0
	;note C_, 0 | WARNING: Rounded down to 0
	octave 1
	note G_, 2
	octave 2
	;note E_, 0 | WARNING: Rounded down to 0
	;note C_, 0 | WARNING: Rounded down to 0
	octave 1
	note G_, 4
	octave 2
	note D_, 2
	note C_, 2
	note D_, 4
;Bar 72
	;note E_, 0 | WARNING: Rounded down to 0
	octave 1
	note B_, 2
	rest 2
	octave 2
	note D_, 2
	note E_, 2
	note G_, 2
	rest 2
	;note G_, 0 | WARNING: Rounded down to 0
	;note D_, 0 | WARNING: Rounded down to 0
	octave 1
	note B_, 10
;Bar 73
	rest 2
	octave 3
	note C_, 2
	note C_, 2
	octave 2
	note B_, 2
;Bar 74
	octave 3
	;note C_, 0 | WARNING: Rounded down to 0
	octave 2
	note E_, 4
	octave 3
	;note C_, 0 | WARNING: Rounded down to 0
	octave 2
	note E_, 3
	note B_, 1
	octave 3
	note C_, 2
	octave 2
	note B_, 2
	note A_, 4
;Bar 75
	rest 2
	octave 3
	;note C_, 0 | WARNING: Rounded down to 0
	octave 2
	note E_, 2
	octave 3
	;note C_, 0 | WARNING: Rounded down to 0
	octave 2
	note E_, 2
	octave 3
	;note C_, 0 | WARNING: Rounded down to 0
	octave 2
	note E_, 2
	octave 3
	;note C_, 0 | WARNING: Rounded down to 0
	octave 2
	note E_, 2
	note B_, 2
	note A_, 2
	;note A_, 0 | WARNING: Rounded down to 0
	octave 1
	note B_, 4
;Bar 76
	octave 2
	;note G_, 0 | WARNING: Rounded down to 0
	octave 1
	note B_, 2
	octave 2
	;note G_, 0 | WARNING: Rounded down to 0
	octave 1
	note B_, 2
	octave 2
	;note G_, 0 | WARNING: Rounded down to 0
	octave 1
	note B_, 2
	octave 2
	;note G_, 0 | WARNING: Rounded down to 0
	octave 1
	note B_, 2
	octave 2
	;note G_, 0 | WARNING: Rounded down to 0
	octave 1
	note B_, 2
	octave 2
	note E_, 2
	octave 1
	;note B_, 0 | WARNING: Rounded down to 0
	octave 2
	note G_, 4
;Bar 77
	note A_, 2
	octave 1
	note A_, 2
	note G_, 2
	octave 2
	note C_, 2
	note C_, 4
	octave 1
	note A_, 2
;Bar 78
	rest 2
	;note A_, 0 | WARNING: Rounded down to 0
	note E_, 2
	rest 2
	;note A_, 0 | WARNING: Rounded down to 0
	note E_, 2
	rest 2
	;note A_, 0 | WARNING: Rounded down to 0
	note E_, 2
	rest 2
	;note A_, 0 | WARNING: Rounded down to 0
	note E_, 2
;Bar 79
	rest 2
	;note A_, 0 | WARNING: Rounded down to 0
	note E_, 2
	note A_, 2
	note G_, 2
	octave 2
	;note C_, 0 | WARNING: Rounded down to 0
	octave 1
	note G_, 2
	octave 2
	;note C_, 0 | WARNING: Rounded down to 0
	octave 1
	note G_, 4
	note A_, 2
;Bar 80
	rest 2
	;note A_, 0 | WARNING: Rounded down to 0
	note F_, 2
	rest 2
	;note A_, 0 | WARNING: Rounded down to 0
	note F_, 2
	rest 2
	;note A_, 0 | WARNING: Rounded down to 0
	note F_, 2
	rest 2
	;note A_, 0 | WARNING: Rounded down to 0
	note F_, 2
;Bar 81
	rest 2
	;note A_, 0 | WARNING: Rounded down to 0
	note F_, 2
	note A_, 2
	note G_, 2
	octave 2
	;note C_, 0 | WARNING: Rounded down to 0
	octave 1
	note G_, 2
	octave 2
	;note C_, 0 | WARNING: Rounded down to 0
	octave 1
	note G_, 4
	;note A_, 0 | WARNING: Rounded down to 0
	;note F_, 0 | WARNING: Rounded down to 0
	note D_, 6
;Bar 82
	note A_, 2
	note G_, 2
	octave 2
	;note C_, 0 | WARNING: Rounded down to 0
	octave 1
	note G_, 2
	octave 2
	;note C_, 0 | WARNING: Rounded down to 0
	octave 1
	note G_, 4
	;note F_, 0 | WARNING: Rounded down to 0
	;note A_, 0 | WARNING: Rounded down to 0
	note B_, 6
;Bar 83
	note B_, 2
	note A_, 2
	;note B_, 0 | WARNING: Rounded down to 0
	;note F_, 0 | WARNING: Rounded down to 0
	note D_, 2
	;note B_, 0 | WARNING: Rounded down to 0
	;note F_, 0 | WARNING: Rounded down to 0
	note D_, 4
	;note B_, 0 | WARNING: Rounded down to 0
	note E_, 4
;Bar 84
	note A_, 2
	;note A_, 0 | WARNING: Rounded down to 0
	note E_, 6
	note G_, 4
	note G_, 4
;Bar 85
	;note A_, 0 | WARNING: Rounded down to 0
	note E_, 4
	note G_, 2
	octave 2
	;note C_, 0 | WARNING: Rounded down to 0
	octave 1
	note E_, 2
	octave 2
	;note C_, 0 | WARNING: Rounded down to 0
	octave 1
	note E_, 2
	note A_, 2
	note G_, 2
;Bar 86
	rest 2
	;note A_, 0 | WARNING: Rounded down to 0
	note E_, 2
	rest 2
	;note A_, 0 | WARNING: Rounded down to 0
	note E_, 2
	rest 2
	;note A_, 0 | WARNING: Rounded down to 0
	note E_, 2
	rest 2
	;note A_, 0 | WARNING: Rounded down to 0
	note E_, 2
;Bar 87
	rest 2
	;note A_, 0 | WARNING: Rounded down to 0
	note E_, 2
	note A_, 2
	note G_, 2
	octave 2
	;note C_, 0 | WARNING: Rounded down to 0
	octave 1
	note G_, 2
	octave 2
	;note C_, 0 | WARNING: Rounded down to 0
	octave 1
	note G_, 4
	note A_, 2
;Bar 88
	rest 2
	;note A_, 0 | WARNING: Rounded down to 0
	note F_, 2
	rest 2
	;note A_, 0 | WARNING: Rounded down to 0
	note F_, 2
	rest 2
	;note A_, 0 | WARNING: Rounded down to 0
	note F_, 2
	rest 2
	;note A_, 0 | WARNING: Rounded down to 0
	note F_, 2
;Bar 89
	rest 2
	;note A_, 0 | WARNING: Rounded down to 0
	note F_, 2
	note A_, 2
	note G_, 2
	octave 2
	;note C_, 0 | WARNING: Rounded down to 0
	octave 1
	note G_, 2
	octave 2
	;note C_, 0 | WARNING: Rounded down to 0
	octave 1
	note G_, 4
	;note A_, 0 | WARNING: Rounded down to 0
	;note F_, 0 | WARNING: Rounded down to 0
	note D_, 6
;Bar 90
	note A_, 2
	note G_, 2
	octave 2
	;note C_, 0 | WARNING: Rounded down to 0
	octave 1
	note G_, 2
	octave 2
	;note C_, 0 | WARNING: Rounded down to 0
	octave 1
	note G_, 4
	;note F_, 0 | WARNING: Rounded down to 0
	;note A_, 0 | WARNING: Rounded down to 0
	note B_, 6
;Bar 91
	note B_, 2
	note A_, 2
	;note B_, 0 | WARNING: Rounded down to 0
	;note F_, 0 | WARNING: Rounded down to 0
	note D_, 2
	;note B_, 0 | WARNING: Rounded down to 0
	;note F_, 0 | WARNING: Rounded down to 0
	note D_, 4
	;note B_, 0 | WARNING: Rounded down to 0
	note E_, 4
;Bar 92
	note A_, 2
	;note A_, 0 | WARNING: Rounded down to 0
	note E_, 6
	note G_, 4
	note G_, 4
;Bar 93
	;note A_, 0 | WARNING: Rounded down to 0
	note E_, 4
	octave 2
	note G_, 2
	octave 3
	note C_, 2
	note C_, 2
	octave 2
	note A_, 2
	note G_, 2
;Bar 94
	rest 2
	note G_, 2
	;note A_, 0 | WARNING: Rounded down to 0
	;note E_, 0 | WARNING: Rounded down to 0
	note C_, 2
	note G_, 2
	note A_, 2
	;note G_, 0 | WARNING: Rounded down to 0
	;note F_, 0 | WARNING: Rounded down to 0
	note D_, 2
	note A_, 2
	note G_, 2
;Bar 95
	;note A_, 0 | WARNING: Rounded down to 0
	note C_, 2
	note G_, 2
	note A_, 2
	octave 3
	;note C_, 0 | WARNING: Rounded down to 0
	octave 2
	note E_, 10
;Bar 96
	rest 2
	note G_, 2
	;note A_, 0 | WARNING: Rounded down to 0
	;note F_, 0 | WARNING: Rounded down to 0
	note C_, 2
	note G_, 2
	note A_, 2
	note A_, 4
	octave 3
	;note E_, 0 | WARNING: Rounded down to 0
	octave 2
	;note A_, 0 | WARNING: Rounded down to 0
	note F_, 6
;Bar 97
	octave 3
	note D_, 2
	;note D_, 0 | WARNING: Rounded down to 0
	octave 2
	;note A_, 0 | WARNING: Rounded down to 0
	note F_, 4
	octave 3
	note C_, 2
	octave 2
	note A_, 4
;Bar 98
	rest 2
	note A_, 2
	note A_, 2
	octave 3
	;note C_, 0 | WARNING: Rounded down to 0
	octave 2
	;note A_, 0 | WARNING: Rounded down to 0
	note F_, 4
	octave 3
	note C_, 2
	note C_, 2
	octave 2
	;note B_, 0 | WARNING: Rounded down to 0
	;note E_, 0 | WARNING: Rounded down to 0
	note G#, 4
;Bar 99
	;note B_, 0 | WARNING: Rounded down to 0
	;note G#, 0 | WARNING: Rounded down to 0
	note E_, 4
	;note B_, 0 | WARNING: Rounded down to 0
	;note G#, 0 | WARNING: Rounded down to 0
	note D_, 2
	;note B_, 0 | WARNING: Rounded down to 0
	;note G#, 0 | WARNING: Rounded down to 0
	note D_, 2
	;note B_, 0 | WARNING: Rounded down to 0
	;note G#, 0 | WARNING: Rounded down to 0
	note D_, 4
	;note E_, 0 | WARNING: Rounded down to 0
	octave 3
	;note C_, 0 | WARNING: Rounded down to 0
	octave 2
	note A_, 6
;Bar 100
	note A_, 2
	;note A_, 0 | WARNING: Rounded down to 0
	;note E_, 0 | WARNING: Rounded down to 0
	note C_, 4
	note G_, 2
	note E_, 4
;Bar 101
	rest 2
	octave 3
	note C_, 2
	octave 2
	note A_, 1
	note G_, 1
	note E_, 2
	note G_, 1
	note E_, 1
	note D_, 2
	note D_, 1
	note C_, 1
	octave 1
	note A_, 2
;Bar 102
	rest 2
	octave 2
	note G_, 2
	;note A_, 0 | WARNING: Rounded down to 0
	;note E_, 0 | WARNING: Rounded down to 0
	note C_, 2
	note G_, 2
	note A_, 2
	;note G_, 0 | WARNING: Rounded down to 0
	;note F_, 0 | WARNING: Rounded down to 0
	note D_, 2
	note A_, 2
	note G_, 2
;Bar 103
	;note A_, 0 | WARNING: Rounded down to 0
	note C_, 2
	note G_, 2
	note A_, 2
	octave 3
	;note C_, 0 | WARNING: Rounded down to 0
	octave 2
	note E_, 10
;Bar 104
	rest 2
	note G_, 2
	;note A_, 0 | WARNING: Rounded down to 0
	;note F_, 0 | WARNING: Rounded down to 0
	note C_, 2
	note G_, 2
	note A_, 2
	note A_, 4
	octave 3
	;note E_, 0 | WARNING: Rounded down to 0
	octave 2
	;note A_, 0 | WARNING: Rounded down to 0
	note F_, 6
;Bar 105
	octave 3
	note D_, 2
	;note D_, 0 | WARNING: Rounded down to 0
	octave 2
	;note A_, 0 | WARNING: Rounded down to 0
	note F_, 4
	octave 3
	note C_, 2
	octave 2
	note A_, 4
;Bar 106
	rest 2
	note A_, 2
	note A_, 2
	octave 3
	;note C_, 0 | WARNING: Rounded down to 0
	octave 2
	;note A_, 0 | WARNING: Rounded down to 0
	note F_, 4
	octave 3
	note C_, 2
	note C_, 2
	octave 2
	;note B_, 0 | WARNING: Rounded down to 0
	;note E_, 0 | WARNING: Rounded down to 0
	note G#, 4
;Bar 107
	;note B_, 0 | WARNING: Rounded down to 0
	;note G#, 0 | WARNING: Rounded down to 0
	note E_, 4
	;note B_, 0 | WARNING: Rounded down to 0
	;note G#, 0 | WARNING: Rounded down to 0
	note D_, 2
	;note B_, 0 | WARNING: Rounded down to 0
	;note G#, 0 | WARNING: Rounded down to 0
	note D_, 2
	;note B_, 0 | WARNING: Rounded down to 0
	;note G#, 0 | WARNING: Rounded down to 0
	note D_, 4
	;note E_, 0 | WARNING: Rounded down to 0
	octave 3
	;note C_, 0 | WARNING: Rounded down to 0
	octave 2
	note A_, 4
;Bar 108
	note B_, 2
	note A_, 4
	rest 10
;Bar 109
	;note D#, 0 | WARNING: Rounded down to 0
	;note C_, 0 | WARNING: Rounded down to 0
	octave 1
	note A_, 2
	octave 2
	;note D#, 0 | WARNING: Rounded down to 0
	;note C_, 0 | WARNING: Rounded down to 0
	octave 1
	note A_, 2
	octave 2
	;note D#, 0 | WARNING: Rounded down to 0
	;note C_, 0 | WARNING: Rounded down to 0
	octave 1
	note A_, 4
	octave 2
	;note D#, 0 | WARNING: Rounded down to 0
	;note C_, 0 | WARNING: Rounded down to 0
	octave 1
	note A_, 2
	octave 2
	;note D#, 0 | WARNING: Rounded down to 0
	;note C_, 0 | WARNING: Rounded down to 0
	octave 1
	note A_, 2
	octave 2
	;note C_, 0 | WARNING: Rounded down to 0
	;note F#, 0 | WARNING: Rounded down to 0
	note D#, 4
;Bar 110
	;note F#, 0 | WARNING: Rounded down to 0
	;note D#, 0 | WARNING: Rounded down to 0
	note C_, 2
	;note F#, 0 | WARNING: Rounded down to 0
	;note D#, 0 | WARNING: Rounded down to 0
	note C_, 2
	;note F#, 0 | WARNING: Rounded down to 0
	;note D#, 0 | WARNING: Rounded down to 0
	note C_, 4
	;note F#, 0 | WARNING: Rounded down to 0
	;note D#, 0 | WARNING: Rounded down to 0
	note C_, 2
	;note F#, 0 | WARNING: Rounded down to 0
	;note D#, 0 | WARNING: Rounded down to 0
	note C_, 2
	;note A_, 0 | WARNING: Rounded down to 0
	;note D#, 0 | WARNING: Rounded down to 0
	note F#, 4
;Bar 111
	;note A_, 0 | WARNING: Rounded down to 0
	;note F#, 0 | WARNING: Rounded down to 0
	note D#, 2
	;note A_, 0 | WARNING: Rounded down to 0
	;note F#, 0 | WARNING: Rounded down to 0
	note D#, 2
	;note A_, 0 | WARNING: Rounded down to 0
	;note F#, 0 | WARNING: Rounded down to 0
	note D#, 4
	;note A_, 0 | WARNING: Rounded down to 0
	;note F#, 0 | WARNING: Rounded down to 0
	note D#, 2
	;note A_, 0 | WARNING: Rounded down to 0
	;note F#, 0 | WARNING: Rounded down to 0
	note D#, 2
	octave 3
	;note C_, 0 | WARNING: Rounded down to 0
	octave 2
	;note A_, 0 | WARNING: Rounded down to 0
	note F#, 4
;Bar 112
	octave 3
	;note C_, 0 | WARNING: Rounded down to 0
	octave 2
	;note A_, 0 | WARNING: Rounded down to 0
	note F#, 2
	octave 3
	;note C_, 0 | WARNING: Rounded down to 0
	octave 2
	;note A_, 0 | WARNING: Rounded down to 0
	note F#, 2
	octave 3
	;note C_, 0 | WARNING: Rounded down to 0
	octave 2
	;note A_, 0 | WARNING: Rounded down to 0
	note F#, 4
	octave 3
	;note D#, 0 | WARNING: Rounded down to 0
	;note C_, 0 | WARNING: Rounded down to 0
	octave 2
	note A_, 2
	octave 3
	;note D#, 0 | WARNING: Rounded down to 0
	;note C_, 0 | WARNING: Rounded down to 0
	octave 2
	note A_, 2
	octave 3
	;note E_, 0 | WARNING: Rounded down to 0
	;note C_, 0 | WARNING: Rounded down to 0
	octave 2
	note A_, 6
;Bar 113
	octave 3
	;note E_, 0 | WARNING: Rounded down to 0
	;note C_, 0 | WARNING: Rounded down to 0
	octave 2
	note A_, 12
;Bar 114
	rest 4
	octave 3
	;note E_, 0 | WARNING: Rounded down to 0
	octave 2
	;note B_, 0 | WARNING: Rounded down to 0
	note G#, 4
	rest 2
	octave 3
	note C_, 2
	note C_, 2
	octave 2
	note B_, 2
;Bar 115
	;note A_, 0 | WARNING: Rounded down to 0
	;note E_, 0 | WARNING: Rounded down to 0
	note C_, 4
	;note A_, 0 | WARNING: Rounded down to 0
	;note E_, 0 | WARNING: Rounded down to 0
	note C_, 4
	rest 2
	;note G_, 0 | WARNING: Rounded down to 0
	;note D_, 0 | WARNING: Rounded down to 0
	octave 1
	note B_, 4
	octave 2
	;note A_, 0 | WARNING: Rounded down to 0
	;note E_, 0 | WARNING: Rounded down to 0
	note C_, 4
;Bar 116
	;note A_, 0 | WARNING: Rounded down to 0
	;note E_, 0 | WARNING: Rounded down to 0
	note C_, 2
	;note A_, 0 | WARNING: Rounded down to 0
	;note E_, 0 | WARNING: Rounded down to 0
	note C_, 2
	;note A_, 0 | WARNING: Rounded down to 0
	;note E_, 0 | WARNING: Rounded down to 0
	note C_, 2
	;note A_, 0 | WARNING: Rounded down to 0
	;note E_, 0 | WARNING: Rounded down to 0
	note C_, 2
	;note A_, 0 | WARNING: Rounded down to 0
	;note E_, 0 | WARNING: Rounded down to 0
	note C_, 2
	;note A_, 0 | WARNING: Rounded down to 0
	;note E_, 0 | WARNING: Rounded down to 0
	note C_, 2
	;note A_, 0 | WARNING: Rounded down to 0
	;note E_, 0 | WARNING: Rounded down to 0
	note C_, 4
;Bar 117
	;note G_, 0 | WARNING: Rounded down to 0
	octave 1
	note B_, 2
	octave 2
	;note G_, 0 | WARNING: Rounded down to 0
	octave 1
	note B_, 2
	octave 2
	;note G_, 0 | WARNING: Rounded down to 0
	octave 1
	note B_, 2
	octave 2
	;note G_, 0 | WARNING: Rounded down to 0
	octave 1
	note B_, 2
	octave 2
	;note G_, 0 | WARNING: Rounded down to 0
	octave 1
	note B_, 2
	octave 2
	note E_, 2
	octave 1
	;note B_, 0 | WARNING: Rounded down to 0
	octave 2
	note G_, 4
;Bar 118
	;note A_, 0 | WARNING: Rounded down to 0
	octave 1
	note B_, 2
	rest 8
	octave 2
	note G_, 2
	;note G_, 0 | WARNING: Rounded down to 0
	octave 1
	note A_, 4
;Bar 119
	octave 2
	;note F_, 0 | WARNING: Rounded down to 0
	octave 1
	note A_, 2
	octave 2
	;note F_, 0 | WARNING: Rounded down to 0
	octave 1
	note A_, 2
	octave 2
	;note F_, 0 | WARNING: Rounded down to 0
	octave 1
	note A_, 4
	octave 2
	;note F_, 0 | WARNING: Rounded down to 0
	octave 1
	note A_, 2
	octave 2
	;note F_, 0 | WARNING: Rounded down to 0
	octave 1
	note A_, 2
	octave 2
	;note G_, 0 | WARNING: Rounded down to 0
	octave 1
	note A_, 4
;Bar 120
	octave 2
	;note F_, 0 | WARNING: Rounded down to 0
	octave 1
	note A_, 2
	octave 2
	;note F_, 0 | WARNING: Rounded down to 0
	octave 1
	note A_, 2
	octave 2
	;note F_, 0 | WARNING: Rounded down to 0
	octave 1
	note A_, 4
	octave 2
	;note F_, 0 | WARNING: Rounded down to 0
	octave 1
	note A_, 2
	octave 2
	;note F_, 0 | WARNING: Rounded down to 0
	octave 1
	note A_, 2
	;note G_, 0 | WARNING: Rounded down to 0
	octave 2
	;note E_, 0 | WARNING: Rounded down to 0
	note C_, 4
;Bar 121
	;note E_, 0 | WARNING: Rounded down to 0
	;note C_, 0 | WARNING: Rounded down to 0
	octave 1
	note G_, 2
	octave 2
	;note E_, 0 | WARNING: Rounded down to 0
	;note C_, 0 | WARNING: Rounded down to 0
	octave 1
	note G_, 2
	octave 2
	;note E_, 0 | WARNING: Rounded down to 0
	;note C_, 0 | WARNING: Rounded down to 0
	octave 1
	note G_, 4
	octave 2
	note D_, 2
	note C_, 2
	note D_, 4
;Bar 122
	;note E_, 0 | WARNING: Rounded down to 0
	octave 1
	note B_, 2
	rest 6
	octave 3
	note C_, 2
	note C_, 2
	octave 2
	note B_, 2
;Bar 123
	;note A_, 0 | WARNING: Rounded down to 0
	;note E_, 0 | WARNING: Rounded down to 0
	note C_, 4
	;note A_, 0 | WARNING: Rounded down to 0
	;note E_, 0 | WARNING: Rounded down to 0
	note C_, 4
	rest 2
	;note G_, 0 | WARNING: Rounded down to 0
	;note D_, 0 | WARNING: Rounded down to 0
	octave 1
	note B_, 4
	octave 2
	;note A_, 0 | WARNING: Rounded down to 0
	;note E_, 0 | WARNING: Rounded down to 0
	note C_, 4
;Bar 124
	;note A_, 0 | WARNING: Rounded down to 0
	;note E_, 0 | WARNING: Rounded down to 0
	note C_, 2
	;note A_, 0 | WARNING: Rounded down to 0
	;note E_, 0 | WARNING: Rounded down to 0
	note C_, 2
	;note A_, 0 | WARNING: Rounded down to 0
	;note E_, 0 | WARNING: Rounded down to 0
	note C_, 2
	;note A_, 0 | WARNING: Rounded down to 0
	;note E_, 0 | WARNING: Rounded down to 0
	note C_, 2
	;note A_, 0 | WARNING: Rounded down to 0
	;note E_, 0 | WARNING: Rounded down to 0
	note C_, 2
	;note A_, 0 | WARNING: Rounded down to 0
	;note E_, 0 | WARNING: Rounded down to 0
	note C_, 2
	;note A_, 0 | WARNING: Rounded down to 0
	;note E_, 0 | WARNING: Rounded down to 0
	note C_, 4
;Bar 125
	;note G_, 0 | WARNING: Rounded down to 0
	octave 1
	note B_, 2
	octave 2
	;note G_, 0 | WARNING: Rounded down to 0
	octave 1
	note B_, 2
	octave 2
	;note G_, 0 | WARNING: Rounded down to 0
	octave 1
	note B_, 2
	octave 2
	;note G_, 0 | WARNING: Rounded down to 0
	octave 1
	note B_, 2
	octave 2
	;note G_, 0 | WARNING: Rounded down to 0
	octave 1
	note B_, 2
	octave 2
	note E_, 2
	octave 1
	;note B_, 0 | WARNING: Rounded down to 0
	octave 2
	note G_, 4
;Bar 126
	;note A_, 0 | WARNING: Rounded down to 0
	octave 1
	note B_, 2
	rest 8
	octave 2
	note G_, 2
	;note G_, 0 | WARNING: Rounded down to 0
	octave 1
	note A_, 4
;Bar 127
	octave 2
	;note F_, 0 | WARNING: Rounded down to 0
	octave 1
	note A_, 2
	octave 2
	;note F_, 0 | WARNING: Rounded down to 0
	octave 1
	note A_, 2
	octave 2
	;note F_, 0 | WARNING: Rounded down to 0
	octave 1
	note A_, 4
	octave 2
	;note F_, 0 | WARNING: Rounded down to 0
	octave 1
	note A_, 2
	octave 2
	;note F_, 0 | WARNING: Rounded down to 0
	octave 1
	note A_, 2
	octave 2
	;note G_, 0 | WARNING: Rounded down to 0
	octave 1
	note A_, 4
;Bar 128
	octave 2
	;note F_, 0 | WARNING: Rounded down to 0
	octave 1
	note A_, 2
	octave 2
	;note F_, 0 | WARNING: Rounded down to 0
	octave 1
	note A_, 2
	octave 2
	;note F_, 0 | WARNING: Rounded down to 0
	octave 1
	note A_, 4
	octave 2
	;note F_, 0 | WARNING: Rounded down to 0
	octave 1
	note A_, 2
	octave 2
	;note F_, 0 | WARNING: Rounded down to 0
	octave 1
	note A_, 2
	;note G_, 0 | WARNING: Rounded down to 0
	octave 2
	;note E_, 0 | WARNING: Rounded down to 0
	note C_, 4
;Bar 129
	;note E_, 0 | WARNING: Rounded down to 0
	;note C_, 0 | WARNING: Rounded down to 0
	octave 1
	note G_, 2
	octave 2
	;note E_, 0 | WARNING: Rounded down to 0
	;note C_, 0 | WARNING: Rounded down to 0
	octave 1
	note G_, 2
	octave 2
	;note E_, 0 | WARNING: Rounded down to 0
	;note C_, 0 | WARNING: Rounded down to 0
	octave 1
	note G_, 4
	octave 2
	note D_, 2
	note C_, 2
	note D_, 4
;Bar 130
	;note E_, 0 | WARNING: Rounded down to 0
	octave 1
	note B_, 2
	rest 6
	octave 3
	note C_, 2
	note C_, 2
	octave 2
	note B_, 2
;Bar 131
	;note A_, 0 | WARNING: Rounded down to 0
	;note E_, 0 | WARNING: Rounded down to 0
	note C_, 4
	;note A_, 0 | WARNING: Rounded down to 0
	;note E_, 0 | WARNING: Rounded down to 0
	note C_, 4
	rest 2
	;note G_, 0 | WARNING: Rounded down to 0
	;note D_, 0 | WARNING: Rounded down to 0
	octave 1
	note B_, 4
	octave 2
	;note A_, 0 | WARNING: Rounded down to 0
	;note E_, 0 | WARNING: Rounded down to 0
	note C_, 4
;Bar 132
	;note A_, 0 | WARNING: Rounded down to 0
	;note E_, 0 | WARNING: Rounded down to 0
	note C_, 2
	;note A_, 0 | WARNING: Rounded down to 0
	;note E_, 0 | WARNING: Rounded down to 0
	note C_, 2
	;note A_, 0 | WARNING: Rounded down to 0
	;note E_, 0 | WARNING: Rounded down to 0
	note C_, 2
	;note A_, 0 | WARNING: Rounded down to 0
	;note E_, 0 | WARNING: Rounded down to 0
	note C_, 2
	;note A_, 0 | WARNING: Rounded down to 0
	;note E_, 0 | WARNING: Rounded down to 0
	note C_, 2
	;note A_, 0 | WARNING: Rounded down to 0
	;note E_, 0 | WARNING: Rounded down to 0
	note C_, 2
	;note A_, 0 | WARNING: Rounded down to 0
	;note E_, 0 | WARNING: Rounded down to 0
	note C_, 4
;Bar 133
	;note G_, 0 | WARNING: Rounded down to 0
	octave 1
	note B_, 2
	octave 2
	;note G_, 0 | WARNING: Rounded down to 0
	octave 1
	note B_, 2
	octave 2
	;note G_, 0 | WARNING: Rounded down to 0
	octave 1
	note B_, 2
	octave 2
	;note G_, 0 | WARNING: Rounded down to 0
	octave 1
	note B_, 2
	octave 2
	;note G_, 0 | WARNING: Rounded down to 0
	octave 1
	note B_, 2
	octave 2
	note E_, 2
	octave 1
	;note B_, 0 | WARNING: Rounded down to 0
	octave 2
	note G_, 4
;Bar 134
	;note A_, 0 | WARNING: Rounded down to 0
	octave 1
	note B_, 2
	rest 8
	octave 2
	note G_, 2
	;note G_, 0 | WARNING: Rounded down to 0
	octave 1
	note A_, 4
;Bar 135
	octave 2
	;note F_, 0 | WARNING: Rounded down to 0
	octave 1
	note A_, 2
	octave 2
	;note F_, 0 | WARNING: Rounded down to 0
	octave 1
	note A_, 2
	octave 2
	;note F_, 0 | WARNING: Rounded down to 0
	octave 1
	note A_, 4
	octave 2
	;note F_, 0 | WARNING: Rounded down to 0
	octave 1
	note A_, 2
	octave 2
	;note F_, 0 | WARNING: Rounded down to 0
	octave 1
	note A_, 2
	octave 2
	;note G_, 0 | WARNING: Rounded down to 0
	octave 1
	note A_, 4
;Bar 136
	octave 2
	;note F_, 0 | WARNING: Rounded down to 0
	octave 1
	note A_, 2
	octave 2
	;note F_, 0 | WARNING: Rounded down to 0
	octave 1
	note A_, 2
	octave 2
	;note F_, 0 | WARNING: Rounded down to 0
	octave 1
	note A_, 4
	octave 2
	;note F_, 0 | WARNING: Rounded down to 0
	octave 1
	note A_, 2
	octave 2
	;note F_, 0 | WARNING: Rounded down to 0
	octave 1
	note A_, 2
	;note G_, 0 | WARNING: Rounded down to 0
	octave 2
	;note E_, 0 | WARNING: Rounded down to 0
	note C_, 4
;Bar 137
	;note E_, 0 | WARNING: Rounded down to 0
	;note C_, 0 | WARNING: Rounded down to 0
	octave 1
	note G_, 2
	octave 2
	;note E_, 0 | WARNING: Rounded down to 0
	;note C_, 0 | WARNING: Rounded down to 0
	octave 1
	note G_, 2
	octave 2
	;note E_, 0 | WARNING: Rounded down to 0
	;note C_, 0 | WARNING: Rounded down to 0
	octave 1
	note G_, 4
	octave 2
	note D_, 2
	note C_, 2
	note D_, 4
;Bar 138
	;note E_, 0 | WARNING: Rounded down to 0
	octave 1
	note B_, 2
	rest 6
	octave 3
	note C_, 2
	note C_, 2
	octave 2
	note B_, 2
;Bar 139
	;note A_, 0 | WARNING: Rounded down to 0
	;note E_, 0 | WARNING: Rounded down to 0
	note C_, 4
	;note A_, 0 | WARNING: Rounded down to 0
	;note E_, 0 | WARNING: Rounded down to 0
	note C_, 4
	rest 2
	;note G_, 0 | WARNING: Rounded down to 0
	;note D_, 0 | WARNING: Rounded down to 0
	octave 1
	note B_, 4
	octave 2
	;note A_, 0 | WARNING: Rounded down to 0
	;note E_, 0 | WARNING: Rounded down to 0
	note C_, 4
;Bar 140
	;note A_, 0 | WARNING: Rounded down to 0
	;note E_, 0 | WARNING: Rounded down to 0
	note C_, 2
	;note A_, 0 | WARNING: Rounded down to 0
	;note E_, 0 | WARNING: Rounded down to 0
	note C_, 2
	;note A_, 0 | WARNING: Rounded down to 0
	;note E_, 0 | WARNING: Rounded down to 0
	note C_, 2
	;note A_, 0 | WARNING: Rounded down to 0
	;note E_, 0 | WARNING: Rounded down to 0
	note C_, 2
	;note A_, 0 | WARNING: Rounded down to 0
	;note E_, 0 | WARNING: Rounded down to 0
	note C_, 2
	;note A_, 0 | WARNING: Rounded down to 0
	;note E_, 0 | WARNING: Rounded down to 0
	note C_, 2
	;note A_, 0 | WARNING: Rounded down to 0
	;note E_, 0 | WARNING: Rounded down to 0
	note C_, 4
;Bar 141
	;note G_, 0 | WARNING: Rounded down to 0
	octave 1
	note B_, 2
	octave 2
	;note G_, 0 | WARNING: Rounded down to 0
	octave 1
	note B_, 2
	octave 2
	;note G_, 0 | WARNING: Rounded down to 0
	octave 1
	note B_, 2
	octave 2
	;note G_, 0 | WARNING: Rounded down to 0
	octave 1
	note B_, 2
	octave 2
	;note G_, 0 | WARNING: Rounded down to 0
	octave 1
	note B_, 2
	octave 2
	note E_, 2
	octave 1
	;note B_, 0 | WARNING: Rounded down to 0
	octave 2
	note G_, 4
;Bar 142
	;note A_, 0 | WARNING: Rounded down to 0
	octave 1
	note B_, 2
	rest 8
	octave 2
	note G_, 2
	;note G_, 0 | WARNING: Rounded down to 0
	octave 1
	note A_, 4
;Bar 143
	octave 2
	;note F_, 0 | WARNING: Rounded down to 0
	octave 1
	note A_, 2
	octave 2
	;note F_, 0 | WARNING: Rounded down to 0
	octave 1
	note A_, 2
	octave 2
	;note F_, 0 | WARNING: Rounded down to 0
	octave 1
	note A_, 4
	octave 2
	;note F_, 0 | WARNING: Rounded down to 0
	octave 1
	note A_, 2
	octave 2
	;note F_, 0 | WARNING: Rounded down to 0
	octave 1
	note A_, 2
	octave 2
	;note G_, 0 | WARNING: Rounded down to 0
	octave 1
	note A_, 4
;Bar 144
	octave 2
	;note F_, 0 | WARNING: Rounded down to 0
	octave 1
	note A_, 2
	octave 2
	;note F_, 0 | WARNING: Rounded down to 0
	octave 1
	note A_, 2
	octave 2
	;note F_, 0 | WARNING: Rounded down to 0
	octave 1
	note A_, 4
	octave 2
	;note F_, 0 | WARNING: Rounded down to 0
	octave 1
	note A_, 2
	octave 2
	;note F_, 0 | WARNING: Rounded down to 0
	octave 1
	note A_, 2
	;note G_, 0 | WARNING: Rounded down to 0
	octave 2
	;note E_, 0 | WARNING: Rounded down to 0
	note C_, 4
;Bar 145
	;note E_, 0 | WARNING: Rounded down to 0
	;note C_, 0 | WARNING: Rounded down to 0
	octave 1
	note G_, 2
	octave 2
	;note E_, 0 | WARNING: Rounded down to 0
	;note C_, 0 | WARNING: Rounded down to 0
	octave 1
	note G_, 2
	octave 2
	;note E_, 0 | WARNING: Rounded down to 0
	;note C_, 0 | WARNING: Rounded down to 0
	octave 1
	note G_, 4
	octave 2
	note D_, 2
	note C_, 2
	note D_, 4
;Bar 146
	;note E_, 0 | WARNING: Rounded down to 0
	octave 1
	note B_, 2
	rest 6
	octave 3
	note C_, 2
	note C_, 2
	octave 2
	note B_, 2
;Bar 147
	;note A_, 0 | WARNING: Rounded down to 0
	;note E_, 0 | WARNING: Rounded down to 0
	note C_, 4
	;note A_, 0 | WARNING: Rounded down to 0
	;note E_, 0 | WARNING: Rounded down to 0
	note C_, 4
	rest 2
	;note G_, 0 | WARNING: Rounded down to 0
	;note D_, 0 | WARNING: Rounded down to 0
	octave 1
	note B_, 4
	octave 2
	;note C_, 0 | WARNING: Rounded down to 0
	;note A_, 0 | WARNING: Rounded down to 0
	note E_, 4
;Bar 148
	;note A_, 0 | WARNING: Rounded down to 0
	;note E_, 0 | WARNING: Rounded down to 0
	note C_, 2
	;note A_, 0 | WARNING: Rounded down to 0
	;note E_, 0 | WARNING: Rounded down to 0
	note C_, 2
	;note A_, 0 | WARNING: Rounded down to 0
	;note E_, 0 | WARNING: Rounded down to 0
	note C_, 2
	;note A_, 0 | WARNING: Rounded down to 0
	;note E_, 0 | WARNING: Rounded down to 0
	note C_, 2
	;note A_, 0 | WARNING: Rounded down to 0
	;note E_, 0 | WARNING: Rounded down to 0
	note C_, 2
	;note A_, 0 | WARNING: Rounded down to 0
	;note E_, 0 | WARNING: Rounded down to 0
	note C_, 2
	;note A_, 0 | WARNING: Rounded down to 0
	;note E_, 0 | WARNING: Rounded down to 0
	note C_, 4
;Bar 149
	;note G_, 0 | WARNING: Rounded down to 0
	octave 1
	note B_, 2
	octave 2
	;note G_, 0 | WARNING: Rounded down to 0
	octave 1
	note B_, 2
	octave 2
	;note G_, 0 | WARNING: Rounded down to 0
	octave 1
	note B_, 2
	octave 2
	;note G_, 0 | WARNING: Rounded down to 0
	octave 1
	note B_, 2
	octave 2
	;note G_, 0 | WARNING: Rounded down to 0
	octave 1
	note B_, 2
	octave 2
	note E_, 2
	;note G_, 0 | WARNING: Rounded down to 0
	octave 1
	note B_, 4
;Bar 150
	octave 2
	;note A_, 0 | WARNING: Rounded down to 0
	octave 1
	note B_, 2
	rest 4
	octave 3
	;note E_, 0 | WARNING: Rounded down to 0
	octave 2
	;note B_, 0 | WARNING: Rounded down to 0
	note G_, 4
	octave 3
	note D_, 4
;Bar 151
	;note C_, 0 | WARNING: Rounded down to 0
	octave 2
	note F_, 8
	note A_, 16
;Bar 152
	note A_, 3
	note G_, 2
	note A_, 3
;Bar 153
	octave 3
	;note E_, 0 | WARNING: Rounded down to 0
	;note C_, 0 | WARNING: Rounded down to 0
	octave 2
	note G_, 12
	octave 3
	note F_, 2
	note E_, 2
;Bar 154
	;note D_, 0 | WARNING: Rounded down to 0
	octave 2
	;note B_, 0 | WARNING: Rounded down to 0
	note G_, 8
	octave 3
	note D_, 3
	note C_, 2
	octave 2
	note B_, 3
;Bar 155
	octave 3
	;note C_, 0 | WARNING: Rounded down to 0
	octave 2
	note E_, 2
	note B_, 2
	note A_, 12
;Bar 156
	rest 8
	note A_, 3
	note G_, 2
	note A_, 3
;Bar 157
	octave 3
	;note E_, 0 | WARNING: Rounded down to 0
	octave 2
	;note B_, 0 | WARNING: Rounded down to 0
	note G_, 12
	octave 3
	note F_, 2
	note E_, 2
;Bar 158
	;note D_, 0 | WARNING: Rounded down to 0
	octave 2
	;note B_, 0 | WARNING: Rounded down to 0
	note G_, 8
	octave 3
	note D_, 3
	note C_, 2
	octave 2
	note B_, 3
;Bar 159
	octave 3
	;note C_, 0 | WARNING: Rounded down to 0
	octave 2
	note F_, 2
	note B_, 2
	note A_, 12
;Bar 160
	rest 8
	note A_, 3
	note G_, 2
	note A_, 3
;Bar 161
	octave 3
	;note E_, 0 | WARNING: Rounded down to 0
	;note C_, 0 | WARNING: Rounded down to 0
	octave 2
	note G_, 12
	octave 3
	note F_, 2
	note E_, 2
;Bar 162
	;note D_, 0 | WARNING: Rounded down to 0
	octave 2
	;note B_, 0 | WARNING: Rounded down to 0
	note G_, 8
	octave 3
	note D_, 3
	note C_, 2
	octave 2
	note B_, 3
;Bar 163
	octave 3
	;note C_, 0 | WARNING: Rounded down to 0
	octave 2
	note E_, 2
	note B_, 2
	note A_, 12
;Bar 164
	rest 8
	volume_envelope 12, 7
	note A_, 3
	volume_envelope 11, 7
	note G_, 2
	note A_, 3
;Bar 165
	octave 3
	;note E_, 0 | WARNING: Rounded down to 0
	octave 2
	;note B_, 0 | WARNING: Rounded down to 0
	note G_, 12
	octave 3
	volume_envelope 9, 7
	note F_, 2
	note E_, 2
;Bar 166
	;note D_, 0 | WARNING: Rounded down to 0
	octave 2
	;note B_, 0 | WARNING: Rounded down to 0
	note G_, 8
	octave 3
	volume_envelope 8, 7
	note D_, 3
	note C_, 2
	octave 2
	volume_envelope 7, 7
	note B_, 3
;Bar 167
	octave 3
	;note C_, 0 | WARNING: Rounded down to 0
	octave 2
	note F_, 2
	note B_, 2
	volume_envelope 6, 7
	note A_, 12
;Bar 168
	rest 8
	volume_envelope 4, 7
	note A_, 3
	note G_, 2
	note A_, 3
;Bar 169
	octave 3
	volume_envelope 3, 7
	;note E_, 0 | WARNING: Rounded down to 0
	;note C_, 0 | WARNING: Rounded down to 0
	octave 2
	note G_, 12
	octave 3
	volume_envelope 2, 7
	note F_, 2
	note E_, 2
;Bar 170
	volume_envelope 1, 7
	;note D_, 0 | WARNING: Rounded down to 0
	octave 2
	;note B_, 0 | WARNING: Rounded down to 0
	note G_, 8
	octave 3
	volume_envelope 10, 7
	note D_, 3
	note C_, 2
	octave 2
	note B_, 3
	sound_loop 0, Music_Hero_Ch1

; ============================================================================================================

Music_Hero_Ch2:
	duty_cycle 1
	note_type 12, 10, 7
;Bar 1
	rest 16
	rest 16
	rest 16
	rest 16
	rest 16
	rest 16
	rest 16
	rest 16
	rest 4
;Bar 9
	octave 3
	volume_envelope 14, 7
	note E_, 2
	note E_, 2
	note E_, 4
	note E_, 2
	note E_, 4
;Bar 10
	note E_, 4
	note F_, 6
	note E_, 4
;Bar 11
	note F_, 4
	note E_, 2
	note E_, 2
	note D_, 4
	note D_, 2
	note E_, 6
;Bar 12
	rest 12
;Bar 13
	note G_, 4
	note F_, 2
	note F_, 4
	note F_, 4
	note G_, 6
;Bar 14
	note F_, 2
	note F_, 6
	note F_, 2
	note E_, 6
;Bar 15
	note E_, 2
	note E_, 6
	note D_, 2
	note E_, 6
;Bar 16
	rest 16
;Bar 17
	note A_, 2
	note A_, 2
	note A_, 4
	note A_, 2
	note A_, 6
;Bar 18
	note B_, 8
	note A_, 2
	note A_, 6
;Bar 19
	note G_, 2
	note G_, 6
	note E_, 2
	note G_, 6
;Bar 20
	rest 16
;Bar 21
	note A_, 2
	note A_, 2
	note A_, 4
	note A_, 2
	note A_, 4
;Bar 22
	note A_, 2
	note A_, 2
	note A_, 4
	note B_, 2
	octave 4
	note C_, 4
;Bar 23
	note C_, 4
	octave 3
	note B_, 2
	note B_, 4
	note A_, 4
	note B_, 6
;Bar 24
	rest 6
	note A_, 2
	note A_, 2
	note G_, 2 ; WARNING: Auto-Sync says: Rounded down!
;Bar 25
	note A_, 4
	note A_, 4
	rest 10
;Bar 26
	note A_, 2
	note A_, 2
	note A_, 2
	note A_, 2
	note A_, 2
	note A_, 2
	note A_, 4
;Bar 27
	note G_, 2
	note G_, 2
	note G_, 2
	note G_, 2
	note G_, 2
	note E_, 2
	note G_, 4
;Bar 28
	note A_, 2
	rest 8
	note G_, 2
	note G_, 4
;Bar 29
	note F_, 2
	note F_, 2
	note F_, 4
	note F_, 2
	note F_, 2
	note G_, 4
;Bar 30
	note F_, 2
	note F_, 2
	note F_, 4
	note F_, 2
	note F_, 2
	note E_, 4
;Bar 31
	note E_, 2
	note E_, 2
	note E_, 4
	note D_, 2
	note C_, 2
	note D_, 4
;Bar 32
	note E_, 2
	rest 6
	octave 4
	note C_, 2
	note C_, 2
	octave 3
	note B_, 2
;Bar 33
	note A_, 4
	note A_, 4
	rest 10
;Bar 34
	note A_, 2
	note A_, 2
	note A_, 2
	note A_, 2
	note A_, 2
	note A_, 2
	note A_, 4
;Bar 35
	note G_, 2
	note G_, 2
	note G_, 2
	note G_, 2
	note G_, 2
	note E_, 2
	note G_, 4
;Bar 36
	note A_, 2
	rest 8
	note G_, 2
	note G_, 4
;Bar 37
	note F_, 2
	note F_, 2
	note F_, 4
	note F_, 2
	note F_, 2
	note G_, 4
;Bar 38
	note F_, 2
	note F_, 2
	note F_, 4
	note F_, 2
	note F_, 2
	note E_, 4
;Bar 39
	note E_, 2
	note E_, 2
	note E_, 4
	note D_, 2
	note C_, 2
	note D_, 4
;Bar 40
	note E_, 2
	rest 4
	note D_, 3
	note C_, 2
	octave 2
	note B_, 3
;Bar 41
	octave 3
	note C_, 2
	octave 2
	note B_, 2
	note A_, 4
	rest 16
	rest 16
	rest 16
	rest 16
	rest 16
	rest 16
	rest 16
	rest 12
;Bar 49
	octave 3
	note E_, 2
	note E_, 2
	note E_, 4
	note E_, 2
	note E_, 4
;Bar 50
	note E_, 4
	note F_, 6
	note E_, 4
;Bar 51
	note F_, 4
	note E_, 2
	note E_, 2
	note D_, 4
	note D_, 2
	note E_, 6
;Bar 52
	rest 12
;Bar 53
	note G_, 4
	note F_, 2
	note F_, 4
	note F_, 4
	note G_, 6
;Bar 54
	note F_, 2
	note F_, 6
	note F_, 2
	note E_, 6
;Bar 55
	note E_, 2
	note E_, 6
	note D_, 2
	note E_, 6
;Bar 56
	rest 16
;Bar 57
	note A_, 2
	note A_, 2
	note A_, 4
	note A_, 2
	note A_, 6
;Bar 58
	note B_, 8
	note A_, 2
	note A_, 6
;Bar 59
	note G_, 2
	note G_, 6
	note E_, 2
	note G_, 6
;Bar 60
	rest 14
;Bar 61
	note A_, 2
	note A_, 2
	note A_, 2
	note A_, 4
	note A_, 2
	note A_, 4
;Bar 62
	note A_, 2
	note A_, 2
	note A_, 4
	note B_, 2
	octave 4
	note C_, 4
;Bar 63
	note C_, 4
	octave 3
	note B_, 2
	note B_, 4
	note A_, 4
	note B_, 6
;Bar 64
	rest 6
	note A_, 2
	note A_, 2
	note G_, 2
;Bar 65
	note A_, 4
	note A_, 4
	rest 10
;Bar 66
	note A_, 2
	note A_, 2
	note A_, 2 ; WARNING: Auto-Sync says: Rounded down!
	note A_, 2
	note A_, 2
	note A_, 2
	note A_, 4 ; WARNING: Auto-Sync says: Rounded down!
;Bar 67
	note G_, 2
	note G_, 2
	note G_, 2 ; WARNING: Auto-Sync says: Rounded down!
	note G_, 2
	note G_, 2
	note E_, 2
	note G_, 4 ; WARNING: Auto-Sync says: Rounded down!
;Bar 68
	note A_, 2
	rest 8
	note G_, 2 ; WARNING: Auto-Sync says: Rounded down!
	note G_, 4
;Bar 69
	note F_, 2
	note F_, 2
	note F_, 4 ; WARNING: Auto-Sync says: Rounded down!
	note F_, 2
	note F_, 2
	note G_, 4 ; WARNING: Auto-Sync says: Rounded down!
;Bar 70
	note F_, 2
	note F_, 2
	note F_, 4
	note F_, 2 ; WARNING: Auto-Sync says: Rounded down!
	note F_, 2
	note E_, 4
;Bar 71
	note E_, 2 ; WARNING: Auto-Sync says: Rounded down!
	note E_, 2
	note E_, 4
	note D_, 2
	note C_, 2 ; WARNING: Auto-Sync says: Rounded down!
	note D_, 4
;Bar 72
	note E_, 2
	rest 16
	rest 6
;Bar 73
	octave 4
	note C_, 2
	note C_, 2
	octave 3
	note B_, 2
;Bar 74
	octave 4
	note C_, 4
	note C_, 3
	octave 3
	note B_, 1
	octave 4
	note C_, 2
	octave 3
	note B_, 2
	note A_, 4
;Bar 75
	rest 2
	octave 4
	note C_, 2
	note C_, 2
	note C_, 2
	note C_, 2
	octave 3
	note B_, 2
	note A_, 2
	note A_, 4
;Bar 76
	note G_, 2
	note G_, 2
	note G_, 2
	note G_, 2
	note G_, 2
	note E_, 2
	note G_, 4
;Bar 77
	note A_, 2
	rest 16
	rest 16
	rest 16
	rest 16
	rest 16
	rest 16
	rest 16
	rest 16
	rest 16
	rest 16
	rest 16
	rest 16
	rest 16
	rest 16
	rest 16
	rest 16
	rest 14
;Bar 94
	note G_, 2
	note A_, 2
	note G_, 2
	note A_, 2
	note G_, 2
	note A_, 2
	note G_, 2
;Bar 95
	note A_, 2
	note G_, 2
	note A_, 2
	octave 4
	note C_, 10
;Bar 96
	rest 2
	octave 3
	note G_, 2
	note A_, 2
	note G_, 2
	note A_, 2
	note A_, 4
	octave 4
	note E_, 6
;Bar 97
	note D_, 2
	note D_, 4
	note C_, 2
	octave 3
	note A_, 4
;Bar 98
	rest 2
	note A_, 2
	note A_, 2
	octave 4
	note C_, 4
	note C_, 2
	note C_, 2
	octave 3
	note B_, 4
;Bar 99
	note B_, 4
	note B_, 4
	note B_, 4
	octave 4
	note C_, 6
;Bar 100
	octave 3
	note A_, 2
	note A_, 4
	note G_, 2
	note E_, 4
;Bar 101
	rest 16
	rest 2
;Bar 102
	note G_, 2
	note A_, 2
	note G_, 2
	note A_, 2
	note G_, 2
	note A_, 2
	note G_, 2
;Bar 103
	note A_, 2
	note G_, 2
	note A_, 2
	octave 4
	note C_, 10
;Bar 104
	rest 2
	octave 3
	note G_, 2
	note A_, 2
	note G_, 2
	note A_, 2
	note A_, 4
	octave 4
	note E_, 6
;Bar 105
	note D_, 2
	note D_, 4
	note C_, 2
	octave 3
	note A_, 4
;Bar 106
	rest 2
	note A_, 2
	note A_, 2
	octave 4
	note C_, 4
	note C_, 2
	note C_, 2
	octave 3
	note B_, 4
;Bar 107
	note B_, 4
	note B_, 4
	note B_, 4
	octave 4
	note C_, 4
;Bar 108
	octave 3
	note B_, 2
	note A_, 4
	rest 16
	rest 16
	rest 16
	rest 16
	rest 16
	rest 16
	rest 2
;Bar 114
	octave 4
	note C_, 2
	note C_, 2
	octave 3
	note B_, 2
;Bar 115
	note A_, 4
	note A_, 4
	rest 10
;Bar 116
	note A_, 2
	note A_, 2
	note A_, 2
	note A_, 2
	note A_, 2
	note A_, 2
	note A_, 4
;Bar 117
	note G_, 2
	note G_, 2
	note G_, 2
	note G_, 2
	note G_, 2
	note E_, 2
	note G_, 4
;Bar 118
	note A_, 2
	rest 8
	note G_, 2
	note G_, 4
;Bar 119
	note F_, 2
	note F_, 2
	note F_, 4
	note F_, 2
	note F_, 2
	note G_, 4
;Bar 120
	note F_, 2
	note F_, 2
	note F_, 4
	note F_, 2
	note F_, 2
	note E_, 4
;Bar 121
	note E_, 2
	note E_, 2
	note E_, 4
	note D_, 2
	note C_, 2
	note D_, 4
;Bar 122
	note E_, 2
	rest 6
	octave 4
	note C_, 2
	note C_, 2
	octave 3
	note B_, 2
;Bar 123
	note A_, 4
	note A_, 4
	rest 10
;Bar 124
	note A_, 2
	note A_, 2
	note A_, 2
	note A_, 2
	note A_, 2
	note A_, 2
	note A_, 4
;Bar 125
	note G_, 2
	note G_, 2
	note G_, 2
	note G_, 2
	note G_, 2
	note E_, 2
	note G_, 4
;Bar 126
	note A_, 2
	rest 8
	note G_, 2
	note G_, 4
;Bar 127
	note F_, 2
	note F_, 2
	note F_, 4
	note F_, 2
	note F_, 2
	note G_, 4
;Bar 128
	note F_, 2
	note F_, 2
	note F_, 4
	note F_, 2
	note F_, 2
	note E_, 4
;Bar 129
	note E_, 2
	note E_, 2
	note E_, 4
	note D_, 2
	note C_, 2
	note D_, 4
;Bar 130
	note E_, 2
	rest 6
	octave 4
	note C_, 2
	note C_, 2
	octave 3
	note B_, 2
;Bar 131
	note A_, 4
	note A_, 4
	rest 10
;Bar 132
	note A_, 2
	note A_, 2
	note A_, 2
	note A_, 2
	note A_, 2
	note A_, 2
	note A_, 4
;Bar 133
	note G_, 2
	note G_, 2
	note G_, 2
	note G_, 2
	note G_, 2
	note E_, 2
	note G_, 4
;Bar 134
	note A_, 2
	rest 8
	note G_, 2
	note G_, 4
;Bar 135
	note F_, 2
	note F_, 2
	note F_, 4
	note F_, 2
	note F_, 2
	note G_, 4
;Bar 136
	note F_, 2
	note F_, 2
	note F_, 4
	note F_, 2
	note F_, 2
	note E_, 4
;Bar 137
	note E_, 2
	note E_, 2
	note E_, 4
	note D_, 2
	note C_, 2
	note D_, 4
;Bar 138
	note E_, 2
	rest 6
	octave 4
	note C_, 2
	note C_, 2
	octave 3
	note B_, 2
;Bar 139
	note A_, 4
	note A_, 4
	rest 10
;Bar 140
	note A_, 2
	note A_, 2
	note A_, 2
	note A_, 2
	note A_, 2
	note A_, 2
	note A_, 4
;Bar 141
	note G_, 2
	note G_, 2
	note G_, 2
	note G_, 2
	note G_, 2
	note E_, 2
	note G_, 4
;Bar 142
	note A_, 2
	rest 8
	note G_, 2
	note G_, 4
;Bar 143
	note F_, 2
	note F_, 2
	note F_, 4
	note F_, 2
	note F_, 2
	note G_, 4
;Bar 144
	note F_, 2
	note F_, 2
	note F_, 4
	note F_, 2
	note F_, 2
	note E_, 4
;Bar 145
	note E_, 2
	note E_, 2
	note E_, 4
	note D_, 2
	note C_, 2
	note D_, 4
;Bar 146
	note E_, 2
	rest 6
	octave 4
	note C_, 2
	note C_, 2
	octave 3
	note B_, 2
;Bar 147
	note A_, 4
	note A_, 4
	rest 10
;Bar 148
	note A_, 2
	note A_, 2
	note A_, 2
	note A_, 2
	note A_, 2
	note A_, 2
	note A_, 4
;Bar 149
	note G_, 2
	note G_, 2
	note G_, 2
	note G_, 2
	note G_, 2
	note E_, 2
	note G_, 4
;Bar 150
	note A_, 2
	rest 4
	octave 4
	note E_, 4
	note D_, 4
;Bar 151
	note C_, 8
	octave 3
	note A_, 12
;Bar 152
	rest 4
	note A_, 3
	note G_, 2
	note A_, 3
;Bar 153
	octave 4
	note E_, 12
	note F_, 2
	note E_, 2
;Bar 154
	note D_, 8
	note D_, 3
	note C_, 2
	octave 3
	note B_, 3
;Bar 155
	octave 4
	note C_, 2
	octave 3
	note B_, 2
	note A_, 12
;Bar 156
	rest 8
	note A_, 3
	note G_, 2
	note A_, 3
;Bar 157
	octave 4
	note E_, 12
	note F_, 2
	note E_, 2
;Bar 158
	note D_, 8
	note D_, 3
	note C_, 2
	octave 3
	note B_, 3
;Bar 159
	octave 4
	note C_, 2
	octave 3
	note B_, 2
	note A_, 12
;Bar 160
	rest 8
	note A_, 3
	note G_, 2
	note A_, 3
;Bar 161
	octave 4
	note E_, 12
	note F_, 2
	note E_, 2
;Bar 162
	note D_, 8
	note D_, 3
	note C_, 2
	octave 3
	note B_, 3
;Bar 163
	octave 4
	note C_, 2
	octave 3
	note B_, 2
	note A_, 12
;Bar 164
	rest 8
	volume_envelope 12, 7
	note A_, 3
	volume_envelope 11, 7
	note G_, 2
	note A_, 3
;Bar 165
	octave 4
	note E_, 12
	volume_envelope 9, 7
	note F_, 2
	note E_, 2
;Bar 166
	note D_, 8
	volume_envelope 8, 7
	note D_, 3
	note C_, 2
	octave 3
	volume_envelope 7, 7
	note B_, 3
;Bar 167
	octave 4
	note C_, 2
	octave 3
	note B_, 2
	volume_envelope 6, 7
	note A_, 12
;Bar 168
	rest 8
	volume_envelope 4, 7
	note A_, 3
	note G_, 2
	note A_, 3
;Bar 169
	octave 4
	volume_envelope 3, 7
	note E_, 12
	volume_envelope 2, 7
	note F_, 2
	note E_, 2
;Bar 170
	volume_envelope 1, 7
	note D_, 8
	volume_envelope 10, 7
	note D_, 3
	note C_, 2
	octave 3
	note B_, 3
	sound_loop 0, Music_Hero_Ch2

; ============================================================================================================

Music_Hero_Ch3:
	note_type 12, 1, 0
;Bar 1
	octave 2
	volume_envelope 1, 0
	note A_, 4
	octave 3
	note A_, 4
	octave 2
	note A_, 4
	octave 3
	note A_, 4
;Bar 2
	octave 2
	note A_, 4
	octave 3
	note A_, 4
	octave 2
	note A_, 4
	octave 3
	note A_, 4
;Bar 3
	octave 2
	note G_, 4
	octave 3
	note G_, 4
	octave 2
	note G_, 4
	octave 3
	note G_, 4
;Bar 4
	octave 2
	note G_, 4
	octave 3
	note G_, 4
	octave 2
	note G_, 4
	octave 3
	note G_, 4
;Bar 5
	octave 2
	note F_, 4
	octave 3
	note F_, 4
	octave 2
	note F_, 4
	octave 3
	note F_, 4
;Bar 6
	octave 2
	note F_, 4
	octave 3
	note F_, 4
	octave 2
	note F_, 4
	octave 3
	note F_, 4
;Bar 7
	octave 2
	note E_, 4
	octave 3
	note E_, 4
	octave 2
	note E_, 4
	octave 3
	note E_, 4
;Bar 8
	octave 2
	note E_, 4
	octave 3
	note E_, 4
	octave 2
	note E_, 4
	octave 3
	note E_, 4
;Bar 9
	octave 2
	note A_, 2
	octave 3
	note A_, 2
	octave 2
	note A_, 2
	octave 3
	note A_, 2
	octave 2
	note A_, 2
	octave 3
	note A_, 2
	octave 2
	note A_, 2
	octave 3
	note A_, 2
;Bar 10
	octave 2
	note A_, 2
	octave 3
	note A_, 2
	octave 2
	note A_, 2
	octave 3
	note A_, 2
	octave 2
	note A_, 2
	octave 3
	note A_, 2
	octave 2
	note A_, 2
	octave 3
	note A_, 2
;Bar 11
	octave 2
	note G_, 2
	octave 3
	note G_, 2
	octave 2
	note G_, 2
	octave 3
	note G_, 2
	octave 2
	note G_, 2
	octave 3
	note G_, 2
	octave 2
	note G_, 2
	octave 3
	note G_, 2
;Bar 12
	octave 2
	note G_, 2
	octave 3
	note G_, 2
	octave 2
	note G_, 2
	octave 3
	note G_, 2
	octave 2
	note G_, 2
	octave 3
	note G_, 2
	octave 2
	note G_, 2
	octave 3
	note G_, 2
;Bar 13
	octave 2
	note F_, 2
	octave 3
	note F_, 2
	octave 2
	note F_, 2
	octave 3
	note F_, 2
	octave 2
	note F_, 2
	octave 3
	note F_, 2
	octave 2
	note F_, 2
	octave 3
	note F_, 2
;Bar 14
	octave 2
	note F_, 2
	octave 3
	note F_, 2
	octave 2
	note F_, 2
	octave 3
	note F_, 2
	octave 2
	note F_, 2
	octave 3
	note F_, 2
	octave 2
	note F_, 2
	octave 3
	note F_, 2
;Bar 15
	octave 2
	note E_, 2
	octave 3
	note E_, 2
	octave 2
	note E_, 2
	octave 3
	note E_, 2
	octave 2
	note E_, 2
	octave 3
	note E_, 2
	octave 2
	note E_, 2
	octave 3
	note E_, 2
;Bar 16
	octave 2
	note E_, 2
	octave 3
	note E_, 2
	octave 2
	note E_, 2
	octave 3
	note E_, 2
	octave 2
	note G#, 2
	octave 3
	note G#, 2
	octave 2
	note G#, 2
	octave 3
	note G#, 2
;Bar 17
	octave 2
	note A_, 2
	octave 3
	note A_, 2
	octave 2
	note A_, 2
	octave 3
	note A_, 2
	octave 2
	note A_, 2
	octave 3
	note A_, 2
	octave 2
	note A_, 2
	octave 3
	note A_, 2
;Bar 18
	octave 2
	note A_, 2
	octave 3
	note A_, 2
	octave 2
	note A_, 2
	octave 3
	note A_, 2
	octave 2
	note A_, 2
	octave 3
	note A_, 2
	octave 2
	note A_, 2
	octave 3
	note A_, 2
;Bar 19
	octave 2
	note E_, 2
	octave 3
	note E_, 2
	octave 2
	note E_, 2
	octave 3
	note E_, 2
	octave 2
	note E_, 2
	octave 3
	note E_, 2
	octave 2
	note E_, 2
	octave 3
	note E_, 2
;Bar 20
	octave 2
	note E_, 2
	octave 3
	note E_, 2
	octave 2
	note E_, 2
	octave 3
	note E_, 2
	octave 2
	note E_, 2
	octave 3
	note E_, 2
	octave 2
	note E_, 2
	octave 3
	note E_, 2
;Bar 21
	octave 2
	note D_, 2
	octave 3
	note D_, 2
	octave 2
	note D_, 2
	octave 3
	note D_, 2
	octave 2
	note D_, 2
	octave 3
	note D_, 2
	octave 2
	note D_, 2
	octave 3
	note D_, 2
;Bar 22
	octave 2
	note D_, 2
	octave 3
	note D_, 2
	octave 2
	note D_, 2
	octave 3
	note D_, 2
	octave 2
	note D_, 2
	octave 3
	note D_, 2
	octave 2
	note D_, 2
	octave 3
	note D_, 2
;Bar 23
	octave 2
	note E_, 2
	octave 3
	note E_, 2
	octave 2
	note E_, 2
	octave 3
	note E_, 2
	octave 2
	note E_, 2
	octave 3
	note E_, 2
	octave 2
	note E_, 2
	octave 3
	note E_, 2
;Bar 24
	octave 2
	note E_, 2
	octave 3
	note E_, 2
	octave 2
	note E_, 2
	octave 3
	note E_, 2
	octave 2
	note E_, 2
	octave 3
	note E_, 2
	octave 2
	note E_, 2
	octave 3
	note E_, 2
;Bar 25
	octave 2
	note A_, 2
	octave 3
	note A_, 2
	octave 2
	note A_, 2
	octave 3
	note A_, 2
	octave 2
	note A_, 2
	octave 3
	note A_, 2
	octave 2
	note A_, 2
	octave 3
	note A_, 2
;Bar 26
	octave 2
	note A_, 2
	octave 3
	note A_, 2
	octave 2
	note A_, 2
	octave 3
	note A_, 2
	octave 2
	note A_, 2
	octave 3
	note A_, 2
	octave 2
	note A_, 2
	octave 3
	note A_, 2
;Bar 27
	octave 2
	note E_, 2
	octave 3
	note E_, 2
	octave 2
	note E_, 2
	octave 3
	note E_, 2
	octave 2
	note E_, 2
	octave 3
	note E_, 2
	octave 2
	note E_, 2
	octave 3
	note E_, 2
;Bar 28
	octave 2
	note E_, 2
	octave 3
	note E_, 2
	octave 2
	note E_, 2
	octave 3
	note E_, 2
	octave 2
	note E_, 2
	octave 3
	note E_, 2
	octave 2
	note E_, 2
	octave 3
	note E_, 2
;Bar 29
	octave 2
	note F_, 2
	octave 3
	note F_, 2
	octave 2
	note F_, 2
	octave 3
	note F_, 2
	octave 2
	note F_, 2
	octave 3
	note F_, 2
	octave 2
	note F_, 2
	octave 3
	note F_, 2
;Bar 30
	octave 2
	note F_, 2
	octave 3
	note F_, 2
	octave 2
	note F_, 2
	octave 3
	note F_, 2
	octave 2
	note F_, 2
	octave 3
	note F_, 2
	octave 2
	note F_, 2
	octave 3
	note F_, 2
;Bar 31
	octave 2
	note C_, 2
	octave 3
	note C_, 2
	octave 2
	note C_, 2
	octave 3
	note C_, 2
	octave 2
	note C_, 2
	octave 3
	note C_, 2
	octave 2
	note C_, 2
	octave 3
	note C_, 2
;Bar 32
	octave 2
	note G_, 2
	octave 3
	note G_, 2
	octave 2
	note G_, 2
	octave 3
	note G_, 2
	octave 2
	note G_, 2
	octave 3
	note G_, 2
	octave 2
	note G_, 2
	octave 3
	note G_, 2
;Bar 33
	octave 2
	note A_, 2
	octave 3
	note A_, 2
	octave 2
	note A_, 2
	octave 3
	note A_, 2
	octave 2
	note A_, 2
	octave 3
	note A_, 2
	octave 2
	note A_, 2
	octave 3
	note A_, 2
;Bar 34
	octave 2
	note A_, 2
	octave 3
	note A_, 2
	octave 2
	note A_, 2
	octave 3
	note A_, 2
	octave 2
	note A_, 2
	octave 3
	note A_, 2
	octave 2
	note A_, 2
	octave 3
	note A_, 2
;Bar 35
	octave 2
	note E_, 2
	octave 3
	note E_, 2
	octave 2
	note E_, 2
	octave 3
	note E_, 2
	octave 2
	note E_, 2
	octave 3
	note E_, 2
	octave 2
	note E_, 2
	octave 3
	note E_, 2
;Bar 36
	octave 2
	note E_, 2
	octave 3
	note E_, 2
	octave 2
	note E_, 2
	octave 3
	note E_, 2
	octave 2
	note E_, 2
	octave 3
	note E_, 2
	octave 2
	note E_, 2
	octave 3
	note E_, 2
;Bar 37
	octave 2
	note F_, 2
	octave 3
	note F_, 2
	octave 2
	note F_, 2
	octave 3
	note F_, 2
	octave 2
	note F_, 2
	octave 3
	note F_, 2
	octave 2
	note F_, 2
	octave 3
	note F_, 2
;Bar 38
	octave 2
	note F_, 2
	octave 3
	note F_, 2
	octave 2
	note F_, 2
	octave 3
	note F_, 2
	octave 2
	note F_, 2
	octave 3
	note F_, 2
	octave 2
	note F_, 2
	octave 3
	note F_, 2
;Bar 39
	octave 2
	note C_, 2
	octave 3
	note C_, 2
	octave 2
	note C_, 2
	octave 3
	note C_, 2
	octave 2
	note C_, 2
	octave 3
	note C_, 2
	octave 2
	note C_, 2
	octave 3
	note C_, 2
;Bar 40
	octave 2
	note G_, 2
	octave 3
	note G_, 2
	octave 2
	note G_, 2
	octave 3
	note G_, 2
	octave 2
	note G_, 4
	octave 3
	note G_, 4
;Bar 41
	octave 2
	note A_, 4
	octave 3
	note A_, 4
	octave 2
	note A_, 4
	octave 3
	note A_, 4
;Bar 42
	octave 2
	note A_, 4
	octave 3
	note A_, 4
	octave 2
	note A_, 4
	octave 3
	note A_, 4
;Bar 43
	octave 2
	note G_, 4
	octave 3
	note G_, 4
	octave 2
	note G_, 4
	octave 3
	note G_, 4
;Bar 44
	octave 2
	note G_, 4
	octave 3
	note G_, 4
	octave 2
	note G_, 4
	octave 3
	note G_, 4
;Bar 45
	octave 2
	note F_, 4
	octave 3
	note F_, 4
	octave 2
	note F_, 4
	octave 3
	note F_, 4
;Bar 46
	octave 2
	note F_, 4
	octave 3
	note F_, 4
	octave 2
	note F_, 4
	octave 3
	note F_, 4
;Bar 47
	octave 2
	note E_, 4
	octave 3
	note E_, 4
	octave 2
	note E_, 4
	octave 3
	note E_, 4
;Bar 48
	octave 2
	note E_, 4
	octave 3
	note E_, 4
	octave 2
	note E_, 4
	octave 3
	note E_, 4
;Bar 49
	octave 2
	note A_, 2
	octave 3
	note A_, 2
	octave 2
	note A_, 2
	octave 3
	note A_, 2
	octave 2
	note A_, 2
	octave 3
	note A_, 2
	octave 2
	note A_, 2
	octave 3
	note A_, 2
;Bar 50
	octave 2
	note A_, 2
	octave 3
	note A_, 2
	octave 2
	note A_, 2
	octave 3
	note A_, 2
	octave 2
	note A_, 2
	octave 3
	note A_, 2
	octave 2
	note A_, 2
	octave 3
	note A_, 2
;Bar 51
	octave 2
	note G_, 2
	octave 3
	note G_, 2
	octave 2
	note G_, 2
	octave 3
	note G_, 2
	octave 2
	note G_, 2
	octave 3
	note G_, 2
	octave 2
	note G_, 2
	octave 3
	note G_, 2
;Bar 52
	octave 2
	note G_, 2
	octave 3
	note G_, 2
	octave 2
	note G_, 2
	octave 3
	note G_, 2
	octave 2
	note G_, 2
	octave 3
	note G_, 2
	octave 2
	note G_, 2
	octave 3
	note G_, 2
;Bar 53
	octave 2
	note F_, 2
	octave 3
	note F_, 2
	octave 2
	note F_, 2
	octave 3
	note F_, 2
	octave 2
	note F_, 2
	octave 3
	note F_, 2
	octave 2
	note F_, 2
	octave 3
	note F_, 2
;Bar 54
	octave 2
	note F_, 2
	octave 3
	note F_, 2
	octave 2
	note F_, 2
	octave 3
	note F_, 2
	octave 2
	note F_, 2
	octave 3
	note F_, 2
	octave 2
	note F_, 2
	octave 3
	note F_, 2
;Bar 55
	octave 2
	note E_, 2
	octave 3
	note E_, 2
	octave 2
	note E_, 2
	octave 3
	note E_, 2
	octave 2
	note E_, 2
	octave 3
	note E_, 2
	octave 2
	note E_, 2
	octave 3
	note E_, 2
;Bar 56
	octave 2
	note E_, 2
	octave 3
	note E_, 2
	octave 2
	note E_, 2
	octave 3
	note E_, 2
	octave 2
	note G#, 2
	octave 3
	note G#, 2
	octave 2
	note G#, 2
	octave 3
	note G#, 2
;Bar 57
	octave 2
	note A_, 2
	octave 3
	note A_, 2
	octave 2
	note A_, 2
	octave 3
	note A_, 2
	octave 2
	note A_, 2
	octave 3
	note A_, 2
	octave 2
	note A_, 2
	octave 3
	note A_, 2
;Bar 58
	octave 2
	note A_, 2
	octave 3
	note A_, 2
	octave 2
	note A_, 2
	octave 3
	note A_, 2
	octave 2
	note A_, 2
	octave 3
	note A_, 2
	octave 2
	note A_, 2
	octave 3
	note A_, 2
;Bar 59
	octave 2
	note E_, 2
	octave 3
	note E_, 2
	octave 2
	note E_, 2
	octave 3
	note E_, 2
	octave 2
	note E_, 2
	octave 3
	note E_, 2
	octave 2
	note E_, 2
	octave 3
	note E_, 2
;Bar 60
	octave 2
	note E_, 2
	octave 3
	note E_, 2
	octave 2
	note E_, 2
	octave 3
	note E_, 2
	octave 2
	note E_, 2
	octave 3
	note E_, 2
	octave 2
	note E_, 2
	octave 3
	note E_, 2
;Bar 61
	octave 2
	note D_, 2
	octave 3
	note D_, 2
	octave 2
	note D_, 2
	octave 3
	note D_, 2
	octave 2
	note D_, 2
	octave 3
	note D_, 2
	octave 2
	note D_, 2
	octave 3
	note D_, 2
;Bar 62
	octave 2
	note D_, 2
	octave 3
	note D_, 2
	octave 2
	note D_, 2
	octave 3
	note D_, 2
	octave 2
	note D_, 2
	octave 3
	note D_, 2
	octave 2
	note D_, 2
	octave 3
	note D_, 2
;Bar 63
	octave 2
	note E_, 2
	octave 3
	note E_, 2
	octave 2
	note E_, 2
	octave 3
	note E_, 2
	octave 2
	note E_, 2
	octave 3
	note E_, 2
	octave 2
	note E_, 2
	octave 3
	note E_, 2
;Bar 64
	octave 2
	note E_, 2
	octave 3
	note E_, 2
	octave 2
	note E_, 2
	octave 3
	note E_, 2
	octave 2
	note E_, 2
	octave 3
	note E_, 2
	octave 2
	note E_, 2
	octave 3
	note E_, 2
;Bar 65
	octave 2
	note A_, 2
	octave 3
	note A_, 2
	octave 2
	note A_, 2
	octave 3
	note A_, 2
	octave 2
	note A_, 2
	octave 3
	note A_, 2
	octave 2
	note A_, 2
	octave 3
	note A_, 2
;Bar 66
	octave 2
	note A_, 2
	octave 3
	note A_, 2
	octave 2
	note A_, 2
	octave 3
	note A_, 2
	octave 2
	note A_, 2
	octave 3
	note A_, 2
	octave 2
	note A_, 2
	octave 3
	note A_, 2
;Bar 67
	octave 2
	note E_, 2
	octave 3
	note E_, 2
	octave 2
	note E_, 2
	octave 3
	note E_, 2
	octave 2
	note E_, 2
	octave 3
	note E_, 2
	octave 2
	note E_, 2
	octave 3
	note E_, 2
;Bar 68
	octave 2
	note E_, 2
	octave 3
	note E_, 2
	octave 2
	note E_, 2
	octave 3
	note E_, 2
	octave 2
	note E_, 2
	octave 3
	note E_, 2
	octave 2
	note E_, 2
	octave 3
	note E_, 2
;Bar 69
	octave 2
	note F_, 2
	octave 3
	note F_, 2
	octave 2
	note F_, 2
	octave 3
	note F_, 2
	octave 2
	note F_, 2
	octave 3
	note F_, 2
	octave 2
	note F_, 2
	octave 3
	note F_, 2
;Bar 70
	octave 2
	note F_, 2
	octave 3
	note F_, 2
	octave 2
	note F_, 2
	octave 3
	note F_, 2
	octave 2
	note F_, 2
	octave 3
	note F_, 2
	octave 2
	note F_, 2
	octave 3
	note F_, 2
;Bar 71
	octave 2
	note C_, 2
	octave 3
	note C_, 2
	octave 2
	note C_, 2
	octave 3
	note C_, 2
	octave 2
	note C_, 2
	octave 3
	note C_, 2
	octave 2
	note C_, 2
	octave 3
	note C_, 2
;Bar 72
	octave 2
	note G_, 2
	octave 3
	note G_, 2
	octave 2
	note G_, 2
	octave 3
	note G_, 2
	octave 2
	note G_, 2
	octave 3
	note G_, 2
	octave 2
	note G_, 2
	octave 3
	note G_, 2
;Bar 73
	octave 2
	note G_, 2
	octave 3
	note G_, 2
	octave 2
	note G_, 2
	octave 3
	note G_, 2
	octave 2
	note G_, 2
	octave 3
	note G_, 2
	octave 2
	note G_, 2
	octave 3
	note G_, 2
;Bar 74
	octave 2
	note A_, 2
	octave 3
	note A_, 2
	octave 2
	note A_, 2
	octave 3
	note A_, 2
	octave 2
	note A_, 2
	octave 3
	note A_, 2
	octave 2
	note A_, 2
	octave 3
	note A_, 2
;Bar 75
	octave 2
	note A_, 2
	octave 3
	note A_, 2
	octave 2
	note A_, 2
	octave 3
	note A_, 2
	octave 2
	note A_, 2
	octave 3
	note A_, 2
	octave 2
	note A_, 2
	octave 3
	note A_, 2
;Bar 76
	octave 2
	note E_, 2
	octave 3
	note E_, 2
	octave 2
	note E_, 2
	octave 3
	note E_, 2
	octave 2
	note E_, 2
	octave 3
	note E_, 2
	octave 2
	note E_, 2
	octave 3
	note E_, 2
;Bar 77
	octave 2
	note E_, 2
	octave 3
	note E_, 2
	octave 2
	note D_, 2
	octave 3
	note D_, 2
	octave 2
	note C_, 2
	octave 3
	note C_, 2
	octave 1
	note B_, 2
	octave 2
	note B_, 2
;Bar 78
	octave 1
	note A_, 2
	octave 2
	note A_, 2
	octave 1
	note A_, 2
	octave 2
	note A_, 2
	octave 1
	note A_, 2
	octave 2
	note A_, 2
	octave 1
	note A_, 2
	octave 2
	note A_, 2
;Bar 79
	octave 1
	note A_, 2
	octave 2
	note A_, 2
	octave 1
	note A_, 2
	octave 2
	note A_, 2
	octave 1
	note A_, 2
	octave 2
	note A_, 2
	octave 1
	note A_, 2
	octave 2
	note A_, 2
;Bar 80
	octave 1
	note A_, 2
	octave 2
	note A_, 2
	octave 1
	note A_, 2
	octave 2
	note A_, 2
	octave 1
	note A_, 2
	octave 2
	note A_, 2
	octave 1
	note A_, 2
	octave 2
	note A_, 2
;Bar 81
	octave 1
	note A_, 2
	octave 2
	note A_, 2
	octave 1
	note A_, 2
	octave 2
	note A_, 2
	octave 1
	note A_, 2
	octave 2
	note A_, 2
	octave 1
	note A_, 2
	octave 2
	note A_, 2
;Bar 82
	octave 1
	note A_, 2
	octave 2
	note A_, 2
	octave 1
	note A_, 2
	octave 2
	note A_, 2
	octave 1
	note A_, 2
	octave 2
	note A_, 2
	octave 1
	note A_, 2
	octave 2
	note A_, 2
;Bar 83
	octave 1
	note A_, 2
	octave 2
	note A_, 2
	octave 1
	note A_, 2
	octave 2
	note A_, 2
	octave 1
	note A_, 2
	octave 2
	note A_, 2
	octave 1
	note A_, 2
	octave 2
	note A_, 2
;Bar 84
	octave 1
	note A_, 2
	octave 2
	note A_, 2
	octave 1
	note A_, 2
	octave 2
	note A_, 2
	octave 1
	note A_, 2
	octave 2
	note A_, 2
	octave 1
	note A_, 2
	octave 2
	note A_, 2
;Bar 85
	octave 1
	note A_, 2
	octave 2
	note A_, 2
	octave 1
	note A_, 2
	octave 2
	note A_, 2
	octave 1
	note A_, 2
	octave 2
	note A_, 2
	octave 1
	note A_, 2
	octave 2
	note A_, 2
;Bar 86
	octave 1
	note A_, 2
	octave 2
	note A_, 2
	octave 1
	note A_, 2
	octave 2
	note A_, 2
	octave 1
	note A_, 2
	octave 2
	note A_, 2
	octave 1
	note A_, 2
	octave 2
	note A_, 2
;Bar 87
	octave 1
	note A_, 2
	octave 2
	note A_, 2
	octave 1
	note A_, 2
	octave 2
	note A_, 2
	octave 1
	note A_, 2
	octave 2
	note A_, 2
	octave 1
	note A_, 2
	octave 2
	note A_, 2
;Bar 88
	octave 1
	note A_, 2
	octave 2
	note A_, 2
	octave 1
	note A_, 2
	octave 2
	note A_, 2
	octave 1
	note A_, 2
	octave 2
	note A_, 2
	octave 1
	note A_, 2
	octave 2
	note A_, 2
;Bar 89
	octave 1
	note A_, 2
	octave 2
	note A_, 2
	octave 1
	note A_, 2
	octave 2
	note A_, 2
	octave 1
	note A_, 2
	octave 2
	note A_, 2
	octave 1
	note A_, 2
	octave 2
	note A_, 2
;Bar 90
	octave 1
	note A_, 2
	octave 2
	note A_, 2
	octave 1
	note A_, 2
	octave 2
	note A_, 2
	octave 1
	note A_, 2
	octave 2
	note A_, 2
	octave 1
	note A_, 2
	octave 2
	note A_, 2
;Bar 91
	octave 1
	note A_, 2
	octave 2
	note A_, 2
	octave 1
	note A_, 2
	octave 2
	note A_, 2
	octave 1
	note A_, 2
	octave 2
	note A_, 2
	octave 1
	note A_, 2
	octave 2
	note A_, 2
;Bar 92
	octave 1
	note A_, 2
	octave 2
	note A_, 2
	octave 1
	note A_, 2
	octave 2
	note A_, 2
	octave 1
	note A_, 2
	octave 2
	note A_, 2
	octave 1
	note A_, 2
	octave 2
	note A_, 2
;Bar 93
	octave 1
	note A_, 2
	octave 2
	note A_, 2
	octave 1
	note A_, 2
	octave 2
	note A_, 2
	octave 1
	note A_, 2
	octave 2
	note A_, 2
	octave 1
	note A_, 2
	octave 2
	note A_, 2
;Bar 94
	octave 1
	note A_, 4
	octave 2
	note A_, 4
	octave 1
	note A_, 4
	octave 2
	note A_, 4
;Bar 95
	octave 1
	note A_, 4
	octave 2
	note A_, 4
	octave 1
	note A_, 4
	octave 2
	note A_, 4
;Bar 96
	note F_, 4
	octave 3
	note F_, 4
	octave 2
	note F_, 4
	octave 3
	note F_, 4
;Bar 97
	octave 2
	note F_, 4
	octave 3
	note F_, 4
	octave 2
	note F_, 4
	octave 3
	note F_, 4
;Bar 98
	octave 2
	note D_, 4
	octave 3
	note D_, 4
	octave 2
	note D_, 4
	octave 3
	note D_, 4
;Bar 99
	octave 2
	note E_, 4
	octave 3
	note E_, 4
	octave 2
	note E_, 4
	octave 3
	note E_, 4
;Bar 100
	octave 1
	note A_, 4
	octave 2
	note A_, 4
	octave 1
	note A_, 4
	octave 2
	note A_, 4
;Bar 101
	octave 1
	note A_, 4
	octave 2
	note A_, 4
	octave 1
	note A_, 4
	octave 2
	note A_, 4
;Bar 102
	octave 1
	note A_, 4
	octave 2
	note A_, 4
	octave 1
	note A_, 4
	octave 2
	note A_, 4
;Bar 103
	octave 1
	note A_, 4
	octave 2
	note A_, 4
	octave 1
	note A_, 4
	octave 2
	note A_, 4
;Bar 104
	note F_, 4
	octave 3
	note F_, 4
	octave 2
	note F_, 4
	octave 3
	note F_, 4
;Bar 105
	octave 2
	note F_, 4
	octave 3
	note F_, 4
	octave 2
	note F_, 4
	octave 3
	note F_, 4
;Bar 106
	octave 2
	note D_, 4
	octave 3
	note D_, 4
	octave 2
	note D_, 4
	octave 3
	note D_, 4
;Bar 107
	octave 2
	note E_, 4
	octave 3
	note E_, 4
	octave 2
	note E_, 4
	octave 3
	note E_, 4
;Bar 108
	octave 1
	note A_, 4
	octave 2
	note A_, 4
	octave 1
	note A_, 4
	octave 2
	note A_, 4
;Bar 109
	note D#, 8
	octave 3
	note D#, 8
;Bar 110
	octave 2
	note D#, 8
	octave 3
	note D#, 8
;Bar 111
	octave 2
	note D#, 8
	octave 3
	note D#, 8
;Bar 112
	octave 2
	note D#, 8
	octave 3
	note D#, 8
;Bar 113
	octave 2
	note E_, 4
	octave 3
	note E_, 4
	octave 2
	note E_, 2
	octave 3
	note E_, 2
	octave 2
	note E_, 2
	octave 3
	note E_, 2
;Bar 114
	octave 2
	note E_, 2
	octave 3
	note E_, 2
	octave 2
	note E_, 2
	octave 3
	note E_, 2
	octave 2
	note E_, 2
	octave 3
	note E_, 2
	octave 2
	note E_, 2
	octave 3
	note E_, 2
;Bar 115
	octave 2
	note A_, 2
	octave 3
	note A_, 2
	octave 2
	note A_, 2
	octave 3
	note A_, 2
	octave 2
	note A_, 2
	octave 3
	note A_, 2
	octave 2
	note A_, 2
	octave 3
	note A_, 2
;Bar 116
	octave 2
	note A_, 2
	octave 3
	note A_, 2
	octave 2
	note A_, 2
	octave 3
	note A_, 2
	octave 2
	note A_, 2
	octave 3
	note A_, 2
	octave 2
	note A_, 2
	octave 3
	note A_, 2
;Bar 117
	octave 2
	note E_, 2
	octave 3
	note E_, 2
	octave 2
	note E_, 2
	octave 3
	note E_, 2
	octave 2
	note E_, 2
	octave 3
	note E_, 2
	octave 2
	note E_, 2
	octave 3
	note E_, 2
;Bar 118
	octave 2
	note E_, 2
	octave 3
	note E_, 2
	octave 2
	note E_, 2
	octave 3
	note E_, 2
	octave 2
	note E_, 2
	octave 3
	note E_, 2
	octave 2
	note E_, 2
	octave 3
	note E_, 2
;Bar 119
	octave 2
	note F_, 2
	octave 3
	note F_, 2
	octave 2
	note F_, 2
	octave 3
	note F_, 2
	octave 2
	note F_, 2
	octave 3
	note F_, 2
	octave 2
	note F_, 2
	octave 3
	note F_, 2
;Bar 120
	octave 2
	note F_, 2
	octave 3
	note F_, 2
	octave 2
	note F_, 2
	octave 3
	note F_, 2
	octave 2
	note F_, 2
	octave 3
	note F_, 2
	octave 2
	note F_, 2
	octave 3
	note F_, 2
;Bar 121
	octave 2
	note C_, 2
	octave 3
	note C_, 2
	octave 2
	note C_, 2
	octave 3
	note C_, 2
	octave 2
	note C_, 2
	octave 3
	note C_, 2
	octave 2
	note C_, 2
	octave 3
	note C_, 2
;Bar 122
	octave 2
	note G_, 2
	octave 3
	note G_, 2
	octave 2
	note G_, 2
	octave 3
	note G_, 2
	octave 2
	note G_, 2
	octave 3
	note G_, 2
	octave 2
	note G_, 2
	octave 3
	note G_, 2
;Bar 123
	octave 2
	note A_, 2
	octave 3
	note A_, 2
	octave 2
	note A_, 2
	octave 3
	note A_, 2
	octave 2
	note A_, 2
	octave 3
	note A_, 2
	octave 2
	note A_, 2
	octave 3
	note A_, 2
;Bar 124
	octave 2
	note A_, 2
	octave 3
	note A_, 2
	octave 2
	note A_, 2
	octave 3
	note A_, 2
	octave 2
	note A_, 2
	octave 3
	note A_, 2
	octave 2
	note A_, 2
	octave 3
	note A_, 2
;Bar 125
	octave 2
	note E_, 2
	octave 3
	note E_, 2
	octave 2
	note E_, 2
	octave 3
	note E_, 2
	octave 2
	note E_, 2
	octave 3
	note E_, 2
	octave 2
	note E_, 2
	octave 3
	note E_, 2
;Bar 126
	octave 2
	note E_, 2
	octave 3
	note E_, 2
	octave 2
	note E_, 2
	octave 3
	note E_, 2
	octave 2
	note E_, 2
	octave 3
	note E_, 2
	octave 2
	note E_, 2
	octave 3
	note E_, 2
;Bar 127
	octave 2
	note F_, 2
	octave 3
	note F_, 2
	octave 2
	note F_, 2
	octave 3
	note F_, 2
	octave 2
	note F_, 2
	octave 3
	note F_, 2
	octave 2
	note F_, 2
	octave 3
	note F_, 2
;Bar 128
	octave 2
	note F_, 2
	octave 3
	note F_, 2
	octave 2
	note F_, 2
	octave 3
	note F_, 2
	octave 2
	note F_, 2
	octave 3
	note F_, 2
	octave 2
	note F_, 2
	octave 3
	note F_, 2
;Bar 129
	octave 2
	note C_, 2
	octave 3
	note C_, 2
	octave 2
	note C_, 2
	octave 3
	note C_, 2
	octave 2
	note C_, 2
	octave 3
	note C_, 2
	octave 2
	note C_, 2
	octave 3
	note C_, 2
;Bar 130
	octave 2
	note G_, 2
	octave 3
	note G_, 2
	octave 2
	note G_, 2
	octave 3
	note G_, 2
	octave 2
	note G_, 2
	octave 3
	note G_, 2
	octave 2
	note G_, 2
	octave 3
	note G_, 2
;Bar 131
	octave 2
	note A_, 2
	octave 3
	note A_, 2
	octave 2
	note A_, 2
	octave 3
	note A_, 2
	octave 2
	note A_, 2
	octave 3
	note A_, 2
	octave 2
	note A_, 2
	octave 3
	note A_, 2
;Bar 132
	octave 2
	note A_, 2
	octave 3
	note A_, 2
	octave 2
	note A_, 2
	octave 3
	note A_, 2
	octave 2
	note A_, 2
	octave 3
	note A_, 2
	octave 2
	note A_, 2
	octave 3
	note A_, 2
;Bar 133
	octave 2
	note E_, 2
	octave 3
	note E_, 2
	octave 2
	note E_, 2
	octave 3
	note E_, 2
	octave 2
	note E_, 2
	octave 3
	note E_, 2
	octave 2
	note E_, 2
	octave 3
	note E_, 2
;Bar 134
	octave 2
	note E_, 2
	octave 3
	note E_, 2
	octave 2
	note E_, 2
	octave 3
	note E_, 2
	octave 2
	note E_, 2
	octave 3
	note E_, 2
	octave 2
	note E_, 2
	octave 3
	note E_, 2
;Bar 135
	octave 2
	note F_, 2
	octave 3
	note F_, 2
	octave 2
	note F_, 2
	octave 3
	note F_, 2
	octave 2
	note F_, 2
	octave 3
	note F_, 2
	octave 2
	note F_, 2
	octave 3
	note F_, 2
;Bar 136
	octave 2
	note F_, 2
	octave 3
	note F_, 2
	octave 2
	note F_, 2
	octave 3
	note F_, 2
	octave 2
	note F_, 2
	octave 3
	note F_, 2
	octave 2
	note F_, 2
	octave 3
	note F_, 2
;Bar 137
	octave 2
	note C_, 2
	octave 3
	note C_, 2
	octave 2
	note C_, 2
	octave 3
	note C_, 2
	octave 2
	note C_, 2
	octave 3
	note C_, 2
	octave 2
	note C_, 2
	octave 3
	note C_, 2
;Bar 138
	octave 2
	note G_, 2
	octave 3
	note G_, 2
	octave 2
	note G_, 2
	octave 3
	note G_, 2
	octave 2
	note G_, 2
	octave 3
	note G_, 2
	octave 2
	note G_, 2
	octave 3
	note G_, 2
;Bar 139
	octave 2
	note A_, 2
	octave 3
	note A_, 2
	octave 2
	note A_, 2
	octave 3
	note A_, 2
	octave 2
	note A_, 2
	octave 3
	note A_, 2
	octave 2
	note A_, 2
	octave 3
	note A_, 2
;Bar 140
	octave 2
	note A_, 2
	octave 3
	note A_, 2
	octave 2
	note A_, 2
	octave 3
	note A_, 2
	octave 2
	note A_, 2
	octave 3
	note A_, 2
	octave 2
	note A_, 2
	octave 3
	note A_, 2
;Bar 141
	octave 2
	note E_, 2
	octave 3
	note E_, 2
	octave 2
	note E_, 2
	octave 3
	note E_, 2
	octave 2
	note E_, 2
	octave 3
	note E_, 2
	octave 2
	note E_, 2
	octave 3
	note E_, 2
;Bar 142
	octave 2
	note E_, 2
	octave 3
	note E_, 2
	octave 2
	note E_, 2
	octave 3
	note E_, 2
	octave 2
	note E_, 2
	octave 3
	note E_, 2
	octave 2
	note E_, 2
	octave 3
	note E_, 2
;Bar 143
	octave 2
	note F_, 2
	octave 3
	note F_, 2
	octave 2
	note F_, 2
	octave 3
	note F_, 2
	octave 2
	note F_, 2
	octave 3
	note F_, 2
	octave 2
	note F_, 2
	octave 3
	note F_, 2
;Bar 144
	octave 2
	note F_, 2
	octave 3
	note F_, 2
	octave 2
	note F_, 2
	octave 3
	note F_, 2
	octave 2
	note F_, 2
	octave 3
	note F_, 2
	octave 2
	note F_, 2
	octave 3
	note F_, 2
;Bar 145
	octave 2
	note C_, 2
	octave 3
	note C_, 2
	octave 2
	note C_, 2
	octave 3
	note C_, 2
	octave 2
	note C_, 2
	octave 3
	note C_, 2
	octave 2
	note C_, 2
	octave 3
	note C_, 2
;Bar 146
	octave 2
	note G_, 2
	octave 3
	note G_, 2
	octave 2
	note G_, 2
	octave 3
	note G_, 2
	octave 2
	note G_, 2
	octave 3
	note G_, 2
	octave 2
	note G_, 2
	octave 3
	note G_, 2
;Bar 147
	octave 2
	note A_, 2
	octave 3
	note A_, 2
	octave 2
	note A_, 2
	octave 3
	note A_, 2
	octave 2
	note A_, 2
	octave 3
	note A_, 2
	octave 2
	note A_, 2
	octave 3
	note A_, 2
;Bar 148
	octave 2
	note A_, 2
	octave 3
	note A_, 2
	octave 2
	note A_, 2
	octave 3
	note A_, 2
	octave 2
	note A_, 2
	octave 3
	note A_, 2
	octave 2
	note A_, 2
	octave 3
	note A_, 2
;Bar 149
	octave 2
	note E_, 2
	octave 3
	note E_, 2
	octave 2
	note E_, 2
	octave 3
	note E_, 2
	octave 2
	note E_, 2
	octave 3
	note E_, 2
	octave 2
	note E_, 2
	octave 3
	note E_, 2
;Bar 150
	octave 2
	note E_, 2
	octave 3
	note E_, 2
	octave 2
	note E_, 2
	octave 3
	note E_, 2
	octave 2
	note E_, 2
	octave 3
	note E_, 2
	octave 2
	note E_, 2
	octave 3
	note E_, 2
;Bar 151
	octave 2
	note F_, 2
	octave 3
	note F_, 2
	note F_, 2
	note F_, 2
	note F_, 2
	note F_, 2
	note F_, 2
	note F_, 2
;Bar 152
	octave 2
	note F_, 2
	octave 3
	note F_, 2
	note F_, 2
	note F_, 2
	octave 2
	note F_, 4
	octave 3
	note F_, 4
;Bar 153
	octave 2
	note C_, 2
	octave 3
	note C_, 2
	note C_, 2
	note C_, 2
	note C_, 2
	note C_, 2
	note C_, 2
	note C_, 2
;Bar 154
	octave 2
	note G_, 2
	octave 3
	note G_, 2
	note G_, 2
	note G_, 2
	octave 2
	note G_, 4
	octave 3
	note G_, 4
;Bar 155
	octave 2
	note A_, 2
	octave 3
	note A_, 2
	note A_, 2
	note A_, 2
	note A_, 2
	note A_, 2
	note A_, 2
	note A_, 2
;Bar 156
	octave 2
	note A_, 2
	octave 3
	note A_, 2
	note A_, 2
	note A_, 2
	octave 2
	note A_, 4
	octave 3
	note A_, 4
;Bar 157
	octave 2
	note E_, 2
	octave 3
	note E_, 2
	note E_, 2
	note E_, 2
	note E_, 2
	note E_, 2
	note E_, 2
	note E_, 2
;Bar 158
	octave 2
	note E_, 2
	octave 3
	note E_, 2
	note E_, 2
	note E_, 2
	octave 2
	note E_, 4
	octave 3
	note E_, 4
;Bar 159
	octave 2
	note F_, 2
	octave 3
	note F_, 2
	note F_, 2
	note F_, 2
	note F_, 2
	note F_, 2
	note F_, 2
	note F_, 2
;Bar 160
	octave 2
	note F_, 2
	octave 3
	note F_, 2
	note F_, 2
	note F_, 2
	octave 2
	note F_, 4
	octave 3
	note F_, 4
;Bar 161
	octave 2
	note C_, 2
	octave 3
	note C_, 2
	note C_, 2
	note C_, 2
	note C_, 2
	note C_, 2
	note C_, 2
	note C_, 2
;Bar 162
	octave 2
	note G_, 2
	octave 3
	note G_, 2
	note G_, 2
	note G_, 2
	octave 2
	note G_, 4
	octave 3
	note G_, 4
;Bar 163
	octave 2
	note A_, 2
	octave 3
	note A_, 2
	note A_, 2
	note A_, 2
	note A_, 2
	note A_, 2
	note A_, 2
	note A_, 2
;Bar 164
	octave 2
	volume_envelope 2, 0
	note A_, 2
	octave 3
	note A_, 2
	note A_, 2
	note A_, 2
	octave 2
	note A_, 4
	octave 3
	note A_, 4
;Bar 165
	octave 2
	note E_, 2
	octave 3
	note E_, 2
	note E_, 2
	note E_, 2
	note E_, 2
	note E_, 2
	note E_, 2
	note E_, 2
;Bar 166
	octave 2
	note E_, 2
	octave 3
	note E_, 2
	note E_, 2
	note E_, 2
	octave 2
	note E_, 4
	octave 3
	note E_, 4
;Bar 167
	octave 2
	note F_, 2
	octave 3
	note F_, 2
	note F_, 2
	note F_, 2
	note F_, 2
	note F_, 2
	note F_, 2
	note F_, 2
;Bar 168
	octave 2
	note F_, 2
	octave 3
	note F_, 2
	note F_, 2
	note F_, 2
	octave 2
	volume_envelope 3, 0
	note F_, 4
	octave 3
	note F_, 4
;Bar 169
	octave 2
	note C_, 2
	octave 3
	note C_, 2
	note C_, 2
	note C_, 2
	note C_, 2
	note C_, 2
	note C_, 2
	note C_, 2
;Bar 170
	octave 2
	note G_, 2
	octave 3
	note G_, 2
	note G_, 2
	note G_, 2
	octave 2
	volume_envelope 2, 0
	note G_, 4
	octave 3
	note G_, 4
	sound_loop 0, Music_Hero_Ch3

; ============================================================================================================

Music_Hero_Ch4:
	toggle_noise 0
	drum_speed 12
;Bar 1
	;note C_, 0 | WARNING: Rounded down to 0
	drum_note 7, 2
	;note G#, 0 | WARNING: Rounded down to 0
	drum_note 7, 1
	drum_note 7, 1
	;note D_, 0 | WARNING: Rounded down to 0
	drum_note 7, 2
	;note A#, 0 | WARNING: Rounded down to 0
	drum_note 7, 1
	drum_note 7, 1
	;note C_, 0 | WARNING: Rounded down to 0
	drum_note 7, 2
	;note G#, 0 | WARNING: Rounded down to 0
	drum_note 7, 1
	drum_note 7, 1
	;note D_, 0 | WARNING: Rounded down to 0
	drum_note 7, 2
	;note A#, 0 | WARNING: Rounded down to 0
	drum_note 7, 1
	drum_note 7, 1
;Bar 2
	;note C_, 0 | WARNING: Rounded down to 0
	drum_note 7, 2
	;note G#, 0 | WARNING: Rounded down to 0
	drum_note 7, 1
	drum_note 7, 1
	;note D_, 0 | WARNING: Rounded down to 0
	drum_note 7, 2
	;note A#, 0 | WARNING: Rounded down to 0
	drum_note 7, 1
	drum_note 7, 1
	;note C_, 0 | WARNING: Rounded down to 0
	drum_note 7, 2
	;note G#, 0 | WARNING: Rounded down to 0
	drum_note 7, 1
	drum_note 7, 1
	;note D_, 0 | WARNING: Rounded down to 0
	drum_note 7, 2
	;note A#, 0 | WARNING: Rounded down to 0
	drum_note 7, 1
	drum_note 7, 1
;Bar 3
	;note C_, 0 | WARNING: Rounded down to 0
	drum_note 7, 2
	;note G#, 0 | WARNING: Rounded down to 0
	drum_note 7, 1
	drum_note 7, 1
	;note D_, 0 | WARNING: Rounded down to 0
	drum_note 7, 2
	;note A#, 0 | WARNING: Rounded down to 0
	drum_note 7, 1
	drum_note 7, 1
	;note C_, 0 | WARNING: Rounded down to 0
	drum_note 7, 2
	;note G#, 0 | WARNING: Rounded down to 0
	drum_note 7, 1
	drum_note 7, 1
	;note D_, 0 | WARNING: Rounded down to 0
	drum_note 7, 2
	;note A#, 0 | WARNING: Rounded down to 0
	drum_note 7, 1
	drum_note 7, 1
;Bar 4
	;note C_, 0 | WARNING: Rounded down to 0
	drum_note 7, 2
	;note G#, 0 | WARNING: Rounded down to 0
	drum_note 7, 1
	drum_note 7, 1
	;note D_, 0 | WARNING: Rounded down to 0
	drum_note 7, 2
	;note A#, 0 | WARNING: Rounded down to 0
	drum_note 7, 1
	drum_note 7, 1
	;note C_, 0 | WARNING: Rounded down to 0
	drum_note 7, 2
	;note G#, 0 | WARNING: Rounded down to 0
	drum_note 7, 1
	drum_note 7, 1
	;note D_, 0 | WARNING: Rounded down to 0
	drum_note 7, 2
	;note A#, 0 | WARNING: Rounded down to 0
	drum_note 7, 1
	drum_note 7, 1
;Bar 5
	;note C_, 0 | WARNING: Rounded down to 0
	drum_note 7, 2
	;note G#, 0 | WARNING: Rounded down to 0
	drum_note 7, 1
	drum_note 7, 1
	;note D_, 0 | WARNING: Rounded down to 0
	drum_note 7, 2
	;note A#, 0 | WARNING: Rounded down to 0
	drum_note 7, 1
	drum_note 7, 1
	;note C_, 0 | WARNING: Rounded down to 0
	drum_note 7, 2
	;note G#, 0 | WARNING: Rounded down to 0
	drum_note 7, 1
	drum_note 7, 1
	;note D_, 0 | WARNING: Rounded down to 0
	drum_note 7, 2
	;note A#, 0 | WARNING: Rounded down to 0
	drum_note 7, 1
	drum_note 7, 1
;Bar 6
	;note C_, 0 | WARNING: Rounded down to 0
	drum_note 7, 2
	;note G#, 0 | WARNING: Rounded down to 0
	drum_note 7, 1
	drum_note 7, 1
	;note D_, 0 | WARNING: Rounded down to 0
	drum_note 7, 2
	;note A#, 0 | WARNING: Rounded down to 0
	drum_note 7, 1
	drum_note 7, 1
	;note C_, 0 | WARNING: Rounded down to 0
	drum_note 7, 2
	;note G#, 0 | WARNING: Rounded down to 0
	drum_note 7, 1
	drum_note 7, 1
	;note D_, 0 | WARNING: Rounded down to 0
	drum_note 7, 2
	;note A#, 0 | WARNING: Rounded down to 0
	drum_note 7, 1
	drum_note 7, 1
;Bar 7
	;note C_, 0 | WARNING: Rounded down to 0
	drum_note 7, 2
	;note G#, 0 | WARNING: Rounded down to 0
	drum_note 7, 1
	drum_note 7, 1
	;note D_, 0 | WARNING: Rounded down to 0
	drum_note 7, 2
	;note A#, 0 | WARNING: Rounded down to 0
	drum_note 7, 1
	drum_note 7, 1
	;note C_, 0 | WARNING: Rounded down to 0
	drum_note 7, 2
	;note G#, 0 | WARNING: Rounded down to 0
	drum_note 7, 1
	drum_note 7, 1
	;note D_, 0 | WARNING: Rounded down to 0
	drum_note 7, 2
	;note A#, 0 | WARNING: Rounded down to 0
	drum_note 7, 1
	drum_note 7, 1
;Bar 8
	;note C_, 0 | WARNING: Rounded down to 0
	drum_note 7, 2
	;note G#, 0 | WARNING: Rounded down to 0
	drum_note 7, 1
	drum_note 7, 1
	;note D_, 0 | WARNING: Rounded down to 0
	drum_note 7, 2
	;note A#, 0 | WARNING: Rounded down to 0
	drum_note 7, 1
	drum_note 7, 1
	;note C_, 0 | WARNING: Rounded down to 0
	drum_note 7, 2
	;note G#, 0 | WARNING: Rounded down to 0
	drum_note 7, 1
	drum_note 7, 1
	;note D_, 0 | WARNING: Rounded down to 0
	drum_note 7, 2
	;note A#, 0 | WARNING: Rounded down to 0
	drum_note 7, 1
	drum_note 7, 1
;Bar 9
	;note C_, 0 | WARNING: Rounded down to 0
	drum_note 7, 2
	;note G#, 0 | WARNING: Rounded down to 0
	drum_note 7, 1
	drum_note 7, 1
	;note D_, 0 | WARNING: Rounded down to 0
	drum_note 7, 2
	;note A#, 0 | WARNING: Rounded down to 0
	drum_note 7, 1
	drum_note 7, 1
	;note C_, 0 | WARNING: Rounded down to 0
	drum_note 7, 2
	;note G#, 0 | WARNING: Rounded down to 0
	drum_note 7, 1
	drum_note 7, 1
	;note D_, 0 | WARNING: Rounded down to 0
	drum_note 7, 2
	;note A#, 0 | WARNING: Rounded down to 0
	drum_note 7, 1
	drum_note 7, 1
;Bar 10
	;note C_, 0 | WARNING: Rounded down to 0
	drum_note 7, 2
	;note G#, 0 | WARNING: Rounded down to 0
	drum_note 7, 1
	drum_note 7, 1
	;note D_, 0 | WARNING: Rounded down to 0
	drum_note 7, 2
	;note A#, 0 | WARNING: Rounded down to 0
	drum_note 7, 1
	drum_note 7, 1
	;note C_, 0 | WARNING: Rounded down to 0
	drum_note 7, 2
	;note G#, 0 | WARNING: Rounded down to 0
	drum_note 7, 1
	drum_note 7, 1
	;note D_, 0 | WARNING: Rounded down to 0
	drum_note 7, 2
	;note A#, 0 | WARNING: Rounded down to 0
	drum_note 7, 1
	drum_note 7, 1
;Bar 11
	;note C_, 0 | WARNING: Rounded down to 0
	drum_note 7, 2
	;note G#, 0 | WARNING: Rounded down to 0
	drum_note 7, 1
	drum_note 7, 1
	;note D_, 0 | WARNING: Rounded down to 0
	drum_note 7, 2
	;note A#, 0 | WARNING: Rounded down to 0
	drum_note 7, 1
	drum_note 7, 1
	;note C_, 0 | WARNING: Rounded down to 0
	drum_note 7, 2
	;note G#, 0 | WARNING: Rounded down to 0
	drum_note 7, 1
	drum_note 7, 1
	;note D_, 0 | WARNING: Rounded down to 0
	drum_note 7, 2
	;note A#, 0 | WARNING: Rounded down to 0
	drum_note 7, 1
	drum_note 7, 1
;Bar 12
	;note C_, 0 | WARNING: Rounded down to 0
	drum_note 7, 2
	;note G#, 0 | WARNING: Rounded down to 0
	drum_note 7, 1
	drum_note 7, 1
	;note D_, 0 | WARNING: Rounded down to 0
	drum_note 7, 2
	;note A#, 0 | WARNING: Rounded down to 0
	drum_note 7, 1
	drum_note 7, 1
	;note C_, 0 | WARNING: Rounded down to 0
	drum_note 7, 2
	;note G#, 0 | WARNING: Rounded down to 0
	drum_note 7, 1
	drum_note 7, 1
	;note D_, 0 | WARNING: Rounded down to 0
	drum_note 7, 2
	;note A#, 0 | WARNING: Rounded down to 0
	drum_note 7, 1
	drum_note 7, 1
;Bar 13
	;note C_, 0 | WARNING: Rounded down to 0
	drum_note 7, 2
	;note G#, 0 | WARNING: Rounded down to 0
	drum_note 7, 1
	drum_note 7, 1
	;note D_, 0 | WARNING: Rounded down to 0
	drum_note 7, 2
	;note A#, 0 | WARNING: Rounded down to 0
	drum_note 7, 1
	drum_note 7, 1
	;note C_, 0 | WARNING: Rounded down to 0
	drum_note 7, 2
	;note G#, 0 | WARNING: Rounded down to 0
	drum_note 7, 1
	drum_note 7, 1
	;note D_, 0 | WARNING: Rounded down to 0
	drum_note 7, 2
	;note A#, 0 | WARNING: Rounded down to 0
	drum_note 7, 1
	drum_note 7, 1
;Bar 14
	;note C_, 0 | WARNING: Rounded down to 0
	drum_note 7, 2
	;note G#, 0 | WARNING: Rounded down to 0
	drum_note 7, 1
	drum_note 7, 1
	;note D_, 0 | WARNING: Rounded down to 0
	drum_note 7, 2
	;note A#, 0 | WARNING: Rounded down to 0
	drum_note 7, 1
	drum_note 7, 1
	;note C_, 0 | WARNING: Rounded down to 0
	drum_note 7, 2
	;note G#, 0 | WARNING: Rounded down to 0
	drum_note 7, 1
	drum_note 7, 1
	;note D_, 0 | WARNING: Rounded down to 0
	drum_note 7, 2
	;note A#, 0 | WARNING: Rounded down to 0
	drum_note 7, 1
	drum_note 7, 1
;Bar 15
	;note C_, 0 | WARNING: Rounded down to 0
	drum_note 7, 2
	;note G#, 0 | WARNING: Rounded down to 0
	drum_note 7, 1
	drum_note 7, 1
	;note D_, 0 | WARNING: Rounded down to 0
	drum_note 7, 2
	;note A#, 0 | WARNING: Rounded down to 0
	drum_note 7, 1
	drum_note 7, 1
	;note C_, 0 | WARNING: Rounded down to 0
	drum_note 7, 2
	;note G#, 0 | WARNING: Rounded down to 0
	drum_note 7, 1
	drum_note 7, 1
	;note D_, 0 | WARNING: Rounded down to 0
	drum_note 7, 2
	;note A#, 0 | WARNING: Rounded down to 0
	drum_note 7, 1
	drum_note 7, 1
;Bar 16
	;note C_, 0 | WARNING: Rounded down to 0
	drum_note 7, 2
	;note G#, 0 | WARNING: Rounded down to 0
	drum_note 7, 1
	drum_note 7, 1
	;note D_, 0 | WARNING: Rounded down to 0
	drum_note 7, 2
	;note A#, 0 | WARNING: Rounded down to 0
	drum_note 7, 1
	drum_note 7, 1
	;note C_, 0 | WARNING: Rounded down to 0
	drum_note 7, 2
	;note G#, 0 | WARNING: Rounded down to 0
	drum_note 7, 1
	drum_note 7, 1
	;note D_, 0 | WARNING: Rounded down to 0
	drum_note 7, 2
	;note A#, 0 | WARNING: Rounded down to 0
	drum_note 7, 1
	drum_note 7, 1
;Bar 17
	;note C_, 0 | WARNING: Rounded down to 0
	drum_note 7, 2
	;note G#, 0 | WARNING: Rounded down to 0
	drum_note 7, 1
	drum_note 7, 1
	;note D_, 0 | WARNING: Rounded down to 0
	drum_note 7, 2
	;note A#, 0 | WARNING: Rounded down to 0
	drum_note 7, 1
	drum_note 7, 1
	;note C_, 0 | WARNING: Rounded down to 0
	drum_note 7, 2
	;note G#, 0 | WARNING: Rounded down to 0
	drum_note 7, 1
	drum_note 7, 1
	;note D_, 0 | WARNING: Rounded down to 0
	drum_note 7, 2
	;note A#, 0 | WARNING: Rounded down to 0
	drum_note 7, 1
	drum_note 7, 1
;Bar 18
	;note C_, 0 | WARNING: Rounded down to 0
	drum_note 7, 2
	;note G#, 0 | WARNING: Rounded down to 0
	drum_note 7, 1
	drum_note 7, 1
	;note D_, 0 | WARNING: Rounded down to 0
	drum_note 7, 2
	;note A#, 0 | WARNING: Rounded down to 0
	drum_note 7, 1
	drum_note 7, 1
	;note C_, 0 | WARNING: Rounded down to 0
	drum_note 7, 2
	;note G#, 0 | WARNING: Rounded down to 0
	drum_note 7, 1
	drum_note 7, 1
	;note D_, 0 | WARNING: Rounded down to 0
	drum_note 7, 2
	;note A#, 0 | WARNING: Rounded down to 0
	drum_note 7, 1
	drum_note 7, 1
;Bar 19
	;note C_, 0 | WARNING: Rounded down to 0
	drum_note 7, 2
	;note G#, 0 | WARNING: Rounded down to 0
	drum_note 7, 1
	drum_note 7, 1
	;note D_, 0 | WARNING: Rounded down to 0
	drum_note 7, 2
	;note A#, 0 | WARNING: Rounded down to 0
	drum_note 7, 1
	drum_note 7, 1
	;note C_, 0 | WARNING: Rounded down to 0
	drum_note 7, 2
	;note G#, 0 | WARNING: Rounded down to 0
	drum_note 7, 1
	drum_note 7, 1
	;note D_, 0 | WARNING: Rounded down to 0
	drum_note 7, 2
	;note A#, 0 | WARNING: Rounded down to 0
	drum_note 7, 1
	drum_note 7, 1
;Bar 20
	;note C_, 0 | WARNING: Rounded down to 0
	drum_note 7, 2
	;note G#, 0 | WARNING: Rounded down to 0
	drum_note 7, 1
	drum_note 7, 1
	;note D_, 0 | WARNING: Rounded down to 0
	drum_note 7, 2
	;note A#, 0 | WARNING: Rounded down to 0
	drum_note 7, 1
	drum_note 7, 1
	;note C_, 0 | WARNING: Rounded down to 0
	drum_note 7, 2
	;note G#, 0 | WARNING: Rounded down to 0
	drum_note 7, 1
	drum_note 7, 1
	;note D_, 0 | WARNING: Rounded down to 0
	drum_note 7, 2
	;note A#, 0 | WARNING: Rounded down to 0
	drum_note 7, 1
	drum_note 7, 1
;Bar 21
	;note C_, 0 | WARNING: Rounded down to 0
	drum_note 7, 2
	;note G#, 0 | WARNING: Rounded down to 0
	drum_note 7, 1
	drum_note 7, 1
	;note D_, 0 | WARNING: Rounded down to 0
	drum_note 7, 2
	;note A#, 0 | WARNING: Rounded down to 0
	drum_note 7, 1
	drum_note 7, 1
	;note C_, 0 | WARNING: Rounded down to 0
	drum_note 7, 2
	;note G#, 0 | WARNING: Rounded down to 0
	drum_note 7, 1
	drum_note 7, 1
	;note D_, 0 | WARNING: Rounded down to 0
	drum_note 7, 2
	;note A#, 0 | WARNING: Rounded down to 0
	drum_note 7, 1
	drum_note 7, 1
;Bar 22
	;note C_, 0 | WARNING: Rounded down to 0
	drum_note 7, 2
	;note G#, 0 | WARNING: Rounded down to 0
	drum_note 7, 1
	drum_note 7, 1
	;note D_, 0 | WARNING: Rounded down to 0
	drum_note 7, 2
	;note A#, 0 | WARNING: Rounded down to 0
	drum_note 7, 1
	drum_note 7, 1
	;note C_, 0 | WARNING: Rounded down to 0
	drum_note 7, 2
	;note G#, 0 | WARNING: Rounded down to 0
	drum_note 7, 1
	drum_note 7, 1
	;note D_, 0 | WARNING: Rounded down to 0
	drum_note 7, 2
	;note A#, 0 | WARNING: Rounded down to 0
	drum_note 7, 1
	drum_note 7, 1
;Bar 23
	;note C_, 0 | WARNING: Rounded down to 0
	drum_note 7, 2
	;note G#, 0 | WARNING: Rounded down to 0
	drum_note 7, 1
	drum_note 7, 1
	;note D_, 0 | WARNING: Rounded down to 0
	drum_note 7, 2
	;note A#, 0 | WARNING: Rounded down to 0
	drum_note 7, 1
	drum_note 7, 1
	;note C_, 0 | WARNING: Rounded down to 0
	drum_note 7, 2
	;note G#, 0 | WARNING: Rounded down to 0
	drum_note 7, 1
	drum_note 7, 1
	;note D_, 0 | WARNING: Rounded down to 0
	drum_note 7, 2
	;note A#, 0 | WARNING: Rounded down to 0
	drum_note 7, 1
	drum_note 7, 1
;Bar 24
	;note C_, 0 | WARNING: Rounded down to 0
	drum_note 7, 2
	;note G#, 0 | WARNING: Rounded down to 0
	drum_note 7, 1
	drum_note 7, 1
	;note D_, 0 | WARNING: Rounded down to 0
	drum_note 7, 2
	;note A#, 0 | WARNING: Rounded down to 0
	drum_note 7, 1
	drum_note 7, 1
	;note C_, 0 | WARNING: Rounded down to 0
	drum_note 7, 2
	;note G#, 0 | WARNING: Rounded down to 0
	drum_note 7, 1
	drum_note 7, 1
	;note D_, 0 | WARNING: Rounded down to 0
	drum_note 7, 2
	;note A#, 0 | WARNING: Rounded down to 0
	drum_note 7, 1
	drum_note 7, 1
;Bar 25
	;note C_, 0 | WARNING: Rounded down to 0
	drum_note 7, 2
	;note G#, 0 | WARNING: Rounded down to 0
	drum_note 7, 1
	drum_note 7, 1
	;note D_, 0 | WARNING: Rounded down to 0
	drum_note 7, 2
	;note A#, 0 | WARNING: Rounded down to 0
	drum_note 7, 1
	drum_note 7, 1
	;note C_, 0 | WARNING: Rounded down to 0
	drum_note 7, 2
	;note G#, 0 | WARNING: Rounded down to 0
	drum_note 7, 1
	drum_note 7, 1
	;note D_, 0 | WARNING: Rounded down to 0
	drum_note 7, 2
	;note A#, 0 | WARNING: Rounded down to 0
	drum_note 7, 1
	drum_note 7, 1
;Bar 26
	;note C_, 0 | WARNING: Rounded down to 0
	drum_note 7, 2
	;note G#, 0 | WARNING: Rounded down to 0
	drum_note 7, 1
	drum_note 7, 1
	;note D_, 0 | WARNING: Rounded down to 0
	drum_note 7, 2
	;note A#, 0 | WARNING: Rounded down to 0
	drum_note 7, 1
	drum_note 7, 1
	;note C_, 0 | WARNING: Rounded down to 0
	drum_note 7, 2
	;note G#, 0 | WARNING: Rounded down to 0
	drum_note 7, 1
	drum_note 7, 1
	;note D_, 0 | WARNING: Rounded down to 0
	drum_note 7, 2
	;note A#, 0 | WARNING: Rounded down to 0
	drum_note 7, 1
	drum_note 7, 1
;Bar 27
	;note C_, 0 | WARNING: Rounded down to 0
	drum_note 7, 2
	;note G#, 0 | WARNING: Rounded down to 0
	drum_note 7, 1
	drum_note 7, 1
	;note D_, 0 | WARNING: Rounded down to 0
	drum_note 7, 2
	;note A#, 0 | WARNING: Rounded down to 0
	drum_note 7, 1
	drum_note 7, 1
	;note C_, 0 | WARNING: Rounded down to 0
	drum_note 7, 2
	;note G#, 0 | WARNING: Rounded down to 0
	drum_note 7, 1
	drum_note 7, 1
	;note D_, 0 | WARNING: Rounded down to 0
	drum_note 7, 2
	;note A#, 0 | WARNING: Rounded down to 0
	drum_note 7, 1
	drum_note 7, 1
;Bar 28
	;note C_, 0 | WARNING: Rounded down to 0
	drum_note 7, 2
	;note G#, 0 | WARNING: Rounded down to 0
	drum_note 7, 1
	drum_note 7, 1
	;note D_, 0 | WARNING: Rounded down to 0
	drum_note 7, 2
	;note A#, 0 | WARNING: Rounded down to 0
	drum_note 7, 1
	drum_note 7, 1
	;note C_, 0 | WARNING: Rounded down to 0
	drum_note 7, 2
	;note G#, 0 | WARNING: Rounded down to 0
	drum_note 7, 1
	drum_note 7, 1
	;note D_, 0 | WARNING: Rounded down to 0
	drum_note 7, 2
	;note A#, 0 | WARNING: Rounded down to 0
	drum_note 7, 1
	drum_note 7, 1
;Bar 29
	;note C_, 0 | WARNING: Rounded down to 0
	drum_note 7, 2
	;note G#, 0 | WARNING: Rounded down to 0
	drum_note 7, 1
	drum_note 7, 1
	;note D_, 0 | WARNING: Rounded down to 0
	drum_note 7, 2
	;note A#, 0 | WARNING: Rounded down to 0
	drum_note 7, 1
	drum_note 7, 1
	;note C_, 0 | WARNING: Rounded down to 0
	drum_note 7, 2
	;note G#, 0 | WARNING: Rounded down to 0
	drum_note 7, 1
	drum_note 7, 1
	;note D_, 0 | WARNING: Rounded down to 0
	drum_note 7, 2
	;note A#, 0 | WARNING: Rounded down to 0
	drum_note 7, 1
	drum_note 7, 1
;Bar 30
	;note C_, 0 | WARNING: Rounded down to 0
	drum_note 7, 2
	;note G#, 0 | WARNING: Rounded down to 0
	drum_note 7, 1
	drum_note 7, 1
	;note D_, 0 | WARNING: Rounded down to 0
	drum_note 7, 2
	;note A#, 0 | WARNING: Rounded down to 0
	drum_note 7, 1
	drum_note 7, 1
	;note C_, 0 | WARNING: Rounded down to 0
	drum_note 7, 2
	;note G#, 0 | WARNING: Rounded down to 0
	drum_note 7, 1
	drum_note 7, 1
	;note D_, 0 | WARNING: Rounded down to 0
	drum_note 7, 2
	;note A#, 0 | WARNING: Rounded down to 0
	drum_note 7, 1
	drum_note 7, 1
;Bar 31
	;note C_, 0 | WARNING: Rounded down to 0
	drum_note 7, 2
	;note G#, 0 | WARNING: Rounded down to 0
	drum_note 7, 1
	drum_note 7, 1
	;note D_, 0 | WARNING: Rounded down to 0
	drum_note 7, 2
	;note A#, 0 | WARNING: Rounded down to 0
	drum_note 7, 1
	drum_note 7, 1
	;note C_, 0 | WARNING: Rounded down to 0
	drum_note 7, 2
	;note G#, 0 | WARNING: Rounded down to 0
	drum_note 7, 1
	drum_note 7, 1
	;note D_, 0 | WARNING: Rounded down to 0
	drum_note 7, 2
	;note A#, 0 | WARNING: Rounded down to 0
	drum_note 7, 1
	drum_note 7, 1
;Bar 32
	;note C_, 0 | WARNING: Rounded down to 0
	drum_note 7, 2
	;note G#, 0 | WARNING: Rounded down to 0
	drum_note 7, 1
	drum_note 7, 1
	;note D_, 0 | WARNING: Rounded down to 0
	drum_note 7, 2
	;note A#, 0 | WARNING: Rounded down to 0
	drum_note 7, 1
	drum_note 7, 1
	;note C_, 0 | WARNING: Rounded down to 0
	drum_note 7, 2
	;note G#, 0 | WARNING: Rounded down to 0
	drum_note 7, 1
	drum_note 7, 1
	;note D_, 0 | WARNING: Rounded down to 0
	drum_note 7, 2
	;note A#, 0 | WARNING: Rounded down to 0
	drum_note 7, 1
	drum_note 7, 1
;Bar 33
	;note C_, 0 | WARNING: Rounded down to 0
	drum_note 7, 2
	;note G#, 0 | WARNING: Rounded down to 0
	drum_note 7, 1
	drum_note 7, 1
	;note D_, 0 | WARNING: Rounded down to 0
	drum_note 7, 2
	;note A#, 0 | WARNING: Rounded down to 0
	drum_note 7, 1
	drum_note 7, 1
	;note C_, 0 | WARNING: Rounded down to 0
	drum_note 7, 2
	;note G#, 0 | WARNING: Rounded down to 0
	drum_note 7, 1
	drum_note 7, 1
	;note D_, 0 | WARNING: Rounded down to 0
	drum_note 7, 2
	;note A#, 0 | WARNING: Rounded down to 0
	drum_note 7, 1
	drum_note 7, 1
;Bar 34
	;note C_, 0 | WARNING: Rounded down to 0
	drum_note 7, 2
	;note G#, 0 | WARNING: Rounded down to 0
	drum_note 7, 1
	drum_note 7, 1
	;note D_, 0 | WARNING: Rounded down to 0
	drum_note 7, 2
	;note A#, 0 | WARNING: Rounded down to 0
	drum_note 7, 1
	drum_note 7, 1
	;note C_, 0 | WARNING: Rounded down to 0
	drum_note 7, 2
	;note G#, 0 | WARNING: Rounded down to 0
	drum_note 7, 1
	drum_note 7, 1
	;note D_, 0 | WARNING: Rounded down to 0
	drum_note 7, 2
	;note A#, 0 | WARNING: Rounded down to 0
	drum_note 7, 1
	drum_note 7, 1
;Bar 35
	;note C_, 0 | WARNING: Rounded down to 0
	drum_note 7, 2
	;note G#, 0 | WARNING: Rounded down to 0
	drum_note 7, 1
	drum_note 7, 1
	;note D_, 0 | WARNING: Rounded down to 0
	drum_note 7, 2
	;note A#, 0 | WARNING: Rounded down to 0
	drum_note 7, 1
	drum_note 7, 1
	;note C_, 0 | WARNING: Rounded down to 0
	drum_note 7, 2
	;note G#, 0 | WARNING: Rounded down to 0
	drum_note 7, 1
	drum_note 7, 1
	;note D_, 0 | WARNING: Rounded down to 0
	drum_note 7, 2
	;note A#, 0 | WARNING: Rounded down to 0
	drum_note 7, 1
	drum_note 7, 1
;Bar 36
	;note C_, 0 | WARNING: Rounded down to 0
	drum_note 7, 2
	;note G#, 0 | WARNING: Rounded down to 0
	drum_note 7, 1
	drum_note 7, 1
	;note D_, 0 | WARNING: Rounded down to 0
	drum_note 7, 2
	;note A#, 0 | WARNING: Rounded down to 0
	drum_note 7, 1
	drum_note 7, 1
	;note C_, 0 | WARNING: Rounded down to 0
	drum_note 7, 2
	;note G#, 0 | WARNING: Rounded down to 0
	drum_note 7, 1
	drum_note 7, 1
	;note D_, 0 | WARNING: Rounded down to 0
	drum_note 7, 2
	;note A#, 0 | WARNING: Rounded down to 0
	drum_note 7, 1
	drum_note 7, 1
;Bar 37
	;note C_, 0 | WARNING: Rounded down to 0
	drum_note 7, 2
	;note G#, 0 | WARNING: Rounded down to 0
	drum_note 7, 1
	drum_note 7, 1
	;note D_, 0 | WARNING: Rounded down to 0
	drum_note 7, 2
	;note A#, 0 | WARNING: Rounded down to 0
	drum_note 7, 1
	drum_note 7, 1
	;note C_, 0 | WARNING: Rounded down to 0
	drum_note 7, 2
	;note G#, 0 | WARNING: Rounded down to 0
	drum_note 7, 1
	drum_note 7, 1
	;note D_, 0 | WARNING: Rounded down to 0
	drum_note 7, 2
	;note A#, 0 | WARNING: Rounded down to 0
	drum_note 7, 1
	drum_note 7, 1
;Bar 38
	;note C_, 0 | WARNING: Rounded down to 0
	drum_note 7, 2
	;note G#, 0 | WARNING: Rounded down to 0
	drum_note 7, 1
	drum_note 7, 1
	;note D_, 0 | WARNING: Rounded down to 0
	drum_note 7, 2
	;note A#, 0 | WARNING: Rounded down to 0
	drum_note 7, 1
	drum_note 7, 1
	;note C_, 0 | WARNING: Rounded down to 0
	drum_note 7, 2
	;note G#, 0 | WARNING: Rounded down to 0
	drum_note 7, 1
	drum_note 7, 1
	;note D_, 0 | WARNING: Rounded down to 0
	drum_note 7, 2
	;note A#, 0 | WARNING: Rounded down to 0
	drum_note 7, 1
	drum_note 7, 1
;Bar 39
	;note C_, 0 | WARNING: Rounded down to 0
	drum_note 7, 2
	;note G#, 0 | WARNING: Rounded down to 0
	drum_note 7, 1
	drum_note 7, 1
	;note D_, 0 | WARNING: Rounded down to 0
	drum_note 7, 2
	;note A#, 0 | WARNING: Rounded down to 0
	drum_note 7, 1
	drum_note 7, 1
	;note C_, 0 | WARNING: Rounded down to 0
	drum_note 7, 2
	;note G#, 0 | WARNING: Rounded down to 0
	drum_note 7, 1
	drum_note 7, 1
	;note D_, 0 | WARNING: Rounded down to 0
	drum_note 7, 2
	;note A#, 0 | WARNING: Rounded down to 0
	drum_note 7, 1
	drum_note 7, 1
;Bar 40
	;note C_, 0 | WARNING: Rounded down to 0
	drum_note 7, 2
	;note G#, 0 | WARNING: Rounded down to 0
	drum_note 7, 1
	drum_note 7, 1
	;note D_, 0 | WARNING: Rounded down to 0
	drum_note 7, 2
	;note A#, 0 | WARNING: Rounded down to 0
	drum_note 7, 1
	drum_note 7, 1
	;note C_, 0 | WARNING: Rounded down to 0
	drum_note 7, 2
	;note G#, 0 | WARNING: Rounded down to 0
	drum_note 7, 1
	drum_note 7, 1
	;note D_, 0 | WARNING: Rounded down to 0
	drum_note 7, 2
	;note A#, 0 | WARNING: Rounded down to 0
	drum_note 7, 1
	drum_note 7, 1
;Bar 41
	;note C_, 0 | WARNING: Rounded down to 0
	drum_note 7, 2
	;note G#, 0 | WARNING: Rounded down to 0
	drum_note 7, 1
	drum_note 7, 1
	;note D_, 0 | WARNING: Rounded down to 0
	drum_note 7, 2
	;note A#, 0 | WARNING: Rounded down to 0
	drum_note 7, 1
	drum_note 7, 1
	;note C_, 0 | WARNING: Rounded down to 0
	drum_note 7, 2
	;note G#, 0 | WARNING: Rounded down to 0
	drum_note 7, 1
	drum_note 7, 1
	;note D_, 0 | WARNING: Rounded down to 0
	drum_note 7, 2
	;note A#, 0 | WARNING: Rounded down to 0
	drum_note 7, 1
	drum_note 7, 1
;Bar 42
	;note C_, 0 | WARNING: Rounded down to 0
	drum_note 7, 2
	;note G#, 0 | WARNING: Rounded down to 0
	drum_note 7, 1
	drum_note 7, 1
	;note D_, 0 | WARNING: Rounded down to 0
	drum_note 7, 2
	;note A#, 0 | WARNING: Rounded down to 0
	drum_note 7, 1
	drum_note 7, 1
	;note C_, 0 | WARNING: Rounded down to 0
	drum_note 7, 2
	;note G#, 0 | WARNING: Rounded down to 0
	drum_note 7, 1
	drum_note 7, 1
	;note D_, 0 | WARNING: Rounded down to 0
	drum_note 7, 2
	;note A#, 0 | WARNING: Rounded down to 0
	drum_note 7, 1
	drum_note 7, 1
;Bar 43
	;note C_, 0 | WARNING: Rounded down to 0
	drum_note 7, 2
	;note G#, 0 | WARNING: Rounded down to 0
	drum_note 7, 1
	drum_note 7, 1
	;note D_, 0 | WARNING: Rounded down to 0
	drum_note 7, 2
	;note A#, 0 | WARNING: Rounded down to 0
	drum_note 7, 1
	drum_note 7, 1
	;note C_, 0 | WARNING: Rounded down to 0
	drum_note 7, 2
	;note G#, 0 | WARNING: Rounded down to 0
	drum_note 7, 1
	drum_note 7, 1
	;note D_, 0 | WARNING: Rounded down to 0
	drum_note 7, 2
	;note A#, 0 | WARNING: Rounded down to 0
	drum_note 7, 1
	drum_note 7, 1
;Bar 44
	;note C_, 0 | WARNING: Rounded down to 0
	drum_note 7, 2
	;note G#, 0 | WARNING: Rounded down to 0
	drum_note 7, 1
	drum_note 7, 1
	;note D_, 0 | WARNING: Rounded down to 0
	drum_note 7, 2
	;note A#, 0 | WARNING: Rounded down to 0
	drum_note 7, 1
	drum_note 7, 1
	;note C_, 0 | WARNING: Rounded down to 0
	drum_note 7, 2
	;note G#, 0 | WARNING: Rounded down to 0
	drum_note 7, 1
	drum_note 7, 1
	;note D_, 0 | WARNING: Rounded down to 0
	drum_note 7, 2
	;note A#, 0 | WARNING: Rounded down to 0
	drum_note 7, 1
	drum_note 7, 1
;Bar 45
	;note C_, 0 | WARNING: Rounded down to 0
	drum_note 7, 2
	;note G#, 0 | WARNING: Rounded down to 0
	drum_note 7, 1
	drum_note 7, 1
	;note D_, 0 | WARNING: Rounded down to 0
	drum_note 7, 2
	;note A#, 0 | WARNING: Rounded down to 0
	drum_note 7, 1
	drum_note 7, 1
	;note C_, 0 | WARNING: Rounded down to 0
	drum_note 7, 2
	;note G#, 0 | WARNING: Rounded down to 0
	drum_note 7, 1
	drum_note 7, 1
	;note D_, 0 | WARNING: Rounded down to 0
	drum_note 7, 2
	;note A#, 0 | WARNING: Rounded down to 0
	drum_note 7, 1
	drum_note 7, 1
;Bar 46
	;note C_, 0 | WARNING: Rounded down to 0
	drum_note 7, 2
	;note G#, 0 | WARNING: Rounded down to 0
	drum_note 7, 1
	drum_note 7, 1
	;note D_, 0 | WARNING: Rounded down to 0
	drum_note 7, 2
	;note A#, 0 | WARNING: Rounded down to 0
	drum_note 7, 1
	drum_note 7, 1
	;note C_, 0 | WARNING: Rounded down to 0
	drum_note 7, 2
	;note G#, 0 | WARNING: Rounded down to 0
	drum_note 7, 1
	drum_note 7, 1
	;note D_, 0 | WARNING: Rounded down to 0
	drum_note 7, 2
	;note A#, 0 | WARNING: Rounded down to 0
	drum_note 7, 1
	drum_note 7, 1
;Bar 47
	;note C_, 0 | WARNING: Rounded down to 0
	drum_note 7, 2
	;note G#, 0 | WARNING: Rounded down to 0
	drum_note 7, 1
	drum_note 7, 1
	;note D_, 0 | WARNING: Rounded down to 0
	drum_note 7, 2
	;note A#, 0 | WARNING: Rounded down to 0
	drum_note 7, 1
	drum_note 7, 1
	;note C_, 0 | WARNING: Rounded down to 0
	drum_note 7, 2
	;note G#, 0 | WARNING: Rounded down to 0
	drum_note 7, 1
	drum_note 7, 1
	;note D_, 0 | WARNING: Rounded down to 0
	drum_note 7, 2
	;note A#, 0 | WARNING: Rounded down to 0
	drum_note 7, 1
	drum_note 7, 1
;Bar 48
	;note C_, 0 | WARNING: Rounded down to 0
	drum_note 7, 2
	;note G#, 0 | WARNING: Rounded down to 0
	drum_note 7, 1
	drum_note 7, 1
	;note D_, 0 | WARNING: Rounded down to 0
	drum_note 7, 2
	;note A#, 0 | WARNING: Rounded down to 0
	drum_note 7, 1
	drum_note 7, 1
	;note C_, 0 | WARNING: Rounded down to 0
	drum_note 7, 2
	;note G#, 0 | WARNING: Rounded down to 0
	drum_note 7, 1
	drum_note 7, 1
	;note D_, 0 | WARNING: Rounded down to 0
	drum_note 7, 2
	;note A#, 0 | WARNING: Rounded down to 0
	drum_note 7, 1
	drum_note 7, 1
;Bar 49
	;note C_, 0 | WARNING: Rounded down to 0
	drum_note 7, 2
	;note G#, 0 | WARNING: Rounded down to 0
	drum_note 7, 1
	drum_note 7, 1
	;note D_, 0 | WARNING: Rounded down to 0
	drum_note 7, 2
	;note A#, 0 | WARNING: Rounded down to 0
	drum_note 7, 1
	drum_note 7, 1
	;note C_, 0 | WARNING: Rounded down to 0
	drum_note 7, 2
	;note G#, 0 | WARNING: Rounded down to 0
	drum_note 7, 1
	drum_note 7, 1
	;note D_, 0 | WARNING: Rounded down to 0
	drum_note 7, 2
	;note A#, 0 | WARNING: Rounded down to 0
	drum_note 7, 1
	drum_note 7, 1
;Bar 50
	;note C_, 0 | WARNING: Rounded down to 0
	drum_note 7, 2
	;note G#, 0 | WARNING: Rounded down to 0
	drum_note 7, 1
	drum_note 7, 1
	;note D_, 0 | WARNING: Rounded down to 0
	drum_note 7, 2
	;note A#, 0 | WARNING: Rounded down to 0
	drum_note 7, 1
	drum_note 7, 1
	;note C_, 0 | WARNING: Rounded down to 0
	drum_note 7, 2
	;note G#, 0 | WARNING: Rounded down to 0
	drum_note 7, 1
	drum_note 7, 1
	;note D_, 0 | WARNING: Rounded down to 0
	drum_note 7, 2
	;note A#, 0 | WARNING: Rounded down to 0
	drum_note 7, 1
	drum_note 7, 1
;Bar 51
	;note C_, 0 | WARNING: Rounded down to 0
	drum_note 7, 2
	;note G#, 0 | WARNING: Rounded down to 0
	drum_note 7, 1
	drum_note 7, 1
	;note D_, 0 | WARNING: Rounded down to 0
	drum_note 7, 2
	;note A#, 0 | WARNING: Rounded down to 0
	drum_note 7, 1
	drum_note 7, 1
	;note C_, 0 | WARNING: Rounded down to 0
	drum_note 7, 2
	;note G#, 0 | WARNING: Rounded down to 0
	drum_note 7, 1
	drum_note 7, 1
	;note D_, 0 | WARNING: Rounded down to 0
	drum_note 7, 2
	;note A#, 0 | WARNING: Rounded down to 0
	drum_note 7, 1
	drum_note 7, 1
;Bar 52
	;note C_, 0 | WARNING: Rounded down to 0
	drum_note 7, 2
	;note G#, 0 | WARNING: Rounded down to 0
	drum_note 7, 1
	drum_note 7, 1
	;note D_, 0 | WARNING: Rounded down to 0
	drum_note 7, 2
	;note A#, 0 | WARNING: Rounded down to 0
	drum_note 7, 1
	drum_note 7, 1
	;note C_, 0 | WARNING: Rounded down to 0
	drum_note 7, 2
	;note G#, 0 | WARNING: Rounded down to 0
	drum_note 7, 1
	drum_note 7, 1
	;note D_, 0 | WARNING: Rounded down to 0
	drum_note 7, 2
	;note A#, 0 | WARNING: Rounded down to 0
	drum_note 7, 1
	drum_note 7, 1
;Bar 53
	;note C_, 0 | WARNING: Rounded down to 0
	drum_note 7, 2
	;note G#, 0 | WARNING: Rounded down to 0
	drum_note 7, 1
	drum_note 7, 1
	;note D_, 0 | WARNING: Rounded down to 0
	drum_note 7, 2
	;note A#, 0 | WARNING: Rounded down to 0
	drum_note 7, 1
	drum_note 7, 1
	;note C_, 0 | WARNING: Rounded down to 0
	drum_note 7, 2
	;note G#, 0 | WARNING: Rounded down to 0
	drum_note 7, 1
	drum_note 7, 1
	;note D_, 0 | WARNING: Rounded down to 0
	drum_note 7, 2
	;note A#, 0 | WARNING: Rounded down to 0
	drum_note 7, 1
	drum_note 7, 1
;Bar 54
	;note C_, 0 | WARNING: Rounded down to 0
	drum_note 7, 2
	;note G#, 0 | WARNING: Rounded down to 0
	drum_note 7, 1
	drum_note 7, 1
	;note D_, 0 | WARNING: Rounded down to 0
	drum_note 7, 2
	;note A#, 0 | WARNING: Rounded down to 0
	drum_note 7, 1
	drum_note 7, 1
	;note C_, 0 | WARNING: Rounded down to 0
	drum_note 7, 2
	;note G#, 0 | WARNING: Rounded down to 0
	drum_note 7, 1
	drum_note 7, 1
	;note D_, 0 | WARNING: Rounded down to 0
	drum_note 7, 2
	;note A#, 0 | WARNING: Rounded down to 0
	drum_note 7, 1
	drum_note 7, 1
;Bar 55
	;note C_, 0 | WARNING: Rounded down to 0
	drum_note 7, 2
	;note G#, 0 | WARNING: Rounded down to 0
	drum_note 7, 1
	drum_note 7, 1
	;note D_, 0 | WARNING: Rounded down to 0
	drum_note 7, 2
	;note A#, 0 | WARNING: Rounded down to 0
	drum_note 7, 1
	drum_note 7, 1
	;note C_, 0 | WARNING: Rounded down to 0
	drum_note 7, 2
	;note G#, 0 | WARNING: Rounded down to 0
	drum_note 7, 1
	drum_note 7, 1
	;note D_, 0 | WARNING: Rounded down to 0
	drum_note 7, 2
	;note A#, 0 | WARNING: Rounded down to 0
	drum_note 7, 1
	drum_note 7, 1
;Bar 56
	;note C_, 0 | WARNING: Rounded down to 0
	drum_note 7, 2
	;note G#, 0 | WARNING: Rounded down to 0
	drum_note 7, 1
	drum_note 7, 1
	;note D_, 0 | WARNING: Rounded down to 0
	drum_note 7, 2
	;note A#, 0 | WARNING: Rounded down to 0
	drum_note 7, 1
	drum_note 7, 1
	;note C_, 0 | WARNING: Rounded down to 0
	drum_note 7, 2
	;note G#, 0 | WARNING: Rounded down to 0
	drum_note 7, 1
	drum_note 7, 1
	;note D_, 0 | WARNING: Rounded down to 0
	drum_note 7, 2
	;note A#, 0 | WARNING: Rounded down to 0
	drum_note 7, 1
	drum_note 7, 1
;Bar 57
	;note C_, 0 | WARNING: Rounded down to 0
	drum_note 7, 2
	;note G#, 0 | WARNING: Rounded down to 0
	drum_note 7, 1
	drum_note 7, 1
	;note D_, 0 | WARNING: Rounded down to 0
	drum_note 7, 2
	;note A#, 0 | WARNING: Rounded down to 0
	drum_note 7, 1
	drum_note 7, 1
	;note C_, 0 | WARNING: Rounded down to 0
	drum_note 7, 2
	;note G#, 0 | WARNING: Rounded down to 0
	drum_note 7, 1
	drum_note 7, 1
	;note D_, 0 | WARNING: Rounded down to 0
	drum_note 7, 2
	;note A#, 0 | WARNING: Rounded down to 0
	drum_note 7, 1
	drum_note 7, 1
;Bar 58
	;note C_, 0 | WARNING: Rounded down to 0
	drum_note 7, 2
	;note G#, 0 | WARNING: Rounded down to 0
	drum_note 7, 1
	drum_note 7, 1
	;note D_, 0 | WARNING: Rounded down to 0
	drum_note 7, 2
	;note A#, 0 | WARNING: Rounded down to 0
	drum_note 7, 1
	drum_note 7, 1
	;note C_, 0 | WARNING: Rounded down to 0
	drum_note 7, 2
	;note G#, 0 | WARNING: Rounded down to 0
	drum_note 7, 1
	drum_note 7, 1
	;note D_, 0 | WARNING: Rounded down to 0
	drum_note 7, 2
	;note A#, 0 | WARNING: Rounded down to 0
	drum_note 7, 1
	drum_note 7, 1
;Bar 59
	;note C_, 0 | WARNING: Rounded down to 0
	drum_note 7, 2
	;note G#, 0 | WARNING: Rounded down to 0
	drum_note 7, 1
	drum_note 7, 1
	;note D_, 0 | WARNING: Rounded down to 0
	drum_note 7, 2
	;note A#, 0 | WARNING: Rounded down to 0
	drum_note 7, 1
	drum_note 7, 1
	;note C_, 0 | WARNING: Rounded down to 0
	drum_note 7, 2
	;note G#, 0 | WARNING: Rounded down to 0
	drum_note 7, 1
	drum_note 7, 1
	;note D_, 0 | WARNING: Rounded down to 0
	drum_note 7, 2
	;note A#, 0 | WARNING: Rounded down to 0
	drum_note 7, 1
	drum_note 7, 1
;Bar 60
	;note C_, 0 | WARNING: Rounded down to 0
	drum_note 7, 2
	;note G#, 0 | WARNING: Rounded down to 0
	drum_note 7, 1
	drum_note 7, 1
	;note D_, 0 | WARNING: Rounded down to 0
	drum_note 7, 2
	;note A#, 0 | WARNING: Rounded down to 0
	drum_note 7, 1
	drum_note 7, 1
	;note C_, 0 | WARNING: Rounded down to 0
	drum_note 7, 2
	;note G#, 0 | WARNING: Rounded down to 0
	drum_note 7, 1
	drum_note 7, 1
	;note D_, 0 | WARNING: Rounded down to 0
	drum_note 7, 2
	;note A#, 0 | WARNING: Rounded down to 0
	drum_note 7, 1
	drum_note 7, 1
;Bar 61
	;note C_, 0 | WARNING: Rounded down to 0
	drum_note 7, 2
	;note G#, 0 | WARNING: Rounded down to 0
	drum_note 7, 1
	drum_note 7, 1
	;note D_, 0 | WARNING: Rounded down to 0
	drum_note 7, 2
	;note A#, 0 | WARNING: Rounded down to 0
	drum_note 7, 1
	drum_note 7, 1
	;note C_, 0 | WARNING: Rounded down to 0
	drum_note 7, 2
	;note G#, 0 | WARNING: Rounded down to 0
	drum_note 7, 1
	drum_note 7, 1
	;note D_, 0 | WARNING: Rounded down to 0
	drum_note 7, 2
	;note A#, 0 | WARNING: Rounded down to 0
	drum_note 7, 1
	drum_note 7, 1
;Bar 62
	;note C_, 0 | WARNING: Rounded down to 0
	drum_note 7, 2
	;note G#, 0 | WARNING: Rounded down to 0
	drum_note 7, 1
	drum_note 7, 1
	;note D_, 0 | WARNING: Rounded down to 0
	drum_note 7, 2
	;note A#, 0 | WARNING: Rounded down to 0
	drum_note 7, 1
	drum_note 7, 1
	;note C_, 0 | WARNING: Rounded down to 0
	drum_note 7, 2
	;note G#, 0 | WARNING: Rounded down to 0
	drum_note 7, 1
	drum_note 7, 1
	;note D_, 0 | WARNING: Rounded down to 0
	drum_note 7, 2
	;note A#, 0 | WARNING: Rounded down to 0
	drum_note 7, 1
	drum_note 7, 1
;Bar 63
	;note C_, 0 | WARNING: Rounded down to 0
	drum_note 7, 2
	;note G#, 0 | WARNING: Rounded down to 0
	drum_note 7, 1
	drum_note 7, 1
	;note D_, 0 | WARNING: Rounded down to 0
	drum_note 7, 2
	;note A#, 0 | WARNING: Rounded down to 0
	drum_note 7, 1
	drum_note 7, 1
	;note C_, 0 | WARNING: Rounded down to 0
	drum_note 7, 2
	;note G#, 0 | WARNING: Rounded down to 0
	drum_note 7, 1
	drum_note 7, 1
	;note D_, 0 | WARNING: Rounded down to 0
	drum_note 7, 2
	;note A#, 0 | WARNING: Rounded down to 0
	drum_note 7, 1
	drum_note 7, 1
;Bar 64
	;note C_, 0 | WARNING: Rounded down to 0
	drum_note 7, 2
	;note G#, 0 | WARNING: Rounded down to 0
	drum_note 7, 1
	drum_note 7, 1
	;note D_, 0 | WARNING: Rounded down to 0
	drum_note 7, 2
	;note A#, 0 | WARNING: Rounded down to 0
	drum_note 7, 1
	drum_note 7, 1
	;note C_, 0 | WARNING: Rounded down to 0
	drum_note 7, 2
	;note G#, 0 | WARNING: Rounded down to 0
	drum_note 7, 1
	drum_note 7, 1
	;note D_, 0 | WARNING: Rounded down to 0
	drum_note 7, 2
	;note A#, 0 | WARNING: Rounded down to 0
	drum_note 7, 1
	drum_note 7, 1
;Bar 65
	;note C_, 0 | WARNING: Rounded down to 0
	drum_note 7, 2
	;note G#, 0 | WARNING: Rounded down to 0
	drum_note 7, 1
	drum_note 7, 1
	;note D_, 0 | WARNING: Rounded down to 0
	drum_note 7, 2
	;note A#, 0 | WARNING: Rounded down to 0
	drum_note 7, 1
	drum_note 7, 1
	;note C_, 0 | WARNING: Rounded down to 0
	drum_note 7, 2
	;note G#, 0 | WARNING: Rounded down to 0
	drum_note 7, 1
	drum_note 7, 1
	;note D_, 0 | WARNING: Rounded down to 0
	drum_note 7, 2
	;note A#, 0 | WARNING: Rounded down to 0
	drum_note 7, 1
	drum_note 7, 1
;Bar 66
	;note C_, 0 | WARNING: Rounded down to 0
	drum_note 7, 2
	;note G#, 0 | WARNING: Rounded down to 0
	drum_note 7, 1
	drum_note 7, 1
	;note D_, 0 | WARNING: Rounded down to 0
	drum_note 7, 2
	;note A#, 0 | WARNING: Rounded down to 0
	drum_note 7, 1
	drum_note 7, 1
	;note C_, 0 | WARNING: Rounded down to 0
	drum_note 7, 2
	;note G#, 0 | WARNING: Rounded down to 0
	drum_note 7, 1
	drum_note 7, 1
	;note D_, 0 | WARNING: Rounded down to 0
	drum_note 7, 2
	;note A#, 0 | WARNING: Rounded down to 0
	drum_note 7, 1
	drum_note 7, 1
;Bar 67
	;note C_, 0 | WARNING: Rounded down to 0
	drum_note 7, 2
	;note G#, 0 | WARNING: Rounded down to 0
	drum_note 7, 1
	drum_note 7, 1
	;note D_, 0 | WARNING: Rounded down to 0
	drum_note 7, 2
	;note A#, 0 | WARNING: Rounded down to 0
	drum_note 7, 1
	drum_note 7, 1
	;note C_, 0 | WARNING: Rounded down to 0
	drum_note 7, 2
	;note G#, 0 | WARNING: Rounded down to 0
	drum_note 7, 1
	drum_note 7, 1
	;note D_, 0 | WARNING: Rounded down to 0
	drum_note 7, 2
	;note A#, 0 | WARNING: Rounded down to 0
	drum_note 7, 1
	drum_note 7, 1
;Bar 68
	;note C_, 0 | WARNING: Rounded down to 0
	drum_note 7, 2
	;note G#, 0 | WARNING: Rounded down to 0
	drum_note 7, 1
	drum_note 7, 1
	;note D_, 0 | WARNING: Rounded down to 0
	drum_note 7, 2
	;note A#, 0 | WARNING: Rounded down to 0
	drum_note 7, 1
	drum_note 7, 1
	;note C_, 0 | WARNING: Rounded down to 0
	drum_note 7, 2
	;note G#, 0 | WARNING: Rounded down to 0
	drum_note 7, 1
	drum_note 7, 1
	;note D_, 0 | WARNING: Rounded down to 0
	drum_note 7, 2
	;note A#, 0 | WARNING: Rounded down to 0
	drum_note 7, 1
	drum_note 7, 1
;Bar 69
	;note C_, 0 | WARNING: Rounded down to 0
	drum_note 7, 2
	;note G#, 0 | WARNING: Rounded down to 0
	drum_note 7, 1
	drum_note 7, 1
	;note D_, 0 | WARNING: Rounded down to 0
	drum_note 7, 2
	;note A#, 0 | WARNING: Rounded down to 0
	drum_note 7, 1
	drum_note 7, 1
	;note C_, 0 | WARNING: Rounded down to 0
	drum_note 7, 2
	;note G#, 0 | WARNING: Rounded down to 0
	drum_note 7, 1
	drum_note 7, 1
	;note D_, 0 | WARNING: Rounded down to 0
	drum_note 7, 2
	;note A#, 0 | WARNING: Rounded down to 0
	drum_note 7, 1
	drum_note 7, 1
;Bar 70
	;note C_, 0 | WARNING: Rounded down to 0
	drum_note 7, 2
	;note G#, 0 | WARNING: Rounded down to 0
	drum_note 7, 1
	drum_note 7, 1
	;note D_, 0 | WARNING: Rounded down to 0
	drum_note 7, 2
	;note A#, 0 | WARNING: Rounded down to 0
	drum_note 7, 1
	drum_note 7, 1
	;note C_, 0 | WARNING: Rounded down to 0
	drum_note 7, 2
	;note G#, 0 | WARNING: Rounded down to 0
	drum_note 7, 1
	drum_note 7, 1
	;note D_, 0 | WARNING: Rounded down to 0
	drum_note 7, 2
	;note A#, 0 | WARNING: Rounded down to 0
	drum_note 7, 1
	drum_note 7, 1
;Bar 71
	;note C_, 0 | WARNING: Rounded down to 0
	drum_note 7, 2
	;note G#, 0 | WARNING: Rounded down to 0
	drum_note 7, 1
	drum_note 7, 1
	;note D_, 0 | WARNING: Rounded down to 0
	drum_note 7, 2
	;note A#, 0 | WARNING: Rounded down to 0
	drum_note 7, 1
	drum_note 7, 1
	;note C_, 0 | WARNING: Rounded down to 0
	drum_note 7, 2
	;note G#, 0 | WARNING: Rounded down to 0
	drum_note 7, 1
	drum_note 7, 1
	;note D_, 0 | WARNING: Rounded down to 0
	drum_note 7, 2
	;note A#, 0 | WARNING: Rounded down to 0
	drum_note 7, 1
	drum_note 7, 1
;Bar 72
	;note C_, 0 | WARNING: Rounded down to 0
	drum_note 7, 2
	;note G#, 0 | WARNING: Rounded down to 0
	drum_note 7, 1
	drum_note 7, 1
	;note D_, 0 | WARNING: Rounded down to 0
	drum_note 7, 2
	;note A#, 0 | WARNING: Rounded down to 0
	drum_note 7, 1
	drum_note 7, 1
	;note C_, 0 | WARNING: Rounded down to 0
	drum_note 7, 2
	;note G#, 0 | WARNING: Rounded down to 0
	drum_note 7, 1
	drum_note 7, 1
	;note D_, 0 | WARNING: Rounded down to 0
	drum_note 7, 2
	;note A#, 0 | WARNING: Rounded down to 0
	drum_note 7, 1
	drum_note 7, 1
;Bar 73
	;note C_, 0 | WARNING: Rounded down to 0
	drum_note 7, 2
	;note G#, 0 | WARNING: Rounded down to 0
	drum_note 7, 1
	drum_note 7, 1
	;note D_, 0 | WARNING: Rounded down to 0
	drum_note 7, 2
	;note A#, 0 | WARNING: Rounded down to 0
	drum_note 7, 1
	drum_note 7, 1
	;note C_, 0 | WARNING: Rounded down to 0
	drum_note 7, 2
	;note G#, 0 | WARNING: Rounded down to 0
	drum_note 7, 1
	drum_note 7, 1
	;note D_, 0 | WARNING: Rounded down to 0
	drum_note 7, 2
	;note A#, 0 | WARNING: Rounded down to 0
	drum_note 7, 1
	drum_note 7, 1
;Bar 74
	;note C_, 0 | WARNING: Rounded down to 0
	drum_note 7, 2
	;note G#, 0 | WARNING: Rounded down to 0
	drum_note 7, 1
	drum_note 7, 1
	;note D_, 0 | WARNING: Rounded down to 0
	drum_note 7, 2
	;note A#, 0 | WARNING: Rounded down to 0
	drum_note 7, 1
	drum_note 7, 1
	;note C_, 0 | WARNING: Rounded down to 0
	drum_note 7, 2
	;note G#, 0 | WARNING: Rounded down to 0
	drum_note 7, 1
	drum_note 7, 1
	;note D_, 0 | WARNING: Rounded down to 0
	drum_note 7, 2
	;note A#, 0 | WARNING: Rounded down to 0
	drum_note 7, 1
	drum_note 7, 1
;Bar 75
	;note C_, 0 | WARNING: Rounded down to 0
	drum_note 7, 2
	;note G#, 0 | WARNING: Rounded down to 0
	drum_note 7, 1
	drum_note 7, 1
	;note D_, 0 | WARNING: Rounded down to 0
	drum_note 7, 2
	;note A#, 0 | WARNING: Rounded down to 0
	drum_note 7, 1
	drum_note 7, 1
	;note C_, 0 | WARNING: Rounded down to 0
	drum_note 7, 2
	;note G#, 0 | WARNING: Rounded down to 0
	drum_note 7, 1
	drum_note 7, 1
	;note D_, 0 | WARNING: Rounded down to 0
	drum_note 7, 2
	;note A#, 0 | WARNING: Rounded down to 0
	drum_note 7, 1
	drum_note 7, 1
;Bar 76
	;note C_, 0 | WARNING: Rounded down to 0
	drum_note 7, 2
	;note G#, 0 | WARNING: Rounded down to 0
	drum_note 7, 1
	drum_note 7, 1
	;note D_, 0 | WARNING: Rounded down to 0
	drum_note 7, 2
	;note A#, 0 | WARNING: Rounded down to 0
	drum_note 7, 1
	drum_note 7, 1
	;note C_, 0 | WARNING: Rounded down to 0
	drum_note 7, 2
	;note G#, 0 | WARNING: Rounded down to 0
	drum_note 7, 1
	drum_note 7, 1
	;note D_, 0 | WARNING: Rounded down to 0
	drum_note 7, 2
	;note A#, 0 | WARNING: Rounded down to 0
	drum_note 7, 1
	drum_note 7, 1
;Bar 77
	;note C_, 0 | WARNING: Rounded down to 0
	drum_note 7, 2
	;note G#, 0 | WARNING: Rounded down to 0
	drum_note 7, 1
	drum_note 7, 1
	;note D_, 0 | WARNING: Rounded down to 0
	drum_note 7, 2
	;note A#, 0 | WARNING: Rounded down to 0
	drum_note 7, 1
	drum_note 7, 1
	;note C_, 0 | WARNING: Rounded down to 0
	drum_note 7, 2
	;note G#, 0 | WARNING: Rounded down to 0
	drum_note 7, 1
	drum_note 7, 1
	;note D_, 0 | WARNING: Rounded down to 0
	drum_note 7, 2
	;note A#, 0 | WARNING: Rounded down to 0
	drum_note 7, 1
	drum_note 7, 1
;Bar 78
	;note C_, 0 | WARNING: Rounded down to 0
	drum_note 7, 2
	;note G#, 0 | WARNING: Rounded down to 0
	drum_note 7, 1
	drum_note 7, 1
	;note D_, 0 | WARNING: Rounded down to 0
	drum_note 7, 2
	;note A#, 0 | WARNING: Rounded down to 0
	drum_note 7, 1
	drum_note 7, 1
	;note C_, 0 | WARNING: Rounded down to 0
	drum_note 7, 2
	;note G#, 0 | WARNING: Rounded down to 0
	drum_note 7, 1
	drum_note 7, 1
	;note D_, 0 | WARNING: Rounded down to 0
	drum_note 7, 2
	;note A#, 0 | WARNING: Rounded down to 0
	drum_note 7, 1
	drum_note 7, 1
;Bar 79
	;note C_, 0 | WARNING: Rounded down to 0
	drum_note 7, 2
	;note G#, 0 | WARNING: Rounded down to 0
	drum_note 7, 1
	drum_note 7, 1
	;note D_, 0 | WARNING: Rounded down to 0
	drum_note 7, 2
	;note A#, 0 | WARNING: Rounded down to 0
	drum_note 7, 1
	drum_note 7, 1
	;note C_, 0 | WARNING: Rounded down to 0
	drum_note 7, 2
	;note G#, 0 | WARNING: Rounded down to 0
	drum_note 7, 1
	drum_note 7, 1
	;note D_, 0 | WARNING: Rounded down to 0
	drum_note 7, 2
	;note A#, 0 | WARNING: Rounded down to 0
	drum_note 7, 1
	drum_note 7, 1
;Bar 80
	;note C_, 0 | WARNING: Rounded down to 0
	drum_note 7, 2
	;note G#, 0 | WARNING: Rounded down to 0
	drum_note 7, 1
	drum_note 7, 1
	;note D_, 0 | WARNING: Rounded down to 0
	drum_note 7, 2
	;note A#, 0 | WARNING: Rounded down to 0
	drum_note 7, 1
	drum_note 7, 1
	;note C_, 0 | WARNING: Rounded down to 0
	drum_note 7, 2
	;note G#, 0 | WARNING: Rounded down to 0
	drum_note 7, 1
	drum_note 7, 1
	;note D_, 0 | WARNING: Rounded down to 0
	drum_note 7, 2
	;note A#, 0 | WARNING: Rounded down to 0
	drum_note 7, 1
	drum_note 7, 1
;Bar 81
	;note C_, 0 | WARNING: Rounded down to 0
	drum_note 7, 2
	;note G#, 0 | WARNING: Rounded down to 0
	drum_note 7, 1
	drum_note 7, 1
	;note D_, 0 | WARNING: Rounded down to 0
	drum_note 7, 2
	;note A#, 0 | WARNING: Rounded down to 0
	drum_note 7, 1
	drum_note 7, 1
	;note C_, 0 | WARNING: Rounded down to 0
	drum_note 7, 2
	;note G#, 0 | WARNING: Rounded down to 0
	drum_note 7, 1
	drum_note 7, 1
	;note D_, 0 | WARNING: Rounded down to 0
	drum_note 7, 2
	;note A#, 0 | WARNING: Rounded down to 0
	drum_note 7, 1
	drum_note 7, 1
;Bar 82
	;note C_, 0 | WARNING: Rounded down to 0
	drum_note 7, 2
	;note G#, 0 | WARNING: Rounded down to 0
	drum_note 7, 1
	drum_note 7, 1
	;note D_, 0 | WARNING: Rounded down to 0
	drum_note 7, 2
	;note A#, 0 | WARNING: Rounded down to 0
	drum_note 7, 1
	drum_note 7, 1
	;note C_, 0 | WARNING: Rounded down to 0
	drum_note 7, 2
	;note G#, 0 | WARNING: Rounded down to 0
	drum_note 7, 1
	drum_note 7, 1
	;note D_, 0 | WARNING: Rounded down to 0
	drum_note 7, 2
	;note A#, 0 | WARNING: Rounded down to 0
	drum_note 7, 1
	drum_note 7, 1
;Bar 83
	;note C_, 0 | WARNING: Rounded down to 0
	drum_note 7, 2
	;note G#, 0 | WARNING: Rounded down to 0
	drum_note 7, 1
	drum_note 7, 1
	;note D_, 0 | WARNING: Rounded down to 0
	drum_note 7, 2
	;note A#, 0 | WARNING: Rounded down to 0
	drum_note 7, 1
	drum_note 7, 1
	;note C_, 0 | WARNING: Rounded down to 0
	drum_note 7, 2
	;note G#, 0 | WARNING: Rounded down to 0
	drum_note 7, 1
	drum_note 7, 1
	;note D_, 0 | WARNING: Rounded down to 0
	drum_note 7, 2
	;note A#, 0 | WARNING: Rounded down to 0
	drum_note 7, 1
	drum_note 7, 1
;Bar 84
	;note C_, 0 | WARNING: Rounded down to 0
	drum_note 7, 2
	;note G#, 0 | WARNING: Rounded down to 0
	drum_note 7, 1
	drum_note 7, 1
	;note D_, 0 | WARNING: Rounded down to 0
	drum_note 7, 2
	;note A#, 0 | WARNING: Rounded down to 0
	drum_note 7, 1
	drum_note 7, 1
	;note C_, 0 | WARNING: Rounded down to 0
	drum_note 7, 2
	;note G#, 0 | WARNING: Rounded down to 0
	drum_note 7, 1
	drum_note 7, 1
	;note D_, 0 | WARNING: Rounded down to 0
	drum_note 7, 2
	;note A#, 0 | WARNING: Rounded down to 0
	drum_note 7, 1
	drum_note 7, 1
;Bar 85
	;note C_, 0 | WARNING: Rounded down to 0
	drum_note 7, 2
	;note G#, 0 | WARNING: Rounded down to 0
	drum_note 7, 1
	drum_note 7, 1
	;note D_, 0 | WARNING: Rounded down to 0
	drum_note 7, 2
	;note A#, 0 | WARNING: Rounded down to 0
	drum_note 7, 1
	drum_note 7, 1
	;note C_, 0 | WARNING: Rounded down to 0
	drum_note 7, 2
	;note G#, 0 | WARNING: Rounded down to 0
	drum_note 7, 1
	drum_note 7, 1
	;note D_, 0 | WARNING: Rounded down to 0
	drum_note 7, 2
	;note A#, 0 | WARNING: Rounded down to 0
	drum_note 7, 1
	drum_note 7, 1
;Bar 86
	;note C_, 0 | WARNING: Rounded down to 0
	drum_note 7, 2
	;note G#, 0 | WARNING: Rounded down to 0
	drum_note 7, 1
	drum_note 7, 1
	;note D_, 0 | WARNING: Rounded down to 0
	drum_note 7, 2
	;note A#, 0 | WARNING: Rounded down to 0
	drum_note 7, 1
	drum_note 7, 1
	;note C_, 0 | WARNING: Rounded down to 0
	drum_note 7, 2
	;note G#, 0 | WARNING: Rounded down to 0
	drum_note 7, 1
	drum_note 7, 1
	;note D_, 0 | WARNING: Rounded down to 0
	drum_note 7, 2
	;note A#, 0 | WARNING: Rounded down to 0
	drum_note 7, 1
	drum_note 7, 1
;Bar 87
	;note C_, 0 | WARNING: Rounded down to 0
	drum_note 7, 2
	;note G#, 0 | WARNING: Rounded down to 0
	drum_note 7, 1
	drum_note 7, 1
	;note D_, 0 | WARNING: Rounded down to 0
	drum_note 7, 2
	;note A#, 0 | WARNING: Rounded down to 0
	drum_note 7, 1
	drum_note 7, 1
	;note C_, 0 | WARNING: Rounded down to 0
	drum_note 7, 2
	;note G#, 0 | WARNING: Rounded down to 0
	drum_note 7, 1
	drum_note 7, 1
	;note D_, 0 | WARNING: Rounded down to 0
	drum_note 7, 2
	;note A#, 0 | WARNING: Rounded down to 0
	drum_note 7, 1
	drum_note 7, 1
;Bar 88
	;note C_, 0 | WARNING: Rounded down to 0
	drum_note 7, 2
	;note G#, 0 | WARNING: Rounded down to 0
	drum_note 7, 1
	drum_note 7, 1
	;note D_, 0 | WARNING: Rounded down to 0
	drum_note 7, 2
	;note A#, 0 | WARNING: Rounded down to 0
	drum_note 7, 1
	drum_note 7, 1
	;note C_, 0 | WARNING: Rounded down to 0
	drum_note 7, 2
	;note G#, 0 | WARNING: Rounded down to 0
	drum_note 7, 1
	drum_note 7, 1
	;note D_, 0 | WARNING: Rounded down to 0
	drum_note 7, 2
	;note A#, 0 | WARNING: Rounded down to 0
	drum_note 7, 1
	drum_note 7, 1
;Bar 89
	;note C_, 0 | WARNING: Rounded down to 0
	drum_note 7, 2
	;note G#, 0 | WARNING: Rounded down to 0
	drum_note 7, 1
	drum_note 7, 1
	;note D_, 0 | WARNING: Rounded down to 0
	drum_note 7, 2
	;note A#, 0 | WARNING: Rounded down to 0
	drum_note 7, 1
	drum_note 7, 1
	;note C_, 0 | WARNING: Rounded down to 0
	drum_note 7, 2
	;note G#, 0 | WARNING: Rounded down to 0
	drum_note 7, 1
	drum_note 7, 1
	;note D_, 0 | WARNING: Rounded down to 0
	drum_note 7, 2
	;note A#, 0 | WARNING: Rounded down to 0
	drum_note 7, 1
	drum_note 7, 1
;Bar 90
	;note C_, 0 | WARNING: Rounded down to 0
	drum_note 7, 2
	;note G#, 0 | WARNING: Rounded down to 0
	drum_note 7, 1
	drum_note 7, 1
	;note D_, 0 | WARNING: Rounded down to 0
	drum_note 7, 2
	;note A#, 0 | WARNING: Rounded down to 0
	drum_note 7, 1
	drum_note 7, 1
	;note C_, 0 | WARNING: Rounded down to 0
	drum_note 7, 2
	;note G#, 0 | WARNING: Rounded down to 0
	drum_note 7, 1
	drum_note 7, 1
	;note D_, 0 | WARNING: Rounded down to 0
	drum_note 7, 2
	;note A#, 0 | WARNING: Rounded down to 0
	drum_note 7, 1
	drum_note 7, 1
;Bar 91
	;note C_, 0 | WARNING: Rounded down to 0
	drum_note 7, 2
	;note G#, 0 | WARNING: Rounded down to 0
	drum_note 7, 1
	drum_note 7, 1
	;note D_, 0 | WARNING: Rounded down to 0
	drum_note 7, 2
	;note A#, 0 | WARNING: Rounded down to 0
	drum_note 7, 1
	drum_note 7, 1
	;note C_, 0 | WARNING: Rounded down to 0
	drum_note 7, 2
	;note G#, 0 | WARNING: Rounded down to 0
	drum_note 7, 1
	drum_note 7, 1
	;note D_, 0 | WARNING: Rounded down to 0
	drum_note 7, 2
	;note A#, 0 | WARNING: Rounded down to 0
	drum_note 7, 1
	drum_note 7, 1
;Bar 92
	;note C_, 0 | WARNING: Rounded down to 0
	drum_note 7, 2
	;note G#, 0 | WARNING: Rounded down to 0
	drum_note 7, 1
	drum_note 7, 1
	;note D_, 0 | WARNING: Rounded down to 0
	drum_note 7, 2
	;note A#, 0 | WARNING: Rounded down to 0
	drum_note 7, 1
	drum_note 7, 1
	;note C_, 0 | WARNING: Rounded down to 0
	drum_note 7, 2
	;note G#, 0 | WARNING: Rounded down to 0
	drum_note 7, 1
	drum_note 7, 1
	;note D_, 0 | WARNING: Rounded down to 0
	drum_note 7, 2
	;note A#, 0 | WARNING: Rounded down to 0
	drum_note 7, 1
	drum_note 7, 1
;Bar 93
	;note C_, 0 | WARNING: Rounded down to 0
	drum_note 7, 2
	;note G#, 0 | WARNING: Rounded down to 0
	drum_note 7, 1
	drum_note 7, 1
	;note D_, 0 | WARNING: Rounded down to 0
	drum_note 7, 2
	;note A#, 0 | WARNING: Rounded down to 0
	drum_note 7, 1
	drum_note 7, 1
	;note C_, 0 | WARNING: Rounded down to 0
	drum_note 7, 2
	;note G#, 0 | WARNING: Rounded down to 0
	drum_note 7, 1
	drum_note 7, 1
	;note D_, 0 | WARNING: Rounded down to 0
	drum_note 7, 2
	;note A#, 0 | WARNING: Rounded down to 0
	drum_note 7, 1
	drum_note 7, 1
	sound_loop 0, Music_Hero_Ch4

; ============================================================================================================

