Music_Hometown:
	channel_count 4
	channel 1, Music_Hometown_Ch1
	channel 2, Music_Hometown_Ch2
	channel 3, Music_Hometown_Ch3
	channel 4, Music_Hometown_Ch4

Music_Hometown_Ch1:
	volume 7, 7
	duty_cycle 1
	note_type 12, 8, 7
	tempo 212
	rest 3
	rest 5
	octave 4
	volume_envelope 13, 7
	note F#, 2
	note E_, 1
	note F#, 2
	rest 1
	note F#, 1
	rest 1
	note F#, 2
	note A_, 1
	rest 1
	note F#, 3
	note E_, 2
	note D_, 1
	note E_, 7
	rest 1
	note D_, 1
	note E_, 1
	note F#, 4
	octave 5
	note D_, 4
	note C#, 2
	octave 4
	note B_, 2
	note A_, 2
	note B_, 1
	note F#, 9
	rest 12
	note F#, 2
	note E_, 1
	note F#, 2
	rest 1
	note F#, 1
	rest 1
	note F#, 2
	note A_, 1
	rest 1
	note F#, 3
	note E_, 2
	note D_, 1
	note E_, 7
	rest 1
	note F#, 1
	note E_, 1
	note D_, 6
	note F#, 2
	note E_, 3
	note D_, 3
	note E_, 2
	note D_, 12
	rest 6
	note D_, 2
	octave 5
	note D_, 1
	rest 1
	note D_, 1
	rest 1
	note D_, 2
	note D_, 2
	note C#, 2
	note D_, 2
	note E_, 1
	rest 1
	note E_, 1
	note C#, 2
	note C#, 1
	octave 4
	note A_, 7
	rest 1
	note A_, 1
	note A_, 1
	note B_, 1
	octave 5
	note D_, 5
	note D_, 2
	note C#, 2
	octave 4
	note B_, 2
	note A_, 2
	note B_, 1
	note F#, 13
	rest 6
	note D_, 2
	octave 5
	note D_, 1
	rest 1
	note D_, 2
	note D_, 2
	note D_, 2
	note C#, 2
	note D_, 2
	note E_, 2
	note E_, 1
	note F#, 2
	note F#, 1
	note E_, 6
	rest 10
	note D_, 1
	note D_, 1
	note D_, 2
	note C#, 2
	note D_, 2
	note E_, 16
	note E_, 2
	rest 6
	octave 4
	note D_, 2
	note D_, 2
	note F#, 2
	note A_, 2
	note B_, 6
	rest 2
	note B_, 1
	note B_, 1
	note B_, 2
	note A_, 2
	note G_, 2
	note B_, 1
	note A_, 6
	rest 1
	note A_, 1
	note A_, 1
	note A_, 2
	note G_, 2
	note F#, 2
	note A_, 1
	note G_, 3
	note G_, 2
	note G_, 2
	note A_, 1
	note G_, 3
	note F#, 2
	note E_, 2
	note G_, 1
	note F#, 5
	rest 2
	note D_, 2
	note D_, 2
	note F#, 2
	note A_, 2
	note B_, 6
	rest 2
	note B_, 1
	note B_, 1
	octave 5
	note C#, 4
	octave 4
	note F#, 2
	octave 5
	note D_, 7
	rest 1
	note D_, 1
	note D_, 1
	note D_, 2
	octave 4
	note A_, 2
	note F#, 2
	note A_, 1
	note G_, 3
	note G_, 1
	rest 1
	note G_, 2
	note A_, 1
	note G_, 3
	note F#, 2
	note E_, 2
	note F#, 1
	note D_, 13
	rest 16
	rest 8
	note F#, 2
	note E_, 1
	note F#, 2
	rest 1
	note F#, 1
	rest 1
	note F#, 2
	note A_, 1
	rest 1
	note F#, 3
	note E_, 2
	note D_, 1
	note E_, 7
	rest 1
	note D_, 1
	note E_, 1
	note F#, 4
	octave 5
	note D_, 4
	note C#, 2
	octave 4
	note B_, 2
	note A_, 2
	note B_, 1
	note F#, 9
	rest 12
	note F#, 2
	note E_, 1
	note F#, 2
	rest 1
	note F#, 1
	rest 1
	note F#, 2
	note A_, 1
	rest 1
	note F#, 3
	note E_, 2
	note D_, 1
	note E_, 7
	rest 1
	note F#, 1
	note E_, 1
	note D_, 6
	note F#, 2
	note E_, 3
	note D_, 3
	note E_, 2
	note D_, 12
	rest 6
	note D_, 2
	octave 5
	note D_, 1
	rest 1
	note D_, 1
	rest 1
	note D_, 2
	note D_, 2
	note C#, 2
	note D_, 2
	note E_, 1
	rest 1
	note E_, 1
	note C#, 2
	note C#, 1
	octave 4
	note A_, 7
	rest 1
	note A_, 1
	note A_, 1
	note B_, 1
	octave 5
	note D_, 5
	note D_, 2
	note C#, 2
	octave 4
	note B_, 2
	note A_, 2
	note B_, 1
	note F#, 13
	rest 6
	note D_, 2
	octave 5
	note D_, 1
	rest 1
	note D_, 2
	note D_, 2
	note D_, 2
	note C#, 2
	note D_, 2
	note E_, 2
	note E_, 1
	note F#, 2
	note F#, 1
	note E_, 6
	rest 10
	note D_, 1
	note D_, 1
	note D_, 2
	note C#, 2
	note D_, 2
	note E_, 16
	note E_, 2
	rest 6
	octave 4
	note D_, 2
	note D_, 2
	note F#, 2
	note A_, 2
	note B_, 6
	rest 2
	note B_, 1
	note B_, 1
	note B_, 2
	note A_, 2
	note G_, 2
	note B_, 1
	note A_, 6
	rest 1
	note A_, 1
	note A_, 1
	note A_, 2
	note G_, 2
	note F#, 2
	note A_, 1
	note G_, 3
	note G_, 2
	note G_, 2
	note A_, 1
	note G_, 3
	note F#, 2
	note E_, 2
	note G_, 1
	note F#, 5
	rest 2
	note D_, 2
	note D_, 2
	note F#, 2
	note A_, 2
	note B_, 6
	rest 2
	note B_, 1
	note B_, 1
	octave 5
	note C#, 4
	octave 4
	note F#, 2
	octave 5
	note D_, 7
	rest 1
	note D_, 1
	note D_, 1
	note D_, 2
	octave 4
	note A_, 2
	note F#, 2
	note A_, 1
	note G_, 3
	note G_, 1
	rest 1
	note G_, 2
	note A_, 1
	note G_, 3
	note F#, 2
	note E_, 2
	note F#, 1
	note D_, 13
	sound_loop 0, Music_Hometown_Ch1

Music_Hometown_Ch2:
	duty_cycle 0
	note_type 12, 8, 7
	volume_envelope 11, 7
	rest 3
	rest 1
	octave 1
	volume_envelope 8, 7
	note D_, 7
	octave 1
	volume_envelope 9, 7
	note A_, 1
	octave 1
	volume_envelope 8, 7
	note D_, 1
	rest 1
	volume_envelope 9, 7
	note D_, 4
	volume_envelope 8, 7
	note D_, 2
	volume_envelope 10, 7
	note C#, 7
	octave 1
	volume_envelope 9, 7
	note A_, 1
	octave 1
	volume_envelope 10, 7
	note C#, 1
	rest 1
	volume_envelope 11, 7
	note C#, 4
	volume_envelope 10, 7
	note C#, 2
	octave 1
	note B_, 6
	note B_, 2
	note A_, 6
	note A_, 2
	octave 1
	volume_envelope 8, 7
	note D_, 6
	note D_, 2
	octave 1
	volume_envelope 10, 7
	note A_, 2
	volume_envelope 9, 7
	note A_, 2
	octave 1
	volume_envelope 10, 7
	note C#, 2
	volume_envelope 9, 7
	note E_, 2
	volume_envelope 8, 7
	note D_, 6
	rest 1
	octave 1
	volume_envelope 9, 7
	note A_, 1
	octave 1
	volume_envelope 8, 7
	note D_, 1
	rest 1
	note D_, 4
	note D_, 2
	volume_envelope 10, 7
	note C#, 7
	octave 1
	volume_envelope 9, 7
	note A_, 1
	octave 1
	note C#, 1
	rest 1
	volume_envelope 10, 7
	note C#, 4
	note C#, 2
	octave 1
	note G_, 6
	note G_, 2
	note A_, 8
	octave 1
	volume_envelope 8, 7
	note D_, 6
	note D_, 4
	note D_, 2
	volume_envelope 9, 7
	note F#, 2
	volume_envelope 7, 7
	note D_, 2
	octave 1
	volume_envelope 10, 7
	note B_, 4
	note B_, 8
	note B_, 4
	note F#, 4
	volume_envelope 9, 7
	note F#, 6
	note F#, 2
	note A_, 2
	octave 1
	note C#, 2
	octave 1
	volume_envelope 10, 7
	note G_, 4
	note G_, 4
	volume_envelope 9, 7
	note A_, 4
	volume_envelope 10, 7
	note A_, 4
	octave 1
	volume_envelope 8, 7
	note D_, 4
	note D_, 4
	note D_, 2
	note F#, 2
	volume_envelope 7, 7
	note D_, 2
	octave 1
	volume_envelope 9, 7
	note A_, 2
	note B_, 4
	volume_envelope 10, 7
	note B_, 8
	note B_, 4
	volume_envelope 9, 7
	note F#, 4
	volume_envelope 10, 7
	note F#, 6
	note F#, 2
	volume_envelope 9, 7
	note A_, 2
	octave 1
	note C#, 2
	octave 1
	volume_envelope 10, 7
	note G_, 4
	note G_, 8
	note G_, 2
	note A_, 8
	octave 1
	volume_envelope 9, 7
	note E_, 6
	volume_envelope 7, 7
	note D_, 4
	octave 1
	volume_envelope 9, 7
	note A_, 12
	volume_envelope 10, 7
	note A_, 4
	note G_, 4
	note G_, 4
	note A_, 4
	note A_, 4
	note F#, 4
	note F#, 4
	volume_envelope 9, 7
	note B_, 4
	note B_, 4
	octave 1
	note E_, 4
	note E_, 4
	volume_envelope 8, 7
	note F#, 4
	volume_envelope 9, 7
	note C#, 4
	octave 1
	note B_, 4
	volume_envelope 10, 7
	note B_, 4
	volume_envelope 9, 7
	note A_, 4
	volume_envelope 10, 7
	note A_, 4
	volume_envelope 9, 7
	note G_, 4
	volume_envelope 10, 7
	note G_, 4
	volume_envelope 9, 7
	note F#, 4
	note A#, 4
	note B_, 4
	note B_, 4
	note A_, 4
	note A_, 4
	volume_envelope 10, 7
	note G_, 4
	note G_, 4
	volume_envelope 9, 7
	note A_, 4
	octave 1
	note C#, 4
	note D_, 12
	octave 1
	note A_, 4
	octave 1
	note D_, 16
	volume_envelope 8, 7
	note D_, 7
	octave 1
	volume_envelope 9, 7
	note A_, 1
	octave 1
	volume_envelope 8, 7
	note D_, 1
	rest 1
	volume_envelope 9, 7
	note D_, 4
	volume_envelope 8, 7
	note D_, 2
	volume_envelope 10, 7
	note C#, 7
	octave 1
	volume_envelope 9, 7
	note A_, 1
	octave 1
	volume_envelope 10, 7
	note C#, 1
	rest 1
	volume_envelope 11, 7
	note C#, 4
	volume_envelope 10, 7
	note C#, 2
	octave 1
	note B_, 6
	note B_, 2
	note A_, 6
	note A_, 2
	octave 1
	volume_envelope 8, 7
	note D_, 6
	note D_, 2
	octave 1
	volume_envelope 10, 7
	note A_, 2
	volume_envelope 9, 7
	note A_, 2
	octave 1
	volume_envelope 10, 7
	note C#, 2
	volume_envelope 9, 7
	note E_, 2
	volume_envelope 8, 7
	note D_, 6
	rest 1
	octave 1
	volume_envelope 9, 7
	note A_, 1
	octave 1
	volume_envelope 8, 7
	note D_, 1
	rest 1
	note D_, 4
	note D_, 2
	volume_envelope 10, 7
	note C#, 7
	octave 1
	volume_envelope 9, 7
	note A_, 1
	octave 1
	note C#, 1
	rest 1
	volume_envelope 10, 7
	note C#, 4
	note C#, 2
	octave 1
	note G_, 6
	note G_, 2
	note A_, 8
	octave 1
	volume_envelope 8, 7
	note D_, 6
	note D_, 4
	note D_, 2
	volume_envelope 9, 7
	note F#, 2
	volume_envelope 7, 7
	note D_, 2
	octave 1
	volume_envelope 10, 7
	note B_, 4
	note B_, 8
	note B_, 4
	note F#, 4
	volume_envelope 9, 7
	note F#, 6
	note F#, 2
	note A_, 2
	octave 1
	note C#, 2
	octave 1
	volume_envelope 10, 7
	note G_, 4
	note G_, 4
	volume_envelope 9, 7
	note A_, 4
	volume_envelope 10, 7
	note A_, 4
	octave 1
	volume_envelope 8, 7
	note D_, 4
	note D_, 4
	note D_, 2
	note F#, 2
	volume_envelope 7, 7
	note D_, 2
	octave 1
	volume_envelope 9, 7
	note A_, 2
	note B_, 4
	volume_envelope 10, 7
	note B_, 8
	note B_, 4
	volume_envelope 9, 7
	note F#, 4
	volume_envelope 10, 7
	note F#, 6
	note F#, 2
	volume_envelope 9, 7
	note A_, 2
	octave 1
	note C#, 2
	octave 1
	volume_envelope 10, 7
	note G_, 4
	note G_, 8
	note G_, 2
	note A_, 8
	octave 1
	volume_envelope 9, 7
	note E_, 6
	volume_envelope 7, 7
	note D_, 4
	octave 1
	volume_envelope 9, 7
	note A_, 12
	volume_envelope 10, 7
	note A_, 4
	note G_, 4
	note G_, 4
	note A_, 4
	note A_, 4
	note F#, 4
	note F#, 4
	volume_envelope 9, 7
	note B_, 4
	note B_, 4
	octave 1
	note E_, 4
	note E_, 4
	volume_envelope 8, 7
	note F#, 4
	volume_envelope 9, 7
	note C#, 4
	octave 1
	note B_, 4
	volume_envelope 10, 7
	note B_, 4
	volume_envelope 9, 7
	note A_, 4
	volume_envelope 10, 7
	note A_, 4
	volume_envelope 9, 7
	note G_, 4
	volume_envelope 10, 7
	note G_, 4
	volume_envelope 9, 7
	note F#, 4
	note A#, 4
	note B_, 4
	note B_, 4
	note A_, 4
	note A_, 4
	volume_envelope 10, 7
	note G_, 4
	note G_, 4
	volume_envelope 9, 7
	note A_, 4
	octave 1
	note C#, 4
	note D_, 12
	octave 1
	note A_, 4
	octave 1
	note D_, 16
	sound_loop 0, Music_Hometown_Ch2

Music_Hometown_Ch3:
	note_type 12, 1, 0
	volume_envelope 2, 0
	rest 3
	rest 1
	octave 3
	volume_envelope 1, 0
	note D_, 2
	volume_envelope 2, 0
	note A_, 2
	octave 4
	note D_, 2
	note F#, 10
	octave 3
	volume_envelope 1, 0
	note C#, 2
	volume_envelope 2, 0
	note A_, 2
	octave 4
	note C#, 2
	note E_, 10
	octave 2
	note B_, 2
	octave 3
	note F#, 2
	note B_, 2
	octave 4
	note D_, 2
	octave 2
	note A_, 2
	octave 3
	note A_, 2
	octave 4
	note C#, 2
	note E_, 2
	octave 3
	note D_, 2
	note F#, 2
	note A_, 2
	octave 4
	note D_, 2
	octave 2
	note A_, 2
	octave 3
	note E_, 2
	note A_, 2
	octave 4
	note C#, 2
	octave 3
	volume_envelope 1, 0
	note D_, 2
	volume_envelope 2, 0
	note A_, 2
	octave 4
	note D_, 2
	note F#, 10
	octave 3
	volume_envelope 1, 0
	note C#, 2
	volume_envelope 2, 0
	note A_, 2
	octave 4
	note C#, 2
	note E_, 10
	octave 2
	note G_, 2
	octave 3
	note G_, 2
	note B_, 2
	octave 4
	note D_, 2
	octave 2
	note A_, 2
	octave 3
	note E_, 2
	note A_, 2
	octave 4
	note C#, 2
	octave 3
	note D_, 2
	note G_, 2
	note A_, 2
	note F#, 4
	note A_, 2
	octave 4
	note D_, 4
	octave 2
	note B_, 2
	octave 4
	note D_, 2
	octave 3
	note B_, 2
	octave 4
	note F#, 4
	octave 3
	note F#, 2
	note B_, 2
	octave 4
	note D_, 2
	octave 2
	note F#, 2
	octave 3
	note A_, 2
	note F#, 2
	octave 4
	note C#, 4
	octave 3
	note F#, 2
	note A_, 2
	octave 4
	note C#, 2
	octave 2
	note G_, 2
	octave 3
	note G_, 2
	note B_, 2
	octave 4
	note D_, 2
	octave 2
	note A_, 2
	octave 3
	note E_, 2
	note A_, 2
	octave 4
	note C#, 2
	octave 3
	note D_, 2
	octave 4
	note D_, 2
	octave 3
	note A_, 2
	octave 4
	note F#, 4
	octave 3
	note F#, 2
	note A_, 2
	octave 4
	note D_, 2
	octave 2
	note B_, 2
	octave 4
	note D_, 2
	octave 3
	note B_, 2
	octave 4
	note F#, 4
	octave 3
	note F#, 2
	note B_, 2
	octave 4
	note D_, 2
	octave 2
	note F#, 2
	octave 3
	note A_, 2
	note F#, 2
	octave 4
	note C#, 4
	octave 3
	note F#, 2
	note A_, 2
	octave 4
	note C#, 2
	octave 2
	note G_, 2
	octave 3
	note G_, 2
	note B_, 2
	octave 4
	note D_, 6
	octave 3
	note B_, 2
	note A_, 4
	note D_, 2
	note E_, 2
	note A_, 6
	octave 4
	note D_, 4
	note C#, 16
	octave 2
	note G_, 2
	octave 3
	note G_, 2
	note B_, 2
	octave 4
	note D_, 2
	octave 2
	note A_, 2
	octave 3
	note A_, 2
	octave 4
	note C#, 2
	note E_, 2
	octave 2
	note F#, 2
	octave 3
	note A_, 2
	octave 4
	note C#, 2
	note F#, 2
	octave 2
	note B_, 2
	octave 3
	note F#, 2
	note B_, 2
	octave 4
	note D_, 2
	octave 3
	note E_, 2
	note G_, 2
	note B_, 2
	octave 4
	note D_, 2
	octave 2
	note F#, 2
	octave 3
	note F#, 2
	note A_, 2
	octave 4
	note C#, 2
	octave 2
	note B_, 2
	octave 3
	note F#, 2
	note B_, 2
	octave 4
	note D_, 2
	octave 2
	note A_, 2
	octave 3
	note F#, 2
	note A_, 2
	octave 4
	note D_, 2
	octave 2
	note G_, 2
	octave 3
	note G_, 2
	note B_, 2
	octave 4
	note D_, 2
	octave 2
	note F#, 2
	octave 3
	note F#, 2
	note A#, 2
	octave 4
	note C#, 2
	octave 2
	note B_, 2
	octave 3
	note F#, 2
	note B_, 2
	octave 4
	note D_, 2
	note D_, 2
	octave 3
	note A_, 2
	note F#, 2
	octave 2
	note A_, 2
	note G_, 2
	octave 3
	note G_, 2
	note B_, 2
	octave 4
	note D_, 2
	octave 2
	note A_, 2
	octave 3
	note E_, 2
	note A_, 2
	octave 4
	note C#, 2
	octave 3
	note D_, 2
	octave 4
	note D_, 2
	octave 3
	note A_, 2
	note F#, 6
	note A_, 4
	note D_, 8
	note A_, 4
	octave 4
	note D_, 4
	octave 3
	volume_envelope 1, 0
	note D_, 2
	volume_envelope 2, 0
	note A_, 2
	octave 4
	note D_, 2
	note F#, 10
	octave 3
	volume_envelope 1, 0
	note C#, 2
	volume_envelope 2, 0
	note A_, 2
	octave 4
	note C#, 2
	note E_, 10
	octave 2
	note B_, 2
	octave 3
	note F#, 2
	note B_, 2
	octave 4
	note D_, 2
	octave 2
	note A_, 2
	octave 3
	note A_, 2
	octave 4
	note C#, 2
	note E_, 2
	octave 3
	note D_, 2
	note F#, 2
	note A_, 2
	octave 4
	note D_, 2
	octave 2
	note A_, 2
	octave 3
	note E_, 2
	note A_, 2
	octave 4
	note C#, 2
	octave 3
	volume_envelope 1, 0
	note D_, 2
	volume_envelope 2, 0
	note A_, 2
	octave 4
	note D_, 2
	note F#, 10
	octave 3
	volume_envelope 1, 0
	note C#, 2
	volume_envelope 2, 0
	note A_, 2
	octave 4
	note C#, 2
	note E_, 10
	octave 2
	note G_, 2
	octave 3
	note G_, 2
	note B_, 2
	octave 4
	note D_, 2
	octave 2
	note A_, 2
	octave 3
	note E_, 2
	note A_, 2
	octave 4
	note C#, 2
	octave 3
	note D_, 2
	note G_, 2
	note A_, 2
	note F#, 4
	note A_, 2
	octave 4
	note D_, 4
	octave 2
	note B_, 2
	octave 4
	note D_, 2
	octave 3
	note B_, 2
	octave 4
	note F#, 4
	octave 3
	note F#, 2
	note B_, 2
	octave 4
	note D_, 2
	octave 2
	note F#, 2
	octave 3
	note A_, 2
	note F#, 2
	octave 4
	note C#, 4
	octave 3
	note F#, 2
	note A_, 2
	octave 4
	note C#, 2
	octave 2
	note G_, 2
	octave 3
	note G_, 2
	note B_, 2
	octave 4
	note D_, 2
	octave 2
	note A_, 2
	octave 3
	note E_, 2
	note A_, 2
	octave 4
	note C#, 2
	octave 3
	note D_, 2
	octave 4
	note D_, 2
	octave 3
	note A_, 2
	octave 4
	note F#, 4
	octave 3
	note F#, 2
	note A_, 2
	octave 4
	note D_, 2
	octave 2
	note B_, 2
	octave 4
	note D_, 2
	octave 3
	note B_, 2
	octave 4
	note F#, 4
	octave 3
	note F#, 2
	note B_, 2
	octave 4
	note D_, 2
	octave 2
	note F#, 2
	octave 3
	note A_, 2
	note F#, 2
	octave 4
	note C#, 4
	octave 3
	note F#, 2
	note A_, 2
	octave 4
	note C#, 2
	octave 2
	note G_, 2
	octave 3
	note G_, 2
	note B_, 2
	octave 4
	note D_, 6
	octave 3
	note B_, 2
	note A_, 4
	note D_, 2
	note E_, 2
	note A_, 6
	octave 4
	note D_, 4
	note C#, 16
	octave 2
	note G_, 2
	octave 3
	note G_, 2
	note B_, 2
	octave 4
	note D_, 2
	octave 2
	note A_, 2
	octave 3
	note A_, 2
	octave 4
	note C#, 2
	note E_, 2
	octave 2
	note F#, 2
	octave 3
	note A_, 2
	octave 4
	note C#, 2
	note F#, 2
	octave 2
	note B_, 2
	octave 3
	note F#, 2
	note B_, 2
	octave 4
	note D_, 2
	octave 3
	note E_, 2
	note G_, 2
	note B_, 2
	octave 4
	note D_, 2
	octave 2
	note F#, 2
	octave 3
	note F#, 2
	note A_, 2
	octave 4
	note C#, 2
	octave 2
	note B_, 2
	octave 3
	note F#, 2
	note B_, 2
	octave 4
	note D_, 2
	octave 2
	note A_, 2
	octave 3
	note F#, 2
	note A_, 2
	octave 4
	note D_, 2
	octave 2
	note G_, 2
	octave 3
	note G_, 2
	note B_, 2
	octave 4
	note D_, 2
	octave 2
	note F#, 2
	octave 3
	note F#, 2
	note A#, 2
	octave 4
	note C#, 2
	octave 2
	note B_, 2
	octave 3
	note F#, 2
	note B_, 2
	octave 4
	note D_, 2
	note D_, 2
	octave 3
	note A_, 2
	note F#, 2
	octave 2
	note A_, 2
	note G_, 2
	octave 3
	note G_, 2
	note B_, 2
	octave 4
	note D_, 2
	octave 2
	note A_, 2
	octave 3
	note E_, 2
	note A_, 2
	octave 4
	note C#, 2
	octave 3
	note D_, 2
	octave 4
	note D_, 2
	octave 3
	note A_, 2
	note F#, 6
	note A_, 4
	note D_, 16
	sound_loop 0, Music_Hometown_Ch3

Music_Hometown_Ch4:
	toggle_noise 1
	drum_speed 12
	rest 4
	drum_note 10, 2
	drum_note 3, 2
	drum_note 10, 2
	drum_note 3, 2
	drum_note 10, 2
	drum_note 3, 2
	drum_note 10, 2
	drum_note 3, 2
	drum_note 7, 2
	drum_note 2, 2
	drum_note 5, 2
	drum_note 2, 2
	drum_note 10, 2
	drum_note 2, 2
	drum_note 10, 2
	drum_note 2, 2
	drum_note 7, 2
	drum_note 3, 2
	drum_note 12, 2
	drum_note 3, 2
	drum_note 5, 2
	drum_note 2, 2
	drum_note 10, 2
	drum_note 2, 2
	drum_note 3, 2
	drum_note 10, 2
	drum_note 7, 2
	drum_note 10, 2
	drum_note 2, 2
	drum_note 10, 2
	drum_note 2, 2
	drum_note 5, 2
	drum_note 10, 2
	drum_note 3, 2
	drum_note 10, 2
	drum_note 3, 2
	drum_note 10, 2
	drum_note 3, 2
	drum_note 10, 2
	drum_note 3, 2
	drum_note 7, 2
	drum_note 2, 2
	drum_note 5, 2
	drum_note 2, 2
	drum_note 10, 2
	drum_note 2, 2
	drum_note 10, 2
	drum_note 2, 2
	drum_note 8, 2
	drum_note 3, 2
	drum_note 8, 2
	drum_note 3, 2
	drum_note 5, 2
	drum_note 2, 2
	drum_note 10, 2
	drum_note 2, 2
	drum_note 8, 2
	drum_note 10, 2
	drum_note 3, 2
	drum_note 7, 4
	drum_note 10, 2
	drum_note 3, 4
	rest 16
	rest 16
	rest 16
	rest 16
	rest 16
	rest 16
	rest 16
	rest 16
	rest 16
	drum_note 12, 2
	drum_note 3, 2
	drum_note 12, 4
	drum_note 10, 2
	drum_note 5, 2
	drum_note 2, 4
	drum_note 2, 2
	drum_note 7, 2
	drum_note 2, 4
	drum_note 3, 2
	drum_note 7, 2
	drum_note 12, 4
	drum_note 12, 2
	drum_note 5, 2
	drum_note 12, 4
	drum_note 2, 2
	drum_note 7, 2
	drum_note 2, 4
	drum_note 12, 2
	drum_note 7, 2
	drum_note 3, 4
	drum_note 3, 2
	drum_note 7, 2
	drum_note 10, 4
	drum_note 8, 2
	drum_note 3, 2
	drum_note 12, 4
	drum_note 11, 2
	drum_note 7, 2
	drum_note 2, 4
	drum_note 12, 2
	drum_note 7, 2
	drum_note 3, 4
	drum_note 3, 2
	drum_note 7, 2
	drum_note 3, 4
	drum_note 12, 2
	drum_note 3, 2
	drum_note 12, 4
	drum_note 2, 2
	drum_note 5, 2
	drum_note 2, 4
	drum_note 10, 12
	drum_note 7, 4
	drum_note 3, 16
	drum_note 10, 2
	drum_note 3, 2
	drum_note 10, 2
	drum_note 3, 2
	drum_note 10, 2
	drum_note 3, 2
	drum_note 10, 2
	drum_note 3, 2
	drum_note 7, 2
	drum_note 2, 2
	drum_note 5, 2
	drum_note 2, 2
	drum_note 10, 2
	drum_note 2, 2
	drum_note 10, 2
	drum_note 2, 2
	drum_note 7, 2
	drum_note 3, 2
	drum_note 12, 2
	drum_note 3, 2
	drum_note 5, 2
	drum_note 2, 2
	drum_note 10, 2
	drum_note 2, 2
	drum_note 3, 2
	drum_note 10, 2
	drum_note 7, 2
	drum_note 10, 2
	drum_note 2, 2
	drum_note 10, 2
	drum_note 2, 2
	drum_note 5, 2
	drum_note 10, 2
	drum_note 3, 2
	drum_note 10, 2
	drum_note 3, 2
	drum_note 10, 2
	drum_note 3, 2
	drum_note 10, 2
	drum_note 3, 2
	drum_note 7, 2
	drum_note 2, 2
	drum_note 5, 2
	drum_note 2, 2
	drum_note 10, 2
	drum_note 2, 2
	drum_note 10, 2
	drum_note 2, 2
	drum_note 8, 2
	drum_note 3, 2
	drum_note 8, 2
	drum_note 3, 2
	drum_note 5, 2
	drum_note 2, 2
	drum_note 10, 2
	drum_note 2, 2
	drum_note 8, 2
	drum_note 10, 2
	drum_note 3, 2
	drum_note 7, 4
	drum_note 10, 2
	drum_note 3, 4
	rest 16
	rest 16
	rest 16
	rest 16
	rest 16
	rest 16
	rest 16
	rest 16
	rest 16
	drum_note 12, 2
	drum_note 3, 2
	drum_note 12, 4
	drum_note 10, 2
	drum_note 5, 2
	drum_note 2, 4
	drum_note 2, 2
	drum_note 7, 2
	drum_note 2, 4
	drum_note 3, 2
	drum_note 7, 2
	drum_note 12, 4
	drum_note 12, 2
	drum_note 5, 2
	drum_note 12, 4
	drum_note 2, 2
	drum_note 7, 2
	drum_note 2, 4
	drum_note 12, 2
	drum_note 7, 2
	drum_note 3, 4
	drum_note 3, 2
	drum_note 7, 2
	drum_note 10, 4
	drum_note 8, 2
	drum_note 3, 2
	drum_note 12, 4
	drum_note 11, 2
	drum_note 7, 2
	drum_note 2, 4
	drum_note 12, 2
	drum_note 7, 2
	drum_note 3, 4
	drum_note 3, 2
	drum_note 7, 2
	drum_note 3, 4
	drum_note 12, 2
	drum_note 3, 2
	drum_note 12, 4
	drum_note 2, 2
	drum_note 5, 2
	drum_note 2, 4
	drum_note 10, 12
	drum_note 7, 4
	drum_note 3, 16
	sound_loop 0, Music_Hometown_Ch4
