;Coverted using MIDI2ASM
;Code by TriteHexagon
;Version 5.2.0 (16-Nov-2022)
;Visit github.com/TriteHexagon/Midi2ASM-Converter for up-to-date versions.

; ============================================================================================================

Music_HotDrinks:
	channel_count 4
	channel 1, Music_HotDrinks_Ch1
	channel 2, Music_HotDrinks_Ch2
	channel 3, Music_HotDrinks_Ch3
	channel 4, Music_HotDrinks_Ch4

Music_HotDrinks_Ch1:
	volume 7, 7
	duty_cycle 1
	note_type 12, 10, 7
	tempo 159
.mainloop
;Bar 1
	rest 2
	octave 3
	note F_, 2
	note F_, 2
	rest 2
	note D#, 2
	note D#, 2
	rest 2
	note C#, 2
;Bar 2
	rest 5
	note C#, 1
	note C#, 2
	note C_, 2
	note C_, 2
	note D#, 2
	rest 4
;Bar 3
	note F_, 2
	note F_, 2
	rest 2
	note D#, 2
	note D#, 2
	rest 2
	note C#, 16
	note C#, 2
;Bar 5
	note D#, 16
;Bar 6
	rest 4
	note G#, 2
	octave 4
	note C_, 2
	octave 3
	note A#, 2
	note G#, 2
	note F_, 2
	rest 16
	rest 6
;Bar 8
	note G#, 2
	octave 4
	note C_, 2
	octave 3
	note A#, 2
	note G#, 2
	note F_, 2
	rest 6
;Bar 9
	note G#, 2
	octave 4
	note C_, 2
	octave 3
	note A#, 2
	note G#, 2
	note D#, 2
	rest 6
;Bar 10
	note G#, 2
	octave 4
	note C_, 2
	octave 3
	note A#, 2
	note G#, 2
	rest 6
;Bar 11
	note G#, 2
	note G#, 2
	rest 2
	note G#, 2
	note A#, 2
	note G_, 2
	note D#, 2
;Bar 12
	rest 4
	note G#, 2
	octave 4
	note C_, 2
	octave 3
	note A#, 2
	note G#, 2
	note F_, 2
	rest 16
	rest 4
;Bar 14
	note G#, 2
	note G#, 2
	rest 2
	note G_, 2
	note G_, 2
	rest 2
	note F_, 2
;Bar 15
	rest 6
	note G#, 2
	note G_, 2
	note D#, 2
	note C_, 2
	rest 4
;Bar 16
	note G#, 2
	note G#, 2
	rest 2
	note G_, 2
	note G_, 2
	rest 2
	note F_, 2
;Bar 17
	rest 2
	note F_, 2
	rest 6
	note G_, 2
	note G_, 2
	rest 4
;Bar 18
	note G#, 2
	note G#, 2
	rest 2
	note G_, 2
	note G_, 2
	rest 2
	note F_, 2
;Bar 19
	rest 6
	note G#, 2
	note G_, 2
	note D#, 2
	note C_, 2
	rest 4
;Bar 20
	note G#, 2
	note G#, 2
	rest 2
	note G_, 2
	note G_, 2
	rest 2
	note F_, 2
;Bar 21
	rest 2
	note F_, 2
	rest 6
	note G_, 2
	note G_, 2
	rest 4
;Bar 22
	note G#, 2
	note G#, 2
	rest 2
	note G_, 2
	note G_, 2
	rest 2
	note F_, 2
;Bar 23
	rest 6
	note G#, 2
	note G_, 2
	note D#, 2
	note C_, 2
	rest 4
;Bar 24
	note G#, 2
	note G#, 2
	rest 2
	note G_, 2
	note G_, 2
	rest 2
	note C#, 16
	note C#, 2
;Bar 26
	note D#, 16
;Bar 27
	rest 4
	octave 4
	note F_, 2
	rest 2
	note F_, 4
	rest 2
	note G#, 4
;Bar 28
	note G#, 2
	note G_, 2
	note F_, 2
	note D#, 2
	note C_, 2
	note F_, 4
;Bar 29
	rest 4
	note F_, 2
	note F_, 2
	note F_, 4
	rest 2
	note C#, 4
;Bar 30
	note C#, 2
	note C#, 2
	note F_, 2
	note D#, 4
	note D#, 4
;Bar 31
	rest 4
	note F_, 2
	rest 2
	note F_, 4
	rest 2
	note C_, 2
;Bar 32
	note G#, 2
	note G#, 2
	note G_, 2
	note F_, 2
	note D#, 2
	note C_, 2
	note F_, 4
;Bar 33
	rest 4
	note F_, 2
	note F_, 2
	note F_, 4
	note F_, 2
	note C#, 4
;Bar 34
	note C#, 2
	note C#, 4
	note D#, 4
	rest 8
;Bar 35
	octave 3
	note G#, 2
	octave 4
	note C_, 2
	octave 3
	note A#, 2
	note G#, 2
	note F_, 2
	rest 4
;Bar 36
	note G#, 2
	note G#, 2
	rest 2
	note G#, 2
	note A#, 2
	note G_, 2
	note D#, 2
;Bar 37
	rest 4
	note G#, 2
	octave 4
	note C_, 2
	octave 3
	note A#, 2
	note G#, 2
	note F_, 2
	rest 6
;Bar 38
	note G#, 2
	octave 4
	note C_, 2
	octave 3
	note A#, 2
	note G#, 2
	note D#, 2
	rest 6
;Bar 39
	note G#, 2
	octave 4
	note C_, 2
	octave 3
	note A#, 2
	note G#, 2
	rest 6
;Bar 40
	note G#, 2
	note G#, 2
	rest 2
	note G#, 2
	note A#, 2
	note G_, 2
	note D#, 2
;Bar 41
	rest 4
	note G#, 2
	octave 4
	note C_, 2
	octave 3
	note A#, 2
	note G#, 2
	note F_, 2
	rest 16
	rest 4
;Bar 43
	note G#, 2
	note G#, 2
	rest 2
	note G_, 2
	note G_, 2
	rest 2
	note F_, 2
;Bar 44
	rest 6
	note G#, 2
	note G_, 2
	note D#, 2
	note C_, 2
	rest 4
;Bar 45
	note G#, 2
	note G#, 2
	rest 2
	note G_, 2
	note G_, 2
	rest 2
	note F_, 2
;Bar 46
	rest 2
	note F_, 2
	rest 6
	note G_, 2
	note G_, 2
	rest 4
;Bar 47
	note G#, 2
	note G#, 2
	rest 2
	note G_, 2
	note G_, 2
	rest 2
	note F_, 2
;Bar 48
	rest 6
	note G#, 2
	note G_, 2
	note D#, 2
	note C_, 2
	rest 4
;Bar 49
	note G#, 2
	note G#, 2
	rest 2
	note G_, 2
	note G_, 2
	rest 2
	note F_, 2
;Bar 50
	rest 2
	note F_, 2
	rest 6
	note G_, 2
	note G_, 2
	rest 4
;Bar 51
	note G#, 2
	note G#, 2
	rest 2
	note G_, 2
	note G_, 2
	rest 2
	note F_, 2
;Bar 52
	rest 6
	note G#, 2
	note G_, 2
	note D#, 2
	note C_, 2
	rest 4
;Bar 53
	note G#, 2
	note G#, 2
	rest 2
	note G_, 2
	note G_, 2
	rest 2
	note C#, 16
	note C#, 2
;Bar 55
	note D#, 16
;Bar 56
	rest 4
	octave 4
	note F_, 2
	rest 2
	note F_, 4
	rest 2
	note G#, 4
;Bar 57
	note G#, 2
	note G_, 2
	note F_, 2
	note D#, 2
	note C_, 2
	note F_, 4
;Bar 58
	rest 4
	note F_, 2
	note F_, 2
	note F_, 4
	rest 2
	note C#, 4
;Bar 59
	note C#, 2
	note C#, 2
	note F_, 2
	note D#, 4
	note D#, 4
;Bar 60
	rest 4
	note F_, 2
	rest 2
	note F_, 4
	rest 2
	note C_, 2
;Bar 61
	note G#, 2
	note G#, 2
	note G_, 2
	note F_, 2
	note D#, 2
	note C_, 2
	note F_, 4
;Bar 62
	rest 4
	note F_, 2
	note F_, 2
	note F_, 4
	note F_, 2
	note C#, 4
;Bar 63
	note C#, 2
	note C#, 4
	note D#, 4
	rest 8
;Bar 64
	octave 3
	note G#, 2
	octave 4
	note C_, 2
	octave 3
	note A#, 2
	note G#, 2
	note F_, 2
	rest 4
;Bar 65
	note G#, 2
	note G#, 2
	rest 2
	note G#, 2
	note A#, 2
	note G_, 2
	note D#, 2
;Bar 66
	rest 4
	note G#, 2
	octave 4
	note C_, 2
	octave 3
	note A#, 2
	note G#, 2
	note F_, 2
	rest 6
;Bar 67
	note G#, 2
	octave 4
	note C_, 2
	octave 3
	note A#, 2
	note G#, 2
	note D#, 2
	rest 4
;Bar 68
	note G#, 2
	note G#, 2
	rest 2
	note G_, 2
	note G_, 2
	rest 2
	note F_, 2
;Bar 69
	rest 6
	note G#, 2
	note G_, 2
	note D#, 2
	note C_, 2
	rest 4
;Bar 70
	note G#, 2
	note G#, 2
	rest 2
	note G_, 2
	note G_, 2
	rest 2
	note C#, 16
	note C#, 2
;Bar 72
	note D#, 16
;Bar 73
	rest 4
	octave 4
	note F_, 2
	rest 2
	note F_, 4
	rest 2
	note G#, 4
;Bar 74
	note G#, 2
	note G_, 2
	note F_, 2
	note D#, 2
	note C_, 2
	note F_, 4
;Bar 75
	rest 4
	note F_, 2
	note F_, 2
	note F_, 4
	rest 2
	note C#, 4
;Bar 76
	note C#, 2
	note C#, 2
	note F_, 2
	note D#, 4
	note D#, 4
;Bar 77
	rest 4
	note F_, 2
	rest 2
	note F_, 4
	rest 2
	note C_, 2
;Bar 78
	note G#, 2
	note G#, 2
	note G_, 2
	note F_, 2
	note D#, 2
	note C_, 2
	note F_, 4
;Bar 79
	rest 4
	note F_, 2
	note F_, 2
	note F_, 4
	note F_, 2
	note C#, 4
;Bar 80
	note C#, 2
	note C#, 4
	note D#, 4
	rest 16
;Bar 81
	octave 3
	note F_, 4
	sound_loop 0, .mainloop

; ============================================================================================================

Music_HotDrinks_Ch2:
	duty_cycle 0
	note_type 12, 10, 7
.mainloop
;Bar 1
	rest 16
	rest 16
	rest 16
	rest 16
	rest 16
	rest 4
;Bar 6
	octave 4
	volume_envelope 8, 7
	note G#, 2
	octave 5
	note C_, 2
	octave 4
	note A#, 2
	note G#, 2
	note F_, 2
	note G#, 4
;Bar 7
	note G#, 4
	note F_, 2
	note G#, 2
	note A#, 2
	note A#, 4
;Bar 8
	rest 2
	note F_, 2
	note G#, 2
	octave 5
	note C_, 2
	octave 4
	note A#, 2
	note G#, 2
	note F_, 2
	octave 5
	note D#, 4
;Bar 9
	note C_, 4
	octave 4
	note A#, 2
	note G#, 2
	note A#, 2
	note A#, 4
;Bar 10
	rest 4
	note G#, 4
	note A#, 4
	rest 2
	octave 5
	note C_, 4
;Bar 11
	note C_, 2
	octave 4
	note A#, 2
	note G#, 2
	note G#, 2
	note F_, 2
	note A#, 4
;Bar 12
	rest 4
	note G#, 2
	octave 5
	note C_, 2
	octave 4
	note A#, 2
	note G#, 2
	note F_, 2
	octave 5
	note D#, 4
;Bar 13
	note D#, 2
	note C_, 2
	octave 4
	note A#, 2
	note G#, 4
	note A#, 4
;Bar 14
	rest 4
	note G#, 2
	note G#, 2
	note A#, 2
	note A#, 2
	note A#, 2
	note A#, 2
;Bar 15
	octave 5
	note C_, 2
	note C_, 2
	note C_, 2
	note C_, 2
	note C_, 2
	note D#, 2
	note D#, 4
;Bar 16
	rest 4
	octave 4
	note G#, 2
	note G#, 2
	note A#, 2
	note A#, 2
	note A#, 2
	octave 5
	note D#, 4
;Bar 17
	note D#, 2
	note C_, 2
	octave 4
	note A#, 2
	note G#, 2
	note F_, 2
	note A#, 4
;Bar 18
	rest 4
	note G#, 4
	note A#, 4
	rest 2
	octave 5
	note C_, 4
;Bar 19
	note C_, 2
	octave 4
	note A#, 2
	note G#, 2
	note G#, 2
	note A#, 2
	note A#, 4
;Bar 20
	rest 4
	note G#, 2
	note G#, 2
	note A#, 2
	note A#, 2
	note A#, 2
	octave 5
	note C_, 4
;Bar 21
	note C_, 2
	octave 4
	note A#, 2
	note G#, 2
	note G#, 2
	note F_, 2
	note A#, 4
;Bar 22
	rest 4
	note G#, 2
	note G#, 2
	note A#, 2
	note A#, 2
	note A#, 2
	note A#, 2
;Bar 23
	octave 5
	note C_, 2
	note C_, 2
	note C_, 2
	note C_, 2
	rest 2
	note C_, 2
	note D#, 4
;Bar 24
	rest 4
	octave 4
	note G#, 2
	note G#, 2
	note A#, 2
	note A#, 2
	note A#, 2
	octave 5
	note D#, 4
;Bar 25
	note D#, 2
	note C_, 2
	rest 2
	note D#, 2
	note D#, 2
	note C_, 2
	rest 2
;Bar 26
	note D#, 2
	note D#, 2
	note C_, 2
	note F_, 2
	note D#, 2
	note D#, 2
	note F_, 4
;Bar 27
	rest 2
	note C_, 2
	note C_, 2
	octave 4
	note G#, 2
	note A#, 2
	note A#, 2
	rest 4
;Bar 28
	octave 5
	note C_, 4
	rest 4
	octave 4
	note G_, 2
	note G#, 2
	note A#, 2
	octave 5
	note C_, 2
;Bar 29
	rest 2
	note C_, 2
	note C_, 2
	octave 4
	note G#, 2
	note A#, 2
	note A#, 2
	rest 2
	note G#, 10
;Bar 30
	note G_, 8
;Bar 31
	rest 2
	octave 5
	note C_, 2
	note C_, 2
	octave 4
	note G#, 2
	note A#, 2
	note A#, 2
	rest 4
;Bar 32
	octave 5
	note C_, 4
	rest 4
	octave 4
	note G_, 2
	note G#, 2
	note A#, 2
	octave 5
	note C_, 2
;Bar 33
	rest 2
	note C_, 2
	note C_, 2
	octave 4
	note G#, 2
	note A#, 2
	note A#, 2
	rest 2
	note G#, 10
;Bar 34
	note A#, 8
;Bar 35
	rest 4
	note G#, 2
	octave 5
	note C_, 2
	octave 4
	note A#, 2
	note G#, 2
	note F_, 2
	note G#, 4
;Bar 36
	note G#, 2
	note G#, 2
	note F_, 2
	note G#, 4
	note A#, 4
;Bar 37
	rest 4
	note G#, 2
	octave 5
	note C_, 2
	octave 4
	note A#, 2
	note G#, 2
	note F_, 2
	octave 5
	note D#, 4
;Bar 38
	note D#, 2
	note C_, 2
	octave 4
	note A#, 2
	note G#, 2
	note A#, 2
	note A#, 4
;Bar 39
	rest 2
	note F_, 2
	note G#, 2
	octave 5
	note C_, 2
	octave 4
	note A#, 2
	note G#, 2
	note F_, 2
	note G#, 4
;Bar 40
	note G#, 4
	note F_, 2
	note G#, 2
	note A#, 2
	note A#, 4
;Bar 41
	rest 4
	note G#, 2
	octave 5
	note C_, 2
	octave 4
	note A#, 2
	note G#, 2
	rest 2
	octave 5
	note D#, 4
;Bar 42
	note C_, 4
	octave 4
	note A#, 2
	note G#, 2
	note A#, 2
	note A#, 4
;Bar 43
	rest 4
	note G#, 2
	note G#, 2
	note A#, 2
	note A#, 2
	note A#, 2
	octave 5
	note C_, 4
;Bar 44
	note C_, 2
	note C_, 2
	note C_, 2
	note C_, 2
	note D#, 2
	note D#, 4
;Bar 45
	rest 4
	octave 4
	note G#, 2
	note G#, 2
	note A#, 2
	note A#, 2
	note A#, 2
	octave 5
	note D#, 4
;Bar 46
	note D#, 2
	note C_, 2
	octave 4
	note A#, 2
	note G#, 2
	note F_, 2
	note A#, 4
;Bar 47
	rest 4
	note G#, 2
	note G#, 2
	note A#, 2
	note A#, 2
	note A#, 2
	note A#, 2
;Bar 48
	octave 5
	note C_, 2
	note C_, 2
	octave 4
	note A#, 2
	note G#, 2
	note G#, 4
	note A#, 4
;Bar 49
	rest 2
	note G#, 2
	note G#, 2
	note G#, 2
	note A#, 2
	note A#, 2
	note A#, 2
	octave 5
	note C_, 4
;Bar 50
	note C_, 2
	octave 4
	note A#, 2
	note G#, 2
	note G#, 4
	note F_, 4
;Bar 51
	rest 4
	note G#, 2
	note G#, 2
	note A#, 2
	note A#, 2
	note A#, 2
	octave 5
	note C_, 4
;Bar 52
	note C_, 2
	note C_, 2
	note C_, 2
	note C_, 2
	note D#, 2
	note D#, 4
;Bar 53
	rest 2
	octave 4
	note G#, 2
	note G#, 2
	note G#, 2
	note A#, 2
	note A#, 2
	note A#, 2
	octave 5
	note D#, 4
;Bar 54
	note D#, 2
	note C_, 2
	rest 2
	note D#, 2
	note D#, 2
	note C_, 2
	rest 2
;Bar 55
	note D#, 2
	note D#, 2
	note C_, 2
	note F_, 2
	note D#, 2
	note D#, 2
	note F_, 4
;Bar 56
	rest 2
	note C_, 2
	note C_, 2
	octave 4
	note G#, 2
	note A#, 2
	note A#, 2
	rest 4
;Bar 57
	octave 5
	note C_, 4
	rest 4
	octave 4
	note G_, 2
	note G#, 2
	note A#, 2
	octave 5
	note C_, 2
;Bar 58
	rest 2
	note C_, 2
	note C_, 2
	octave 4
	note G#, 2
	note A#, 2
	note A#, 2
	rest 2
	note G#, 10
;Bar 59
	note G_, 8
;Bar 60
	rest 2
	octave 5
	note C_, 2
	note C_, 2
	octave 4
	note G#, 2
	note A#, 2
	note A#, 2
	rest 4
;Bar 61
	octave 5
	note C_, 4
	rest 4
	octave 4
	note G_, 2
	note G#, 2
	note A#, 2
	octave 5
	note C_, 2
;Bar 62
	rest 2
	note C_, 2
	note C_, 2
	octave 4
	note G#, 2
	note A#, 2
	note A#, 2
	rest 2
	note G#, 10
;Bar 63
	note A#, 8
;Bar 64
	rest 4
	note G#, 2
	octave 5
	note C_, 2
	octave 4
	note A#, 2
	note G#, 2
	note F_, 2
	note G#, 4
;Bar 65
	note G#, 2
	note G#, 2
	note F_, 2
	note G#, 2
	note A#, 2
	note A#, 4
;Bar 66
	rest 4
	note G#, 2
	octave 5
	note C_, 2
	octave 4
	note A#, 2
	note G#, 2
	note F_, 2
	octave 5
	note D#, 4
;Bar 67
	note D#, 2
	note C_, 2
	octave 4
	note A#, 2
	note G#, 2
	note F_, 2
	note A#, 4
;Bar 68
	rest 4
	note G#, 2
	note G#, 2
	note A#, 2
	note A#, 2
	note A#, 2
	octave 5
	note C_, 4
;Bar 69
	note C_, 2
	note C_, 2
	note C_, 2
	note C_, 2
	note D#, 2
	note D#, 4
;Bar 70
	rest 4
	octave 4
	note G#, 2
	note G#, 2
	note A#, 2
	note A#, 2
	note A#, 2
	octave 5
	note D#, 4
;Bar 71
	note D#, 2
	note C_, 2
	rest 2
	note D#, 2
	note D#, 2
	note C_, 2
	rest 2
;Bar 72
	note D#, 2
	note D#, 2
	note C_, 2
	note F_, 2
	note D#, 2
	note D#, 2
	note F_, 4
;Bar 73
	rest 2
	note C_, 2
	note C_, 2
	octave 4
	note G#, 2
	note A#, 2
	note A#, 2
	rest 4
;Bar 74
	octave 5
	note C_, 4
	rest 4
	octave 4
	note G_, 2
	note G#, 2
	note A#, 2
	octave 5
	note C_, 2
;Bar 75
	rest 2
	note C_, 2
	note C_, 2
	octave 4
	note G#, 2
	note A#, 2
	note A#, 2
	rest 2
	note G#, 10
;Bar 76
	note G_, 8
;Bar 77
	rest 2
	octave 5
	note C_, 2
	note C_, 2
	octave 4
	note G#, 2
	note A#, 2
	note A#, 2
	rest 4
;Bar 78
	octave 5
	note C_, 4
	rest 4
	octave 4
	note G_, 2
	note G#, 2
	note A#, 2
	octave 5
	note C_, 2
;Bar 79
	rest 2
	note C_, 2
	note C_, 2
	octave 4
	note G#, 2
	note A#, 2
	note A#, 2
	rest 2
	note G#, 16
	note G#, 2
;Bar 81
	note G_, 12
	note F_, 4
	sound_loop 0, .mainloop

; ============================================================================================================

Music_HotDrinks_Ch3:
	note_type 12, 1, 0
.mainloop
;Bar 1
	octave 2
	volume_envelope 2, 2
	note F_, 8
	note D#, 4
	rest 2
	note C#, 4
;Bar 2
	note C#, 4
	note C#, 2
	note C_, 4
	note D#, 2
	note E_, 2
;Bar 3
	note F_, 6
	note F_, 2
	note D#, 4
	rest 2
	note C#, 16
	note C#, 2
;Bar 5
	note D#, 12
	note D#, 2
	note E_, 2
;Bar 6
	note F_, 6
	note F_, 2
	note D#, 4
	rest 2
	note C#, 4
;Bar 7
	note C#, 4
	note C#, 2
	note C_, 4
	note D#, 2
	note E_, 2
;Bar 8
	note F_, 6
	note F_, 2
	note D#, 4
	rest 2
	note C#, 4
;Bar 9
	note C#, 4
	note C#, 2
	note C_, 4
	note D#, 2
	note E_, 2
;Bar 10
	note F_, 6
	note F_, 2
	note D#, 4
	rest 2
	note C#, 4
;Bar 11
	note C#, 4
	note C#, 2
	note C_, 4
	note D#, 2
	note E_, 2
;Bar 12
	note F_, 6
	note F_, 2
	note D#, 4
	rest 2
	note C#, 4
;Bar 13
	note C#, 4
	note C#, 2
	note C_, 4
	note D#, 2
	note E_, 2
;Bar 14
	note F_, 6
	note F_, 2
	note D#, 4
	rest 2
	note C#, 4
;Bar 15
	note C#, 4
	note C#, 2
	note C_, 4
	note D#, 2
	note E_, 2
;Bar 16
	note F_, 6
	note F_, 2
	note D#, 4
	rest 2
	note C#, 4
;Bar 17
	note C#, 4
	note C#, 2
	note C_, 4
	note D#, 2
	note E_, 2
;Bar 18
	note F_, 6
	note F_, 2
	note D#, 4
	rest 2
	note C#, 4
;Bar 19
	note C#, 4
	note C#, 2
	note C_, 4
	note D#, 2
	note E_, 2
;Bar 20
	note F_, 6
	note F_, 2
	note D#, 4
	rest 2
	note C#, 4
;Bar 21
	note C#, 4
	note C#, 2
	note C_, 4
	note D#, 2
	note E_, 2
;Bar 22
	note F_, 6
	note F_, 2
	note D#, 4
	rest 2
	note C#, 4
;Bar 23
	note C#, 4
	note C#, 2
	note C_, 4
	note D#, 2
	note E_, 2
;Bar 24
	note F_, 6
	note F_, 2
	note D#, 4
	rest 2
	note C#, 16
	note C#, 2
;Bar 26
	note D#, 16
;Bar 27
	octave 1
	note F_, 4
	octave 2
	note G#, 4
	note G_, 2
	note D#, 2
	note C_, 2
	octave 1
	note F_, 4
;Bar 28
	note F_, 4
	octave 2
	note G#, 2
	note G_, 2
	note D#, 2
	note C_, 4
;Bar 29
	octave 1
	note F_, 4
	octave 2
	note G#, 4
	note G_, 2
	note D#, 2
	note C_, 2
	octave 1
	note A#, 4
;Bar 30
	note A#, 4
	note A#, 2
	octave 2
	note C_, 4
	note D#, 2
	note C_, 2
;Bar 31
	octave 1
	note F_, 4
	octave 2
	note G#, 4
	note G_, 2
	note D#, 2
	note C_, 2
	octave 1
	note F_, 4
;Bar 32
	note F_, 4
	octave 2
	note G#, 2
	note G_, 2
	note D#, 2
	note C_, 4
;Bar 33
	octave 1
	note F_, 4
	octave 2
	note G#, 4
	note G_, 2
	note D#, 2
	note C_, 2
	octave 1
	note A#, 4
;Bar 34
	note A#, 4
	note A#, 2
	octave 2
	note C_, 4
	note D#, 2
	note C_, 2
;Bar 35
	note F_, 6
	note F_, 2
	note D#, 4
	rest 2
	note C#, 4
;Bar 36
	note C#, 4
	note C#, 2
	note C_, 4
	note D#, 2
	note E_, 2
;Bar 37
	note F_, 6
	note F_, 2
	note D#, 4
	rest 2
	note C#, 4
;Bar 38
	note C#, 4
	note C#, 2
	note C_, 4
	note D#, 2
	note E_, 2
;Bar 39
	note F_, 6
	note F_, 2
	note D#, 4
	rest 2
	note C#, 4
;Bar 40
	note C#, 4
	note C#, 2
	note C_, 4
	note D#, 2
	note E_, 2
;Bar 41
	note F_, 6
	note F_, 2
	note D#, 4
	rest 2
	note C#, 4
;Bar 42
	note C#, 4
	note C#, 2
	note C_, 4
	note D#, 2
	note E_, 2
;Bar 43
	note F_, 6
	note F_, 2
	note D#, 4
	rest 2
	note C#, 4
;Bar 44
	note C#, 4
	note C#, 2
	note C_, 4
	note D#, 2
	note E_, 2
;Bar 45
	note F_, 6
	note F_, 2
	note D#, 4
	rest 2
	note C#, 4
;Bar 46
	note C#, 4
	note C#, 2
	note C_, 4
	note D#, 2
	note E_, 2
;Bar 47
	note F_, 6
	note F_, 2
	note D#, 4
	rest 2
	note C#, 4
;Bar 48
	note C#, 4
	note C#, 2
	note C_, 4
	note D#, 2
	note E_, 2
;Bar 49
	note F_, 6
	note F_, 2
	note D#, 4
	rest 2
	note C#, 4
;Bar 50
	note C#, 4
	note C#, 2
	note C_, 4
	note D#, 2
	note E_, 2
;Bar 51
	note F_, 6
	note F_, 2
	note D#, 4
	rest 2
	note C#, 4
;Bar 52
	note C#, 4
	note C#, 2
	note C_, 4
	note D#, 2
	note E_, 2
;Bar 53
	note F_, 6
	note F_, 2
	note D#, 4
	rest 2
	note C#, 16
	note C#, 2
;Bar 55
	note D#, 16
;Bar 56
	octave 1
	note F_, 4
	octave 2
	note G#, 4
	note G_, 2
	note D#, 2
	note C_, 2
	octave 1
	note F_, 4
;Bar 57
	note F_, 4
	octave 2
	note G#, 2
	note G_, 2
	note D#, 2
	note C_, 4
;Bar 58
	octave 1
	note F_, 4
	octave 2
	note G#, 4
	note G_, 2
	note D#, 2
	note C_, 2
	octave 1
	note A#, 4
;Bar 59
	note A#, 4
	note A#, 2
	octave 2
	note C_, 4
	note D#, 2
	note C_, 2
;Bar 60
	octave 1
	note F_, 4
	octave 2
	note G#, 4
	note G_, 2
	note D#, 2
	note C_, 2
	octave 1
	note F_, 4
;Bar 61
	note F_, 4
	octave 2
	note G#, 2
	note G_, 2
	note D#, 2
	note C_, 4
;Bar 62
	octave 1
	note F_, 4
	octave 2
	note G#, 4
	note G_, 2
	note D#, 2
	note C_, 2
	octave 1
	note A#, 4
;Bar 63
	note A#, 4
	note A#, 2
	octave 2
	note C_, 4
	note D#, 2
	note C_, 2
;Bar 64
	note F_, 6
	note F_, 2
	note D#, 4
	rest 2
	note C#, 4
;Bar 65
	note C#, 4
	note C#, 2
	note C_, 4
	note D#, 2
	note E_, 2
;Bar 66
	note F_, 6
	note F_, 2
	note D#, 4
	rest 2
	note C#, 4
;Bar 67
	note C#, 4
	note C#, 2
	note C_, 4
	note D#, 2
	note E_, 2
;Bar 68
	note F_, 6
	note F_, 2
	note D#, 4
	rest 2
	note C#, 4
;Bar 69
	note C#, 4
	note C#, 2
	note C_, 4
	note D#, 2
	note E_, 2
;Bar 70
	note F_, 6
	note F_, 2
	note D#, 4
	rest 2
	note C#, 16
	note C#, 2
;Bar 72
	note D#, 16
;Bar 73
	octave 1
	note F_, 4
	octave 2
	note G#, 4
	note G_, 2
	note D#, 2
	note C_, 2
	octave 1
	note F_, 4
;Bar 74
	note F_, 4
	octave 2
	note G#, 2
	note G_, 2
	note D#, 2
	note C_, 4
;Bar 75
	octave 1
	note F_, 4
	octave 2
	note G#, 4
	note G_, 2
	note D#, 2
	note C_, 2
	octave 1
	note A#, 4
;Bar 76
	note A#, 4
	note A#, 2
	octave 2
	note C_, 4
	note D#, 2
	note C_, 2
;Bar 77
	octave 1
	note F_, 4
	octave 2
	note G#, 4
	note G_, 2
	note D#, 2
	note C_, 2
	octave 1
	note F_, 4
;Bar 78
	note F_, 4
	octave 2
	note G#, 2
	note G_, 2
	note D#, 2
	note C_, 4
;Bar 79
	octave 1
	note F_, 4
	octave 2
	note G#, 4
	note G_, 2
	note D#, 2
	note C_, 2
	octave 1
	note A#, 2
;Bar 80
	octave 2
	note C#, 8
	note C#, 8
;Bar 81
	note D#, 12
	octave 1
	note F_, 4
	sound_loop 0, .mainloop

; ============================================================================================================

Music_HotDrinks_Ch4:
	toggle_noise 1
	drum_speed 12
.mainloop
;Bar 1
	rest 4
	drum_note 3, 8
	drum_note 3, 8
;Bar 2
	drum_note 3, 8
	drum_note 3, 8
;Bar 3
	drum_note 3, 8
	drum_note 3, 8
;Bar 4
	drum_note 3, 8
	drum_note 3, 4
;Bar 5
	rest 16
	rest 4
;Bar 6
	drum_note 3, 8
	drum_note 3, 8
;Bar 7
	drum_note 3, 8
	drum_note 3, 8
;Bar 8
	drum_note 3, 8
	drum_note 3, 8
;Bar 9
	drum_note 3, 8
	drum_note 3, 8
;Bar 10
	drum_note 3, 8
	drum_note 3, 8
;Bar 11
	drum_note 3, 8
	drum_note 3, 8
;Bar 12
	drum_note 3, 8
	drum_note 3, 8
;Bar 13
	drum_note 3, 16
;Bar 14
	drum_note 3, 8
	drum_note 3, 8
;Bar 15
	drum_note 3, 8
	drum_note 3, 8
;Bar 16
	drum_note 3, 8
	drum_note 3, 8
;Bar 17
	drum_note 3, 8
	drum_note 3, 8
;Bar 18
	drum_note 3, 8
	drum_note 3, 8
;Bar 19
	drum_note 3, 8
	drum_note 3, 8
;Bar 20
	drum_note 3, 8
	drum_note 3, 8
;Bar 21
	drum_note 3, 8
	drum_note 3, 8
;Bar 22
	drum_note 3, 8
	drum_note 3, 8
;Bar 23
	drum_note 3, 8
	drum_note 3, 8
;Bar 24
	drum_note 3, 8
	drum_note 3, 8
;Bar 25
	drum_note 3, 8
	drum_note 3, 6
;Bar 26
	drum_note 3, 2
	drum_note 3, 4
	drum_note 3, 1
	drum_note 3, 3
	drum_note 3, 8
;Bar 27
	drum_note 3, 8
	drum_note 3, 8
;Bar 28
	drum_note 3, 8
	drum_note 3, 8
;Bar 29
	drum_note 3, 8
	drum_note 3, 8
;Bar 30
	drum_note 3, 8
	drum_note 3, 8
;Bar 31
	drum_note 3, 8
	drum_note 3, 8
;Bar 32
	drum_note 3, 8
	drum_note 3, 8
;Bar 33
	drum_note 3, 8
	drum_note 3, 8
;Bar 34
	drum_note 3, 8
	drum_note 3, 8
;Bar 35
	drum_note 3, 8
	drum_note 3, 8
;Bar 36
	drum_note 3, 8
	drum_note 3, 8
;Bar 37
	drum_note 3, 8
	drum_note 3, 8
;Bar 38
	drum_note 3, 8
	drum_note 3, 8
;Bar 39
	drum_note 3, 8
	drum_note 3, 8
;Bar 40
	drum_note 3, 8
	drum_note 3, 8
;Bar 41
	drum_note 3, 8
	drum_note 3, 8
;Bar 42
	drum_note 3, 8
	drum_note 3, 8
;Bar 43
	drum_note 3, 8
	drum_note 3, 8
;Bar 44
	drum_note 3, 8
	drum_note 3, 8
;Bar 45
	drum_note 3, 8
	drum_note 3, 8
;Bar 46
	drum_note 3, 8
	drum_note 3, 8
;Bar 47
	drum_note 3, 8
	drum_note 3, 8
;Bar 48
	drum_note 3, 8
	drum_note 3, 8
;Bar 49
	drum_note 3, 8
	drum_note 3, 8
;Bar 50
	drum_note 3, 8
	drum_note 3, 8
;Bar 51
	drum_note 3, 8
	drum_note 3, 8
;Bar 52
	drum_note 3, 8
	drum_note 3, 8
;Bar 53
	drum_note 3, 8
	drum_note 3, 8
;Bar 54
	drum_note 3, 8
	drum_note 3, 6
;Bar 55
	drum_note 3, 2
	drum_note 3, 4
	drum_note 3, 1
	drum_note 3, 3
	drum_note 3, 8
;Bar 56
	drum_note 3, 8
	drum_note 3, 8
;Bar 57
	drum_note 3, 8
	drum_note 3, 8
;Bar 58
	drum_note 3, 8
	drum_note 3, 8
;Bar 59
	drum_note 3, 8
	drum_note 3, 8
;Bar 60
	drum_note 3, 8
	drum_note 3, 8
;Bar 61
	drum_note 3, 8
	drum_note 3, 8
;Bar 62
	drum_note 3, 8
	drum_note 3, 8
;Bar 63
	drum_note 3, 8
	drum_note 3, 8
;Bar 64
	drum_note 3, 8
	drum_note 3, 8
;Bar 65
	drum_note 3, 8
	drum_note 3, 8
;Bar 66
	drum_note 3, 8
	drum_note 3, 8
;Bar 67
	drum_note 3, 8
	drum_note 3, 8
;Bar 68
	drum_note 3, 8
	drum_note 3, 8
;Bar 69
	drum_note 3, 8
	drum_note 3, 8
;Bar 70
	drum_note 3, 8
	drum_note 3, 8
;Bar 71
	drum_note 3, 8
	drum_note 3, 8
;Bar 72
	drum_note 3, 8
	drum_note 3, 8
;Bar 73
	drum_note 3, 8
	drum_note 3, 8
;Bar 74
	drum_note 3, 8
	drum_note 3, 8
;Bar 75
	drum_note 3, 8
	drum_note 3, 8
;Bar 76
	drum_note 3, 8
	drum_note 3, 8
;Bar 77
	drum_note 3, 8
	drum_note 3, 8
;Bar 78
	drum_note 3, 8
	drum_note 3, 8
;Bar 79
	drum_note 3, 8
	drum_note 3, 8
;Bar 80
	drum_note 3, 8
	drum_note 3, 6
;Bar 81
	drum_note 3, 2
	drum_note 3, 4
	drum_note 3, 1
	drum_note 3, 3
	drum_note 3, 4
	sound_loop 0, .mainloop

; ============================================================================================================

