;Coverted using MIDI2ASM
;Code by TriteHexagon
;Version 5.2.0 (16-Nov-2022)
;Visit github.com/TriteHexagon/Midi2ASM-Converter for up-to-date versions.

; ============================================================================================================

Music_Academy:
	channel_count 4
	channel 1, Music_Academy_Ch1
	channel 2, Music_Academy_Ch2
	channel 3, Music_Academy_Ch3
	channel 4, Music_Academy_Ch4

Music_Academy_Ch1:
	volume 7, 7
	duty_cycle 0
	note_type 12, 10, 7
	tempo 261
;Bar 1
	rest 1
	rest 16
	rest 16
	rest 16
	rest 16
	rest 16
	rest 16
	rest 16
	rest 16
	rest 16
	rest 16
	rest 16
	rest 16
	rest 16
	rest 16
	rest 16
	rest 16
	rest 1
;Bar 17
	octave 2
	volume_envelope 15, 7
	note F#, 1 ; WARNING: Auto-Sync says: Rounded down!
	note F#, 1
	note F#, 2
	note E_, 1
	note E_, 1
	note E_, 2
	note E_, 1 ; WARNING: Auto-Sync says: Rounded down!
	note F#, 1
	rest 6
;Bar 18
	note E_, 1 ; WARNING: Auto-Sync says: Rounded up!
	note F#, 1
	note F#, 1
	note E_, 2 ; WARNING: Auto-Sync says: Rounded down!
	note E_, 1
	note E_, 4 ; WARNING: Auto-Sync says: Rounded up!
	rest 6
;Bar 19
	note E_, 1
	note F#, 1
	note F#, 2 ; WARNING: Auto-Sync says: Rounded up!
	note E_, 1
	note E_, 1
	note E_, 2
	note E_, 1
	note F#, 1
	rest 5
;Bar 20
	note F#, 2 ; WARNING: Auto-Sync says: Rounded up!
	note F#, 1 ; WARNING: Auto-Sync says: Rounded up!
	note F#, 1
	note E_, 2 ; WARNING: Auto-Sync says: Rounded up!
	note E_, 1 ; WARNING: Auto-Sync says: Rounded down!
	note E_, 1
	note D_, 1
	octave 1
	note B_, 2 ; WARNING: Auto-Sync says: Rounded up!
	rest 6
;Bar 21
	octave 2
	note F#, 1
	note F#, 1 ; WARNING: Auto-Sync says: Rounded up!
	note F#, 2
	note E_, 1
	note D_, 1
	note D_, 2
	note F_, 1
	note F#, 1
	rest 5
;Bar 22
	note D_, 1
	note F#, 1
	note F#, 1
	note F#, 1
	note E_, 2
	note D_, 1 ; WARNING: Auto-Sync says: Rounded up!
	note D_, 1
	octave 1
	note A_, 1 ; WARNING: Auto-Sync says: Rounded up!
	rest 7
;Bar 23
	octave 2
	note D_, 1 ; WARNING: Auto-Sync says: Rounded up!
	note E_, 1
	note E_, 1
	note E_, 1
	note E_, 1
	note E_, 1
	note D_, 1 ; WARNING: Auto-Sync says: Rounded up!
	note E_, 2
	note D_, 1
	note F#, 3
	rest 3
;Bar 24
	note E_, 1
	note F#, 1 ; WARNING: Auto-Sync says: Rounded up!
	note F#, 1
	note F#, 2
	note E_, 1
	note E_, 2 ; WARNING: Auto-Sync says: Rounded up!
	note E_, 1
	note F#, 2 ; WARNING: Auto-Sync says: Rounded up!
	rest 6
;Bar 25
	note F#, 1 ; WARNING: Auto-Sync says: Rounded up!
	note F#, 2 ; WARNING: Auto-Sync says: Rounded up!
	note G_, 1
	note F#, 1
	note F#, 1
	note G_, 2
	note F#, 2
	rest 5
;Bar 26
	note C#, 1
	note E_, 1
	note F#, 1
	note F#, 1
	note E_, 2
	note E_, 3
	rest 9
;Bar 27
	octave 1
	note A_, 1
	octave 2
	note E_, 1
	note E_, 1
	note E_, 1
	note D_, 1
	note E_, 1
	note E_, 2
	note F#, 2
	note F#, 1
	note F#, 1
	note F#, 1
;Bar 28
	note F#, 1
	note F#, 2 ; WARNING: Auto-Sync says: Rounded up!
	note F#, 1
	note F#, 1
	note E_, 2
	note E_, 1
	note E_, 2
	note D_, 1 ; WARNING: Auto-Sync says: Rounded up!
	octave 1
	note B_, 3
	rest 4
;Bar 29
	octave 2
	note F#, 1
	note F#, 1
	note F#, 1
	note E_, 2 ; WARNING: Auto-Sync says: Rounded up!
	note D_, 1
	note D_, 2
	note E_, 1
	note F#, 1
	rest 6
;Bar 30
	octave 1
	note A_, 1
	octave 2
	note D_, 1
	note F#, 2
	note E_, 1
	note D_, 1
	note D_, 1
	octave 1
	note B_, 1
	note A_, 2
	rest 6
;Bar 31
	octave 2
	note E_, 1
	note E_, 1
	note E_, 1
	note E_, 1
	note E_, 1
	note E_, 1
	note E_, 2
	note D_, 1
	note E_, 1
	note F#, 2
	rest 3
;Bar 32
	note F#, 1
	note F#, 1
	note E_, 1
	note F#, 2
	note A_, 1
	note A#, 1
	note F#, 1
	note E_, 3
	rest 6
;Bar 33
	note G_, 1
	note G_, 2
	note G_, 1
	note G_, 1
	note G_, 2
	note G_, 3
	note G_, 1
	note A_, 1
	note G_, 1
	note G_, 1
;Bar 34
	note F#, 1
	note F#, 2
	rest 11
	note F#, 1
	note F#, 1
;Bar 35
	note F#, 1
	note E_, 1
	note E_, 1
	note E_, 3
	rest 8
	note E_, 1
	note E_, 1
;Bar 36
	note E_, 1
	note D_, 1
	note D_, 1
	note D_, 3
	rest 10
;Bar 37
	note G_, 1
	note G_, 1
	note G_, 1
	note G_, 2
	note G_, 2
	note G_, 1
	note G_, 2
	note G_, 2
	note G_, 1
	note A_, 1
	note G_, 1
	note G_, 1
;Bar 38
	note F#, 1
	note F#, 3
	rest 10
	note E_, 1
	note F#, 1
;Bar 39
	note F#, 1
	note E_, 1
	note E_, 1
	note E_, 3
	rest 8
	note G_, 1
	note G_, 1
;Bar 40
	note G_, 1
	note F#, 1
	note F#, 1
	note F#, 3
	rest 11
;Bar 41
	note F#, 1
	note F#, 1
	note F#, 1
	note G_, 1
	note F#, 2
	note F#, 1
	note G_, 2
	note F_, 1
	note F#, 1
	rest 5
;Bar 42
	note F#, 1
	note F#, 1
	note F#, 1
	note F#, 1
	note E_, 2
	note E_, 1
	rest 1
	note E_, 1
	note F#, 2
	octave 1
	note F#, 1
	rest 4
;Bar 43
	octave 2
	note E_, 1
	note E_, 1
	note E_, 1
	note E_, 1
	note E_, 1
	note F#, 1
	note E_, 1
	rest 1
	note F#, 2
	note E_, 1
	note F#, 2
	rest 5
;Bar 44
	octave 1
	note B_, 1
	octave 2
	note F#, 1
	note E_, 2
	note E_, 2
	note D_, 1
	octave 1
	note B_, 2
	rest 6
;Bar 45
	octave 2
	note F#, 1
	note F#, 1
	note F#, 2
	note E_, 1
	note D_, 1
	note D_, 2
	note E_, 1
	note F#, 1
	rest 4
;Bar 46
	note F_, 1
	note F#, 4
	note E_, 2
	note D_, 1
	note D_, 1
	octave 1
	note A_, 3
	rest 6
;Bar 47
	octave 2
	note E_, 2
	note E_, 2
	note E_, 1
	note D_, 1
	note E_, 1
	note F#, 1
	note D_, 1
	note E_, 1
	rest 6
;Bar 48
	note F#, 2
	note F#, 1
	note E_, 2
	note E_, 1
	note E_, 1
	note F#, 3
	rest 6
;Bar 49
	note F#, 1
	note F#, 2
	note F#, 1
	note F#, 1
	note F#, 1
	note G_, 2
	note E_, 1
	note F#, 1
	rest 5
;Bar 50
	note E_, 1
	note F#, 2
	note F#, 1
	note E_, 2
	note E_, 1
	note E_, 1
	note F#, 3
	rest 1
	octave 1
	note E_, 1
	note F#, 2
;Bar 51
	rest 1
	octave 2
	note E_, 2
	note E_, 1
	note E_, 1
	note E_, 2
	note E_, 1
	note E_, 1
	note E_, 2
	note E_, 3
	octave 1
	note B_, 2
;Bar 52
	rest 2
	octave 2
	note F#, 2
	note F#, 1
	note E_, 2
	note E_, 1
	note E_, 1
	note D_, 1
	octave 1
	note B_, 2
	rest 6
;Bar 53
	octave 2
	note E_, 1
	note F#, 1
	note F#, 2
	note F#, 2
	note F#, 1
	note E_, 1
	note D_, 1
	note D_, 2
	note E_, 1
	note F#, 2
;Bar 54
	note F#, 5
	note E_, 1
	note D_, 1
	note D_, 6
	octave 1
	note B_, 1
	note A_, 1
	rest 2
;Bar 55
	octave 2
	note E_, 1
	note E_, 1
	note E_, 1
	note E_, 2
	note E_, 1
	note D_, 1
	note E_, 1
	note E_, 1
	note E_, 1
	note D_, 1
	note E_, 1
	note F#, 1
	rest 4
;Bar 56
	note F#, 1
	note E_, 1
	note F#, 2
	note A_, 1
	note A#, 1
	note F#, 1
	note E_, 3
	note E_, 1
	note F#, 3
;Bar 57
	rest 2
	note G_, 1
	note G_, 2
	note G_, 1
	note G_, 1
	note G_, 2
	note G_, 3
	note G_, 1
	note A_, 1
	note G_, 1
	note G_, 1
;Bar 58
	note F#, 1
	note F#, 2
	rest 11
	note F#, 1
	note F#, 1
;Bar 59
	note F#, 1
	note E_, 1
	note E_, 1
	note E_, 3
	rest 8
	note E_, 1
	note E_, 1
;Bar 60
	note E_, 1
	note D_, 1
	note D_, 1
	octave 1
	note B_, 3
	rest 9
	octave 2
	note D_, 1
;Bar 61
	note G_, 1
	note G_, 1
	note G_, 1
	note G_, 2
	note G_, 2
	note G_, 1
	note G_, 2
	note G_, 2
	note G_, 1
	note A_, 1
	note G_, 1
	note G_, 1
;Bar 62
	note F#, 1
	note F#, 3
	rest 10
	note E_, 1
	note F#, 1
;Bar 63
	note F#, 1
	note E_, 1
	note E_, 1
	note E_, 3
	rest 8
	note G_, 1
	note G_, 1
;Bar 64
	note G_, 1
	note F#, 1
	note F#, 1
	note F#, 9
	rest 6
;Bar 65
	note F#, 1
	note F#, 2
	note G_, 2
	note F#, 1
	note G_, 2
	note E_, 1
	note F#, 3
	rest 3
;Bar 66
	octave 1
	note E_, 1
	octave 2
	note F#, 1
	note F#, 2
	note F#, 2
	note E_, 1
	note E_, 1
	note F#, 1
	rest 1
	octave 1
	note E_, 1
	note F#, 1
	note F#, 1
	rest 4
;Bar 67
	octave 2
	note F#, 1
	note E_, 1
	note E_, 2
	note E_, 2
	note F#, 1
	note E_, 2
	note E_, 1
	note E_, 1
	note F#, 3
;Bar 68
	rest 2
	note F#, 1
	note F#, 1
	note F#, 1
	note E_, 2
	note D_, 1
	note D_, 2
	rest 7
;Bar 69
	note D_, 1
	note F#, 1
	note F#, 1
	note F#, 2
	note E_, 2
	note D_, 2
	note F#, 2
	rest 5
;Bar 70
	octave 1
	note F#, 1
	octave 2
	note F#, 2
	note E_, 1
	note E_, 2
	note D_, 1
	note D_, 2
	rest 7
;Bar 71
	octave 1
	note E_, 1
	octave 2
	note E_, 2
	note E_, 1
	note E_, 2
	note D_, 1
	rest 1
	note E_, 2
	note D_, 1
	note F#, 2
	note F#, 1
	note D_, 1
;Bar 72
	note F#, 2
	note F#, 2
	rest 1
	note F#, 2
	note E_, 1
	note F#, 2
	rest 8
;Bar 73
	note F#, 2
	note F#, 1
	note G_, 2
	note F#, 1
	note G_, 2
	note F_, 1
	note F#, 1
	rest 2
	octave 1
	note B_, 1
	note B_, 1
;Bar 74
	rest 2
	octave 2
	note F#, 1
	note F#, 2
	note F#, 1
	note E_, 1
	note E_, 1
	note F#, 2
	rest 9
;Bar 75
	note E_, 1
	note E_, 1
	note E_, 1
	note E_, 1
	note E_, 1
	note E_, 1
	note E_, 2
	note E_, 1
	note F#, 2
	note F#, 1
	note F#, 1
;Bar 76
	note F#, 2
	note F#, 2
	note F#, 1
	note E_, 1
	note D_, 1
	note E_, 2
	note D_, 1
	octave 1
	note B_, 2
	rest 6
;Bar 77
	octave 2
	note D_, 1
	note F#, 3
	note E_, 1
	note D_, 1
	note D_, 2
	note E_, 1
	note F#, 1
	rest 2
	octave 1
	note A_, 1
	note B_, 3
;Bar 78
	note F#, 1
	note F#, 2
	note F#, 2
	note G_, 1
	note F#, 2
	note E_, 1
	note D_, 1
	rest 6
;Bar 79
	octave 2
	note E_, 1
	note E_, 1
	note E_, 1
	note E_, 1
	note E_, 1
	note D_, 2
	note E_, 2
	note D_, 1
	note E_, 1
	note F#, 1
	rest 3
;Bar 80
	note F#, 1
	note F#, 1
	note F#, 2
	note A#, 1
	note F#, 2
	note F#, 1
	note E_, 1
	note F#, 16
	note F#, 16
	note F#, 16
	note F#, 16
	note F#, 16
	note F#, 16
	note F#, 16
	note F#, 16
	note F#, 16
	note F#, 16
	note F#, 16
	note F#, 16
	note F#, 16
	note F#, 16
	note F#, 16
	note F#, 16
	note F#, 16
	note F#, 16
	note F#, 16
	note F#, 16
	note F#, 16
	note F#, 16
	note F#, 16
	note F#, 16
	note F#, 16
	note F#, 16
	note F#, 16
	note F#, 16
	note F#, 16
	note F#, 16
	note F#, 16
	note F#, 16
	note F#, 16
	note F#, 16
	note F#, 16
	note F#, 16
	note F#, 16
	note F#, 16
	note F#, 16
	note F#, 10
	sound_ret

; ============================================================================================================

Music_Academy_Ch2:
	duty_cycle 1
	note_type 12, 10, 7
;Bar 1
	octave 2
	volume_envelope 11, 7
	;note F#, 0 | 
	;note B_, 0 | 
	note F#, 2
	note B_, 2
	note B_, 2
	volume_envelope 13, 7
	note F#, 2
	octave 3
	volume_envelope 11, 7
	note D_, 4
	octave 2
	note B_, 2
	octave 3
	note F#, 2
;Bar 2
	octave 2
	volume_envelope 10, 7
	note A#, 2
	octave 3
	volume_envelope 11, 7
	note E_, 2
	note F#, 2
	note E_, 2
	octave 2
	note A#, 8
;Bar 3
	note A_, 2
	octave 3
	volume_envelope 10, 7
	note E_, 2
	volume_envelope 11, 7
	note A_, 2
	note E_, 2
	octave 2
	note A_, 2
	octave 3
	volume_envelope 10, 7
	note E_, 2
	octave 2
	volume_envelope 11, 7
	note E_, 2
	octave 3
	volume_envelope 10, 7
	note E_, 2
;Bar 4
	octave 2
	volume_envelope 13, 7
	note G#, 2
	volume_envelope 11, 7
	note B_, 2
	octave 3
	note D_, 2
	octave 2
	note B_, 2
	octave 3
	volume_envelope 13, 7
	note D_, 8
;Bar 5
	octave 2
	volume_envelope 11, 7
	note G_, 2
	note B_, 2
	volume_envelope 10, 7
	note B_, 2
	volume_envelope 11, 7
	note G_, 2
	octave 3
	volume_envelope 10, 7
	note D_, 2
	octave 2
	volume_envelope 11, 7
	note G_, 2
	volume_envelope 10, 7
	note A_, 1
	volume_envelope 11, 7
	note B_, 1
	note A_, 2
;Bar 6
	note A_, 2
	octave 3
	note D_, 2
	note F#, 2
	octave 2
	volume_envelope 10, 7
	note A_, 2
	volume_envelope 13, 7
	note F#, 2
	octave 3
	volume_envelope 11, 7
	note D_, 2
	octave 2
	volume_envelope 13, 7
	note D_, 2
	volume_envelope 10, 7
	note A_, 2
;Bar 7
	volume_envelope 13, 7
	note E_, 2
	volume_envelope 10, 7
	note B_, 2
	octave 3
	volume_envelope 11, 7
	note D_, 2
	octave 2
	volume_envelope 10, 7
	note B_, 2
	octave 3
	volume_envelope 11, 7
	note G_, 2
	note D_, 2
	octave 1
	volume_envelope 13, 7
	note B_, 4
;Bar 8
	octave 2
	volume_envelope 11, 7
	note F#, 2
	note A#, 2
	octave 3
	note E_, 2
	octave 2
	volume_envelope 10, 7
	note A#, 2
	octave 3
	volume_envelope 11, 7
	note E_, 8
;Bar 9
	octave 2
	volume_envelope 13, 7
	;note F#, 0 | 
	volume_envelope 11, 7
	;note B_, 0 | 
	octave 3
	note D_, 2
	octave 2
	volume_envelope 10, 7
	note B_, 2
	volume_envelope 11, 7
	note B_, 2
	volume_envelope 10, 7
	note F#, 2
	octave 3
	volume_envelope 11, 7
	note D_, 4
	octave 2
	note B_, 2
	octave 3
	note F#, 2
;Bar 10
	octave 2
	note A#, 2
	octave 3
	note E_, 2
	note F#, 2
	note E_, 2
	octave 2
	volume_envelope 13, 7
	note A#, 8
;Bar 11
	note A_, 2
	octave 3
	volume_envelope 11, 7
	note E_, 2
	volume_envelope 10, 7
	note A_, 2
	note E_, 2
	octave 2
	volume_envelope 11, 7
	note A_, 2
	octave 3
	note E_, 2
	octave 2
	note E_, 2
	octave 3
	volume_envelope 10, 7
	note E_, 2
;Bar 12
	octave 2
	volume_envelope 11, 7
	note G#, 2
	note B_, 2
	octave 3
	note D_, 2
	octave 2
	note B_, 2
	octave 3
	volume_envelope 13, 7
	note D_, 8
;Bar 13
	octave 2
	note G_, 2
	volume_envelope 11, 7
	note B_, 2
	note B_, 2
	note G_, 2
	octave 3
	note D_, 2
	octave 2
	note G_, 2
	volume_envelope 13, 7
	note A_, 1
	volume_envelope 12, 7
	note B_, 1
	volume_envelope 13, 7
	note A_, 2
;Bar 14
	note A_, 2
	octave 3
	volume_envelope 11, 7
	note D_, 2
	volume_envelope 13, 7
	note F#, 2
	octave 2
	volume_envelope 12, 7
	note A_, 2
	volume_envelope 13, 7
	note F#, 2
	octave 3
	volume_envelope 11, 7
	note D_, 2
	octave 2
	volume_envelope 14, 7
	note D_, 2
	volume_envelope 11, 7
	note A_, 2
;Bar 15
	volume_envelope 13, 7
	note E_, 2
	volume_envelope 12, 7
	note B_, 2
	octave 3
	volume_envelope 11, 7
	note D_, 2
	octave 2
	volume_envelope 13, 7
	note B_, 2
	octave 3
	volume_envelope 11, 7
	note G_, 2
	volume_envelope 14, 7
	note D_, 2
	octave 1
	volume_envelope 10, 7
	note B_, 4
;Bar 16
	octave 2
	volume_envelope 13, 7
	note F#, 2
	note A#, 2
	octave 3
	volume_envelope 12, 7
	note E_, 2
	octave 2
	volume_envelope 13, 7
	note A#, 2
	octave 3
	volume_envelope 15, 7
	note E_, 8
;Bar 17
	volume_envelope 7, 7
	;note D_, 0 | 
	octave 2
	;note B_, 0 | 
	note F#, 2
	note B_, 2
	volume_envelope 8, 7
	note B_, 2
	volume_envelope 7, 7
	note F#, 2
	octave 3
	note D_, 4
	octave 2
	note B_, 2
	octave 3
	note F#, 2
;Bar 18
	octave 2
	volume_envelope 8, 7
	note A#, 2
	octave 3
	volume_envelope 7, 7
	note E_, 2
	note F#, 2
	volume_envelope 6, 7
	note E_, 2
	octave 2
	volume_envelope 8, 7
	note A#, 8
;Bar 19
	note A_, 2
	octave 3
	volume_envelope 7, 7
	note E_, 2
	note A_, 2
	note E_, 2
	octave 2
	note A_, 2
	octave 3
	note E_, 2
	octave 2
	note E_, 2
	octave 3
	volume_envelope 6, 7
	note E_, 2
;Bar 20
	octave 2
	volume_envelope 8, 7
	note G#, 2
	volume_envelope 6, 7
	note B_, 2
	octave 3
	volume_envelope 7, 7
	note D_, 2
	octave 2
	volume_envelope 8, 7
	note B_, 2
	octave 3
	note D_, 8
;Bar 21
	octave 2
	note G_, 2
	volume_envelope 7, 7
	note B_, 2
	volume_envelope 8, 7
	note B_, 2
	volume_envelope 7, 7
	note G_, 2
	octave 3
	volume_envelope 8, 7
	note D_, 2
	octave 2
	volume_envelope 7, 7
	note G_, 2
	volume_envelope 8, 7
	note A_, 1
	note B_, 1
	note A_, 2
;Bar 22
	note A_, 2
	octave 3
	volume_envelope 7, 7
	note D_, 2
	note F#, 2
	octave 2
	volume_envelope 8, 7
	note A_, 2
	note F#, 2
	octave 3
	volume_envelope 7, 7
	note D_, 2
	octave 2
	volume_envelope 8, 7
	note D_, 2
	volume_envelope 7, 7
	note A_, 2
;Bar 23
	volume_envelope 8, 7
	note E_, 2
	volume_envelope 7, 7
	note B_, 2
	octave 3
	note D_, 2
	octave 2
	volume_envelope 8, 7
	note B_, 2
	octave 3
	volume_envelope 6, 7
	note G_, 2
	volume_envelope 7, 7
	note D_, 2
	octave 1
	volume_envelope 8, 7
	note B_, 4
;Bar 24
	octave 2
	volume_envelope 7, 7
	note F#, 2
	note A#, 2
	octave 3
	note E_, 2
	octave 2
	note A#, 2
	octave 3
	volume_envelope 8, 7
	note E_, 8
;Bar 25
	octave 2
	volume_envelope 5, 7
	;note B_, 0 | 
	octave 3
	;note D_, 0 | 
	;note F#, 0 | 
	note B_, 2
	;note B_, 0 | 
	;note F#, 0 | 
	;note D_, 0 | 
	octave 2
	note B_, 1
	;note B_, 0 | 
	octave 3
	;note D_, 0 | 
	;note F#, 0 | 
	note B_, 2
	octave 2
	;note B_, 0 | 
	octave 3
	;note D_, 0 | 
	;note F#, 0 | 
	note B_, 1
	;note B_, 0 | 
	;note F#, 0 | 
	;note D_, 0 | 
	octave 2
	note B_, 1
	;note B_, 0 | 
	octave 3
	;note D_, 0 | 
	;note F#, 0 | 
	note B_, 1
	octave 2
	;note B_, 0 | 
	octave 3
	;note D_, 0 | 
	;note F#, 0 | 
	note B_, 4
	;note B_, 0 | 
	;note F#, 0 | 
	;note D_, 0 | 
	octave 2
	note B_, 4
;Bar 26
	octave 4
	;note C#, 0 | 
	octave 3
	;note F#, 0 | 
	;note E_, 0 | 
	octave 2
	note A#, 5
	;note A#, 0 | 
	octave 3
	;note E_, 0 | 
	;note F#, 0 | 
	octave 4
	note C#, 2
	;note C#, 0 | 
	octave 3
	;note F#, 0 | 
	;note E_, 0 | 
	octave 2
	note A#, 1
	;note A#, 0 | 
	octave 3
	;note E_, 0 | 
	;note F#, 0 | 
	octave 4
	note C#, 8
;Bar 27
	octave 3
	;note B_, 0 | 
	;note E_, 0 | 
	;note C#, 0 | 
	octave 2
	note A_, 5
	;note A_, 0 | 
	octave 3
	;note C#, 0 | 
	;note E_, 0 | 
	note B_, 2
	;note B_, 0 | 
	;note E_, 0 | 
	;note C#, 0 | 
	octave 2
	note A_, 1
	;note A_, 0 | 
	octave 3
	;note C#, 0 | 
	;note E_, 0 | 
	note B_, 4
	;note B_, 0 | 
	;note E_, 0 | 
	;note C#, 0 | 
	octave 2
	note A_, 4
;Bar 28
	octave 3
	;note B_, 0 | 
	;note F#, 0 | 
	;note D_, 0 | 
	octave 2
	note G#, 5
	;note G#, 0 | 
	octave 3
	;note D_, 0 | 
	;note F#, 0 | 
	note B_, 1
	;note B_, 0 | 
	;note F#, 0 | 
	;note D_, 0 | 
	octave 2
	note G#, 2
	;note G#, 0 | 
	octave 3
	;note D_, 0 | 
	;note F#, 0 | 
	note B_, 8
;Bar 29
	octave 2
	;note G_, 0 | 
	;note B_, 0 | 
	octave 3
	;note D_, 0 | 
	note G_, 2
	;note G_, 0 | 
	;note D_, 0 | 
	octave 2
	;note B_, 0 | 
	note G_, 1
	;note G_, 0 | 
	;note B_, 0 | 
	octave 3
	;note D_, 0 | 
	note G_, 2
	;note G_, 0 | 
	;note D_, 0 | 
	octave 2
	;note B_, 0 | 
	note G_, 2
	;note G_, 0 | 
	;note B_, 0 | 
	octave 3
	;note D_, 0 | 
	note G_, 1
	octave 2
	;note G_, 0 | 
	;note B_, 0 | 
	octave 3
	;note D_, 0 | 
	note G_, 4
	;note G_, 0 | 
	;note D_, 0 | 
	octave 2
	;note B_, 0 | 
	note G_, 2
	;note G_, 0 | 
	;note B_, 0 | 
	octave 3
	;note D_, 0 | 
	note G_, 1
	octave 2
	;note G_, 0 | 
	;note B_, 0 | 
	octave 3
	;note D_, 0 | 
	note G_, 1
;Bar 30
	;note F#, 0 | 
	;note D_, 0 | 
	octave 2
	;note A_, 0 | 
	note D_, 3
	;note D_, 0 | 
	;note A_, 0 | 
	octave 3
	;note D_, 0 | 
	note F#, 2
	;note F#, 0 | 
	;note D_, 0 | 
	octave 2
	;note A_, 0 | 
	note D_, 2
	;note D_, 0 | 
	;note A_, 0 | 
	octave 3
	;note D_, 0 | 
	note F#, 1
	octave 2
	;note D_, 0 | 
	;note A_, 0 | 
	octave 3
	;note D_, 0 | 
	note F#, 8
;Bar 31
	octave 2
	;note E_, 0 | 
	;note B_, 0 | 
	octave 3
	;note E_, 0 | 
	note G_, 3
	octave 2
	;note E_, 0 | 
	;note B_, 0 | 
	octave 3
	;note E_, 0 | 
	note G_, 2
	;note G_, 0 | 
	;note E_, 0 | 
	octave 2
	;note B_, 0 | 
	note E_, 2
	;note E_, 0 | 
	;note B_, 0 | 
	octave 3
	;note E_, 0 | 
	note G_, 1
	volume_envelope 4, 7
	;note G_, 0 | 
	;note E_, 0 | 
	octave 2
	;note B_, 0 | 
	note E_, 3
	volume_envelope 5, 7
	;note E_, 0 | 
	;note B_, 0 | 
	octave 3
	;note E_, 0 | 
	note G_, 1
	;note G_, 0 | 
	;note E_, 0 | 
	octave 2
	;note B_, 0 | 
	note E_, 4
;Bar 32
	;note A#, 0 | 
	octave 3
	;note C#, 0 | 
	;note A#, 0 | 
	note F#, 1
	;note A#, 0 | 
	;note F#, 0 | 
	;note C#, 0 | 
	octave 2
	note A#, 2
	;note A#, 0 | 
	octave 3
	;note C#, 0 | 
	;note F#, 0 | 
	note A#, 2
	;note A#, 0 | 
	;note F#, 0 | 
	;note C#, 0 | 
	octave 2
	note A#, 2
	octave 3
	;note A#, 0 | 
	;note F#, 0 | 
	;note C#, 0 | 
	octave 2
	note A#, 1
	octave 3
	volume_envelope 4, 7
	;note A#, 0 | 
	volume_envelope 5, 7
	;note F#, 0 | 
	;note C#, 0 | 
	octave 2
	note A#, 4
	;note A#, 0 | 
	octave 3
	;note C#, 0 | 
	;note F#, 0 | 
	note A#, 1
	octave 2
	;note A#, 0 | 
	octave 3
	;note C#, 0 | 
	;note F#, 0 | 
	note A#, 1
	octave 2
	;note A#, 0 | 
	octave 3
	;note C#, 0 | 
	;note F#, 0 | 
	note A#, 1
	octave 2
	;note A#, 0 | 
	octave 3
	;note C#, 0 | 
	;note F#, 0 | 
	note A#, 1
;Bar 33
	octave 2
	;note D_, 0 | 
	;note G_, 0 | 
	octave 3
	;note D_, 0 | 
	note G_, 2
	octave 2
	;note D_, 0 | 
	;note G_, 0 | 
	octave 3
	;note D_, 0 | 
	note G_, 1
	octave 2
	;note D_, 0 | 
	;note G_, 0 | 
	octave 3
	;note D_, 0 | 
	note G_, 2
	octave 2
	;note D_, 0 | 
	;note G_, 0 | 
	octave 3
	;note D_, 0 | 
	note G_, 2
	octave 2
	;note D_, 0 | 
	;note G_, 0 | 
	octave 3
	;note D_, 0 | 
	note G_, 1
	octave 2
	;note D_, 0 | 
	;note G_, 0 | 
	octave 3
	;note D_, 0 | 
	note G_, 4
	octave 2
	;note D_, 0 | 
	;note G_, 0 | 
	octave 3
	;note D_, 0 | 
	note G_, 2
	octave 2
	;note D_, 0 | 
	;note G_, 0 | 
	octave 3
	;note D_, 0 | 
	note G_, 2
;Bar 34
	rest 2
	octave 2
	;note D_, 0 | 
	;note A_, 0 | 
	octave 3
	;note D_, 0 | 
	note F#, 1
	octave 2
	;note D_, 0 | 
	;note A_, 0 | 
	octave 3
	;note D_, 0 | 
	note F#, 2
	;note F#, 0 | 
	;note D_, 0 | 
	octave 2
	;note A_, 0 | 
	note D_, 2
	;note D_, 0 | 
	;note A_, 0 | 
	octave 3
	;note D_, 0 | 
	note F#, 1
	octave 2
	;note D_, 0 | 
	;note A_, 0 | 
	octave 3
	;note D_, 0 | 
	note F#, 8
;Bar 35
	;note F#, 0 | 
	;note C#, 0 | 
	octave 2
	;note A#, 0 | 
	note F#, 1
	octave 3
	;note F#, 0 | 
	;note C#, 0 | 
	octave 2
	;note A#, 0 | 
	note F#, 1
	octave 3
	;note F#, 0 | 
	;note C#, 0 | 
	octave 2
	;note A#, 0 | 
	note F#, 1
	;note A#, 0 | 
	;note F#, 0 | 
	octave 3
	;note C#, 0 | 
	note F#, 2
	;note F#, 0 | 
	;note C#, 0 | 
	octave 2
	;note A#, 0 | 
	note F#, 1
	octave 3
	;note F#, 0 | 
	;note C#, 0 | 
	octave 2
	;note A#, 0 | 
	note F#, 1
	;note A#, 0 | 
	;note F#, 0 | 
	octave 3
	;note C#, 0 | 
	note F#, 1
	octave 2
	;note F#, 0 | 
	;note A#, 0 | 
	octave 3
	;note C#, 0 | 
	note F#, 4
	octave 2
	;note F#, 0 | 
	;note A#, 0 | 
	octave 3
	;note C#, 0 | 
	note F#, 2
	;note F#, 0 | 
	;note C#, 0 | 
	octave 2
	;note A#, 0 | 
	note F#, 1
	octave 3
	;note F#, 0 | 
	;note C#, 0 | 
	octave 2
	;note A#, 0 | 
	note F#, 1
;Bar 36
	octave 3
	;note F#, 0 | 
	;note D_, 0 | 
	octave 2
	;note B_, 0 | 
	note F#, 1
	octave 3
	;note F#, 0 | 
	;note D_, 0 | 
	octave 2
	;note B_, 0 | 
	note F#, 1
	octave 3
	;note F#, 0 | 
	;note D_, 0 | 
	octave 2
	;note B_, 0 | 
	note F#, 1
	;note F#, 0 | 
	;note B_, 0 | 
	octave 3
	;note D_, 0 | 
	note F#, 2
	;note F#, 0 | 
	;note D_, 0 | 
	octave 2
	;note B_, 0 | 
	note F#, 2
	octave 3
	;note F#, 0 | 
	;note D_, 0 | 
	octave 2
	;note B_, 0 | 
	note F#, 1
	;note F#, 0 | 
	;note B_, 0 | 
	octave 3
	;note D_, 0 | 
	note F#, 4
	rest 2
	;note F#, 0 | 
	;note D_, 0 | 
	octave 2
	;note B_, 0 | 
	note F#, 1
	octave 3
	;note F#, 0 | 
	;note D_, 0 | 
	octave 2
	;note B_, 0 | 
	note F#, 1
;Bar 37
	octave 1
	;note G_, 0 | 
	octave 2
	;note D_, 0 | 
	;note G_, 0 | 
	octave 3
	;note D_, 0 | 
	note G_, 2
	octave 1
	;note G_, 0 | 
	octave 2
	;note D_, 0 | 
	;note G_, 0 | 
	octave 3
	;note D_, 0 | 
	note G_, 1
	octave 1
	;note G_, 0 | 
	octave 2
	;note D_, 0 | 
	;note G_, 0 | 
	octave 3
	;note D_, 0 | 
	note G_, 2
	octave 1
	;note G_, 0 | 
	octave 2
	;note D_, 0 | 
	;note G_, 0 | 
	octave 3
	;note D_, 0 | 
	note G_, 2
	octave 1
	;note G_, 0 | 
	octave 2
	;note D_, 0 | 
	;note G_, 0 | 
	octave 3
	;note D_, 0 | 
	note G_, 1
	octave 1
	;note G_, 0 | 
	octave 2
	;note D_, 0 | 
	;note G_, 0 | 
	octave 3
	;note D_, 0 | 
	note G_, 4
	octave 1
	;note G_, 0 | 
	octave 2
	;note D_, 0 | 
	;note G_, 0 | 
	octave 3
	;note D_, 0 | 
	note G_, 4
;Bar 38
	octave 2
	;note D_, 0 | 
	;note A_, 0 | 
	octave 3
	;note D_, 0 | 
	note F#, 1
	octave 2
	;note D_, 0 | 
	;note A_, 0 | 
	octave 3
	;note D_, 0 | 
	note F#, 1
	octave 2
	;note D_, 0 | 
	;note A_, 0 | 
	octave 3
	;note D_, 0 | 
	note F#, 1
	octave 2
	;note D_, 0 | 
	;note A_, 0 | 
	octave 3
	;note D_, 0 | 
	note F#, 2
	;note F#, 0 | 
	;note D_, 0 | 
	octave 2
	;note A_, 0 | 
	note D_, 2
	;note D_, 0 | 
	;note A_, 0 | 
	octave 3
	;note D_, 0 | 
	note F#, 1
	octave 2
	;note D_, 0 | 
	;note A_, 0 | 
	octave 3
	;note D_, 0 | 
	note F#, 4
	;note F#, 0 | 
	;note D_, 0 | 
	octave 2
	;note A_, 0 | 
	note D_, 4
;Bar 39
	octave 1
	;note E_, 0 | 
	;note B_, 0 | 
	octave 2
	;note E_, 0 | 
	;note G_, 0 | 
	;note B_, 0 | 
	octave 3
	note E_, 1
	octave 1
	;note E_, 0 | 
	;note B_, 0 | 
	octave 2
	;note E_, 0 | 
	;note G_, 0 | 
	;note B_, 0 | 
	octave 3
	note E_, 1
	octave 1
	;note E_, 0 | 
	;note B_, 0 | 
	octave 2
	;note E_, 0 | 
	;note G_, 0 | 
	;note B_, 0 | 
	octave 3
	note E_, 1
	octave 1
	;note E_, 0 | 
	;note B_, 0 | 
	octave 2
	;note E_, 0 | 
	;note G_, 0 | 
	;note B_, 0 | 
	octave 3
	note E_, 2
	octave 1
	;note E_, 0 | 
	;note B_, 0 | 
	octave 2
	;note E_, 0 | 
	;note G_, 0 | 
	;note B_, 0 | 
	octave 3
	note E_, 2
	octave 1
	;note E_, 0 | 
	;note B_, 0 | 
	octave 2
	;note E_, 0 | 
	;note G_, 0 | 
	;note B_, 0 | 
	octave 3
	note E_, 1
	octave 1
	;note E_, 0 | 
	;note B_, 0 | 
	octave 2
	;note E_, 0 | 
	;note G_, 0 | 
	;note B_, 0 | 
	octave 3
	note E_, 4
	octave 1
	;note E_, 0 | 
	;note B_, 0 | 
	octave 2
	;note E_, 0 | 
	;note G_, 0 | 
	;note B_, 0 | 
	octave 3
	note E_, 2
	octave 1
	;note E_, 0 | 
	;note B_, 0 | 
	octave 2
	;note E_, 0 | 
	;note G_, 0 | 
	;note B_, 0 | 
	octave 3
	note E_, 2
;Bar 40
	octave 2
	;note A#, 0 | 
	octave 3
	;note C#, 0 | 
	;note F#, 0 | 
	note A#, 3
	octave 2
	;note A#, 0 | 
	octave 3
	;note C#, 0 | 
	;note F#, 0 | 
	note A#, 2
	octave 2
	;note A#, 0 | 
	octave 3
	;note C#, 0 | 
	;note F#, 0 | 
	note A#, 2
	octave 2
	;note A#, 0 | 
	octave 3
	;note C#, 0 | 
	;note F#, 0 | 
	note A#, 1
	octave 2
	;note A#, 0 | 
	octave 3
	;note C#, 0 | 
	;note F#, 0 | 
	note A#, 4
	octave 2
	;note A#, 0 | 
	octave 3
	;note C#, 0 | 
	;note F#, 0 | 
	note A#, 2
	octave 2
	;note A#, 0 | 
	octave 3
	;note C#, 0 | 
	;note F#, 0 | 
	note A#, 2
;Bar 41
	;note B_, 0 | 
	volume_envelope 9, 7
	;note F#, 0 | 
	;note D_, 0 | 
	octave 2
	note B_, 2
	octave 3
	volume_envelope 7, 7
	note D_, 1
	note D_, 1
	note D_, 1
	note B_, 1
	octave 2
	note B_, 1
	octave 3
	note F#, 1
	note D_, 2
	note F#, 1
	note B_, 1
	note F#, 2
	note F#, 1
	note B_, 1
;Bar 42
	octave 2
	;note A#, 0 | 
	octave 4
	;note C#, 0 | 
	octave 3
	;note F#, 0 | 
	note E_, 2
	note E_, 1
	octave 4
	note C#, 1
	octave 3
	note E_, 1
	octave 4
	note C#, 1
	octave 2
	note A#, 1
	octave 3
	note F#, 1
	octave 2
	note A#, 2
	octave 3
	note F#, 1
	octave 4
	note C#, 1
	octave 3
	note E_, 2
	note F#, 1
	octave 4
	note C#, 1
;Bar 43
	octave 1
	note A_, 2
	octave 3
	note E_, 1
	note C#, 1
	octave 4
	note C#, 1
	octave 3
	note B_, 1
	note E_, 1
	note A_, 3
	note E_, 1
	note B_, 1
	note A_, 2
	note E_, 1
	note B_, 1
;Bar 44
	note B_, 2
	octave 2
	note B_, 1
	octave 3
	note D_, 1
	note B_, 1
	note F#, 1
	note D_, 1
	note F#, 1
	note B_, 8
;Bar 45
	octave 2
	note G_, 2
	note B_, 1
	octave 3
	note D_, 1
	octave 2
	;note B_, 0 | 
	octave 3
	note D_, 1
	note G_, 1
	octave 2
	note B_, 1
	octave 3
	note D_, 1
	note B_, 2
	octave 2
	;note A_, 0 | 
	octave 3
	note D_, 1
	octave 2
	note G_, 1
	;note A_, 0 | 
	octave 3
	note D_, 1
	octave 2
	note B_, 1
	;note B_, 0 | 
	octave 3
	;note D_, 0 | 
	note G_, 2
;Bar 46
	octave 2
	;note A_, 0 | 
	octave 3
	;note D_, 0 | 
	note F#, 2
	octave 2
	note A_, 1
	octave 3
	note D_, 1
	note F#, 1
	octave 4
	note D_, 1
	octave 3
	note D_, 1
	note F#, 1
	octave 4
	note D_, 1
	octave 3
	note F#, 1
	note A_, 1
	note A_, 1
	;note F#, 0 | 
	note D_, 1
	note D_, 1
	octave 4
	note D_, 1
	note D_, 1
;Bar 47
	octave 2
	note E_, 1
	octave 3
	note G_, 1
	octave 2
	note B_, 1
	octave 3
	note D_, 1
	note G_, 1
	note G_, 1
	note B_, 1
	octave 4
	note D_, 1
	octave 3
	note B_, 2
	octave 2
	note B_, 1
	octave 3
	note D_, 1
	octave 2
	note E_, 2
	octave 3
	note D_, 1
	note B_, 1
;Bar 48
	octave 2
	note A#, 2
	note A#, 1
	octave 3
	note E_, 1
	note E_, 1
	note F#, 1
	octave 2
	note A#, 1
	octave 3
	note E_, 1
	octave 4
	note C#, 4
	octave 2
	;note A#, 0 | 
	octave 4
	;note C#, 0 | 
	octave 3
	;note F#, 0 | 
	note E_, 4
;Bar 49
	octave 2
	;note B_, 0 | 
	octave 3
	;note D_, 0 | 
	;note F#, 0 | 
	note B_, 4
	octave 2
	volume_envelope 5, 7
	;note B_, 0 | 
	octave 3
	;note D_, 0 | 
	;note F#, 0 | 
	note B_, 1
	octave 2
	;note B_, 0 | 
	octave 3
	;note D_, 0 | 
	;note F#, 0 | 
	note B_, 2
	octave 2
	;note B_, 0 | 
	octave 3
	;note D_, 0 | 
	;note F#, 0 | 
	note B_, 1
	octave 2
	;note B_, 0 | 
	octave 3
	;note D_, 0 | 
	;note F#, 0 | 
	note B_, 4
	octave 2
	;note B_, 0 | 
	octave 3
	;note D_, 0 | 
	;note F#, 0 | 
	note B_, 4
;Bar 50
	octave 2
	;note A#, 0 | 
	octave 3
	;note E_, 0 | 
	;note F#, 0 | 
	octave 4
	note C#, 4
	octave 2
	;note A#, 0 | 
	octave 3
	;note E_, 0 | 
	;note F#, 0 | 
	octave 4
	note C#, 1
	octave 2
	;note A#, 0 | 
	octave 3
	;note F#, 0 | 
	;note E_, 0 | 
	octave 4
	note C#, 2
	;note C#, 0 | 
	octave 3
	;note F#, 0 | 
	;note E_, 0 | 
	octave 2
	note A#, 1
	octave 4
	;note C#, 0 | 
	octave 3
	;note F#, 0 | 
	;note E_, 0 | 
	octave 2
	note A#, 4
	octave 4
	;note C#, 0 | 
	octave 3
	;note F#, 0 | 
	;note E_, 0 | 
	octave 2
	note A#, 4 ; WARNING: Auto-Sync says: Rounded up!
;Bar 51
	;note A_, 0 | 
	octave 3
	;note C#, 0 | 
	;note E_, 0 | 
	note B_, 5
	;note B_, 0 | 
	;note E_, 0 | 
	;note C#, 0 | 
	octave 2
	note A_, 2
	octave 3
	;note B_, 0 | 
	;note E_, 0 | 
	;note C#, 0 | 
	octave 2
	note A_, 1
	;note A_, 0 | 
	octave 3
	;note C#, 0 | 
	;note E_, 0 | 
	note B_, 4
	;note E_, 0 | 
	;note C#, 0 | 
	octave 2
	;note A_, 0 | 
	octave 3
	note B_, 4
;Bar 52
	;note B_, 0 | 
	;note F#, 0 | 
	;note D_, 0 | 
	octave 2
	note G#, 4 ; WARNING: Auto-Sync says: Rounded up!
	octave 3
	;note B_, 0 | 
	;note F#, 0 | 
	;note D_, 0 | 
	octave 2
	note G#, 1
	;note G#, 0 | 
	octave 3
	;note D_, 0 | 
	;note F#, 0 | 
	note B_, 2
	;note D_, 0 | 
	;note F#, 0 | 
	;note B_, 0 | 
	octave 2
	note G#, 1
	;note G#, 0 | 
	octave 3
	;note D_, 0 | 
	;note F#, 0 | 
	note B_, 8
;Bar 53
	octave 2
	;note G_, 0 | 
	;note B_, 0 | 
	octave 3
	;note D_, 0 | 
	note G_, 4
	;note G_, 0 | 
	;note D_, 0 | 
	octave 2
	;note B_, 0 | 
	note G_, 1
	;note G_, 0 | 
	;note B_, 0 | 
	octave 3
	;note D_, 0 | 
	note G_, 2
	octave 2
	;note G_, 0 | 
	;note B_, 0 | 
	octave 3
	;note D_, 0 | 
	note G_, 1
	octave 2
	;note G_, 0 | 
	;note B_, 0 | 
	octave 3
	;note D_, 0 | 
	note G_, 4
	;note G_, 0 | 
	;note D_, 0 | 
	octave 2
	;note B_, 0 | 
	note G_, 2
	octave 3
	;note G_, 0 | 
	octave 2
	;note B_, 0 | 
	octave 3
	;note D_, 0 | 
	octave 2
	note G_, 2
;Bar 54
	;note D_, 0 | 
	;note A_, 0 | 
	octave 3
	;note D_, 0 | 
	note F#, 4
	;note F#, 0 | 
	;note D_, 0 | 
	octave 2
	;note A_, 0 | 
	note D_, 1
	;note D_, 0 | 
	;note A_, 0 | 
	octave 3
	;note D_, 0 | 
	note F#, 2
	;note D_, 0 | 
	;note F#, 0 | 
	octave 2
	;note A_, 0 | 
	note D_, 1
	;note D_, 0 | 
	;note A_, 0 | 
	octave 3
	;note D_, 0 | 
	note F#, 4
	octave 2
	;note D_, 0 | 
	;note A_, 0 | 
	octave 3
	;note D_, 0 | 
	note F#, 4
;Bar 55
	;note G_, 0 | 
	;note E_, 0 | 
	octave 2
	;note B_, 0 | 
	note E_, 2
	;note E_, 0 | 
	;note B_, 0 | 
	octave 3
	;note E_, 0 | 
	note G_, 1
	octave 2
	;note E_, 0 | 
	;note B_, 0 | 
	octave 3
	;note E_, 0 | 
	note G_, 1
	;note G_, 0 | 
	;note E_, 0 | 
	octave 2
	;note B_, 0 | 
	note E_, 1
	;note E_, 0 | 
	;note B_, 0 | 
	octave 3
	;note E_, 0 | 
	note G_, 2
	octave 2
	;note B_, 0 | 
	octave 3
	;note E_, 0 | 
	;note G_, 0 | 
	octave 2
	note E_, 1
	;note E_, 0 | 
	;note B_, 0 | 
	octave 3
	;note E_, 0 | 
	note G_, 4
	;note G_, 0 | 
	;note E_, 0 | 
	octave 2
	;note B_, 0 | 
	note E_, 2
	octave 3
	;note G_, 0 | 
	;note E_, 0 | 
	octave 2
	;note B_, 0 | 
	note E_, 2
;Bar 56
	octave 3
	;note C#, 0 | 
	;note F#, 0 | 
	;note A#, 0 | 
	octave 2
	note A#, 2
	octave 3
	;note A#, 0 | 
	;note F#, 0 | 
	;note C#, 0 | 
	octave 2
	note A#, 1
	octave 3
	;note A#, 0 | 
	;note F#, 0 | 
	;note C#, 0 | 
	octave 2
	note A#, 1
	;note A#, 0 | 
	octave 3
	;note C#, 0 | 
	;note F#, 0 | 
	note A#, 1
	;note A#, 0 | 
	;note F#, 0 | 
	;note C#, 0 | 
	octave 2
	note A#, 2
	;note A#, 0 | 
	octave 3
	;note C#, 0 | 
	;note F#, 0 | 
	note A#, 1
	octave 2
	;note A#, 0 | 
	octave 3
	;note C#, 0 | 
	;note F#, 0 | 
	note A#, 4
	;note A#, 0 | 
	;note F#, 0 | 
	;note C#, 0 | 
	octave 2
	note A#, 1
	octave 3
	;note A#, 0 | 
	;note F#, 0 | 
	;note C#, 0 | 
	octave 2
	note A#, 1
	;note A#, 0 | 
	octave 3
	;note C#, 0 | 
	;note F#, 0 | 
	note A#, 2
;Bar 57
	;note G_, 0 | 
	;note D_, 0 | 
	octave 2
	;note B_, 0 | 
	note G_, 2
	;note G_, 0 | 
	;note B_, 0 | 
	octave 3
	;note D_, 0 | 
	note G_, 1
	octave 2
	;note G_, 0 | 
	;note B_, 0 | 
	octave 3
	;note D_, 0 | 
	note G_, 2
	;note D_, 0 | 
	octave 2
	;note B_, 0 | 
	;note G_, 0 | 
	octave 3
	note G_, 2
	octave 2
	;note G_, 0 | 
	;note B_, 0 | 
	octave 3
	;note D_, 0 | 
	note G_, 1
	;note G_, 0 | 
	;note D_, 0 | 
	octave 2
	;note B_, 0 | 
	note G_, 2
	;note G_, 0 | 
	;note B_, 0 | 
	octave 3
	;note D_, 0 | 
	note G_, 4
	;note G_, 0 | 
	;note D_, 0 | 
	octave 2
	;note B_, 0 | 
	note G_, 1
	octave 3
	;note G_, 0 | 
	;note D_, 0 | 
	octave 2
	;note B_, 0 | 
	note G_, 1
;Bar 58
	;note D_, 0 | 
	;note A_, 0 | 
	octave 3
	;note D_, 0 | 
	note F#, 1
	octave 2
	;note D_, 0 | 
	;note A_, 0 | 
	octave 3
	;note D_, 0 | 
	note F#, 1
	octave 2
	;note D_, 0 | 
	;note A_, 0 | 
	octave 3
	;note D_, 0 | 
	note F#, 1
	octave 2
	;note D_, 0 | 
	;note A_, 0 | 
	octave 3
	;note D_, 0 | 
	note F#, 2
	;note F#, 0 | 
	;note D_, 0 | 
	octave 2
	;note A_, 0 | 
	note D_, 2
	;note D_, 0 | 
	;note A_, 0 | 
	octave 3
	;note D_, 0 | 
	note F#, 1
	octave 2
	;note D_, 0 | 
	;note A_, 0 | 
	octave 3
	;note D_, 0 | 
	note F#, 4
	;note D_, 0 | 
	octave 2
	;note A_, 0 | 
	;note D_, 0 | 
	octave 3
	note F#, 4
;Bar 59
	;note F#, 0 | 
	;note C#, 0 | 
	octave 2
	;note A#, 0 | 
	note F#, 1
	octave 3
	;note F#, 0 | 
	;note C#, 0 | 
	octave 2
	;note A#, 0 | 
	note F#, 1
	octave 3
	;note F#, 0 | 
	;note C#, 0 | 
	octave 2
	;note A#, 0 | 
	note F#, 1
	;note A#, 0 | 
	;note F#, 0 | 
	octave 3
	;note C#, 0 | 
	note F#, 2
	;note F#, 0 | 
	;note C#, 0 | 
	octave 2
	;note A#, 0 | 
	note F#, 1
	octave 3
	;note F#, 0 | 
	;note C#, 0 | 
	octave 2
	;note A#, 0 | 
	note F#, 1
	;note A#, 0 | 
	;note F#, 0 | 
	octave 3
	;note C#, 0 | 
	note F#, 1
	octave 2
	;note F#, 0 | 
	;note A#, 0 | 
	octave 3
	;note C#, 0 | 
	note F#, 4
	octave 2
	;note F#, 0 | 
	;note A#, 0 | 
	octave 3
	;note C#, 0 | 
	note F#, 2
	;note F#, 0 | 
	;note C#, 0 | 
	octave 2
	;note A#, 0 | 
	note F#, 1
	octave 3
	;note F#, 0 | 
	;note C#, 0 | 
	octave 2
	;note A#, 0 | 
	note F#, 1
;Bar 60
	octave 3
	;note F#, 0 | 
	;note D_, 0 | 
	octave 2
	;note B_, 0 | 
	note F#, 1
	octave 3
	;note F#, 0 | 
	;note D_, 0 | 
	octave 2
	;note B_, 0 | 
	note F#, 1
	octave 3
	;note F#, 0 | 
	;note D_, 0 | 
	octave 2
	;note B_, 0 | 
	note F#, 1
	;note F#, 0 | 
	;note B_, 0 | 
	octave 3
	;note D_, 0 | 
	note F#, 2
	;note F#, 0 | 
	;note D_, 0 | 
	octave 2
	;note B_, 0 | 
	note F#, 2
	octave 3
	;note F#, 0 | 
	;note D_, 0 | 
	octave 2
	;note B_, 0 | 
	note F#, 1
	;note F#, 0 | 
	;note B_, 0 | 
	octave 3
	;note D_, 0 | 
	note F#, 4
	;note F#, 0 | 
	;note D_, 0 | 
	octave 2
	;note B_, 0 | 
	note F#, 2
	octave 3
	;note F#, 0 | 
	;note D_, 0 | 
	octave 2
	;note B_, 0 | 
	note F#, 1
	octave 3
	;note F#, 0 | 
	;note D_, 0 | 
	octave 2
	;note B_, 0 | 
	note F#, 1
;Bar 61
	octave 1
	;note G_, 0 | 
	octave 2
	;note D_, 0 | 
	;note G_, 0 | 
	octave 3
	;note D_, 0 | 
	note G_, 2
	octave 1
	;note G_, 0 | 
	octave 2
	;note D_, 0 | 
	;note G_, 0 | 
	octave 3
	;note D_, 0 | 
	note G_, 1
	octave 1
	;note G_, 0 | 
	octave 2
	;note D_, 0 | 
	;note G_, 0 | 
	octave 3
	;note D_, 0 | 
	note G_, 2
	octave 1
	;note G_, 0 | 
	octave 2
	;note D_, 0 | 
	;note G_, 0 | 
	octave 3
	;note D_, 0 | 
	note G_, 2
	octave 1
	;note G_, 0 | 
	octave 2
	;note D_, 0 | 
	;note G_, 0 | 
	octave 3
	;note D_, 0 | 
	note G_, 1
	octave 1
	;note G_, 0 | 
	octave 2
	;note D_, 0 | 
	;note G_, 0 | 
	octave 3
	;note D_, 0 | 
	note G_, 4
	octave 1
	;note G_, 0 | 
	octave 2
	;note D_, 0 | 
	;note G_, 0 | 
	octave 3
	;note D_, 0 | 
	note G_, 4
;Bar 62
	octave 2
	;note D_, 0 | 
	;note A_, 0 | 
	octave 3
	;note D_, 0 | 
	note F#, 1
	octave 2
	;note D_, 0 | 
	;note A_, 0 | 
	octave 3
	;note D_, 0 | 
	note F#, 1
	octave 2
	;note D_, 0 | 
	;note A_, 0 | 
	octave 3
	;note D_, 0 | 
	note F#, 1
	octave 2
	;note D_, 0 | 
	;note A_, 0 | 
	octave 3
	;note D_, 0 | 
	note F#, 2
	;note F#, 0 | 
	;note D_, 0 | 
	octave 2
	;note A_, 0 | 
	note D_, 2
	;note D_, 0 | 
	;note A_, 0 | 
	octave 3
	;note D_, 0 | 
	note F#, 1
	octave 2
	;note D_, 0 | 
	;note A_, 0 | 
	octave 3
	;note D_, 0 | 
	note F#, 4
	;note F#, 0 | 
	;note D_, 0 | 
	octave 2
	;note A_, 0 | 
	note D_, 4
;Bar 63
	octave 1
	;note E_, 0 | 
	;note B_, 0 | 
	octave 2
	;note E_, 0 | 
	;note G_, 0 | 
	;note B_, 0 | 
	octave 3
	note E_, 1
	octave 1
	;note E_, 0 | 
	;note B_, 0 | 
	octave 2
	;note E_, 0 | 
	;note G_, 0 | 
	;note B_, 0 | 
	octave 3
	note E_, 1
	octave 1
	;note E_, 0 | 
	;note B_, 0 | 
	octave 2
	;note E_, 0 | 
	;note G_, 0 | 
	;note B_, 0 | 
	octave 3
	note E_, 1
	octave 1
	;note E_, 0 | 
	;note B_, 0 | 
	octave 2
	;note E_, 0 | 
	;note G_, 0 | 
	;note B_, 0 | 
	octave 3
	note E_, 2
	octave 1
	;note E_, 0 | 
	;note B_, 0 | 
	octave 2
	;note E_, 0 | 
	;note G_, 0 | 
	;note B_, 0 | 
	octave 3
	note E_, 2
	octave 1
	;note E_, 0 | 
	;note B_, 0 | 
	octave 2
	;note E_, 0 | 
	;note G_, 0 | 
	;note B_, 0 | 
	octave 3
	note E_, 1
	octave 1
	;note E_, 0 | 
	;note B_, 0 | 
	octave 2
	;note E_, 0 | 
	;note G_, 0 | 
	;note B_, 0 | 
	octave 3
	note E_, 4
	octave 1
	;note E_, 0 | 
	;note B_, 0 | 
	octave 2
	;note E_, 0 | 
	;note G_, 0 | 
	;note B_, 0 | 
	octave 3
	note E_, 2
	octave 1
	;note E_, 0 | 
	;note B_, 0 | 
	octave 2
	;note E_, 0 | 
	;note G_, 0 | 
	;note B_, 0 | 
	octave 3
	note E_, 2
;Bar 64
	volume_envelope 8, 7
	;note A#, 0 | 
	;note F#, 0 | 
	note C#, 1
	octave 2
	note A#, 11
	rest 4
;Bar 65
	volume_envelope 7, 7
	;note B_, 0 | 
	octave 3
	;note D_, 0 | 
	octave 2
	note F#, 2
	volume_envelope 5, 7
	note B_, 2
	note B_, 2
	note F#, 2
	octave 3
	note D_, 4
	octave 2
	note B_, 2
	octave 3
	note F#, 2
;Bar 66
	octave 2
	note A#, 2
	octave 3
	note E_, 2
	note F#, 2
	note E_, 2
	octave 2
	note A#, 8
;Bar 67
	note A_, 2
	octave 3
	note E_, 2
	note A_, 2
	note E_, 2
	octave 2
	note A_, 2
	octave 3
	note E_, 2
	octave 2
	note E_, 2
	octave 3
	note E_, 2
;Bar 68
	octave 2
	note G#, 2
	note B_, 2
	octave 3
	note D_, 2
	octave 2
	note B_, 2
	octave 3
	note D_, 8
;Bar 69
	octave 2
	note G_, 2
	note B_, 2
	note B_, 2
	note G_, 2
	octave 3
	note D_, 2
	octave 2
	note G_, 2
	note A_, 1
	note B_, 1
	note A_, 2
;Bar 70
	note A_, 2
	octave 3
	note D_, 2
	note F#, 2
	octave 2
	note A_, 2
	note F#, 2
	octave 3
	note D_, 2
	octave 2
	note D_, 2
	note A_, 2
;Bar 71
	note E_, 2
	note B_, 2
	octave 3
	note D_, 2
	octave 2
	note B_, 2
	octave 3
	note G_, 2
	note D_, 2
	octave 1
	note B_, 4
;Bar 72
	octave 2
	note F#, 2
	note A#, 2
	octave 3
	note E_, 2
	octave 2
	note A#, 2
	octave 3
	note E_, 8
;Bar 73
	octave 2
	volume_envelope 4, 7
	;note B_, 0 | 
	octave 3
	;note D_, 0 | 
	;note F#, 0 | 
	note B_, 1
	octave 2
	;note B_, 0 | 
	octave 3
	;note D_, 0 | 
	;note F#, 0 | 
	note B_, 1
	octave 2
	;note B_, 0 | 
	octave 3
	;note D_, 0 | 
	;note F#, 0 | 
	note B_, 1
	;note B_, 0 | 
	;note F#, 0 | 
	;note D_, 0 | 
	octave 2
	note B_, 2
	octave 3
	;note B_, 0 | 
	octave 2
	;note B_, 0 | 
	octave 3
	;note D_, 0 | 
	note F#, 2
	octave 2
	;note B_, 0 | 
	octave 3
	;note D_, 0 | 
	;note F#, 0 | 
	note B_, 1
	octave 2
	;note B_, 0 | 
	octave 3
	;note D_, 0 | 
	;note F#, 0 | 
	note B_, 4
	octave 2
	;note B_, 0 | 
	octave 3
	;note D_, 0 | 
	;note F#, 0 | 
	note B_, 2
	octave 2
	;note B_, 0 | 
	octave 3
	;note D_, 0 | 
	;note F#, 0 | 
	note B_, 2
;Bar 74
	octave 4
	;note C#, 0 | 
	octave 3
	;note F#, 0 | 
	;note E_, 0 | 
	octave 2
	note A#, 5
	octave 4
	;note C#, 0 | 
	octave 3
	;note F#, 0 | 
	;note E_, 0 | 
	octave 2
	note A#, 2
	;note A#, 0 | 
	octave 3
	;note E_, 0 | 
	;note F#, 0 | 
	octave 4
	note C#, 1
	octave 2
	;note A#, 0 | 
	octave 3
	;note E_, 0 | 
	;note F#, 0 | 
	octave 4
	note C#, 4
	octave 2
	;note A#, 0 | 
	octave 3
	;note E_, 0 | 
	;note F#, 0 | 
	octave 4
	note C#, 2
	octave 2
	;note A#, 0 | 
	octave 3
	;note E_, 0 | 
	;note F#, 0 | 
	octave 4
	note C#, 1
	octave 2
	;note A#, 0 | 
	octave 3
	;note E_, 0 | 
	;note F#, 0 | 
	octave 4
	note C#, 1
;Bar 75
	octave 2
	;note A_, 0 | 
	octave 3
	;note C#, 0 | 
	;note E_, 0 | 
	note B_, 5
	;note B_, 0 | 
	;note E_, 0 | 
	;note C#, 0 | 
	octave 2
	note A_, 2
	octave 3
	;note B_, 0 | 
	;note E_, 0 | 
	;note C#, 0 | 
	octave 2
	note A_, 1
	;note A_, 0 | 
	octave 3
	;note C#, 0 | 
	;note E_, 0 | 
	note B_, 4
	octave 2
	;note A_, 0 | 
	octave 3
	;note C#, 0 | 
	;note E_, 0 | 
	note B_, 2
	octave 2
	;note A_, 0 | 
	octave 3
	;note C#, 0 | 
	;note E_, 0 | 
	note B_, 2
;Bar 76
	;note B_, 0 | 
	;note F#, 0 | 
	;note D_, 0 | 
	octave 2
	note G#, 4
	octave 3
	;note B_, 0 | 
	;note F#, 0 | 
	;note D_, 0 | 
	octave 2
	note G#, 1
	;note G#, 0 | 
	octave 3
	;note D_, 0 | 
	;note F#, 0 | 
	note B_, 2
	;note D_, 0 | 
	;note F#, 0 | 
	;note B_, 0 | 
	octave 2
	note G#, 1
	;note G#, 0 | 
	octave 3
	;note D_, 0 | 
	;note F#, 0 | 
	note B_, 4
	octave 2
	;note G#, 0 | 
	octave 3
	;note D_, 0 | 
	;note F#, 0 | 
	note B_, 2
	octave 2
	;note G#, 0 | 
	octave 3
	;note D_, 0 | 
	;note F#, 0 | 
	note B_, 1
	octave 2
	;note G#, 0 | 
	octave 3
	;note D_, 0 | 
	;note F#, 0 | 
	note B_, 1
;Bar 77
	octave 2
	;note G_, 0 | 
	;note B_, 0 | 
	octave 3
	;note D_, 0 | 
	note G_, 2
	octave 2
	;note G_, 0 | 
	;note B_, 0 | 
	octave 3
	;note D_, 0 | 
	note G_, 1
	octave 2
	;note G_, 0 | 
	;note B_, 0 | 
	octave 3
	;note D_, 0 | 
	note G_, 2
	octave 2
	;note G_, 0 | 
	;note B_, 0 | 
	octave 3
	;note D_, 0 | 
	note G_, 2
	octave 2
	;note G_, 0 | 
	;note B_, 0 | 
	octave 3
	;note D_, 0 | 
	note G_, 1
	octave 2
	;note G_, 0 | 
	;note B_, 0 | 
	octave 3
	;note D_, 0 | 
	note G_, 2
	octave 2
	;note G_, 0 | 
	;note B_, 0 | 
	octave 3
	;note D_, 0 | 
	note G_, 1
	octave 2
	;note G_, 0 | 
	;note B_, 0 | 
	octave 3
	;note D_, 0 | 
	note G_, 1
	octave 2
	;note G_, 0 | 
	;note B_, 0 | 
	octave 3
	;note D_, 0 | 
	note G_, 1
	octave 2
	;note G_, 0 | 
	;note B_, 0 | 
	octave 3
	;note D_, 0 | 
	note G_, 1
	octave 2
	;note G_, 0 | 
	;note B_, 0 | 
	octave 3
	;note D_, 0 | 
	note G_, 2
;Bar 78
	octave 2
	;note D_, 0 | 
	;note A_, 0 | 
	octave 3
	;note D_, 0 | 
	note F#, 5
	octave 2
	;note D_, 0 | 
	;note A_, 0 | 
	octave 3
	;note D_, 0 | 
	note F#, 2
	octave 2
	;note D_, 0 | 
	;note A_, 0 | 
	octave 3
	;note D_, 0 | 
	note F#, 1
	octave 2
	;note D_, 0 | 
	;note A_, 0 | 
	octave 3
	;note D_, 0 | 
	note F#, 4
	octave 2
	;note D_, 0 | 
	;note A_, 0 | 
	octave 3
	;note D_, 0 | 
	note F#, 2
	octave 2
	;note D_, 0 | 
	;note A_, 0 | 
	octave 3
	;note D_, 0 | 
	note F#, 2
;Bar 79
	octave 2
	;note E_, 0 | 
	;note B_, 0 | 
	octave 3
	;note E_, 0 | 
	note G_, 2
	octave 2
	;note E_, 0 | 
	;note B_, 0 | 
	octave 3
	;note E_, 0 | 
	note G_, 1
	octave 2
	;note E_, 0 | 
	;note B_, 0 | 
	octave 3
	;note E_, 0 | 
	note G_, 2
	;note G_, 0 | 
	;note E_, 0 | 
	octave 2
	;note B_, 0 | 
	note E_, 2
	octave 3
	;note G_, 0 | 
	;note E_, 0 | 
	octave 2
	;note B_, 0 | 
	note E_, 1
	;note E_, 0 | 
	;note B_, 0 | 
	octave 3
	;note E_, 0 | 
	note G_, 2
	;note G_, 0 | 
	;note E_, 0 | 
	octave 2
	;note B_, 0 | 
	note E_, 1
	octave 3
	;note G_, 0 | 
	;note E_, 0 | 
	octave 2
	;note B_, 0 | 
	note E_, 1
	octave 3
	;note G_, 0 | 
	;note E_, 0 | 
	octave 2
	;note B_, 0 | 
	note E_, 2
	octave 3
	;note G_, 0 | 
	;note E_, 0 | 
	octave 2
	;note B_, 0 | 
	note E_, 2
;Bar 80
	octave 3
	volume_envelope 1, 7
	;note C#, 0 | 
	;note F#, 0 | 
	;note A#, 0 | 
	octave 2
	note A#, 2
	octave 3
	;note A#, 0 | 
	;note F#, 0 | 
	;note C#, 0 | 
	octave 2
	note A#, 1
	octave 3
	;note A#, 0 | 
	;note F#, 0 | 
	;note C#, 0 | 
	octave 2
	note A#, 1
	;note A#, 0 | 
	octave 3
	;note C#, 0 | 
	;note F#, 0 | 
	note A#, 1
	;note A#, 0 | 
	;note F#, 0 | 
	;note C#, 0 | 
	octave 2
	note A#, 2
	;note A#, 0 | 
	octave 3
	;note C#, 0 | 
	;note F#, 0 | 
	note A#, 1
	;note A#, 0 | 
	;note F#, 0 | 
	;note C#, 0 | 
	octave 2
	note A#, 1
	octave 3
	;note A#, 0 | 
	;note F#, 0 | 
	;note C#, 0 | 
	octave 2
	note A#, 1
	octave 3
	;note A#, 0 | 
	;note F#, 0 | 
	;note C#, 0 | 
	octave 2
	note A#, 1
	rest 5
;Bar 81
	;note B_, 0 | 
	octave 3
	;note D_, 0 | 
	;note F#, 0 | 
	note B_, 2
	octave 2
	;note B_, 0 | 
	octave 3
	;note D_, 0 | 
	;note F#, 0 | 
	note B_, 1
	octave 2
	;note B_, 0 | 
	octave 3
	;note D_, 0 | 
	;note F#, 0 | 
	note B_, 2
	octave 2
	;note B_, 0 | 
	octave 3
	;note D_, 0 | 
	;note F#, 0 | 
	note B_, 2
	octave 2
	;note B_, 0 | 
	octave 3
	;note D_, 0 | 
	;note F#, 0 | 
	note B_, 1
	octave 2
	;note B_, 0 | 
	octave 3
	;note D_, 0 | 
	;note F#, 0 | 
	note B_, 2
	octave 2
	;note B_, 0 | 
	octave 3
	;note D_, 0 | 
	;note F#, 0 | 
	note B_, 1
	;note F#, 0 | 
	;note D_, 0 | 
	octave 2
	;note B_, 0 | 
	octave 3
	note B_, 1
	octave 2
	;note B_, 0 | 
	octave 3
	;note D_, 0 | 
	;note F#, 0 | 
	note B_, 4
;Bar 82
	octave 4
	;note C#, 0 | 
	octave 3
	;note F#, 0 | 
	;note E_, 0 | 
	octave 2
	note A#, 1
	octave 3
	;note E_, 0 | 
	;note F#, 0 | 
	octave 4
	;note C#, 0 | 
	octave 2
	note A#, 1
	octave 4
	;note C#, 0 | 
	octave 3
	;note F#, 0 | 
	;note E_, 0 | 
	octave 2
	note A#, 1
	;note A#, 0 | 
	octave 3
	;note E_, 0 | 
	;note F#, 0 | 
	octave 4
	note C#, 2
	;note C#, 0 | 
	octave 3
	;note F#, 0 | 
	;note E_, 0 | 
	octave 2
	note A#, 2
	octave 4
	;note C#, 0 | 
	octave 3
	;note F#, 0 | 
	;note E_, 0 | 
	octave 2
	note A#, 1
	octave 4
	;note C#, 0 | 
	octave 3
	;note E_, 0 | 
	;note F#, 0 | 
	octave 2
	note A#, 2
	octave 3
	;note E_, 0 | 
	;note F#, 0 | 
	octave 4
	;note C#, 0 | 
	octave 2
	note A#, 1
	octave 3
	;note F#, 0 | 
	;note E_, 0 | 
	octave 4
	;note C#, 0 | 
	octave 2
	note A#, 1
	;note A#, 0 | 
	octave 3
	;note E_, 0 | 
	;note F#, 0 | 
	octave 4
	note C#, 2
	;note C#, 0 | 
	octave 3
	;note F#, 0 | 
	;note E_, 0 | 
	octave 2
	note A#, 2
;Bar 83
	octave 3
	;note B_, 0 | 
	;note E_, 0 | 
	;note C#, 0 | 
	octave 2
	note A_, 1
	;note A_, 0 | 
	octave 3
	;note C#, 0 | 
	;note E_, 0 | 
	note B_, 1
	;note B_, 0 | 
	;note E_, 0 | 
	;note C#, 0 | 
	octave 2
	note A_, 1
	;note A_, 0 | 
	octave 3
	;note C#, 0 | 
	;note E_, 0 | 
	note B_, 2
	octave 2
	;note A_, 0 | 
	octave 3
	;note C#, 0 | 
	;note E_, 0 | 
	note B_, 2
	octave 2
	;note A_, 0 | 
	octave 3
	;note C#, 0 | 
	;note E_, 0 | 
	note B_, 1
	octave 2
	;note A_, 0 | 
	octave 3
	;note C#, 0 | 
	;note E_, 0 | 
	note B_, 4
	octave 2
	;note A_, 0 | 
	octave 3
	;note C#, 0 | 
	;note E_, 0 | 
	note B_, 2
	octave 2
	;note A_, 0 | 
	octave 3
	;note C#, 0 | 
	;note E_, 0 | 
	note B_, 2
;Bar 84
	octave 2
	;note G#, 0 | 
	octave 3
	;note D_, 0 | 
	;note F#, 0 | 
	note B_, 2
	;note B_, 0 | 
	;note F#, 0 | 
	;note D_, 0 | 
	octave 2
	note G#, 1
	octave 3
	;note B_, 0 | 
	;note F#, 0 | 
	;note D_, 0 | 
	octave 2
	note G#, 2
	;note G#, 0 | 
	octave 3
	;note D_, 0 | 
	;note F#, 0 | 
	note B_, 2
	;note B_, 0 | 
	;note F#, 0 | 
	;note D_, 0 | 
	octave 2
	note G#, 1
	;note G#, 0 | 
	octave 3
	;note D_, 0 | 
	;note F#, 0 | 
	note B_, 4
	octave 2
	;note G#, 0 | 
	octave 3
	;note D_, 0 | 
	;note F#, 0 | 
	note B_, 2
	octave 2
	;note G#, 0 | 
	octave 3
	;note D_, 0 | 
	;note F#, 0 | 
	note B_, 2
;Bar 85
	octave 2
	;note G_, 0 | 
	;note B_, 0 | 
	octave 3
	;note D_, 0 | 
	note G_, 2
	octave 2
	;note G_, 0 | 
	;note B_, 0 | 
	octave 3
	;note D_, 0 | 
	note G_, 1
	;note G_, 0 | 
	;note D_, 0 | 
	octave 2
	;note B_, 0 | 
	note G_, 2
	;note G_, 0 | 
	;note B_, 0 | 
	octave 3
	;note D_, 0 | 
	note G_, 2
	octave 2
	;note G_, 0 | 
	;note B_, 0 | 
	octave 3
	;note D_, 0 | 
	note G_, 1
	octave 2
	;note G_, 0 | 
	;note B_, 0 | 
	octave 3
	;note D_, 0 | 
	note G_, 4
	octave 2
	;note G_, 0 | 
	;note B_, 0 | 
	octave 3
	;note D_, 0 | 
	note G_, 2
	octave 2
	;note G_, 0 | 
	;note B_, 0 | 
	octave 3
	;note D_, 0 | 
	note G_, 2
;Bar 86
	octave 2
	;note D_, 0 | 
	;note A_, 0 | 
	octave 3
	;note D_, 0 | 
	note F#, 1
	;note F#, 0 | 
	;note D_, 0 | 
	octave 2
	;note A_, 0 | 
	note D_, 1
	;note D_, 0 | 
	;note A_, 0 | 
	octave 3
	;note D_, 0 | 
	note F#, 3
	octave 2
	;note D_, 0 | 
	;note A_, 0 | 
	octave 3
	;note D_, 0 | 
	note F#, 1
	octave 2
	;note D_, 0 | 
	;note A_, 0 | 
	octave 3
	;note D_, 0 | 
	note F#, 5
	octave 2
	;note D_, 0 | 
	;note A_, 0 | 
	octave 3
	;note D_, 0 | 
	note F#, 1
	octave 2
	;note D_, 0 | 
	;note A_, 0 | 
	octave 3
	;note D_, 0 | 
	note F#, 4
;Bar 87
	octave 2
	;note E_, 0 | 
	;note B_, 0 | 
	octave 3
	;note E_, 0 | 
	note G_, 1
	octave 2
	;note E_, 0 | 
	;note B_, 0 | 
	octave 3
	;note E_, 0 | 
	note G_, 1
	octave 2
	;note E_, 0 | 
	;note B_, 0 | 
	octave 3
	;note E_, 0 | 
	note G_, 1
	octave 2
	;note E_, 0 | 
	;note B_, 0 | 
	octave 3
	;note E_, 0 | 
	note G_, 2
	;note G_, 0 | 
	;note E_, 0 | 
	octave 2
	;note B_, 0 | 
	note E_, 2
	octave 3
	;note G_, 0 | 
	;note E_, 0 | 
	octave 2
	;note B_, 0 | 
	note E_, 1
	;note E_, 0 | 
	;note B_, 0 | 
	octave 3
	;note G_, 0 | 
	note E_, 1
	;note G_, 0 | 
	;note E_, 0 | 
	octave 2
	;note B_, 0 | 
	note E_, 1
	;note E_, 0 | 
	;note B_, 0 | 
	octave 3
	;note E_, 0 | 
	note G_, 2
	;note G_, 0 | 
	;note E_, 0 | 
	octave 2
	;note B_, 0 | 
	note E_, 2
	octave 3
	;note G_, 0 | 
	;note E_, 0 | 
	octave 2
	;note B_, 0 | 
	note E_, 1
	octave 3
	;note G_, 0 | 
	;note E_, 0 | 
	octave 2
	;note B_, 0 | 
	note E_, 1
;Bar 88
	;note A#, 0 | 
	octave 3
	;note C#, 0 | 
	;note F#, 0 | 
	note A#, 1
	;note A#, 0 | 
	octave 2
	;note A#, 0 | 
	octave 3
	;note C#, 0 | 
	note F#, 1
	;note A#, 0 | 
	;note F#, 0 | 
	;note C#, 0 | 
	octave 2
	note A#, 1
	;note A#, 0 | 
	octave 3
	;note C#, 0 | 
	;note F#, 0 | 
	note A#, 2
	;note A#, 0 | 
	;note F#, 0 | 
	;note C#, 0 | 
	octave 2
	note A#, 2
	;note A#, 0 | 
	octave 3
	;note C#, 0 | 
	;note F#, 0 | 
	note A#, 1
	octave 2
	;note A#, 0 | 
	octave 3
	;note C#, 0 | 
	;note F#, 0 | 
	note A#, 3
	;note A#, 0 | 
	;note F#, 0 | 
	;note C#, 0 | 
	octave 2
	note A#, 1
	;note A#, 0 | 
	octave 3
	;note C#, 0 | 
	;note F#, 0 | 
	note A#, 2
	;note A#, 0 | 
	;note F#, 0 | 
	;note C#, 0 | 
	octave 2
	note A#, 2
;Bar 89
	;note B_, 0 | 
	octave 3
	;note D_, 0 | 
	;note F#, 0 | 
	note B_, 2
	octave 2
	;note B_, 0 | 
	octave 3
	;note D_, 0 | 
	;note F#, 0 | 
	note B_, 1
	octave 2
	;note B_, 0 | 
	octave 3
	;note D_, 0 | 
	;note F#, 0 | 
	note B_, 2
	octave 2
	;note B_, 0 | 
	octave 3
	;note D_, 0 | 
	;note F#, 0 | 
	note B_, 2
	octave 2
	;note B_, 0 | 
	octave 3
	;note D_, 0 | 
	;note F#, 0 | 
	note B_, 1
	octave 2
	;note B_, 0 | 
	octave 3
	;note D_, 0 | 
	;note F#, 0 | 
	note B_, 2
	octave 2
	;note B_, 0 | 
	octave 3
	;note D_, 0 | 
	;note F#, 0 | 
	note B_, 1
	;note F#, 0 | 
	;note D_, 0 | 
	octave 2
	;note B_, 0 | 
	octave 3
	note B_, 1
	octave 2
	;note B_, 0 | 
	octave 3
	;note D_, 0 | 
	;note F#, 0 | 
	note B_, 4
;Bar 90
	octave 4
	;note C#, 0 | 
	octave 3
	;note F#, 0 | 
	;note E_, 0 | 
	octave 2
	note A#, 1
	octave 3
	;note E_, 0 | 
	;note F#, 0 | 
	octave 4
	;note C#, 0 | 
	octave 2
	note A#, 1
	octave 4
	;note C#, 0 | 
	octave 3
	;note F#, 0 | 
	;note E_, 0 | 
	octave 2
	note A#, 1
	;note A#, 0 | 
	octave 3
	;note E_, 0 | 
	;note F#, 0 | 
	octave 4
	note C#, 2
	;note C#, 0 | 
	octave 3
	;note F#, 0 | 
	;note E_, 0 | 
	octave 2
	note A#, 2
	octave 4
	;note C#, 0 | 
	octave 3
	;note F#, 0 | 
	;note E_, 0 | 
	octave 2
	note A#, 1
	octave 4
	;note C#, 0 | 
	octave 3
	;note E_, 0 | 
	;note F#, 0 | 
	octave 2
	note A#, 2
	octave 3
	;note E_, 0 | 
	;note F#, 0 | 
	octave 4
	;note C#, 0 | 
	octave 2
	note A#, 1
	octave 3
	;note F#, 0 | 
	;note E_, 0 | 
	octave 4
	;note C#, 0 | 
	octave 2
	note A#, 1
	;note A#, 0 | 
	octave 3
	;note E_, 0 | 
	;note F#, 0 | 
	octave 4
	note C#, 2
	;note C#, 0 | 
	octave 3
	;note F#, 0 | 
	;note E_, 0 | 
	octave 2
	note A#, 2
;Bar 91
	octave 3
	;note B_, 0 | 
	;note E_, 0 | 
	;note C#, 0 | 
	octave 2
	note A_, 1
	;note A_, 0 | 
	octave 3
	;note C#, 0 | 
	;note E_, 0 | 
	note B_, 1
	;note B_, 0 | 
	;note E_, 0 | 
	;note C#, 0 | 
	octave 2
	note A_, 1
	;note A_, 0 | 
	octave 3
	;note C#, 0 | 
	;note E_, 0 | 
	note B_, 2
	octave 2
	;note A_, 0 | 
	octave 3
	;note C#, 0 | 
	;note E_, 0 | 
	note B_, 2
	octave 2
	;note A_, 0 | 
	octave 3
	;note C#, 0 | 
	;note E_, 0 | 
	note B_, 1
	octave 2
	;note A_, 0 | 
	octave 3
	;note C#, 0 | 
	;note E_, 0 | 
	note B_, 4
	octave 2
	;note A_, 0 | 
	octave 3
	;note C#, 0 | 
	;note E_, 0 | 
	note B_, 2
	octave 2
	;note A_, 0 | 
	octave 3
	;note C#, 0 | 
	;note E_, 0 | 
	note B_, 2
;Bar 92
	octave 2
	;note G#, 0 | 
	octave 3
	;note D_, 0 | 
	;note F#, 0 | 
	note B_, 2
	;note B_, 0 | 
	;note F#, 0 | 
	;note D_, 0 | 
	octave 2
	note G#, 1
	octave 3
	;note B_, 0 | 
	;note F#, 0 | 
	;note D_, 0 | 
	octave 2
	note G#, 2
	;note G#, 0 | 
	octave 3
	;note D_, 0 | 
	;note F#, 0 | 
	note B_, 2
	;note B_, 0 | 
	;note F#, 0 | 
	;note D_, 0 | 
	octave 2
	note G#, 1
	;note G#, 0 | 
	octave 3
	;note D_, 0 | 
	;note F#, 0 | 
	note B_, 4
	octave 2
	;note G#, 0 | 
	octave 3
	;note D_, 0 | 
	;note F#, 0 | 
	note B_, 2
	octave 2
	;note G#, 0 | 
	octave 3
	;note D_, 0 | 
	;note F#, 0 | 
	note B_, 2
;Bar 93
	octave 2
	;note G_, 0 | 
	;note B_, 0 | 
	octave 3
	;note D_, 0 | 
	note G_, 2
	octave 2
	;note G_, 0 | 
	;note B_, 0 | 
	octave 3
	;note D_, 0 | 
	note G_, 1
	;note G_, 0 | 
	;note D_, 0 | 
	octave 2
	;note B_, 0 | 
	note G_, 2
	;note G_, 0 | 
	;note B_, 0 | 
	octave 3
	;note D_, 0 | 
	note G_, 2
	octave 2
	;note G_, 0 | 
	;note B_, 0 | 
	octave 3
	;note D_, 0 | 
	note G_, 1
	octave 2
	;note G_, 0 | 
	;note B_, 0 | 
	octave 3
	;note D_, 0 | 
	note G_, 4
	octave 2
	;note G_, 0 | 
	;note B_, 0 | 
	octave 3
	;note D_, 0 | 
	note G_, 2
	octave 2
	;note G_, 0 | 
	;note B_, 0 | 
	octave 3
	;note D_, 0 | 
	note G_, 2
;Bar 94
	octave 2
	;note D_, 0 | 
	;note A_, 0 | 
	octave 3
	;note D_, 0 | 
	note F#, 1
	;note F#, 0 | 
	;note D_, 0 | 
	octave 2
	;note A_, 0 | 
	note D_, 1
	;note D_, 0 | 
	;note A_, 0 | 
	octave 3
	;note D_, 0 | 
	note F#, 3
	octave 2
	;note D_, 0 | 
	;note A_, 0 | 
	octave 3
	;note D_, 0 | 
	note F#, 1
	octave 2
	;note D_, 0 | 
	;note A_, 0 | 
	octave 3
	;note D_, 0 | 
	note F#, 5
	octave 2
	;note D_, 0 | 
	;note A_, 0 | 
	octave 3
	;note D_, 0 | 
	note F#, 1
	octave 2
	;note D_, 0 | 
	;note A_, 0 | 
	octave 3
	;note D_, 0 | 
	note F#, 4
;Bar 95
	octave 2
	;note E_, 0 | 
	;note B_, 0 | 
	octave 3
	;note E_, 0 | 
	note G_, 1
	octave 2
	;note E_, 0 | 
	;note B_, 0 | 
	octave 3
	;note E_, 0 | 
	note G_, 1
	octave 2
	;note E_, 0 | 
	;note B_, 0 | 
	octave 3
	;note E_, 0 | 
	note G_, 1
	octave 2
	;note E_, 0 | 
	;note B_, 0 | 
	octave 3
	;note E_, 0 | 
	note G_, 2
	;note G_, 0 | 
	;note E_, 0 | 
	octave 2
	;note B_, 0 | 
	note E_, 2
	octave 3
	;note G_, 0 | 
	;note E_, 0 | 
	octave 2
	;note B_, 0 | 
	note E_, 1
	;note E_, 0 | 
	;note B_, 0 | 
	octave 3
	;note G_, 0 | 
	note E_, 1
	;note G_, 0 | 
	;note E_, 0 | 
	octave 2
	;note B_, 0 | 
	note E_, 1
	;note E_, 0 | 
	;note B_, 0 | 
	octave 3
	;note E_, 0 | 
	note G_, 2
	;note G_, 0 | 
	;note E_, 0 | 
	octave 2
	;note B_, 0 | 
	note E_, 2
	octave 3
	;note G_, 0 | 
	;note E_, 0 | 
	octave 2
	;note B_, 0 | 
	note E_, 1
	octave 3
	;note G_, 0 | 
	;note E_, 0 | 
	octave 2
	;note B_, 0 | 
	note E_, 1
;Bar 96
	;note A#, 0 | 
	octave 3
	;note C#, 0 | 
	;note F#, 0 | 
	note A#, 1
	;note A#, 0 | 
	octave 2
	;note A#, 0 | 
	octave 3
	;note C#, 0 | 
	note F#, 1
	;note A#, 0 | 
	;note F#, 0 | 
	;note C#, 0 | 
	octave 2
	note A#, 1
	;note A#, 0 | 
	octave 3
	;note C#, 0 | 
	;note F#, 0 | 
	note A#, 2
	octave 2
	;note A#, 0 | 
	octave 3
	;note C#, 0 | 
	;note F#, 0 | 
	note A#, 3
	;note F#, 0 | 
	volume_envelope 3, 7
	;note C#, 0 | 
	octave 2
	note A#, 1
	note F#, 1
	octave 3
	volume_envelope 1, 7
	;note F#, 0 | 
	;note C#, 0 | 
	octave 2
	;note A#, 0 | 
	note F#, 1
	octave 3
	;note F#, 0 | 
	;note C#, 0 | 
	octave 2
	;note A#, 0 | 
	note F#, 1
	;note A#, 0 | 
	;note F#, 0 | 
	octave 3
	;note C#, 0 | 
	note F#, 2
	;note F#, 0 | 
	;note C#, 0 | 
	octave 2
	;note A#, 0 | 
	note F#, 2
;Bar 97
	;note B_, 0 | 
	octave 3
	;note D_, 0 | 
	;note F#, 0 | 
	note B_, 1
	octave 2
	;note B_, 0 | 
	octave 3
	;note D_, 0 | 
	;note F#, 0 | 
	note B_, 1
	octave 2
	;note B_, 0 | 
	octave 3
	;note D_, 0 | 
	;note F#, 0 | 
	note B_, 1
	;note B_, 0 | 
	;note F#, 0 | 
	;note D_, 0 | 
	octave 2
	note B_, 2
	octave 3
	;note B_, 0 | 
	octave 2
	;note B_, 0 | 
	octave 3
	;note D_, 0 | 
	note F#, 2
	octave 2
	;note B_, 0 | 
	octave 3
	;note D_, 0 | 
	;note F#, 0 | 
	note B_, 1
	octave 2
	;note B_, 0 | 
	octave 3
	;note D_, 0 | 
	;note F#, 0 | 
	note B_, 2
	octave 2
	;note B_, 0 | 
	octave 3
	;note D_, 0 | 
	;note F#, 0 | 
	note B_, 1
	octave 2
	;note B_, 0 | 
	octave 3
	;note D_, 0 | 
	;note F#, 0 | 
	note B_, 1
	octave 2
	;note B_, 0 | 
	octave 3
	;note D_, 0 | 
	;note F#, 0 | 
	note B_, 2
	octave 2
	;note B_, 0 | 
	octave 3
	;note D_, 0 | 
	;note F#, 0 | 
	note B_, 1
	octave 2
	;note B_, 0 | 
	octave 3
	;note D_, 0 | 
	;note F#, 0 | 
	note B_, 1
;Bar 98
	octave 4
	;note C#, 0 | 
	octave 3
	;note F#, 0 | 
	;note E_, 0 | 
	octave 2
	note A#, 1
	octave 3
	;note E_, 0 | 
	;note F#, 0 | 
	octave 4
	;note C#, 0 | 
	octave 2
	note A#, 1
	octave 4
	;note C#, 0 | 
	octave 3
	;note F#, 0 | 
	;note E_, 0 | 
	octave 2
	note A#, 1
	;note A#, 0 | 
	octave 3
	;note E_, 0 | 
	;note F#, 0 | 
	octave 4
	note C#, 3
	octave 2
	;note A#, 0 | 
	octave 3
	;note E_, 0 | 
	;note F#, 0 | 
	octave 4
	note C#, 1
	;note C#, 0 | 
	octave 3
	;note F#, 0 | 
	;note E_, 0 | 
	octave 2
	note A#, 1
	;note A#, 0 | 
	octave 3
	;note E_, 0 | 
	;note F#, 0 | 
	octave 4
	note C#, 3
	octave 2
	;note A#, 0 | 
	octave 3
	;note E_, 0 | 
	;note F#, 0 | 
	octave 4
	note C#, 3
	;note C#, 0 | 
	octave 3
	volume_envelope 3, 7
	;note F#, 0 | 
	note E_, 1
	octave 2
	note A#, 1
;Bar 99
	octave 3
	volume_envelope 1, 7
	;note B_, 0 | 
	;note E_, 0 | 
	;note C#, 0 | 
	octave 2
	note A_, 1
	;note A_, 0 | 
	octave 3
	;note C#, 0 | 
	;note E_, 0 | 
	note B_, 1
	;note B_, 0 | 
	;note E_, 0 | 
	;note C#, 0 | 
	octave 2
	note A_, 1
	;note A_, 0 | 
	octave 3
	;note C#, 0 | 
	;note E_, 0 | 
	note B_, 2
	octave 2
	;note A_, 0 | 
	octave 3
	;note C#, 0 | 
	;note E_, 0 | 
	note B_, 2
	octave 2
	;note A_, 0 | 
	octave 3
	;note C#, 0 | 
	;note E_, 0 | 
	note B_, 1
	octave 2
	;note A_, 0 | 
	octave 3
	;note C#, 0 | 
	;note E_, 0 | 
	note B_, 2
	octave 2
	;note A_, 0 | 
	octave 3
	;note C#, 0 | 
	;note E_, 0 | 
	note B_, 1
	octave 2
	;note A_, 0 | 
	octave 3
	;note C#, 0 | 
	;note E_, 0 | 
	note B_, 1
	octave 2
	;note A_, 0 | 
	octave 3
	;note C#, 0 | 
	;note E_, 0 | 
	note B_, 2
	octave 2
	;note A_, 0 | 
	octave 3
	;note C#, 0 | 
	;note E_, 0 | 
	note B_, 2
;Bar 100
	octave 2
	;note G#, 0 | 
	octave 3
	;note D_, 0 | 
	;note F#, 0 | 
	note B_, 1
	;note B_, 0 | 
	;note F#, 0 | 
	;note D_, 0 | 
	octave 2
	note G#, 1
	;note G#, 0 | 
	octave 3
	;note D_, 0 | 
	;note F#, 0 | 
	note B_, 1
	octave 2
	;note G#, 0 | 
	octave 3
	;note D_, 0 | 
	;note F#, 0 | 
	note B_, 2
	octave 2
	;note G#, 0 | 
	octave 3
	;note B_, 0 | 
	;note F#, 0 | 
	note D_, 2
	octave 2
	;note G#, 0 | 
	octave 3
	;note D_, 0 | 
	;note F#, 0 | 
	note B_, 1
	octave 2
	;note G#, 0 | 
	octave 3
	;note D_, 0 | 
	;note F#, 0 | 
	note B_, 3
	octave 2
	;note G#, 0 | 
	octave 3
	;note D_, 0 | 
	;note F#, 0 | 
	note B_, 1
	octave 2
	;note G#, 0 | 
	octave 3
	;note D_, 0 | 
	;note F#, 0 | 
	note B_, 2
	octave 2
	;note G#, 0 | 
	octave 3
	;note D_, 0 | 
	;note F#, 0 | 
	note B_, 1
	octave 2
	;note G#, 0 | 
	octave 3
	;note D_, 0 | 
	;note F#, 0 | 
	note B_, 1
;Bar 101
	octave 2
	;note G_, 0 | 
	;note B_, 0 | 
	octave 3
	;note D_, 0 | 
	note G_, 1
	octave 2
	;note G_, 0 | 
	;note B_, 0 | 
	octave 3
	;note D_, 0 | 
	note G_, 1
	octave 2
	;note G_, 0 | 
	;note B_, 0 | 
	octave 3
	;note D_, 0 | 
	note G_, 1
	octave 2
	;note G_, 0 | 
	;note B_, 0 | 
	octave 3
	;note D_, 0 | 
	note G_, 2
	octave 2
	;note G_, 0 | 
	;note B_, 0 | 
	octave 3
	;note D_, 0 | 
	note G_, 2
	octave 2
	;note G_, 0 | 
	;note B_, 0 | 
	octave 3
	;note D_, 0 | 
	note G_, 1
	octave 2
	;note G_, 0 | 
	;note B_, 0 | 
	octave 3
	;note D_, 0 | 
	note G_, 2
	octave 2
	;note G_, 0 | 
	;note B_, 0 | 
	octave 3
	;note D_, 0 | 
	note G_, 1
	octave 2
	;note G_, 0 | 
	;note B_, 0 | 
	octave 3
	;note D_, 0 | 
	note G_, 1
	octave 2
	;note G_, 0 | 
	;note B_, 0 | 
	octave 3
	;note D_, 0 | 
	note G_, 2
	;note G_, 0 | 
	;note D_, 0 | 
	octave 2
	;note B_, 0 | 
	note G_, 1
	octave 3
	;note G_, 0 | 
	;note D_, 0 | 
	octave 2
	;note B_, 0 | 
	note G_, 1
;Bar 102
	;note D_, 0 | 
	;note A_, 0 | 
	octave 3
	;note D_, 0 | 
	note F#, 1
	octave 2
	;note D_, 0 | 
	;note A_, 0 | 
	octave 3
	;note D_, 0 | 
	note F#, 1
	octave 2
	;note D_, 0 | 
	;note A_, 0 | 
	octave 3
	;note D_, 0 | 
	note F#, 1
	octave 2
	;note D_, 0 | 
	;note A_, 0 | 
	octave 3
	;note D_, 0 | 
	note F#, 2
	octave 2
	;note D_, 0 | 
	;note A_, 0 | 
	octave 3
	;note D_, 0 | 
	note F#, 2
	octave 2
	;note D_, 0 | 
	;note A_, 0 | 
	octave 3
	;note D_, 0 | 
	note F#, 1
	octave 2
	;note D_, 0 | 
	;note A_, 0 | 
	octave 3
	;note D_, 0 | 
	note F#, 2
	octave 2
	;note D_, 0 | 
	;note A_, 0 | 
	octave 3
	;note D_, 0 | 
	note F#, 1
	octave 2
	;note D_, 0 | 
	;note A_, 0 | 
	octave 3
	;note D_, 0 | 
	note F#, 1
	octave 2
	;note D_, 0 | 
	;note A_, 0 | 
	octave 3
	;note D_, 0 | 
	note F#, 2
	;note F#, 0 | 
	;note D_, 0 | 
	octave 2
	;note A_, 0 | 
	note D_, 1
	octave 3
	;note F#, 0 | 
	;note D_, 0 | 
	octave 2
	;note A_, 0 | 
	note D_, 1
;Bar 103
	;note E_, 0 | 
	;note B_, 0 | 
	octave 3
	;note E_, 0 | 
	note G_, 1
	octave 2
	;note E_, 0 | 
	;note B_, 0 | 
	octave 3
	;note E_, 0 | 
	note G_, 1
	octave 2
	;note E_, 0 | 
	;note B_, 0 | 
	octave 3
	;note E_, 0 | 
	note G_, 1
	octave 2
	;note E_, 0 | 
	;note B_, 0 | 
	octave 3
	;note E_, 0 | 
	note G_, 2
	;note G_, 0 | 
	;note E_, 0 | 
	octave 2
	;note B_, 0 | 
	note E_, 2
	octave 3
	;note G_, 0 | 
	;note E_, 0 | 
	octave 2
	;note B_, 0 | 
	note E_, 1
	;note E_, 0 | 
	;note B_, 0 | 
	octave 3
	;note G_, 0 | 
	note E_, 1
	;note G_, 0 | 
	;note E_, 0 | 
	octave 2
	;note B_, 0 | 
	note E_, 1
	;note E_, 0 | 
	;note B_, 0 | 
	octave 3
	;note E_, 0 | 
	note G_, 2
	;note G_, 0 | 
	;note E_, 0 | 
	octave 2
	;note B_, 0 | 
	note E_, 2
	octave 3
	;note G_, 0 | 
	;note E_, 0 | 
	octave 2
	;note B_, 0 | 
	note E_, 1
	octave 3
	;note G_, 0 | 
	;note E_, 0 | 
	octave 2
	;note B_, 0 | 
	note E_, 1
;Bar 104
	;note A#, 0 | 
	octave 3
	;note C#, 0 | 
	;note F#, 0 | 
	note A#, 1
	;note A#, 0 | 
	octave 2
	;note A#, 0 | 
	octave 3
	;note C#, 0 | 
	note F#, 1
	;note A#, 0 | 
	;note F#, 0 | 
	;note C#, 0 | 
	octave 2
	note A#, 1
	;note A#, 0 | 
	octave 3
	;note C#, 0 | 
	;note F#, 0 | 
	note A#, 2
	;note A#, 0 | 
	;note F#, 0 | 
	;note C#, 0 | 
	octave 2
	note A#, 2
	;note A#, 0 | 
	octave 3
	;note C#, 0 | 
	;note F#, 0 | 
	note A#, 1
	octave 2
	;note A#, 0 | 
	octave 3
	;note C#, 0 | 
	;note F#, 0 | 
	note A#, 2
	;note A#, 0 | 
	;note F#, 0 | 
	;note C#, 0 | 
	octave 2
	note A#, 1
	octave 3
	;note A#, 0 | 
	;note F#, 0 | 
	;note C#, 0 | 
	octave 2
	note A#, 1
	;note A#, 0 | 
	octave 3
	;note C#, 0 | 
	;note F#, 0 | 
	note A#, 2
	;note F#, 0 | 
	;note C#, 0 | 
	octave 2
	;note A#, 0 | 
	octave 3
	note A#, 1
	;note F#, 0 | 
	;note C#, 0 | 
	octave 2
	;note A#, 0 | 
	octave 3
	note A#, 1
;Bar 105
	octave 2
	;note B_, 0 | 
	octave 3
	;note D_, 0 | 
	;note F#, 0 | 
	note B_, 1
	octave 2
	;note B_, 0 | 
	octave 3
	;note D_, 0 | 
	;note F#, 0 | 
	note B_, 1
	octave 2
	;note B_, 0 | 
	octave 3
	;note D_, 0 | 
	;note F#, 0 | 
	note B_, 1
	;note B_, 0 | 
	;note F#, 0 | 
	;note D_, 0 | 
	octave 2
	note B_, 2
	octave 3
	;note B_, 0 | 
	octave 2
	;note B_, 0 | 
	octave 3
	;note D_, 0 | 
	note F#, 2
	octave 2
	;note B_, 0 | 
	octave 3
	;note D_, 0 | 
	;note F#, 0 | 
	note B_, 1
	octave 2
	;note B_, 0 | 
	octave 3
	;note D_, 0 | 
	;note F#, 0 | 
	note B_, 2
	octave 2
	;note B_, 0 | 
	octave 3
	;note D_, 0 | 
	;note F#, 0 | 
	note B_, 1
	octave 2
	;note B_, 0 | 
	octave 3
	;note D_, 0 | 
	;note F#, 0 | 
	note B_, 1
	octave 2
	;note B_, 0 | 
	octave 3
	;note D_, 0 | 
	;note F#, 0 | 
	note B_, 2
	octave 2
	;note B_, 0 | 
	octave 3
	;note D_, 0 | 
	;note F#, 0 | 
	note B_, 1
	octave 2
	;note B_, 0 | 
	octave 3
	;note D_, 0 | 
	;note F#, 0 | 
	note B_, 1
;Bar 106
	octave 4
	;note C#, 0 | 
	octave 3
	;note F#, 0 | 
	;note E_, 0 | 
	octave 2
	note A#, 1
	octave 3
	;note E_, 0 | 
	;note F#, 0 | 
	octave 4
	;note C#, 0 | 
	octave 2
	note A#, 1
	octave 4
	;note C#, 0 | 
	octave 3
	;note F#, 0 | 
	;note E_, 0 | 
	octave 2
	note A#, 1
	;note A#, 0 | 
	octave 3
	;note E_, 0 | 
	;note F#, 0 | 
	octave 4
	note C#, 3
	octave 2
	;note A#, 0 | 
	octave 3
	;note E_, 0 | 
	;note F#, 0 | 
	octave 4
	note C#, 1
	octave 2
	;note A#, 0 | 
	octave 3
	;note E_, 0 | 
	;note F#, 0 | 
	octave 4
	note C#, 2
	;note C#, 0 | 
	octave 3
	;note F#, 0 | 
	;note E_, 0 | 
	octave 2
	note A#, 1
	octave 4
	;note C#, 0 | 
	octave 3
	;note F#, 0 | 
	;note E_, 0 | 
	octave 2
	note A#, 2
	;note A#, 0 | 
	octave 3
	;note E_, 0 | 
	;note F#, 0 | 
	octave 4
	note C#, 2
	octave 3
	;note E_, 0 | 
	;note F#, 0 | 
	octave 2
	;note A#, 0 | 
	octave 4
	note C#, 2
;Bar 107
	octave 3
	;note B_, 0 | 
	;note E_, 0 | 
	;note C#, 0 | 
	octave 2
	note A_, 1
	;note A_, 0 | 
	octave 3
	;note C#, 0 | 
	;note E_, 0 | 
	note B_, 1
	;note B_, 0 | 
	;note E_, 0 | 
	;note C#, 0 | 
	octave 2
	note A_, 1
	;note A_, 0 | 
	octave 3
	;note C#, 0 | 
	;note E_, 0 | 
	note B_, 2
	octave 2
	;note A_, 0 | 
	octave 3
	;note C#, 0 | 
	;note E_, 0 | 
	note B_, 2
	octave 2
	;note A_, 0 | 
	octave 3
	;note C#, 0 | 
	;note E_, 0 | 
	note B_, 1
	octave 2
	;note A_, 0 | 
	octave 3
	;note C#, 0 | 
	;note E_, 0 | 
	note B_, 2
	octave 2
	;note A_, 0 | 
	octave 3
	;note C#, 0 | 
	;note E_, 0 | 
	note B_, 1
	octave 2
	;note A_, 0 | 
	octave 3
	;note C#, 0 | 
	;note E_, 0 | 
	note B_, 1
	octave 2
	;note A_, 0 | 
	octave 3
	;note C#, 0 | 
	;note E_, 0 | 
	note B_, 2
	octave 2
	;note A_, 0 | 
	octave 3
	;note C#, 0 | 
	;note E_, 0 | 
	note B_, 2
;Bar 108
	;note B_, 0 | 
	;note F#, 0 | 
	;note D_, 0 | 
	octave 2
	note G#, 1
	octave 3
	;note D_, 0 | 
	;note F#, 0 | 
	;note B_, 0 | 
	octave 2
	note G#, 1
	octave 3
	;note D_, 0 | 
	;note F#, 0 | 
	;note B_, 0 | 
	octave 2
	note G#, 1
	octave 3
	;note D_, 0 | 
	;note F#, 0 | 
	;note B_, 0 | 
	octave 2
	note G#, 1
	;note G#, 0 | 
	octave 3
	;note D_, 0 | 
	;note F#, 0 | 
	note B_, 2
	;note B_, 0 | 
	;note F#, 0 | 
	;note D_, 0 | 
	octave 2
	note G#, 1
	octave 3
	;note B_, 0 | 
	;note F#, 0 | 
	;note D_, 0 | 
	octave 2
	note G#, 2
	octave 3
	;note D_, 0 | 
	;note F#, 0 | 
	;note B_, 0 | 
	octave 2
	note G#, 1
	;note G#, 0 | 
	octave 3
	;note D_, 0 | 
	;note F#, 0 | 
	note B_, 2
	;note B_, 0 | 
	;note F#, 0 | 
	;note D_, 0 | 
	octave 2
	note G#, 2
	octave 3
	;note D_, 0 | 
	;note F#, 0 | 
	;note B_, 0 | 
	octave 2
	note G#, 2
;Bar 109
	;note G_, 0 | 
	;note B_, 0 | 
	octave 3
	;note D_, 0 | 
	note G_, 1
	octave 2
	;note G_, 0 | 
	;note B_, 0 | 
	octave 3
	;note D_, 0 | 
	note G_, 1
	;note G_, 0 | 
	;note D_, 0 | 
	octave 2
	;note G_, 0 | 
	note B_, 1
	;note G_, 0 | 
	;note B_, 0 | 
	octave 3
	;note D_, 0 | 
	note G_, 1
	;note G_, 0 | 
	;note D_, 0 | 
	octave 2
	;note B_, 0 | 
	note G_, 2
	;note G_, 0 | 
	;note B_, 0 | 
	octave 3
	;note D_, 0 | 
	note G_, 1
	octave 2
	;note G_, 0 | 
	;note B_, 0 | 
	octave 3
	;note D_, 0 | 
	note G_, 2
	octave 2
	;note G_, 0 | 
	;note B_, 0 | 
	octave 3
	;note D_, 0 | 
	note G_, 1
	octave 2
	;note B_, 0 | 
	octave 3
	;note G_, 0 | 
	;note D_, 0 | 
	octave 2
	note G_, 2
	;note G_, 0 | 
	;note B_, 0 | 
	octave 3
	;note D_, 0 | 
	note G_, 2
	;note G_, 0 | 
	;note D_, 0 | 
	octave 2
	;note B_, 0 | 
	note G_, 2
;Bar 110
	;note D_, 0 | 
	;note A_, 0 | 
	octave 3
	;note D_, 0 | 
	note F#, 1
	octave 2
	;note D_, 0 | 
	;note A_, 0 | 
	octave 3
	;note D_, 0 | 
	note F#, 1
	octave 2
	;note D_, 0 | 
	;note A_, 0 | 
	octave 3
	;note D_, 0 | 
	note F#, 1
	octave 2
	;note D_, 0 | 
	;note A_, 0 | 
	octave 3
	;note D_, 0 | 
	note F#, 1
	;note F#, 0 | 
	;note D_, 0 | 
	octave 2
	;note A_, 0 | 
	note D_, 2
	;note D_, 0 | 
	;note A_, 0 | 
	octave 3
	;note D_, 0 | 
	note F#, 1
	octave 2
	;note D_, 0 | 
	;note A_, 0 | 
	octave 3
	;note D_, 0 | 
	note F#, 2
	octave 2
	;note D_, 0 | 
	;note A_, 0 | 
	octave 3
	;note D_, 0 | 
	note F#, 1
	octave 2
	;note D_, 0 | 
	;note A_, 0 | 
	octave 3
	;note D_, 0 | 
	note F#, 2
	octave 2
	;note D_, 0 | 
	;note A_, 0 | 
	octave 3
	;note D_, 0 | 
	note F#, 2
	;note F#, 0 | 
	;note D_, 0 | 
	octave 2
	;note A_, 0 | 
	note D_, 2
;Bar 111
	;note E_, 0 | 
	;note B_, 0 | 
	octave 3
	;note E_, 0 | 
	note G_, 1
	octave 2
	;note E_, 0 | 
	;note B_, 0 | 
	octave 3
	;note E_, 0 | 
	note G_, 1
	octave 2
	;note E_, 0 | 
	;note B_, 0 | 
	octave 3
	;note E_, 0 | 
	note G_, 1
	octave 2
	;note E_, 0 | 
	;note B_, 0 | 
	octave 3
	;note E_, 0 | 
	note G_, 1
	octave 2
	;note E_, 0 | 
	;note B_, 0 | 
	octave 3
	;note E_, 0 | 
	note G_, 2
	octave 2
	;note E_, 0 | 
	;note B_, 0 | 
	octave 3
	;note E_, 0 | 
	note G_, 1
	octave 2
	;note E_, 0 | 
	;note B_, 0 | 
	octave 3
	;note E_, 0 | 
	note G_, 2
	octave 2
	;note E_, 0 | 
	;note B_, 0 | 
	octave 3
	;note E_, 0 | 
	note G_, 1
	octave 2
	;note E_, 0 | 
	;note B_, 0 | 
	octave 3
	;note E_, 0 | 
	note G_, 2
	;note G_, 0 | 
	;note E_, 0 | 
	octave 2
	;note B_, 0 | 
	note E_, 2
	;note E_, 0 | 
	;note B_, 0 | 
	octave 3
	;note E_, 0 | 
	note G_, 2
;Bar 112
	octave 2
	;note A#, 0 | 
	octave 3
	;note C#, 0 | 
	;note F#, 0 | 
	note A#, 1
	;note A#, 0 | 
	octave 2
	;note A#, 0 | 
	octave 3
	;note C#, 0 | 
	note F#, 1
	;note A#, 0 | 
	;note F#, 0 | 
	;note C#, 0 | 
	octave 2
	note A#, 1
	;note A#, 0 | 
	octave 3
	;note C#, 0 | 
	;note F#, 0 | 
	note A#, 2
	;note A#, 0 | 
	;note F#, 0 | 
	;note C#, 0 | 
	octave 2
	note A#, 1
	;note A#, 0 | 
	octave 3
	;note C#, 0 | 
	;note F#, 0 | 
	note A#, 2
	octave 2
	;note A#, 0 | 
	octave 3
	;note C#, 0 | 
	;note F#, 0 | 
	note A#, 1
	octave 2
	;note A#, 0 | 
	octave 3
	;note C#, 0 | 
	;note F#, 0 | 
	note A#, 2
	;note A#, 0 | 
	;note F#, 0 | 
	;note C#, 0 | 
	octave 2
	note A#, 1
	;note A#, 0 | 
	octave 3
	;note C#, 0 | 
	;note F#, 0 | 
	note A#, 2
	;note A#, 0 | 
	octave 2
	;note A#, 0 | 
	octave 3
	;note C#, 0 | 
	note F#, 2
;Bar 113
	octave 2
	;note B_, 0 | 
	octave 3
	;note D_, 0 | 
	;note F#, 0 | 
	note B_, 1
	octave 2
	;note B_, 0 | 
	octave 3
	;note D_, 0 | 
	;note F#, 0 | 
	note B_, 1
	octave 2
	;note B_, 0 | 
	octave 3
	;note D_, 0 | 
	;note F#, 0 | 
	note B_, 1
	;note B_, 0 | 
	;note F#, 0 | 
	;note D_, 0 | 
	octave 2
	note B_, 2
	octave 3
	;note B_, 0 | 
	octave 2
	;note B_, 0 | 
	octave 3
	;note D_, 0 | 
	note F#, 2
	octave 2
	;note B_, 0 | 
	octave 3
	;note D_, 0 | 
	;note F#, 0 | 
	note B_, 1
	octave 2
	;note B_, 0 | 
	octave 3
	;note D_, 0 | 
	;note F#, 0 | 
	note B_, 2
	octave 2
	;note B_, 0 | 
	octave 3
	;note D_, 0 | 
	;note F#, 0 | 
	note B_, 1
	octave 2
	;note B_, 0 | 
	octave 3
	;note D_, 0 | 
	;note F#, 0 | 
	note B_, 1
	octave 2
	volume_envelope 10, 7
	;note B_, 0 | 
	octave 3
	;note D_, 0 | 
	;note F#, 0 | 
	note B_, 2
	octave 2
	;note B_, 0 | 
	octave 3
	;note D_, 0 | 
	;note F#, 0 | 
	note B_, 1
	octave 2
	;note B_, 0 | 
	octave 3
	;note D_, 0 | 
	;note F#, 0 | 
	note B_, 1
;Bar 114
	octave 4
	;note C#, 0 | 
	octave 3
	;note F#, 0 | 
	;note E_, 0 | 
	octave 2
	note A#, 1
	octave 3
	;note E_, 0 | 
	;note F#, 0 | 
	octave 4
	;note C#, 0 | 
	octave 2
	note A#, 1
	octave 4
	;note C#, 0 | 
	octave 3
	;note F#, 0 | 
	;note E_, 0 | 
	octave 2
	note A#, 1
	;note A#, 0 | 
	octave 3
	;note E_, 0 | 
	;note F#, 0 | 
	octave 4
	note C#, 3
	octave 2
	;note A#, 0 | 
	octave 3
	;note E_, 0 | 
	;note F#, 0 | 
	octave 4
	note C#, 1
	octave 2
	;note A#, 0 | 
	octave 3
	;note E_, 0 | 
	;note F#, 0 | 
	octave 4
	note C#, 2
	sound_ret

; ============================================================================================================

Music_Academy_Ch3:
	note_type 12, 1, 0
;Bar 1
	volume_envelope 2, 0
	rest 16
;Bar 2
	octave 4
	note F#, 16
;Bar 3
	octave 3
	note A_, 16
;Bar 4
	octave 4
	note E_, 16
;Bar 5
	octave 3
	note G_, 16
;Bar 6
	note D_, 16
;Bar 7
	note E_, 16
;Bar 8
	note F#, 16
;Bar 9
	note B_, 16
;Bar 10
	octave 4
	note F#, 16
;Bar 11
	octave 3
	note A_, 16
;Bar 12
	octave 4
	note E_, 16
;Bar 13
	octave 3
	note G_, 16
;Bar 14
	octave 4
	note D_, 16
;Bar 15
	octave 3
	note E_, 16
;Bar 16
	note F#, 16
;Bar 17
	note B_, 1
	note B_, 1
	octave 4
	note F#, 1
	note B_, 1
	rest 3
	note F#, 2
	note B_, 1
	note F#, 4
	note F#, 1
	octave 3
	note A#, 1
;Bar 18
	octave 4
	note F#, 1
	note F#, 1
	octave 5
	note C#, 1
	note F#, 1
	rest 3
	note C#, 1
	note F#, 1
	note C#, 1
	octave 4
	note F#, 4
	rest 2
;Bar 19
	octave 3
	note A_, 1
	note A_, 1
	octave 4
	note E_, 1
	note A_, 1
	rest 3
	note E_, 1
	note A_, 1
	note A_, 1
	note E_, 4
	rest 1
	octave 3
	note A_, 1
;Bar 20
	octave 4
	note E_, 1
	note E_, 1
	note B_, 1
	octave 5
	note E_, 1
	rest 3
	octave 4
	note B_, 1
	octave 5
	note E_, 1
	octave 4
	note B_, 1
	note E_, 4
	rest 2
;Bar 21
	octave 3
	note G_, 1
	note G_, 1
	octave 4
	note D_, 1
	note G_, 1
	rest 3
	note D_, 1
	note G_, 1
	note G_, 1
	note D_, 5
	octave 3
	note A_, 1
;Bar 22
	octave 4
	note D_, 1
	note D_, 1
	note A_, 1
	octave 5
	note D_, 1
	note F#, 3
	octave 4
	note A_, 1
	octave 5
	note D_, 1
	octave 4
	note A_, 1
	note D_, 6
;Bar 23
	octave 3
	note E_, 1
	note E_, 1
	note B_, 1
	octave 4
	note E_, 1
	rest 3
	octave 3
	note B_, 1
	octave 4
	note E_, 1
	note E_, 1
	octave 3
	note B_, 5
	note E_, 1
;Bar 24
	note F#, 1
	note F#, 1
	octave 4
	note C#, 1
	note F#, 1
	rest 3
	note C#, 1
	note F#, 1
	rest 2
	note C#, 1
	note F#, 1
	rest 3
;Bar 25
	octave 3
	note B_, 1
	note B_, 1
	octave 4
	note F#, 1
	note B_, 1
	rest 3
	note F#, 1
	note B_, 1
	note B_, 1
	note F#, 4
	rest 1
	octave 3
	note A#, 1
;Bar 26
	octave 4
	note F#, 1
	note F#, 1
	octave 5
	note C#, 1
	note F#, 4
	note C#, 1
	note F#, 1
	note C#, 1
	octave 4
	note F#, 2
	rest 4
;Bar 27
	octave 3
	note A_, 1
	note A_, 1
	octave 4
	note E_, 1
	note A_, 1
	rest 3
	note E_, 1
	note A_, 1
	note A_, 1
	note E_, 5
	octave 3
	note A_, 1
;Bar 28
	octave 4
	note E_, 1
	note E_, 1
	note B_, 1
	octave 5
	note E_, 1
	rest 3
	octave 4
	note B_, 1
	octave 5
	note E_, 1
	octave 4
	note B_, 1
	note E_, 4
	rest 2
;Bar 29
	octave 3
	note G_, 1
	note G_, 1
	octave 4
	note D_, 1
	note G_, 1
	rest 3
	note D_, 1
	note G_, 1
	note G_, 1
	note D_, 5
	octave 3
	note A_, 1
;Bar 30
	octave 4
	note D_, 1
	note D_, 1
	note A_, 1
	octave 5
	note D_, 1
	note F#, 3
	octave 4
	note A_, 1
	octave 5
	note D_, 1
	octave 4
	note A_, 1
	note D_, 4
	rest 2
;Bar 31
	octave 3
	note E_, 1
	note E_, 1
	note B_, 1
	octave 4
	note E_, 1
	rest 3
	octave 3
	note B_, 1
	octave 4
	note E_, 1
	note E_, 1
	octave 3
	note B_, 5
	note E_, 1
;Bar 32
	note F#, 1
	note F#, 1
	octave 4
	note C#, 1
	note F#, 1
	rest 3
	note C#, 1
	note F#, 2
	rest 2
	octave 3
	note B_, 1
	octave 4
	note C#, 1
	note D_, 1
	note E_, 1
;Bar 33
	note G_, 1
	note D_, 1
	octave 3
	note G_, 1
	rest 4
	octave 4
	note D_, 1
	note G_, 1
	rest 2
	note D_, 1
	note G_, 1
	rest 1
	note B_, 2
;Bar 34
	octave 5
	note D_, 1
	octave 4
	note A_, 1
	note D_, 1
	rest 4
	note A_, 1
	octave 5
	note D_, 1
	rest 2
	octave 4
	note A_, 1
	octave 5
	note D_, 1
	rest 1
	octave 4
	note A_, 2
;Bar 35
	note F#, 1
	note C#, 1
	octave 3
	note F#, 1
	rest 4
	octave 4
	note C#, 1
	note F#, 3
	note C#, 1
	note F#, 2
	note C#, 2
;Bar 36
	octave 3
	note B_, 4
	octave 4
	note C#, 4
	note D_, 4
	note E_, 2
	note F#, 2
;Bar 37
	note G_, 1
	note D_, 1
	octave 3
	note G_, 1
	rest 4
	octave 4
	note D_, 1
	note G_, 1
	rest 2
	note D_, 1
	note G_, 1
	rest 1
	note B_, 2
;Bar 38
	octave 5
	note D_, 1
	octave 4
	note A_, 1
	note D_, 1
	rest 4
	note A_, 1
	octave 5
	note D_, 1
	rest 2
	octave 4
	note A_, 1
	octave 5
	note D_, 2
	octave 4
	note A_, 2
;Bar 39
	note E_, 1
	octave 3
	note B_, 1
	note E_, 1
	rest 4
	note B_, 1
	octave 4
	note E_, 1
	rest 2
	octave 3
	note B_, 1
	octave 4
	note E_, 2
	octave 3
	note B_, 1
	rest 1
;Bar 40
	note F#, 1
	octave 4
	note C#, 1
	note F#, 2
	rest 3
	note C#, 1
	note F#, 1
	rest 2
	note C#, 1
	octave 3
	note F#, 1
	rest 3
;Bar 41
	note B_, 1
	note B_, 1
	octave 4
	note F#, 1
	note B_, 1
	rest 3
	note F#, 2
	note B_, 1
	note F#, 4
	note F#, 1
	octave 3
	note A#, 1
;Bar 42
	octave 4
	note F#, 1
	note F#, 1
	octave 5
	note C#, 1
	note F#, 1
	rest 3
	note C#, 1
	note F#, 1
	note C#, 1
	octave 4
	note F#, 4
	rest 2
;Bar 43
	octave 3
	note A_, 1
	note A_, 1
	octave 4
	note E_, 1
	note A_, 1
	rest 3
	note E_, 1
	note A_, 1
	note A_, 1
	note E_, 4
	octave 3
	note A_, 1
	rest 1
;Bar 44
	octave 4
	note E_, 1
	note E_, 1
	note B_, 1
	octave 5
	note E_, 1
	rest 3
	octave 4
	note B_, 1
	octave 5
	note E_, 1
	octave 4
	note B_, 1
	note E_, 4
	rest 2
;Bar 45
	octave 3
	note G_, 1
	note G_, 1
	octave 4
	note D_, 1
	note G_, 1
	rest 3
	note D_, 1
	note G_, 1
	note G_, 1
	note D_, 5
	octave 3
	note A_, 1
;Bar 46
	octave 4
	note D_, 1
	note D_, 1
	note A_, 1
	octave 5
	note D_, 1
	note F#, 3
	octave 4
	note A_, 1
	octave 5
	note D_, 1
	octave 4
	note A_, 1
	note D_, 6
;Bar 47
	octave 3
	note E_, 1
	note E_, 1
	note B_, 1
	octave 4
	note E_, 1
	rest 3
	octave 3
	note B_, 1
	octave 4
	note E_, 1
	note E_, 1
	octave 3
	note B_, 5
	note E_, 1
;Bar 48
	note F#, 1
	note F#, 1
	octave 4
	note C#, 1
	note F#, 1
	rest 3
	note C#, 1
	note F#, 1
	rest 2
	note C#, 1
	note F#, 1
	rest 3
;Bar 49
	octave 3
	note B_, 1
	note B_, 1
	octave 4
	note F#, 1
	note B_, 1
	rest 3
	note F#, 1
	note B_, 1
	note B_, 1
	note F#, 4
	rest 1
	octave 3
	note A#, 1
;Bar 50
	octave 4
	note F#, 1
	note F#, 1
	octave 5
	note C#, 1
	note F#, 4
	note C#, 1
	note F#, 1
	note C#, 1
	octave 4
	note F#, 2
	rest 4
;Bar 51
	octave 3
	note A_, 1
	note A_, 1
	octave 4
	note E_, 1
	note A_, 1
	rest 3
	note E_, 1
	note A_, 1
	note A_, 1
	note E_, 5
	octave 3
	note A_, 1
;Bar 52
	octave 4
	note E_, 1
	note E_, 1
	note B_, 1
	octave 5
	note E_, 1
	rest 3
	octave 4
	note B_, 1
	octave 5
	note E_, 1
	octave 4
	note B_, 1
	note E_, 4
	rest 2
;Bar 53
	octave 3
	note G_, 1
	note G_, 1
	octave 4
	note D_, 1
	note G_, 1
	rest 3
	note D_, 1
	note G_, 1
	note G_, 1
	note D_, 5
	octave 3
	note A_, 1
;Bar 54
	octave 4
	note D_, 1
	note D_, 1
	note A_, 1
	octave 5
	note D_, 1
	note F#, 3
	octave 4
	note A_, 1
	octave 5
	note D_, 1
	octave 4
	note A_, 1
	note D_, 4
	rest 2
;Bar 55
	octave 3
	note E_, 1
	note E_, 1
	note B_, 1
	octave 4
	note E_, 1
	rest 3
	octave 3
	note B_, 1
	octave 4
	note E_, 1
	note E_, 1
	octave 3
	note B_, 5
	note E_, 1
;Bar 56
	note F#, 1
	note F#, 1
	octave 4
	note C#, 1
	note F#, 1
	rest 3
	note C#, 1
	note F#, 2
	rest 2
	octave 3
	note B_, 1
	octave 4
	note C#, 1
	note D_, 1
	note E_, 1
;Bar 57
	note G_, 1
	note D_, 1
	octave 3
	note G_, 1
	rest 4
	octave 4
	note D_, 1
	note G_, 1
	rest 2
	note D_, 1
	note G_, 1
	rest 1
	note B_, 2
;Bar 58
	octave 5
	note D_, 1
	octave 4
	note A_, 1
	note D_, 1
	rest 4
	note A_, 1
	octave 5
	note D_, 1
	rest 2
	octave 4
	note A_, 1
	octave 5
	note D_, 1
	rest 1
	octave 4
	note A_, 2
;Bar 59
	note F#, 1
	note C#, 1
	octave 3
	note F#, 1
	rest 4
	octave 4
	note C#, 1
	note F#, 1
	note E_, 3
	note D_, 1
	note C#, 3
;Bar 60
	octave 3
	note B_, 4
	octave 4
	note C#, 4
	note D_, 4
	note E_, 2
	note F#, 2
;Bar 61
	note G_, 1
	note D_, 1
	octave 3
	note G_, 1
	rest 4
	octave 4
	note D_, 1
	note G_, 1
	rest 2
	note D_, 1
	note G_, 1
	rest 1
	note B_, 2
;Bar 62
	octave 5
	note D_, 1
	octave 4
	note A_, 1
	note D_, 1
	rest 4
	note A_, 1
	octave 5
	note D_, 1
	rest 2
	octave 4
	note A_, 1
	octave 5
	note D_, 2
	octave 4
	note A_, 2
;Bar 63
	note E_, 1
	octave 3
	note B_, 1
	note E_, 1
	rest 4
	note B_, 1
	octave 4
	note E_, 1
	rest 2
	octave 3
	note B_, 1
	octave 4
	note E_, 2
	octave 3
	note B_, 1
	rest 1
;Bar 64
	octave 4
	note F#, 12
	rest 4
;Bar 65
	octave 3
	note B_, 16
;Bar 66
	octave 4
	note F#, 12
	octave 5
	note F#, 4
;Bar 67
	octave 3
	note A_, 8
	octave 5
	note A_, 4
	note E_, 4
;Bar 68
	octave 4
	note E_, 12
	rest 4
;Bar 69
	octave 3
	note G_, 16
;Bar 70
	octave 4
	note D_, 16
;Bar 71
	octave 3
	note E_, 16
;Bar 72
	note F#, 16
;Bar 73
	note B_, 1
	note B_, 1
	octave 4
	note F#, 1
	note B_, 1
	rest 3
	note F#, 2
	note B_, 1
	note F#, 4
	note F#, 1
	octave 3
	note A#, 1
;Bar 74
	octave 4
	note F#, 1
	note F#, 1
	octave 5
	note C#, 1
	note F#, 1
	rest 3
	note C#, 1
	note F#, 1
	note C#, 1
	octave 4
	note F#, 4
	rest 2
;Bar 75
	octave 3
	note A_, 1
	note A_, 1
	octave 4
	note E_, 1
	note A_, 1
	rest 3
	note E_, 1
	note A_, 1
	note A_, 1
	note E_, 4
	octave 3
	note A_, 1
	rest 1
;Bar 76
	octave 4
	note E_, 1
	note E_, 1
	note B_, 1
	octave 5
	note E_, 1
	rest 3
	octave 4
	note B_, 1
	octave 5
	note E_, 1
	octave 4
	note B_, 1
	note E_, 4
	rest 2
;Bar 77
	octave 3
	note G_, 1
	note G_, 1
	octave 4
	note D_, 1
	note G_, 1
	rest 3
	note D_, 1
	note G_, 1
	note G_, 1
	note D_, 5
	octave 3
	note A_, 1
;Bar 78
	octave 4
	note D_, 1
	note D_, 1
	note A_, 1
	octave 5
	note D_, 1
	note F#, 3
	octave 4
	note A_, 1
	octave 5
	note D_, 1
	octave 4
	note A_, 1
	note D_, 6
;Bar 79
	octave 3
	note E_, 1
	note E_, 1
	note B_, 1
	octave 4
	note E_, 1
	rest 3
	octave 3
	note B_, 1
	octave 4
	note E_, 1
	note E_, 1
	octave 3
	note B_, 5
	note E_, 1
;Bar 80
	note F#, 1
	note F#, 1
	octave 4
	note C#, 1
	note F#, 1
	rest 3
	note C#, 1
	note F#, 1
	note F_, 1
	note F#, 1
	rest 5
;Bar 81
	octave 3
	note B_, 1
	note B_, 1
	octave 4
	note F#, 1
	note B_, 1
	rest 3
	note F#, 1
	note B_, 1
	note B_, 1
	note F#, 5
	octave 3
	note A#, 1
;Bar 82
	octave 4
	note F#, 1
	note F#, 1
	octave 5
	note C#, 1
	note F#, 1
	rest 3
	note C#, 1
	note F#, 1
	note C#, 1
	octave 4
	note F#, 4
	note C#, 2
;Bar 83
	octave 3
	note A_, 1
	note A_, 1
	octave 4
	note E_, 1
	note A_, 1
	rest 3
	note E_, 1
	note A_, 1
	note A_, 1
	note E_, 5
	octave 3
	note A_, 1
;Bar 84
	octave 4
	note E_, 1
	note E_, 1
	note B_, 1
	octave 5
	note E_, 1
	rest 3
	octave 4
	note B_, 1
	octave 5
	note E_, 1
	octave 4
	note B_, 1
	note E_, 4
	octave 3
	note B_, 2
;Bar 85
	note G_, 1
	note G_, 1
	octave 4
	note D_, 1
	note G_, 1
	rest 3
	note D_, 1
	note G_, 1
	note G_, 1
	note D_, 5
	octave 3
	note A_, 1
;Bar 86
	octave 4
	note D_, 1
	note D_, 1
	note A_, 1
	octave 5
	note D_, 1
	note F#, 3
	octave 4
	note A_, 1
	octave 5
	note D_, 1
	octave 4
	note A_, 1
	note D_, 4
	octave 3
	note A_, 2
;Bar 87
	note E_, 1
	note E_, 1
	note B_, 1
	octave 4
	note E_, 1
	rest 3
	octave 3
	note B_, 1
	octave 4
	note E_, 1
	note E_, 1
	octave 3
	note B_, 5
	note E_, 1
;Bar 88
	note F#, 1
	note F#, 1
	octave 4
	note C#, 1
	note F#, 1
	rest 3
	note C#, 1
	note F#, 1
	rest 2
	note C#, 1
	note F#, 1
	rest 3
;Bar 89
	octave 3
	note B_, 1
	note B_, 1
	octave 4
	note F#, 1
	note B_, 1
	rest 3
	note F#, 1
	note B_, 1
	note B_, 1
	note F#, 5
	octave 3
	note A#, 1
;Bar 90
	octave 4
	note F#, 1
	note F#, 1
	octave 5
	note C#, 1
	note F#, 1
	rest 3
	note C#, 1
	note F#, 1
	note C#, 1
	octave 4
	note F#, 4
	note C#, 2
;Bar 91
	octave 3
	note A_, 1
	note A_, 1
	octave 4
	note E_, 1
	note A_, 1
	rest 3
	note E_, 1
	note A_, 1
	note A_, 1
	note E_, 5
	octave 3
	note A_, 1
;Bar 92
	octave 4
	note E_, 1
	note E_, 1
	note B_, 1
	octave 5
	note E_, 1
	rest 3
	octave 4
	note B_, 1
	octave 5
	note E_, 1
	octave 4
	note B_, 1
	note E_, 4
	octave 3
	note B_, 2
;Bar 93
	note G_, 1
	note G_, 1
	octave 4
	note D_, 1
	note G_, 1
	rest 3
	note D_, 1
	note G_, 1
	note G_, 1
	note D_, 5
	octave 3
	note A_, 1
;Bar 94
	octave 4
	note D_, 1
	note D_, 1
	note A_, 1
	octave 5
	note D_, 1
	note F#, 3
	octave 4
	note A_, 1
	octave 5
	note D_, 1
	octave 4
	note A_, 1
	note D_, 4
	octave 3
	note A_, 2
;Bar 95
	note E_, 1
	note E_, 1
	note B_, 1
	octave 4
	note E_, 1
	rest 3
	octave 3
	note B_, 1
	octave 4
	note E_, 1
	note E_, 1
	octave 3
	note B_, 5
	note E_, 1
;Bar 96
	note F#, 1
	note F#, 1
	octave 4
	note C#, 1
	note F#, 1
	rest 3
	note C#, 1
	note F#, 1
	rest 2
	note C#, 1
	note F#, 1
	rest 3
;Bar 97
	note B_, 1
	note B_, 1
	note B_, 5
	note F#, 1
	rest 1
	note F#, 1
	note B_, 5
	octave 3
	note A#, 1
;Bar 98
	octave 4
	note F#, 1
	note F#, 1
	octave 5
	note C#, 1
	note F#, 1
	rest 5
	note C#, 1
	note F#, 1
	note C#, 1
	note F#, 4
;Bar 99
	octave 3
	note A_, 1
	note A_, 1
	octave 4
	note E_, 1
	note A_, 1
	rest 5
	note E_, 1
	note A_, 1
	note E_, 1
	note A_, 2
	note D_, 2
;Bar 100
	note E_, 1
	note E_, 1
	note B_, 1
	octave 5
	note E_, 1
	rest 5
	octave 4
	note B_, 1
	octave 5
	note E_, 1
	octave 4
	note B_, 1
	octave 5
	note E_, 4
;Bar 101
	octave 3
	note G_, 1
	note G_, 1
	octave 4
	note D_, 1
	note G_, 1
	rest 3
	note D_, 1
	note G_, 1
	note G_, 1
	note D_, 5
	octave 3
	note A_, 1
;Bar 102
	octave 4
	note D_, 1
	note D_, 1
	note A_, 1
	octave 5
	note D_, 1
	rest 3
	octave 4
	note A_, 1
	octave 5
	note D_, 1
	octave 4
	note A_, 1
	note D_, 4
	octave 3
	note A_, 2
;Bar 103
	note E_, 1
	note E_, 1
	note B_, 1
	octave 4
	note E_, 1
	rest 3
	octave 3
	note B_, 1
	octave 4
	note E_, 1
	note E_, 1
	octave 3
	note B_, 5
	note E_, 1
;Bar 104
	note F#, 1
	note F#, 1
	octave 4
	note C#, 1
	note F#, 1
	rest 3
	note C#, 1
	note F#, 1
	rest 2
	note C#, 1
	note F#, 1
	rest 1
	octave 3
	note F#, 1
	rest 1
;Bar 105
	octave 4
	note B_, 1
	note B_, 1
	note B_, 1
	note B_, 1
	note B_, 1
	note B_, 1
	note B_, 1
	note B_, 1
	note B_, 1
	note B_, 1
	note B_, 1
	note B_, 1
	note B_, 2
	note B_, 2
;Bar 106
	note F#, 1
	note F#, 1
	note F#, 1
	note F#, 1
	note F#, 1
	note F#, 1
	note F#, 1
	note F#, 1
	note F#, 1
	note F#, 1
	note F#, 1
	note F#, 1
	note F#, 2
	note F#, 2
;Bar 107
	note A_, 1
	note A_, 1
	note A_, 1
	note A_, 1
	note A_, 1
	note A_, 1
	note A_, 1
	note A_, 1
	note A_, 1
	note A_, 1
	note A_, 1
	note A_, 1
	note A_, 2
	note A_, 2
;Bar 108
	note E_, 1
	note E_, 1
	note E_, 1
	note E_, 1
	note E_, 1
	note E_, 1
	note E_, 1
	note E_, 1
	note E_, 1
	note E_, 1
	note E_, 1
	note E_, 1
	note E_, 2
	note E_, 2
;Bar 109
	note G_, 1
	note G_, 1
	note G_, 1
	note G_, 1
	note G_, 1
	note G_, 1
	note G_, 1
	note G_, 1
	note G_, 1
	note G_, 1
	note G_, 1
	note G_, 1
	note G_, 2
	note G_, 2
;Bar 110
	note D_, 1
	note D_, 1
	note D_, 1
	note D_, 1
	note D_, 1
	note D_, 1
	note D_, 1
	note D_, 1
	note D_, 1
	note D_, 1
	note D_, 1
	note D_, 1
	note D_, 2
	note D_, 2
;Bar 111
	note E_, 1
	note E_, 1
	note E_, 1
	note E_, 1
	note E_, 1
	note E_, 1
	note E_, 1
	note E_, 1
	note E_, 1
	note E_, 1
	note E_, 1
	note E_, 1
	note E_, 2
	note E_, 2
;Bar 112
	note F#, 1
	note F#, 1
	note F#, 1
	note F#, 1
	note F#, 1
	note F#, 1
	note F#, 1
	note F#, 1
	note F#, 1
	note F#, 1
	note F#, 1
	note F#, 1
	note F#, 2
	note F#, 2
;Bar 113
	note B_, 1
	note B_, 1
	note B_, 5
	note F#, 1
	rest 1
	note F#, 1
	note B_, 5
	octave 3
	note A#, 1
;Bar 114
	octave 4
	note F#, 1
	note F#, 1
	octave 5
	note C#, 1
	note F#, 1
	rest 5
	note C#, 1
	note F#, 1
	note C#, 1
	note F#, 4
;Bar 115
	octave 3
	note A_, 1
	note A_, 1
	octave 4
	note E_, 1
	note A_, 1
	rest 5
	volume_envelope 3, 0
	note E_, 1
	note A_, 1
	note E_, 1
	note A_, 2
	note D_, 2
;Bar 116
	note E_, 1
	note E_, 1
	note B_, 1
	octave 5
	note E_, 1
	rest 5
	octave 4
	note B_, 1
	octave 5
	note E_, 1
	octave 4
	note B_, 1
	octave 5
	note E_, 4
;Bar 117
	octave 3
	note G_, 1
	note G_, 1
	octave 4
	note D_, 1
	note G_, 1
	rest 3
	volume_envelope 2, 0
	note D_, 1
	note G_, 1
	note G_, 1
	note D_, 16
	note D_, 16
	note D_, 9
	sound_ret

; ============================================================================================================

Music_Academy_Ch4:
	toggle_noise 0
	drum_speed 12
;Bar 1
	rest 16
	rest 16
	rest 16
	rest 8
;Bar 4
	;note F#, 0 | 
	drum_note 7, 1
	;note F#, 0 | 
	;note F#, 0 | 
	drum_note 7, 1
	drum_note 7, 1
	;note F#, 0 | 
	drum_note 7, 1
	drum_note 7, 1
	drum_note 7, 2
	;note F#, 0 | 
	rest 16
	rest 16
	rest 1
;Bar 7
	drum_note 12, 4
	drum_note 12, 4
	drum_note 12, 4
	drum_note 12, 4
;Bar 8
	drum_note 12, 4
	drum_note 12, 4
	drum_note 12, 4
	drum_note 12, 4
;Bar 9
	;note D#, 0 | 
	drum_note 12, 4
	drum_note 12, 4
	drum_note 12, 4
	drum_note 12, 4
;Bar 10
	;note D#, 0 | 
	drum_note 12, 4
	drum_note 12, 4
	drum_note 12, 4
	drum_note 12, 4
;Bar 11
	;note D#, 0 | 
	drum_note 12, 16
;Bar 12
	drum_note 12, 4
	drum_note 12, 3
	;note B_, 0 | 
	drum_note 12, 1
	;note B_, 0 | 
	drum_note 12, 3
	;note B_, 0 | 
	drum_note 12, 1
	;note B_, 0 | 
	drum_note 12, 3
	;note B_, 0 | 
	drum_note 12, 1
;Bar 13
	;note B_, 0 | 
	drum_note 12, 16
;Bar 14
	drum_note 12, 16
;Bar 15
	drum_note 12, 16
;Bar 16
	drum_note 12, 12
	;note E_, 0 | 
	drum_note 12, 2
	;note E_, 0 | 
	drum_note 12, 2
;Bar 17
	;note B_, 0 | 
	drum_note 9, 2
	drum_note 9, 1
	drum_note 9, 1
	;note D_, 0 | 
	drum_note 9, 2
	;note B_, 0 | 
	drum_note 9, 2
	;note G#, 0 | 
	drum_note 12, 2
	drum_note 9, 1
	drum_note 9, 1
	;note D_, 0 | 
	drum_note 9, 2
	;note G#, 0 | 
	drum_note 12, 2
;Bar 18
	;note B_, 0 | 
	drum_note 9, 2
	drum_note 9, 1
	drum_note 9, 1
	;note D_, 0 | 
	drum_note 9, 2
	;note B_, 0 | 
	drum_note 9, 2
	;note B_, 0 | 
	drum_note 9, 2
	drum_note 9, 1
	drum_note 9, 1
	;note D_, 0 | 
	drum_note 9, 2
	;note B_, 0 | 
	drum_note 9, 2
;Bar 19
	;note B_, 0 | 
	drum_note 9, 2
	drum_note 9, 1
	drum_note 9, 1
	;note D_, 0 | 
	drum_note 9, 2
	;note B_, 0 | 
	drum_note 9, 2
	;note B_, 0 | 
	drum_note 9, 2
	drum_note 9, 1
	drum_note 9, 1
	;note D_, 0 | 
	drum_note 9, 2
	;note B_, 0 | 
	drum_note 9, 2
;Bar 20
	;note B_, 0 | 
	drum_note 9, 2
	drum_note 9, 1
	drum_note 9, 1
	;note D_, 0 | 
	drum_note 9, 2
	;note B_, 0 | 
	drum_note 9, 2
	;note B_, 0 | 
	drum_note 9, 2
	drum_note 9, 1
	drum_note 9, 1
	;note D_, 0 | 
	drum_note 9, 2
	;note B_, 0 | 
	drum_note 9, 2
;Bar 21
	;note B_, 0 | 
	drum_note 9, 2
	drum_note 9, 1
	drum_note 9, 1
	;note D_, 0 | 
	drum_note 9, 2
	;note B_, 0 | 
	drum_note 9, 2
	;note B_, 0 | 
	drum_note 9, 2
	drum_note 9, 1
	drum_note 9, 1
	;note D_, 0 | 
	drum_note 9, 2
	;note B_, 0 | 
	drum_note 9, 2
;Bar 22
	;note B_, 0 | 
	drum_note 9, 2
	drum_note 9, 1
	drum_note 9, 1
	;note D_, 0 | 
	drum_note 9, 2
	;note B_, 0 | 
	drum_note 9, 2
	;note B_, 0 | 
	drum_note 9, 2
	drum_note 9, 1
	drum_note 9, 1
	;note D_, 0 | 
	drum_note 9, 2
	;note B_, 0 | 
	drum_note 9, 2
;Bar 23
	;note B_, 0 | 
	drum_note 9, 2
	drum_note 9, 1
	drum_note 9, 1
	;note D_, 0 | 
	drum_note 9, 2
	;note B_, 0 | 
	drum_note 9, 2
	;note B_, 0 | 
	drum_note 9, 2
	drum_note 9, 1
	drum_note 9, 1
	;note D_, 0 | 
	drum_note 9, 2
	;note B_, 0 | 
	drum_note 9, 2
;Bar 24
	;note B_, 0 | 
	drum_note 9, 2
	drum_note 9, 1
	drum_note 9, 1
	;note D_, 0 | 
	drum_note 9, 2
	;note B_, 0 | 
	drum_note 9, 2
	;note B_, 0 | 
	drum_note 9, 2
	drum_note 9, 1
	drum_note 9, 1
	;note D_, 0 | 
	drum_note 9, 2
	;note B_, 0 | 
	drum_note 9, 2
;Bar 25
	;note B_, 0 | 
	drum_note 9, 2
	drum_note 9, 1
	drum_note 9, 1
	;note D_, 0 | 
	drum_note 9, 2
	;note B_, 0 | 
	drum_note 9, 2
	;note B_, 0 | 
	drum_note 9, 2
	drum_note 9, 1
	drum_note 9, 1
	;note D_, 0 | 
	drum_note 9, 2
	;note B_, 0 | 
	drum_note 9, 2
;Bar 26
	;note B_, 0 | 
	drum_note 9, 2
	drum_note 9, 1
	drum_note 9, 1
	;note D_, 0 | 
	drum_note 9, 2
	;note B_, 0 | 
	drum_note 9, 2
	;note B_, 0 | 
	drum_note 9, 2
	drum_note 9, 1
	drum_note 9, 1
	;note D_, 0 | 
	drum_note 9, 2
	;note B_, 0 | 
	drum_note 9, 2
;Bar 27
	;note B_, 0 | 
	drum_note 9, 2
	drum_note 9, 1
	drum_note 9, 1
	;note D_, 0 | 
	drum_note 9, 2
	;note B_, 0 | 
	drum_note 9, 2
	;note B_, 0 | 
	drum_note 9, 2
	drum_note 9, 1
	drum_note 9, 1
	;note D_, 0 | 
	drum_note 9, 2
	;note B_, 0 | 
	drum_note 9, 2
;Bar 28
	;note B_, 0 | 
	drum_note 9, 2
	drum_note 9, 1
	drum_note 9, 1
	;note D_, 0 | 
	drum_note 9, 2
	;note B_, 0 | 
	drum_note 9, 2
	;note B_, 0 | 
	drum_note 9, 2
	drum_note 9, 1
	drum_note 9, 1
	;note D_, 0 | 
	drum_note 9, 2
	;note B_, 0 | 
	drum_note 9, 2
;Bar 29
	;note B_, 0 | 
	drum_note 9, 2
	drum_note 9, 1
	drum_note 9, 1
	;note D_, 0 | 
	drum_note 9, 2
	;note B_, 0 | 
	drum_note 9, 2
	;note B_, 0 | 
	drum_note 9, 2
	drum_note 9, 1
	drum_note 9, 1
	;note D_, 0 | 
	drum_note 9, 2
	;note B_, 0 | 
	drum_note 9, 2
;Bar 30
	;note B_, 0 | 
	drum_note 9, 2
	drum_note 9, 1
	drum_note 9, 1
	;note D_, 0 | 
	drum_note 9, 2
	;note B_, 0 | 
	drum_note 9, 2
	;note B_, 0 | 
	drum_note 9, 2
	drum_note 9, 1
	drum_note 9, 1
	;note D_, 0 | 
	drum_note 9, 2
	;note B_, 0 | 
	drum_note 9, 2
;Bar 31
	;note B_, 0 | 
	drum_note 9, 2
	drum_note 9, 1
	drum_note 9, 1
	;note D_, 0 | 
	drum_note 9, 2
	;note B_, 0 | 
	drum_note 9, 2
	;note B_, 0 | 
	drum_note 9, 2
	drum_note 9, 1
	drum_note 9, 1
	;note D_, 0 | 
	drum_note 9, 2
	;note B_, 0 | 
	drum_note 9, 2
;Bar 32
	;note G#, 0 | 
	drum_note 12, 2
	drum_note 9, 1
	drum_note 9, 1
	;note G#, 0 | 
	drum_note 3, 2
	;note G#, 0 | 
	drum_note 12, 2
	;note G#, 0 | 
	drum_note 12, 2
	drum_note 3, 2
	drum_note 3, 1
	drum_note 3, 1
	drum_note 12, 1
	drum_note 12, 1
;Bar 33
	;note C#, 0 | 
	drum_note 12, 2
	drum_note 9, 1
	drum_note 9, 1
	;note D_, 0 | 
	drum_note 9, 2
	;note B_, 0 | 
	drum_note 9, 2
	;note B_, 0 | 
	drum_note 9, 2
	drum_note 9, 1
	drum_note 9, 1
	;note D_, 0 | 
	;note D_, 0 | 
	drum_note 9, 2
	;note C_, 0 | 
	;note B_, 0 | 
	drum_note 9, 2
;Bar 34
	;note B_, 0 | 
	drum_note 9, 2
	drum_note 9, 1
	drum_note 9, 1
	;note D_, 0 | 
	drum_note 9, 2
	;note B_, 0 | 
	drum_note 9, 2
	;note B_, 0 | 
	drum_note 9, 2
	drum_note 9, 1
	drum_note 9, 1
	;note D_, 0 | 
	;note A#, 0 | 
	drum_note 3, 2
	;note D_, 0 | 
	;note A#, 0 | 
	drum_note 12, 2
;Bar 35
	;note G#, 0 | 
	drum_note 12, 2
	drum_note 9, 1
	drum_note 9, 1
	;note D_, 0 | 
	drum_note 9, 2
	;note B_, 0 | 
	drum_note 9, 2
	;note B_, 0 | 
	drum_note 9, 2
	drum_note 9, 1
	drum_note 9, 1
	;note D_, 0 | 
	;note D_, 0 | 
	drum_note 9, 2
	;note D_, 0 | 
	;note B_, 0 | 
	drum_note 9, 2
;Bar 36
	;note B_, 0 | 
	drum_note 9, 2
	drum_note 9, 1
	drum_note 9, 1
	;note D_, 0 | 
	drum_note 9, 2
	drum_note 9, 2
	;note B_, 0 | 
	drum_note 9, 1
	drum_note 3, 1
	;note D_, 0 | 
	drum_note 3, 1
	drum_note 3, 1
	;note D_, 0 | 
	drum_note 8, 1
	drum_note 8, 1
	;note D_, 0 | 
	drum_note 5, 1
	drum_note 5, 1
;Bar 37
	;note C#, 0 | 
	drum_note 12, 2
	drum_note 9, 1
	drum_note 9, 1
	;note D_, 0 | 
	drum_note 9, 2
	;note B_, 0 | 
	drum_note 9, 2
	;note B_, 0 | 
	drum_note 9, 2
	drum_note 9, 1
	drum_note 9, 1
	;note D_, 0 | 
	;note D_, 0 | 
	drum_note 9, 2
	;note D_, 0 | 
	;note A#, 0 | 
	drum_note 12, 2
;Bar 38
	;note B_, 0 | 
	drum_note 9, 2
	drum_note 9, 1
	drum_note 9, 1
	;note D_, 0 | 
	drum_note 9, 2
	;note B_, 0 | 
	drum_note 9, 2
	;note B_, 0 | 
	drum_note 9, 2
	drum_note 9, 1
	drum_note 9, 1
	;note D_, 0 | 
	;note D_, 0 | 
	drum_note 9, 2
	;note C_, 0 | 
	;note B_, 0 | 
	drum_note 9, 2
;Bar 39
	;note B_, 0 | 
	drum_note 9, 2
	drum_note 9, 1
	drum_note 9, 1
	;note D_, 0 | 
	drum_note 9, 2
	;note B_, 0 | 
	drum_note 9, 2
	;note D_, 0 | 
	;note B_, 0 | 
	drum_note 9, 2
	;note C_, 0 | 
	drum_note 9, 1
	drum_note 9, 1
	;note D_, 0 | 
	drum_note 9, 2
	;note B_, 0 | 
	drum_note 9, 2
;Bar 40
	;note B_, 0 | 
	drum_note 9, 2
	drum_note 9, 1
	drum_note 9, 1
	;note D_, 0 | 
	drum_note 9, 2
	drum_note 9, 2
	;note A#, 0 | 
	drum_note 12, 1
	drum_note 3, 1
	;note D_, 0 | 
	drum_note 3, 1
	drum_note 3, 1
	drum_note 11, 1
	drum_note 5, 2
	drum_note 5, 1
;Bar 41
	;note B_, 0 | 
	drum_note 9, 2
	drum_note 9, 1
	drum_note 9, 1
	;note D_, 0 | 
	drum_note 9, 2
	;note B_, 0 | 
	drum_note 9, 2
	;note B_, 0 | 
	drum_note 9, 2
	drum_note 9, 1
	drum_note 9, 1
	;note D_, 0 | 
	drum_note 9, 2
	;note B_, 0 | 
	drum_note 9, 2
;Bar 42
	;note B_, 0 | 
	drum_note 9, 2
	drum_note 9, 1
	drum_note 9, 1
	;note D_, 0 | 
	drum_note 9, 2
	;note B_, 0 | 
	drum_note 9, 2
	;note B_, 0 | 
	drum_note 9, 2
	drum_note 9, 1
	drum_note 9, 1
	;note D_, 0 | 
	drum_note 9, 2
	;note B_, 0 | 
	drum_note 9, 2
;Bar 43
	;note B_, 0 | 
	drum_note 9, 2
	drum_note 9, 1
	drum_note 9, 1
	;note D_, 0 | 
	drum_note 9, 2
	;note B_, 0 | 
	drum_note 9, 2
	;note B_, 0 | 
	drum_note 9, 2
	drum_note 9, 1
	drum_note 9, 1
	;note D_, 0 | 
	drum_note 9, 2
	;note B_, 0 | 
	drum_note 9, 2
;Bar 44
	;note G#, 0 | 
	drum_note 12, 2
	drum_note 9, 1
	drum_note 9, 1
	;note D_, 0 | 
	drum_note 9, 2
	;note B_, 0 | 
	drum_note 9, 2
	;note B_, 0 | 
	drum_note 9, 2
	drum_note 9, 1
	drum_note 9, 1
	;note D_, 0 | 
	drum_note 9, 2
	;note B_, 0 | 
	drum_note 9, 2
;Bar 45
	;note B_, 0 | 
	drum_note 9, 2
	drum_note 9, 1
	drum_note 9, 1
	;note D_, 0 | 
	drum_note 9, 2
	;note B_, 0 | 
	drum_note 9, 2
	;note B_, 0 | 
	drum_note 9, 2
	drum_note 9, 1
	drum_note 9, 1
	;note D_, 0 | 
	drum_note 9, 2
	;note B_, 0 | 
	drum_note 9, 2
;Bar 46
	;note B_, 0 | 
	drum_note 9, 2
	drum_note 9, 1
	drum_note 9, 1
	;note D_, 0 | 
	drum_note 9, 2
	;note B_, 0 | 
	drum_note 9, 2
	;note B_, 0 | 
	drum_note 9, 2
	drum_note 9, 1
	drum_note 9, 1
	;note D_, 0 | 
	drum_note 9, 2
	;note B_, 0 | 
	drum_note 9, 2
;Bar 47
	;note B_, 0 | 
	drum_note 9, 2
	drum_note 9, 1
	drum_note 9, 1
	;note D_, 0 | 
	drum_note 9, 2
	;note B_, 0 | 
	drum_note 9, 2
	;note D_, 0 | 
	drum_note 9, 2
	drum_note 9, 1
	drum_note 9, 1
	;note D_, 0 | 
	drum_note 9, 2
	drum_note 9, 2
;Bar 48
	;note B_, 0 | 
	drum_note 9, 2
	drum_note 9, 1
	drum_note 9, 1
	;note D_, 0 | 
	drum_note 9, 2
	;note B_, 0 | 
	drum_note 9, 2
	;note B_, 0 | 
	drum_note 9, 2
	drum_note 9, 1
	drum_note 9, 1
	;note D_, 0 | 
	drum_note 9, 2
	;note F_, 0 | 
	drum_note 9, 2
;Bar 49
	;note B_, 0 | 
	drum_note 9, 2
	drum_note 9, 1
	drum_note 9, 1
	;note D_, 0 | 
	drum_note 9, 2
	;note B_, 0 | 
	drum_note 9, 2
	;note B_, 0 | 
	drum_note 9, 2
	drum_note 9, 1
	drum_note 9, 1
	;note D_, 0 | 
	drum_note 9, 2
	;note B_, 0 | 
	drum_note 9, 2
;Bar 50
	;note B_, 0 | 
	drum_note 9, 2
	drum_note 9, 1
	drum_note 9, 1
	;note D_, 0 | 
	drum_note 9, 2
	;note B_, 0 | 
	drum_note 9, 2
	;note B_, 0 | 
	drum_note 9, 2
	drum_note 9, 1
	drum_note 9, 1
	;note D_, 0 | 
	drum_note 9, 1
	drum_note 5, 1
	;note E_, 0 | 
	drum_note 9, 2
;Bar 51
	;note B_, 0 | 
	drum_note 9, 2
	drum_note 9, 1
	drum_note 9, 1
	;note D_, 0 | 
	drum_note 9, 2
	;note B_, 0 | 
	drum_note 9, 2
	;note B_, 0 | 
	drum_note 9, 2
	drum_note 9, 1
	drum_note 9, 1
	;note D_, 0 | 
	drum_note 9, 2
	drum_note 9, 2
;Bar 52
	;note B_, 0 | 
	drum_note 9, 2
	drum_note 9, 1
	drum_note 9, 1
	;note D_, 0 | 
	drum_note 9, 2
	;note B_, 0 | 
	drum_note 9, 2
	;note B_, 0 | 
	drum_note 9, 2
	drum_note 9, 1
	drum_note 9, 1
	;note D_, 0 | 
	drum_note 9, 2
	;note B_, 0 | 
	drum_note 9, 2
;Bar 53
	;note B_, 0 | 
	drum_note 9, 2
	drum_note 9, 1
	drum_note 9, 1
	;note D_, 0 | 
	drum_note 9, 2
	;note B_, 0 | 
	drum_note 9, 2
	;note B_, 0 | 
	drum_note 9, 2
	drum_note 9, 1
	drum_note 9, 1
	;note D_, 0 | 
	drum_note 9, 2
	drum_note 9, 2
;Bar 54
	;note B_, 0 | 
	drum_note 9, 2
	drum_note 9, 1
	drum_note 9, 1
	;note D_, 0 | 
	drum_note 9, 2
	;note B_, 0 | 
	drum_note 9, 2
	;note B_, 0 | 
	drum_note 9, 2
	drum_note 9, 1
	drum_note 9, 1
	;note D_, 0 | 
	drum_note 9, 2
	drum_note 9, 2
;Bar 55
	;note B_, 0 | 
	drum_note 9, 2
	drum_note 9, 1
	drum_note 9, 1
	;note D_, 0 | 
	drum_note 9, 2
	;note B_, 0 | 
	drum_note 9, 2
	;note B_, 0 | 
	drum_note 9, 2
	drum_note 9, 1
	drum_note 9, 1
	;note D_, 0 | 
	drum_note 9, 2
	;note B_, 0 | 
	drum_note 9, 2
;Bar 56
	;note B_, 0 | 
	drum_note 9, 2
	drum_note 9, 1
	drum_note 9, 1
	;note D_, 0 | 
	drum_note 9, 2
	;note B_, 0 | 
	drum_note 9, 2
	;note B_, 0 | 
	drum_note 9, 2
	drum_note 3, 2
	drum_note 3, 1
	drum_note 3, 1
	drum_note 10, 1
	drum_note 10, 1
;Bar 57
	;note C#, 0 | 
	drum_note 12, 2
	drum_note 9, 1
	drum_note 9, 1
	;note D_, 0 | 
	drum_note 9, 2
	;note B_, 0 | 
	drum_note 9, 2
	;note B_, 0 | 
	drum_note 9, 2
	drum_note 9, 1
	drum_note 9, 1
	;note D_, 0 | 
	drum_note 9, 2
	;note B_, 0 | 
	;note G#, 0 | 
	drum_note 3, 2
;Bar 58
	;note G#, 0 | 
	drum_note 12, 2
	drum_note 9, 1
	drum_note 9, 1
	;note D_, 0 | 
	drum_note 9, 2
	;note B_, 0 | 
	drum_note 9, 2
	;note B_, 0 | 
	drum_note 9, 2
	drum_note 9, 1
	drum_note 9, 1
	;note D_, 0 | 
	drum_note 9, 2
	;note B_, 0 | 
	drum_note 9, 2
;Bar 59
	;note G#, 0 | 
	drum_note 12, 2
	drum_note 9, 1
	drum_note 9, 1
	;note D_, 0 | 
	drum_note 9, 2
	;note B_, 0 | 
	drum_note 9, 2
	;note B_, 0 | 
	drum_note 9, 2
	drum_note 9, 1
	drum_note 9, 1
	;note D_, 0 | 
	drum_note 9, 2
	;note B_, 0 | 
	drum_note 9, 2
;Bar 60
	;note B_, 0 | 
	drum_note 9, 2
	drum_note 9, 1
	drum_note 9, 1
	;note D_, 0 | 
	drum_note 9, 2
	drum_note 9, 2
	;note B_, 0 | 
	drum_note 9, 1
	drum_note 3, 1
	;note D_, 0 | 
	drum_note 3, 1
	drum_note 3, 1
	drum_note 8, 1
	drum_note 8, 1
	drum_note 5, 2
;Bar 61
	;note C#, 0 | 
	drum_note 12, 2
	drum_note 9, 1
	drum_note 9, 1
	;note D_, 0 | 
	drum_note 9, 2
	;note B_, 0 | 
	drum_note 9, 2
	;note B_, 0 | 
	drum_note 9, 2
	drum_note 9, 1
	drum_note 9, 1
	;note D_, 0 | 
	drum_note 9, 2
	;note B_, 0 | 
	drum_note 9, 2
;Bar 62
	;note B_, 0 | 
	drum_note 9, 2
	drum_note 9, 1
	drum_note 9, 1
	;note D_, 0 | 
	drum_note 9, 2
	;note B_, 0 | 
	drum_note 9, 2
	;note B_, 0 | 
	drum_note 9, 2
	drum_note 9, 1
	drum_note 9, 1
	;note D_, 0 | 
	drum_note 9, 2
	;note B_, 0 | 
	drum_note 9, 2
;Bar 63
	;note B_, 0 | 
	drum_note 9, 2
	drum_note 9, 1
	drum_note 9, 1
	;note D_, 0 | 
	drum_note 9, 2
	;note B_, 0 | 
	drum_note 9, 2
	;note B_, 0 | 
	drum_note 9, 2
	drum_note 9, 1
	drum_note 9, 1
	;note D_, 0 | 
	drum_note 9, 2
	drum_note 9, 2
;Bar 64
	;note G#, 0 | 
	drum_note 12, 16
;Bar 65
	drum_note 7, 2
	drum_note 7, 1
	drum_note 7, 1
	drum_note 7, 2
	drum_note 7, 2
	drum_note 11, 2
	drum_note 7, 2
	drum_note 11, 2
	drum_note 7, 2
;Bar 66
	drum_note 7, 2
	drum_note 7, 1
	drum_note 7, 1
	drum_note 7, 2
	drum_note 7, 2
	drum_note 11, 8
;Bar 67
	drum_note 7, 2
	drum_note 7, 1
	drum_note 7, 1
	drum_note 7, 2
	drum_note 7, 2
	drum_note 11, 2
	drum_note 7, 2
	drum_note 11, 2
	drum_note 7, 2
;Bar 68
	drum_note 7, 2
	drum_note 7, 1
	drum_note 7, 1
	drum_note 7, 2
	drum_note 7, 2
	drum_note 11, 8
;Bar 69
	drum_note 7, 2
	drum_note 7, 1
	drum_note 7, 1
	drum_note 7, 2
	drum_note 7, 2
	drum_note 11, 2
	drum_note 7, 2
	drum_note 11, 2
	drum_note 7, 2
;Bar 70
	drum_note 7, 2
	drum_note 7, 1
	drum_note 7, 1
	drum_note 7, 2
	drum_note 7, 2
	drum_note 11, 8
;Bar 71
	drum_note 7, 2
	drum_note 7, 1
	drum_note 7, 1
	drum_note 7, 2
	drum_note 7, 2
	drum_note 11, 2
	drum_note 7, 2
	drum_note 11, 2
	drum_note 7, 4
;Bar 72
	drum_note 12, 3
	drum_note 10, 3
	drum_note 8, 2
	drum_note 12, 1
	drum_note 12, 1
	;note B_, 0 | 
	drum_note 12, 1
	drum_note 8, 1
	drum_note 8, 2
;Bar 73
	;note C#, 0 | 
	drum_note 12, 2
	drum_note 9, 1
	drum_note 9, 1
	;note D_, 0 | 
	drum_note 9, 2
	;note B_, 0 | 
	drum_note 9, 2
	;note B_, 0 | 
	drum_note 9, 2
	drum_note 9, 1
	drum_note 9, 1
	;note D_, 0 | 
	drum_note 9, 2
	;note B_, 0 | 
	drum_note 9, 2
;Bar 74
	;note C#, 0 | 
	drum_note 12, 2
	drum_note 9, 1
	drum_note 9, 1
	;note D_, 0 | 
	drum_note 9, 2
	;note B_, 0 | 
	drum_note 9, 2
	;note B_, 0 | 
	drum_note 9, 2
	drum_note 9, 1
	drum_note 9, 1
	;note D_, 0 | 
	drum_note 9, 2
	;note B_, 0 | 
	drum_note 9, 2
;Bar 75
	;note C#, 0 | 
	drum_note 12, 2
	drum_note 9, 1
	drum_note 9, 1
	;note D_, 0 | 
	drum_note 9, 2
	;note B_, 0 | 
	drum_note 9, 2
	;note B_, 0 | 
	drum_note 9, 2
	drum_note 9, 1
	drum_note 9, 1
	;note D_, 0 | 
	drum_note 9, 2
	;note B_, 0 | 
	drum_note 9, 2
;Bar 76
	;note C#, 0 | 
	drum_note 12, 2
	drum_note 9, 1
	drum_note 9, 1
	;note D_, 0 | 
	drum_note 9, 2
	;note B_, 0 | 
	drum_note 9, 2
	;note B_, 0 | 
	drum_note 9, 2
	drum_note 9, 1
	drum_note 9, 1
	;note D_, 0 | 
	drum_note 9, 2
	;note A_, 0 | 
	drum_note 9, 2
;Bar 77
	;note C#, 0 | 
	drum_note 12, 2
	drum_note 9, 1
	drum_note 9, 1
	;note D_, 0 | 
	drum_note 9, 2
	;note B_, 0 | 
	drum_note 9, 2
	;note B_, 0 | 
	drum_note 9, 2
	drum_note 9, 1
	drum_note 9, 1
	;note D_, 0 | 
	drum_note 9, 2
	;note B_, 0 | 
	drum_note 9, 2
;Bar 78
	;note C#, 0 | 
	drum_note 12, 2
	drum_note 9, 1
	drum_note 9, 1
	;note D_, 0 | 
	drum_note 9, 2
	;note B_, 0 | 
	drum_note 9, 2
	;note B_, 0 | 
	drum_note 9, 2
	drum_note 9, 1
	drum_note 9, 1
	;note D_, 0 | 
	drum_note 9, 2
	;note B_, 0 | 
	drum_note 9, 2
;Bar 79
	;note C#, 0 | 
	drum_note 12, 2
	drum_note 9, 1
	drum_note 9, 1
	;note D_, 0 | 
	drum_note 9, 2
	;note B_, 0 | 
	drum_note 9, 2
	;note B_, 0 | 
	drum_note 9, 2
	drum_note 9, 1
	drum_note 9, 1
	;note D_, 0 | 
	drum_note 9, 2
	drum_note 9, 2
;Bar 80
	;note F#, 0 | 
	drum_note 12, 2
	drum_note 7, 1
	drum_note 7, 1
	;note F#, 0 | 
	drum_note 3, 2
	drum_note 7, 2
	;note G#, 0 | 
	drum_note 3, 1
	;note F#, 0 | 
	drum_note 3, 1
	;note F#, 0 | 
	drum_note 3, 6
;Bar 81
	;note C#, 0 | 
	drum_note 12, 2
	drum_note 9, 1
	drum_note 9, 1
	;note D_, 0 | 
	drum_note 9, 2
	;note B_, 0 | 
	drum_note 9, 2
	;note B_, 0 | 
	drum_note 9, 2
	drum_note 9, 1
	drum_note 9, 1
	;note D_, 0 | 
	drum_note 9, 2
	;note B_, 0 | 
	drum_note 9, 2
;Bar 82
	;note F#, 0 | 
	drum_note 12, 2
	drum_note 7, 1
	drum_note 7, 1
	;note F#, 0 | 
	drum_note 3, 2
	drum_note 7, 2
	;note F#, 0 | 
	drum_note 12, 1
	;note B_, 0 | 
	drum_note 12, 1
	;note B_, 0 | 
	drum_note 12, 1
	drum_note 12, 1
	drum_note 8, 2
	drum_note 10, 2
;Bar 83
	;note C#, 0 | 
	drum_note 12, 2
	drum_note 9, 1
	drum_note 9, 1
	;note D_, 0 | 
	drum_note 9, 2
	;note B_, 0 | 
	drum_note 9, 2
	;note B_, 0 | 
	drum_note 9, 2
	drum_note 9, 1
	drum_note 9, 1
	;note D_, 0 | 
	drum_note 9, 2
	drum_note 9, 2
;Bar 84
	;note F#, 0 | 
	drum_note 12, 2
	drum_note 7, 1
	drum_note 7, 1
	;note F#, 0 | 
	drum_note 3, 2
	drum_note 7, 2
	drum_note 12, 1
	drum_note 12, 1
	drum_note 10, 3
	drum_note 12, 1
	drum_note 10, 2
;Bar 85
	;note C#, 0 | 
	drum_note 12, 2
	drum_note 9, 1
	drum_note 9, 1
	;note D_, 0 | 
	drum_note 9, 2
	;note B_, 0 | 
	drum_note 9, 2
	;note B_, 0 | 
	drum_note 9, 2
	drum_note 9, 1
	drum_note 9, 1
	;note D_, 0 | 
	drum_note 9, 2
	;note B_, 0 | 
	drum_note 9, 2
;Bar 86
	;note C#, 0 | 
	drum_note 12, 2
	drum_note 9, 1
	drum_note 9, 1
	;note D_, 0 | 
	drum_note 9, 2
	;note B_, 0 | 
	drum_note 9, 2
	;note B_, 0 | 
	drum_note 9, 2
	drum_note 9, 1
	drum_note 9, 1
	;note D_, 0 | 
	drum_note 9, 1
	;note D_, 0 | 
	drum_note 9, 1
	;note D_, 0 | 
	drum_note 11, 2
;Bar 87
	;note C#, 0 | 
	drum_note 12, 2
	drum_note 9, 1
	drum_note 9, 1
	;note D_, 0 | 
	drum_note 9, 2
	;note B_, 0 | 
	drum_note 9, 2
	;note B_, 0 | 
	drum_note 9, 2
	drum_note 9, 1
	drum_note 9, 1
	;note D_, 0 | 
	drum_note 9, 2
	;note B_, 0 | 
	drum_note 9, 2
;Bar 88
	;note B_, 0 | 
	drum_note 7, 2
	drum_note 7, 1
	drum_note 7, 1
	;note D_, 0 | 
	drum_note 7, 2
	drum_note 7, 2
	drum_note 10, 1
	drum_note 10, 1
	;note A_, 0 | 
	drum_note 10, 1
	drum_note 10, 1
	drum_note 12, 1
	drum_note 12, 1
	drum_note 8, 1
	drum_note 8, 1
;Bar 89
	;note C#, 0 | 
	drum_note 12, 2
	drum_note 9, 1
	drum_note 9, 1
	;note D_, 0 | 
	drum_note 9, 2
	;note B_, 0 | 
	drum_note 9, 2
	;note B_, 0 | 
	drum_note 9, 2
	drum_note 9, 1
	drum_note 9, 1
	;note D_, 0 | 
	drum_note 9, 2
	;note B_, 0 | 
	drum_note 9, 2
;Bar 90
	;note B_, 0 | 
	drum_note 7, 2
	drum_note 7, 1
	drum_note 7, 1
	;note D_, 0 | 
	drum_note 7, 2
	drum_note 7, 2
	;note B_, 0 | 
	drum_note 7, 1
	drum_note 2, 1
	drum_note 10, 3
	drum_note 3, 1
	;note B_, 0 | 
	drum_note 10, 2
;Bar 91
	;note C#, 0 | 
	drum_note 12, 2
	drum_note 9, 1
	drum_note 9, 1
	;note D_, 0 | 
	drum_note 9, 2
	;note B_, 0 | 
	drum_note 9, 2
	;note B_, 0 | 
	drum_note 9, 2
	drum_note 9, 1
	drum_note 9, 1
	;note D_, 0 | 
	drum_note 9, 2
	;note B_, 0 | 
	drum_note 9, 2
;Bar 92
	;note F#, 0 | 
	drum_note 12, 2
	drum_note 7, 1
	drum_note 7, 1
	;note F#, 0 | 
	drum_note 3, 2
	drum_note 7, 2
	;note F#, 0 | 
	drum_note 12, 1
	drum_note 8, 1
	drum_note 8, 3
	drum_note 12, 1
	drum_note 10, 2
;Bar 93
	;note C#, 0 | 
	drum_note 12, 2
	drum_note 9, 1
	drum_note 9, 1
	;note D_, 0 | 
	drum_note 9, 2
	;note B_, 0 | 
	drum_note 9, 2
	;note B_, 0 | 
	drum_note 9, 2
	drum_note 9, 1
	drum_note 9, 1
	;note D_, 0 | 
	drum_note 9, 2
	;note B_, 0 | 
	drum_note 9, 2
;Bar 94
	;note F#, 0 | 
	drum_note 12, 2
	drum_note 9, 1
	drum_note 9, 1
	;note D_, 0 | 
	drum_note 9, 2
	;note B_, 0 | 
	drum_note 9, 2
	;note B_, 0 | 
	drum_note 9, 2
	drum_note 9, 1
	drum_note 9, 1
	;note D_, 0 | 
	drum_note 9, 2
	;note A#, 0 | 
	drum_note 12, 2
;Bar 95
	;note F#, 0 | 
	drum_note 12, 2
	drum_note 9, 1
	drum_note 9, 1
	;note D_, 0 | 
	drum_note 9, 2
	;note B_, 0 | 
	drum_note 9, 2
	;note B_, 0 | 
	drum_note 9, 2
	drum_note 9, 1
	drum_note 9, 1
	;note D_, 0 | 
	drum_note 9, 2
	drum_note 7, 2
;Bar 96
	;note F#, 0 | 
	drum_note 12, 2
	drum_note 7, 1
	drum_note 7, 1
	;note F#, 0 | 
	drum_note 3, 2
	drum_note 7, 2
	;note B_, 0 | 
	drum_note 12, 1
	;note B_, 0 | 
	drum_note 12, 1
	;note B_, 0 | 
	drum_note 12, 1
	drum_note 12, 1
	drum_note 8, 1
	drum_note 8, 1
	drum_note 10, 2
;Bar 97
	;note C#, 0 | 
	drum_note 12, 2
	drum_note 9, 1
	drum_note 9, 1
	;note D_, 0 | 
	drum_note 9, 2
	;note B_, 0 | 
	drum_note 9, 2
	;note B_, 0 | 
	drum_note 9, 2
	drum_note 9, 1
	drum_note 9, 1
	;note D_, 0 | 
	drum_note 9, 2
	;note B_, 0 | 
	drum_note 9, 2
;Bar 98
	;note F#, 0 | 
	drum_note 12, 1
	drum_note 3, 1
	drum_note 12, 3
	drum_note 12, 1
	drum_note 12, 3
	drum_note 8, 1
	drum_note 12, 1
	drum_note 12, 1
	drum_note 12, 1
	drum_note 12, 1
	drum_note 12, 2
;Bar 99
	;note B_, 0 | 
	drum_note 2, 4
	;note D_, 0 | 
	drum_note 7, 2
	drum_note 7, 2
	;note B_, 0 | 
	drum_note 7, 2
	drum_note 7, 1
	drum_note 7, 1
	;note D_, 0 | 
	drum_note 7, 2
	;note D_, 0 | 
	drum_note 11, 2
;Bar 100
	;note F#, 0 | 
	drum_note 12, 2
	drum_note 7, 1
	drum_note 7, 1
	;note F#, 0 | 
	drum_note 3, 2
	drum_note 7, 2
	;note B_, 0 | 
	drum_note 12, 1
	;note B_, 0 | 
	drum_note 12, 1
	;note B_, 0 | 
	drum_note 12, 1
	drum_note 10, 1
	drum_note 10, 2
	drum_note 6, 2
;Bar 101
	;note C#, 0 | 
	drum_note 12, 4
	;note D_, 0 | 
	drum_note 9, 2
	drum_note 9, 2
	;note B_, 0 | 
	drum_note 9, 2
	drum_note 9, 1
	drum_note 9, 1
	;note D_, 0 | 
	drum_note 9, 2
	drum_note 9, 2
;Bar 102
	;note B_, 0 | 
	drum_note 7, 2
	drum_note 7, 1
	drum_note 7, 1
	;note D_, 0 | 
	drum_note 7, 2
	drum_note 7, 2
	drum_note 7, 1
	drum_note 10, 1
	drum_note 10, 3
	drum_note 12, 1
	drum_note 10, 2
;Bar 103
	;note C#, 0 | 
	drum_note 12, 2
	drum_note 9, 1
	drum_note 9, 1
	;note D_, 0 | 
	drum_note 9, 2
	;note B_, 0 | 
	drum_note 9, 2
	;note B_, 0 | 
	drum_note 9, 2
	drum_note 9, 1
	drum_note 9, 1
	;note D_, 0 | 
	drum_note 9, 2
	drum_note 9, 2
;Bar 104
	;note B_, 0 | 
	drum_note 7, 2
	drum_note 7, 1
	drum_note 7, 1
	;note D_, 0 | 
	drum_note 7, 2
	drum_note 7, 1
	drum_note 3, 1
	drum_note 3, 1
	drum_note 10, 1
	;note A_, 0 | 
	drum_note 10, 1
	drum_note 10, 1
	drum_note 8, 1
	;note G_, 0 | 
	drum_note 8, 1
	;note G_, 0 | 
	drum_note 8, 2
;Bar 105
	;note C#, 0 | 
	drum_note 12, 2
	drum_note 9, 1
	drum_note 9, 1
	;note D_, 0 | 
	drum_note 9, 2
	drum_note 9, 2
	;note B_, 0 | 
	drum_note 9, 2
	drum_note 9, 1
	drum_note 9, 1
	;note A#, 0 | 
	drum_note 3, 2
	;note A#, 0 | 
	drum_note 12, 2
;Bar 106
	;note F#, 0 | 
	drum_note 12, 2
	drum_note 9, 1
	drum_note 9, 1
	;note D_, 0 | 
	drum_note 9, 2
	drum_note 9, 2
	;note B_, 0 | 
	drum_note 9, 2
	drum_note 9, 1
	drum_note 9, 1
	;note A#, 0 | 
	drum_note 3, 2
	drum_note 11, 2
;Bar 107
	;note F#, 0 | 
	drum_note 12, 2
	drum_note 9, 1
	drum_note 9, 1
	;note D_, 0 | 
	drum_note 9, 2
	drum_note 9, 2
	;note B_, 0 | 
	drum_note 9, 2
	drum_note 9, 1
	drum_note 9, 1
	;note A#, 0 | 
	drum_note 3, 2
	drum_note 11, 2
;Bar 108
	;note F#, 0 | 
	drum_note 12, 2
	drum_note 9, 1
	drum_note 9, 1
	;note D_, 0 | 
	drum_note 9, 2
	drum_note 9, 2
	;note B_, 0 | 
	drum_note 9, 2
	drum_note 9, 1
	drum_note 9, 1
	;note A#, 0 | 
	drum_note 3, 2
	drum_note 11, 2
;Bar 109
	;note F#, 0 | 
	drum_note 12, 2
	drum_note 9, 1
	drum_note 9, 1
	;note D_, 0 | 
	drum_note 9, 2
	drum_note 9, 2
	;note B_, 0 | 
	drum_note 9, 2
	drum_note 9, 1
	drum_note 9, 1
	;note A#, 0 | 
	drum_note 3, 2
	drum_note 11, 2
;Bar 110
	;note F#, 0 | 
	drum_note 12, 2
	drum_note 9, 1
	drum_note 9, 1
	;note D_, 0 | 
	drum_note 9, 2
	drum_note 9, 2
	;note B_, 0 | 
	drum_note 9, 2
	drum_note 9, 1
	drum_note 9, 1
	;note A#, 0 | 
	drum_note 3, 2
	drum_note 11, 2
;Bar 111
	;note F#, 0 | 
	drum_note 12, 2
	drum_note 9, 1
	drum_note 9, 1
	;note D_, 0 | 
	drum_note 9, 2
	drum_note 9, 2
	;note B_, 0 | 
	drum_note 9, 2
	drum_note 9, 1
	drum_note 9, 1
	;note A#, 0 | 
	drum_note 3, 2
	drum_note 11, 2
;Bar 112
	drum_note 3, 1
	drum_note 3, 1
	drum_note 3, 1
	drum_note 3, 1
	drum_note 12, 1
	drum_note 12, 1
	drum_note 12, 1
	drum_note 12, 1
	drum_note 5, 1
	;note E_, 0 | 
	drum_note 5, 1
	;note E_, 0 | 
	drum_note 8, 1
	;note G_, 0 | 
	drum_note 8, 1
	;note G_, 0 | 
	drum_note 10, 1
	;note A_, 0 | 
	drum_note 10, 1
	;note A_, 0 | 
	drum_note 6, 1
	;note F_, 0 | 
	drum_note 6, 1
;Bar 113
	;note F_, 0 | 
	;note C#, 0 | 
	drum_note 12, 2
	drum_note 9, 1
	drum_note 9, 1
	;note D_, 0 | 
	drum_note 9, 2
	drum_note 9, 2
	;note B_, 0 | 
	drum_note 9, 2
	drum_note 9, 1
	drum_note 9, 1
	;note A#, 0 | 
	drum_note 3, 2
	;note A#, 0 | 
	drum_note 12, 2
;Bar 114
	;note F#, 0 | 
	drum_note 12, 2
	drum_note 9, 1
	drum_note 9, 1
	;note D_, 0 | 
	drum_note 9, 2
	drum_note 9, 2
	;note B_, 0 | 
	drum_note 9, 2
	drum_note 9, 1
	drum_note 9, 1
	;note A#, 0 | 
	drum_note 3, 2
	drum_note 11, 2
;Bar 115
	;note F#, 0 | 
	drum_note 12, 2
	drum_note 9, 1
	drum_note 9, 1
	;note D_, 0 | 
	drum_note 9, 2
	drum_note 9, 2
	;note B_, 0 | 
	drum_note 9, 2
	drum_note 9, 1
	drum_note 9, 1
	;note A#, 0 | 
	drum_note 3, 2
	drum_note 11, 2
;Bar 116
	;note F#, 0 | 
	drum_note 12, 2
	drum_note 9, 1
	drum_note 9, 1
	;note D_, 0 | 
	drum_note 9, 2
	drum_note 9, 2
	;note B_, 0 | 
	drum_note 9, 2
	drum_note 9, 1
	drum_note 9, 1
	;note A#, 0 | 
	drum_note 3, 2
	drum_note 11, 2
;Bar 117
	;note F#, 0 | 
	drum_note 12, 2
	drum_note 9, 1
	drum_note 9, 1
	;note D_, 0 | 
	drum_note 9, 2
	drum_note 9, 2
	;note B_, 0 | 
	drum_note 9, 2
	drum_note 9, 1
	drum_note 9, 1
	;note A#, 0 | 
	drum_note 3, 2
	drum_note 11, 2
	sound_ret

; ============================================================================================================

