;Coverted using MIDI2ASM
;Code by TriteHexagon
;Version 5.2.0 (16-Nov-2022)
;Visit github.com/TriteHexagon/Midi2ASM-Converter for up-to-date versions.

; ============================================================================================================

Music_Placeholder:
	channel_count 4
	channel 1, Music_Placeholder_Ch1
	channel 2, Music_Placeholder_Ch2
	channel 3, Music_Placeholder_Ch3
	channel 4, Music_Placeholder_Ch4

Music_Placeholder_Ch1:
	volume 7, 7
	duty_cycle 2
	note_type 12, 10, 7
	tempo 159
;Bar 1
	rest 4
	octave 3
	volume_envelope 15, 7
	note D_, 1
	octave 2
	note A#, 1
	note A_, 1
	;note G_, 0 | WARNING: Rounded down to 0
	octave 3
	note D_, 1
	octave 2
	note A#, 1
	note A_, 1
	note G_, 1
	octave 3
	;note D_, 0 | WARNING: Rounded down to 0
	octave 2
	note A#, 1
	note A_, 1
	note G_, 1
	octave 3
	note D_, 1
	octave 2
	;note A#, 0 | WARNING: Rounded down to 0
	note A_, 1
;Bar 2
	note G_, 1
	octave 3
	note D#, 1
	octave 2
	note A#, 1
	;note G_, 0 | WARNING: Rounded down to 0
	note D#, 1
	octave 3
	note D#, 1
	octave 2
	note A#, 1
	note G_, 1
	;note D#, 0 | WARNING: Rounded down to 0
	octave 3
	note D#, 1
	octave 2
	note A#, 1
	note G_, 1
	note D#, 1
	octave 3
	;note D#, 0 | WARNING: Rounded down to 0
	octave 2
	note A#, 1
	note G_, 1
	note D#, 1
	octave 3
	note C_, 1
	octave 2
	;note A#, 0 | WARNING: Rounded down to 0
	note A_, 1
;Bar 3
	note F_, 1
	octave 3
	note C_, 1
	octave 2
	note A#, 1
	;note A_, 0 | WARNING: Rounded down to 0
	note F_, 1
	octave 3
	note C_, 1
	octave 2
	note A#, 1
	note A_, 1
	;note F_, 0 | WARNING: Rounded down to 0
	octave 3
	note C_, 1
	octave 2
	note A#, 1
	note A_, 1
	note F_, 1
	octave 3
	;note D_, 0 | WARNING: Rounded down to 0
	note C_, 1
	octave 2
	note A#, 1
	note A_, 1
	octave 3
	note D_, 1
	;note C_, 0 | WARNING: Rounded down to 0
	octave 2
	note A#, 1
;Bar 4
	note A_, 1
	octave 3
	note D_, 1
	note C_, 1
	octave 2
	;note A#, 0 | WARNING: Rounded down to 0
	note A_, 1
	note A#, 1
	note A_, 1
	note G_, 1
	;note F#, 0 | WARNING: Rounded down to 0
	octave 3
	note D_, 1
	octave 2
	note A#, 1
	note A_, 1
	note G_, 1
	octave 3
	;note D_, 0 | WARNING: Rounded down to 0
	octave 2
	note A#, 1
	note A_, 1
	note G_, 1
	octave 3
	note D_, 1
	octave 2
	;note A#, 0 | WARNING: Rounded down to 0
	note A_, 1
;Bar 5
	note G_, 1
	octave 3
	note D_, 1
	octave 2
	note A#, 1
	;note A_, 0 | WARNING: Rounded down to 0
	note G_, 1
	octave 3
	note D#, 1
	octave 2
	note A#, 1
	note G_, 1
	;note D#, 0 | WARNING: Rounded down to 0
	octave 3
	note D#, 1
	octave 2
	note A#, 1
	note G_, 1
	note D#, 1
	octave 3
	;note D#, 0 | WARNING: Rounded down to 0
	octave 2
	note A#, 1
	note G_, 1
	note D#, 1
	octave 3
	note D#, 1
	octave 2
	;note A#, 0 | WARNING: Rounded down to 0
	note G_, 1
;Bar 6
	note D#, 1
	octave 3
	note C_, 1
	octave 2
	note A#, 1
	;note A_, 0 | WARNING: Rounded down to 0
	note F_, 1
	octave 3
	note C_, 1
	octave 2
	note A#, 1
	note A_, 1
	;note F_, 0 | WARNING: Rounded down to 0
	octave 3
	note C_, 1
	octave 2
	note A#, 1
	note A_, 1
	note F_, 1
	octave 3
	;note C_, 0 | WARNING: Rounded down to 0
	octave 2
	note A#, 1
	note A_, 1
	note F_, 1
	note A#, 1
	octave 3
	;note C_, 0 | WARNING: Rounded down to 0
	octave 2
	note A_, 1
;Bar 7
	note A#, 1
	note A#, 1
	octave 3
	note C_, 1
	octave 2
	;note A_, 0 | WARNING: Rounded down to 0
	note A#, 1
	note A#, 1
	octave 3
	note C_, 1
	octave 2
	note A_, 1
	;note A#, 0 | WARNING: Rounded down to 0
	note G_, 1
	note D_, 1
	octave 1
	note A#, 1
	note G_, 1
	octave 2
	;note A#, 0 | WARNING: Rounded down to 0
	octave 3
	note C_, 1
	octave 2
	note A_, 1
	note A#, 1
	note A#, 1
	octave 3
	;note C_, 0 | WARNING: Rounded down to 0
	octave 2
	note A_, 1
;Bar 8
	note A#, 1
	note A#, 1
	octave 3
	note C_, 1
	octave 2
	;note A_, 0 | WARNING: Rounded down to 0
	note A#, 1
	note G_, 1
	note D#, 1
	octave 1
	note A#, 1
	;note G_, 0 | WARNING: Rounded down to 0
	octave 2
	note A_, 4
	note A_, 2
	octave 3
	note D_, 1
	note D_, 3
;Bar 9
	note D_, 2
	note D_, 1
	note G_, 7
	note F#, 6
;Bar 10
	octave 2
	note A#, 8
	note G_, 2
	note A_, 1
	note A#, 2
	note D#, 3
;Bar 11
	note G_, 3
	note A#, 3
	octave 3
	note D#, 4
	note D_, 6
;Bar 12
	note C_, 2
	octave 2
	note A#, 1
	note A_, 2
	note F#, 1
	note G_, 4
	note A_, 3
	note A#, 3
;Bar 13
	octave 3
	note C#, 3
	note D_, 8
	note D_, 2
	note D#, 1
	note F_, 2
;Bar 14
	note D#, 1
	note D_, 1
	note C#, 8
	note G_, 3
	note F#, 1
	note D#, 2
;Bar 15
	note D_, 2
	note C_, 1
	octave 2
	note A#, 2
	note A_, 1
	note F#, 2
	note D#, 2
	note D_, 12
;Bar 16
	octave 3
	note D_, 1
	octave 2
	note A#, 1
	note A_, 1
	note G_, 1
	octave 3
	;note D_, 0 | WARNING: Rounded down to 0
	octave 2
	note A#, 1
	note A_, 1
	note G_, 1
	octave 3
	note D_, 1
	octave 2
	;note A#, 0 | WARNING: Rounded down to 0
	note A_, 1
;Bar 17
	note G_, 1
	octave 3
	note D_, 1
	octave 2
	note A#, 1
	;note A_, 0 | WARNING: Rounded down to 0
	note G_, 1
	octave 3
	note D#, 1
	octave 2
	note A#, 1
	note G_, 1
	;note D#, 0 | WARNING: Rounded down to 0
	octave 3
	note D#, 1
	octave 2
	note A#, 1
	note G_, 1
	note D#, 1
	octave 3
	;note D#, 0 | WARNING: Rounded down to 0
	octave 2
	note A#, 1
	note G_, 1
	note D#, 1
	octave 3
	note D#, 1
	octave 2
	;note A#, 0 | WARNING: Rounded down to 0
	note G_, 1
;Bar 18
	note D#, 1
	octave 3
	note C_, 1
	octave 2
	note A#, 1
	;note A_, 0 | WARNING: Rounded down to 0
	note F_, 1
	octave 3
	note C_, 1
	octave 2
	note A#, 1
	note A_, 1
	;note F_, 0 | WARNING: Rounded down to 0
	octave 3
	note C_, 1
	octave 2
	note A#, 1
	note A_, 1
	note F_, 1
	octave 3
	;note C_, 0 | WARNING: Rounded down to 0
	octave 2
	note A#, 1
	note A_, 1
	note F_, 1
	octave 3
	note D_, 1
	;note C_, 0 | WARNING: Rounded down to 0
	octave 2
	note A#, 1
;Bar 19
	note A_, 1
	octave 3
	note D_, 1
	note C_, 1
	octave 2
	;note A#, 0 | WARNING: Rounded down to 0
	note A_, 1
	octave 3
	note D_, 1
	note C_, 1
	octave 2
	note A#, 1
	;note A_, 0 | WARNING: Rounded down to 0
	note A#, 1
	note A_, 1
	note G_, 1
	sound_ret

; ============================================================================================================

Music_Placeholder_Ch2:
	duty_cycle 1
	note_type 12, 10, 7
;Bar 1
	volume_envelope 15, 7
	rest 16
	rest 1
;Bar 2
	octave 3
	note F_, 6
	note D#, 7
	note D_, 6
;Bar 3
	note C_, 3
	octave 2
	note A#, 4
	note A_, 6
;Bar 4
	octave 3
	note D_, 6
	note D_, 10
;Bar 5
	note D#, 2
	note F_, 1
	note D#, 7
	note D_, 6
;Bar 6
	note C_, 10
	octave 2
	note A_, 3
	note A#, 6
;Bar 7
	octave 3
	note C_, 3
	note D_, 4
	octave 2
	note G_, 6
;Bar 8
	note A_, 3
	note A#, 3
	octave 3
	note D#, 7
	note D_, 6
;Bar 9
	note C#, 7
	note D_, 6
;Bar 10
	rest 2
	octave 2
	note G_, 1
	note A_, 2
	note A#, 1
	octave 3
	note D_, 2
	octave 2
	note A#, 2
	note A_, 1
	note G_, 2
	rest 1
	note D#, 2
;Bar 11
	note F_, 2
	note G_, 1
	note A_, 2
	note A#, 1
	octave 3
	note C_, 2
	note D#, 2
	note D_, 6
;Bar 12
	note C_, 2
	octave 2
	note A#, 1
	note A_, 2
	note F#, 1
	note G_, 2
	note D_, 2
	note G_, 1
	note A_, 2
	note A#, 1
	note G_, 2
;Bar 13
	note A#, 2
	octave 3
	note D_, 1
	rest 2
	octave 2
	note D_, 1
	note F_, 2
	note D#, 2
	note D_, 1
	note C#, 2
	note D_, 1
	octave 1
	note A#, 2
;Bar 14
	rest 2
	octave 2
	note G_, 1
	note A_, 2
	note A#, 1
	octave 3
	note C#, 2
	octave 2
	note A#, 2
	note A_, 1
	note G_, 2
	note A_, 1
	note G_, 2
;Bar 15
	note F#, 2
	note D#, 1
	note D_, 2
	note C_, 1
	octave 1
	note A#, 2
	note A_, 2
	note F#, 1
	note G_, 2
	note A_, 1
	note A#, 2
;Bar 16
	octave 2
	note C_, 2
	note D_, 1
	note D#, 2
	note F#, 1
	rest 13
;Bar 17
	octave 3
	note F_, 7
	note D#, 6
;Bar 18
	note D_, 6
	note C_, 4
	octave 2
	note A#, 3
	note A_, 6
	sound_ret

; ============================================================================================================

Music_Placeholder_Ch3:
	note_type 12, 1, 0
;Bar 1
	volume_envelope 1, 0
	rest 4
	octave 1
	note G_, 2
	note G_, 1
	note G_, 2
	note G_, 2
	note G_, 1
	note G_, 2
	note G_, 1
	note G_, 1
;Bar 2
	note G_, 1
	note D#, 2
	note D#, 1
	note D#, 2
	note D#, 1
	note D#, 2
	note D#, 2
	note D#, 1
	note D#, 2
	note F_, 1
	note F_, 2
;Bar 3
	note F_, 2
	note F_, 1
	note F_, 2
	note F_, 1
	note F_, 2
	note F_, 2
	note F#, 1
	note F#, 2
	note F#, 1
	note F#, 2
;Bar 4
	note D_, 2
	note D_, 1
	note D_, 2
	note D_, 1
	note G_, 2
	note G_, 2
	note G_, 1
	note G_, 2
	note G_, 1
	note G_, 2
;Bar 5
	note G_, 2
	note G_, 1
	note D#, 2
	note D#, 1
	note D#, 2
	note D#, 2
	note D#, 1
	note D#, 2
	note D#, 1
	note D#, 2
;Bar 6
	note F_, 2
	note F_, 1
	note F_, 2
	note F_, 1
	note F_, 2
	note F_, 2
	note C_, 1
	note C_, 2
	note G_, 1
	note G_, 2
;Bar 7
	note G_, 2
	note G_, 1
	note G_, 2
	note G_, 1
	note D_, 2
	note D_, 2
	note D#, 1
	note D#, 2
	note D#, 1
	note D#, 2
;Bar 8
	note D#, 2
	note D#, 1
	octave 1
	note A#, 2
	note A#, 1
	octave 1
	note C_, 2
	note C_, 2
	note C_, 1
	note C_, 2
	note D_, 1
	note D_, 2
;Bar 9
	note D_, 2
	note D_, 1
	note D#, 2
	note D#, 1
	note D#, 2
	note D#, 2
	note D_, 1
	note D_, 2
	note E_, 1
	note F#, 2
;Bar 10
	note G_, 2
	octave 2
	;note D_, 0 | WARNING: Rounded down to 0
	octave 1
	note G_, 1
	note G_, 2
	octave 2
	note D_, 1
	octave 1
	;note G_, 0 | WARNING: Rounded down to 0
	note G_, 2
	octave 2
	note D_, 1
	octave 1
	note G_, 1
	note G_, 1
	octave 2
	note D_, 1
	octave 1
	note G_, 1
	note D#, 1
	octave 2
	note C#, 1
;Bar 11
	octave 1
	note D#, 1
	note D#, 2
	octave 2
	;note C#, 0 | WARNING: Rounded down to 0
	octave 1
	note D#, 1
	note D#, 2
	octave 2
	note C#, 1
	octave 1
	;note D#, 0 | WARNING: Rounded down to 0
	note D#, 2
	octave 2
	note C#, 1
	octave 1
	note D#, 1
	note D_, 1
	octave 2
	note C_, 1
	octave 1
	note D_, 1
	note D_, 1
	octave 2
	note C_, 1
;Bar 12
	octave 1
	note D_, 1
	note D_, 2
	octave 2
	;note C_, 0 | WARNING: Rounded down to 0
	octave 1
	note D_, 1
	note D_, 2
	octave 2
	note C_, 1
	octave 1
	;note D_, 0 | WARNING: Rounded down to 0
	note G_, 2
	octave 2
	note D_, 1
	octave 1
	note G_, 1
	note G_, 1
	octave 2
	note D_, 1
	octave 1
	note G_, 1
	note G_, 1
	octave 2
	note D_, 1
;Bar 13
	octave 1
	note G_, 1
	note D_, 2
	;note D_, 0 | WARNING: Rounded down to 0
	note D_, 1
	note G_, 2
	octave 2
	note D_, 1
	octave 1
	;note G_, 0 | WARNING: Rounded down to 0
	note G_, 2
	octave 2
	note D_, 1
	octave 1
	note G_, 1
	note G_, 1
	octave 2
	note D_, 1
	octave 1
	note G_, 1
	note A_, 1
	note A#, 2
;Bar 14
	note D#, 2
	octave 2
	;note C#, 0 | WARNING: Rounded down to 0
	octave 1
	note D#, 1
	note D#, 2
	octave 2
	note C#, 1
	octave 1
	;note D#, 0 | WARNING: Rounded down to 0
	note D#, 2
	octave 2
	note C#, 1
	octave 1
	note D#, 1
	note F_, 1
	note G_, 2
	note F#, 1
	octave 2
	note C_, 1
;Bar 15
	octave 1
	note F#, 1
	note F#, 2
	octave 2
	;note C_, 0 | WARNING: Rounded down to 0
	octave 1
	note F#, 1
	note F#, 2
	octave 2
	note C_, 1
	octave 1
	;note F#, 0 | WARNING: Rounded down to 0
	note D#, 2
	note D#, 2
	note D_, 1
	octave 2
	note D_, 1
	octave 1
	note D_, 1
	note D_, 1
	octave 2
	note D_, 1
;Bar 16
	octave 1
	note D_, 1
	note D_, 2
	octave 2
	;note D_, 0 | WARNING: Rounded down to 0
	octave 1
	note D_, 1
	note E_, 2
	note F#, 1
	note G_, 2
	note G_, 2
	note G_, 1
	note G_, 2
	note G_, 1
	note G_, 2
;Bar 17
	note G_, 2
	;note G_, 0 | WARNING: Rounded down to 0
	note G_, 1
	note D#, 2
	note D#, 1
	note D#, 2
	note D#, 2
	note D#, 1
	note D#, 2
	note D#, 1
	note D#, 2
;Bar 18
	note F_, 2
	note F_, 1
	note F_, 2
	note F_, 1
	note F_, 2
	note F_, 2
	note F_, 1
	note F_, 2
	note F#, 1
	note F#, 2
;Bar 19
	note F#, 2
	note F#, 1
	note D_, 2
	note D_, 1
	note D_, 2
	sound_ret

; ============================================================================================================

Music_Placeholder_Ch4:
	toggle_noise 1
	drum_speed 12
;Bar 1
	rest 4
	drum_note 12, 2
	drum_note 4, 1
	;note D#, 0 | WARNING: Rounded down to 0
	drum_note 3, 2
	drum_note 4, 1
	drum_note 4, 1
	drum_note 12, 1
	drum_note 4, 1
	drum_note 4, 1
	drum_note 3, 1
	drum_note 4, 1
;Bar 2
	drum_note 4, 1
	drum_note 12, 2
	;note D#, 0 | WARNING: Rounded down to 0
	drum_note 4, 1
	drum_note 3, 2
	drum_note 4, 1
	;note D#, 0 | WARNING: Rounded down to 0
	drum_note 12, 2
	drum_note 4, 1
	drum_note 4, 1
	;note D_, 0 | WARNING: Rounded down to 0
	drum_note 10, 1
	drum_note 5, 1
	drum_note 12, 1
	drum_note 12, 1
	drum_note 4, 1
;Bar 3
	drum_note 4, 1
	drum_note 3, 2
	;note D#, 0 | WARNING: Rounded down to 0
	drum_note 4, 1
	drum_note 12, 2
	drum_note 4, 1
	;note D#, 0 | WARNING: Rounded down to 0
	drum_note 3, 2
	drum_note 4, 1
	drum_note 4, 1
	drum_note 12, 1
	drum_note 4, 1
	drum_note 4, 1
	drum_note 3, 1
	drum_note 4, 1
;Bar 4
	drum_note 4, 1
	drum_note 12, 2
	;note D#, 0 | WARNING: Rounded down to 0
	drum_note 4, 1
	drum_note 3, 1
	drum_note 10, 1
	drum_note 5, 1
	;note B_, 0 | WARNING: Rounded down to 0
	drum_note 12, 2
	drum_note 4, 1
	drum_note 4, 1
	drum_note 3, 1
	drum_note 4, 1
	drum_note 4, 1
	drum_note 12, 1
	drum_note 4, 1
;Bar 5
	drum_note 4, 1
	drum_note 3, 2
	;note D#, 0 | WARNING: Rounded down to 0
	drum_note 4, 1
	drum_note 12, 2
	drum_note 4, 1
	;note D#, 0 | WARNING: Rounded down to 0
	drum_note 3, 2
	drum_note 4, 1
	drum_note 4, 1
	drum_note 12, 1
	drum_note 4, 1
	drum_note 4, 1
	drum_note 3, 1
	;note A_, 0 | WARNING: Rounded down to 0
	drum_note 5, 1
;Bar 6
	drum_note 12, 1
	drum_note 12, 2
	;note D#, 0 | WARNING: Rounded down to 0
	drum_note 4, 1
	drum_note 3, 2
	drum_note 4, 1
	;note D#, 0 | WARNING: Rounded down to 0
	drum_note 12, 2
	drum_note 4, 1
	drum_note 4, 1
	;note B_, 0 | WARNING: Rounded down to 0
	drum_note 8, 1
	drum_note 8, 1
	drum_note 8, 1
	drum_note 12, 1
	drum_note 4, 1
;Bar 7
	drum_note 4, 1
	drum_note 10, 2
	;note D#, 0 | WARNING: Rounded down to 0
	drum_note 4, 1
	drum_note 12, 2
	drum_note 4, 1
	;note D#, 0 | WARNING: Rounded down to 0
	drum_note 8, 1
	drum_note 8, 1
	drum_note 12, 1
	drum_note 12, 1
	drum_note 12, 1
	drum_note 4, 1
	drum_note 4, 1
	drum_note 10, 1
	drum_note 4, 1
;Bar 8
	drum_note 4, 1
	drum_note 12, 2
	;note D#, 0 | WARNING: Rounded down to 0
	drum_note 4, 1
	drum_note 8, 1
	drum_note 8, 1
	drum_note 12, 1
	;note B_, 0 | WARNING: Rounded down to 0
	drum_note 12, 4
	drum_note 12, 2
	drum_note 12, 1
	drum_note 8, 3
;Bar 9
	drum_note 8, 2
	drum_note 12, 1
	drum_note 12, 2
	drum_note 3, 1
	;note D_, 0 | WARNING: Rounded down to 0
	drum_note 1, 1
	drum_note 1, 1
	drum_note 5, 1
	drum_note 5, 1
	;note C_, 0 | WARNING: Rounded down to 0
	drum_note 1, 1
	drum_note 10, 1
	drum_note 10, 1
	drum_note 3, 1
	;note D_, 0 | WARNING: Rounded down to 0
	drum_note 3, 1
;Bar 10
	drum_note 3, 1
	drum_note 12, 2
	;note D#, 0 | WARNING: Rounded down to 0
	drum_note 4, 1
	drum_note 5, 2
	drum_note 4, 1
	;note D#, 0 | WARNING: Rounded down to 0
	drum_note 12, 2
	drum_note 4, 1
	drum_note 4, 1
	drum_note 5, 1
	drum_note 4, 1
	drum_note 4, 1
	drum_note 12, 1
	drum_note 4, 1
;Bar 11
	drum_note 4, 1
	drum_note 5, 2
	;note D#, 0 | WARNING: Rounded down to 0
	drum_note 4, 1
	drum_note 5, 1
	drum_note 4, 1
	drum_note 5, 1
	;note E_, 0 | WARNING: Rounded down to 0
	drum_note 5, 2
	drum_note 4, 1
	drum_note 4, 1
	drum_note 12, 1
	drum_note 4, 1
	drum_note 4, 1
	drum_note 5, 1
	drum_note 4, 1
;Bar 12
	drum_note 4, 1
	drum_note 12, 2
	;note D#, 0 | WARNING: Rounded down to 0
	drum_note 4, 1
	drum_note 5, 2
	drum_note 4, 1
	;note D#, 0 | WARNING: Rounded down to 0
	drum_note 12, 2
	drum_note 4, 1
	drum_note 4, 1
	drum_note 5, 1
	drum_note 4, 1
	drum_note 4, 1
	drum_note 5, 1
	;note D#, 0 | WARNING: Rounded down to 0
	drum_note 5, 1
;Bar 13
	drum_note 5, 1
	drum_note 5, 2
	;note D#, 0 | WARNING: Rounded down to 0
	drum_note 4, 1
	drum_note 12, 2
	drum_note 4, 1
	;note D#, 0 | WARNING: Rounded down to 0
	drum_note 5, 2
	drum_note 4, 1
	drum_note 4, 1
	drum_note 12, 1
	drum_note 4, 1
	drum_note 4, 1
	drum_note 5, 1
	drum_note 4, 1
;Bar 14
	drum_note 4, 1
	drum_note 12, 2
	;note D#, 0 | WARNING: Rounded down to 0
	drum_note 4, 1
	drum_note 5, 2
	drum_note 4, 1
	;note D#, 0 | WARNING: Rounded down to 0
	drum_note 12, 2
	drum_note 4, 1
	drum_note 4, 1
	;note E_, 0 | WARNING: Rounded down to 0
	drum_note 5, 1
	drum_note 4, 1
	drum_note 4, 1
	drum_note 12, 1
	drum_note 4, 1
;Bar 15
	drum_note 4, 1
	drum_note 5, 2
	;note D#, 0 | WARNING: Rounded down to 0
	drum_note 4, 1
	drum_note 12, 2
	drum_note 4, 1
	;note D#, 0 | WARNING: Rounded down to 0
	drum_note 5, 1
	drum_note 4, 1
	drum_note 4, 1
	drum_note 4, 1
	drum_note 12, 1
	drum_note 4, 1
	drum_note 4, 1
	drum_note 5, 1
	drum_note 4, 1
;Bar 16
	drum_note 4, 1
	drum_note 5, 1
	drum_note 4, 1
	;note D#, 0 | WARNING: Rounded down to 0
	drum_note 5, 1
	drum_note 5, 1
	drum_note 5, 1
	drum_note 10, 1
	drum_note 10, 1
	drum_note 12, 1
	drum_note 4, 1
	drum_note 4, 1
	drum_note 3, 1
	drum_note 4, 1
	drum_note 4, 1
	drum_note 12, 1
	drum_note 4, 1
;Bar 17
	drum_note 4, 1
	drum_note 3, 2
	;note D#, 0 | WARNING: Rounded down to 0
	drum_note 4, 1
	drum_note 12, 2
	drum_note 4, 1
	;note D#, 0 | WARNING: Rounded down to 0
	drum_note 3, 2
	drum_note 4, 1
	drum_note 4, 1
	drum_note 12, 1
	drum_note 4, 1
	drum_note 4, 1
	drum_note 3, 1
	;note A_, 0 | WARNING: Rounded down to 0
	drum_note 3, 1
;Bar 18
	drum_note 12, 1
	drum_note 12, 2
	;note D#, 0 | WARNING: Rounded down to 0
	drum_note 4, 1
	drum_note 3, 2
	drum_note 4, 1
	;note D#, 0 | WARNING: Rounded down to 0
	drum_note 12, 2
	drum_note 4, 1
	drum_note 4, 1
	drum_note 3, 1
	drum_note 4, 1
	drum_note 4, 1
	drum_note 12, 1
	drum_note 4, 1
;Bar 19
	drum_note 4, 1
	drum_note 3, 2
	;note D#, 0 | WARNING: Rounded down to 0
	drum_note 4, 1
	drum_note 12, 2
	drum_note 4, 1
	;note D#, 0 | WARNING: Rounded down to 0
	drum_note 3, 1
	drum_note 10, 1
	drum_note 3, 1
	sound_ret

; ============================================================================================================

