;Coverted using MIDI2ASM
;Code by TriteHexagon
;Version 5.0.1 (7-Feb-2021)
;Visit github.com/TriteHexagon/Midi2ASM-Converter for up-to-date versions.

; ============================================================================================================

Music_Moscow:
	channel_count 4
	channel 1, Music_Moscow_Ch1
	channel 2, Music_Moscow_Ch2
	channel 3, Music_Moscow_Ch3
	channel 4, Music_Moscow_Ch4

Music_Moscow_Ch1:
	volume 7, 7
	duty_cycle 0
	note_type 12, 10, 7
	tempo 146
;Bar 1
	rest 16
	rest 16
	rest 16
	rest 16
	rest 16
	rest 16
;Bar 7
	octave 3
	volume_envelope 7, 7
	;note D#, 1
	octave 2
	note G_, 1
	rest 1
	octave 3
	;note D#, 1
	octave 2
	volume_envelope 6, 7
	note G_, 1
	rest 1
	octave 3
	volume_envelope 7, 7
	;note D#, 1
	octave 2
	volume_envelope 6, 7
	note G_, 1
	rest 1
	octave 3
	volume_envelope 7, 7
	;note D#, 1
	octave 2
	note G_, 3
	rest 1
	octave 3
	;note D#, 1
	octave 2
	note G_, 3
	rest 1
	volume_envelope 6, 7
	;note G_, 1
	octave 3
	volume_envelope 7, 7
	note D#, 1
	rest 1
;Bar 8
	;note C#, 1
	volume_envelope 6, 7
	;note D#, 1
	octave 2
	volume_envelope 7, 7
	note F_, 1
	rest 1
	octave 3
	;note D#, 1
	octave 2
	;note F_, 1
	octave 3
	volume_envelope 6, 7
	note C#, 1
	rest 1
	;note C#, 1
	volume_envelope 7, 7
	;note D#, 1
	octave 2
	note F_, 1
	rest 1
	octave 3
	;note C#, 1
	;note D#, 1
	octave 2
	note F_, 3
	rest 1
	octave 3
	;note C#, 1
	;note D#, 1
	octave 2
	volume_envelope 6, 7
	note F_, 3
	rest 1
	octave 3
	volume_envelope 7, 7
	;note C#, 1
	octave 2
	volume_envelope 6, 7
	;note F_, 1
	octave 3
	volume_envelope 7, 7
	note D#, 1
	rest 1
;Bar 9
	octave 2
	;note A#, 1
	octave 3
	;note D#, 1
	octave 2
	note F#, 1
	rest 1
	volume_envelope 6, 7
	;note A#, 1
	octave 3
	volume_envelope 7, 7
	;note D#, 1
	octave 2
	volume_envelope 5, 7
	note F#, 1
	rest 1
	volume_envelope 6, 7
	;note A#, 1
	octave 3
	volume_envelope 7, 7
	;note D#, 1
	octave 2
	volume_envelope 6, 7
	note F#, 1
	rest 1
	volume_envelope 7, 7
	;note A#, 1
	octave 3
	;note D#, 1
	octave 2
	note F#, 3
	rest 1
	volume_envelope 5, 7
	;note A#, 1
	octave 3
	volume_envelope 6, 7
	;note D#, 1
	octave 2
	note F#, 3
	rest 1
	volume_envelope 5, 7
	;note A#, 1
	octave 3
	volume_envelope 7, 7
	;note D#, 1
	octave 2
	note F#, 1
	rest 1
;Bar 10
	octave 3
	volume_envelope 6, 7
	;note C_, 1
	volume_envelope 7, 7
	;note D#, 1
	octave 2
	note G#, 1
	rest 1
	octave 3
	volume_envelope 5, 7
	;note C_, 1
	volume_envelope 7, 7
	;note D#, 1
	octave 2
	note G#, 1
	rest 1
	octave 3
	volume_envelope 5, 7
	;note C_, 1
	volume_envelope 7, 7
	;note D#, 1
	octave 2
	note G#, 1
	rest 1
	octave 3
	volume_envelope 5, 7
	;note C_, 1
	octave 2
	volume_envelope 7, 7
	;note G#, 1
	octave 3
	note D#, 3
	rest 1
	volume_envelope 6, 7
	;note C_, 1
	volume_envelope 7, 7
	;note D#, 1
	octave 2
	note G#, 3
	rest 1
	volume_envelope 6, 7
	;note G#, 1
	octave 3
	volume_envelope 7, 7
	;note D#, 1
	octave 2
	volume_envelope 6, 7
	note A#, 2
;Bar 11
	octave 3
	volume_envelope 7, 7
	;note D#, 1
	octave 2
	volume_envelope 6, 7
	note G_, 1
	rest 1
	octave 3
	volume_envelope 7, 7
	;note D#, 1
	octave 2
	volume_envelope 6, 7
	note G_, 1
	rest 1
	;note G_, 1
	octave 3
	volume_envelope 7, 7
	note D#, 1
	rest 1
	;note D#, 1
	octave 2
	note G_, 3
	rest 1
	;note G_, 1
	octave 3
	note D#, 3
	rest 1
	octave 2
	volume_envelope 6, 7
	;note G_, 1
	octave 3
	volume_envelope 7, 7
	note D#, 1
	rest 1
;Bar 12
	;note C#, 1
	;note D#, 1
	octave 2
	note F_, 1
	rest 1
	octave 3
	volume_envelope 5, 7
	;note C#, 1
	volume_envelope 7, 7
	;note D#, 1
	octave 2
	volume_envelope 6, 7
	note F_, 1
	rest 1
	octave 3
	volume_envelope 5, 7
	;note C#, 1
	octave 2
	volume_envelope 7, 7
	;note F_, 1
	octave 3
	note D#, 1
	rest 1
	volume_envelope 5, 7
	;note C#, 1
	volume_envelope 7, 7
	;note D#, 1
	octave 2
	note F_, 3
	rest 1
	octave 3
	volume_envelope 6, 7
	;note C#, 1
	;note D#, 1
	octave 2
	note F_, 3
	rest 1
	volume_envelope 7, 7
	;note F_, 1
	octave 3
	;note D#, 1
	volume_envelope 5, 7
	note C#, 1
	rest 1
;Bar 13
	octave 2
	volume_envelope 7, 7
	;note F#, 1
	octave 3
	;note D#, 1
	octave 2
	volume_envelope 6, 7
	note A#, 1
	rest 1
	volume_envelope 5, 7
	;note A#, 1
	octave 3
	volume_envelope 7, 7
	;note D#, 1
	octave 2
	note F#, 1
	rest 1
	;note A#, 1
	octave 3
	;note D#, 1
	octave 2
	note F#, 1
	rest 1
	volume_envelope 6, 7
	;note A#, 1
	octave 3
	volume_envelope 7, 7
	;note D#, 1
	octave 2
	note F#, 3
	rest 1
	octave 3
	;note D#, 1
	octave 2
	;note F#, 1
	volume_envelope 6, 7
	note A#, 3
	rest 1
	volume_envelope 7, 7
	;note F#, 1
	octave 3
	;note D#, 1
	octave 2
	volume_envelope 5, 7
	note A#, 1 ; WARNING: Auto-Sync says: Rounded up!
	rest 1
;Bar 14
	octave 3
	;note C_, 1
	octave 2
	volume_envelope 7, 7
	;note G#, 1
	octave 3
	note D#, 1
	rest 1
	volume_envelope 6, 7
	;note C_, 1
	octave 2
	volume_envelope 7, 7
	;note G#, 1
	octave 3
	note D#, 1
	rest 1
	volume_envelope 5, 7
	;note C_, 1
	volume_envelope 7, 7
	;note D#, 1
	octave 2
	note G#, 1
	rest 1
	octave 3
	volume_envelope 6, 7
	;note C_, 1
	volume_envelope 7, 7
	;note D#, 1
	octave 2
	note G#, 3
	rest 1
	octave 3
	volume_envelope 6, 7
	;note C_, 1
	volume_envelope 7, 7
	;note D#, 1
	octave 2
	note G#, 3
	rest 1
	;note A#, 1
	;note G#, 1
	octave 3
	note D#, 1
	rest 1
;Bar 15
	;note D#, 1
	octave 2
	note G_, 1
	rest 1
	octave 3
	;note D#, 1
	octave 2
	volume_envelope 6, 7
	note G_, 1
	rest 1
	octave 3
	volume_envelope 7, 7
	;note D#, 1
	octave 2
	volume_envelope 6, 7
	note G_, 1
	rest 1
	octave 3
	volume_envelope 7, 7
	;note D#, 1
	octave 2
	note G_, 3
	rest 1
	octave 3
	volume_envelope 6, 7
	;note D#, 1
	octave 2
	volume_envelope 7, 7
	note G_, 3
	rest 1
	octave 3
	;note D#, 1
	octave 2
	note G_, 1
	rest 1
;Bar 16
	octave 3
	;note C#, 1
	;note D#, 1
	octave 2
	volume_envelope 6, 7
	note F_, 1
	rest 1
	octave 3
	;note C#, 1
	volume_envelope 7, 7
	;note D#, 1
	octave 2
	note F_, 1
	rest 1
	octave 3
	;note C#, 1
	;note D#, 1
	octave 2
	note F_, 1
	rest 1
	octave 3
	;note C#, 1
	octave 2
	;note F_, 1
	octave 3
	note D#, 3
	rest 1
	;note C#, 1
	;note D#, 1
	octave 2
	note F_, 3
	rest 1
	octave 3
	volume_envelope 6, 7
	;note C#, 1
	octave 2
	;note F_, 1
	octave 3
	volume_envelope 7, 7
	note D#, 1
	rest 1
;Bar 17
	octave 2
	volume_envelope 6, 7
	;note A#, 1
	octave 3
	volume_envelope 7, 7
	;note D#, 1
	octave 2
	note F#, 1
	rest 1
	volume_envelope 6, 7
	;note A#, 1
	octave 3
	volume_envelope 7, 7
	;note D#, 1
	octave 2
	note F#, 1
	rest 1
	volume_envelope 6, 7
	;note A#, 1
	octave 3
	volume_envelope 7, 7
	;note D#, 1
	octave 2
	note F#, 1
	rest 1
	;note A#, 1
	;note F#, 1
	octave 3
	note D#, 3
	rest 1
	octave 2
	;note A#, 1
	octave 3
	;note D#, 1
	octave 2
	note F#, 3
	rest 1
	octave 3
	;note D#, 1
	octave 2
	;note F#, 1
	note A#, 1
	rest 1
;Bar 18
	octave 3
	volume_envelope 6, 7
	;note C_, 1
	volume_envelope 7, 7
	;note D#, 1
	octave 2
	note G#, 1
	rest 1
	octave 3
	volume_envelope 6, 7
	;note C_, 1
	volume_envelope 7, 7
	;note D#, 1
	octave 2
	note G#, 1
	rest 1
	octave 3
	volume_envelope 6, 7
	;note C_, 1
	volume_envelope 7, 7
	;note D#, 1
	octave 2
	note G#, 1
	rest 1
	octave 3
	volume_envelope 6, 7
	;note C_, 1
	volume_envelope 7, 7
	;note D#, 1
	octave 2
	note G#, 3
	rest 1
	octave 3
	volume_envelope 6, 7
	;note C_, 1
	volume_envelope 7, 7
	;note D#, 1
	octave 2
	volume_envelope 6, 7
	note G#, 3
	rest 1
	volume_envelope 7, 7
	;note G#, 1
	octave 3
	;note D#, 1
	octave 2
	note A#, 1
	rest 1
;Bar 19
	volume_envelope 6, 7
	;note G_, 1
	octave 3
	volume_envelope 7, 7
	note D#, 1
	rest 1
	;note D#, 1
	octave 2
	volume_envelope 6, 7
	note G_, 1
	rest 1
	octave 3
	volume_envelope 7, 7
	;note D#, 1
	octave 2
	note G_, 1
	rest 1
	octave 3
	;note D#, 1
	octave 2
	note G_, 3
	rest 1
	octave 3
	;note D#, 1
	octave 2
	note G_, 3
	rest 1
	octave 3
	;note D#, 1
	octave 2
	note G_, 1
	rest 1
;Bar 20
	octave 3
	;note D#, 1
	octave 2
	;note F_, 1
	octave 3
	note C#, 1
	rest 1
	;note D#, 1
	octave 2
	volume_envelope 6, 7
	;note F_, 1
	octave 3
	note C#, 1
	rest 1
	;note C#, 1
	volume_envelope 7, 7
	;note D#, 1
	octave 2
	note F_, 1
	rest 1
	octave 3
	;note D#, 1
	octave 2
	;note F_, 1
	octave 3
	note C#, 3
	rest 1
	;note C#, 1
	;note D#, 1
	octave 2
	note F_, 3
	rest 1
	octave 3
	;note C#, 1
	octave 2
	;note F_, 1
	octave 3
	note D#, 1
	rest 1
;Bar 21
	octave 2
	;note A#, 1
	octave 3
	;note D#, 1
	octave 2
	note F#, 1
	rest 1
	volume_envelope 6, 7
	;note A#, 1
	octave 3
	volume_envelope 7, 7
	;note D#, 1
	octave 2
	note F#, 1
	rest 1
	;note A#, 1
	octave 3
	;note D#, 1
	octave 2
	note F#, 1
	rest 1
	;note A#, 1
	octave 3
	;note D#, 1
	octave 2
	note F#, 3
	rest 1
	;note A#, 1
	octave 3
	;note D#, 1
	octave 2
	note F#, 3
	rest 1
	volume_envelope 6, 7
	;note A#, 1
	volume_envelope 7, 7
	;note F#, 1
	octave 3
	note D#, 1
	rest 1
;Bar 22
	volume_envelope 5, 7
	;note C_, 1
	volume_envelope 7, 7
	;note D#, 1
	octave 2
	note G#, 1
	rest 1
	octave 3
	volume_envelope 6, 7
	;note C_, 1
	volume_envelope 7, 7
	;note D#, 1
	octave 2
	note G#, 1
	rest 1
	octave 3
	volume_envelope 5, 7
	;note C_, 1
	octave 2
	volume_envelope 7, 7
	;note G#, 1
	octave 3
	note D#, 1
	rest 1
	volume_envelope 6, 7
	;note C_, 1
	octave 2
	volume_envelope 7, 7
	;note G#, 1
	octave 3
	note D#, 3
	rest 1
	volume_envelope 6, 7
	;note C_, 1
	octave 2
	volume_envelope 7, 7
	;note G#, 1
	octave 3
	note D#, 3
	rest 1
	octave 2
	volume_envelope 6, 7
	;note A#, 1
	octave 3
	volume_envelope 7, 7
	;note D#, 1
	octave 2
	note G#, 1
	rest 1
;Bar 23
	octave 3
	;note D#, 1
	octave 2
	note G_, 1
	rest 1
	octave 3
	;note D#, 1
	octave 2
	volume_envelope 6, 7
	note G_, 1
	rest 1
	octave 3
	volume_envelope 7, 7
	;note D#, 1
	octave 2
	volume_envelope 6, 7
	note G_, 1
	rest 1
	octave 3
	volume_envelope 7, 7
	;note D#, 1
	octave 2
	note G_, 3
	rest 1
	octave 3
	;note D#, 1
	octave 2
	note G_, 3
	rest 1
	volume_envelope 6, 7
	;note G_, 1
	octave 3
	volume_envelope 7, 7
	note D#, 1
	rest 1
;Bar 24
	volume_envelope 6, 7
	;note D#, 1
	octave 2
	volume_envelope 7, 7
	;note F_, 1
	octave 3
	note C#, 1
	rest 1
	volume_envelope 5, 7
	;note C#, 1
	volume_envelope 7, 7
	;note D#, 1
	octave 2
	note F_, 1
	rest 1
	octave 3
	;note C#, 1
	;note D#, 1
	octave 2
	note F_, 1
	rest 1
	octave 3
	;note D#, 1
	octave 2
	;note F_, 1
	octave 3
	volume_envelope 6, 7
	note C#, 3
	rest 1
	volume_envelope 7, 7
	;note D#, 1
	octave 2
	volume_envelope 6, 7
	;note F_, 1
	octave 3
	volume_envelope 7, 7
	note C#, 3
	rest 1
	volume_envelope 6, 7
	;note C#, 1
	octave 2
	;note F_, 1
	octave 3
	volume_envelope 7, 7
	note D#, 1
	rest 1
;Bar 25
	octave 2
	;note A#, 1
	octave 3
	;note D#, 1
	octave 2
	note F#, 1
	rest 1
	volume_envelope 5, 7
	;note A#, 1
	octave 3
	volume_envelope 7, 7
	;note D#, 1
	octave 2
	volume_envelope 5, 7
	note F#, 1
	rest 1
	volume_envelope 6, 7
	;note A#, 1
	octave 3
	volume_envelope 7, 7
	;note D#, 1
	octave 2
	volume_envelope 6, 7
	note F#, 1
	rest 1
	;note A#, 1
	octave 3
	volume_envelope 7, 7
	;note D#, 1
	octave 2
	note F#, 3
	rest 1
	octave 3
	volume_envelope 6, 7
	;note D#, 1
	octave 2
	;note F#, 1
	volume_envelope 7, 7
	note A#, 3
	rest 1
	octave 3
	;note D#, 1
	octave 2
	;note F#, 1
	volume_envelope 6, 7
	note A#, 1
	rest 1
;Bar 26
	octave 3
	;note C_, 1
	volume_envelope 7, 7
	;note D#, 1
	octave 2
	note G#, 1
	rest 1
	octave 3
	volume_envelope 6, 7
	;note C_, 1
	volume_envelope 7, 7
	;note D#, 1
	octave 2
	note G#, 1
	rest 1
	octave 3
	volume_envelope 6, 7
	;note C_, 1
	volume_envelope 7, 7
	;note D#, 1
	octave 2
	note G#, 1
	rest 1
	octave 3
	volume_envelope 6, 7
	;note C_, 1
	octave 2
	volume_envelope 7, 7
	;note G#, 1
	octave 3
	note D#, 3
	rest 1
	volume_envelope 6, 7
	;note C_, 1
	volume_envelope 7, 7
	;note D#, 1
	octave 2
	note G#, 3
	rest 1
	;note A#, 1
	volume_envelope 6, 7
	;note G#, 1
	octave 3
	volume_envelope 7, 7
	note D#, 1
	rest 1
;Bar 27
	;note D#, 1
	octave 2
	note G_, 1
	rest 1
	octave 3
	;note D#, 1
	octave 2
	volume_envelope 6, 7
	note G_, 1
	rest 1
	octave 3
	volume_envelope 7, 7
	;note D#, 1
	octave 2
	volume_envelope 6, 7
	note G_, 1
	rest 1
	octave 3
	volume_envelope 7, 7
	;note D#, 1
	octave 2
	note G_, 3
	rest 1
	octave 3
	;note D#, 1
	octave 2
	note G_, 3
	rest 1
	volume_envelope 6, 7
	;note G_, 1
	octave 3
	volume_envelope 7, 7
	note D#, 1
	rest 1
;Bar 28
	;note C#, 1
	volume_envelope 6, 7
	;note D#, 1
	octave 2
	volume_envelope 7, 7
	note F_, 1
	rest 1
	octave 3
	;note D#, 1
	octave 2
	;note F_, 1
	octave 3
	volume_envelope 6, 7
	note C#, 1
	rest 1
	;note C#, 1
	volume_envelope 7, 7
	;note D#, 1
	octave 2
	note F_, 1
	rest 1
	octave 3
	;note C#, 1
	;note D#, 1
	octave 2
	note F_, 3
	rest 1
	octave 3
	;note C#, 1
	;note D#, 1
	octave 2
	volume_envelope 6, 7
	note F_, 3
	rest 1
	octave 3
	volume_envelope 7, 7
	;note C#, 1
	octave 2
	volume_envelope 6, 7
	;note F_, 1
	octave 3
	volume_envelope 7, 7
	note D#, 1
	rest 1
;Bar 29
	octave 2
	;note A#, 1
	octave 3
	;note D#, 1
	octave 2
	note F#, 1
	rest 1
	volume_envelope 6, 7
	;note A#, 1
	octave 3
	volume_envelope 7, 7
	;note D#, 1
	octave 2
	volume_envelope 5, 7
	note F#, 1
	rest 1
	volume_envelope 6, 7
	;note A#, 1
	octave 3
	volume_envelope 7, 7
	;note D#, 1
	octave 2
	volume_envelope 6, 7
	note F#, 1
	rest 1
	volume_envelope 7, 7
	;note A#, 1
	octave 3
	;note D#, 1
	octave 2
	note F#, 3
	rest 1
	volume_envelope 5, 7
	;note A#, 1
	octave 3
	volume_envelope 6, 7
	;note D#, 1
	octave 2
	note F#, 3
	rest 1
	volume_envelope 5, 7
	;note A#, 1
	octave 3
	volume_envelope 7, 7
	;note D#, 1
	octave 2
	note F#, 1
	rest 1
;Bar 30
	octave 3
	volume_envelope 6, 7
	;note C_, 1
	volume_envelope 7, 7
	;note D#, 1
	octave 2
	note G#, 1
	rest 1
	octave 3
	volume_envelope 5, 7
	;note C_, 1
	volume_envelope 7, 7
	;note D#, 1
	octave 2
	note G#, 1
	rest 1
	octave 3
	volume_envelope 5, 7
	;note C_, 1
	volume_envelope 7, 7
	;note D#, 1
	octave 2
	note G#, 1
	rest 1
	octave 3
	volume_envelope 5, 7
	;note C_, 1
	octave 2
	volume_envelope 7, 7
	;note G#, 1
	octave 3
	note D#, 3
	rest 1
	volume_envelope 6, 7
	;note C_, 1
	volume_envelope 7, 7
	;note D#, 1
	octave 2
	note G#, 3
	rest 1
	volume_envelope 6, 7
	;note G#, 1
	octave 3
	volume_envelope 7, 7
	;note D#, 1
	octave 2
	volume_envelope 6, 7
	note A#, 2
;Bar 31
	octave 3
	volume_envelope 7, 7
	;note D#, 1
	octave 2
	volume_envelope 6, 7
	note G_, 1
	rest 1
	octave 3
	volume_envelope 7, 7
	;note D#, 1
	octave 2
	volume_envelope 6, 7
	note G_, 1
	rest 1
	;note G_, 1
	octave 3
	volume_envelope 7, 7
	note D#, 1
	rest 1
	;note D#, 1
	octave 2
	note G_, 3
	rest 1
	;note G_, 1
	octave 3
	note D#, 3
	rest 1
	octave 2
	volume_envelope 6, 7
	;note G_, 1
	octave 3
	volume_envelope 7, 7
	note D#, 1
	rest 1
;Bar 32
	;note C#, 1
	;note D#, 1
	octave 2
	note F_, 1
	rest 1
	octave 3
	volume_envelope 5, 7
	;note C#, 1
	volume_envelope 7, 7
	;note D#, 1
	octave 2
	volume_envelope 6, 7
	note F_, 1
	rest 1
	octave 3
	volume_envelope 5, 7
	;note C#, 1
	octave 2
	volume_envelope 7, 7
	;note F_, 1
	octave 3
	note D#, 1
	rest 1
	volume_envelope 5, 7
	;note C#, 1
	volume_envelope 7, 7
	;note D#, 1
	octave 2
	note F_, 3
	rest 1
	octave 3
	volume_envelope 6, 7
	;note C#, 1
	;note D#, 1
	octave 2
	note F_, 3
	rest 1
	volume_envelope 7, 7
	;note F_, 1
	octave 3
	;note D#, 1
	volume_envelope 5, 7
	note C#, 1
	rest 1
;Bar 33
	octave 2
	volume_envelope 7, 7
	;note F#, 1
	octave 3
	;note D#, 1
	octave 2
	volume_envelope 6, 7
	note A#, 1
	rest 1
	volume_envelope 5, 7
	;note A#, 1
	octave 3
	volume_envelope 7, 7
	;note D#, 1
	octave 2
	note F#, 1
	rest 1
	;note A#, 1
	octave 3
	;note D#, 1
	octave 2
	note F#, 1
	rest 1
	volume_envelope 6, 7
	;note A#, 1
	octave 3
	volume_envelope 7, 7
	;note D#, 1
	octave 2
	note F#, 3
	rest 1
	octave 3
	;note D#, 1
	octave 2
	;note F#, 1
	volume_envelope 6, 7
	note A#, 3
	rest 1
	volume_envelope 7, 7
	;note F#, 1
	octave 3
	;note D#, 1
	octave 2
	volume_envelope 5, 7
	note A#, 1
	rest 1
;Bar 34
	octave 3
	;note C_, 1
	octave 2
	volume_envelope 7, 7
	;note G#, 1
	octave 3
	note D#, 1
	rest 1
	volume_envelope 6, 7
	;note C_, 1
	octave 2
	volume_envelope 7, 7
	;note G#, 1
	octave 3
	note D#, 1
	rest 1
	volume_envelope 5, 7
	;note C_, 1
	volume_envelope 7, 7
	;note D#, 1
	octave 2
	note G#, 1
	rest 1
	octave 3
	volume_envelope 6, 7
	;note C_, 1
	volume_envelope 7, 7
	;note D#, 1
	octave 2
	note G#, 3
	rest 1
	octave 3
	volume_envelope 6, 7
	;note C_, 1
	volume_envelope 7, 7
	;note D#, 1
	octave 2
	note G#, 3
	rest 1
	;note A#, 1
	;note G#, 1
	octave 3
	note D#, 1
	rest 16
	rest 16
	rest 16
	rest 16
	rest 16
	rest 16
;Bar 40
	;note C#, 1
	note E_, 1
;Bar 41
	volume_envelope 6, 7
	note A_, 16
;Bar 42
	rest 16
	rest 16
	rest 16
	rest 16
	rest 16
	rest 16
	rest 16
	rest 16
	rest 16
	rest 16
	rest 16
	rest 16
	rest 16
	rest 16
	rest 16
	rest 16
	rest 16
	rest 16
	rest 16
	rest 16
	rest 16
	rest 16
	rest 16
	rest 16
	rest 16
	rest 16
	rest 16
	rest 16
	rest 16
	rest 16
	rest 16
	rest 16
	rest 15
;Bar 74
	volume_envelope 7, 7
	;note C#, 1
	note E_, 1
;Bar 75
	volume_envelope 6, 7
	note A_, 16
;Bar 76
	rest 16
	rest 16
	rest 16
	rest 16
	rest 16
	rest 16
	rest 16
	rest 16
	rest 16
	rest 16
	rest 16
	rest 16
	rest 16
	rest 16
	rest 16
	rest 16
	rest 16
	rest 16
	rest 16
	rest 16
	rest 16
	rest 16
	rest 16
	rest 16
	rest 16
	rest 16
	rest 16
	rest 16
	rest 16
	rest 16
	rest 16
	rest 16
	rest 15
;Bar 108
	volume_envelope 7, 7
	;note C#, 1
	note E_, 1
;Bar 109
	volume_envelope 6, 7
	note A_, 16
;Bar 110
	rest 16
	rest 16
	rest 16
	rest 16
	rest 16
	rest 16
	rest 16
	rest 16
	rest 16
	rest 16
	rest 16
	rest 16
	rest 16
	rest 16
	rest 16
	rest 16
	rest 16
	rest 16
	rest 16
	rest 16
	rest 16
	rest 16
	rest 16
	rest 16
	rest 16
	rest 16
	rest 16
	rest 16
	rest 16
	rest 16
	rest 16
	rest 16
	rest 16
	rest 16
	rest 16
;Bar 145
	octave 2
	;note G_, 1
	octave 3
	volume_envelope 7, 7
	note D#, 1
	rest 1
	;note D#, 1
	octave 2
	volume_envelope 6, 7
	note G_, 1
	rest 1
	octave 3
	volume_envelope 7, 7
	;note D#, 1
	octave 2
	note G_, 1
	rest 1
	octave 3
	;note D#, 1
	octave 2
	note G_, 3
	rest 1
	octave 3
	;note D#, 1
	octave 2
	note G_, 3
	rest 1
	octave 3
	;note D#, 1
	octave 2
	note G_, 1
	rest 1
;Bar 146
	octave 3
	;note D#, 1
	octave 2
	;note F_, 1
	octave 3
	note C#, 1
	rest 1
	;note D#, 1
	octave 2
	volume_envelope 6, 7
	;note F_, 1
	octave 3
	note C#, 1
	rest 1
	;note C#, 1
	volume_envelope 7, 7
	;note D#, 1
	octave 2
	note F_, 1
	rest 1
	octave 3
	;note D#, 1
	octave 2
	;note F_, 1
	octave 3
	note C#, 3
	rest 1
	;note C#, 1
	;note D#, 1
	octave 2
	note F_, 3
	rest 1
	octave 3
	;note C#, 1
	octave 2
	;note F_, 1
	octave 3
	note D#, 1
	rest 1
;Bar 147
	octave 2
	;note A#, 1
	octave 3
	;note D#, 1
	octave 2
	note F#, 1
	rest 1
	volume_envelope 6, 7
	;note A#, 1
	octave 3
	volume_envelope 7, 7
	;note D#, 1
	octave 2
	note F#, 1
	rest 1
	;note A#, 1
	octave 3
	;note D#, 1
	octave 2
	note F#, 1
	rest 1
	;note A#, 1
	octave 3
	;note D#, 1
	octave 2
	note F#, 3
	rest 1
	;note A#, 1
	octave 3
	;note D#, 1
	octave 2
	note F#, 3
	rest 1
	volume_envelope 6, 7
	;note A#, 1
	volume_envelope 7, 7
	;note F#, 1
	octave 3
	note D#, 1
	rest 1
;Bar 148
	volume_envelope 5, 7
	;note C_, 1
	volume_envelope 7, 7
	;note D#, 1
	octave 2
	note G#, 1
	rest 1
	octave 3
	volume_envelope 6, 7
	;note C_, 1
	volume_envelope 7, 7
	;note D#, 1
	octave 2
	note G#, 1
	rest 1
	octave 3
	volume_envelope 5, 7
	;note C_, 1
	octave 2
	volume_envelope 7, 7
	;note G#, 1
	octave 3
	note D#, 1
	rest 1
	volume_envelope 6, 7
	;note C_, 1
	octave 2
	volume_envelope 7, 7
	;note G#, 1
	octave 3
	note D#, 3
	rest 1
	volume_envelope 6, 7
	;note C_, 1
	octave 2
	volume_envelope 7, 7
	;note G#, 1
	octave 3
	note D#, 3
	rest 1
	octave 2
	volume_envelope 6, 7
	;note A#, 1
	octave 3
	volume_envelope 7, 7
	;note D#, 1
	octave 2
	note G#, 1
	rest 1
;Bar 149
	octave 3
	;note D#, 1
	octave 2
	note G_, 1
	rest 1
	octave 3
	;note D#, 1
	octave 2
	volume_envelope 6, 7
	note G_, 1
	rest 1
	octave 3
	volume_envelope 7, 7
	;note D#, 1
	octave 2
	volume_envelope 6, 7
	note G_, 1
	rest 1
	octave 3
	volume_envelope 7, 7
	;note D#, 1
	octave 2
	note G_, 3
	rest 1
	octave 3
	;note D#, 1
	octave 2
	note G_, 3
	rest 1
	volume_envelope 6, 7
	;note G_, 1
	octave 3
	volume_envelope 7, 7
	note D#, 1
	rest 1
;Bar 150
	volume_envelope 6, 7
	;note D#, 1
	octave 2
	volume_envelope 7, 7
	;note F_, 1
	octave 3
	note C#, 1
	rest 1
	volume_envelope 5, 7
	;note C#, 1
	volume_envelope 7, 7
	;note D#, 1
	octave 2
	note F_, 1
	rest 1
	octave 3
	;note C#, 1
	;note D#, 1
	octave 2
	note F_, 1
	rest 1
	octave 3
	;note D#, 1
	octave 2
	;note F_, 1
	octave 3
	volume_envelope 6, 7
	note C#, 3
	rest 1
	volume_envelope 7, 7
	;note D#, 1
	octave 2
	volume_envelope 6, 7
	;note F_, 1
	octave 3
	volume_envelope 7, 7
	note C#, 3
	rest 1
	volume_envelope 6, 7
	;note C#, 1
	octave 2
	;note F_, 1
	octave 3
	volume_envelope 7, 7
	note D#, 1
	rest 1
;Bar 151
	octave 2
	;note A#, 1
	octave 3
	;note D#, 1
	octave 2
	note F#, 1
	rest 1
	volume_envelope 5, 7
	;note A#, 1
	octave 3
	volume_envelope 7, 7
	;note D#, 1
	octave 2
	volume_envelope 5, 7
	note F#, 1
	rest 1
	volume_envelope 6, 7
	;note A#, 1
	octave 3
	volume_envelope 7, 7
	;note D#, 1
	octave 2
	volume_envelope 6, 7
	note F#, 1
	rest 1
	;note A#, 1
	octave 3
	volume_envelope 7, 7
	;note D#, 1
	octave 2
	note F#, 3
	rest 1
	octave 3
	volume_envelope 6, 7
	;note D#, 1
	octave 2
	;note F#, 1
	volume_envelope 7, 7
	note A#, 3
	rest 1
	octave 3
	;note D#, 1
	octave 2
	;note F#, 1
	volume_envelope 6, 7
	note A#, 1
	rest 1
;Bar 152
	octave 3
	;note C_, 1
	volume_envelope 7, 7
	;note D#, 1
	octave 2
	note G#, 1
	rest 1
	octave 3
	volume_envelope 6, 7
	;note C_, 1
	volume_envelope 7, 7
	;note D#, 1
	octave 2
	note G#, 1
	rest 1
	octave 3
	volume_envelope 6, 7
	;note C_, 1
	volume_envelope 7, 7
	;note D#, 1
	octave 2
	note G#, 1
	rest 1
	octave 3
	volume_envelope 6, 7
	;note C_, 1
	octave 2
	volume_envelope 7, 7
	;note G#, 1
	octave 3
	note D#, 3
	rest 1
	volume_envelope 6, 7
	;note C_, 1
	volume_envelope 7, 7
	;note D#, 1
	octave 2
	note G#, 3
	rest 1
	;note A#, 1
	volume_envelope 6, 7
	;note G#, 1
	octave 3
	volume_envelope 7, 7
	note D#, 1
	rest 1
;Bar 153
	;note D#, 1
	octave 2
	note G_, 1
	rest 1
	octave 3
	;note D#, 1
	octave 2
	volume_envelope 6, 7
	note G_, 1
	rest 1
	octave 3
	volume_envelope 7, 7
	;note D#, 1
	octave 2
	volume_envelope 6, 7
	note G_, 1
	rest 1
	octave 3
	volume_envelope 7, 7
	;note D#, 1
	octave 2
	note G_, 3
	rest 1
	octave 3
	;note D#, 1
	octave 2
	note G_, 3
	rest 1
	volume_envelope 6, 7
	;note G_, 1
	octave 3
	volume_envelope 7, 7
	note D#, 1
	rest 1
;Bar 154
	;note C#, 1
	volume_envelope 6, 7
	;note D#, 1
	octave 2
	volume_envelope 7, 7
	note F_, 1
	rest 1
	octave 3
	;note D#, 1
	octave 2
	;note F_, 1
	octave 3
	volume_envelope 6, 7
	note C#, 1
	rest 1
	;note C#, 1
	volume_envelope 7, 7
	;note D#, 1
	octave 2
	note F_, 1
	rest 1
	octave 3
	;note C#, 1
	;note D#, 1
	octave 2
	note F_, 3
	rest 1
	octave 3
	;note C#, 1
	;note D#, 1
	octave 2
	volume_envelope 6, 7
	note F_, 3
	rest 1
	octave 3
	volume_envelope 7, 7
	;note C#, 1
	octave 2
	volume_envelope 6, 7
	;note F_, 1
	octave 3
	volume_envelope 7, 7
	note D#, 1
	rest 1
;Bar 155
	octave 2
	;note A#, 1
	octave 3
	;note D#, 1
	octave 2
	note F#, 1
	rest 1
	volume_envelope 6, 7
	;note A#, 1
	octave 3
	volume_envelope 7, 7
	;note D#, 1
	octave 2
	volume_envelope 5, 7
	note F#, 1
	rest 1
	volume_envelope 6, 7
	;note A#, 1
	octave 3
	volume_envelope 7, 7
	;note D#, 1
	octave 2
	volume_envelope 6, 7
	note F#, 1
	rest 1
	volume_envelope 7, 7
	;note A#, 1
	octave 3
	;note D#, 1
	octave 2
	note F#, 3
	rest 1
	volume_envelope 5, 7
	;note A#, 1
	octave 3
	volume_envelope 6, 7
	;note D#, 1
	octave 2
	note F#, 3
	rest 1
	volume_envelope 5, 7
	;note A#, 1
	octave 3
	volume_envelope 7, 7
	;note D#, 1
	octave 2
	note F#, 1
	rest 1
;Bar 156
	octave 3
	volume_envelope 6, 7
	;note C_, 1
	volume_envelope 7, 7
	;note D#, 1
	octave 2
	note G#, 1
	rest 1
	octave 3
	volume_envelope 5, 7
	;note C_, 1
	volume_envelope 7, 7
	;note D#, 1
	octave 2
	note G#, 1
	rest 1
	octave 3
	volume_envelope 5, 7
	;note C_, 1
	volume_envelope 7, 7
	;note D#, 1
	octave 2
	note G#, 1
	rest 1
	octave 3
	volume_envelope 5, 7
	;note C_, 1
	octave 2
	volume_envelope 7, 7
	;note G#, 1
	octave 3
	note D#, 3
	rest 1
	volume_envelope 6, 7
	;note C_, 1
	volume_envelope 7, 7
	;note D#, 1
	octave 2
	note G#, 3
	rest 1
	volume_envelope 6, 7
	;note G#, 1
	octave 3
	volume_envelope 7, 7
	;note D#, 1
	octave 2
	volume_envelope 6, 7
	note A#, 2
;Bar 157
	octave 3
	volume_envelope 7, 7
	;note D#, 1
	octave 2
	volume_envelope 6, 7
	note G_, 1
	rest 1
	octave 3
	volume_envelope 7, 7
	;note D#, 1
	octave 2
	volume_envelope 6, 7
	note G_, 1
	rest 1
	;note G_, 1
	octave 3
	volume_envelope 7, 7
	note D#, 1
	rest 1
	;note D#, 1
	octave 2
	note G_, 3
	rest 1
	;note G_, 1
	octave 3
	note D#, 3
	rest 1
	octave 2
	volume_envelope 6, 7
	;note G_, 1
	octave 3
	volume_envelope 7, 7
	note D#, 1
	rest 1
;Bar 158
	;note C#, 1
	;note D#, 1
	octave 2
	note F_, 1
	rest 1
	octave 3
	volume_envelope 5, 7
	;note C#, 1
	volume_envelope 7, 7
	;note D#, 1
	octave 2
	volume_envelope 6, 7
	note F_, 1
	rest 1
	octave 3
	volume_envelope 5, 7
	;note C#, 1
	octave 2
	volume_envelope 7, 7
	;note F_, 1
	octave 3
	note D#, 1
	rest 1
	volume_envelope 5, 7
	;note C#, 1
	volume_envelope 7, 7
	;note D#, 1
	octave 2
	note F_, 3
	rest 1
	octave 3
	volume_envelope 6, 7
	;note C#, 1
	;note D#, 1
	octave 2
	note F_, 3
	rest 1
	volume_envelope 7, 7
	;note F_, 1
	octave 3
	;note D#, 1
	volume_envelope 5, 7
	note C#, 1
	rest 1
;Bar 159
	octave 2
	volume_envelope 7, 7
	;note F#, 1
	octave 3
	;note D#, 1
	octave 2
	volume_envelope 6, 7
	note A#, 1
	rest 1
	volume_envelope 5, 7
	;note A#, 1
	octave 3
	volume_envelope 7, 7
	;note D#, 1
	octave 2
	note F#, 1
	rest 1
	;note A#, 1
	octave 3
	;note D#, 1
	octave 2
	note F#, 1
	rest 1
	volume_envelope 6, 7
	;note A#, 1
	octave 3
	volume_envelope 7, 7
	;note D#, 1
	octave 2
	note F#, 3
	rest 1
	octave 3
	;note D#, 1
	octave 2
	;note F#, 1
	volume_envelope 6, 7
	note A#, 3
	rest 1
	volume_envelope 7, 7
	;note F#, 1
	octave 3
	;note D#, 1
	octave 2
	volume_envelope 5, 7
	note A#, 1
	rest 1
;Bar 160
	octave 3
	;note C_, 1
	octave 2
	volume_envelope 7, 7
	;note G#, 1
	octave 3
	note D#, 1
	rest 1
	volume_envelope 6, 7
	;note C_, 1
	octave 2
	volume_envelope 7, 7
	;note G#, 1
	octave 3
	note D#, 1
	rest 1
	volume_envelope 5, 7
	;note C_, 1
	volume_envelope 7, 7
	;note D#, 1
	octave 2
	note G#, 1
	rest 1
	octave 3
	volume_envelope 6, 7
	;note C_, 1
	volume_envelope 7, 7
	;note D#, 1
	octave 2
	note G#, 3
	rest 1
	octave 3
	volume_envelope 6, 7
	;note C_, 1
	volume_envelope 7, 7
	;note D#, 1
	octave 2
	note G#, 3
	rest 1
	;note A#, 1
	;note G#, 1
	octave 3
	note D#, 1
	rest 1
;Bar 161
	octave 2
	volume_envelope 6, 7
	;note G_, 1
	octave 3
	volume_envelope 7, 7
	note D#, 1
	rest 1
	;note D#, 1
	octave 2
	volume_envelope 6, 7
	note G_, 1
	rest 1
	octave 3
	volume_envelope 7, 7
	;note D#, 1
	octave 2
	note G_, 1
	rest 1
	octave 3
	;note D#, 1
	octave 2
	note G_, 3
	rest 1
	octave 3
	;note D#, 1
	octave 2
	note G_, 3
	rest 1
	octave 3
	;note D#, 1
	octave 2
	note G_, 1
	rest 1
;Bar 162
	octave 3
	;note D#, 1
	octave 2
	;note F_, 1
	octave 3
	note C#, 1
	rest 1
	;note D#, 1
	octave 2
	volume_envelope 6, 7
	;note F_, 1
	octave 3
	note C#, 1
	rest 1
	;note C#, 1
	volume_envelope 7, 7
	;note D#, 1
	octave 2
	note F_, 1
	rest 1
	octave 3
	;note D#, 1
	octave 2
	;note F_, 1
	octave 3
	note C#, 3
	rest 1
	;note C#, 1
	;note D#, 1
	octave 2
	note F_, 3
	rest 1
	octave 3
	;note C#, 1
	octave 2
	;note F_, 1
	octave 3
	note D#, 1
	rest 1
;Bar 163
	octave 2
	;note A#, 1
	octave 3
	;note D#, 1
	octave 2
	note F#, 1
	rest 1
	volume_envelope 6, 7
	;note A#, 1
	octave 3
	volume_envelope 7, 7
	;note D#, 1
	octave 2
	note F#, 1
	rest 1
	;note A#, 1
	octave 3
	;note D#, 1
	octave 2
	note F#, 1
	rest 1
	;note A#, 1
	octave 3
	;note D#, 1
	octave 2
	note F#, 3
	rest 1
	;note A#, 1
	octave 3
	;note D#, 1
	octave 2
	volume_envelope 6, 7
	note F#, 1
	rest 3
	volume_envelope 5, 7
	;note A#, 1
	volume_envelope 6, 7
	;note F#, 1
	octave 3
	note D#, 2
;Bar 164
	volume_envelope 5, 7
	;note C_, 1
	volume_envelope 6, 7
	;note D#, 1
	octave 2
	note G#, 1
	rest 1
	octave 3
	volume_envelope 5, 7
	;note C_, 1
	volume_envelope 6, 7
	;note D#, 1
	octave 2
	volume_envelope 5, 7
	note G#, 1
	rest 1
	octave 3
	volume_envelope 4, 7
	;note C_, 1
	octave 2
	volume_envelope 5, 7
	;note G#, 1
	octave 3
	note D#, 1
	rest 1
	volume_envelope 4, 7
	;note C_, 1
	octave 2
	volume_envelope 5, 7
	;note G#, 1
	octave 3
	note D#, 1
	rest 3
	volume_envelope 4, 7
	;note C_, 1
	octave 2
	volume_envelope 5, 7
	;note G#, 1
	octave 3
	note D#, 4
	octave 2
	volume_envelope 4, 7
	;note A#, 1
	octave 3
	volume_envelope 5, 7
	;note D#, 1
	octave 2
	note G#, 1
	rest 1
;Bar 165
	octave 3
	;note D#, 1
	octave 2
	note G_, 1
	rest 1
	octave 3
	;note D#, 1
	octave 2
	volume_envelope 4, 7
	note G_, 2
	octave 3
	;note D#, 1
	octave 2
	note G_, 2
	octave 3
	;note D#, 1
	octave 2
	note G_, 3
	rest 1
	octave 3
	;note D#, 1
	octave 2
	note G_, 1
	rest 3
	;note G_, 1
	octave 3
	note D#, 1
	rest 1
;Bar 166
	;note D#, 1
	octave 2
	;note F_, 1
	octave 3
	note C#, 2
	volume_envelope 3, 7
	;note C#, 1
	volume_envelope 4, 7
	;note D#, 1
	octave 2
	note F_, 1
	rest 1
	octave 3
	;note C#, 1
	;note D#, 1
	octave 2
	note F_, 1
	rest 1
	octave 3
	;note D#, 1
	octave 2
	;note F_, 1
	octave 3
	volume_envelope 3, 7
	note C#, 2
	rest 2
	;note D#, 1
	octave 2
	;note F_, 1
	octave 3
	note C#, 4
	;note C#, 1
	octave 2
	;note F_, 1
	octave 3
	note D#, 1
	rest 1
;Bar 167
	octave 2
	;note A#, 1
	octave 3
	;note D#, 1
	octave 2
	note F#, 2
	volume_envelope 2, 7
	;note A#, 1
	octave 3
	volume_envelope 3, 7
	;note D#, 1
	octave 2
	volume_envelope 2, 7
	note F#, 1
	rest 1
	volume_envelope 3, 7
	;note A#, 1
	octave 3
	;note D#, 1
	octave 2
	note F#, 1
	rest 1
	volume_envelope 2, 7
	;note A#, 1
	octave 3
	volume_envelope 3, 7
	;note D#, 1
	octave 2
	note F#, 3
	rest 1
	octave 3
	volume_envelope 2, 7
	;note D#, 1
	octave 2
	;note F#, 1
	note A#, 4
	octave 3
	;note D#, 1
	octave 2
	;note F#, 1
	note A#, 1
	rest 1
;Bar 168
	octave 3
	;note C_, 1
	;note D#, 1
	octave 2
	note G#, 1
	rest 1
	octave 3
	;note C_, 1
	;note D#, 1
	octave 2
	note G#, 1
	rest 1
	octave 3
	;note C_, 1
	;note D#, 1
	octave 2
	note G#, 1
	rest 1
	octave 3
	;note C_, 1
	octave 2
	;note G#, 1
	octave 3
	note D#, 3
	rest 1
	;note C_, 1
	;note D#, 1
	octave 2
	note G#, 3
	rest 1
	;note A#, 1
	;note G#, 1
	octave 3
	note D#, 1
	rest 1
;Bar 169
	;note D#, 1
	octave 2
	note G_, 1
	rest 1
	octave 3
	;note D#, 1
	octave 2
	volume_envelope 1, 7
	note G_, 2
	octave 3
	volume_envelope 2, 7
	;note D#, 1
	octave 2
	volume_envelope 1, 7
	note G_, 1
	rest 1
	octave 3
	volume_envelope 2, 7
	;note D#, 1
	octave 2
	volume_envelope 1, 7
	note G_, 1
	rest 3
	octave 3
	;note D#, 1
	octave 2
	note G_, 3
	rest 1
	;note G_, 1
	octave 3
	note D#, 1
	rest 1
;Bar 170
	;note C#, 1
	;note D#, 1
	octave 2
	note F_, 1
	rest 1
	octave 3
	;note D#, 1
	octave 2
	;note F_, 1
	octave 3
	note C#, 1
	rest 1
	;note C#, 1
	;note D#, 1
	octave 2
	note F_, 1
	rest 1
	octave 3
	;note C#, 1
	;note D#, 1
	octave 2
	note F_, 1
	rest 3
	octave 3
	;note C#, 1
	;note D#, 1
	octave 2
	note F_, 3
	rest 1
	octave 3
	;note C#, 1
	octave 2
	;note F_, 1
	octave 3
	note D#, 1
	rest 1
;Bar 171
	octave 2
	;note A#, 1
	octave 3
	;note D#, 1
	octave 2
	note F#, 1
	rest 1
	;note A#, 1
	octave 3
	;note D#, 1
	octave 2
	note F#, 1
	rest 1
	;note A#, 1
	octave 3
	;note D#, 1
	octave 2
	note F#, 1
	rest 1
	;note A#, 1
	octave 3
	;note D#, 1
	octave 2
	note F#, 3
	rest 1
	;note A#, 1
	octave 3
	;note D#, 1
	octave 2
	note F#, 3
	rest 1
	;note A#, 1
	octave 3
	;note D#, 1
	octave 2
	note F#, 1
	rest 1
;Bar 172
	octave 3
	;note C_, 1
	;note D#, 1
	octave 2
	volume_envelope 10, 7
	note G#, 1
	rest 1
	octave 3
	;note C_, 1
	;note D#, 1
	octave 2
	note G#, 1
	rest 1
	octave 3
	;note C_, 1
	;note D#, 1
	octave 2
	note G#, 2
	octave 3
	;note C_, 1
	octave 2
	;note G#, 1
	octave 3
	note D#, 3
	rest 1
	;note C_, 1
	;note D#, 1
	octave 2
	note G#, 3
	rest 1
	;note G#, 1
	octave 3
	;note D#, 1
	octave 2
	note A#, 2
;Bar 173
	octave 3
	;note D#, 1
	octave 2
	note G_, 2
	octave 3
	;note D#, 1
	octave 2
	note G_, 1
	rest 1
	;note G_, 1
	octave 3
	note D#, 2
	;note D#, 1
	octave 2
	note G_, 3
	rest 1
	;note G_, 1
	octave 3
	volume_envelope 15, 7
	note D#, 3
	rest 1
	octave 2
	volume_envelope 14, 7
	;note G_, 1
	octave 3
	volume_envelope 15, 7
	note D#, 1
	rest 1
;Bar 174
	;note C#, 1
	;note D#, 1
	octave 2
	volume_envelope 10, 7
	note F_, 1
	rest 1
	octave 3
	;note C#, 1
	;note D#, 1
	octave 2
	note F_, 1
	rest 1
	octave 3
	;note C#, 1
	octave 2
	;note F_, 1
	octave 3
	note D#, 1
	rest 1
	;note C#, 1
	;note D#, 1
	octave 2
	note F_, 3
	rest 1
	octave 3
	;note C#, 1
	;note D#, 1
	octave 2
	note F_, 3
	rest 1
	;note F_, 1
	octave 3
	;note D#, 1
	note C#, 1
	rest 1
;Bar 175
	octave 2
	;note F#, 1
	octave 3
	;note D#, 1
	octave 2
	note A#, 1
	rest 1
	;note A#, 1
	octave 3
	;note D#, 1
	octave 2
	note F#, 1
	rest 1
	;note A#, 1
	octave 3
	;note D#, 1
	octave 2
	note F#, 1
	rest 1
	;note A#, 1
	octave 3
	;note D#, 1
	octave 2
	note F#, 3
	rest 1
	octave 3
	;note D#, 1
	octave 2
	;note F#, 1
	note A#, 3
	rest 1
	;note F#, 1
	octave 3
	;note D#, 1
	octave 2
	note A#, 1
	rest 1
;Bar 176
	octave 3
	;note C_, 1
	octave 2
	;note G#, 1
	octave 3
	note D#, 1
	rest 1
	;note C_, 1
	octave 2
	;note G#, 1
	octave 3
	note D#, 1
	rest 1
	;note C_, 1
	;note D#, 1
	octave 2
	note G#, 1
	rest 1
	octave 3
	;note C_, 1
	;note D#, 1
	octave 2
	note G#, 3
	rest 1
	octave 3
	;note C_, 1
	;note D#, 1
	octave 2
	note G#, 3
	rest 1
	;note A#, 1
	;note G#, 1
	octave 3
	note D#, 1
	sound_ret

; ============================================================================================================

Music_Moscow_Ch2:
	duty_cycle 1
	note_type 12, 10, 7
;Bar 1
	rest 16
	rest 16
	rest 16
	rest 16
	rest 16
	rest 16
	rest 16
	rest 16
	rest 16
	rest 16
	rest 16
	rest 16
	rest 16
	rest 16
	rest 16
	rest 16
	rest 16
	rest 16
	rest 16
	rest 16
	rest 16
	rest 16
	rest 16
	rest 16
	rest 16
	rest 16
	rest 16
	rest 16
	rest 16
	rest 16
	rest 16
	rest 16
	rest 16
	rest 16
;Bar 35
	octave 3
	note D#, 8
	note G#, 2
	volume_envelope 9, 7
	note D#, 2
	rest 2
	volume_envelope 10, 7
	note C#, 6
;Bar 36
	rest 2
	volume_envelope 8, 7
	note C#, 6
	rest 8
;Bar 37
	volume_envelope 10, 7
	note D#, 4
	note G#, 2
	volume_envelope 8, 7
	note D#, 2
	rest 2
	note C#, 6 ; WARNING: Auto-Sync says: Rounded up!
;Bar 38
	rest 2
	volume_envelope 10, 7
	note C#, 8
	rest 2
;Bar 39
	note C#, 8
	volume_envelope 8, 7
	note F#, 2
	volume_envelope 6, 7
	note C#, 2
	rest 2
	octave 2
	volume_envelope 7, 7
	note B_, 6
;Bar 40
	rest 2
	volume_envelope 9, 7
	note B_, 8
	rest 2
;Bar 41
	octave 3
	;note A_, 1
	;note E_, 1
	octave 2
	;note A_, 1
	volume_envelope 10, 7
	;note E_, 1
	octave 3
	;note C#, 1
	volume_envelope 8, 7
	note F#, 15
	rest 1
;Bar 42
	volume_envelope 10, 7
	;note C#, 1
	;note A_, 1
	volume_envelope 8, 7
	;note E_, 1
	volume_envelope 9, 7
	;note F#, 1
	octave 2
	volume_envelope 10, 7
	;note A_, 1
	note E_, 7
	rest 1
	octave 3
	volume_envelope 9, 7
	;note C#, 1
	octave 2
	volume_envelope 10, 7
	;note E_, 1
	octave 3
	;note E_, 1
	octave 2
	;note A_, 1
	octave 3
	;note A_, 1
	note F#, 1
	rest 3
	;note C#, 1
	;note A_, 1
	;note E_, 1
	octave 2
	;note E_, 1
	octave 3
	;note F#, 1
	octave 2
	volume_envelope 9, 7
	note A_, 16
	note A_, 16
	note A_, 5
;Bar 45
	rest 16
	rest 16
	rest 16
	rest 16
	rest 16
	rest 16
	rest 16
	rest 16
	rest 16
	rest 16
	rest 16
	rest 16
	rest 16
	rest 16
	rest 16
	rest 15
;Bar 61
	octave 3
	volume_envelope 10, 7
	note D#, 8
	note G#, 2
	volume_envelope 9, 7
	note D#, 2
	rest 2
	volume_envelope 10, 7
	note C#, 6
;Bar 62
	rest 2
	volume_envelope 8, 7
	note C#, 6 ; WARNING: Auto-Sync says: Rounded up!
	rest 8
;Bar 63
	volume_envelope 10, 7
	note D#, 4
	note G#, 2
	volume_envelope 8, 7
	note D#, 2
	rest 2
	note C#, 6
;Bar 64
	rest 2
	volume_envelope 10, 7
	note C#, 8
	rest 2
;Bar 65
	note C#, 7
	rest 1
	note F#, 2
	note C#, 2
	rest 2
	octave 2
	note B_, 6
;Bar 66
	rest 2
	note B_, 10
;Bar 67
	rest 4
	octave 3
	note C#, 2
	rest 2
	note F#, 2
	note C#, 2
	rest 2
	octave 2
	note B_, 6
;Bar 68
	rest 2
	note B_, 5
	rest 5
;Bar 69
	octave 3
	note D#, 8
	note G#, 2
	volume_envelope 9, 7
	note D#, 2
	rest 2
	volume_envelope 10, 7
	note C#, 6
;Bar 70
	rest 2
	volume_envelope 8, 7
	note C#, 6
	rest 8
;Bar 71
	volume_envelope 10, 7
	note D#, 4
	note G#, 2
	volume_envelope 8, 7
	note D#, 2
	rest 2
	note C#, 6
;Bar 72
	rest 2
	volume_envelope 10, 7
	note C#, 8
	rest 2
;Bar 73
	note C#, 8
	volume_envelope 9, 7
	;note F#, 1
	rest 2
	volume_envelope 10, 7
	note C#, 2
	rest 2
	octave 2
	note B_, 7
;Bar 74
	rest 1
	volume_envelope 9, 7
	note B_, 8
	rest 2
;Bar 75
	octave 3
	;note A_, 1
	;note E_, 1
	octave 2
	;note A_, 1
	volume_envelope 10, 7
	;note E_, 1
	octave 3
	;note C#, 1
	volume_envelope 8, 7
	note F#, 15
	rest 1
;Bar 76
	volume_envelope 10, 7
	;note C#, 1
	;note A_, 1
	volume_envelope 8, 7
	;note E_, 1
	volume_envelope 9, 7
	;note F#, 1
	octave 2
	volume_envelope 10, 7
	;note A_, 1
	note E_, 7
	rest 1
	octave 3
	volume_envelope 9, 7
	;note C#, 1
	octave 2
	volume_envelope 10, 7
	;note E_, 1
	octave 3
	;note E_, 1
	octave 2
	;note A_, 1
	octave 3
	;note A_, 1
	note F#, 1
	rest 3
	;note C#, 1
	;note A_, 1
	;note E_, 1
	octave 2
	;note E_, 1
	octave 3
	;note F#, 1
	octave 2
	volume_envelope 9, 7
	note A_, 16
	note A_, 16
	note A_, 5
;Bar 79
	rest 16
	rest 16
	rest 16
	rest 16
	rest 16
	rest 16
	rest 16
	rest 16
	rest 16
	rest 16
	rest 16
	rest 16
	rest 16
	rest 16
	rest 16
	rest 15
;Bar 95
	octave 3
	volume_envelope 10, 7
	note D#, 8
	note G#, 2
	volume_envelope 9, 7
	note D#, 2
	rest 2
	volume_envelope 10, 7
	note C#, 6
;Bar 96
	rest 2
	volume_envelope 8, 7
	note C#, 6
	rest 8
;Bar 97
	volume_envelope 10, 7
	note D#, 4
	note G#, 2
	volume_envelope 8, 7
	note D#, 2
	rest 2
	note C#, 6
;Bar 98
	rest 2
	volume_envelope 10, 7
	note C#, 8
	rest 2
;Bar 99
	note C#, 7
	rest 1
	note F#, 2
	note C#, 2
	rest 2
	octave 2
	note B_, 6
;Bar 100
	rest 2
	note B_, 10
;Bar 101
	rest 4
	octave 3
	note C#, 2
	rest 2
	note F#, 2
	note C#, 2
	rest 2
	octave 2
	note B_, 6
;Bar 102
	rest 2
	note B_, 5
	rest 5
;Bar 103
	octave 3
	note D#, 8
	note G#, 2
	volume_envelope 9, 7
	note D#, 2
	rest 2
	volume_envelope 10, 7
	note C#, 6
;Bar 104
	rest 2
	volume_envelope 8, 7
	note C#, 6
	rest 8
;Bar 105
	volume_envelope 10, 7
	note D#, 4
	note G#, 2
	volume_envelope 8, 7
	note D#, 2
	rest 2
	note C#, 6
;Bar 106
	rest 2
	volume_envelope 10, 7
	note C#, 8
	rest 2
;Bar 107
	note C#, 8
	volume_envelope 9, 7
	;note F#, 1
	rest 2
	volume_envelope 10, 7
	note C#, 2
	rest 2
	octave 2
	note B_, 7
;Bar 108
	rest 1
	volume_envelope 9, 7
	note B_, 8
	rest 2
;Bar 109
	octave 3
	;note A_, 1
	;note E_, 1
	octave 2
	;note A_, 1
	volume_envelope 10, 7
	;note E_, 1
	octave 3
	;note C#, 1
	volume_envelope 8, 7
	note F#, 15
	rest 1
;Bar 110
	volume_envelope 10, 7
	;note C#, 1
	;note A_, 1
	volume_envelope 8, 7
	;note E_, 1
	volume_envelope 9, 7
	;note F#, 1
	octave 2
	volume_envelope 10, 7
	;note A_, 1
	note E_, 7
	rest 1
	octave 3
	volume_envelope 9, 7
	;note C#, 1
	octave 2
	volume_envelope 10, 7
	;note E_, 1
	octave 3
	;note E_, 1
	octave 2
	;note A_, 1
	octave 3
	;note A_, 1
	note F#, 1
	rest 3
	;note C#, 1
	;note A_, 1
	;note E_, 1
	octave 2
	;note E_, 1
	octave 3
	;note F#, 1
	octave 2
	note A_, 16
	note A_, 16
	note A_, 16
	note A_, 16
	note A_, 16
	note A_, 16
	note A_, 16
	note A_, 16
	note A_, 16
	note A_, 16
	note A_, 16
	note A_, 16
	note A_, 16
	note A_, 16
	note A_, 16
	note A_, 16
	note A_, 16
	note A_, 16
	note A_, 16
	note A_, 16
	note A_, 16
	note A_, 16
	note A_, 16
	note A_, 16
	note A_, 16
	note A_, 16
	note A_, 16
	note A_, 16
	note A_, 16
	note A_, 16
	note A_, 16
	note A_, 16
	note A_, 16
	note A_, 16
	note A_, 16
	note A_, 16
	note A_, 16
	note A_, 16
	note A_, 16
	note A_, 16
	note A_, 16
	note A_, 16
	note A_, 16
	note A_, 16
	note A_, 16
	note A_, 16
	note A_, 16
	note A_, 16
	note A_, 16
	note A_, 16
	note A_, 16
	note A_, 16
	note A_, 16
	note A_, 16
	note A_, 16
	note A_, 16
	note A_, 16
	note A_, 16
	note A_, 16
	note A_, 16
	note A_, 16
	note A_, 16
	note A_, 13
	sound_ret

; ============================================================================================================

Music_Moscow_Ch3:
	note_type 12, 1, 0
;Bar 1
	volume_envelope 2, 0
	rest 16
	rest 16
	rest 16
	rest 16
	rest 16
	rest 16
	rest 16
	rest 16
	rest 16
	rest 16
	rest 16
	rest 16
	rest 16
	rest 16
	rest 16
	rest 16
	rest 16
	rest 16
;Bar 19
	octave 3
	;note D#, 1
	;note G_, 1
	note A#, 16
;Bar 20
	;note C#, 1
	;note A#, 1
	note F_, 16
;Bar 21
	;note F#, 1
	;note A#, 1
	note D#, 16
;Bar 22
	;note G#, 1
	octave 4
	;note C_, 1
	octave 3
	note D#, 16
;Bar 23
	;note A#, 1
	;note G_, 1
	note D#, 16
;Bar 24
	;note C#, 1
	;note A#, 1
	note F_, 16
;Bar 25
	;note F#, 1
	;note A#, 1
	note D#, 16
;Bar 26
	;note G#, 1
	octave 4
	;note C_, 1
	octave 3
	note D#, 16
;Bar 27
	;note A#, 1
	;note G_, 1
	octave 4
	note D#, 12
	rest 4
;Bar 28
	;note C#, 1
	;note F_, 1
	octave 3
	note G#, 14
	rest 2
;Bar 29
	octave 4
	;note F#, 1
	;note C#, 1
	octave 3
	note A#, 14
	rest 2
;Bar 30
	octave 4
	;note D#, 1
	;note G#, 1
	note C_, 14
	rest 2
;Bar 31
	octave 3
	;note A#, 1
	;note G_, 1
	note D#, 16
;Bar 32
	;note C#, 1
	;note A#, 1
	note F_, 16
;Bar 33
	;note F#, 1
	;note A#, 1
	;note D#, 1
	rest 6
	octave 4
	note D#, 4
	note C#, 2
	rest 2
	note C_, 2
;Bar 34
	octave 3
	;note G#, 1
	octave 4
	;note C_, 1
	octave 3
	note D#, 6
	octave 4
	note C#, 4
	note C_, 6
;Bar 35
	rest 16
	rest 16
	rest 16
	rest 16
	rest 16
	rest 16
	rest 16
	rest 16
	rest 16
	rest 16
;Bar 45
	octave 3
	;note D#, 1
	;note G_, 1
	note A#, 16
;Bar 46
	;note C#, 1
	;note A#, 1
	note F_, 16
;Bar 47
	;note F#, 1
	;note A#, 1
	;note D#, 1
	rest 4
	octave 5
	;note D#, 1
	octave 4
	note D#, 6
	;note C#, 1
	octave 5
	note C#, 6
;Bar 48
	;note C_, 1
	octave 3
	;note G#, 1
	octave 4
	;note C_, 1
	octave 3
	note D#, 6
	octave 4
	;note C#, 1
	octave 5
	note C#, 4
	;note C_, 1
	octave 4
	note C_, 6
;Bar 49
	;note A#, 1
	octave 3
	;note A#, 1
	;note G_, 1
	note D#, 16
;Bar 50
	;note C#, 1
	;note A#, 1
	note F_, 16
;Bar 51
	;note F#, 1
	;note A#, 1
	;note D#, 1
	rest 4
	octave 5
	;note D#, 1
	octave 4
	note D#, 6
	;note C#, 1
	octave 5
	note C#, 6
;Bar 52
	octave 3
	;note G#, 1
	;note D#, 1
	octave 4
	;note C_, 1
	octave 5
	note C_, 6
	octave 4
	;note C#, 1
	octave 5
	note C#, 4
	;note C_, 1
	octave 4
	note C_, 6
;Bar 53
	;note A#, 1
	octave 3
	;note A#, 1
	;note G_, 1
	octave 4
	note D#, 8
	;note D#, 1
	octave 5
	note D#, 8
;Bar 54
	octave 4
	;note C#, 1
	;note F_, 1
	octave 3
	;note G#, 1
	octave 5
	note F_, 16
;Bar 55
	;note F#, 1
	octave 4
	;note F#, 1
	;note C#, 1
	octave 3
	note A#, 16
;Bar 56
	octave 5
	;note G#, 1
	octave 4
	;note D#, 1
	;note G#, 1
	note C_, 14
	rest 2
;Bar 57
	octave 3
	;note A#, 1
	;note G_, 1
	note D#, 16
;Bar 58
	;note C#, 1
	;note A#, 1
	note F_, 16
;Bar 59
	;note F#, 1
	;note A#, 1
	;note D#, 1
	rest 4
	octave 4
	;note D#, 1
	octave 5
	note D#, 2
	octave 4
	note D#, 4
	octave 5
	;note C#, 1
	octave 4
	note C#, 2
	rest 2
	note C_, 2
;Bar 60
	octave 3
	;note G#, 1
	;note D#, 1
	octave 5
	;note C_, 1
	octave 4
	note C_, 6
	;note C#, 1
	octave 5
	note C#, 4
	;note D#, 1
	octave 4
	note D#, 6
;Bar 61
	rest 16
	rest 16
	rest 16
	rest 16
	rest 16
	rest 16
	rest 16
	rest 16
	rest 16
	rest 16
	rest 16
	rest 16
	rest 16
	rest 16
	rest 16
	rest 16
	rest 16
	rest 16
;Bar 79
	octave 3
	;note D#, 1
	;note G_, 1
	note A#, 16
;Bar 80
	;note C#, 1
	;note A#, 1
	note F_, 16
;Bar 81
	;note F#, 1
	;note A#, 1
	;note D#, 1
	rest 4
	octave 5
	;note D#, 1
	octave 4
	note D#, 6
	;note C#, 1
	octave 5
	note C#, 6
;Bar 82
	;note C_, 1
	octave 3
	;note G#, 1
	octave 4
	;note C_, 1
	octave 3
	note D#, 6
	octave 4
	;note C#, 1
	octave 5
	note C#, 4
	;note C_, 1
	octave 4
	note C_, 6
;Bar 83
	;note A#, 1
	octave 3
	;note A#, 1
	;note G_, 1
	note D#, 16
;Bar 84
	;note C#, 1
	;note A#, 1
	note F_, 16
;Bar 85
	;note F#, 1
	;note A#, 1
	;note D#, 1
	rest 4
	octave 5
	;note D#, 1
	octave 4
	note D#, 6
	;note C#, 1
	octave 5
	note C#, 6
;Bar 86
	octave 3
	;note G#, 1
	;note D#, 1
	octave 4
	;note C_, 1
	octave 5
	note C_, 6
	octave 4
	;note C#, 1
	octave 5
	note C#, 4
	;note C_, 1
	octave 4
	note C_, 6
;Bar 87
	;note A#, 1
	octave 3
	;note A#, 1
	;note G_, 1
	octave 4
	note D#, 8
	;note D#, 1
	octave 5
	note D#, 8
;Bar 88
	octave 4
	;note C#, 1
	;note F_, 1
	octave 3
	;note G#, 1
	octave 5
	note F_, 16
;Bar 89
	;note F#, 1
	octave 4
	;note F#, 1
	;note C#, 1
	octave 3
	note A#, 16
;Bar 90
	octave 5
	;note G#, 1
	octave 4
	;note D#, 1
	;note G#, 1
	note C_, 14
	rest 2
;Bar 91
	octave 3
	;note A#, 1
	;note G_, 1
	note D#, 16
;Bar 92
	;note C#, 1
	;note A#, 1
	note F_, 16
;Bar 93
	;note F#, 1
	;note A#, 1
	;note D#, 1
	rest 4
	octave 4
	;note D#, 1
	octave 5
	note D#, 2
	octave 4
	note D#, 4
	octave 5
	;note C#, 1
	octave 4
	note C#, 2
	rest 2
	note C_, 2
;Bar 94
	octave 3
	;note G#, 1
	;note D#, 1
	octave 5
	;note C_, 1
	octave 4
	note C_, 6
	;note C#, 1
	octave 5
	note C#, 4
	;note D#, 1
	octave 4
	note D#, 6
;Bar 95
	rest 16
	rest 16
	rest 16
	rest 16
	rest 16
	rest 16
	rest 16
	rest 16
	rest 16
	rest 16
	rest 16
	rest 16
	rest 16
	rest 16
	rest 16
	rest 16
	rest 16
	rest 16
;Bar 113
	octave 3
	;note E_, 1
	;note G#, 1
	note B_, 16
;Bar 114
	;note D_, 1
	;note B_, 1
	note F#, 16
;Bar 115
	;note G_, 1
	;note B_, 1
	;note E_, 1
	rest 4
	octave 5
	;note E_, 1
	octave 4
	note E_, 6
	;note D_, 1
	octave 5
	note D_, 6
;Bar 116
	;note C#, 1
	octave 3
	;note A_, 1
	octave 4
	;note C#, 1
	octave 3
	note E_, 6
	octave 4
	;note D_, 1
	octave 5
	note D_, 4
	;note C#, 1
	octave 4
	note C#, 6
;Bar 117
	;note B_, 1
	octave 3
	;note B_, 1
	;note G#, 1
	note E_, 16
;Bar 118
	;note D_, 1
	;note B_, 1
	note F#, 16
;Bar 119
	;note G_, 1
	;note B_, 1
	;note E_, 1
	rest 4
	octave 5
	;note E_, 1
	octave 4
	note E_, 6
	;note D_, 1
	octave 5
	note D_, 6
;Bar 120
	octave 3
	;note A_, 1
	;note E_, 1
	octave 4
	;note C#, 1
	octave 5
	note C#, 6
	octave 4
	;note D_, 1
	octave 5
	note D_, 4
	;note C#, 1
	octave 4
	note C#, 6
;Bar 121
	;note B_, 1
	octave 3
	;note B_, 1
	;note G#, 1
	octave 4
	note E_, 8
	;note E_, 1
	octave 5
	note E_, 8
;Bar 122
	octave 4
	;note D_, 1
	;note F#, 1
	octave 3
	;note A_, 1
	octave 5
	note F#, 16
;Bar 123
	;note G_, 1
	octave 4
	;note G_, 1
	;note D_, 1
	octave 3
	note B_, 16
;Bar 124
	octave 5
	;note A_, 1
	octave 4
	;note E_, 1
	;note A_, 1
	note C#, 14
	rest 2
;Bar 125
	octave 3
	;note B_, 1
	;note G#, 1
	note E_, 16
;Bar 126
	;note D_, 1
	;note B_, 1
	note F#, 16
;Bar 127
	;note G_, 1
	;note B_, 1
	;note E_, 1
	rest 4
	octave 4
	;note E_, 1
	octave 5
	note E_, 2
	octave 4
	note E_, 4
	octave 5
	;note D_, 1
	octave 4
	note D_, 2
	rest 2
	note C#, 2
;Bar 128
	octave 3
	;note A_, 1
	;note E_, 1
	octave 5
	;note C#, 1
	octave 4
	note C#, 6
	;note D_, 1
	octave 5
	note D_, 4
	;note E_, 1
	octave 4
	note E_, 6
;Bar 129
	octave 3
	;note E_, 1
	;note G#, 1
	note B_, 16
;Bar 130
	;note D_, 1
	;note B_, 1
	note F#, 16
;Bar 131
	;note G_, 1
	;note B_, 1
	;note E_, 1
	rest 4
	octave 5
	;note E_, 1
	octave 4
	note E_, 6
	;note D_, 1
	octave 5
	note D_, 6
;Bar 132
	;note C#, 1
	octave 3
	;note A_, 1
	octave 4
	;note C#, 1
	octave 3
	note E_, 6
	octave 4
	;note D_, 1
	octave 5
	note D_, 4
	;note C#, 1
	octave 4
	note C#, 6
;Bar 133
	;note B_, 1
	octave 3
	;note B_, 1
	;note G#, 1
	note E_, 16
;Bar 134
	;note D_, 1
	;note B_, 1
	note F#, 16
;Bar 135
	;note G_, 1
	;note B_, 1
	;note E_, 1
	rest 4
	octave 5
	;note E_, 1
	octave 4
	note E_, 6
	;note D_, 1
	octave 5
	note D_, 6
;Bar 136
	octave 3
	;note A_, 1
	;note E_, 1
	octave 4
	;note C#, 1
	octave 5
	note C#, 6
	octave 4
	;note D_, 1
	octave 5
	note D_, 4
	;note C#, 1
	octave 4
	note C#, 6
;Bar 137
	;note B_, 1
	octave 3
	;note B_, 1
	;note G#, 1
	octave 4
	note E_, 8
	;note E_, 1
	octave 5
	note E_, 8
;Bar 138
	octave 4
	;note D_, 1
	;note F#, 1
	octave 3
	;note A_, 1
	octave 5
	note F#, 16
;Bar 139
	;note G_, 1
	octave 4
	;note G_, 1
	;note D_, 1
	octave 3
	note B_, 16
;Bar 140
	octave 5
	;note A_, 1
	octave 4
	;note E_, 1
	;note A_, 1
	note C#, 14
	rest 2
;Bar 141
	octave 3
	;note B_, 1
	;note G#, 1
	note E_, 16
;Bar 142
	;note D_, 1
	;note B_, 1
	note F#, 16
;Bar 143
	;note G_, 1
	;note B_, 1
	;note E_, 1
	rest 4
	octave 4
	;note E_, 1
	octave 5
	note E_, 2
	octave 4
	note E_, 4
	octave 5
	;note D_, 1
	octave 4
	note D_, 2
	rest 2
	note C#, 2
;Bar 144
	octave 3
	;note A_, 1
	;note E_, 1
	octave 5
	;note C#, 1
	octave 4
	note C#, 6
	;note D_, 1
	octave 5
	note D_, 4
	;note E_, 1
	octave 4
	note E_, 6
;Bar 145
	octave 3
	;note D#, 1
	;note G_, 1
	note A#, 16
;Bar 146
	;note C#, 1
	;note A#, 1
	note F_, 16
;Bar 147
	;note F#, 1
	;note A#, 1
	;note D#, 1
	rest 4
	octave 5
	;note D#, 1
	octave 4
	note D#, 6
	;note C#, 1
	octave 5
	note C#, 6
;Bar 148
	;note C_, 1
	octave 3
	;note G#, 1
	octave 4
	;note C_, 1
	octave 3
	note D#, 6
	octave 4
	;note C#, 1
	octave 5
	note C#, 4
	;note C_, 1
	octave 4
	note C_, 6
;Bar 149
	;note A#, 1
	octave 3
	;note A#, 1
	;note G_, 1
	note D#, 16
;Bar 150
	;note C#, 1
	;note A#, 1
	note F_, 16
;Bar 151
	;note F#, 1
	;note A#, 1
	;note D#, 1
	rest 4
	octave 5
	;note D#, 1
	octave 4
	note D#, 6
	;note C#, 1
	octave 5
	note C#, 6
;Bar 152
	octave 3
	;note G#, 1
	;note D#, 1
	octave 4
	;note C_, 1
	octave 5
	note C_, 6
	octave 4
	;note C#, 1
	octave 5
	note C#, 4
	;note C_, 1
	octave 4
	note C_, 6
;Bar 153
	;note A#, 1
	octave 3
	;note A#, 1
	;note G_, 1
	octave 4
	note D#, 8
	;note D#, 1
	octave 5
	note D#, 8
;Bar 154
	octave 4
	;note C#, 1
	;note F_, 1
	octave 3
	;note G#, 1
	octave 5
	note F_, 16
;Bar 155
	;note F#, 1
	octave 4
	;note F#, 1
	;note C#, 1
	octave 3
	note A#, 16
;Bar 156
	octave 5
	;note G#, 1
	octave 4
	;note D#, 1
	;note G#, 1
	note C_, 14
	rest 2
;Bar 157
	octave 3
	;note A#, 1
	;note G_, 1
	note D#, 16
;Bar 158
	;note C#, 1
	;note A#, 1
	note F_, 16
;Bar 159
	;note F#, 1
	;note A#, 1
	;note D#, 1
	rest 4
	octave 4
	;note D#, 1
	octave 5
	note D#, 2
	octave 4
	note D#, 4
	octave 5
	;note C#, 1
	octave 4
	note C#, 2
	rest 2
	note C_, 2
;Bar 160
	octave 3
	;note G#, 1
	;note D#, 1
	octave 5
	;note C_, 1
	octave 4
	note C_, 6
	;note C#, 1
	octave 5
	note C#, 4
	;note D#, 1
	octave 4
	note D#, 6
;Bar 161
	octave 3
	;note D#, 1
	;note G_, 1
	note A#, 16
;Bar 162
	;note C#, 1
	;note A#, 1
	note F_, 5
	rest 11
;Bar 163
	;note F#, 1
	;note A#, 1
	note D#, 1
	rest 3
	octave 5
	;note D#, 1
	octave 4
	note D#, 3
	rest 3
	;note C#, 1
	octave 5
	note C#, 1
	rest 5
;Bar 164
	;note C_, 1
	octave 3
	;note G#, 1
	octave 4
	;note C_, 1
	octave 3
	note D#, 3
	rest 3
	octave 4
	;note C#, 1
	octave 5
	note C#, 1
	rest 3
	;note C_, 1
	octave 4
	note C_, 3
	rest 3
;Bar 165
	;note A#, 1
	octave 3
	;note A#, 1
	;note G_, 1
	note D#, 3
	rest 13
;Bar 166
	;note C#, 1
	;note A#, 1
	volume_envelope 3, 0
	note F_, 6
	rest 10
;Bar 167
	;note F#, 1
	;note A#, 1
	;note D#, 1
	rest 4
	octave 5
	;note D#, 1
	octave 4
	note D#, 3
	rest 3
	;note C#, 1
	octave 5
	note C#, 1
	rest 5
;Bar 168
	octave 3
	;note G#, 1
	;note D#, 1
	octave 4
	;note C_, 1
	octave 5
	note C_, 2
	rest 4
	octave 4
	;note C#, 1
	octave 5
	note C#, 1
	rest 3
	;note C_, 1
	octave 4
	note C_, 4
	rest 2
;Bar 169
	;note A#, 1
	octave 3
	;note A#, 1
	;note G_, 1
	octave 4
	note D#, 2
	rest 6
	;note D#, 1
	octave 5
	note D#, 6
	rest 2
;Bar 170
	octave 4
	;note C#, 1
	;note F_, 1
	octave 3
	;note G#, 1
	octave 5
	volume_envelope 2, 0
	note F_, 6
	rest 10
;Bar 171
	;note F#, 1
	octave 4
	;note F#, 1
	;note C#, 1
	octave 3
	note A#, 7
	rest 9
;Bar 172
	octave 5
	;note G#, 1
	octave 4
	;note D#, 1
	;note G#, 1
	note C_, 14
	rest 2
;Bar 173
	octave 3
	;note A#, 1
	;note G_, 1
	note D#, 16
;Bar 174
	;note C#, 1
	;note A#, 1
	note F_, 16
;Bar 175
	;note F#, 1
	;note A#, 1
	;note D#, 1
	rest 4
	octave 4
	;note D#, 1
	octave 5
	note D#, 2
	octave 4
	note D#, 4
	octave 5
	;note C#, 1
	octave 4
	note C#, 2
	rest 2
	note C_, 2
;Bar 176
	octave 3
	;note G#, 1
	;note D#, 1
	octave 5
	;note C_, 1
	octave 4
	note C_, 6
	;note C#, 1
	octave 5
	note C#, 4
	;note D#, 1
	octave 4
	note D#, 6
	sound_ret

; ============================================================================================================

Music_Moscow_Ch4:
	toggle_noise 1
	drum_speed 12
;Bar 1
	;note C#, 1
	drum_note 12, 2
	drum_note 10, 2
	drum_note 11, 2
	drum_note 2, 2
	drum_note 4, 2
	drum_note 2, 2
	drum_note 11, 4
;Bar 2
	;note B_, 1
	drum_note 2, 2
	drum_note 10, 2
	drum_note 11, 2
	drum_note 2, 2
	drum_note 4, 2
	drum_note 2, 2
	drum_note 11, 2
	drum_note 2, 2
;Bar 3
	;note B_, 1
	drum_note 2, 2
	drum_note 10, 2
	drum_note 11, 2
	drum_note 2, 2
	drum_note 4, 2
	drum_note 2, 2
	drum_note 11, 4
;Bar 4
	;note B_, 1
	drum_note 2, 2
	drum_note 10, 2
	drum_note 11, 2
	drum_note 2, 2
	drum_note 4, 2
	drum_note 2, 2
	drum_note 11, 2
	drum_note 2, 2
;Bar 5
	;note C#, 1
	drum_note 12, 2
	drum_note 10, 2
	drum_note 11, 2
	drum_note 2, 2
	drum_note 4, 2
	drum_note 2, 2
	drum_note 11, 4
;Bar 6
	;note B_, 1
	drum_note 2, 2
	drum_note 10, 2
	drum_note 11, 2
	drum_note 2, 2
	drum_note 4, 2
	drum_note 2, 2
	drum_note 11, 2
	drum_note 2, 2
;Bar 7
	;note B_, 1
	drum_note 2, 2
	drum_note 10, 2
	drum_note 11, 2
	drum_note 2, 2
	drum_note 4, 2
	drum_note 2, 2
	drum_note 11, 4
;Bar 8
	;note B_, 1
	drum_note 2, 2
	drum_note 10, 2
	drum_note 11, 2
	drum_note 2, 2
	drum_note 4, 2
	drum_note 2, 2
	drum_note 11, 2
	drum_note 2, 2
;Bar 9
	;note B_, 1
	drum_note 2, 2
	drum_note 10, 2
	drum_note 11, 2
	drum_note 2, 2
	drum_note 4, 2
	drum_note 2, 2
	drum_note 11, 4
;Bar 10
	;note B_, 1
	drum_note 2, 2
	drum_note 10, 2
	drum_note 11, 2
	drum_note 2, 2
	drum_note 4, 2
	drum_note 2, 2
	drum_note 11, 2
	drum_note 2, 2
;Bar 11
	;note B_, 1
	drum_note 2, 2
	drum_note 10, 2
	drum_note 11, 2
	drum_note 2, 2
	drum_note 4, 2
	drum_note 2, 2
	drum_note 11, 4
;Bar 12
	;note B_, 1
	drum_note 2, 2
	drum_note 10, 2
	drum_note 11, 2
	drum_note 2, 2
	drum_note 4, 2
	drum_note 2, 2
	drum_note 11, 2
	drum_note 2, 2
;Bar 13
	;note B_, 1
	drum_note 2, 2
	drum_note 10, 2
	drum_note 11, 2
	drum_note 2, 2
	drum_note 4, 2
	drum_note 2, 2
	drum_note 11, 4
;Bar 14
	;note B_, 1
	drum_note 2, 2
	drum_note 10, 2
	drum_note 11, 2
	drum_note 2, 2
	drum_note 4, 2
	drum_note 2, 2
	drum_note 11, 2
	drum_note 2, 2
;Bar 15
	;note B_, 1
	drum_note 2, 2
	drum_note 10, 2
	drum_note 11, 2
	drum_note 2, 2
	drum_note 4, 2
	drum_note 2, 2
	drum_note 11, 4
;Bar 16
	;note B_, 1
	drum_note 2, 2
	drum_note 10, 2
	drum_note 11, 2
	drum_note 2, 2
	drum_note 4, 2
	drum_note 2, 2
	drum_note 11, 2
	drum_note 2, 2
;Bar 17
	;note C#, 1
	drum_note 12, 2
	drum_note 10, 2
	drum_note 11, 2
	drum_note 2, 2
	drum_note 4, 2
	drum_note 2, 2
	drum_note 11, 4
;Bar 18
	;note B_, 1
	drum_note 2, 2
	drum_note 10, 2
	drum_note 11, 2
	drum_note 2, 2
	drum_note 4, 2
	drum_note 2, 2
	drum_note 11, 2
	drum_note 2, 2
;Bar 19
	;note B_, 1
	drum_note 2, 2
	drum_note 10, 2
	drum_note 11, 2
	drum_note 2, 2
	drum_note 4, 2
	drum_note 2, 2
	drum_note 11, 4
;Bar 20
	;note B_, 1
	drum_note 2, 2
	drum_note 10, 2
	drum_note 11, 2
	drum_note 2, 2
	drum_note 4, 2
	drum_note 2, 2
	drum_note 11, 2
	drum_note 2, 2
;Bar 21
	;note C#, 1
	drum_note 12, 2
	drum_note 10, 2
	drum_note 11, 2
	drum_note 2, 2
	drum_note 4, 2
	drum_note 2, 2
	drum_note 11, 4
;Bar 22
	;note B_, 1
	drum_note 2, 2
	drum_note 10, 2
	drum_note 11, 2
	drum_note 2, 2
	drum_note 4, 2
	drum_note 2, 2
	drum_note 11, 2
	drum_note 2, 2
;Bar 23
	;note B_, 1
	drum_note 2, 2
	drum_note 10, 2
	drum_note 11, 2
	drum_note 2, 2
	drum_note 4, 2
	drum_note 2, 2
	drum_note 11, 4
;Bar 24
	;note B_, 1
	drum_note 2, 2
	drum_note 10, 2
	drum_note 11, 2
	drum_note 2, 2
	drum_note 4, 2
	drum_note 2, 2
	drum_note 11, 2
	drum_note 2, 2
;Bar 25
	;note B_, 1
	drum_note 2, 2
	drum_note 10, 2
	drum_note 11, 2
	drum_note 2, 2
	drum_note 4, 2
	drum_note 2, 2
	drum_note 11, 4
;Bar 26
	;note B_, 1
	drum_note 2, 2
	drum_note 10, 2
	drum_note 11, 2
	drum_note 2, 2
	drum_note 4, 2
	drum_note 2, 2
	drum_note 11, 2
	drum_note 2, 2
;Bar 27
	;note B_, 1
	drum_note 2, 2
	drum_note 10, 2
	drum_note 11, 2
	drum_note 2, 2
	drum_note 4, 2
	drum_note 2, 2
	drum_note 11, 4
;Bar 28
	;note B_, 1
	drum_note 2, 2
	drum_note 10, 2
	drum_note 11, 2
	drum_note 2, 2
	drum_note 4, 2
	drum_note 2, 2
	drum_note 11, 2
	drum_note 2, 2
;Bar 29
	;note C#, 1
	drum_note 12, 2
	drum_note 10, 2
	drum_note 11, 2
	drum_note 2, 2
	drum_note 4, 2
	drum_note 2, 2
	drum_note 11, 4
;Bar 30
	;note B_, 1
	drum_note 2, 2
	drum_note 10, 2
	drum_note 11, 2
	drum_note 2, 2
	drum_note 4, 2
	drum_note 2, 2
	drum_note 11, 2
	drum_note 2, 2
;Bar 31
	;note B_, 1
	drum_note 2, 2
	drum_note 10, 2
	drum_note 11, 2
	drum_note 2, 2
	drum_note 4, 2
	drum_note 2, 2
	drum_note 11, 4
;Bar 32
	;note B_, 1
	drum_note 2, 2
	drum_note 10, 2
	drum_note 11, 2
	drum_note 2, 2
	drum_note 4, 2
	drum_note 2, 2
	drum_note 11, 2
	drum_note 2, 2
;Bar 33
	;note C#, 1
	drum_note 12, 2
	drum_note 10, 2
	drum_note 11, 2
	drum_note 2, 2
	drum_note 4, 2
	drum_note 2, 2
	drum_note 11, 4
;Bar 34
	;note B_, 1
	drum_note 2, 2
	drum_note 10, 2
	drum_note 11, 2
	drum_note 2, 2
	drum_note 4, 2
	drum_note 2, 2
	drum_note 11, 2
	drum_note 2, 2
;Bar 35
	;note B_, 1
	drum_note 2, 2
	drum_note 10, 2
	drum_note 11, 2
	drum_note 2, 2
	;note D#, 1
	drum_note 4, 2
	drum_note 2, 2
	drum_note 11, 4
;Bar 36
	;note B_, 1
	drum_note 2, 2
	drum_note 10, 2
	drum_note 11, 2
	drum_note 2, 2
	;note D#, 1
	drum_note 4, 2
	drum_note 2, 2
	drum_note 11, 2
	drum_note 2, 2
;Bar 37
	;note B_, 1
	drum_note 2, 2
	drum_note 10, 2
	drum_note 11, 2
	drum_note 2, 2
	;note D#, 1
	drum_note 4, 2
	drum_note 2, 2
	drum_note 11, 4
;Bar 38
	;note B_, 1
	drum_note 2, 2
	drum_note 10, 2
	drum_note 11, 2
	drum_note 2, 2
	;note D#, 1
	drum_note 4, 2
	drum_note 2, 2
	drum_note 11, 2
	drum_note 2, 2
;Bar 39
	;note B_, 1
	drum_note 2, 2
	drum_note 10, 2
	drum_note 11, 2
	drum_note 2, 2
	;note D#, 1
	drum_note 4, 2
	drum_note 2, 2
	drum_note 11, 4
;Bar 40
	;note B_, 1
	drum_note 2, 2
	drum_note 10, 2
	drum_note 11, 2
	drum_note 2, 2
	;note D#, 1
	drum_note 4, 2
	drum_note 2, 2
	drum_note 11, 2
	drum_note 2, 2
;Bar 41
	drum_note 12, 16
;Bar 42
	drum_note 12, 16
;Bar 43
	drum_note 12, 16
;Bar 44
	drum_note 12, 4
	;note A_, 1
	drum_note 3, 2
	drum_note 11, 2
	drum_note 2, 2
	;note F#, 1
	drum_note 3, 6
;Bar 45
	;note C#, 1
	drum_note 12, 2
	drum_note 10, 2
	drum_note 11, 2
	drum_note 2, 2
	drum_note 4, 2
	drum_note 2, 2
	drum_note 11, 4
;Bar 46
	;note B_, 1
	drum_note 2, 2
	drum_note 10, 2
	drum_note 11, 2
	drum_note 2, 2
	drum_note 4, 2
	drum_note 2, 2
	drum_note 11, 2
	drum_note 2, 2
;Bar 47
	;note B_, 1
	drum_note 2, 2
	drum_note 10, 2
	drum_note 11, 2
	drum_note 2, 2
	drum_note 4, 2
	drum_note 2, 2
	drum_note 11, 4
;Bar 48
	;note B_, 1
	drum_note 2, 2
	drum_note 10, 2
	;note A#, 1
	drum_note 3, 2
	drum_note 2, 2
	drum_note 4, 2
	;note D_, 1
	drum_note 2, 2
	drum_note 11, 2
	drum_note 2, 2
;Bar 49
	;note C#, 1
	drum_note 12, 2
	drum_note 10, 2
	drum_note 11, 2
	drum_note 2, 2
	drum_note 4, 2
	drum_note 2, 2
	drum_note 11, 4
;Bar 50
	;note B_, 1
	drum_note 2, 2
	drum_note 10, 2
	drum_note 11, 2
	drum_note 2, 2
	drum_note 4, 2
	drum_note 2, 2
	drum_note 11, 2
	drum_note 2, 2
;Bar 51
	;note B_, 1
	drum_note 2, 2
	drum_note 10, 2
	drum_note 11, 2
	drum_note 2, 2
	drum_note 4, 2
	drum_note 2, 2
	drum_note 11, 4
;Bar 52
	;note B_, 1
	drum_note 2, 2
	drum_note 10, 2
	;note A#, 1
	drum_note 3, 2
	drum_note 2, 2
	drum_note 4, 2
	;note C#, 1
	drum_note 3, 2
	drum_note 11, 2
	drum_note 2, 2
;Bar 53
	;note B_, 1
	drum_note 2, 2
	drum_note 10, 2
	drum_note 11, 2
	drum_note 2, 2
	drum_note 4, 2
	drum_note 2, 2
	drum_note 11, 4
;Bar 54
	;note B_, 1
	drum_note 2, 2
	drum_note 10, 2
	drum_note 11, 2
	drum_note 2, 2
	drum_note 4, 2
	drum_note 2, 2
	drum_note 11, 2
	drum_note 2, 2
;Bar 55
	;note B_, 1
	drum_note 2, 2
	drum_note 10, 2
	drum_note 11, 2
	drum_note 2, 2
	drum_note 4, 2
	drum_note 2, 2
	drum_note 11, 4
;Bar 56
	;note B_, 1
	drum_note 2, 2
	drum_note 10, 2
	;note A#, 1
	drum_note 3, 2
	drum_note 2, 2
	drum_note 4, 2
	;note C#, 1
	drum_note 3, 2
	drum_note 11, 2
	drum_note 2, 2
;Bar 57
	;note C#, 1
	drum_note 12, 2
	drum_note 10, 2
	drum_note 11, 2
	drum_note 2, 2
	drum_note 4, 2
	drum_note 2, 2
	drum_note 11, 4
;Bar 58
	;note B_, 1
	drum_note 2, 2
	drum_note 10, 2
	drum_note 11, 2
	drum_note 2, 2
	drum_note 4, 2
	drum_note 2, 2
	drum_note 11, 2
	drum_note 2, 2
;Bar 59
	;note B_, 1
	drum_note 2, 2
	drum_note 10, 2
	drum_note 11, 2
	drum_note 2, 2
	drum_note 4, 2
	drum_note 2, 2
	drum_note 11, 4
;Bar 60
	;note B_, 1
	drum_note 2, 2
	drum_note 10, 2
	;note A#, 1
	drum_note 3, 2
	drum_note 2, 2
	drum_note 4, 2
	;note D_, 1
	drum_note 2, 2
	drum_note 11, 2
	drum_note 2, 2
;Bar 61
	;note C#, 1
	drum_note 12, 2
	drum_note 10, 2
	drum_note 11, 2
	drum_note 2, 2
	;note D#, 1
	drum_note 4, 2
	drum_note 2, 2
	drum_note 11, 4
;Bar 62
	;note B_, 1
	drum_note 2, 2
	drum_note 10, 2
	drum_note 11, 2
	drum_note 2, 2
	;note D#, 1
	drum_note 4, 2
	drum_note 2, 2
	drum_note 11, 2
	drum_note 2, 2
;Bar 63
	;note B_, 1
	drum_note 2, 2
	drum_note 10, 2
	drum_note 11, 2
	drum_note 2, 2
	;note D#, 1
	drum_note 4, 2
	drum_note 2, 2
	drum_note 11, 4
;Bar 64
	;note B_, 1
	drum_note 2, 2
	drum_note 10, 2
	drum_note 11, 2
	drum_note 2, 2
	;note D#, 1
	drum_note 4, 2
	drum_note 2, 2
	drum_note 11, 2
	drum_note 2, 2
;Bar 65
	;note B_, 1
	drum_note 2, 2
	drum_note 10, 2
	drum_note 11, 2
	drum_note 2, 2
	;note D#, 1
	drum_note 4, 2
	drum_note 2, 2
	drum_note 11, 4
;Bar 66
	;note B_, 1
	drum_note 2, 2
	drum_note 10, 2
	drum_note 11, 2
	drum_note 2, 2
	;note D#, 1
	drum_note 4, 2
	drum_note 2, 2
	drum_note 11, 2
	drum_note 2, 2
;Bar 67
	;note B_, 1
	drum_note 2, 2
	drum_note 10, 2
	drum_note 11, 2
	drum_note 2, 2
	;note D#, 1
	drum_note 4, 2
	drum_note 2, 2
	drum_note 11, 4
;Bar 68
	;note B_, 1
	drum_note 2, 2
	drum_note 10, 2
	drum_note 11, 2
	drum_note 2, 2
	;note D#, 1
	drum_note 4, 2
	drum_note 2, 2
	drum_note 11, 2
	drum_note 2, 2
;Bar 69
	;note B_, 1
	drum_note 2, 2
	drum_note 10, 2
	drum_note 11, 2
	drum_note 2, 2
	;note D#, 1
	drum_note 4, 2
	drum_note 2, 2
	drum_note 11, 4
;Bar 70
	;note B_, 1
	drum_note 2, 2
	drum_note 10, 2
	drum_note 11, 2
	drum_note 2, 2
	;note D#, 1
	drum_note 4, 2
	drum_note 2, 2
	drum_note 11, 2
	drum_note 2, 2
;Bar 71
	;note B_, 1
	drum_note 2, 2
	drum_note 10, 2
	drum_note 11, 2
	drum_note 2, 2
	;note D#, 1
	drum_note 4, 2
	drum_note 2, 2
	drum_note 11, 4
;Bar 72
	;note B_, 1
	drum_note 2, 2
	drum_note 10, 2
	drum_note 11, 2
	drum_note 2, 2
	;note D#, 1
	drum_note 4, 2
	drum_note 2, 2
	drum_note 11, 2
	drum_note 2, 2
;Bar 73
	;note C#, 1
	drum_note 12, 2
	drum_note 10, 2
	drum_note 11, 2
	drum_note 2, 2
	;note D#, 1
	drum_note 4, 2
	drum_note 2, 2
	drum_note 11, 4
;Bar 74
	;note B_, 1
	drum_note 2, 2
	drum_note 10, 2
	drum_note 11, 2
	drum_note 2, 2
	;note D#, 1
	drum_note 4, 2
	drum_note 2, 2
	drum_note 11, 2
	drum_note 2, 2
;Bar 75
	drum_note 12, 16
;Bar 76
	drum_note 12, 16
;Bar 77
	drum_note 12, 16
;Bar 78
	drum_note 12, 4
	;note A_, 1
	drum_note 3, 2
	drum_note 11, 2
	drum_note 2, 2
	;note F#, 1
	drum_note 3, 6
;Bar 79
	;note B_, 1
	drum_note 2, 2
	drum_note 10, 2
	drum_note 11, 2
	drum_note 2, 2
	drum_note 4, 2
	drum_note 2, 2
	drum_note 11, 4
;Bar 80
	;note B_, 1
	drum_note 2, 2
	drum_note 10, 2
	drum_note 11, 2
	drum_note 2, 2
	drum_note 4, 2
	drum_note 2, 2
	drum_note 11, 2
	drum_note 2, 2
;Bar 81
	;note B_, 1
	drum_note 2, 2
	drum_note 10, 2
	drum_note 11, 2
	drum_note 2, 2
	drum_note 4, 2
	drum_note 2, 2
	drum_note 11, 4
;Bar 82
	;note B_, 1
	drum_note 2, 2
	drum_note 10, 2
	;note A#, 1
	drum_note 3, 2
	drum_note 2, 2
	drum_note 4, 2
	;note C#, 1
	drum_note 3, 2
	drum_note 11, 2
	drum_note 2, 2
;Bar 83
	;note B_, 1
	drum_note 2, 2
	drum_note 10, 2
	drum_note 11, 2
	drum_note 2, 2
	drum_note 4, 2
	drum_note 2, 2
	drum_note 11, 4
;Bar 84
	;note B_, 1
	drum_note 2, 2
	drum_note 10, 2
	drum_note 11, 2
	drum_note 2, 2
	drum_note 4, 2
	drum_note 2, 2
	drum_note 11, 2
	drum_note 2, 2
;Bar 85
	;note C#, 1
	drum_note 12, 2
	drum_note 10, 2
	drum_note 11, 2
	drum_note 2, 2
	drum_note 4, 2
	drum_note 2, 2
	drum_note 11, 4
;Bar 86
	;note B_, 1
	drum_note 2, 2
	drum_note 10, 2
	;note A#, 1
	drum_note 3, 2
	drum_note 2, 2
	drum_note 4, 2
	;note C#, 1
	drum_note 3, 2
	drum_note 11, 2
	drum_note 2, 2
;Bar 87
	;note B_, 1
	drum_note 2, 2
	drum_note 10, 2
	drum_note 11, 2
	drum_note 2, 2
	drum_note 4, 2
	drum_note 2, 2
	drum_note 11, 4
;Bar 88
	;note B_, 1
	drum_note 2, 2
	drum_note 10, 2
	drum_note 11, 2
	drum_note 2, 2
	drum_note 4, 2
	drum_note 2, 2
	drum_note 11, 2
	drum_note 2, 2
;Bar 89
	;note C#, 1
	drum_note 12, 2
	drum_note 10, 2
	drum_note 11, 2
	drum_note 2, 2
	drum_note 4, 2
	drum_note 2, 2
	drum_note 11, 4
;Bar 90
	;note B_, 1
	drum_note 2, 2
	drum_note 10, 2
	;note A#, 1
	drum_note 3, 2
	drum_note 2, 2
	drum_note 4, 2
	;note D_, 1
	drum_note 2, 2
	drum_note 11, 2
	drum_note 2, 2
;Bar 91
	;note B_, 1
	drum_note 2, 2
	drum_note 10, 2
	drum_note 11, 2
	drum_note 2, 2
	drum_note 4, 2
	drum_note 2, 2
	drum_note 11, 4
;Bar 92
	;note B_, 1
	drum_note 2, 2
	drum_note 10, 2
	drum_note 11, 2
	drum_note 2, 2
	drum_note 4, 2
	drum_note 2, 2
	drum_note 11, 2
	drum_note 2, 2
;Bar 93
	;note B_, 1
	drum_note 2, 2
	drum_note 10, 2
	drum_note 11, 2
	drum_note 2, 2
	drum_note 4, 2
	drum_note 2, 2
	drum_note 11, 4
;Bar 94
	;note B_, 1
	drum_note 2, 2
	drum_note 10, 2
	;note A#, 1
	drum_note 3, 2
	drum_note 2, 2
	drum_note 4, 2
	;note C#, 1
	drum_note 3, 2
	drum_note 11, 2
	drum_note 2, 2
;Bar 95
	;note B_, 1
	drum_note 2, 2
	drum_note 10, 2
	drum_note 11, 2
	drum_note 2, 2
	;note D#, 1
	drum_note 4, 2
	drum_note 2, 2
	drum_note 11, 4
;Bar 96
	;note B_, 1
	drum_note 2, 2
	drum_note 10, 2
	drum_note 11, 2
	drum_note 2, 2
	;note D#, 1
	drum_note 4, 2
	drum_note 2, 2
	drum_note 11, 2
	drum_note 2, 2
;Bar 97
	;note B_, 1
	drum_note 2, 2
	drum_note 10, 2
	drum_note 11, 2
	drum_note 2, 2
	;note D#, 1
	drum_note 4, 2
	drum_note 2, 2
	drum_note 11, 4
;Bar 98
	;note B_, 1
	drum_note 2, 2
	drum_note 10, 2
	drum_note 11, 2
	drum_note 2, 2
	;note D#, 1
	drum_note 4, 2
	drum_note 2, 2
	drum_note 11, 2
	drum_note 2, 2
;Bar 99
	;note B_, 1
	drum_note 2, 2
	drum_note 10, 2
	drum_note 11, 2
	drum_note 2, 2
	;note D#, 1
	drum_note 4, 2
	drum_note 2, 2
	drum_note 11, 4
;Bar 100
	;note B_, 1
	drum_note 2, 2
	drum_note 10, 2
	drum_note 11, 2
	drum_note 2, 2
	;note D#, 1
	drum_note 4, 2
	drum_note 2, 2
	drum_note 11, 2
	drum_note 2, 2
;Bar 101
	;note C#, 1
	drum_note 12, 2
	drum_note 10, 2
	drum_note 11, 2
	drum_note 2, 2
	;note D#, 1
	drum_note 4, 2
	drum_note 2, 2
	drum_note 11, 4
;Bar 102
	;note B_, 1
	drum_note 2, 2
	drum_note 10, 2
	drum_note 11, 2
	drum_note 2, 2
	;note D#, 1
	drum_note 4, 2
	drum_note 2, 2
	drum_note 11, 2
	drum_note 2, 2
;Bar 103
	;note B_, 1
	drum_note 2, 2
	drum_note 10, 2
	drum_note 11, 2
	drum_note 2, 2
	;note D#, 1
	drum_note 4, 2
	drum_note 2, 2
	drum_note 11, 4
;Bar 104
	;note B_, 1
	drum_note 2, 2
	drum_note 10, 2
	drum_note 11, 2
	drum_note 2, 2
	;note D#, 1
	drum_note 4, 2
	drum_note 2, 2
	drum_note 11, 2
	drum_note 2, 2
;Bar 105
	;note C#, 1
	drum_note 12, 2
	drum_note 10, 2
	drum_note 11, 2
	drum_note 2, 2
	;note D#, 1
	drum_note 4, 2
	drum_note 2, 2
	drum_note 11, 4
;Bar 106
	;note B_, 1
	drum_note 2, 2
	drum_note 10, 2
	drum_note 11, 2
	drum_note 2, 2
	;note D#, 1
	drum_note 4, 2
	drum_note 2, 2
	drum_note 11, 2
	drum_note 2, 2
;Bar 107
	;note B_, 1
	drum_note 2, 2
	drum_note 10, 2
	drum_note 11, 2
	drum_note 2, 2
	;note D#, 1
	drum_note 4, 2
	drum_note 2, 2
	drum_note 11, 4
;Bar 108
	;note B_, 1
	drum_note 2, 2
	drum_note 10, 2
	drum_note 11, 2
	drum_note 2, 2
	;note D#, 1
	drum_note 4, 2
	drum_note 2, 2
	drum_note 11, 2
	drum_note 2, 2
;Bar 109
	drum_note 12, 16
;Bar 110
	drum_note 12, 16
;Bar 111
	drum_note 12, 16
;Bar 112
	drum_note 12, 2
	drum_note 10, 2
	;note A#, 1
	drum_note 3, 2
	drum_note 2, 2
	drum_note 7, 2
	;note D_, 1
	drum_note 2, 6
;Bar 113
	;note C#, 1
	drum_note 12, 2
	drum_note 10, 2
	drum_note 11, 2
	drum_note 2, 2
	drum_note 4, 2
	drum_note 2, 2
	drum_note 11, 4
;Bar 114
	;note B_, 1
	drum_note 2, 2
	drum_note 10, 2
	drum_note 11, 2
	drum_note 2, 2
	drum_note 4, 2
	drum_note 2, 2
	drum_note 11, 2
	drum_note 2, 2
;Bar 115
	;note B_, 1
	drum_note 2, 2
	drum_note 10, 2
	drum_note 11, 2
	drum_note 2, 2
	drum_note 4, 2
	drum_note 2, 2
	drum_note 11, 4
;Bar 116
	;note B_, 1
	drum_note 2, 2
	drum_note 10, 2
	;note A#, 1
	drum_note 3, 2
	drum_note 2, 2
	drum_note 4, 2
	;note D_, 1
	drum_note 2, 2
	drum_note 11, 2
	drum_note 2, 2
;Bar 117
	;note C#, 1
	drum_note 12, 2
	drum_note 10, 2
	drum_note 11, 2
	drum_note 2, 2
	drum_note 4, 2
	drum_note 2, 2
	drum_note 11, 4
;Bar 118
	;note B_, 1
	drum_note 2, 2
	drum_note 10, 2
	drum_note 11, 2
	drum_note 2, 2
	drum_note 4, 2
	drum_note 2, 2
	drum_note 11, 2
	drum_note 2, 2
;Bar 119
	;note B_, 1
	drum_note 2, 2
	drum_note 10, 2
	drum_note 11, 2
	drum_note 2, 2
	drum_note 4, 2
	drum_note 2, 2
	drum_note 11, 4
;Bar 120
	;note B_, 1
	drum_note 2, 2
	drum_note 10, 2
	;note A#, 1
	drum_note 3, 2
	drum_note 2, 2
	drum_note 4, 2
	;note D_, 1
	drum_note 2, 2
	drum_note 11, 2
	drum_note 2, 2
;Bar 121
	;note B_, 1
	drum_note 2, 2
	drum_note 10, 2
	drum_note 11, 2
	drum_note 2, 2
	;note D#, 1
	drum_note 4, 2
	drum_note 2, 2
	drum_note 11, 4
;Bar 122
	;note B_, 1
	drum_note 2, 2
	drum_note 10, 2
	drum_note 11, 2
	drum_note 2, 2
	;note D#, 1
	drum_note 4, 2
	drum_note 2, 2
	drum_note 11, 2
	drum_note 2, 2
;Bar 123
	;note B_, 1
	drum_note 2, 2
	drum_note 10, 2
	drum_note 11, 2
	drum_note 2, 2
	;note D#, 1
	drum_note 4, 2
	drum_note 2, 2
	drum_note 11, 4
;Bar 124
	;note B_, 1
	drum_note 2, 2
	drum_note 10, 2
	;note A#, 1
	drum_note 3, 2
	drum_note 2, 2
	;note D#, 1
	drum_note 4, 2
	;note C#, 1
	drum_note 3, 2
	drum_note 11, 2
	drum_note 2, 2
;Bar 125
	;note B_, 1
	drum_note 2, 2
	drum_note 10, 2
	drum_note 11, 2
	drum_note 2, 2
	;note D#, 1
	drum_note 4, 2
	drum_note 2, 2
	drum_note 11, 4
;Bar 126
	;note B_, 1
	drum_note 2, 2
	drum_note 10, 2
	drum_note 11, 2
	drum_note 2, 2
	;note D#, 1
	drum_note 4, 2
	drum_note 2, 2
	drum_note 11, 2
	drum_note 2, 2
;Bar 127
	;note B_, 1
	drum_note 2, 2
	drum_note 10, 2
	drum_note 11, 2
	drum_note 2, 2
	;note D#, 1
	drum_note 4, 2
	drum_note 2, 2
	drum_note 11, 4
;Bar 128
	;note B_, 1
	drum_note 2, 2
	drum_note 10, 2
	;note A#, 1
	drum_note 3, 2
	drum_note 2, 2
	;note D#, 1
	drum_note 4, 2
	;note C#, 1
	drum_note 3, 2
	drum_note 11, 2
	drum_note 2, 2
;Bar 129
	;note C#, 1
	drum_note 12, 2
	drum_note 10, 2
	drum_note 11, 2
	drum_note 2, 2
	;note D#, 1
	drum_note 4, 2
	drum_note 2, 2
	drum_note 11, 4
;Bar 130
	;note B_, 1
	drum_note 2, 2
	drum_note 10, 2
	drum_note 11, 2
	drum_note 2, 2
	;note D#, 1
	drum_note 4, 2
	drum_note 2, 2
	drum_note 11, 2
	drum_note 2, 2
;Bar 131
	;note B_, 1
	drum_note 2, 2
	drum_note 10, 2
	drum_note 11, 2
	drum_note 2, 2
	;note D#, 1
	drum_note 4, 2
	drum_note 2, 2
	drum_note 11, 4
;Bar 132
	;note B_, 1
	drum_note 2, 2
	drum_note 10, 2
	;note A#, 1
	drum_note 3, 2
	drum_note 2, 2
	;note D#, 1
	drum_note 4, 2
	;note D_, 1
	drum_note 2, 2
	drum_note 11, 2
	drum_note 2, 2
;Bar 133
	;note C#, 1
	drum_note 12, 2
	drum_note 10, 2
	drum_note 11, 2
	drum_note 2, 2
	;note D#, 1
	drum_note 4, 2
	drum_note 2, 2
	drum_note 11, 4
;Bar 134
	;note B_, 1
	drum_note 2, 2
	drum_note 10, 2
	drum_note 11, 2
	drum_note 2, 2
	;note D#, 1
	drum_note 4, 2
	drum_note 2, 2
	drum_note 11, 2
	drum_note 2, 2
;Bar 135
	;note B_, 1
	drum_note 2, 2
	drum_note 10, 2
	drum_note 11, 2
	drum_note 2, 2
	;note D#, 1
	drum_note 4, 2
	drum_note 2, 2
	drum_note 11, 4
;Bar 136
	;note B_, 1
	drum_note 2, 2
	drum_note 10, 2
	;note A#, 1
	drum_note 3, 2
	drum_note 2, 2
	;note D#, 1
	drum_note 4, 2
	;note C#, 1
	drum_note 3, 2
	drum_note 11, 2
	drum_note 2, 2
;Bar 137
	;note B_, 1
	drum_note 2, 2
	drum_note 10, 2
	drum_note 11, 2
	drum_note 2, 2
	;note D#, 1
	drum_note 4, 2
	drum_note 2, 2
	drum_note 11, 4
;Bar 138
	;note B_, 1
	drum_note 2, 2
	drum_note 10, 2
	drum_note 11, 2
	drum_note 2, 2
	;note D#, 1
	drum_note 4, 2
	drum_note 2, 2
	drum_note 11, 2
	drum_note 2, 2
;Bar 139
	;note B_, 1
	drum_note 2, 2
	drum_note 10, 2
	drum_note 11, 2
	drum_note 2, 2
	;note D#, 1
	drum_note 4, 2
	drum_note 2, 2
	drum_note 11, 4
;Bar 140
	;note B_, 1
	drum_note 2, 2
	drum_note 10, 2
	;note A#, 1
	drum_note 3, 2
	drum_note 2, 2
	;note D#, 1
	drum_note 4, 2
	;note D_, 1
	drum_note 2, 2
	drum_note 11, 2
	drum_note 2, 2
;Bar 141
	;note C#, 1
	drum_note 12, 2
	drum_note 10, 2
	drum_note 11, 2
	drum_note 2, 2
	;note D#, 1
	drum_note 4, 2
	drum_note 2, 2
	drum_note 11, 4
;Bar 142
	;note B_, 1
	drum_note 2, 2
	drum_note 10, 2
	drum_note 11, 2
	drum_note 2, 2
	;note D#, 1
	drum_note 4, 2
	drum_note 2, 2
	drum_note 11, 2
	drum_note 2, 2
;Bar 143
	;note B_, 1
	drum_note 2, 2
	drum_note 10, 2
	drum_note 11, 2
	drum_note 2, 2
	;note D#, 1
	drum_note 4, 2
	drum_note 2, 2
	drum_note 11, 4
;Bar 144
	;note B_, 1
	drum_note 2, 2
	drum_note 10, 2
	;note A#, 1
	drum_note 3, 2
	drum_note 2, 2
	;note D#, 1
	drum_note 4, 2
	;note D_, 1
	drum_note 2, 2
	drum_note 11, 2
	drum_note 2, 2
;Bar 145
	;note C#, 1
	drum_note 12, 2
	drum_note 10, 2
	drum_note 11, 2
	drum_note 2, 2
	drum_note 4, 2
	drum_note 2, 2
	drum_note 11, 4
;Bar 146
	;note B_, 1
	drum_note 2, 2
	drum_note 10, 2
	drum_note 11, 2
	drum_note 2, 2
	drum_note 4, 2
	drum_note 2, 2
	drum_note 11, 2
	drum_note 2, 2
;Bar 147
	;note B_, 1
	drum_note 2, 2
	drum_note 10, 2
	drum_note 11, 2
	drum_note 2, 2
	drum_note 4, 2
	drum_note 2, 2
	drum_note 11, 4
;Bar 148
	;note B_, 1
	drum_note 2, 2
	drum_note 10, 2
	drum_note 11, 2
	drum_note 2, 2
	drum_note 4, 2
	drum_note 2, 2
	drum_note 11, 2
	drum_note 2, 2
;Bar 149
	;note C#, 1
	drum_note 12, 2
	drum_note 10, 2
	drum_note 11, 2
	drum_note 2, 2
	drum_note 4, 2
	drum_note 2, 2
	drum_note 11, 4
;Bar 150
	;note B_, 1
	drum_note 2, 2
	drum_note 10, 2
	drum_note 11, 2
	drum_note 2, 2
	drum_note 4, 2
	drum_note 2, 2
	drum_note 11, 2
	drum_note 2, 2
;Bar 151
	;note B_, 1
	drum_note 2, 2
	drum_note 10, 2
	drum_note 11, 2
	drum_note 2, 2
	drum_note 4, 2
	drum_note 2, 2
	drum_note 11, 4
;Bar 152
	;note B_, 1
	drum_note 2, 2
	drum_note 10, 2
	drum_note 11, 2
	drum_note 2, 2
	drum_note 4, 2
	drum_note 2, 2
	drum_note 11, 2
	drum_note 2, 2
;Bar 153
	;note B_, 1
	drum_note 2, 2
	drum_note 10, 2
	drum_note 11, 2
	drum_note 2, 2
	drum_note 4, 2
	drum_note 2, 2
	drum_note 11, 4
;Bar 154
	;note B_, 1
	drum_note 2, 2
	drum_note 10, 2
	drum_note 11, 2
	drum_note 2, 2
	drum_note 4, 2
	drum_note 2, 2
	drum_note 11, 2
	drum_note 2, 2
;Bar 155
	;note B_, 1
	drum_note 2, 2
	drum_note 10, 2
	drum_note 11, 2
	drum_note 2, 2
	drum_note 4, 2
	drum_note 2, 2
	drum_note 11, 4
;Bar 156
	;note B_, 1
	drum_note 2, 2
	drum_note 10, 2
	drum_note 11, 2
	drum_note 2, 2
	drum_note 4, 2
	drum_note 2, 2
	drum_note 11, 2
	drum_note 2, 2
;Bar 157
	;note B_, 1
	drum_note 2, 2
	drum_note 10, 2
	drum_note 11, 2
	drum_note 2, 2
	drum_note 4, 2
	drum_note 2, 2
	drum_note 11, 4
;Bar 158
	;note B_, 1
	drum_note 2, 2
	drum_note 10, 2
	drum_note 11, 2
	drum_note 2, 2
	drum_note 4, 2
	drum_note 2, 2
	drum_note 11, 2
	drum_note 2, 2
;Bar 159
	;note B_, 1
	drum_note 2, 2
	drum_note 10, 2
	drum_note 11, 2
	drum_note 2, 2
	drum_note 4, 2
	drum_note 2, 2
	drum_note 11, 4
;Bar 160
	;note B_, 1
	drum_note 2, 2
	drum_note 10, 2
	drum_note 11, 2
	drum_note 2, 2
	drum_note 4, 2
	drum_note 2, 2
	drum_note 11, 2
	drum_note 2, 2
;Bar 161
	;note C#, 1
	drum_note 12, 2
	drum_note 10, 2
	drum_note 11, 2
	drum_note 2, 2
	drum_note 4, 2
	drum_note 2, 2
	drum_note 11, 4
;Bar 162
	;note B_, 1
	drum_note 2, 2
	drum_note 10, 2
	drum_note 11, 2
	drum_note 2, 2
	drum_note 4, 2
	drum_note 2, 2
	drum_note 11, 2
	drum_note 2, 2
;Bar 163
	;note B_, 1
	drum_note 2, 2
	drum_note 10, 2
	drum_note 11, 2
	drum_note 2, 2
	drum_note 4, 2
	drum_note 2, 2
	drum_note 11, 4
;Bar 164
	;note B_, 1
	drum_note 2, 2
	drum_note 10, 2
	drum_note 11, 2
	drum_note 2, 2
	drum_note 4, 2
	drum_note 2, 2
	drum_note 11, 2
	drum_note 2, 2
;Bar 165
	;note C#, 1
	drum_note 12, 2
	drum_note 10, 2
	drum_note 11, 2
	drum_note 2, 2
	drum_note 4, 2
	drum_note 2, 2
	drum_note 11, 4
;Bar 166
	;note B_, 1
	drum_note 2, 2
	drum_note 10, 2
	drum_note 11, 2
	drum_note 2, 2
	drum_note 4, 2
	drum_note 2, 2
	drum_note 11, 2
	drum_note 2, 2
;Bar 167
	;note B_, 1
	drum_note 2, 2
	drum_note 10, 2
	drum_note 11, 2
	drum_note 2, 2
	drum_note 4, 2
	drum_note 2, 2
	drum_note 11, 4
;Bar 168
	;note B_, 1
	drum_note 2, 2
	drum_note 10, 2
	drum_note 11, 2
	drum_note 2, 2
	drum_note 4, 2
	drum_note 2, 2
	drum_note 11, 2
	drum_note 2, 2
;Bar 169
	;note B_, 1
	drum_note 2, 2
	drum_note 10, 2
	drum_note 11, 2
	drum_note 2, 2
	drum_note 4, 2
	drum_note 2, 2
	drum_note 11, 4
;Bar 170
	;note B_, 1
	drum_note 2, 2
	drum_note 10, 2
	drum_note 11, 2
	drum_note 2, 2
	drum_note 4, 2
	drum_note 2, 2
	drum_note 11, 2
	drum_note 2, 2
;Bar 171
	;note B_, 1
	drum_note 2, 2
	drum_note 10, 2
	drum_note 11, 2
	drum_note 2, 2
	drum_note 4, 2
	drum_note 2, 2
	drum_note 11, 4
;Bar 172
	;note B_, 1
	drum_note 2, 2
	drum_note 10, 2
	drum_note 11, 2
	drum_note 2, 2
	drum_note 4, 2
	drum_note 2, 2
	drum_note 11, 2
	drum_note 2, 2
;Bar 173
	;note C#, 1
	drum_note 12, 2
	drum_note 10, 2
	drum_note 11, 2
	drum_note 2, 2
	drum_note 4, 2
	drum_note 2, 2
	drum_note 11, 4
;Bar 174
	;note B_, 1
	drum_note 2, 2
	drum_note 10, 2
	drum_note 11, 2
	drum_note 2, 2
	drum_note 4, 2
	drum_note 2, 2
	drum_note 11, 2
	drum_note 2, 2
;Bar 175
	;note B_, 1
	drum_note 2, 2
	drum_note 10, 2
	drum_note 11, 2
	drum_note 2, 2
	drum_note 4, 2
	drum_note 2, 2
	drum_note 11, 4
;Bar 176
	;note B_, 1
	drum_note 2, 2
	drum_note 10, 2
	drum_note 11, 2
	drum_note 2, 2
	drum_note 4, 2
	drum_note 2, 2
	drum_note 11, 2
	drum_note 2, 2
	sound_ret

; ============================================================================================================

