;Coverted using MIDI2ASM
;Code by TriteHexagon
;Version 5.2.0 (16-Nov-2022)
;Visit github.com/TriteHexagon/Midi2ASM-Converter for up-to-date versions.

; ============================================================================================================

Music_Nuzzles:
	channel_count 3
	channel 1, Music_Nuzzles_Ch1
	channel 2, Music_Nuzzles_Ch2
	channel 3, Music_Nuzzles_Ch3

Music_Nuzzles_Ch1:
	volume 7, 7
	duty_cycle 1
	note_type 12, 10, 7
	tempo 107
;Bar 1
.mainloop
	octave 2
	volume_envelope 11, 7
	note C#, 2
	note C#, 2
	note E_, 2
	note C#, 2
	note F#, 2
	note G#, 4
	note C#, 2
;Bar 2
	octave 1
	note B_, 2
	note B_, 2
	octave 2
	note E_, 2
	note C#, 2
	note F#, 2
	note G#, 4
	note C#, 2
;Bar 3
	octave 1
	note A#, 2
	note A#, 2
	octave 2
	note E_, 2
	note C#, 2
	note F#, 2
	note G#, 4
	note B_, 2
;Bar 4
	note F#, 4
	note E_, 4
	note D#, 4
	note E_, 4
;Bar 5
	octave 1
	volume_envelope 13, 7
	;note C#, 0 | WARNING: Rounded down to 0
	octave 2
	note C#, 4
	octave 1
	;note E_, 0 | WARNING: Rounded down to 0
	octave 2
	note E_, 2
	octave 1
	;note C#, 0 | WARNING: Rounded down to 0
	octave 2
	note C#, 2
	octave 1
	;note F#, 0 | WARNING: Rounded down to 0
	octave 2
	note F#, 2
	octave 1
	;note G#, 0 | WARNING: Rounded down to 0
	octave 2
	note G#, 4
	octave 1
	;note C#, 0 | WARNING: Rounded down to 0
	octave 2
	note C#, 2
;Bar 6
	octave 1
	;note B_, 0 | WARNING: Rounded down to 0
	octave 1
	note B_, 4
	;note E_, 0 | WARNING: Rounded down to 0
	octave 2
	note E_, 2
	octave 1
	;note C#, 0 | WARNING: Rounded down to 0
	octave 2
	note C#, 2
	octave 1
	;note F#, 0 | WARNING: Rounded down to 0
	octave 2
	note F#, 2
	octave 1
	;note G#, 0 | WARNING: Rounded down to 0
	octave 2
	note G#, 4
	octave 1
	;note C#, 0 | WARNING: Rounded down to 0
	octave 2
	note C#, 2
;Bar 7
	octave 1
	;note A#, 0 | WARNING: Rounded down to 0
	octave 1
	note A#, 4
	;note E_, 0 | WARNING: Rounded down to 0
	octave 2
	note E_, 2
	octave 1
	;note C#, 0 | WARNING: Rounded down to 0
	octave 2
	note C#, 2
	octave 1
	;note F#, 0 | WARNING: Rounded down to 0
	octave 2
	note F#, 2
	octave 1
	;note G#, 0 | WARNING: Rounded down to 0
	octave 2
	note G#, 4
	octave 1
	;note B_, 0 | WARNING: Rounded down to 0
	octave 2
	note B_, 4
;Bar 8
	octave 1
	;note F#, 0 | WARNING: Rounded down to 0
	octave 2
	note F#, 2
	octave 1
	;note E_, 0 | WARNING: Rounded down to 0
	octave 2
	note E_, 2
	octave 1
	;note E_, 0 | WARNING: Rounded down to 0
	octave 2
	note E_, 2
	octave 1
	;note D#, 0 | WARNING: Rounded down to 0
	octave 2
	note D#, 2
	octave 1
	;note D#, 0 | WARNING: Rounded down to 0
	octave 2
	note D#, 2
	octave 1
	;note E_, 0 | WARNING: Rounded down to 0
	octave 2
	note E_, 4
;Bar 9
	rest 4
	octave 1
	;note C#, 0 | WARNING: Rounded down to 0
	;note G#, 0 | WARNING: Rounded down to 0
	octave 2
	note C#, 4
	octave 1
	;note C_, 0 | WARNING: Rounded down to 0
	;note G_, 0 | WARNING: Rounded down to 0
	octave 2
	note C_, 4
	rest 4
;Bar 10
	octave 1
	;note C_, 0 | WARNING: Rounded down to 0
	;note G_, 0 | WARNING: Rounded down to 0
	octave 2
	note C_, 4
	octave 1
	;note B_, 0 | WARNING: Rounded down to 0
	octave 1
	;note F#, 0 | WARNING: Rounded down to 0
	note B_, 4
	rest 8
;Bar 11
	volume_envelope 14, 7
	;note C#, 0 | WARNING: Rounded down to 0
	octave 2
	note C#, 4
	octave 1
	;note E_, 0 | WARNING: Rounded down to 0
	octave 2
	note E_, 2
	octave 1
	;note C#, 0 | WARNING: Rounded down to 0
	octave 2
	note C#, 2
	octave 1
	;note F#, 0 | WARNING: Rounded down to 0
	octave 2
	note F#, 2
	octave 1
	;note G#, 0 | WARNING: Rounded down to 0
	octave 2
	note G#, 4
	octave 1
	;note C#, 0 | WARNING: Rounded down to 0
	octave 2
	note C#, 2
;Bar 12
	octave 1
	;note B_, 0 | WARNING: Rounded down to 0
	octave 1
	note B_, 4
	;note E_, 0 | WARNING: Rounded down to 0
	octave 2
	note E_, 2
	octave 1
	;note C#, 0 | WARNING: Rounded down to 0
	octave 2
	note C#, 2
	octave 1
	;note F#, 0 | WARNING: Rounded down to 0
	octave 2
	note F#, 2
	octave 1
	;note G#, 0 | WARNING: Rounded down to 0
	octave 2
	note G#, 4
	octave 1
	;note C#, 0 | WARNING: Rounded down to 0
	octave 2
	note C#, 2
;Bar 13
	octave 1
	;note A#, 0 | WARNING: Rounded down to 0
	octave 1
	note A#, 4
	;note E_, 0 | WARNING: Rounded down to 0
	octave 2
	note E_, 2
	octave 1
	;note C#, 0 | WARNING: Rounded down to 0
	octave 2
	note C#, 2
	octave 1
	;note F#, 0 | WARNING: Rounded down to 0
	octave 2
	note F#, 2
	octave 1
	;note G#, 0 | WARNING: Rounded down to 0
	octave 2
	note G#, 4
	octave 1
	;note B_, 0 | WARNING: Rounded down to 0
	octave 2
	note B_, 2
;Bar 14
	rest 2
	octave 1
	;note F#, 0 | WARNING: Rounded down to 0
	octave 2
	note F#, 2
	octave 1
	;note E_, 0 | WARNING: Rounded down to 0
	octave 2
	note E_, 2
	octave 1
	;note E_, 0 | WARNING: Rounded down to 0
	octave 2
	note E_, 2
	octave 1
	;note D#, 0 | WARNING: Rounded down to 0
	octave 2
	note D#, 2
	octave 1
	;note D#, 0 | WARNING: Rounded down to 0
	octave 2
	note D#, 2
	octave 1
	;note E_, 0 | WARNING: Rounded down to 0
	octave 2
	note E_, 4
;Bar 15
	octave 1
	;note C#, 0 | WARNING: Rounded down to 0
	octave 2
	note C#, 4
	octave 1
	;note E_, 0 | WARNING: Rounded down to 0
	octave 2
	note E_, 2
	octave 1
	;note C#, 0 | WARNING: Rounded down to 0
	octave 2
	note C#, 2
	octave 1
	;note F#, 0 | WARNING: Rounded down to 0
	octave 2
	note F#, 2
	octave 1
	;note G#, 0 | WARNING: Rounded down to 0
	octave 2
	note G#, 4
	octave 1
	;note C#, 0 | WARNING: Rounded down to 0
	octave 2
	note C#, 2
;Bar 16
	octave 1
	;note B_, 0 | WARNING: Rounded down to 0
	octave 1
	note B_, 4
	;note E_, 0 | WARNING: Rounded down to 0
	octave 2
	note E_, 2
	octave 1
	;note C#, 0 | WARNING: Rounded down to 0
	octave 2
	note C#, 2
	octave 1
	;note F#, 0 | WARNING: Rounded down to 0
	octave 2
	note F#, 2
	octave 1
	;note G#, 0 | WARNING: Rounded down to 0
	octave 2
	note G#, 4
	octave 1
	;note C#, 0 | WARNING: Rounded down to 0
	octave 2
	note C#, 2
;Bar 17
	octave 1
	;note A#, 0 | WARNING: Rounded down to 0
	octave 1
	note A#, 4
	;note E_, 0 | WARNING: Rounded down to 0
	octave 2
	note E_, 2
	octave 1
	;note C#, 0 | WARNING: Rounded down to 0
	octave 2
	note C#, 2
	octave 1
	;note F#, 0 | WARNING: Rounded down to 0
	octave 2
	note F#, 2
	octave 1
	;note G#, 0 | WARNING: Rounded down to 0
	octave 2
	note G#, 4
	octave 1
	;note B_, 0 | WARNING: Rounded down to 0
	octave 2
	note B_, 2
;Bar 18
	rest 2
	octave 1
	;note F#, 0 | WARNING: Rounded down to 0
	octave 2
	note F#, 2
	octave 1
	;note E_, 0 | WARNING: Rounded down to 0
	octave 2
	note E_, 2
	octave 1
	;note E_, 0 | WARNING: Rounded down to 0
	octave 2
	note E_, 2
	octave 1
	;note D#, 0 | WARNING: Rounded down to 0
	octave 2
	note D#, 2
	octave 1
	;note D#, 0 | WARNING: Rounded down to 0
	octave 2
	note D#, 2
	octave 1
	;note E_, 0 | WARNING: Rounded down to 0
	octave 2
	note E_, 4
;Bar 19
	rest 8
	octave 1
	note C#, 16
;Bar 20
	note C_, 16
;Bar 21
	octave 1
	note B_, 16
;Bar 22
	note A#, 16
;Bar 23
	octave 1
	note C#, 16
;Bar 24
	octave 1
	note B_, 16
;Bar 25
	octave 1
	note C#, 16
;Bar 26
	note E_, 16
;Bar 27
	volume_envelope 9, 7
	;note C#, 0 | WARNING: Rounded down to 0
	octave 2
	note C#, 4
	octave 1
	;note E_, 0 | WARNING: Rounded down to 0
	octave 2
	note E_, 2
	octave 1
	;note C#, 0 | WARNING: Rounded down to 0
	octave 2
	note C#, 2
;Bar 28
	octave 1
	;note F#, 0 | WARNING: Rounded down to 0
	octave 2
	note F#, 2
	octave 1
	;note G#, 0 | WARNING: Rounded down to 0
	octave 2
	note G#, 4
	octave 1
	;note C#, 0 | WARNING: Rounded down to 0
	octave 2
	note C#, 2
	octave 1
	;note C_, 0 | WARNING: Rounded down to 0
	octave 2
	note C_, 4
	octave 1
	;note E_, 0 | WARNING: Rounded down to 0
	octave 2
	note E_, 2
	octave 1
	;note C#, 0 | WARNING: Rounded down to 0
	octave 2
	note C#, 2
;Bar 29
	octave 1
	;note F#, 0 | WARNING: Rounded down to 0
	octave 2
	note F#, 2
	octave 1
	;note G#, 0 | WARNING: Rounded down to 0
	octave 2
	note G#, 4
	octave 1
	;note C#, 0 | WARNING: Rounded down to 0
	octave 2
	note C#, 2
	octave 1
	;note B_, 0 | WARNING: Rounded down to 0
	octave 1
	note B_, 4
	;note E_, 0 | WARNING: Rounded down to 0
	octave 2
	note E_, 2
	octave 1
	;note C#, 0 | WARNING: Rounded down to 0
	octave 2
	note C#, 2
;Bar 30
	octave 1
	;note F#, 0 | WARNING: Rounded down to 0
	octave 2
	note F#, 2
	octave 1
	;note G#, 0 | WARNING: Rounded down to 0
	octave 2
	note G#, 4
	octave 1
	;note B_, 0 | WARNING: Rounded down to 0
	octave 2
	note B_, 2
	rest 2
	octave 1
	;note F#, 0 | WARNING: Rounded down to 0
	octave 2
	note F#, 2
	octave 1
	;note E_, 0 | WARNING: Rounded down to 0
	octave 2
	note E_, 2
	octave 1
	;note E_, 0 | WARNING: Rounded down to 0
	octave 2
	note E_, 2
;Bar 31
	octave 1
	;note D#, 0 | WARNING: Rounded down to 0
	octave 2
	note D#, 2
	octave 1
	;note D#, 0 | WARNING: Rounded down to 0
	octave 2
	note D#, 2
	octave 1
	;note E_, 0 | WARNING: Rounded down to 0
	octave 2
	note E_, 4
	octave 1
	;note F#, 0 | WARNING: Rounded down to 0
	octave 1
	note F#, 4
	;note E_, 0 | WARNING: Rounded down to 0
	octave 2
	note E_, 2
	octave 1
	;note C#, 0 | WARNING: Rounded down to 0
	octave 2
	note C#, 2
;Bar 32
	octave 1
	;note F#, 0 | WARNING: Rounded down to 0
	octave 2
	note F#, 2
	octave 1
	;note G#, 0 | WARNING: Rounded down to 0
	octave 2
	note G#, 4
	octave 1
	;note C#, 0 | WARNING: Rounded down to 0
	octave 2
	note C#, 2
	octave 1
	;note B_, 0 | WARNING: Rounded down to 0
	octave 1
	note B_, 4
	;note E_, 0 | WARNING: Rounded down to 0
	octave 2
	note E_, 2
	octave 1
	;note C#, 0 | WARNING: Rounded down to 0
	octave 2
	note C#, 2
;Bar 33
	octave 1
	;note F#, 0 | WARNING: Rounded down to 0
	octave 2
	note F#, 2
	octave 1
	;note G#, 0 | WARNING: Rounded down to 0
	octave 2
	note G#, 4
	octave 1
	;note C#, 0 | WARNING: Rounded down to 0
	octave 2
	note C#, 2
	rest 16
	rest 16
;Bar 35
	octave 1
	volume_envelope 14, 7
	;note C#, 0 | WARNING: Rounded down to 0
	octave 2
	note C#, 4
	octave 1
	;note E_, 0 | WARNING: Rounded down to 0
	octave 2
	note E_, 2
	octave 1
	;note C#, 0 | WARNING: Rounded down to 0
	octave 2
	note C#, 2
;Bar 36
	octave 1
	;note F#, 0 | WARNING: Rounded down to 0
	octave 2
	note F#, 2
	octave 1
	;note G#, 0 | WARNING: Rounded down to 0
	octave 2
	note G#, 4
	octave 1
	;note C#, 0 | WARNING: Rounded down to 0
	octave 2
	note C#, 2
	octave 1
	;note B_, 0 | WARNING: Rounded down to 0
	octave 1
	note B_, 4
	;note E_, 0 | WARNING: Rounded down to 0
	octave 2
	note E_, 2
	octave 1
	;note C#, 0 | WARNING: Rounded down to 0
	octave 2
	note C#, 2
;Bar 37
	octave 1
	;note F#, 0 | WARNING: Rounded down to 0
	octave 2
	note F#, 2
	octave 1
	;note G#, 0 | WARNING: Rounded down to 0
	octave 2
	note G#, 4
	octave 1
	;note C#, 0 | WARNING: Rounded down to 0
	octave 2
	note C#, 2
	octave 1
	;note A#, 0 | WARNING: Rounded down to 0
	octave 1
	note A#, 4
	;note E_, 0 | WARNING: Rounded down to 0
	octave 2
	note E_, 2
	octave 1
	;note C#, 0 | WARNING: Rounded down to 0
	octave 2
	note C#, 2
;Bar 38
	octave 1
	;note F#, 0 | WARNING: Rounded down to 0
	octave 2
	note F#, 2
	octave 1
	;note G#, 0 | WARNING: Rounded down to 0
	octave 2
	note G#, 4
	octave 1
	;note B_, 0 | WARNING: Rounded down to 0
	octave 2
	note B_, 2
	rest 2
	octave 1
	;note F#, 0 | WARNING: Rounded down to 0
	octave 2
	note F#, 2
	octave 1
	;note E_, 0 | WARNING: Rounded down to 0
	octave 2
	note E_, 2
	octave 1
	;note E_, 0 | WARNING: Rounded down to 0
	octave 2
	note E_, 2
;Bar 39
	octave 1
	;note D#, 0 | WARNING: Rounded down to 0
	octave 2
	note D#, 2
	octave 1
	;note D#, 0 | WARNING: Rounded down to 0
	octave 2
	note D#, 2
	octave 1
	;note E_, 0 | WARNING: Rounded down to 0
	octave 2
	note E_, 4
	octave 1
	;note C#, 0 | WARNING: Rounded down to 0
	octave 2
	note C#, 4
	octave 1
	;note E_, 0 | WARNING: Rounded down to 0
	octave 2
	note E_, 2
	octave 1
	;note C#, 0 | WARNING: Rounded down to 0
	octave 2
	note C#, 2
;Bar 40
	octave 1
	;note F#, 0 | WARNING: Rounded down to 0
	octave 2
	note F#, 2
	octave 1
	;note G#, 0 | WARNING: Rounded down to 0
	octave 2
	note G#, 4
	octave 1
	;note C#, 0 | WARNING: Rounded down to 0
	octave 2
	note C#, 2
	octave 1
	;note B_, 0 | WARNING: Rounded down to 0
	octave 1
	note B_, 4
	;note E_, 0 | WARNING: Rounded down to 0
	octave 2
	note E_, 2
	octave 1
	;note C#, 0 | WARNING: Rounded down to 0
	octave 2
	note C#, 2
;Bar 41
	octave 1
	;note F#, 0 | WARNING: Rounded down to 0
	octave 2
	note F#, 2
	octave 1
	;note G#, 0 | WARNING: Rounded down to 0
	octave 2
	note G#, 4
	octave 1
	;note C#, 0 | WARNING: Rounded down to 0
	octave 2
	note C#, 2
	octave 1
	;note A#, 0 | WARNING: Rounded down to 0
	octave 1
	note A#, 4
	;note E_, 0 | WARNING: Rounded down to 0
	octave 2
	note E_, 2
	octave 1
	;note C#, 0 | WARNING: Rounded down to 0
	octave 2
	note C#, 2
;Bar 42
	octave 1
	;note F#, 0 | WARNING: Rounded down to 0
	octave 2
	note F#, 2
	octave 1
	;note G#, 0 | WARNING: Rounded down to 0
	octave 2
	note G#, 4
	octave 1
	;note B_, 0 | WARNING: Rounded down to 0
	octave 2
	note B_, 2
	rest 2
	octave 1
	;note F#, 0 | WARNING: Rounded down to 0
	octave 2
	note F#, 2
	octave 1
	;note E_, 0 | WARNING: Rounded down to 0
	octave 2
	note E_, 2
	octave 1
	;note E_, 0 | WARNING: Rounded down to 0
	octave 2
	note E_, 2
;Bar 43
	octave 1
	;note D#, 0 | WARNING: Rounded down to 0
	octave 2
	note D#, 2
	octave 1
	;note D#, 0 | WARNING: Rounded down to 0
	octave 2
	note D#, 2
	octave 1
	;note E_, 0 | WARNING: Rounded down to 0
	octave 2
	note E_, 4
	rest 16
	rest 16
	rest 16
	rest 16
	rest 16
	rest 16
	rest 16
	rest 16
	rest 16
	rest 16
	rest 16
	rest 16
	rest 16
	rest 16
	rest 16
	rest 16
;Bar 59
	volume_envelope 11, 7
	note C#, 4
	note E_, 2
	note C#, 2
;Bar 60
	note F#, 2
	note G#, 4
	note C#, 2
	octave 1
	note B_, 4
	octave 2
	note E_, 2
	note C#, 2
;Bar 61
	note F#, 2
	note G#, 4
	note C#, 2
	octave 1
	note A#, 4
	octave 2
	note E_, 2
	note C#, 2
;Bar 62
	note F#, 2
	note G#, 4
	note B_, 2
	note F#, 4
	note E_, 4
;Bar 63
	note D#, 4
	note E_, 4
	octave 1
	volume_envelope 13, 7
	;note C#, 0 | WARNING: Rounded down to 0
	octave 2
	note C#, 4
	octave 1
	;note E_, 0 | WARNING: Rounded down to 0
	octave 2
	note E_, 2
	octave 1
	;note C#, 0 | WARNING: Rounded down to 0
	octave 2
	note C#, 2
;Bar 64
	octave 1
	;note F#, 0 | WARNING: Rounded down to 0
	octave 2
	note F#, 2
	octave 1
	;note G#, 0 | WARNING: Rounded down to 0
	octave 2
	note G#, 4
	octave 1
	;note C#, 0 | WARNING: Rounded down to 0
	octave 2
	note C#, 2
	octave 1
	;note B_, 0 | WARNING: Rounded down to 0
	octave 1
	note B_, 4
	;note E_, 0 | WARNING: Rounded down to 0
	octave 2
	note E_, 2
	octave 1
	;note C#, 0 | WARNING: Rounded down to 0
	octave 2
	note C#, 2
;Bar 65
	octave 1
	;note F#, 0 | WARNING: Rounded down to 0
	octave 2
	note F#, 2
	octave 1
	;note G#, 0 | WARNING: Rounded down to 0
	octave 2
	note G#, 4
	octave 1
	;note C#, 0 | WARNING: Rounded down to 0
	octave 2
	note C#, 2
	octave 1
	;note A#, 0 | WARNING: Rounded down to 0
	octave 1
	note A#, 4
	;note E_, 0 | WARNING: Rounded down to 0
	octave 2
	note E_, 2
	octave 1
	;note C#, 0 | WARNING: Rounded down to 0
	octave 2
	note C#, 2
;Bar 66
	octave 1
	;note F#, 0 | WARNING: Rounded down to 0
	octave 2
	note F#, 2
	octave 1
	;note G#, 0 | WARNING: Rounded down to 0
	octave 2
	note G#, 4
	octave 1
	;note B_, 0 | WARNING: Rounded down to 0
	octave 2
	note B_, 4
	octave 1
	;note F#, 0 | WARNING: Rounded down to 0
	octave 2
	note F#, 2
	octave 1
	;note E_, 0 | WARNING: Rounded down to 0
	octave 2
	note E_, 2
	octave 1
	;note E_, 0 | WARNING: Rounded down to 0
	octave 2
	note E_, 2
;Bar 67
	octave 1
	;note D#, 0 | WARNING: Rounded down to 0
	octave 2
	note D#, 2
	octave 1
	;note D#, 0 | WARNING: Rounded down to 0
	octave 2
	note D#, 2
	octave 1
	;note E_, 0 | WARNING: Rounded down to 0
	octave 2
	note E_, 4
	rest 4
	octave 1
	;note C#, 0 | WARNING: Rounded down to 0
	;note G#, 0 | WARNING: Rounded down to 0
	octave 2
	note C#, 4
;Bar 68
	octave 1
	;note C_, 0 | WARNING: Rounded down to 0
	;note G_, 0 | WARNING: Rounded down to 0
	octave 2
	note C_, 4
	rest 4
	octave 1
	;note C_, 0 | WARNING: Rounded down to 0
	;note G_, 0 | WARNING: Rounded down to 0
	octave 2
	note C_, 4
	octave 1
	;note B_, 0 | WARNING: Rounded down to 0
	octave 1
	;note F#, 0 | WARNING: Rounded down to 0
	note B_, 4
;Bar 69
	rest 8
	octave 2
	volume_envelope 9, 7
	note G#, 4
	note E_, 4
;Bar 70
	note G#, 4
	note E_, 4
	note G#, 4
	note E_, 4
;Bar 71
	note G#, 4
	note E_, 4
	note G_, 4
	note D#, 4
;Bar 72
	rest 16
;Bar 73
	note G#, 4
	note B_, 4
	octave 3
	note C#, 4
	octave 2
	note G#, 4
;Bar 74
	octave 3
	note C#, 4
	octave 2
	note G#, 4
	octave 3
	note C_, 4
	octave 2
	note G_, 4
;Bar 75
	octave 3
	note C_, 4
	octave 2
	note G_, 4
	note B_, 4
	note F#, 4
;Bar 76
	note B_, 4
	note F#, 4
	note A#, 4
	note F_, 4
;Bar 77
	note A#, 4
	note F_, 4
	note G#, 4
	note E_, 4
;Bar 78
	note G#, 4
	note E_, 4
	note G#, 4
	note E_, 4
;Bar 79
	note G#, 4
	note E_, 4
	note G_, 4
	note D#, 4
;Bar 80
	rest 16
;Bar 81
	note G#, 4
	note B_, 4
	octave 3
	note C#, 4
	octave 2
	note G#, 4
;Bar 82
	octave 3
	note C#, 4
	octave 2
	note G#, 4
	octave 3
	note C#, 4
	octave 2
	note G#, 4
;Bar 83
	octave 3
	note C#, 4
	octave 2
	note G#, 4
	octave 3
	note C#, 4
	octave 2
	note G#, 4
;Bar 84
	octave 3
	note C#, 4
	octave 2
	note G#, 4
	octave 3
	note C#, 4
	octave 2
	note G#, 4
;Bar 85
	octave 3
	note C#, 4
	octave 2
	note G#, 4
	rest 16
	rest 16
	rest 16
	rest 16
	rest 16
	rest 16
	rest 16
	rest 16
	rest 16
	rest 16
	rest 16
	rest 16
	rest 16
	rest 16
	rest 16
	rest 16
;Bar 101
	octave 1
	volume_envelope 13, 7
	;note A_, 0 | WARNING: Rounded down to 0
	octave 1
	note A_, 4
	;note E_, 0 | WARNING: Rounded down to 0
	octave 1
	note E_, 2
	octave 1
	;note C#, 0 | WARNING: Rounded down to 0
	octave 1
	note C#, 2
;Bar 102
	octave 1
	;note F#, 0 | WARNING: Rounded down to 0
	octave 1
	note F#, 2
	octave 1
	;note G#, 0 | WARNING: Rounded down to 0
	octave 1
	note G#, 4
	octave 1
	;note C#, 0 | WARNING: Rounded down to 0
	octave 1
	note C#, 2
	octave 1
	;note B_, 0 | WARNING: Rounded down to 0
	octave 1
	note B_, 4
	;note E_, 0 | WARNING: Rounded down to 0
	octave 1
	note E_, 2
	octave 1
	;note C#, 0 | WARNING: Rounded down to 0
	octave 1
	note C#, 2
;Bar 103
	octave 1
	;note F#, 0 | WARNING: Rounded down to 0
	octave 1
	note F#, 2
	octave 1
	;note G#, 0 | WARNING: Rounded down to 0
	octave 1
	note G#, 4
	octave 1
	;note C#, 0 | WARNING: Rounded down to 0
	octave 1
	note C#, 2
	octave 1
	;note C#, 0 | WARNING: Rounded down to 0
	octave 1
	note C#, 4
	octave 1
	;note E_, 0 | WARNING: Rounded down to 0
	octave 1
	note E_, 2
	octave 1
	;note C#, 0 | WARNING: Rounded down to 0
	octave 1
	note C#, 2
;Bar 104
	octave 1
	;note F#, 0 | WARNING: Rounded down to 0
	octave 1
	note F#, 2
	octave 1
	;note G#, 0 | WARNING: Rounded down to 0
	octave 1
	note G#, 4
	octave 1
	;note B_, 0 | WARNING: Rounded down to 0
	octave 1
	note B_, 2
	rest 2
	octave 1
	;note F#, 0 | WARNING: Rounded down to 0
	octave 1
	note F#, 2
	octave 1
	;note E_, 0 | WARNING: Rounded down to 0
	octave 1
	note E_, 2
	octave 1
	;note E_, 0 | WARNING: Rounded down to 0
	octave 1
	note E_, 2
;Bar 105
	octave 1
	;note D#, 0 | WARNING: Rounded down to 0
	octave 1
	note D#, 2
	octave 1
	;note D#, 0 | WARNING: Rounded down to 0
	octave 1
	note D#, 2
	octave 1
	;note E_, 0 | WARNING: Rounded down to 0
	octave 1
	note E_, 4
	octave 1
	;note F#, 0 | WARNING: Rounded down to 0
	octave 1
	note E_, 4
	;note E_, 0 | WARNING: Rounded down to 0
	octave 1
	note E_, 2
	octave 1
	;note C#, 0 | WARNING: Rounded down to 0
	octave 1
	note C#, 2
;Bar 106
	octave 1
	;note F#, 0 | WARNING: Rounded down to 0
	octave 1
	note F#, 2
	octave 1
	;note G#, 0 | WARNING: Rounded down to 0
	octave 1
	note G#, 4
	octave 1
	;note C#, 0 | WARNING: Rounded down to 0
	octave 1
	note C#, 2
	octave 1
	;note A_, 0 | WARNING: Rounded down to 0
	octave 1
	note A_, 4
	;note E_, 0 | WARNING: Rounded down to 0
	octave 1
	note E_, 2
	octave 1
	;note C#, 0 | WARNING: Rounded down to 0
	octave 1
	note C#, 2
;Bar 107
	octave 1
	;note F#, 0 | WARNING: Rounded down to 0
	octave 1
	note F#, 2
	octave 1
	;note G#, 0 | WARNING: Rounded down to 0
	octave 1
	note G#, 4
	octave 1
	;note C#, 0 | WARNING: Rounded down to 0
	octave 1
	note C#, 2
	octave 1
	;note C#, 0 | WARNING: Rounded down to 0
	octave 1
	note C#, 4
	octave 1
	;note E_, 0 | WARNING: Rounded down to 0
	octave 1
	note E_, 2
	octave 1
	;note C#, 0 | WARNING: Rounded down to 0
	octave 1
	note C#, 2
;Bar 108
	octave 1
	;note F#, 0 | WARNING: Rounded down to 0
	octave 1
	note F#, 2
	octave 1
	;note G#, 0 | WARNING: Rounded down to 0
	octave 1
	note G#, 4
	octave 1
	;note B_, 0 | WARNING: Rounded down to 0
	octave 1
	note B_, 2
	rest 2
	octave 1
	;note F#, 0 | WARNING: Rounded down to 0
	octave 1
	note F#, 2
	octave 1
	;note E_, 0 | WARNING: Rounded down to 0
	octave 1
	note E_, 2
	octave 1
	;note E_, 0 | WARNING: Rounded down to 0
	octave 1
	note E_, 2
;Bar 109
	octave 1
	;note D#, 0 | WARNING: Rounded down to 0
	octave 1
	note D#, 2
	octave 1
	;note D#, 0 | WARNING: Rounded down to 0
	octave 1
	note D#, 2
	octave 1
	;note E_, 0 | WARNING: Rounded down to 0
	octave 1
	note E_, 4
	octave 1
	;note A_, 0 | WARNING: Rounded down to 0
	octave 1
	note A_, 4
	;note E_, 0 | WARNING: Rounded down to 0
	octave 1
	note E_, 2
	octave 1
	;note C#, 0 | WARNING: Rounded down to 0
	octave 1
	note C#, 2
;Bar 110
	octave 1
	;note F#, 0 | WARNING: Rounded down to 0
	octave 1
	note F#, 2
	octave 1
	;note G#, 0 | WARNING: Rounded down to 0
	octave 1
	note G#, 4
	octave 1
	;note C#, 0 | WARNING: Rounded down to 0
	octave 1
	note C#, 2
	octave 1
	;note B_, 0 | WARNING: Rounded down to 0
	octave 1
	note B_, 4
	;note E_, 0 | WARNING: Rounded down to 0
	octave 1
	note E_, 2
	octave 1
	;note C#, 0 | WARNING: Rounded down to 0
	octave 1
	note C#, 2
;Bar 111
	octave 1
	;note F#, 0 | WARNING: Rounded down to 0
	octave 1
	note F#, 2
	octave 1
	;note G#, 0 | WARNING: Rounded down to 0
	octave 1
	note G#, 4
	octave 1
	;note C#, 0 | WARNING: Rounded down to 0
	octave 1
	note C#, 2
	octave 1
	;note C#, 0 | WARNING: Rounded down to 0
	octave 1
	note C#, 4
	octave 1
	;note E_, 0 | WARNING: Rounded down to 0
	octave 1
	note E_, 2
	octave 1
	;note C#, 0 | WARNING: Rounded down to 0
	octave 1
	note C#, 2
;Bar 112
	octave 1
	;note F#, 0 | WARNING: Rounded down to 0
	octave 1
	note F#, 2
	octave 1
	;note G#, 0 | WARNING: Rounded down to 0
	octave 1
	note G#, 4
	octave 1
	;note B_, 0 | WARNING: Rounded down to 0
	octave 1
	note B_, 2
	rest 2
	octave 1
	;note F#, 0 | WARNING: Rounded down to 0
	octave 1
	note F#, 2
	octave 1
	;note E_, 0 | WARNING: Rounded down to 0
	octave 1
	note E_, 2
	octave 1
	;note E_, 0 | WARNING: Rounded down to 0
	octave 1
	note E_, 2
;Bar 113
	octave 1
	;note D#, 0 | WARNING: Rounded down to 0
	octave 1
	note D#, 2
	octave 1
	;note D#, 0 | WARNING: Rounded down to 0
	octave 1
	note D#, 2
	octave 1
	;note E_, 0 | WARNING: Rounded down to 0
	octave 1
	note E_, 4
	octave 1
	;note F#, 0 | WARNING: Rounded down to 0
	octave 1
	note E_, 4
	;note E_, 0 | WARNING: Rounded down to 0
	octave 1
	note E_, 2
	octave 1
	;note C#, 0 | WARNING: Rounded down to 0
	octave 1
	note C#, 2
;Bar 114
	octave 1
	;note F#, 0 | WARNING: Rounded down to 0
	octave 1
	note F#, 2
	octave 1
	;note G#, 0 | WARNING: Rounded down to 0
	octave 1
	note G#, 4
	octave 1
	;note C#, 0 | WARNING: Rounded down to 0
	octave 1
	note C#, 2
	octave 1
	;note A_, 0 | WARNING: Rounded down to 0
	octave 1
	note A_, 4
	;note E_, 0 | WARNING: Rounded down to 0
	octave 1
	note E_, 2
	octave 1
	;note C#, 0 | WARNING: Rounded down to 0
	octave 1
	note C#, 2
;Bar 115
	octave 1
	;note F#, 0 | WARNING: Rounded down to 0
	octave 1
	note F#, 2
	octave 1
	;note G#, 0 | WARNING: Rounded down to 0
	octave 1
	note G#, 4
	octave 1
	;note C#, 0 | WARNING: Rounded down to 0
	octave 1
	note C#, 2
	octave 1
	;note C#, 0 | WARNING: Rounded down to 0
	octave 1
	note C#, 4
	octave 1
	;note E_, 0 | WARNING: Rounded down to 0
	octave 1
	note E_, 2
	octave 1
	;note C#, 0 | WARNING: Rounded down to 0
	octave 1
	note C#, 2
;Bar 116
	octave 1
	;note F#, 0 | WARNING: Rounded down to 0
	octave 1
	note F#, 2
	octave 1
	;note G#, 0 | WARNING: Rounded down to 0
	octave 1
	note G#, 4
	octave 1
	;note B_, 0 | WARNING: Rounded down to 0
	octave 1
	note B_, 2
	rest 2
	octave 1
	;note F#, 0 | WARNING: Rounded down to 0
	octave 1
	note F#, 2
	octave 1
	;note E_, 0 | WARNING: Rounded down to 0
	octave 1
	note E_, 2
	octave 1
	;note E_, 0 | WARNING: Rounded down to 0
	octave 1
	note E_, 2
;Bar 117
	octave 1
	;note D#, 0 | WARNING: Rounded down to 0
	octave 1
	note D#, 2
	octave 1
	;note D#, 0 | WARNING: Rounded down to 0
	octave 1
	note D#, 2
	octave 1
	;note E_, 0 | WARNING: Rounded down to 0
	octave 1
	note E_, 4
	note C#, 4
	note E_, 2
	note C#, 2
;Bar 118
	note F#, 2
	note G#, 4
	note C#, 2
	octave 1
	note B_, 4
	octave 1
	note E_, 2
	note C#, 2
;Bar 119
	note F#, 2
	note G#, 4
	note C#, 2
	octave 1
	note A#, 4
	octave 1
	note E_, 2
	note C#, 2
;Bar 120
	note F#, 2
	note G#, 4
	note B_, 4
	note F#, 2
	note E_, 2
	note E_, 2
;Bar 121
	note D#, 2
	note D#, 2
	note E_, 4
	note C#, 4
	note E_, 2
	note C#, 2
;Bar 122
	note F#, 2
	note G#, 4
	note C#, 2
	octave 1
	note B_, 4
	octave 1
	note E_, 2
	note C#, 2
;Bar 123
	note F#, 2
	note G#, 4
	note C#, 2
	octave 1
	note A#, 4
	octave 1
	note E_, 2
	note C#, 2
;Bar 124
	note F#, 2
	note G#, 4
	note B_, 2
	rest 2
	note F#, 2
	note E_, 2
	note E_, 2
;Bar 125
	note D#, 2
	note D#, 2
	note E_, 4
	rest 16
	rest 16
	rest 16
	rest 16
	rest 16
	rest 16
	rest 16
	rest 16
	sound_loop 0, .mainloop

; ============================================================================================================

Music_Nuzzles_Ch2:
	duty_cycle 1
	note_type 12, 10, 7
;Bar 1
.mainloop
	octave 3
	volume_envelope 9, 7
	;note C#, 0 | WARNING: Rounded down to 0
	note E_, 16
;Bar 2
	octave 2
	;note B_, 0 | WARNING: Rounded down to 0
	octave 3
	note D#, 16
;Bar 3
	octave 2
	;note F#, 0 | WARNING: Rounded down to 0
	note A#, 16
;Bar 4
	;note A_, 0 | WARNING: Rounded down to 0
	octave 3
	note C#, 8
	rest 16
	rest 16
	rest 16
	rest 16
	rest 16
	rest 16
	rest 2
;Bar 10
	octave 4
	volume_envelope 5, 7
	note G#, 1
	volume_envelope 6, 7
	note G_, 1
	volume_envelope 7, 7
	note F#, 1
	note E_, 1
	volume_envelope 8, 7
	note D#, 1
	volume_envelope 9, 7
	note D_, 1
;Bar 11
	rest 16
	rest 16
	rest 16
	rest 16
	rest 16
	rest 16
	rest 16
	rest 16
	rest 4
;Bar 19
	octave 3
	volume_envelope 14, 7
	note C#, 2
	note E_, 2
	note G#, 4
	note F#, 2
	note G#, 2
;Bar 20
	note F#, 2 ; WARNING: Auto-Sync says: Rounded up!
	note E_, 2
	note D#, 2
	note E_, 2
	note E_, 6
	note G#, 4
;Bar 21
	note C#, 2
	note D#, 4
	note E_, 4 ; WARNING: Auto-Sync says: Rounded down!
	note E_, 2
	note F#, 2
;Bar 22
	note E_, 2
	note F#, 2
	note C#, 2
	note G#, 4 ; WARNING: Auto-Sync says: Rounded down!
	rest 2
	note B_, 2
	note G#, 1
	;note F#, 0 | WARNING: Rounded down to 0
	note G#, 1
;Bar 23
	note F#, 4
	note E_, 2
	note G#, 2
	note C#, 4
	note B_, 2
	octave 4
	note C#, 4
;Bar 24
	note E_, 4
	note D#, 2
	rest 2
	note C#, 2
	octave 3
	note A_, 2
	note G#, 4
;Bar 25
	note F#, 4
	note G#, 4
	rest 2
	note A_, 2
	note G#, 4
;Bar 26
	note G#, 2
	note A_, 2
	octave 4
	note C#, 4
	rest 2
	note D#, 2
	note E_, 6
;Bar 27
	note G#, 1
	;note E_, 0 | WARNING: Rounded down to 0
	note C#, 1
	note E_, 1
	;note G#, 0 | WARNING: Rounded down to 0
	note B_, 1
	octave 5
	note C#, 3
	octave 4
	note G#, 3
	note E_, 2
;Bar 28
	note D#, 2
	note E_, 2
	note C#, 2
	note E_, 7
	rest 3
;Bar 29
	note E_, 2
	note D#, 4
	note G#, 2
	note F#, 2
	note G_, 2
	note G#, 2
	note B_, 4
;Bar 30
	octave 5
	note C#, 1
	octave 4
	;note B_, 0 | WARNING: Rounded down to 0
	octave 5
	note C#, 1
	note E_, 2
	note D#, 2
	note C#, 1
	octave 4
	note B_, 1
	octave 5
	note C#, 1
	octave 4
	note B_, 1
	note G#, 2
	note B_, 2
;Bar 31
	note F#, 1
	note E_, 1
	note C#, 1
	note E_, 1
	note G#, 1
	note F#, 1
	note D#, 1
	note F#, 1
	note E_, 2
	note E_, 2
	note D#, 2
	note E_, 4
;Bar 32
	note E_, 4
	note F#, 1
	note G#, 1
	note F#, 2
	note E_, 2
	note E_, 1
	note G#, 1
	note F#, 4
;Bar 33
	note F#, 2
	note G#, 4
	;note E_, 0 | WARNING: Rounded down to 0
	note A_, 4
	;note D#, 0 | WARNING: Rounded down to 0
	note G#, 4
;Bar 34
	;note D_, 0 | WARNING: Rounded down to 0
	note G_, 4
	;note D#, 0 | WARNING: Rounded down to 0
	note G#, 4
	;note D_, 0 | WARNING: Rounded down to 0
	note A_, 1
	octave 3
	;note A_, 0 | WARNING: Rounded down to 0
	octave 4
	note E_, 1
	octave 3
	;note F#, 0 | WARNING: Rounded down to 0
	octave 4
	note C#, 1
	octave 3
	;note A_, 0 | WARNING: Rounded down to 0
	octave 4
	note E_, 1
	;note C#, 0 | WARNING: Rounded down to 0
	note G#, 1
	octave 3
	;note G#, 0 | WARNING: Rounded down to 0
	octave 4
	note D#, 1
	octave 3
	;note F_, 0 | WARNING: Rounded down to 0
	octave 4
	note C_, 1
	octave 3
	;note G#, 0 | WARNING: Rounded down to 0
	octave 4
	note D#, 1
;Bar 35
	;note C_, 0 | WARNING: Rounded down to 0
	note G_, 1
	octave 3
	;note G#, 0 | WARNING: Rounded down to 0
	octave 4
	note D_, 1
	octave 3
	;note E_, 0 | WARNING: Rounded down to 0
	note B_, 1
	;note G#, 0 | WARNING: Rounded down to 0
	octave 4
	note D_, 1
	;note D#, 0 | WARNING: Rounded down to 0
	note G#, 4
	rest 16
	rest 16
	rest 16
	rest 16
	rest 16
	rest 16
	rest 16
	rest 16
;Bar 43
	;note D#, 0 | WARNING: Rounded down to 0
	note G#, 1
	;note F#, 0 | WARNING: Rounded down to 0
	note B_, 1
	;note A#, 0 | WARNING: Rounded down to 0
	octave 5
	note C#, 4
	octave 4
	;note E_, 0 | WARNING: Rounded down to 0
	note G#, 6
;Bar 44
	;note D#, 0 | WARNING: Rounded down to 0
	note F#, 4
	rest 4
	;note E_, 0 | WARNING: Rounded down to 0
	note G#, 2
	;note D#, 0 | WARNING: Rounded down to 0
	note F#, 2
;Bar 45
	;note C#, 0 | WARNING: Rounded down to 0
	note E_, 2
	octave 3
	;note B_, 0 | WARNING: Rounded down to 0
	octave 4
	note D#, 2
	;note C#, 0 | WARNING: Rounded down to 0
	note E_, 2
	;note F#, 0 | WARNING: Rounded down to 0
	note B_, 2
	;note E_, 0 | WARNING: Rounded down to 0
	note G#, 4
	octave 3
	;note G#, 0 | WARNING: Rounded down to 0
	octave 4
	note C#, 2
	;note E_, 0 | WARNING: Rounded down to 0
	note G#, 2
;Bar 46
	;note D#, 0 | WARNING: Rounded down to 0
	note F#, 2
	;note C#, 0 | WARNING: Rounded down to 0
	note E_, 2
	;note D#, 0 | WARNING: Rounded down to 0
	note F#, 2
	;note C#, 0 | WARNING: Rounded down to 0
	note E_, 6
	rest 2
	;note D#, 0 | WARNING: Rounded down to 0
	note F#, 4
;Bar 47
	;note E_, 0 | WARNING: Rounded down to 0
	note G#, 4
	octave 3
	;note A_, 0 | WARNING: Rounded down to 0
	octave 4
	note C#, 4
	rest 2
	;note C#, 0 | WARNING: Rounded down to 0
	note E_, 2
	;note D#, 0 | WARNING: Rounded down to 0
	note F#, 4
;Bar 48
	octave 3
	;note A_, 0 | WARNING: Rounded down to 0
	octave 4
	note C#, 4
	octave 3
	;note B_, 0 | WARNING: Rounded down to 0
	octave 4
	note E_, 4
	rest 2
	;note C#, 0 | WARNING: Rounded down to 0
	note E_, 2
	octave 3
	;note B_, 0 | WARNING: Rounded down to 0
	octave 4
	note D#, 6
;Bar 49
	;note C#, 0 | WARNING: Rounded down to 0
	note E_, 4
	;note C#, 0 | WARNING: Rounded down to 0
	note E_, 16
;Bar 50
	;note C#, 0 | WARNING: Rounded down to 0
	note F#, 8
;Bar 51
	;note E_, 0 | WARNING: Rounded down to 0
	note B_, 8
	;note D#, 0 | WARNING: Rounded down to 0
	note G#, 1
	;note F#, 0 | WARNING: Rounded down to 0
	note B_, 1
	;note A#, 0 | WARNING: Rounded down to 0
	octave 5
	note C#, 4
	octave 4
	;note E_, 0 | WARNING: Rounded down to 0
	note G#, 6
;Bar 52
	;note D#, 0 | WARNING: Rounded down to 0
	note F#, 4
	rest 4
	;note E_, 0 | WARNING: Rounded down to 0
	note G#, 2
	;note D#, 0 | WARNING: Rounded down to 0
	note F#, 2
;Bar 53
	;note C#, 0 | WARNING: Rounded down to 0
	note E_, 2
	octave 3
	;note B_, 0 | WARNING: Rounded down to 0
	octave 4
	note D#, 2
	;note C#, 0 | WARNING: Rounded down to 0
	note E_, 2
	;note F#, 0 | WARNING: Rounded down to 0
	note B_, 2
	;note E_, 0 | WARNING: Rounded down to 0
	note G#, 4
	octave 3
	;note G#, 0 | WARNING: Rounded down to 0
	octave 4
	note C#, 2
	;note E_, 0 | WARNING: Rounded down to 0
	note G#, 2
;Bar 54
	;note D#, 0 | WARNING: Rounded down to 0
	note F#, 2
	;note C#, 0 | WARNING: Rounded down to 0
	note E_, 2
	;note D#, 0 | WARNING: Rounded down to 0
	note F#, 2
	;note C#, 0 | WARNING: Rounded down to 0
	note E_, 6
	rest 2
	;note D#, 0 | WARNING: Rounded down to 0
	note F#, 4
;Bar 55
	;note E_, 0 | WARNING: Rounded down to 0
	note G#, 4
	octave 3
	;note A_, 0 | WARNING: Rounded down to 0
	octave 4
	note C#, 4
	rest 2
	;note C#, 0 | WARNING: Rounded down to 0
	note E_, 2
	;note D#, 0 | WARNING: Rounded down to 0
	note F#, 4
;Bar 56
	octave 3
	;note A_, 0 | WARNING: Rounded down to 0
	octave 4
	note C#, 4
	octave 3
	;note B_, 0 | WARNING: Rounded down to 0
	octave 4
	note E_, 4
	rest 2
	;note C#, 0 | WARNING: Rounded down to 0
	note E_, 2
	octave 3
	;note B_, 0 | WARNING: Rounded down to 0
	octave 4
	note D#, 6
;Bar 57
	;note C#, 0 | WARNING: Rounded down to 0
	note E_, 4
	;note C#, 0 | WARNING: Rounded down to 0
	note E_, 16
;Bar 58
	;note C#, 0 | WARNING: Rounded down to 0
	note F#, 8
;Bar 59
	;note E_, 0 | WARNING: Rounded down to 0
	note B_, 8
	octave 3
	volume_envelope 11, 7
	;note C#, 0 | WARNING: Rounded down to 0
	note E_, 16
;Bar 60
	octave 2
	;note B_, 0 | WARNING: Rounded down to 0
	octave 3
	note D#, 16
;Bar 61
	octave 2
	;note F#, 0 | WARNING: Rounded down to 0
	note A#, 16
;Bar 62
	;note A_, 0 | WARNING: Rounded down to 0
	octave 3
	note C#, 8
;Bar 63
	rest 16
	rest 16
	rest 16
	rest 16
	rest 16
	rest 16
	rest 2
;Bar 69
	octave 4
	volume_envelope 5, 7
	note G#, 1
	volume_envelope 6, 7
	note G_, 1
	volume_envelope 7, 7
	note F#, 1
	note E_, 1
	volume_envelope 8, 7
	note D#, 1
	volume_envelope 9, 7
	note D_, 1
	octave 3
	volume_envelope 11, 7
	;note E_, 0 | WARNING: Rounded down to 0
	note G#, 2
	;note D#, 0 | WARNING: Rounded down to 0
	note F#, 2
	;note E_, 0 | WARNING: Rounded down to 0
	note G_, 2
	;note D#, 0 | WARNING: Rounded down to 0
	note F#, 2
;Bar 70
	;note C#, 0 | WARNING: Rounded down to 0
	note E_, 2
	octave 2
	;note A_, 0 | WARNING: Rounded down to 0
	octave 3
	note C#, 2
	octave 2
	;note B_, 0 | WARNING: Rounded down to 0
	octave 3
	note D#, 2
	;note C#, 0 | WARNING: Rounded down to 0
	note E_, 2
	;note E_, 0 | WARNING: Rounded down to 0
	note A_, 1
	;note G#, 0 | WARNING: Rounded down to 0
	note B_, 1
	;note D#, 0 | WARNING: Rounded down to 0
	note F#, 2
	;note E_, 0 | WARNING: Rounded down to 0
	note G_, 2
	;note D#, 0 | WARNING: Rounded down to 0
	note F#, 2
;Bar 71
	;note D#, 0 | WARNING: Rounded down to 0
	note G_, 3
	;note E_, 0 | WARNING: Rounded down to 0
	note G#, 3
	;note G#, 0 | WARNING: Rounded down to 0
	note B_, 2
	;note A_, 0 | WARNING: Rounded down to 0
	octave 4
	note C#, 4
	octave 3
	;note G#, 0 | WARNING: Rounded down to 0
	note B_, 4
;Bar 72
	;note E_, 0 | WARNING: Rounded down to 0
	note G#, 1
	;note G#, 0 | WARNING: Rounded down to 0
	note B_, 1
	;note E_, 0 | WARNING: Rounded down to 0
	note G#, 2
	;note D#, 0 | WARNING: Rounded down to 0
	note F#, 4
	;note E_, 0 | WARNING: Rounded down to 0
	note G#, 2
	;note D#, 0 | WARNING: Rounded down to 0
	note F#, 2
	;note C#, 0 | WARNING: Rounded down to 0
	note F_, 2
	;note C#, 0 | WARNING: Rounded down to 0
	note E_, 2
;Bar 73
	;note D#, 0 | WARNING: Rounded down to 0
	note F#, 1
	;note C#, 0 | WARNING: Rounded down to 0
	note E_, 1
	octave 2
	;note B_, 0 | WARNING: Rounded down to 0
	octave 3
	note D#, 2
	;note C#, 0 | WARNING: Rounded down to 0
	note E_, 2
	;note D#, 0 | WARNING: Rounded down to 0
	note F#, 2
	;note C#, 0 | WARNING: Rounded down to 0
	note F#, 1
	;note E_, 0 | WARNING: Rounded down to 0
	note G#, 3
	octave 2
	;note G#, 0 | WARNING: Rounded down to 0
	octave 3
	note C#, 2
	;note E_, 0 | WARNING: Rounded down to 0
	note G#, 2
;Bar 74
	;note D#, 0 | WARNING: Rounded down to 0
	note F#, 4
	;note C#, 0 | WARNING: Rounded down to 0
	note E_, 4
	;note E_, 0 | WARNING: Rounded down to 0
	note G_, 4
	;note C_, 0 | WARNING: Rounded down to 0
	note E_, 2
	;note E_, 0 | WARNING: Rounded down to 0
	note G_, 2
;Bar 75
	;note D#, 0 | WARNING: Rounded down to 0
	note F#, 4
	;note C#, 0 | WARNING: Rounded down to 0
	note E_, 4
	;note D#, 0 | WARNING: Rounded down to 0
	note F#, 2
	;note C#, 0 | WARNING: Rounded down to 0
	note F_, 2
	;note D#, 0 | WARNING: Rounded down to 0
	note F#, 2
	;note G_, 0 | WARNING: Rounded down to 0
	note B_, 4
;Bar 76
	;note D#, 0 | WARNING: Rounded down to 0
	note F#, 2
	;note D#, 0 | WARNING: Rounded down to 0
	note F#, 2
	;note D#, 0 | WARNING: Rounded down to 0
	note F#, 1
	;note E_, 0 | WARNING: Rounded down to 0
	note G#, 1
	;note D#, 0 | WARNING: Rounded down to 0
	note F#, 1
	;note C#, 0 | WARNING: Rounded down to 0
	note F#, 1
	;note C#, 0 | WARNING: Rounded down to 0
	note E_, 6
;Bar 77
	octave 2
	;note B_, 0 | WARNING: Rounded down to 0
	octave 3
	note D#, 4
	;note C#, 0 | WARNING: Rounded down to 0
	note E_, 4
	;note E_, 0 | WARNING: Rounded down to 0
	note G#, 2
	;note D#, 0 | WARNING: Rounded down to 0
	note F#, 2
	;note E_, 0 | WARNING: Rounded down to 0
	note G_, 2
	;note D#, 0 | WARNING: Rounded down to 0
	note F#, 2
;Bar 78
	;note C#, 0 | WARNING: Rounded down to 0
	note E_, 2
	octave 2
	;note A_, 0 | WARNING: Rounded down to 0
	octave 3
	note C#, 2
	octave 2
	;note B_, 0 | WARNING: Rounded down to 0
	octave 3
	note D#, 2
	;note C#, 0 | WARNING: Rounded down to 0
	note E_, 2
	;note E_, 0 | WARNING: Rounded down to 0
	note A_, 1
	;note G#, 0 | WARNING: Rounded down to 0
	note B_, 1
	;note D#, 0 | WARNING: Rounded down to 0
	note F#, 2
	;note E_, 0 | WARNING: Rounded down to 0
	note G_, 2
	;note D#, 0 | WARNING: Rounded down to 0
	note F#, 2
;Bar 79
	;note D#, 0 | WARNING: Rounded down to 0
	note G_, 3
	;note E_, 0 | WARNING: Rounded down to 0
	note G#, 3
	;note G#, 0 | WARNING: Rounded down to 0
	note B_, 2
	;note G#, 0 | WARNING: Rounded down to 0
	octave 4
	note C#, 8
;Bar 80
	octave 3
	;note B_, 0 | WARNING: Rounded down to 0
	octave 4
	note D#, 8
	;note E_, 0 | WARNING: Rounded down to 0
	note G#, 2
	;note D#, 0 | WARNING: Rounded down to 0
	note F#, 2
	;note E_, 0 | WARNING: Rounded down to 0
	note G#, 2
	;note D#, 0 | WARNING: Rounded down to 0
	note F#, 2
;Bar 81
	;note C#, 0 | WARNING: Rounded down to 0
	note E_, 2
	octave 3
	;note G#, 0 | WARNING: Rounded down to 0
	octave 4
	note C#, 2
	;note C#, 0 | WARNING: Rounded down to 0
	note E_, 2
	octave 3
	;note G#, 0 | WARNING: Rounded down to 0
	octave 4
	note C#, 2
	;note E_, 0 | WARNING: Rounded down to 0
	note G_, 2
	;note E_, 0 | WARNING: Rounded down to 0
	note G_, 4
	;note E_, 0 | WARNING: Rounded down to 0
	note G#, 8
;Bar 82
	rest 2
	;note D#, 0 | WARNING: Rounded down to 0
	note F#, 2
	;note D#, 0 | WARNING: Rounded down to 0
	note F#, 4
	;note C#, 0 | WARNING: Rounded down to 0
	note E_, 8
;Bar 83
	rest 2
	;note E_, 0 | WARNING: Rounded down to 0
	note G_, 2
	;note E_, 0 | WARNING: Rounded down to 0
	note G_, 2
	;note E_, 0 | WARNING: Rounded down to 0
	note G_, 2
	;note E_, 0 | WARNING: Rounded down to 0
	note G#, 8
;Bar 84
	rest 2
	;note G#, 0 | WARNING: Rounded down to 0
	note B_, 1
	;note G#, 0 | WARNING: Rounded down to 0
	octave 5
	note C#, 3
	octave 4
	;note F#, 0 | WARNING: Rounded down to 0
	note B_, 4
;Bar 85
	;note E_, 0 | WARNING: Rounded down to 0
	note G#, 4
	;note C#, 0 | WARNING: Rounded down to 0
	note E_, 4
	octave 3
	volume_envelope 13, 7
	;note E_, 0 | WARNING: Rounded down to 0
	;note G#, 0 | WARNING: Rounded down to 0
	octave 4
	;note E_, 0 | WARNING: Rounded down to 0
	note G#, 2
	octave 3
	;note D#, 0 | WARNING: Rounded down to 0
	;note F#, 0 | WARNING: Rounded down to 0
	octave 4
	;note D#, 0 | WARNING: Rounded down to 0
	note F#, 2
	octave 3
	;note E_, 0 | WARNING: Rounded down to 0
	;note G_, 0 | WARNING: Rounded down to 0
	octave 4
	;note E_, 0 | WARNING: Rounded down to 0
	note G_, 2
	octave 3
	;note D#, 0 | WARNING: Rounded down to 0
	;note F#, 0 | WARNING: Rounded down to 0
	octave 4
	;note D#, 0 | WARNING: Rounded down to 0
	note F#, 2
;Bar 86
	octave 3
	;note C#, 0 | WARNING: Rounded down to 0
	;note E_, 0 | WARNING: Rounded down to 0
	octave 4
	;note C#, 0 | WARNING: Rounded down to 0
	note E_, 2
	octave 2
	;note A_, 0 | WARNING: Rounded down to 0
	octave 3
	;note C#, 0 | WARNING: Rounded down to 0
	;note A_, 0 | WARNING: Rounded down to 0
	octave 4
	note C#, 2
	octave 2
	;note B_, 0 | WARNING: Rounded down to 0
	octave 3
	;note D#, 0 | WARNING: Rounded down to 0
	;note B_, 0 | WARNING: Rounded down to 0
	octave 4
	note D#, 2
	octave 3
	;note C#, 0 | WARNING: Rounded down to 0
	;note E_, 0 | WARNING: Rounded down to 0
	octave 4
	;note C#, 0 | WARNING: Rounded down to 0
	note E_, 2
	octave 3
	;note E_, 0 | WARNING: Rounded down to 0
	;note A_, 0 | WARNING: Rounded down to 0
	octave 4
	;note E_, 0 | WARNING: Rounded down to 0
	note A_, 1
	octave 3
	;note G#, 0 | WARNING: Rounded down to 0
	;note B_, 0 | WARNING: Rounded down to 0
	octave 4
	;note G#, 0 | WARNING: Rounded down to 0
	note B_, 1
	octave 3
	;note D#, 0 | WARNING: Rounded down to 0
	;note F#, 0 | WARNING: Rounded down to 0
	octave 4
	;note D#, 0 | WARNING: Rounded down to 0
	note F#, 2
	octave 3
	;note E_, 0 | WARNING: Rounded down to 0
	;note G_, 0 | WARNING: Rounded down to 0
	octave 4
	;note E_, 0 | WARNING: Rounded down to 0
	note G_, 2
	octave 3
	;note D#, 0 | WARNING: Rounded down to 0
	;note F#, 0 | WARNING: Rounded down to 0
	octave 4
	;note D#, 0 | WARNING: Rounded down to 0
	note F#, 2
;Bar 87
	octave 3
	;note D#, 0 | WARNING: Rounded down to 0
	;note G_, 0 | WARNING: Rounded down to 0
	octave 4
	;note D#, 0 | WARNING: Rounded down to 0
	note G_, 3
	octave 3
	;note E_, 0 | WARNING: Rounded down to 0
	;note G#, 0 | WARNING: Rounded down to 0
	octave 4
	;note E_, 0 | WARNING: Rounded down to 0
	note G#, 3
	octave 3
	;note G#, 0 | WARNING: Rounded down to 0
	;note B_, 0 | WARNING: Rounded down to 0
	octave 4
	;note G#, 0 | WARNING: Rounded down to 0
	note B_, 2
	octave 3
	;note A_, 0 | WARNING: Rounded down to 0
	octave 4
	;note C#, 0 | WARNING: Rounded down to 0
	;note A_, 0 | WARNING: Rounded down to 0
	octave 5
	note C#, 4
	octave 3
	;note G#, 0 | WARNING: Rounded down to 0
	;note B_, 0 | WARNING: Rounded down to 0
	octave 4
	;note G#, 0 | WARNING: Rounded down to 0
	note B_, 4
;Bar 88
	octave 3
	;note E_, 0 | WARNING: Rounded down to 0
	;note G#, 0 | WARNING: Rounded down to 0
	octave 4
	;note E_, 0 | WARNING: Rounded down to 0
	note G#, 1
	octave 3
	;note G#, 0 | WARNING: Rounded down to 0
	;note B_, 0 | WARNING: Rounded down to 0
	octave 4
	;note G#, 0 | WARNING: Rounded down to 0
	note B_, 1
	octave 3
	;note E_, 0 | WARNING: Rounded down to 0
	;note G#, 0 | WARNING: Rounded down to 0
	octave 4
	;note E_, 0 | WARNING: Rounded down to 0
	note G#, 2
	octave 3
	;note D#, 0 | WARNING: Rounded down to 0
	;note F#, 0 | WARNING: Rounded down to 0
	octave 4
	;note D#, 0 | WARNING: Rounded down to 0
	note F#, 4
	octave 3
	;note E_, 0 | WARNING: Rounded down to 0
	;note G#, 0 | WARNING: Rounded down to 0
	octave 4
	;note E_, 0 | WARNING: Rounded down to 0
	note G#, 2
	octave 3
	;note D#, 0 | WARNING: Rounded down to 0
	;note F#, 0 | WARNING: Rounded down to 0
	octave 4
	;note D#, 0 | WARNING: Rounded down to 0
	note F#, 2
	octave 3
	;note C#, 0 | WARNING: Rounded down to 0
	;note F_, 0 | WARNING: Rounded down to 0
	octave 4
	;note C#, 0 | WARNING: Rounded down to 0
	note F_, 2
	octave 3
	;note C#, 0 | WARNING: Rounded down to 0
	;note E_, 0 | WARNING: Rounded down to 0
	octave 4
	;note C#, 0 | WARNING: Rounded down to 0
	note E_, 2
;Bar 89
	octave 3
	;note D#, 0 | WARNING: Rounded down to 0
	;note F#, 0 | WARNING: Rounded down to 0
	octave 4
	;note D#, 0 | WARNING: Rounded down to 0
	note F#, 1
	octave 3
	;note C#, 0 | WARNING: Rounded down to 0
	;note E_, 0 | WARNING: Rounded down to 0
	octave 4
	;note C#, 0 | WARNING: Rounded down to 0
	note E_, 1
	octave 2
	;note B_, 0 | WARNING: Rounded down to 0
	octave 3
	;note D#, 0 | WARNING: Rounded down to 0
	;note B_, 0 | WARNING: Rounded down to 0
	octave 4
	note D#, 2
	octave 3
	;note C#, 0 | WARNING: Rounded down to 0
	;note E_, 0 | WARNING: Rounded down to 0
	octave 4
	;note C#, 0 | WARNING: Rounded down to 0
	note E_, 2
	octave 3
	;note D#, 0 | WARNING: Rounded down to 0
	;note F#, 0 | WARNING: Rounded down to 0
	octave 4
	;note D#, 0 | WARNING: Rounded down to 0
	note F#, 2
	octave 3
	;note C#, 0 | WARNING: Rounded down to 0
	;note F#, 0 | WARNING: Rounded down to 0
	octave 4
	;note C#, 0 | WARNING: Rounded down to 0
	note F#, 1
	octave 3
	;note E_, 0 | WARNING: Rounded down to 0
	;note G#, 0 | WARNING: Rounded down to 0
	octave 4
	;note E_, 0 | WARNING: Rounded down to 0
	note G#, 3
	octave 2
	;note G#, 0 | WARNING: Rounded down to 0
	octave 3
	;note C#, 0 | WARNING: Rounded down to 0
	;note G#, 0 | WARNING: Rounded down to 0
	octave 4
	note C#, 2
	octave 3
	;note E_, 0 | WARNING: Rounded down to 0
	;note G#, 0 | WARNING: Rounded down to 0
	octave 4
	;note E_, 0 | WARNING: Rounded down to 0
	note G#, 2
;Bar 90
	octave 3
	;note D#, 0 | WARNING: Rounded down to 0
	;note F#, 0 | WARNING: Rounded down to 0
	octave 4
	;note D#, 0 | WARNING: Rounded down to 0
	note F#, 4
	octave 3
	;note C#, 0 | WARNING: Rounded down to 0
	;note E_, 0 | WARNING: Rounded down to 0
	octave 4
	;note C#, 0 | WARNING: Rounded down to 0
	note E_, 4
	octave 3
	;note E_, 0 | WARNING: Rounded down to 0
	;note G_, 0 | WARNING: Rounded down to 0
	octave 4
	;note E_, 0 | WARNING: Rounded down to 0
	note G_, 4
	octave 3
	;note C_, 0 | WARNING: Rounded down to 0
	;note E_, 0 | WARNING: Rounded down to 0
	octave 4
	;note C_, 0 | WARNING: Rounded down to 0
	note E_, 2
	octave 3
	;note E_, 0 | WARNING: Rounded down to 0
	;note G_, 0 | WARNING: Rounded down to 0
	octave 4
	;note E_, 0 | WARNING: Rounded down to 0
	note G_, 2
;Bar 91
	octave 3
	;note D#, 0 | WARNING: Rounded down to 0
	;note F#, 0 | WARNING: Rounded down to 0
	octave 4
	;note D#, 0 | WARNING: Rounded down to 0
	note F#, 4
	octave 3
	;note C#, 0 | WARNING: Rounded down to 0
	;note E_, 0 | WARNING: Rounded down to 0
	octave 4
	;note C#, 0 | WARNING: Rounded down to 0
	note E_, 4
	octave 3
	;note D#, 0 | WARNING: Rounded down to 0
	;note F#, 0 | WARNING: Rounded down to 0
	octave 4
	;note D#, 0 | WARNING: Rounded down to 0
	note F#, 2
	octave 3
	;note C#, 0 | WARNING: Rounded down to 0
	;note F_, 0 | WARNING: Rounded down to 0
	octave 4
	;note C#, 0 | WARNING: Rounded down to 0
	note F_, 2
	octave 3
	;note D#, 0 | WARNING: Rounded down to 0
	;note F#, 0 | WARNING: Rounded down to 0
	octave 4
	;note D#, 0 | WARNING: Rounded down to 0
	note F#, 2
	octave 3
	;note G_, 0 | WARNING: Rounded down to 0
	;note B_, 0 | WARNING: Rounded down to 0
	octave 4
	;note G_, 0 | WARNING: Rounded down to 0
	note B_, 4
;Bar 92
	octave 3
	;note D#, 0 | WARNING: Rounded down to 0
	;note F#, 0 | WARNING: Rounded down to 0
	octave 4
	;note D#, 0 | WARNING: Rounded down to 0
	note F#, 2
	octave 3
	;note D#, 0 | WARNING: Rounded down to 0
	;note F#, 0 | WARNING: Rounded down to 0
	octave 4
	;note D#, 0 | WARNING: Rounded down to 0
	note F#, 2
	octave 3
	;note D#, 0 | WARNING: Rounded down to 0
	;note F#, 0 | WARNING: Rounded down to 0
	octave 4
	;note D#, 0 | WARNING: Rounded down to 0
	note F#, 1
	octave 3
	;note E_, 0 | WARNING: Rounded down to 0
	;note G#, 0 | WARNING: Rounded down to 0
	octave 4
	;note E_, 0 | WARNING: Rounded down to 0
	note G#, 1
	octave 3
	;note D#, 0 | WARNING: Rounded down to 0
	;note F#, 0 | WARNING: Rounded down to 0
	octave 4
	;note D#, 0 | WARNING: Rounded down to 0
	note F#, 1
	octave 3
	;note C#, 0 | WARNING: Rounded down to 0
	;note F#, 0 | WARNING: Rounded down to 0
	octave 4
	;note C#, 0 | WARNING: Rounded down to 0
	note F#, 1
	octave 3
	;note C#, 0 | WARNING: Rounded down to 0
	;note E_, 0 | WARNING: Rounded down to 0
	octave 4
	;note C#, 0 | WARNING: Rounded down to 0
	note E_, 6
;Bar 93
	octave 2
	;note B_, 0 | WARNING: Rounded down to 0
	octave 3
	;note D#, 0 | WARNING: Rounded down to 0
	;note B_, 0 | WARNING: Rounded down to 0
	octave 4
	note D#, 4
	octave 3
	;note C#, 0 | WARNING: Rounded down to 0
	;note E_, 0 | WARNING: Rounded down to 0
	octave 4
	;note C#, 0 | WARNING: Rounded down to 0
	note E_, 4
	octave 3
	;note E_, 0 | WARNING: Rounded down to 0
	;note G#, 0 | WARNING: Rounded down to 0
	octave 4
	;note E_, 0 | WARNING: Rounded down to 0
	note G#, 2
	octave 3
	;note D#, 0 | WARNING: Rounded down to 0
	;note F#, 0 | WARNING: Rounded down to 0
	octave 4
	;note D#, 0 | WARNING: Rounded down to 0
	note F#, 2
	octave 3
	;note E_, 0 | WARNING: Rounded down to 0
	;note G_, 0 | WARNING: Rounded down to 0
	octave 4
	;note E_, 0 | WARNING: Rounded down to 0
	note G_, 2
	octave 3
	;note D#, 0 | WARNING: Rounded down to 0
	;note F#, 0 | WARNING: Rounded down to 0
	octave 4
	;note D#, 0 | WARNING: Rounded down to 0
	note F#, 2
;Bar 94
	octave 3
	;note C#, 0 | WARNING: Rounded down to 0
	;note E_, 0 | WARNING: Rounded down to 0
	octave 4
	;note C#, 0 | WARNING: Rounded down to 0
	note E_, 2
	octave 2
	;note A_, 0 | WARNING: Rounded down to 0
	octave 3
	;note C#, 0 | WARNING: Rounded down to 0
	;note A_, 0 | WARNING: Rounded down to 0
	octave 4
	note C#, 2
	octave 2
	;note B_, 0 | WARNING: Rounded down to 0
	octave 3
	;note D#, 0 | WARNING: Rounded down to 0
	;note B_, 0 | WARNING: Rounded down to 0
	octave 4
	note D#, 2
	octave 3
	;note C#, 0 | WARNING: Rounded down to 0
	;note E_, 0 | WARNING: Rounded down to 0
	octave 4
	;note C#, 0 | WARNING: Rounded down to 0
	note E_, 2
	octave 3
	;note E_, 0 | WARNING: Rounded down to 0
	;note A_, 0 | WARNING: Rounded down to 0
	octave 4
	;note E_, 0 | WARNING: Rounded down to 0
	note A_, 1
	octave 3
	;note G#, 0 | WARNING: Rounded down to 0
	;note B_, 0 | WARNING: Rounded down to 0
	octave 4
	;note G#, 0 | WARNING: Rounded down to 0
	note B_, 1
	octave 3
	;note D#, 0 | WARNING: Rounded down to 0
	;note F#, 0 | WARNING: Rounded down to 0
	octave 4
	;note D#, 0 | WARNING: Rounded down to 0
	note F#, 2
	octave 3
	;note E_, 0 | WARNING: Rounded down to 0
	;note G_, 0 | WARNING: Rounded down to 0
	octave 4
	;note E_, 0 | WARNING: Rounded down to 0
	note G_, 2
	octave 3
	;note D#, 0 | WARNING: Rounded down to 0
	;note F#, 0 | WARNING: Rounded down to 0
	octave 4
	;note D#, 0 | WARNING: Rounded down to 0
	note F#, 2
;Bar 95
	octave 3
	;note D#, 0 | WARNING: Rounded down to 0
	;note G_, 0 | WARNING: Rounded down to 0
	octave 4
	;note D#, 0 | WARNING: Rounded down to 0
	note G_, 3
	octave 3
	;note E_, 0 | WARNING: Rounded down to 0
	;note G#, 0 | WARNING: Rounded down to 0
	octave 4
	;note E_, 0 | WARNING: Rounded down to 0
	note G#, 3
	octave 3
	;note G#, 0 | WARNING: Rounded down to 0
	;note B_, 0 | WARNING: Rounded down to 0
	octave 4
	;note G#, 0 | WARNING: Rounded down to 0
	note B_, 2
	octave 3
	;note G#, 0 | WARNING: Rounded down to 0
	octave 4
	;note C#, 0 | WARNING: Rounded down to 0
	;note G#, 0 | WARNING: Rounded down to 0
	octave 5
	note C#, 8
;Bar 96
	octave 3
	;note B_, 0 | WARNING: Rounded down to 0
	octave 4
	;note D#, 0 | WARNING: Rounded down to 0
	;note B_, 0 | WARNING: Rounded down to 0
	octave 5
	note D#, 8
	octave 4
	;note E_, 0 | WARNING: Rounded down to 0
	;note G#, 0 | WARNING: Rounded down to 0
	octave 5
	;note E_, 0 | WARNING: Rounded down to 0
	note G#, 2
	octave 4
	;note D#, 0 | WARNING: Rounded down to 0
	;note F#, 0 | WARNING: Rounded down to 0
	octave 5
	;note D#, 0 | WARNING: Rounded down to 0
	note F#, 2
	octave 4
	;note E_, 0 | WARNING: Rounded down to 0
	;note G#, 0 | WARNING: Rounded down to 0
	octave 5
	;note E_, 0 | WARNING: Rounded down to 0
	note G#, 2
	octave 4
	;note D#, 0 | WARNING: Rounded down to 0
	;note F#, 0 | WARNING: Rounded down to 0
	octave 5
	;note D#, 0 | WARNING: Rounded down to 0
	note F#, 2
;Bar 97
	octave 4
	;note C#, 0 | WARNING: Rounded down to 0
	;note E_, 0 | WARNING: Rounded down to 0
	octave 5
	;note C#, 0 | WARNING: Rounded down to 0
	note E_, 2
	octave 3
	;note G#, 0 | WARNING: Rounded down to 0
	octave 4
	;note C#, 0 | WARNING: Rounded down to 0
	;note G#, 0 | WARNING: Rounded down to 0
	octave 5
	note C#, 2
	octave 4
	;note C#, 0 | WARNING: Rounded down to 0
	;note E_, 0 | WARNING: Rounded down to 0
	octave 5
	;note C#, 0 | WARNING: Rounded down to 0
	note E_, 2
	octave 3
	;note G#, 0 | WARNING: Rounded down to 0
	octave 4
	;note C#, 0 | WARNING: Rounded down to 0
	;note G#, 0 | WARNING: Rounded down to 0
	octave 5
	note C#, 2
	octave 4
	;note E_, 0 | WARNING: Rounded down to 0
	;note G_, 0 | WARNING: Rounded down to 0
	octave 5
	;note E_, 0 | WARNING: Rounded down to 0
	note G_, 2
	octave 4
	;note E_, 0 | WARNING: Rounded down to 0
	;note G_, 0 | WARNING: Rounded down to 0
	octave 5
	;note E_, 0 | WARNING: Rounded down to 0
	note G_, 4
	octave 4
	;note E_, 0 | WARNING: Rounded down to 0
	;note G#, 0 | WARNING: Rounded down to 0
	octave 5
	;note E_, 0 | WARNING: Rounded down to 0
	note G#, 8
;Bar 98
	rest 2
	octave 4
	;note D#, 0 | WARNING: Rounded down to 0
	;note F#, 0 | WARNING: Rounded down to 0
	octave 5
	;note D#, 0 | WARNING: Rounded down to 0
	note F#, 2
	octave 4
	;note D#, 0 | WARNING: Rounded down to 0
	;note F#, 0 | WARNING: Rounded down to 0
	octave 5
	;note D#, 0 | WARNING: Rounded down to 0
	note F#, 4
	octave 4
	;note C#, 0 | WARNING: Rounded down to 0
	;note E_, 0 | WARNING: Rounded down to 0
	octave 5
	;note C#, 0 | WARNING: Rounded down to 0
	note E_, 8
;Bar 99
	rest 2
	octave 4
	;note E_, 0 | WARNING: Rounded down to 0
	;note G_, 0 | WARNING: Rounded down to 0
	octave 5
	;note E_, 0 | WARNING: Rounded down to 0
	note G_, 2
	octave 4
	;note E_, 0 | WARNING: Rounded down to 0
	;note G_, 0 | WARNING: Rounded down to 0
	octave 5
	;note E_, 0 | WARNING: Rounded down to 0
	note G_, 2
	octave 4
	;note E_, 0 | WARNING: Rounded down to 0
	;note G_, 0 | WARNING: Rounded down to 0
	octave 5
	;note E_, 0 | WARNING: Rounded down to 0
	note G_, 2
	octave 4
	;note E_, 0 | WARNING: Rounded down to 0
	;note G#, 0 | WARNING: Rounded down to 0
	octave 5
	;note E_, 0 | WARNING: Rounded down to 0
	note G#, 8
;Bar 100
	rest 2
	octave 4
	;note G#, 0 | WARNING: Rounded down to 0
	;note B_, 0 | WARNING: Rounded down to 0
	octave 5
	;note G#, 0 | WARNING: Rounded down to 0
	note B_, 1
	octave 4
	;note G#, 0 | WARNING: Rounded down to 0
	octave 5
	;note C#, 0 | WARNING: Rounded down to 0
	;note G#, 0 | WARNING: Rounded down to 0
	octave 6
	note C#, 3
	octave 4
	;note F#, 0 | WARNING: Rounded down to 0
	;note B_, 0 | WARNING: Rounded down to 0
	octave 5
	;note F#, 0 | WARNING: Rounded down to 0
	note B_, 4
;Bar 101
	octave 4
	;note E_, 0 | WARNING: Rounded down to 0
	;note G#, 0 | WARNING: Rounded down to 0
	octave 5
	;note E_, 0 | WARNING: Rounded down to 0
	note G#, 4
	octave 4
	;note C#, 0 | WARNING: Rounded down to 0
	;note E_, 0 | WARNING: Rounded down to 0
	octave 5
	;note C#, 0 | WARNING: Rounded down to 0
	note E_, 4
	rest 4
	volume_envelope 9, 7
	note E_, 4
;Bar 102
	rest 4
	note E_, 4
	rest 4
	note E_, 4
;Bar 103
	rest 4
	note E_, 4
	rest 4
	note E_, 4
;Bar 104
	rest 4
	note G#, 4
	rest 4
	note E_, 4
;Bar 105
	rest 4
	note E_, 4
	rest 4
	note E_, 4
;Bar 106
	rest 4
	note G#, 4
	rest 4
	note E_, 4
;Bar 107
	rest 4
	note E_, 4
	rest 4
	note E_, 4
;Bar 108
	rest 4
	note G#, 4
	rest 4
	note E_, 4
;Bar 109
	rest 4
	note E_, 4
	rest 4
	note E_, 4
;Bar 110
	rest 4
	note E_, 4
	rest 4
	note E_, 4
;Bar 111
	rest 4
	note E_, 4
	rest 4
	note E_, 4
;Bar 112
	rest 4
	note G#, 4
	rest 4
	note E_, 4
;Bar 113
	rest 4
	note E_, 4
	rest 4
	note E_, 4
;Bar 114
	rest 4
	note G#, 4
	rest 4
	note E_, 4
;Bar 115
	rest 4
	note E_, 4
	rest 4
	note E_, 4
;Bar 116
	rest 4
	note G#, 4
	rest 4
	note E_, 4
;Bar 117
	rest 4
	note E_, 4
	octave 3
	;note C#, 0 | WARNING: Rounded down to 0
	note E_, 16
;Bar 118
	octave 2
	;note B_, 0 | WARNING: Rounded down to 0
	octave 3
	note D#, 16
;Bar 119
	octave 2
	;note F#, 0 | WARNING: Rounded down to 0
	note A#, 16
;Bar 120
	;note A_, 0 | WARNING: Rounded down to 0
	octave 3
	note C#, 8
;Bar 121
	rest 8
	octave 2
	note C#, 4
	;note E_, 0 | WARNING: Rounded down to 0
	note G#, 2
	;note E_, 0 | WARNING: Rounded down to 0
	note G#, 2
;Bar 122
	note C#, 2
	;note E_, 0 | WARNING: Rounded down to 0
	note G#, 2
	;note E_, 0 | WARNING: Rounded down to 0
	note G#, 2
	note B_, 2
	octave 1
	note B_, 4
	octave 2
	;note D#, 0 | WARNING: Rounded down to 0
	note F#, 2
	;note D#, 0 | WARNING: Rounded down to 0
	note F#, 2
;Bar 123
	octave 1
	note B_, 2
	octave 2
	;note D#, 0 | WARNING: Rounded down to 0
	note F#, 2
	;note D#, 0 | WARNING: Rounded down to 0
	note F#, 2
	note G#, 2
	octave 1
	note A#, 4
	octave 2
	;note C#, 0 | WARNING: Rounded down to 0
	note F#, 2
	;note C#, 0 | WARNING: Rounded down to 0
	note F#, 2
;Bar 124
	octave 1
	note A#, 2
	octave 2
	;note C#, 0 | WARNING: Rounded down to 0
	note F#, 2
	;note C#, 0 | WARNING: Rounded down to 0
	note F#, 2
	note G#, 2
	octave 3
	;note C#, 0 | WARNING: Rounded down to 0
	note E_, 4
	octave 2
	;note C#, 0 | WARNING: Rounded down to 0
	note E_, 2
	note C#, 2
;Bar 125
	octave 1
	note B_, 4
	octave 2
	note F#, 4
	note C#, 4
	;note E_, 0 | WARNING: Rounded down to 0
	note G#, 2
	;note E_, 0 | WARNING: Rounded down to 0
	note G#, 2
;Bar 126
	note C#, 2
	;note E_, 0 | WARNING: Rounded down to 0
	note G#, 2
	;note E_, 0 | WARNING: Rounded down to 0
	note G#, 2
	note B_, 2
	octave 1
	note B_, 4
	octave 2
	;note D#, 0 | WARNING: Rounded down to 0
	note F#, 2
	;note D#, 0 | WARNING: Rounded down to 0
	note F#, 2
;Bar 127
	octave 1
	note B_, 2
	octave 2
	;note D#, 0 | WARNING: Rounded down to 0
	note F#, 2
	;note D#, 0 | WARNING: Rounded down to 0
	note F#, 2
	note G#, 2
	octave 1
	note A#, 4
	octave 2
	;note C#, 0 | WARNING: Rounded down to 0
	note F#, 2
	;note C#, 0 | WARNING: Rounded down to 0
	note F#, 2
;Bar 128
	octave 1
	note A#, 2
	octave 2
	;note C#, 0 | WARNING: Rounded down to 0
	note F#, 2
	;note C#, 0 | WARNING: Rounded down to 0
	note F#, 2
	note G#, 2
	octave 3
	;note C#, 0 | WARNING: Rounded down to 0
	note E_, 4
	octave 2
	;note C#, 0 | WARNING: Rounded down to 0
	note E_, 2
	note C#, 2
;Bar 129
	octave 1
	note B_, 4
	octave 2
	note F#, 4
	rest 16
	rest 16
	rest 16
	rest 16
	sound_loop 0, .mainloop

; ============================================================================================================

Music_Nuzzles_Ch3:
	note_type 12, 1, 0
;Bar 1
.mainloop
	octave 2
	volume_envelope 1, 0
	note C#, 6
	note C#, 2
	note G#, 4
	note G#, 4
;Bar 2
	octave 1
	note B_, 6
	note B_, 2
	octave 2
	note F#, 4
	octave 1
	note B_, 4
;Bar 3
	note A#, 6
	note A#, 2
	octave 2
	note F#, 4
	note F#, 4
;Bar 4
	octave 1
	note A_, 6
	note A_, 2
	rest 8
;Bar 5
	octave 2
	;note C#, 0 | WARNING: Rounded down to 0
	octave 3
	note C#, 6
	octave 2
	;note C#, 0 | WARNING: Rounded down to 0
	octave 3
	note C#, 2
	octave 2
	;note G#, 0 | WARNING: Rounded down to 0
	octave 3
	note G#, 4
	octave 2
	;note G#, 0 | WARNING: Rounded down to 0
	octave 3
	note G#, 4
;Bar 6
	octave 1
	;note B_, 0 | WARNING: Rounded down to 0
	octave 2
	note B_, 6
	octave 1
	;note B_, 0 | WARNING: Rounded down to 0
	octave 2
	note B_, 2
	;note F#, 0 | WARNING: Rounded down to 0
	octave 3
	note F#, 4
	octave 1
	;note B_, 0 | WARNING: Rounded down to 0
	octave 2
	note B_, 4
;Bar 7
	octave 1
	;note A#, 0 | WARNING: Rounded down to 0
	octave 2
	note A#, 6
	octave 1
	;note A#, 0 | WARNING: Rounded down to 0
	octave 2
	note A#, 2
	;note F#, 0 | WARNING: Rounded down to 0
	octave 3
	note F#, 4
	octave 2
	;note F#, 0 | WARNING: Rounded down to 0
	octave 3
	note F#, 4
;Bar 8
	octave 1
	;note A_, 0 | WARNING: Rounded down to 0
	octave 2
	note A_, 6
	octave 1
	;note A_, 0 | WARNING: Rounded down to 0
	octave 2
	note A_, 2
	octave 1
	;note B_, 0 | WARNING: Rounded down to 0
	octave 2
	note B_, 6
	octave 1
	;note B_, 0 | WARNING: Rounded down to 0
	octave 2
	note B_, 2
;Bar 9
	;note C#, 0 | WARNING: Rounded down to 0
	octave 3
	note C#, 4
	octave 2
	;note G#, 0 | WARNING: Rounded down to 0
	octave 3
	note G#, 4
	octave 2
	;note G_, 0 | WARNING: Rounded down to 0
	octave 3
	note G_, 4
	rest 4
;Bar 10
	octave 2
	;note G_, 0 | WARNING: Rounded down to 0
	octave 3
	note G_, 4
	octave 2
	;note F#, 0 | WARNING: Rounded down to 0
	octave 3
	note F#, 4
	rest 8
;Bar 11
	octave 2
	;note C#, 0 | WARNING: Rounded down to 0
	octave 3
	note C#, 4
	octave 2
	;note C#, 0 | WARNING: Rounded down to 0
	octave 3
	note C#, 2
	;note C#, 0 | WARNING: Rounded down to 0
	octave 4
	note C#, 4
	octave 2
	;note G#, 0 | WARNING: Rounded down to 0
	octave 3
	note G#, 2
	;note C#, 0 | WARNING: Rounded down to 0
	octave 4
	note C#, 2
	octave 2
	;note E_, 0 | WARNING: Rounded down to 0
	octave 3
	note E_, 2
;Bar 12
	octave 1
	;note B_, 0 | WARNING: Rounded down to 0
	octave 2
	note B_, 4
	octave 1
	;note B_, 0 | WARNING: Rounded down to 0
	octave 2
	note B_, 2
	;note B_, 0 | WARNING: Rounded down to 0
	octave 3
	note B_, 4
	octave 2
	;note F#, 0 | WARNING: Rounded down to 0
	octave 3
	note F#, 2
	octave 2
	;note B_, 0 | WARNING: Rounded down to 0
	octave 3
	note B_, 2
	octave 2
	;note D#, 0 | WARNING: Rounded down to 0
	octave 3
	note D#, 2
;Bar 13
	octave 1
	;note A#, 0 | WARNING: Rounded down to 0
	octave 2
	note A#, 4
	octave 1
	;note A#, 0 | WARNING: Rounded down to 0
	octave 2
	note A#, 2
	;note A#, 0 | WARNING: Rounded down to 0
	octave 3
	note A#, 4
	octave 2
	;note F#, 0 | WARNING: Rounded down to 0
	octave 3
	note F#, 2
	octave 2
	;note A#, 0 | WARNING: Rounded down to 0
	octave 3
	note A#, 2
	octave 2
	;note D#, 0 | WARNING: Rounded down to 0
	octave 3
	note D#, 2
;Bar 14
	octave 1
	;note A_, 0 | WARNING: Rounded down to 0
	octave 2
	note A_, 4
	;note E_, 0 | WARNING: Rounded down to 0
	octave 3
	note E_, 4
	octave 2
	;note D#, 0 | WARNING: Rounded down to 0
	octave 3
	note D#, 4
	octave 2
	;note E_, 0 | WARNING: Rounded down to 0
	octave 3
	note E_, 4
;Bar 15
	octave 2
	;note C#, 0 | WARNING: Rounded down to 0
	octave 3
	note C#, 4
	octave 2
	;note C#, 0 | WARNING: Rounded down to 0
	octave 3
	note C#, 2
	;note C#, 0 | WARNING: Rounded down to 0
	octave 4
	note C#, 4
	octave 2
	;note G#, 0 | WARNING: Rounded down to 0
	octave 3
	note G#, 2
	;note C#, 0 | WARNING: Rounded down to 0
	octave 4
	note C#, 2
	octave 2
	;note E_, 0 | WARNING: Rounded down to 0
	octave 3
	note E_, 2
;Bar 16
	octave 1
	;note B_, 0 | WARNING: Rounded down to 0
	octave 2
	note B_, 4
	octave 1
	;note B_, 0 | WARNING: Rounded down to 0
	octave 2
	note B_, 2
	;note B_, 0 | WARNING: Rounded down to 0
	octave 3
	note B_, 4
	octave 2
	;note F#, 0 | WARNING: Rounded down to 0
	octave 3
	note F#, 2
	octave 2
	;note B_, 0 | WARNING: Rounded down to 0
	octave 3
	note B_, 2
	octave 2
	;note D#, 0 | WARNING: Rounded down to 0
	octave 3
	note D#, 2
;Bar 17
	octave 1
	;note A#, 0 | WARNING: Rounded down to 0
	octave 2
	note A#, 4
	octave 1
	;note A#, 0 | WARNING: Rounded down to 0
	octave 2
	note A#, 2
	;note A#, 0 | WARNING: Rounded down to 0
	octave 3
	note A#, 4
	octave 2
	;note F#, 0 | WARNING: Rounded down to 0
	octave 3
	note F#, 2
	octave 2
	;note A#, 0 | WARNING: Rounded down to 0
	octave 3
	note A#, 2
	octave 2
	;note D#, 0 | WARNING: Rounded down to 0
	octave 3
	note D#, 2
;Bar 18
	octave 1
	;note A_, 0 | WARNING: Rounded down to 0
	octave 2
	note A_, 4
	;note E_, 0 | WARNING: Rounded down to 0
	octave 3
	note E_, 4
	octave 2
	;note D#, 0 | WARNING: Rounded down to 0
	octave 3
	note D#, 4
	octave 2
	;note E_, 0 | WARNING: Rounded down to 0
	octave 3
	note E_, 4
;Bar 19
	rest 8
	octave 2
	;note C#, 0 | WARNING: Rounded down to 0
	octave 3
	note C#, 6
	octave 2
	;note C#, 0 | WARNING: Rounded down to 0
	octave 3
	note C#, 2
;Bar 20
	octave 2
	note G#, 4
	note G#, 4
	;note C_, 0 | WARNING: Rounded down to 0
	octave 3
	note C_, 6
	octave 2
	;note C_, 0 | WARNING: Rounded down to 0
	octave 3
	note C_, 2
;Bar 21
	octave 1
	note G#, 4
	octave 2
	;note C_, 0 | WARNING: Rounded down to 0
	octave 3
	note C_, 4
	octave 1
	;note B_, 0 | WARNING: Rounded down to 0
	octave 2
	note B_, 6
	octave 1
	;note B_, 0 | WARNING: Rounded down to 0
	octave 2
	note B_, 2
;Bar 22
	note F#, 4
	note F#, 4
	octave 1
	;note A#, 0 | WARNING: Rounded down to 0
	octave 2
	note A#, 6
	octave 1
	;note A#, 0 | WARNING: Rounded down to 0
	octave 2
	note A#, 2
;Bar 23
	octave 1
	note F#, 4
	;note A#, 0 | WARNING: Rounded down to 0
	octave 2
	note A#, 4
	octave 1
	;note F#, 0 | WARNING: Rounded down to 0
	octave 2
	note F#, 6
	octave 1
	;note F#, 0 | WARNING: Rounded down to 0
	octave 2
	note F#, 2
;Bar 24
	note C#, 4
	note C#, 4
	octave 1
	;note B_, 0 | WARNING: Rounded down to 0
	octave 2
	note B_, 6
	octave 1
	;note B_, 0 | WARNING: Rounded down to 0
	octave 2
	note B_, 2
;Bar 25
	octave 1
	note F#, 4
	;note B_, 0 | WARNING: Rounded down to 0
	octave 2
	note B_, 4
	octave 1
	;note G#, 0 | WARNING: Rounded down to 0
	octave 2
	note G#, 6
	octave 1
	;note G#, 0 | WARNING: Rounded down to 0
	octave 2
	note G#, 2
;Bar 26
	note D#, 4
	note D#, 4
	;note C#, 0 | WARNING: Rounded down to 0
	octave 3
	note C#, 6
	octave 2
	;note C#, 0 | WARNING: Rounded down to 0
	octave 3
	note C#, 2
;Bar 27
	octave 2
	note G#, 4
	note G#, 4
	;note C#, 0 | WARNING: Rounded down to 0
	octave 3
	note C#, 6
	octave 2
	;note C#, 0 | WARNING: Rounded down to 0
	octave 3
	note C#, 2
;Bar 28
	octave 2
	note G#, 4
	note G#, 4
	;note C_, 0 | WARNING: Rounded down to 0
	octave 3
	note C_, 6
	octave 2
	;note C_, 0 | WARNING: Rounded down to 0
	octave 3
	note C_, 2
;Bar 29
	octave 1
	note G#, 4
	octave 2
	;note C_, 0 | WARNING: Rounded down to 0
	octave 3
	note C_, 4
	octave 1
	;note B_, 0 | WARNING: Rounded down to 0
	octave 2
	note B_, 6
	octave 1
	;note B_, 0 | WARNING: Rounded down to 0
	octave 2
	note B_, 2
;Bar 30
	note F#, 4
	note F#, 4
	octave 1
	;note A#, 0 | WARNING: Rounded down to 0
	octave 2
	note A#, 6
	octave 1
	;note A#, 0 | WARNING: Rounded down to 0
	octave 2
	note A#, 2
;Bar 31
	octave 1
	note F#, 4
	;note A#, 0 | WARNING: Rounded down to 0
	octave 2
	note A#, 4
	octave 1
	;note F#, 0 | WARNING: Rounded down to 0
	octave 2
	note F#, 6
	octave 1
	;note F#, 0 | WARNING: Rounded down to 0
	octave 2
	note F#, 2
;Bar 32
	note C#, 4
	note C#, 4
	octave 1
	;note B_, 0 | WARNING: Rounded down to 0
	octave 2
	note B_, 6
	octave 1
	;note B_, 0 | WARNING: Rounded down to 0
	octave 2
	note B_, 2
;Bar 33
	octave 1
	note F#, 4
	;note B_, 0 | WARNING: Rounded down to 0
	octave 2
	note B_, 2
	;note C_, 0 | WARNING: Rounded down to 0
	octave 3
	note C_, 2
	rest 4
	octave 1
	;note G#, 0 | WARNING: Rounded down to 0
	octave 2
	note G#, 4
;Bar 34
	rest 4
	octave 1
	;note G#, 0 | WARNING: Rounded down to 0
	octave 2
	note G#, 4
	rest 4
	octave 1
	;note G#, 0 | WARNING: Rounded down to 0
	octave 2
	note G#, 4
;Bar 35
	rest 4
	octave 1
	;note G#, 0 | WARNING: Rounded down to 0
	octave 2
	note G#, 4
	;note C#, 0 | WARNING: Rounded down to 0
	octave 3
	note C#, 4
	octave 2
	;note C#, 0 | WARNING: Rounded down to 0
	octave 3
	note C#, 2
	;note C#, 0 | WARNING: Rounded down to 0
	octave 4
	note C#, 4
;Bar 36
	octave 2
	;note G#, 0 | WARNING: Rounded down to 0
	octave 3
	note G#, 2
	;note C#, 0 | WARNING: Rounded down to 0
	octave 4
	note C#, 2
	octave 2
	;note E_, 0 | WARNING: Rounded down to 0
	octave 3
	note E_, 2
	octave 1
	;note B_, 0 | WARNING: Rounded down to 0
	octave 2
	note B_, 4
	octave 1
	;note B_, 0 | WARNING: Rounded down to 0
	octave 2
	note B_, 2
	;note B_, 0 | WARNING: Rounded down to 0
	octave 3
	note B_, 4
;Bar 37
	octave 2
	;note F#, 0 | WARNING: Rounded down to 0
	octave 3
	note F#, 2
	octave 2
	;note B_, 0 | WARNING: Rounded down to 0
	octave 3
	note B_, 2
	octave 2
	;note D#, 0 | WARNING: Rounded down to 0
	octave 3
	note D#, 2
	octave 1
	;note A#, 0 | WARNING: Rounded down to 0
	octave 2
	note A#, 4
	octave 1
	;note A#, 0 | WARNING: Rounded down to 0
	octave 2
	note A#, 2
	;note A#, 0 | WARNING: Rounded down to 0
	octave 3
	note A#, 4
;Bar 38
	octave 2
	;note F#, 0 | WARNING: Rounded down to 0
	octave 3
	note F#, 2
	octave 2
	;note A#, 0 | WARNING: Rounded down to 0
	octave 3
	note A#, 2
	octave 2
	;note D#, 0 | WARNING: Rounded down to 0
	octave 3
	note D#, 2
	octave 1
	;note A_, 0 | WARNING: Rounded down to 0
	octave 2
	note A_, 4
	;note E_, 0 | WARNING: Rounded down to 0
	octave 3
	note E_, 4
;Bar 39
	octave 2
	;note D#, 0 | WARNING: Rounded down to 0
	octave 3
	note D#, 4
	octave 2
	;note E_, 0 | WARNING: Rounded down to 0
	octave 3
	note E_, 4
	octave 2
	;note C#, 0 | WARNING: Rounded down to 0
	octave 3
	note C#, 4
	octave 2
	;note C#, 0 | WARNING: Rounded down to 0
	octave 3
	note C#, 2
	;note C#, 0 | WARNING: Rounded down to 0
	octave 4
	note C#, 4
;Bar 40
	octave 2
	;note G#, 0 | WARNING: Rounded down to 0
	octave 3
	note G#, 2
	;note C#, 0 | WARNING: Rounded down to 0
	octave 4
	note C#, 2
	octave 2
	;note E_, 0 | WARNING: Rounded down to 0
	octave 3
	note E_, 2
	octave 1
	;note B_, 0 | WARNING: Rounded down to 0
	octave 2
	note B_, 4
	octave 1
	;note B_, 0 | WARNING: Rounded down to 0
	octave 2
	note B_, 2
	;note B_, 0 | WARNING: Rounded down to 0
	octave 3
	note B_, 4
;Bar 41
	octave 2
	;note F#, 0 | WARNING: Rounded down to 0
	octave 3
	note F#, 2
	octave 2
	;note B_, 0 | WARNING: Rounded down to 0
	octave 3
	note B_, 2
	octave 2
	;note D#, 0 | WARNING: Rounded down to 0
	octave 3
	note D#, 2
	octave 1
	;note A#, 0 | WARNING: Rounded down to 0
	octave 2
	note A#, 4
	octave 1
	;note A#, 0 | WARNING: Rounded down to 0
	octave 2
	note A#, 2
	;note A#, 0 | WARNING: Rounded down to 0
	octave 3
	note A#, 4
;Bar 42
	octave 2
	;note F#, 0 | WARNING: Rounded down to 0
	octave 3
	note F#, 2
	octave 2
	;note A#, 0 | WARNING: Rounded down to 0
	octave 3
	note A#, 2
	octave 2
	;note D#, 0 | WARNING: Rounded down to 0
	octave 3
	note D#, 2
	octave 1
	;note A_, 0 | WARNING: Rounded down to 0
	octave 2
	note A_, 4
	;note E_, 0 | WARNING: Rounded down to 0
	octave 3
	note E_, 4
;Bar 43
	octave 2
	;note D#, 0 | WARNING: Rounded down to 0
	octave 3
	note D#, 4
	octave 2
	;note E_, 0 | WARNING: Rounded down to 0
	octave 3
	note E_, 4
	octave 1
	;note A_, 0 | WARNING: Rounded down to 0
	octave 2
	note A_, 2
	octave 1
	;note A_, 0 | WARNING: Rounded down to 0
	octave 2
	note A_, 2
	octave 1
	;note E_, 0 | WARNING: Rounded down to 0
	octave 2
	note E_, 2
	octave 1
	;note A_, 0 | WARNING: Rounded down to 0
	octave 2
	note A_, 2
;Bar 44
	octave 1
	;note A_, 0 | WARNING: Rounded down to 0
	octave 2
	note A_, 2
	octave 1
	;note E_, 0 | WARNING: Rounded down to 0
	octave 2
	note E_, 2
	octave 1
	;note A_, 0 | WARNING: Rounded down to 0
	octave 2
	note A_, 2
	octave 1
	;note A#, 0 | WARNING: Rounded down to 0
	octave 2
	note A#, 2
	octave 1
	;note B_, 0 | WARNING: Rounded down to 0
	octave 2
	note B_, 2
	octave 1
	;note B_, 0 | WARNING: Rounded down to 0
	octave 2
	note B_, 2
	octave 1
	;note F#, 0 | WARNING: Rounded down to 0
	octave 2
	note F#, 2
	octave 1
	;note B_, 0 | WARNING: Rounded down to 0
	octave 2
	note B_, 2
;Bar 45
	;note C_, 0 | WARNING: Rounded down to 0
	octave 3
	note C_, 2
	octave 1
	;note G_, 0 | WARNING: Rounded down to 0
	octave 2
	note G_, 2
	;note C_, 0 | WARNING: Rounded down to 0
	octave 3
	note C_, 2
	octave 2
	;note C#, 0 | WARNING: Rounded down to 0
	octave 3
	note C#, 2
	octave 2
	;note C#, 0 | WARNING: Rounded down to 0
	octave 3
	note C#, 2
	octave 2
	;note C#, 0 | WARNING: Rounded down to 0
	octave 3
	note C#, 2
	octave 1
	;note G#, 0 | WARNING: Rounded down to 0
	octave 2
	note G#, 2
	;note C#, 0 | WARNING: Rounded down to 0
	octave 3
	note C#, 2
;Bar 46
	octave 2
	;note C#, 0 | WARNING: Rounded down to 0
	octave 3
	note C#, 2
	octave 1
	;note G#, 0 | WARNING: Rounded down to 0
	octave 2
	note G#, 2
	;note C#, 0 | WARNING: Rounded down to 0
	octave 3
	note C#, 2
	octave 2
	;note C#, 0 | WARNING: Rounded down to 0
	octave 3
	note C#, 2
	octave 2
	;note C#, 0 | WARNING: Rounded down to 0
	octave 3
	note C#, 2
	octave 2
	;note C#, 0 | WARNING: Rounded down to 0
	octave 3
	note C#, 2
	octave 1
	;note G#, 0 | WARNING: Rounded down to 0
	octave 2
	note G#, 2
	;note C#, 0 | WARNING: Rounded down to 0
	octave 3
	note C#, 2
;Bar 47
	octave 2
	;note E_, 0 | WARNING: Rounded down to 0
	octave 3
	note E_, 2
	octave 1
	;note B_, 0 | WARNING: Rounded down to 0
	octave 2
	note B_, 2
	;note E_, 0 | WARNING: Rounded down to 0
	octave 3
	note E_, 2
	octave 2
	;note F_, 0 | WARNING: Rounded down to 0
	octave 3
	note F_, 2
	octave 2
	;note F#, 0 | WARNING: Rounded down to 0
	octave 3
	note F#, 2
	octave 2
	;note F#, 0 | WARNING: Rounded down to 0
	octave 3
	note F#, 2
	octave 2
	;note G#, 0 | WARNING: Rounded down to 0
	octave 3
	note G#, 2
	octave 2
	;note F#, 0 | WARNING: Rounded down to 0
	octave 3
	note F#, 2
;Bar 48
	octave 2
	;note F#, 0 | WARNING: Rounded down to 0
	octave 3
	note F#, 2
	octave 2
	;note F#, 0 | WARNING: Rounded down to 0
	octave 3
	note F#, 2
	octave 2
	;note E_, 0 | WARNING: Rounded down to 0
	octave 3
	note E_, 2
	octave 2
	;note D#, 0 | WARNING: Rounded down to 0
	octave 3
	note D#, 2
	octave 1
	;note A_, 0 | WARNING: Rounded down to 0
	octave 2
	note A_, 2
	octave 1
	;note A_, 0 | WARNING: Rounded down to 0
	octave 2
	note A_, 2
	octave 1
	;note E_, 0 | WARNING: Rounded down to 0
	octave 2
	note E_, 2
	octave 1
	;note A_, 0 | WARNING: Rounded down to 0
	octave 2
	note A_, 2
;Bar 49
	octave 1
	;note B_, 0 | WARNING: Rounded down to 0
	octave 2
	note B_, 2
	octave 1
	;note B_, 0 | WARNING: Rounded down to 0
	octave 2
	note B_, 2
	octave 1
	;note F#, 0 | WARNING: Rounded down to 0
	octave 2
	note F#, 2
	octave 1
	;note B_, 0 | WARNING: Rounded down to 0
	octave 2
	note B_, 2
	;note C#, 0 | WARNING: Rounded down to 0
	octave 3
	note C#, 2
	octave 2
	;note C#, 0 | WARNING: Rounded down to 0
	octave 3
	note C#, 2
	octave 1
	;note G#, 0 | WARNING: Rounded down to 0
	octave 2
	note G#, 2
	;note G#, 0 | WARNING: Rounded down to 0
	octave 3
	note G#, 4
;Bar 50
	octave 2
	;note C#, 0 | WARNING: Rounded down to 0
	octave 3
	note C#, 2
	octave 2
	;note C#, 0 | WARNING: Rounded down to 0
	octave 3
	note C#, 2
	octave 2
	;note C#, 0 | WARNING: Rounded down to 0
	octave 3
	note C#, 2
	octave 2
	;note C#, 0 | WARNING: Rounded down to 0
	octave 3
	note C#, 2
	octave 2
	;note D#, 0 | WARNING: Rounded down to 0
	octave 3
	note D#, 2
	octave 2
	;note E_, 0 | WARNING: Rounded down to 0
	octave 3
	note E_, 2
	octave 2
	;note E_, 0 | WARNING: Rounded down to 0
	octave 3
	note E_, 2
;Bar 51
	octave 2
	;note D#, 0 | WARNING: Rounded down to 0
	octave 3
	note D#, 2
	octave 2
	;note D#, 0 | WARNING: Rounded down to 0
	octave 3
	note D#, 2
	octave 2
	;note E_, 0 | WARNING: Rounded down to 0
	octave 3
	note E_, 2
	octave 2
	;note E_, 0 | WARNING: Rounded down to 0
	octave 3
	note E_, 2
	octave 1
	;note A_, 0 | WARNING: Rounded down to 0
	octave 2
	note A_, 2
	octave 1
	;note A_, 0 | WARNING: Rounded down to 0
	octave 2
	note A_, 2
	octave 1
	;note E_, 0 | WARNING: Rounded down to 0
	octave 2
	note E_, 2
	octave 1
	;note A_, 0 | WARNING: Rounded down to 0
	octave 2
	note A_, 2
;Bar 52
	octave 1
	;note A_, 0 | WARNING: Rounded down to 0
	octave 2
	note A_, 2
	octave 1
	;note E_, 0 | WARNING: Rounded down to 0
	octave 2
	note E_, 2
	octave 1
	;note A_, 0 | WARNING: Rounded down to 0
	octave 2
	note A_, 2
	octave 1
	;note A#, 0 | WARNING: Rounded down to 0
	octave 2
	note A#, 2
	octave 1
	;note B_, 0 | WARNING: Rounded down to 0
	octave 2
	note B_, 2
	octave 1
	;note B_, 0 | WARNING: Rounded down to 0
	octave 2
	note B_, 2
	octave 1
	;note F#, 0 | WARNING: Rounded down to 0
	octave 2
	note F#, 2
	octave 1
	;note B_, 0 | WARNING: Rounded down to 0
	octave 2
	note B_, 2
;Bar 53
	;note C_, 0 | WARNING: Rounded down to 0
	octave 3
	note C_, 2
	octave 1
	;note G_, 0 | WARNING: Rounded down to 0
	octave 2
	note G_, 2
	;note C_, 0 | WARNING: Rounded down to 0
	octave 3
	note C_, 2
	octave 2
	;note C#, 0 | WARNING: Rounded down to 0
	octave 3
	note C#, 2
	octave 2
	;note C#, 0 | WARNING: Rounded down to 0
	octave 3
	note C#, 2
	octave 2
	;note C#, 0 | WARNING: Rounded down to 0
	octave 3
	note C#, 2
	octave 1
	;note G#, 0 | WARNING: Rounded down to 0
	octave 2
	note G#, 2
	;note C#, 0 | WARNING: Rounded down to 0
	octave 3
	note C#, 2
;Bar 54
	octave 2
	;note C#, 0 | WARNING: Rounded down to 0
	octave 3
	note C#, 2
	octave 1
	;note G#, 0 | WARNING: Rounded down to 0
	octave 2
	note G#, 2
	;note C#, 0 | WARNING: Rounded down to 0
	octave 3
	note C#, 2
	octave 2
	;note C#, 0 | WARNING: Rounded down to 0
	octave 3
	note C#, 2
	octave 2
	;note C#, 0 | WARNING: Rounded down to 0
	octave 3
	note C#, 2
	octave 2
	;note C#, 0 | WARNING: Rounded down to 0
	octave 3
	note C#, 2
	octave 1
	;note G#, 0 | WARNING: Rounded down to 0
	octave 2
	note G#, 2
	;note C#, 0 | WARNING: Rounded down to 0
	octave 3
	note C#, 2
;Bar 55
	octave 2
	;note E_, 0 | WARNING: Rounded down to 0
	octave 3
	note E_, 2
	octave 1
	;note B_, 0 | WARNING: Rounded down to 0
	octave 2
	note B_, 2
	;note E_, 0 | WARNING: Rounded down to 0
	octave 3
	note E_, 2
	octave 2
	;note F_, 0 | WARNING: Rounded down to 0
	octave 3
	note F_, 2
	octave 2
	;note F#, 0 | WARNING: Rounded down to 0
	octave 3
	note F#, 2
	octave 2
	;note F#, 0 | WARNING: Rounded down to 0
	octave 3
	note F#, 2
	octave 2
	;note G#, 0 | WARNING: Rounded down to 0
	octave 3
	note G#, 2
	octave 2
	;note F#, 0 | WARNING: Rounded down to 0
	octave 3
	note F#, 2
;Bar 56
	octave 2
	;note F#, 0 | WARNING: Rounded down to 0
	octave 3
	note F#, 2
	octave 2
	;note F#, 0 | WARNING: Rounded down to 0
	octave 3
	note F#, 2
	octave 2
	;note E_, 0 | WARNING: Rounded down to 0
	octave 3
	note E_, 2
	octave 2
	;note D#, 0 | WARNING: Rounded down to 0
	octave 3
	note D#, 2
	octave 1
	;note A_, 0 | WARNING: Rounded down to 0
	octave 2
	note A_, 2
	octave 1
	;note A_, 0 | WARNING: Rounded down to 0
	octave 2
	note A_, 2
	octave 1
	;note E_, 0 | WARNING: Rounded down to 0
	octave 2
	note E_, 2
	octave 1
	;note A_, 0 | WARNING: Rounded down to 0
	octave 2
	note A_, 2
;Bar 57
	octave 1
	;note B_, 0 | WARNING: Rounded down to 0
	octave 2
	note B_, 2
	octave 1
	;note B_, 0 | WARNING: Rounded down to 0
	octave 2
	note B_, 2
	octave 1
	;note F#, 0 | WARNING: Rounded down to 0
	octave 2
	note F#, 2
	octave 1
	;note B_, 0 | WARNING: Rounded down to 0
	octave 2
	note B_, 2
	;note C#, 0 | WARNING: Rounded down to 0
	octave 3
	note C#, 2
	octave 2
	;note C#, 0 | WARNING: Rounded down to 0
	octave 3
	note C#, 2
	octave 1
	;note G#, 0 | WARNING: Rounded down to 0
	octave 2
	note G#, 2
	;note G#, 0 | WARNING: Rounded down to 0
	octave 3
	note G#, 4
;Bar 58
	octave 2
	;note C#, 0 | WARNING: Rounded down to 0
	octave 3
	note C#, 2
	octave 2
	;note C#, 0 | WARNING: Rounded down to 0
	octave 3
	note C#, 2
	octave 2
	;note C#, 0 | WARNING: Rounded down to 0
	octave 3
	note C#, 2
	octave 2
	;note C#, 0 | WARNING: Rounded down to 0
	octave 3
	note C#, 2
	octave 2
	;note D#, 0 | WARNING: Rounded down to 0
	octave 3
	note D#, 2
	octave 2
	;note E_, 0 | WARNING: Rounded down to 0
	octave 3
	note E_, 2
	octave 2
	;note E_, 0 | WARNING: Rounded down to 0
	octave 3
	note E_, 2
;Bar 59
	octave 2
	;note D#, 0 | WARNING: Rounded down to 0
	octave 3
	note D#, 2
	octave 2
	;note D#, 0 | WARNING: Rounded down to 0
	octave 3
	note D#, 2
	octave 2
	;note E_, 0 | WARNING: Rounded down to 0
	octave 3
	note E_, 2
	octave 2
	;note E_, 0 | WARNING: Rounded down to 0
	octave 3
	note E_, 2
	octave 2
	note C#, 6
	note C#, 2
;Bar 60
	note G#, 4
	note G#, 4
	octave 1
	note B_, 6
	note B_, 2
;Bar 61
	octave 2
	note F#, 4
	octave 1
	note B_, 4
	note A#, 6
	note A#, 2
;Bar 62
	octave 2
	note F#, 4
	note F#, 4
	octave 1
	note A_, 6
	note A_, 2
;Bar 63
	rest 8
	octave 2
	;note C#, 0 | WARNING: Rounded down to 0
	octave 3
	note C#, 6
	octave 2
	;note C#, 0 | WARNING: Rounded down to 0
	octave 3
	note C#, 2
;Bar 64
	octave 2
	;note G#, 0 | WARNING: Rounded down to 0
	octave 3
	note G#, 4
	octave 2
	;note G#, 0 | WARNING: Rounded down to 0
	octave 3
	note G#, 4
	octave 1
	;note B_, 0 | WARNING: Rounded down to 0
	octave 2
	note B_, 6
	octave 1
	;note B_, 0 | WARNING: Rounded down to 0
	octave 2
	note B_, 2
;Bar 65
	;note F#, 0 | WARNING: Rounded down to 0
	octave 3
	note F#, 4
	octave 1
	;note B_, 0 | WARNING: Rounded down to 0
	octave 2
	note B_, 4
	octave 1
	;note A#, 0 | WARNING: Rounded down to 0
	octave 2
	note A#, 6
	octave 1
	;note A#, 0 | WARNING: Rounded down to 0
	octave 2
	note A#, 2
;Bar 66
	;note F#, 0 | WARNING: Rounded down to 0
	octave 3
	note F#, 4
	octave 2
	;note F#, 0 | WARNING: Rounded down to 0
	octave 3
	note F#, 4
	octave 1
	;note A_, 0 | WARNING: Rounded down to 0
	octave 2
	note A_, 6
	octave 1
	;note A_, 0 | WARNING: Rounded down to 0
	octave 2
	note A_, 2
;Bar 67
	octave 1
	;note B_, 0 | WARNING: Rounded down to 0
	octave 2
	note B_, 6
	octave 1
	;note B_, 0 | WARNING: Rounded down to 0
	octave 2
	note B_, 2
	;note C#, 0 | WARNING: Rounded down to 0
	octave 3
	note C#, 4
	octave 2
	;note G#, 0 | WARNING: Rounded down to 0
	octave 3
	note G#, 4
;Bar 68
	octave 2
	;note G_, 0 | WARNING: Rounded down to 0
	octave 3
	note G_, 4
	rest 4
	octave 2
	;note G_, 0 | WARNING: Rounded down to 0
	octave 3
	note G_, 4
	octave 2
	;note F#, 0 | WARNING: Rounded down to 0
	octave 3
	note F#, 4
;Bar 69
	rest 16
	rest 16
	rest 16
	rest 16
	rest 16
	rest 16
	rest 16
	rest 16
	rest 16
	rest 16
	rest 16
	rest 16
	rest 16
	rest 16
	rest 16
	rest 16
	rest 8
;Bar 85
	octave 2
	;note A_, 0 | WARNING: Rounded down to 0
	octave 3
	note A_, 2
	octave 2
	;note A_, 0 | WARNING: Rounded down to 0
	octave 3
	note A_, 2
	;note E_, 0 | WARNING: Rounded down to 0
	octave 4
	note E_, 2
	octave 3
	;note C#, 0 | WARNING: Rounded down to 0
	octave 4
	note C#, 4
;Bar 86
	octave 2
	;note C#, 0 | WARNING: Rounded down to 0
	octave 3
	note C#, 2
	octave 2
	;note E_, 0 | WARNING: Rounded down to 0
	octave 3
	note E_, 4
	octave 2
	;note A_, 0 | WARNING: Rounded down to 0
	octave 3
	note A_, 2
	octave 2
	;note A_, 0 | WARNING: Rounded down to 0
	octave 3
	note A_, 2
	;note E_, 0 | WARNING: Rounded down to 0
	octave 4
	note E_, 2
	octave 3
	;note C#, 0 | WARNING: Rounded down to 0
	octave 4
	note C#, 4
;Bar 87
	octave 2
	;note C#, 0 | WARNING: Rounded down to 0
	octave 3
	note C#, 2
	octave 2
	;note E_, 0 | WARNING: Rounded down to 0
	octave 3
	note E_, 4
	octave 2
	;note G#, 0 | WARNING: Rounded down to 0
	octave 3
	note G#, 2
	octave 2
	;note G#, 0 | WARNING: Rounded down to 0
	octave 3
	note G#, 2
	;note D#, 0 | WARNING: Rounded down to 0
	octave 4
	note D#, 2
	octave 3
	;note C_, 0 | WARNING: Rounded down to 0
	octave 4
	note C_, 4
;Bar 88
	octave 2
	;note C_, 0 | WARNING: Rounded down to 0
	octave 3
	note C_, 2
	octave 2
	;note D#, 0 | WARNING: Rounded down to 0
	octave 3
	note D#, 4
	octave 2
	;note G#, 0 | WARNING: Rounded down to 0
	octave 3
	note G#, 2
	octave 2
	;note G#, 0 | WARNING: Rounded down to 0
	octave 3
	note G#, 2
	;note D#, 0 | WARNING: Rounded down to 0
	octave 4
	note D#, 2
	octave 3
	;note C_, 0 | WARNING: Rounded down to 0
	octave 4
	note C_, 4
;Bar 89
	octave 2
	;note C_, 0 | WARNING: Rounded down to 0
	octave 3
	note C_, 2
	octave 2
	;note D#, 0 | WARNING: Rounded down to 0
	octave 3
	note D#, 4
	;note C#, 0 | WARNING: Rounded down to 0
	octave 4
	note C#, 2
	octave 3
	;note C#, 0 | WARNING: Rounded down to 0
	octave 4
	note C#, 2
	octave 3
	;note G#, 0 | WARNING: Rounded down to 0
	octave 4
	note G#, 2
	octave 3
	;note E_, 0 | WARNING: Rounded down to 0
	octave 4
	note E_, 4
;Bar 90
	octave 2
	;note E_, 0 | WARNING: Rounded down to 0
	octave 3
	note E_, 2
	octave 2
	;note G#, 0 | WARNING: Rounded down to 0
	octave 3
	note G#, 4
	;note C_, 0 | WARNING: Rounded down to 0
	octave 4
	note C_, 2
	octave 3
	;note C_, 0 | WARNING: Rounded down to 0
	octave 4
	note C_, 2
	octave 3
	;note G#, 0 | WARNING: Rounded down to 0
	octave 4
	note G#, 2
	octave 3
	;note E_, 0 | WARNING: Rounded down to 0
	octave 4
	note E_, 4
;Bar 91
	octave 2
	;note E_, 0 | WARNING: Rounded down to 0
	octave 3
	note E_, 2
	octave 2
	;note G#, 0 | WARNING: Rounded down to 0
	octave 3
	note G#, 4
	octave 2
	;note B_, 0 | WARNING: Rounded down to 0
	octave 3
	note B_, 2
	octave 2
	;note B_, 0 | WARNING: Rounded down to 0
	octave 3
	note B_, 2
	;note G#, 0 | WARNING: Rounded down to 0
	octave 4
	note G#, 2
	octave 3
	;note F#, 0 | WARNING: Rounded down to 0
	octave 4
	note F#, 4
;Bar 92
	octave 2
	;note F#, 0 | WARNING: Rounded down to 0
	octave 3
	note F#, 2
	octave 2
	;note G#, 0 | WARNING: Rounded down to 0
	octave 3
	note G#, 4
	octave 2
	;note A#, 0 | WARNING: Rounded down to 0
	octave 3
	note A#, 2
	octave 2
	;note A#, 0 | WARNING: Rounded down to 0
	octave 3
	note A#, 2
	;note E_, 0 | WARNING: Rounded down to 0
	octave 4
	note E_, 2
	octave 3
	;note C#, 0 | WARNING: Rounded down to 0
	octave 4
	note C#, 4
;Bar 93
	octave 2
	;note C#, 0 | WARNING: Rounded down to 0
	octave 3
	note C#, 2
	octave 2
	;note E_, 0 | WARNING: Rounded down to 0
	octave 3
	note E_, 4
	octave 2
	;note A_, 0 | WARNING: Rounded down to 0
	octave 3
	note A_, 2
	octave 2
	;note A_, 0 | WARNING: Rounded down to 0
	octave 3
	note A_, 2
	;note E_, 0 | WARNING: Rounded down to 0
	octave 4
	note E_, 2
	octave 3
	;note C#, 0 | WARNING: Rounded down to 0
	octave 4
	note C#, 4
;Bar 94
	octave 2
	;note C#, 0 | WARNING: Rounded down to 0
	octave 3
	note C#, 2
	octave 2
	;note E_, 0 | WARNING: Rounded down to 0
	octave 3
	note E_, 4
	octave 2
	;note A_, 0 | WARNING: Rounded down to 0
	octave 3
	note A_, 2
	octave 2
	;note A_, 0 | WARNING: Rounded down to 0
	octave 3
	note A_, 2
	;note E_, 0 | WARNING: Rounded down to 0
	octave 4
	note E_, 2
	octave 3
	;note C#, 0 | WARNING: Rounded down to 0
	octave 4
	note C#, 4
;Bar 95
	octave 2
	;note C#, 0 | WARNING: Rounded down to 0
	octave 3
	note C#, 2
	octave 2
	;note E_, 0 | WARNING: Rounded down to 0
	octave 3
	note E_, 4
	octave 2
	;note G#, 0 | WARNING: Rounded down to 0
	octave 3
	note G#, 2
	octave 2
	;note G#, 0 | WARNING: Rounded down to 0
	octave 3
	note G#, 2
	;note D#, 0 | WARNING: Rounded down to 0
	octave 4
	note D#, 2
	octave 3
	;note C_, 0 | WARNING: Rounded down to 0
	octave 4
	note C_, 4
;Bar 96
	octave 2
	;note C_, 0 | WARNING: Rounded down to 0
	octave 3
	note C_, 2
	octave 2
	;note D#, 0 | WARNING: Rounded down to 0
	octave 3
	note D#, 4
	octave 2
	;note G#, 0 | WARNING: Rounded down to 0
	octave 3
	note G#, 2
	octave 2
	;note G#, 0 | WARNING: Rounded down to 0
	octave 3
	note G#, 2
	;note D#, 0 | WARNING: Rounded down to 0
	octave 4
	note D#, 2
	octave 3
	;note C_, 0 | WARNING: Rounded down to 0
	octave 4
	note C_, 4
;Bar 97
	octave 2
	;note C_, 0 | WARNING: Rounded down to 0
	octave 3
	note C_, 2
	octave 2
	;note D#, 0 | WARNING: Rounded down to 0
	octave 3
	note D#, 4
	;note C#, 0 | WARNING: Rounded down to 0
	octave 4
	note C#, 2
	octave 2
	;note G#, 0 | WARNING: Rounded down to 0
	octave 3
	note G#, 2
	;note C#, 0 | WARNING: Rounded down to 0
	octave 4
	note C#, 2
	octave 3
	;note E_, 0 | WARNING: Rounded down to 0
	octave 4
	note E_, 4
;Bar 98
	octave 3
	;note C#, 0 | WARNING: Rounded down to 0
	octave 4
	note C#, 2
	octave 2
	;note G#, 0 | WARNING: Rounded down to 0
	octave 3
	note G#, 2
	;note C#, 0 | WARNING: Rounded down to 0
	octave 4
	note C#, 2
	octave 3
	;note C#, 0 | WARNING: Rounded down to 0
	octave 4
	note C#, 2
	octave 2
	;note G#, 0 | WARNING: Rounded down to 0
	octave 3
	note G#, 2
	;note C#, 0 | WARNING: Rounded down to 0
	octave 4
	note C#, 2
	octave 3
	;note F#, 0 | WARNING: Rounded down to 0
	octave 4
	note F#, 4
;Bar 99
	octave 3
	;note G#, 0 | WARNING: Rounded down to 0
	octave 4
	note G#, 2
	octave 3
	;note E_, 0 | WARNING: Rounded down to 0
	octave 4
	note E_, 2
	octave 3
	;note C#, 0 | WARNING: Rounded down to 0
	octave 4
	note C#, 2
	octave 3
	;note C#, 0 | WARNING: Rounded down to 0
	octave 4
	note C#, 2
	octave 2
	;note G#, 0 | WARNING: Rounded down to 0
	octave 3
	note G#, 2
	;note C#, 0 | WARNING: Rounded down to 0
	octave 4
	note C#, 2
	octave 3
	;note E_, 0 | WARNING: Rounded down to 0
	octave 4
	note E_, 4
;Bar 100
	octave 3
	;note C#, 0 | WARNING: Rounded down to 0
	octave 4
	note C#, 2
	octave 2
	;note G#, 0 | WARNING: Rounded down to 0
	octave 3
	note G#, 2
	;note C#, 0 | WARNING: Rounded down to 0
	octave 4
	note C#, 2
	octave 3
	;note C#, 0 | WARNING: Rounded down to 0
	octave 4
	note C#, 2
	octave 2
	;note G#, 0 | WARNING: Rounded down to 0
	octave 3
	note G#, 2
	;note C#, 0 | WARNING: Rounded down to 0
	octave 4
	note C#, 2
	octave 3
	;note F#, 0 | WARNING: Rounded down to 0
	octave 4
	note F#, 4
;Bar 101
	octave 3
	;note G#, 0 | WARNING: Rounded down to 0
	octave 4
	note G#, 2
	octave 3
	;note E_, 0 | WARNING: Rounded down to 0
	octave 4
	note E_, 2
	octave 3
	;note C#, 0 | WARNING: Rounded down to 0
	octave 4
	note C#, 2
	octave 1
	;note A_, 0 | WARNING: Rounded down to 0
	octave 2
	note A_, 2
	octave 1
	;note A_, 0 | WARNING: Rounded down to 0
	octave 2
	note A_, 2
	;note E_, 0 | WARNING: Rounded down to 0
	octave 3
	note E_, 2
	octave 1
	;note A_, 0 | WARNING: Rounded down to 0
	octave 2
	note A_, 2
;Bar 102
	octave 1
	;note A_, 0 | WARNING: Rounded down to 0
	octave 2
	note A_, 2
	;note E_, 0 | WARNING: Rounded down to 0
	octave 3
	note E_, 2
	octave 1
	;note A_, 0 | WARNING: Rounded down to 0
	octave 2
	note A_, 2
	octave 1
	;note A#, 0 | WARNING: Rounded down to 0
	octave 2
	note A#, 2
	octave 1
	;note B_, 0 | WARNING: Rounded down to 0
	octave 2
	note B_, 2
	octave 1
	;note B_, 0 | WARNING: Rounded down to 0
	octave 2
	note B_, 2
	;note F#, 0 | WARNING: Rounded down to 0
	octave 3
	note F#, 2
	octave 1
	;note B_, 0 | WARNING: Rounded down to 0
	octave 2
	note B_, 2
;Bar 103
	;note C_, 0 | WARNING: Rounded down to 0
	octave 3
	note C_, 2
	octave 2
	;note G#, 0 | WARNING: Rounded down to 0
	octave 3
	note G#, 2
	octave 2
	;note C_, 0 | WARNING: Rounded down to 0
	octave 3
	note C_, 2
	octave 2
	;note C#, 0 | WARNING: Rounded down to 0
	octave 3
	note C#, 2
	octave 2
	;note C#, 0 | WARNING: Rounded down to 0
	octave 3
	note C#, 2
	octave 2
	;note C#, 0 | WARNING: Rounded down to 0
	octave 3
	note C#, 2
	octave 2
	;note G#, 0 | WARNING: Rounded down to 0
	octave 3
	note G#, 2
	octave 2
	;note C#, 0 | WARNING: Rounded down to 0
	octave 3
	note C#, 2
;Bar 104
	octave 2
	;note C#, 0 | WARNING: Rounded down to 0
	octave 3
	note C#, 2
	octave 2
	;note G#, 0 | WARNING: Rounded down to 0
	octave 3
	note G#, 2
	octave 2
	;note C#, 0 | WARNING: Rounded down to 0
	octave 3
	note C#, 2
	octave 2
	;note C#, 0 | WARNING: Rounded down to 0
	octave 3
	note C#, 2
	octave 2
	;note C#, 0 | WARNING: Rounded down to 0
	octave 3
	note C#, 2
	octave 2
	;note C#, 0 | WARNING: Rounded down to 0
	octave 3
	note C#, 2
	octave 2
	;note G#, 0 | WARNING: Rounded down to 0
	octave 3
	note G#, 2
	octave 2
	;note C#, 0 | WARNING: Rounded down to 0
	octave 3
	note C#, 2
;Bar 105
	octave 2
	;note E_, 0 | WARNING: Rounded down to 0
	octave 3
	note E_, 2
	octave 2
	;note B_, 0 | WARNING: Rounded down to 0
	octave 3
	note B_, 2
	octave 2
	;note E_, 0 | WARNING: Rounded down to 0
	octave 3
	note E_, 2
	octave 2
	;note F_, 0 | WARNING: Rounded down to 0
	octave 3
	note F_, 2
	octave 2
	;note F#, 0 | WARNING: Rounded down to 0
	octave 3
	note F#, 2
	octave 2
	;note F#, 0 | WARNING: Rounded down to 0
	octave 3
	note F#, 2
	octave 2
	;note G#, 0 | WARNING: Rounded down to 0
	octave 3
	note G#, 2
	octave 2
	;note F#, 0 | WARNING: Rounded down to 0
	octave 3
	note F#, 2
;Bar 106
	octave 2
	;note F#, 0 | WARNING: Rounded down to 0
	octave 3
	note F#, 2
	octave 2
	;note F#, 0 | WARNING: Rounded down to 0
	octave 3
	note F#, 2
	octave 2
	;note E_, 0 | WARNING: Rounded down to 0
	octave 3
	note E_, 2
	octave 2
	;note D#, 0 | WARNING: Rounded down to 0
	octave 3
	note D#, 2
	octave 1
	;note A_, 0 | WARNING: Rounded down to 0
	octave 2
	note A_, 2
	octave 1
	;note A_, 0 | WARNING: Rounded down to 0
	octave 2
	note A_, 2
	;note E_, 0 | WARNING: Rounded down to 0
	octave 3
	note E_, 2
	octave 1
	;note A_, 0 | WARNING: Rounded down to 0
	octave 2
	note A_, 2
;Bar 107
	octave 1
	;note B_, 0 | WARNING: Rounded down to 0
	octave 2
	note B_, 2
	octave 1
	;note F#, 0 | WARNING: Rounded down to 0
	octave 2
	note F#, 2
	octave 1
	;note B_, 0 | WARNING: Rounded down to 0
	octave 2
	note B_, 2
	;note C_, 0 | WARNING: Rounded down to 0
	octave 3
	note C_, 2
	octave 2
	;note C#, 0 | WARNING: Rounded down to 0
	octave 3
	note C#, 2
	octave 2
	;note C#, 0 | WARNING: Rounded down to 0
	octave 3
	note C#, 2
	octave 2
	;note G#, 0 | WARNING: Rounded down to 0
	octave 3
	note G#, 2
	octave 2
	;note C#, 0 | WARNING: Rounded down to 0
	octave 3
	note C#, 2
;Bar 108
	octave 2
	;note C#, 0 | WARNING: Rounded down to 0
	octave 3
	note C#, 2
	octave 2
	;note G#, 0 | WARNING: Rounded down to 0
	octave 3
	note G#, 2
	octave 2
	;note C#, 0 | WARNING: Rounded down to 0
	octave 3
	note C#, 2
	octave 2
	;note C#, 0 | WARNING: Rounded down to 0
	octave 3
	note C#, 2
	octave 2
	;note C#, 0 | WARNING: Rounded down to 0
	octave 3
	note C#, 2
	octave 2
	;note C#, 0 | WARNING: Rounded down to 0
	octave 3
	note C#, 2
	octave 2
	;note G#, 0 | WARNING: Rounded down to 0
	octave 3
	note G#, 2
	octave 2
	;note C#, 0 | WARNING: Rounded down to 0
	octave 3
	note C#, 2
;Bar 109
	octave 2
	;note C#, 0 | WARNING: Rounded down to 0
	octave 3
	note C#, 2
	octave 2
	;note G#, 0 | WARNING: Rounded down to 0
	octave 3
	note G#, 2
	octave 2
	;note C#, 0 | WARNING: Rounded down to 0
	octave 3
	note C#, 2
	octave 2
	;note C#, 0 | WARNING: Rounded down to 0
	octave 3
	note C#, 2
	octave 1
	;note A_, 0 | WARNING: Rounded down to 0
	octave 2
	note A_, 2
	octave 1
	;note A_, 0 | WARNING: Rounded down to 0
	octave 2
	note A_, 2
	;note E_, 0 | WARNING: Rounded down to 0
	octave 3
	note E_, 2
	octave 1
	;note A_, 0 | WARNING: Rounded down to 0
	octave 2
	note A_, 2
;Bar 110
	octave 1
	;note A_, 0 | WARNING: Rounded down to 0
	octave 2
	note A_, 2
	;note E_, 0 | WARNING: Rounded down to 0
	octave 3
	note E_, 2
	octave 1
	;note A_, 0 | WARNING: Rounded down to 0
	octave 2
	note A_, 2
	octave 1
	;note A#, 0 | WARNING: Rounded down to 0
	octave 2
	note A#, 2
	octave 1
	;note B_, 0 | WARNING: Rounded down to 0
	octave 2
	note B_, 2
	octave 1
	;note B_, 0 | WARNING: Rounded down to 0
	octave 2
	note B_, 2
	;note F#, 0 | WARNING: Rounded down to 0
	octave 3
	note F#, 2
	octave 1
	;note B_, 0 | WARNING: Rounded down to 0
	octave 2
	note B_, 2
;Bar 111
	;note C_, 0 | WARNING: Rounded down to 0
	octave 3
	note C_, 2
	octave 2
	;note G#, 0 | WARNING: Rounded down to 0
	octave 3
	note G#, 2
	octave 2
	;note C_, 0 | WARNING: Rounded down to 0
	octave 3
	note C_, 2
	octave 2
	;note C#, 0 | WARNING: Rounded down to 0
	octave 3
	note C#, 2
	octave 2
	;note C#, 0 | WARNING: Rounded down to 0
	octave 3
	note C#, 2
	octave 2
	;note C#, 0 | WARNING: Rounded down to 0
	octave 3
	note C#, 2
	octave 2
	;note G#, 0 | WARNING: Rounded down to 0
	octave 3
	note G#, 2
	octave 2
	;note C#, 0 | WARNING: Rounded down to 0
	octave 3
	note C#, 2
;Bar 112
	octave 2
	;note C#, 0 | WARNING: Rounded down to 0
	octave 3
	note C#, 2
	octave 2
	;note G#, 0 | WARNING: Rounded down to 0
	octave 3
	note G#, 2
	octave 2
	;note C#, 0 | WARNING: Rounded down to 0
	octave 3
	note C#, 2
	octave 2
	;note C#, 0 | WARNING: Rounded down to 0
	octave 3
	note C#, 2
	octave 2
	;note C#, 0 | WARNING: Rounded down to 0
	octave 3
	note C#, 2
	octave 2
	;note C#, 0 | WARNING: Rounded down to 0
	octave 3
	note C#, 2
	octave 2
	;note G#, 0 | WARNING: Rounded down to 0
	octave 3
	note G#, 2
	octave 2
	;note C#, 0 | WARNING: Rounded down to 0
	octave 3
	note C#, 2
;Bar 113
	octave 2
	;note E_, 0 | WARNING: Rounded down to 0
	octave 3
	note E_, 2
	octave 2
	;note B_, 0 | WARNING: Rounded down to 0
	octave 3
	note B_, 2
	octave 2
	;note E_, 0 | WARNING: Rounded down to 0
	octave 3
	note E_, 2
	octave 2
	;note F_, 0 | WARNING: Rounded down to 0
	octave 3
	note F_, 2
	octave 2
	;note F#, 0 | WARNING: Rounded down to 0
	octave 3
	note F#, 2
	octave 2
	;note F#, 0 | WARNING: Rounded down to 0
	octave 3
	note F#, 2
	octave 2
	;note G#, 0 | WARNING: Rounded down to 0
	octave 3
	note G#, 2
	octave 2
	;note F#, 0 | WARNING: Rounded down to 0
	octave 3
	note F#, 2
;Bar 114
	octave 2
	;note F#, 0 | WARNING: Rounded down to 0
	octave 3
	note F#, 2
	octave 2
	;note F#, 0 | WARNING: Rounded down to 0
	octave 3
	note F#, 2
	octave 2
	;note E_, 0 | WARNING: Rounded down to 0
	octave 3
	note E_, 2
	octave 2
	;note D#, 0 | WARNING: Rounded down to 0
	octave 3
	note D#, 2
	octave 1
	;note A_, 0 | WARNING: Rounded down to 0
	octave 2
	note A_, 2
	octave 1
	;note A_, 0 | WARNING: Rounded down to 0
	octave 2
	note A_, 2
	;note E_, 0 | WARNING: Rounded down to 0
	octave 3
	note E_, 2
	octave 1
	;note A_, 0 | WARNING: Rounded down to 0
	octave 2
	note A_, 2
;Bar 115
	octave 1
	;note B_, 0 | WARNING: Rounded down to 0
	octave 2
	note B_, 2
	octave 1
	;note F#, 0 | WARNING: Rounded down to 0
	octave 2
	note F#, 2
	octave 1
	;note B_, 0 | WARNING: Rounded down to 0
	octave 2
	note B_, 2
	;note C_, 0 | WARNING: Rounded down to 0
	octave 3
	note C_, 2
	octave 2
	;note C#, 0 | WARNING: Rounded down to 0
	octave 3
	note C#, 2
	octave 2
	;note C#, 0 | WARNING: Rounded down to 0
	octave 3
	note C#, 2
	octave 2
	;note G#, 0 | WARNING: Rounded down to 0
	octave 3
	note G#, 2
	octave 2
	;note C#, 0 | WARNING: Rounded down to 0
	octave 3
	note C#, 2
;Bar 116
	octave 2
	;note C#, 0 | WARNING: Rounded down to 0
	octave 3
	note C#, 2
	octave 2
	;note G#, 0 | WARNING: Rounded down to 0
	octave 3
	note G#, 2
	octave 2
	;note C#, 0 | WARNING: Rounded down to 0
	octave 3
	note C#, 2
	octave 2
	;note C#, 0 | WARNING: Rounded down to 0
	octave 3
	note C#, 2
	octave 2
	;note C#, 0 | WARNING: Rounded down to 0
	octave 3
	note C#, 2
	octave 2
	;note C#, 0 | WARNING: Rounded down to 0
	octave 3
	note C#, 2
	octave 2
	;note G#, 0 | WARNING: Rounded down to 0
	octave 3
	note G#, 2
	octave 2
	;note C#, 0 | WARNING: Rounded down to 0
	octave 3
	note C#, 2
;Bar 117
	octave 2
	;note C#, 0 | WARNING: Rounded down to 0
	octave 3
	note C#, 2
	octave 2
	;note G#, 0 | WARNING: Rounded down to 0
	octave 3
	note G#, 2
	octave 2
	;note C#, 0 | WARNING: Rounded down to 0
	octave 3
	note C#, 2
	octave 2
	;note C#, 0 | WARNING: Rounded down to 0
	octave 3
	note C#, 2
	octave 2
	note C#, 6
	note C#, 2
;Bar 118
	note G#, 4
	note G#, 4
	octave 1
	note B_, 6
	note B_, 2
;Bar 119
	octave 2
	note F#, 4
	octave 1
	note B_, 4
	note A#, 6
	note A#, 2
;Bar 120
	octave 2
	note F#, 4
	note F#, 4
	octave 1
	note A_, 6
	note A_, 2
;Bar 121
	octave 2
	note F#, 2
	octave 1
	note B_, 2
	octave 2
	note C_, 2
	note C#, 2
	note C#, 6
	note C#, 2
;Bar 122
	note G#, 4
	note G#, 4
	octave 1
	note B_, 6
	note B_, 2
;Bar 123
	octave 2
	note F#, 4
	octave 1
	note B_, 4
	note A#, 6
	note A#, 2
;Bar 124
	octave 2
	note F#, 4
	note F#, 4
	octave 1
	note A_, 6
	note A_, 2
;Bar 125
	octave 2
	note F#, 2
	octave 1
	note B_, 2
	octave 2
	note C_, 2
	note C#, 2
	note C#, 6
	note C#, 2
;Bar 126
	note G#, 4
	note G#, 4
	octave 1
	note B_, 6
	note B_, 2
;Bar 127
	octave 2
	note F#, 4
	octave 1
	note B_, 4
	note A#, 6
	note A#, 2
;Bar 128
	octave 2
	note F#, 4
	note F#, 4
	octave 1
	note A_, 6
	note A_, 2
;Bar 129
	octave 2
	note F#, 2
	octave 1
	note B_, 2
	octave 2
	note C_, 2
	note C#, 2
	note C#, 6
	note C#, 2
;Bar 130
	note G#, 4
	note G#, 4
	octave 1
	note B_, 6
	note B_, 2
;Bar 131
	octave 2
	note F#, 4
	octave 1
	note B_, 4
	note A#, 6
	note A#, 2
;Bar 132
	octave 2
	note F#, 4
	note F#, 4
	octave 1
	note A_, 6
	note A_, 2
;Bar 133
	octave 2
	note F#, 2
	octave 1
	note B_, 2
	octave 2
	note C_, 2
	note C#, 2
	sound_loop 0, .mainloop

; ============================================================================================================

