Music_Obla:
	channel_count 4
	channel 1, Music_Obla_Ch1
	channel 2, Music_Obla_Ch2
	channel 3, Music_Obla_Ch3
	channel 4, Music_Obla_Ch4

Music_Obla_Ch1:
	duty_cycle 2
	note_type 12, 10, 7
	tempo 163
	rest 16
	rest 16
.mainloop
	rest 16
	octave 3
	note A_, 1
	rest 1
	note A_, 1
	rest 1
	note A_, 1
	rest 1
	note A_, 1
	rest 1
	volume_envelope 11, 7
	note A_, 1
	rest 1
	volume_envelope 10, 7
	note A_, 2
	volume_envelope 11, 7
	note G_, 2
	volume_envelope 10, 7
	note F_, 2
	volume_envelope 9, 7
	note E_, 2
	volume_envelope 10, 7
	note G_, 4
	volume_envelope 11, 7
	note G_, 7
	rest 3
	volume_envelope 10, 7
	note A#, 1
	rest 1
	volume_envelope 9, 7
	note A#, 1
	rest 1
	note A#, 1
	rest 1
	volume_envelope 10, 7
	note A#, 1
	rest 1
	note A#, 1
	rest 1
	note A#, 2
	note A_, 2
	note G_, 2
	note F_, 10
	rest 6
	octave 4
	note C_, 1
	rest 1
	note C_, 1
	rest 1
	note C_, 1
	rest 1
	note C_, 1
	rest 1
	volume_envelope 9, 7
	note C_, 1
	rest 1
	note C_, 2
	octave 3
	volume_envelope 10, 7
	note A#, 2
	note A_, 1
	rest 1
	volume_envelope 11, 7
	note A#, 2
	octave 4
	volume_envelope 10, 7
	note C_, 3
	rest 1
	note D_, 4
	note D_, 2
	note C_, 2
	octave 3
	note A#, 1
	rest 1
	note A_, 1
	rest 1
	note A_, 2
	note A#, 2
	note A_, 2
	note G_, 2
	note A#, 2
	note A_, 2
	note G_, 2
	note F_, 8
	rest 2
	note F_, 2
	note A_, 2
	octave 4
	note C_, 4
	octave 3
	note F_, 2
	note A_, 2
	octave 4
	note C_, 4
	octave 3
	note F_, 2
	note A_, 2
	octave 4
	note C_, 8
	note F_, 8
	volume_envelope 11, 7
	note C_, 4
	octave 3
	volume_envelope 10, 7
	note A#, 2
	note A_, 2
	note A#, 2
	note A_, 2
	volume_envelope 11, 7
	note G_, 3
	rest 1
	volume_envelope 10, 7
	note F_, 7
	rest 5
	note F_, 2
	note A_, 2
	octave 4
	note C_, 4
	octave 3
	note F_, 2
	note A_, 2
	octave 4
	note C_, 4
	octave 3
	note F_, 2
	note A_, 2
	octave 4
	note C_, 8
	volume_envelope 11, 7
	note F_, 7
	rest 1
	note C_, 4
	octave 3
	note A#, 2
	volume_envelope 10, 7
	note A_, 2
	note A#, 2
	note A_, 2
	note G_, 3
	rest 1
	note F_, 8
	rest 10
	note A_, 1
	rest 1
	volume_envelope 9, 7
	note A_, 1
	rest 1
	volume_envelope 10, 7
	note A_, 1
	rest 1
	volume_envelope 11, 7
	note A_, 1
	rest 1
	volume_envelope 10, 7
	note A_, 1
	rest 1
	note A_, 2
	note G_, 2
	volume_envelope 9, 7
	note F_, 2
	note E_, 2
	volume_envelope 10, 7
	note G_, 3
	rest 1
	note G_, 9
	rest 1
	volume_envelope 9, 7
	note A#, 1
	rest 1
	note A#, 1
	rest 1
	volume_envelope 10, 7
	note A#, 1
	rest 1
	volume_envelope 11, 7
	note A#, 1
	rest 1
	volume_envelope 10, 7
	note A#, 1
	rest 1
	note A#, 2
	note A_, 2
	note G_, 2
	note F_, 11
	rest 5
	octave 4
	note C_, 1
	rest 1
	volume_envelope 9, 7
	note C_, 1
	rest 1
	volume_envelope 10, 7
	note C_, 1
	rest 1
	note C_, 1
	rest 1
	note C_, 1
	rest 1
	note C_, 2
	octave 3
	note A#, 2
	note A_, 2
	note A#, 2
	octave 4
	note C_, 4
	volume_envelope 9, 7
	note D_, 4
	volume_envelope 10, 7
	note D_, 2
	volume_envelope 9, 7
	note C_, 2
	octave 3
	volume_envelope 10, 7
	note A#, 2
	note A_, 1
	rest 1
	note A_, 2
	note A#, 2
	note A_, 2
	note G_, 2
	volume_envelope 11, 7
	note A#, 2
	volume_envelope 10, 7
	note A_, 2
	note G_, 2
	volume_envelope 9, 7
	note F_, 7
	rest 3
	volume_envelope 10, 7
	note F_, 2
	note A_, 2
	octave 4
	note C_, 4
	octave 3
	volume_envelope 11, 7
	note F_, 2
	volume_envelope 10, 7
	note A_, 2
	octave 4
	note C_, 4
	octave 3
	note F_, 2
	note A_, 2
	octave 4
	note C_, 8
	volume_envelope 11, 7
	note F_, 7
	rest 1
	volume_envelope 10, 7
	note C_, 4
	octave 3
	note A#, 2
	note A_, 2
	note A#, 2
	note A_, 1
	rest 1
	note G_, 3
	rest 1
	note F_, 2
	volume_envelope 9, 7
	note F_, 7
	rest 3
	volume_envelope 10, 7
	note F_, 2
	note A_, 2
	octave 4
	note C_, 4
	octave 3
	note F_, 2
	note A_, 2
	octave 4
	volume_envelope 9, 7
	note C_, 4
	octave 3
	volume_envelope 10, 7
	note F_, 2
	note A_, 2
	octave 4
	note C_, 7
	rest 1
	volume_envelope 11, 7
	note F_, 7
	rest 1
	volume_envelope 10, 7
	note C_, 4
	octave 3
	note A#, 2
	volume_envelope 9, 7
	note A_, 2
	note A#, 2
	note A_, 1
	rest 1
	volume_envelope 10, 7
	note G_, 3
	rest 1
	note F_, 7
	rest 13
	note F_, 1
	volume_envelope 9, 7
	note F_, 1
	volume_envelope 10, 7
	note A#, 1
	volume_envelope 9, 7
	note A#, 1
	octave 4
	volume_envelope 10, 7
	note C_, 2
	note D_, 4
	volume_envelope 9, 7
	note C_, 2
	note D_, 2
	volume_envelope 10, 7
	rest 4
	octave 3
	volume_envelope 9, 7
	note A#, 4
	octave 4
	volume_envelope 10, 7
	note D_, 4
	octave 3
	note F_, 4
	note A_, 5
	rest 16
	rest 13
	note F_, 1
	volume_envelope 9, 7
	note F_, 1
	volume_envelope 10, 7
	note A#, 1
	volume_envelope 9, 7
	note A#, 1
	octave 4
	note C_, 2
	volume_envelope 10, 7
	note D_, 4
	volume_envelope 9, 7
	rest 2
	rest 2
	volume_envelope 10, 7
	rest 4
	octave 3
	note A#, 4
	octave 4
	volume_envelope 9, 7
	note D_, 6
	octave 3
	note F_, 2
	volume_envelope 10, 7
	note A_, 1
	rest 1
	volume_envelope 11, 7
	note A_, 1
	rest 3
	note A_, 2
	volume_envelope 10, 7
	note A#, 2
	rest 2
	volume_envelope 11, 7
	note A_, 1
	rest 3
	note G_, 12
	rest 4
	volume_envelope 10, 7
	note A_, 1
	rest 1
	note A_, 1
	rest 1
	note A_, 1
	rest 1
	note A_, 1
	rest 1
	note A_, 1
	rest 1
	volume_envelope 11, 7
	note A_, 2
	volume_envelope 10, 7
	note G_, 2
	note F_, 1
	rest 1
	volume_envelope 9, 7
	note E_, 2
	volume_envelope 10, 7
	note G_, 3
	rest 1
	note G_, 9
	rest 1
	note A#, 1
	rest 1
	note A#, 1
	rest 1
	note A#, 1
	rest 1
	note A#, 1
	rest 1
	note A#, 1
	rest 1
	note A#, 2
	note A_, 2
	volume_envelope 9, 7
	note G_, 2
	note F_, 13
	rest 3
	octave 4
	note C_, 2
	note C_, 2
	volume_envelope 10, 7
	note C_, 1
	rest 1
	volume_envelope 9, 7
	note C_, 1
	rest 1
	volume_envelope 10, 7
	note C_, 2
	volume_envelope 9, 7
	note C_, 2
	octave 3
	volume_envelope 10, 7
	note A#, 2
	note A_, 2
	volume_envelope 9, 7
	note A#, 2
	octave 4
	note C_, 4
	note D_, 4
	volume_envelope 10, 7
	note D_, 2
	volume_envelope 9, 7
	note C_, 2
	octave 3
	note A#, 2
	volume_envelope 10, 7
	note A_, 1
	rest 1
	note A_, 2
	volume_envelope 9, 7
	note A#, 2
	volume_envelope 10, 7
	note A_, 2
	volume_envelope 9, 7
	note G_, 2
	volume_envelope 10, 7
	note A#, 2
	volume_envelope 9, 7
	note A_, 2
	volume_envelope 10, 7
	note G_, 2
	volume_envelope 9, 7
	note F_, 7
	rest 3
	volume_envelope 10, 7
	note F_, 2
	volume_envelope 9, 7
	note A_, 2
	octave 4
	note C_, 4
	octave 3
	note F_, 2
	volume_envelope 10, 7
	note A_, 2
	octave 4
	note C_, 4
	octave 3
	volume_envelope 9, 7
	note F_, 2
	volume_envelope 10, 7
	note A_, 2
	octave 4
	note C_, 7
	rest 1
	note F_, 7
	rest 1
	note C_, 4
	octave 3
	note A#, 2
	note A_, 2
	note A#, 2
	note A_, 2
	note G_, 3
	rest 1
	note F_, 9
	rest 3
	note F_, 2
	note A_, 2
	octave 4
	note C_, 4
	octave 3
	volume_envelope 9, 7
	note F_, 2
	volume_envelope 10, 7
	note A_, 2
	octave 4
	note C_, 4
	octave 3
	volume_envelope 9, 7
	note F_, 2
	volume_envelope 10, 7
	note A_, 2
	octave 4
	note C_, 8
	note F_, 8
	note C_, 4
	octave 3
	note A#, 2
	note A_, 2
	note A#, 2
	note A_, 2
	volume_envelope 9, 7
	note G_, 3
	rest 1
	volume_envelope 10, 7
	note F_, 11
	rest 9
	volume_envelope 9, 7
	note F_, 1
	note F_, 1
	volume_envelope 10, 7
	note A#, 1
	volume_envelope 9, 7
	note A#, 1
	octave 4
	volume_envelope 10, 7
	note C_, 2
	note D_, 4
	volume_envelope 9, 7
	note C_, 2
	note D_, 2
	volume_envelope 10, 7
	note F_, 4
	octave 3
	volume_envelope 9, 7
	note A#, 4
	octave 4
	note D_, 4
	octave 3
	note F_, 4
	note A_, 7
	rest 16
	rest 11
	note F_, 1
	note F_, 1
	volume_envelope 10, 7
	note A#, 1
	volume_envelope 9, 7
	note A#, 1
	octave 4
	note C_, 2
	note D_, 4
	volume_envelope 10, 7
	note C_, 2
	volume_envelope 9, 7
	note D_, 2
	volume_envelope 10, 7
	note F_, 4
	octave 3
	note A#, 4
	octave 4
	volume_envelope 9, 7
	note D_, 1
	rest 4
	octave 3
	volume_envelope 8, 7
	note F_, 3
	volume_envelope 10, 7
	note A_, 1
	rest 1
	volume_envelope 11, 7
	note A_, 1
	rest 3
	note A_, 2
	volume_envelope 10, 7
	note A#, 2
	rest 2
	volume_envelope 11, 7
	note A_, 2
	rest 2
	note G_, 12
	rest 4
	note A_, 1
	rest 1
	volume_envelope 10, 7
	note A_, 1
	rest 1
	volume_envelope 11, 7
	note A_, 1
	rest 1
	volume_envelope 10, 7
	note A_, 1
	rest 1
	note A_, 1
	rest 1
	note A_, 2
	note G_, 2
	volume_envelope 9, 7
	note F_, 2
	volume_envelope 10, 7
	note E_, 2
	note G_, 2
	rest 2
	volume_envelope 9, 7
	note G_, 10
	note A#, 1
	rest 1
	note A#, 1
	rest 1
	volume_envelope 10, 7
	note A#, 1
	rest 1
	note A#, 1
	rest 1
	note A#, 1
	rest 1
	note A#, 2
	volume_envelope 9, 7
	note A_, 2
	note G_, 2
	volume_envelope 10, 7
	note F_, 2
	note A_, 10
	rest 4
	octave 4
	volume_envelope 9, 7
	note C_, 1
	rest 1
	note C_, 1
	rest 1
	note C_, 1
	rest 1
	note C_, 1
	rest 1
	volume_envelope 10, 7
	note C_, 2
	note C_, 2
	octave 3
	note A#, 2
	volume_envelope 11, 7
	note A_, 2
	volume_envelope 10, 7
	note A#, 2
	octave 4
	note C_, 3
	rest 1
	note D_, 4
	note D_, 2
	volume_envelope 9, 7
	note C_, 2
	octave 3
	note A#, 2
	volume_envelope 10, 7
	note A_, 1
	rest 1
	note A_, 2
	note A#, 2
	note A_, 2
	volume_envelope 9, 7
	note G_, 2
	volume_envelope 11, 7
	note A#, 2
	volume_envelope 9, 7
	note A_, 2
	volume_envelope 10, 7
	note G_, 2
	note F_, 7
	rest 3
	note F_, 2
	note A_, 2
	octave 4
	volume_envelope 9, 7
	note C_, 4
	octave 3
	note F_, 2
	volume_envelope 10, 7
	note A_, 2
	octave 4
	note C_, 4
	octave 3
	volume_envelope 9, 7
	note F_, 2
	volume_envelope 10, 7
	note A_, 1
	rest 1
	octave 4
	volume_envelope 9, 7
	note C_, 7
	rest 1
	volume_envelope 10, 7
	note F_, 8
	note C_, 4
	octave 3
	note A#, 2
	note A_, 2
	volume_envelope 9, 7
	note A#, 2
	note A_, 1
	rest 1
	volume_envelope 10, 7
	note G_, 3
	rest 1
	volume_envelope 9, 7
	note F_, 8
	rest 4
	volume_envelope 10, 7
	note F_, 2
	note A_, 2
	octave 4
	volume_envelope 9, 7
	note C_, 4
	octave 3
	volume_envelope 10, 7
	note F_, 2
	note A_, 2
	octave 4
	note C_, 4
	octave 3
	note F_, 2
	note A_, 1
	rest 1
	octave 4
	note C_, 8
	note F_, 7
	rest 1
	note C_, 4
	octave 3
	note A#, 2
	note A_, 2
	volume_envelope 9, 7
	note A#, 2
	volume_envelope 10, 7
	note A_, 1
	rest 1
	note G_, 2
	rest 2
	note F_, 11
	rest 5
	octave 4
	note D_, 1
	volume_envelope 9, 7
	note D_, 1
	volume_envelope 10, 7
	note F_, 2
	note F_, 2
	note D_, 8
	rest 2
	note D_, 2
	note C_, 1
	rest 1
	octave 3
	note A#, 1
	rest 1
	note A_, 2
	note G_, 1
	rest 1
	volume_envelope 13, 7
	note F_, 16
	rest 10
	rest 5
	rest 5
	rest 5
	sound_loop 0, .mainloop

Music_Obla_Ch2:
	duty_cycle 1
	note_type 12, 10, 7
.mainloop
	octave 3
	volume_envelope 11, 7
	octave 4
	volume_envelope 10, 7
	note C_, 2
	volume_envelope 8, 7
	octave 3
	volume_envelope 9, 7
	note G_, 1
	volume_envelope 8, 7
	volume_envelope 9, 7
	octave 4
	volume_envelope 8, 7
	note C_, 1
	octave 3
	octave 4
	volume_envelope 9, 7
	octave 3
	note G_, 1
	rest 1
	volume_envelope 10, 7
	volume_envelope 9, 7
	octave 4
	note C_, 1
	rest 1
	octave 3
	volume_envelope 8, 7
	note E_, 1
	rest 1
	volume_envelope 10, 7
	octave 2
	octave 3
	volume_envelope 9, 7
	note B_, 1
	rest 1
	octave 4
	volume_envelope 10, 7
	octave 3
	volume_envelope 9, 7
	volume_envelope 10, 7
	volume_envelope 9, 7
	note C_, 1
	rest 1
	volume_envelope 11, 7
	note C_, 1
	rest 1
	octave 1
	volume_envelope 10, 7
	note F_, 2
	octave 3
	volume_envelope 9, 7
	octave 2
	note A_, 1
	rest 1
	octave 1
	volume_envelope 11, 7
	note A_, 2
	octave 2
	volume_envelope 10, 7
	octave 3
	octave 2
	octave 3
	volume_envelope 9, 7
	note F_, 2
	octave 1
	volume_envelope 10, 7
	note F_, 2
	octave 2
	volume_envelope 9, 7
	octave 3
	note F_, 1
	rest 1
	octave 1
	volume_envelope 11, 7
	note A_, 2
	octave 2
	volume_envelope 10, 7
	volume_envelope 9, 7
	octave 3
	note F_, 2
	octave 1
	volume_envelope 10, 7
	note F_, 2
	octave 3
	volume_envelope 9, 7
	octave 2
	octave 3
	note F_, 1
	rest 1
	octave 1
	volume_envelope 11, 7
	note A_, 2
	octave 2
	volume_envelope 10, 7
	octave 3
	octave 2
	note A_, 2
	octave 1
	note F_, 2
	octave 3
	volume_envelope 9, 7
	volume_envelope 10, 7
	octave 2
	note A_, 1
	rest 1
	octave 1
	volume_envelope 11, 7
	note A_, 2
	octave 2
	volume_envelope 10, 7
	octave 3
	octave 2
	note A_, 2
	octave 1
	note F_, 2
	octave 2
	octave 3
	note C_, 1
	rest 1
	octave 1
	note A_, 2
	octave 2
	octave 3
	volume_envelope 9, 7
	octave 2
	volume_envelope 10, 7
	note A_, 2
	octave 1
	volume_envelope 9, 7
	note F_, 2
	octave 3
	octave 2
	volume_envelope 10, 7
	octave 3
	note C_, 1
	rest 1
	octave 1
	note A_, 2
	octave 2
	volume_envelope 9, 7
	octave 3
	volume_envelope 10, 7
	volume_envelope 9, 7
	octave 2
	volume_envelope 10, 7
	note A_, 2
	octave 1
	note C_, 2
	octave 3
	volume_envelope 9, 7
	octave 2
	volume_envelope 10, 7
	volume_envelope 9, 7
	note A#, 1
	rest 1
	octave 1
	volume_envelope 10, 7
	note E_, 2
	octave 3
	volume_envelope 9, 7
	octave 2
	volume_envelope 10, 7
	octave 3
	volume_envelope 9, 7
	octave 2
	note A#, 2
	octave 1
	volume_envelope 11, 7
	note C_, 2
	octave 2
	volume_envelope 10, 7
	octave 3
	volume_envelope 9, 7
	octave 2
	volume_envelope 10, 7
	octave 3
	volume_envelope 9, 7
	note E_, 1
	rest 1
	octave 1
	volume_envelope 11, 7
	note E_, 2
	volume_envelope 9, 7
	octave 2
	volume_envelope 10, 7
	octave 3
	volume_envelope 9, 7
	note C_, 2
	octave 1
	volume_envelope 11, 7
	note C_, 2
	octave 3
	volume_envelope 9, 7
	octave 2
	octave 3
	octave 2
	volume_envelope 10, 7
	note G_, 1
	rest 1
	octave 1
	volume_envelope 11, 7
	note E_, 2
	volume_envelope 10, 7
	octave 3
	volume_envelope 9, 7
	octave 2
	volume_envelope 10, 7
	octave 3
	volume_envelope 9, 7
	octave 2
	volume_envelope 10, 7
	note G_, 2
	octave 1
	note C_, 2
	octave 3
	volume_envelope 9, 7
	octave 2
	octave 3
	octave 2
	volume_envelope 10, 7
	note G_, 1
	rest 1
	octave 1
	note E_, 2
	octave 3
	volume_envelope 9, 7
	octave 2
	volume_envelope 10, 7
	octave 3
	volume_envelope 9, 7
	octave 2
	volume_envelope 10, 7
	note G_, 2
	octave 1
	note F_, 2
	octave 3
	octave 2
	octave 3
	volume_envelope 9, 7
	note F_, 1
	rest 1
	octave 1
	volume_envelope 11, 7
	note A_, 2
	octave 2
	volume_envelope 10, 7
	octave 3
	octave 2
	octave 3
	note C_, 2
	octave 1
	note F_, 2
	octave 3
	octave 2
	note A_, 1
	rest 1
	octave 1
	volume_envelope 11, 7
	note A_, 2
	octave 2
	volume_envelope 10, 7
	octave 3
	octave 2
	note A_, 2
	octave 1
	note F_, 2
	octave 3
	octave 2
	octave 3
	note F_, 1
	rest 1
	octave 1
	note A_, 2
	octave 2
	octave 3
	octave 2
	note A_, 2
	octave 1
	note F_, 2
	octave 3
	octave 2
	octave 3
	note F_, 1
	rest 1
	octave 1
	note A_, 2
	octave 2
	octave 3
	octave 2
	octave 3
	note F_, 2
	octave 1
	volume_envelope 11, 7
	note A#, 2
	octave 2
	volume_envelope 9, 7
	octave 3
	note D_, 2
	octave 2
	note D_, 2
	octave 3
	volume_envelope 8, 7
	volume_envelope 9, 7
	note D_, 2
	octave 1
	volume_envelope 11, 7
	note A#, 2
	octave 2
	volume_envelope 10, 7
	octave 3
	volume_envelope 9, 7
	volume_envelope 10, 7
	note D_, 1
	rest 1
	octave 2
	volume_envelope 9, 7
	note D_, 2
	volume_envelope 10, 7
	octave 3
	volume_envelope 9, 7
	volume_envelope 10, 7
	note D_, 2
	octave 1
	note F_, 2
	octave 3
	octave 2
	note A_, 1
	rest 1
	octave 1
	note A_, 2
	octave 2
	octave 3
	octave 2
	note A_, 2
	octave 1
	note C_, 2
	octave 3
	volume_envelope 9, 7
	octave 2
	volume_envelope 10, 7
	note G_, 2
	octave 1
	note E_, 2
	volume_envelope 9, 7
	octave 2
	volume_envelope 10, 7
	octave 3
	volume_envelope 9, 7
	note E_, 2
	octave 1
	volume_envelope 10, 7
	note F_, 2
	octave 3
	octave 2
	octave 3
	note F_, 1
	rest 1
	octave 1
	note A_, 2
	octave 2
	volume_envelope 9, 7
	volume_envelope 10, 7
	octave 3
	note C_, 2
	octave 1
	volume_envelope 9, 7
	note F_, 2
	octave 3
	volume_envelope 10, 7
	octave 2
	octave 3
	volume_envelope 9, 7
	note F_, 2
	octave 1
	volume_envelope 10, 7
	note A_, 2
	octave 2
	octave 3
	volume_envelope 9, 7
	octave 2
	volume_envelope 10, 7
	note A_, 2
	octave 1
	volume_envelope 9, 7
	note F_, 2
	octave 3
	octave 2
	volume_envelope 10, 7
	octave 3
	volume_envelope 9, 7
	note C_, 1
	rest 1
	octave 1
	volume_envelope 10, 7
	note A_, 2
	octave 2
	volume_envelope 9, 7
	octave 3
	volume_envelope 10, 7
	volume_envelope 9, 7
	note F_, 2
	octave 1
	volume_envelope 10, 7
	note F_, 2
	octave 3
	volume_envelope 9, 7
	octave 2
	volume_envelope 10, 7
	note A_, 1
	rest 1
	octave 1
	volume_envelope 11, 7
	note A_, 2
	octave 2
	volume_envelope 10, 7
	octave 3
	note C_, 1
	rest 1
	octave 2
	note C_, 2
	octave 3
	volume_envelope 11, 7
	volume_envelope 10, 7
	octave 2
	note A_, 2
	octave 1
	note A_, 2
	octave 2
	octave 3
	octave 2
	note A_, 2
	note D_, 2
	octave 3
	volume_envelope 9, 7
	note F_, 2
	octave 1
	volume_envelope 11, 7
	note A_, 2
	volume_envelope 10, 7
	octave 2
	octave 3
	volume_envelope 9, 7
	note F_, 2
	octave 1
	volume_envelope 10, 7
	note F_, 2
	octave 3
	octave 2
	volume_envelope 9, 7
	octave 3
	volume_envelope 10, 7
	note F_, 1
	rest 1
	octave 1
	volume_envelope 11, 7
	note A_, 2
	octave 2
	volume_envelope 9, 7
	octave 3
	volume_envelope 10, 7
	octave 2
	note A_, 2
	octave 1
	volume_envelope 11, 7
	note C_, 2
	octave 2
	volume_envelope 10, 7
	octave 3
	volume_envelope 9, 7
	octave 2
	volume_envelope 10, 7
	octave 3
	volume_envelope 9, 7
	note C_, 1
	rest 1
	octave 1
	volume_envelope 10, 7
	note E_, 2
	volume_envelope 9, 7
	octave 2
	volume_envelope 10, 7
	octave 3
	volume_envelope 8, 7
	note C_, 2
	octave 1
	volume_envelope 9, 7
	note F_, 2
	octave 3
	volume_envelope 10, 7
	octave 2
	volume_envelope 9, 7
	octave 3
	volume_envelope 10, 7
	note F_, 1
	rest 1
	octave 1
	note A_, 2
	octave 2
	volume_envelope 9, 7
	octave 3
	note C_, 2
	octave 1
	volume_envelope 10, 7
	note F_, 2
	octave 3
	octave 2
	volume_envelope 9, 7
	note A_, 1
	rest 1
	octave 1
	volume_envelope 11, 7
	note A_, 2
	octave 2
	volume_envelope 9, 7
	octave 3
	volume_envelope 10, 7
	volume_envelope 9, 7
	octave 2
	volume_envelope 10, 7
	note A_, 2
	octave 1
	note F_, 2
	octave 3
	octave 2
	volume_envelope 9, 7
	octave 3
	note F_, 1
	rest 1
	octave 1
	volume_envelope 10, 7
	note A_, 2
	octave 2
	volume_envelope 9, 7
	octave 3
	volume_envelope 10, 7
	octave 2
	note A_, 2
	octave 1
	note F_, 2
	octave 3
	volume_envelope 9, 7
	volume_envelope 10, 7
	octave 2
	volume_envelope 9, 7
	note A_, 1
	rest 1
	octave 1
	volume_envelope 10, 7
	note A_, 2
	octave 2
	octave 3
	octave 2
	volume_envelope 9, 7
	note A_, 1
	rest 1
	volume_envelope 11, 7
	note C_, 2
	octave 3
	volume_envelope 9, 7
	volume_envelope 10, 7
	octave 2
	note A_, 2
	octave 1
	volume_envelope 11, 7
	note A_, 2
	octave 2
	volume_envelope 10, 7
	octave 3
	volume_envelope 11, 7
	octave 2
	volume_envelope 10, 7
	note A_, 2
	note D_, 2
	octave 3
	volume_envelope 9, 7
	volume_envelope 10, 7
	octave 2
	note A_, 2
	octave 1
	note A_, 2
	octave 2
	octave 3
	note F_, 2
	octave 1
	note F_, 2
	octave 3
	octave 2
	octave 3
	note F_, 1
	rest 1
	octave 1
	volume_envelope 11, 7
	note A_, 2
	octave 2
	volume_envelope 10, 7
	octave 3
	octave 2
	note A_, 2
	octave 1
	volume_envelope 11, 7
	note C_, 2
	octave 2
	volume_envelope 10, 7
	octave 3
	volume_envelope 9, 7
	note E_, 1
	rest 1
	octave 1
	volume_envelope 10, 7
	note E_, 2
	volume_envelope 9, 7
	octave 2
	octave 3
	octave 2
	volume_envelope 10, 7
	octave 3
	volume_envelope 9, 7
	note E_, 2
	octave 1
	volume_envelope 10, 7
	note F_, 2
	octave 3
	octave 2
	volume_envelope 9, 7
	note A_, 1
	rest 1
	octave 1
	volume_envelope 11, 7
	note A_, 2
	octave 2
	volume_envelope 9, 7
	octave 3
	octave 2
	octave 3
	volume_envelope 10, 7
	note C_, 2
	octave 1
	note F_, 2
	octave 3
	volume_envelope 9, 7
	octave 2
	note A_, 1
	rest 1
	octave 1
	volume_envelope 10, 7
	note A_, 2
	octave 2
	volume_envelope 9, 7
	octave 3
	volume_envelope 10, 7
	volume_envelope 9, 7
	octave 2
	note A_, 2
	octave 1
	note F_, 2
	octave 3
	volume_envelope 10, 7
	octave 2
	octave 3
	note F_, 1
	rest 1
	octave 1
	note A_, 2
	octave 2
	octave 3
	volume_envelope 9, 7
	octave 2
	note A_, 2
	octave 1
	volume_envelope 10, 7
	note F_, 2
	octave 3
	volume_envelope 9, 7
	volume_envelope 10, 7
	octave 2
	volume_envelope 9, 7
	note A_, 1
	rest 1
	octave 1
	volume_envelope 10, 7
	note A_, 2
	octave 2
	volume_envelope 9, 7
	octave 3
	octave 2
	note A_, 2
	octave 1
	volume_envelope 10, 7
	note C_, 2
	octave 3
	volume_envelope 8, 7
	octave 2
	volume_envelope 9, 7
	note G_, 1
	rest 1
	octave 1
	volume_envelope 10, 7
	note E_, 2
	volume_envelope 9, 7
	octave 3
	volume_envelope 8, 7
	volume_envelope 9, 7
	octave 2
	volume_envelope 10, 7
	volume_envelope 9, 7
	note A#, 2
	octave 1
	volume_envelope 10, 7
	note C_, 2
	octave 2
	volume_envelope 9, 7
	octave 3
	note E_, 1
	rest 1
	octave 1
	volume_envelope 10, 7
	note E_, 2
	volume_envelope 9, 7
	octave 3
	octave 2
	volume_envelope 10, 7
	octave 3
	volume_envelope 9, 7
	note C_, 1
	rest 1
	octave 1
	volume_envelope 10, 7
	rest 2
	octave 2
	volume_envelope 9, 7
	octave 3
	note C_, 1
	rest 1
	octave 1
	volume_envelope 11, 7
	note E_, 2
	volume_envelope 10, 7
	octave 2
	volume_envelope 9, 7
	octave 3
	note C_, 2
	octave 1
	volume_envelope 10, 7
	note C_, 2
	octave 3
	volume_envelope 9, 7
	octave 2
	volume_envelope 10, 7
	octave 3
	volume_envelope 9, 7
	note C_, 1
	rest 1
	octave 1
	volume_envelope 10, 7
	note E_, 2
	octave 2
	octave 3
	volume_envelope 9, 7
	octave 2
	volume_envelope 11, 7
	note G_, 2
	octave 1
	volume_envelope 10, 7
	note F_, 2
	octave 3
	volume_envelope 9, 7
	volume_envelope 10, 7
	octave 2
	note A_, 1
	rest 1
	octave 1
	note A_, 2
	octave 2
	volume_envelope 9, 7
	octave 3
	volume_envelope 10, 7
	octave 2
	note A_, 2
	octave 1
	note F_, 2
	octave 3
	volume_envelope 9, 7
	octave 2
	octave 3
	volume_envelope 10, 7
	note C_, 1
	rest 1
	octave 1
	note A_, 2
	octave 2
	octave 3
	octave 2
	note A_, 2
	octave 1
	note F_, 2
	octave 3
	octave 2
	octave 3
	note C_, 1
	rest 1
	octave 1
	note A_, 2
	octave 2
	octave 3
	volume_envelope 9, 7
	volume_envelope 10, 7
	octave 2
	note A_, 2
	octave 1
	note F_, 2
	octave 3
	volume_envelope 9, 7
	octave 2
	volume_envelope 10, 7
	note A_, 1
	rest 1
	octave 1
	note A_, 2
	octave 2
	octave 3
	volume_envelope 9, 7
	octave 2
	note A_, 2
	octave 1
	volume_envelope 10, 7
	note A#, 2
	octave 2
	volume_envelope 9, 7
	octave 3
	volume_envelope 8, 7
	note F_, 1
	rest 1
	octave 2
	volume_envelope 10, 7
	note D_, 2
	volume_envelope 9, 7
	octave 3
	note D_, 2
	octave 1
	volume_envelope 10, 7
	note A#, 2
	octave 2
	volume_envelope 9, 7
	octave 3
	note F_, 1
	rest 1
	octave 2
	volume_envelope 10, 7
	note D_, 2
	octave 3
	volume_envelope 9, 7
	octave 2
	octave 3
	volume_envelope 10, 7
	note D_, 2
	octave 1
	note F_, 2
	octave 2
	volume_envelope 9, 7
	octave 3
	note C_, 1
	rest 1
	octave 1
	volume_envelope 11, 7
	note A_, 2
	octave 2
	volume_envelope 10, 7
	octave 3
	volume_envelope 9, 7
	octave 2
	octave 3
	note C_, 2
	octave 1
	volume_envelope 11, 7
	note C_, 2
	octave 3
	volume_envelope 9, 7
	volume_envelope 8, 7
	octave 2
	volume_envelope 9, 7
	note G_, 1
	rest 1
	octave 1
	volume_envelope 10, 7
	note E_, 2
	octave 2
	volume_envelope 9, 7
	octave 3
	volume_envelope 8, 7
	note E_, 2
	octave 1
	volume_envelope 9, 7
	note F_, 2
	octave 3
	octave 2
	volume_envelope 10, 7
	octave 3
	note C_, 1
	rest 1
	octave 1
	note A_, 2
	octave 2
	volume_envelope 9, 7
	volume_envelope 10, 7
	octave 3
	note C_, 2
	octave 1
	note F_, 2
	octave 3
	volume_envelope 9, 7
	volume_envelope 10, 7
	octave 2
	note A_, 1
	rest 1
	octave 1
	note A_, 2
	octave 2
	volume_envelope 9, 7
	octave 3
	octave 2
	octave 3
	note C_, 1
	rest 1
	octave 1
	volume_envelope 10, 7
	rest 2
	octave 3
	volume_envelope 9, 7
	octave 2
	octave 3
	note C_, 1
	rest 1
	octave 1
	volume_envelope 10, 7
	note A_, 2
	octave 2
	volume_envelope 9, 7
	octave 3
	note C_, 1
	rest 1
	octave 1
	volume_envelope 10, 7
	rest 2
	octave 3
	volume_envelope 9, 7
	octave 2
	volume_envelope 10, 7
	octave 3
	volume_envelope 9, 7
	note C_, 1
	rest 1
	octave 1
	volume_envelope 10, 7
	note A_, 2
	octave 2
	volume_envelope 9, 7
	octave 3
	volume_envelope 10, 7
	octave 2
	note A_, 2
	note C_, 2
	octave 3
	volume_envelope 9, 7
	volume_envelope 10, 7
	octave 2
	note A_, 1
	rest 1
	octave 1
	volume_envelope 11, 7
	note A_, 2
	octave 2
	volume_envelope 10, 7
	octave 3
	octave 2
	note A_, 2
	note D_, 2
	octave 3
	volume_envelope 9, 7
	octave 2
	note A_, 2
	octave 1
	volume_envelope 10, 7
	note A_, 2
	octave 3
	volume_envelope 11, 7
	octave 2
	volume_envelope 10, 7
	octave 3
	note F_, 2
	octave 1
	volume_envelope 9, 7
	note F_, 2
	octave 2
	volume_envelope 10, 7
	octave 3
	volume_envelope 9, 7
	note F_, 2
	octave 1
	volume_envelope 11, 7
	note A_, 2
	octave 2
	volume_envelope 9, 7
	octave 3
	volume_envelope 10, 7
	octave 2
	octave 3
	note F_, 2
	octave 1
	volume_envelope 11, 7
	note C_, 2
	octave 2
	volume_envelope 10, 7
	octave 3
	volume_envelope 9, 7
	note C_, 1
	rest 1
	octave 1
	volume_envelope 10, 7
	note E_, 2
	volume_envelope 9, 7
	octave 2
	volume_envelope 10, 7
	octave 3
	volume_envelope 9, 7
	note E_, 2
	octave 1
	note F_, 2
	octave 3
	volume_envelope 10, 7
	octave 2
	octave 3
	note F_, 1
	rest 1
	octave 1
	volume_envelope 11, 7
	note A_, 2
	octave 2
	volume_envelope 9, 7
	octave 3
	volume_envelope 10, 7
	octave 2
	octave 3
	volume_envelope 9, 7
	note F_, 2
	octave 1
	volume_envelope 10, 7
	note F_, 2
	octave 3
	octave 2
	octave 3
	note F_, 1
	rest 1
	octave 1
	note A_, 2
	octave 2
	volume_envelope 9, 7
	octave 3
	volume_envelope 10, 7
	octave 2
	note A_, 2
	octave 1
	note F_, 2
	octave 2
	octave 3
	note F_, 1
	rest 1
	octave 1
	note A_, 2
	octave 2
	volume_envelope 9, 7
	octave 3
	volume_envelope 11, 7
	octave 2
	volume_envelope 10, 7
	note A_, 1
	rest 1
	octave 1
	rest 2
	octave 3
	octave 2
	note A_, 1
	rest 1
	octave 1
	volume_envelope 11, 7
	note A_, 2
	octave 2
	volume_envelope 10, 7
	octave 3
	octave 2
	note A_, 2
	note C_, 2
	octave 3
	volume_envelope 9, 7
	volume_envelope 10, 7
	octave 2
	note A_, 2
	octave 1
	note A_, 2
	octave 2
	octave 3
	octave 2
	note A_, 2
	note D_, 2
	octave 3
	volume_envelope 11, 7
	volume_envelope 9, 7
	octave 2
	volume_envelope 10, 7
	note A_, 2
	octave 1
	note A_, 2
	volume_envelope 9, 7
	octave 2
	volume_envelope 10, 7
	octave 3
	note F_, 2
	octave 1
	note F_, 2
	octave 3
	octave 2
	note A_, 1
	rest 1
	octave 1
	note A_, 2
	octave 2
	octave 3
	octave 2
	octave 3
	note F_, 2
	octave 1
	note C_, 2
	octave 2
	volume_envelope 9, 7
	octave 3
	octave 2
	volume_envelope 10, 7
	octave 3
	volume_envelope 9, 7
	note E_, 2
	octave 1
	volume_envelope 10, 7
	note E_, 2
	octave 3
	volume_envelope 9, 7
	octave 2
	volume_envelope 10, 7
	note G_, 2
	octave 1
	note F_, 2
	octave 3
	octave 2
	volume_envelope 9, 7
	note A_, 2
	octave 1
	volume_envelope 11, 7
	note A_, 2
	octave 2
	volume_envelope 9, 7
	octave 3
	volume_envelope 10, 7
	octave 2
	octave 3
	note C_, 1
	rest 1
	octave 1
	note F_, 1
	rest 1
	octave 3
	volume_envelope 11, 7
	volume_envelope 9, 7
	octave 2
	octave 5
	volume_envelope 5, 7
	note A_, 1
	volume_envelope 7, 7
	volume_envelope 8, 7
	note F_, 1
	volume_envelope 9, 7
	octave 1
	octave 5
	note C_, 1
	octave 4
	octave 5
	volume_envelope 7, 7
	octave 4
	volume_envelope 9, 7
	note G_, 1
	octave 1
	volume_envelope 10, 7
	octave 3
	octave 2
	volume_envelope 9, 7
	octave 3
	note F_, 1
	octave 4
	octave 3
	note B_, 1
	volume_envelope 8, 7
	volume_envelope 9, 7
	octave 1
	volume_envelope 10, 7
	octave 3
	volume_envelope 9, 7
	volume_envelope 7, 7
	note A_, 1
	volume_envelope 8, 7
	note D_, 1
	octave 1
	octave 3
	octave 2
	volume_envelope 9, 7
	octave 3
	octave 2
	volume_envelope 7, 7
	note B_, 1
	volume_envelope 6, 7
	note G_, 1
	octave 1
	volume_envelope 10, 7
	note A#, 2
	volume_envelope 9, 7
	octave 2
	octave 3
	volume_envelope 10, 7
	volume_envelope 9, 7
	note F_, 2
	octave 1
	volume_envelope 10, 7
	note A#, 2
	volume_envelope 9, 7
	octave 2
	octave 3
	volume_envelope 11, 7
	volume_envelope 9, 7
	note F_, 2
	octave 1
	volume_envelope 10, 7
	note A#, 2
	volume_envelope 9, 7
	octave 2
	octave 3
	volume_envelope 11, 7
	volume_envelope 9, 7
	note F_, 1
	rest 1
	octave 1
	volume_envelope 10, 7
	note A#, 2
	volume_envelope 9, 7
	octave 2
	octave 3
	volume_envelope 11, 7
	note D_, 1
	rest 1
	octave 1
	volume_envelope 10, 7
	note A#, 2
	volume_envelope 9, 7
	octave 2
	octave 3
	volume_envelope 10, 7
	note D_, 1
	rest 1
	octave 1
	note A#, 2
	volume_envelope 8, 7
	octave 2
	volume_envelope 9, 7
	octave 3
	volume_envelope 11, 7
	volume_envelope 9, 7
	note F_, 2
	octave 1
	volume_envelope 10, 7
	note A#, 2
	volume_envelope 9, 7
	octave 3
	octave 2
	volume_envelope 10, 7
	octave 3
	volume_envelope 11, 7
	note D_, 1
	rest 1
	octave 1
	volume_envelope 10, 7
	note F_, 2
	octave 3
	volume_envelope 9, 7
	octave 2
	note A_, 2
	octave 1
	volume_envelope 11, 7
	note A_, 1
	rest 1
	octave 2
	volume_envelope 9, 7
	octave 3
	volume_envelope 10, 7
	octave 2
	octave 3
	note C_, 2
	octave 1
	note F_, 1
	rest 1
	volume_envelope 9, 7
	octave 3
	octave 2
	octave 3
	note C_, 2
	octave 1
	volume_envelope 10, 7
	note A_, 1
	rest 1
	octave 2
	volume_envelope 9, 7
	octave 3
	volume_envelope 10, 7
	octave 2
	octave 3
	note C_, 2
	octave 1
	note F_, 2
	octave 3
	volume_envelope 9, 7
	octave 2
	octave 3
	note F_, 2
	octave 1
	volume_envelope 10, 7
	note A_, 1
	rest 1
	octave 2
	octave 3
	octave 2
	volume_envelope 9, 7
	octave 3
	note F_, 1
	rest 1
	octave 1
	volume_envelope 10, 7
	note F_, 1
	rest 1
	octave 3
	volume_envelope 9, 7
	octave 2
	octave 3
	note F_, 2
	octave 1
	volume_envelope 10, 7
	note G_, 2
	octave 3
	octave 2
	volume_envelope 9, 7
	octave 3
	note C_, 2
	octave 1
	note A#, 2
	octave 3
	volume_envelope 10, 7
	octave 2
	volume_envelope 9, 7
	octave 3
	note F_, 2
	octave 1
	volume_envelope 10, 7
	note A#, 2
	volume_envelope 9, 7
	octave 2
	octave 3
	volume_envelope 10, 7
	volume_envelope 9, 7
	note F_, 2
	octave 1
	volume_envelope 10, 7
	note A#, 2
	volume_envelope 9, 7
	octave 2
	octave 3
	volume_envelope 10, 7
	volume_envelope 9, 7
	note F_, 2
	octave 1
	volume_envelope 10, 7
	note A#, 2
	volume_envelope 8, 7
	octave 3
	volume_envelope 10, 7
	octave 2
	volume_envelope 9, 7
	octave 3
	note F_, 2
	octave 1
	volume_envelope 10, 7
	note A#, 2
	volume_envelope 8, 7
	octave 2
	volume_envelope 9, 7
	octave 3
	volume_envelope 10, 7
	note D_, 2
	octave 1
	note A#, 2
	volume_envelope 8, 7
	octave 2
	volume_envelope 9, 7
	octave 3
	volume_envelope 11, 7
	volume_envelope 9, 7
	note F_, 2
	octave 1
	volume_envelope 10, 7
	note A#, 2
	volume_envelope 9, 7
	octave 3
	volume_envelope 11, 7
	octave 2
	volume_envelope 9, 7
	note A#, 2
	octave 1
	volume_envelope 11, 7
	note A#, 1
	rest 1
	volume_envelope 10, 7
	octave 3
	volume_envelope 9, 7
	octave 2
	octave 3
	note F_, 2
	octave 2
	volume_envelope 10, 7
	note C_, 2
	volume_envelope 7, 7
	volume_envelope 11, 7
	octave 3
	volume_envelope 9, 7
	volume_envelope 10, 7
	note C_, 2
	rest 2
	octave 2
	volume_envelope 9, 7
	octave 3
	volume_envelope 10, 7
	octave 2
	volume_envelope 11, 7
	note G_, 3
	rest 1
	volume_envelope 9, 7
	octave 3
	octave 2
	volume_envelope 10, 7
	note G_, 3
	rest 1
	volume_envelope 9, 7
	octave 3
	octave 2
	volume_envelope 10, 7
	note G_, 3
	rest 1
	volume_envelope 9, 7
	volume_envelope 10, 7
	volume_envelope 9, 7
	octave 3
	volume_envelope 8, 7
	volume_envelope 9, 7
	note C_, 3
	rest 1
	octave 2
	octave 3
	octave 2
	volume_envelope 10, 7
	note G_, 3
	rest 1
	octave 1
	note A#, 2
	volume_envelope 9, 7
	note A_, 1
	rest 1
	volume_envelope 10, 7
	note G_, 2
	note F_, 2
	octave 3
	volume_envelope 9, 7
	octave 2
	note A_, 1
	rest 1
	octave 1
	volume_envelope 10, 7
	note A_, 2
	octave 2
	volume_envelope 9, 7
	octave 3
	octave 2
	volume_envelope 10, 7
	octave 3
	note C_, 1
	rest 1
	octave 1
	volume_envelope 9, 7
	note F_, 2
	octave 2
	volume_envelope 10, 7
	octave 3
	note C_, 1
	rest 1
	octave 1
	note A_, 2
	octave 2
	volume_envelope 9, 7
	octave 3
	volume_envelope 10, 7
	volume_envelope 9, 7
	octave 2
	volume_envelope 10, 7
	note A_, 1
	rest 1
	octave 1
	note C_, 2
	octave 2
	volume_envelope 9, 7
	octave 3
	octave 2
	volume_envelope 10, 7
	note G_, 1
	rest 1
	octave 1
	note E_, 2
	volume_envelope 9, 7
	octave 2
	octave 3
	volume_envelope 8, 7
	note C_, 2
	octave 1
	volume_envelope 10, 7
	note C_, 2
	octave 2
	volume_envelope 9, 7
	volume_envelope 10, 7
	octave 3
	volume_envelope 9, 7
	note C_, 1
	rest 1
	octave 1
	volume_envelope 10, 7
	note E_, 2
	volume_envelope 9, 7
	octave 3
	volume_envelope 8, 7
	octave 2
	volume_envelope 9, 7
	volume_envelope 10, 7
	octave 3
	volume_envelope 9, 7
	note C_, 2
	octave 1
	volume_envelope 10, 7
	note C_, 2
	octave 3
	volume_envelope 8, 7
	octave 2
	volume_envelope 10, 7
	octave 3
	volume_envelope 9, 7
	note C_, 1
	rest 1
	octave 1
	volume_envelope 10, 7
	note E_, 2
	volume_envelope 9, 7
	octave 2
	volume_envelope 10, 7
	octave 3
	volume_envelope 9, 7
	note E_, 2
	octave 1
	volume_envelope 10, 7
	note C_, 2
	octave 3
	volume_envelope 9, 7
	octave 2
	volume_envelope 10, 7
	volume_envelope 9, 7
	octave 3
	note C_, 1
	rest 1
	octave 1
	volume_envelope 10, 7
	note E_, 2
	volume_envelope 9, 7
	octave 3
	octave 2
	volume_envelope 10, 7
	volume_envelope 11, 7
	octave 3
	volume_envelope 9, 7
	note E_, 1
	rest 1
	octave 1
	volume_envelope 10, 7
	note F_, 2
	octave 3
	volume_envelope 9, 7
	volume_envelope 10, 7
	octave 2
	note A_, 1
	rest 1
	octave 1
	note A_, 2
	octave 2
	volume_envelope 9, 7
	octave 3
	octave 2
	note A_, 2
	octave 1
	note F_, 2
	octave 3
	volume_envelope 10, 7
	octave 2
	note A_, 1
	rest 1
	octave 1
	note A_, 2
	octave 2
	octave 3
	volume_envelope 9, 7
	octave 2
	octave 3
	note F_, 2
	octave 1
	volume_envelope 10, 7
	note F_, 2
	octave 3
	volume_envelope 9, 7
	octave 2
	octave 3
	note C_, 1
	rest 1
	octave 1
	volume_envelope 10, 7
	note A_, 2
	octave 2
	octave 3
	volume_envelope 9, 7
	volume_envelope 10, 7
	octave 2
	volume_envelope 9, 7
	note A_, 2
	octave 1
	volume_envelope 10, 7
	note F_, 2
	octave 3
	volume_envelope 9, 7
	octave 2
	volume_envelope 10, 7
	note A_, 2
	octave 1
	note A_, 1
	rest 1
	octave 2
	octave 3
	volume_envelope 9, 7
	octave 2
	octave 3
	volume_envelope 8, 7
	note D#, 1
	rest 1
	octave 1
	volume_envelope 10, 7
	note A#, 2
	octave 3
	volume_envelope 8, 7
	octave 2
	volume_envelope 9, 7
	note A#, 2
	volume_envelope 10, 7
	note D_, 2
	octave 3
	octave 2
	volume_envelope 9, 7
	octave 3
	note F_, 2
	octave 1
	volume_envelope 10, 7
	note A#, 2
	octave 3
	octave 2
	volume_envelope 9, 7
	octave 3
	note F_, 1
	rest 1
	octave 2
	note D_, 2
	octave 3
	volume_envelope 10, 7
	volume_envelope 9, 7
	note F_, 2
	octave 1
	volume_envelope 10, 7
	note F_, 2
	octave 3
	volume_envelope 9, 7
	octave 2
	octave 3
	volume_envelope 10, 7
	note C_, 2
	octave 1
	note A_, 2
	octave 2
	octave 3
	volume_envelope 9, 7
	volume_envelope 10, 7
	octave 2
	note A_, 2
	octave 1
	note C_, 2
	octave 3
	volume_envelope 9, 7
	volume_envelope 8, 7
	octave 2
	volume_envelope 9, 7
	note A#, 2
	octave 1
	volume_envelope 10, 7
	note E_, 2
	volume_envelope 9, 7
	octave 2
	volume_envelope 10, 7
	octave 3
	volume_envelope 9, 7
	octave 2
	volume_envelope 10, 7
	octave 3
	volume_envelope 9, 7
	note E_, 2
	octave 1
	note F_, 2
	octave 3
	volume_envelope 8, 7
	octave 2
	volume_envelope 9, 7
	note A_, 2
	octave 1
	volume_envelope 10, 7
	note A_, 2
	octave 2
	volume_envelope 9, 7
	octave 3
	note F_, 2
	octave 1
	note F_, 2
	octave 3
	octave 2
	octave 3
	note F_, 2
	octave 1
	volume_envelope 10, 7
	note A_, 2
	octave 2
	volume_envelope 9, 7
	octave 3
	octave 2
	octave 3
	note F_, 2
	octave 1
	note F_, 2
	octave 3
	octave 2
	note A_, 2
	octave 1
	volume_envelope 10, 7
	note A_, 2
	octave 2
	volume_envelope 9, 7
	octave 3
	octave 2
	octave 3
	note C_, 2
	octave 1
	note F_, 2
	octave 3
	octave 2
	octave 3
	note C_, 2
	octave 1
	volume_envelope 11, 7
	note A_, 1
	rest 1
	octave 2
	volume_envelope 9, 7
	octave 3
	octave 2
	volume_envelope 10, 7
	octave 3
	volume_envelope 9, 7
	note C_, 1
	rest 1
	octave 2
	volume_envelope 10, 7
	note C_, 2
	octave 3
	volume_envelope 9, 7
	volume_envelope 10, 7
	octave 2
	volume_envelope 9, 7
	note A_, 2
	octave 1
	volume_envelope 10, 7
	note A_, 1
	rest 1
	octave 2
	octave 3
	octave 2
	note A_, 2
	note D_, 2
	octave 3
	octave 2
	volume_envelope 9, 7
	octave 3
	note F_, 2
	octave 1
	volume_envelope 11, 7
	note A_, 2
	volume_envelope 10, 7
	octave 3
	octave 2
	octave 3
	note F_, 2
	octave 1
	note F_, 2
	octave 3
	volume_envelope 9, 7
	octave 2
	octave 3
	note C_, 1
	rest 1
	octave 1
	volume_envelope 10, 7
	note A_, 2
	octave 2
	octave 3
	volume_envelope 9, 7
	octave 2
	octave 3
	note C_, 2
	octave 1
	volume_envelope 10, 7
	note C_, 2
	octave 3
	volume_envelope 9, 7
	octave 2
	volume_envelope 10, 7
	octave 3
	volume_envelope 9, 7
	octave 2
	volume_envelope 8, 7
	note A#, 2
	octave 1
	volume_envelope 10, 7
	note E_, 1
	rest 1
	octave 2
	volume_envelope 9, 7
	volume_envelope 10, 7
	octave 3
	volume_envelope 9, 7
	note C_, 2
	octave 1
	volume_envelope 10, 7
	note F_, 2
	octave 2
	volume_envelope 9, 7
	octave 3
	note C_, 2
	octave 1
	volume_envelope 10, 7
	note A_, 1
	rest 1
	octave 2
	octave 3
	volume_envelope 9, 7
	octave 2
	volume_envelope 10, 7
	note A_, 1
	rest 1
	octave 1
	volume_envelope 9, 7
	note F_, 2
	octave 3
	octave 2
	octave 3
	note C_, 2
	octave 1
	volume_envelope 10, 7
	note A_, 1
	rest 1
	octave 2
	volume_envelope 9, 7
	octave 3
	octave 2
	octave 3
	note C_, 2
	octave 1
	volume_envelope 10, 7
	note F_, 2
	octave 2
	volume_envelope 9, 7
	octave 3
	note C_, 2
	octave 1
	volume_envelope 10, 7
	note A_, 1
	rest 1
	octave 2
	volume_envelope 9, 7
	octave 3
	note C_, 2
	octave 1
	note F_, 2
	octave 3
	octave 2
	note A_, 2
	octave 1
	volume_envelope 11, 7
	note A_, 1
	rest 1
	octave 2
	volume_envelope 9, 7
	octave 3
	volume_envelope 10, 7
	octave 2
	note A_, 1
	rest 1
	note C_, 2
	octave 3
	volume_envelope 9, 7
	volume_envelope 10, 7
	octave 2
	volume_envelope 9, 7
	note A_, 2
	octave 1
	volume_envelope 10, 7
	note A_, 1
	rest 1
	octave 2
	octave 3
	volume_envelope 9, 7
	octave 2
	note A_, 2
	volume_envelope 10, 7
	note D_, 2
	octave 3
	volume_envelope 9, 7
	octave 2
	volume_envelope 10, 7
	octave 3
	volume_envelope 9, 7
	note D_, 2
	octave 1
	volume_envelope 10, 7
	note A_, 2
	octave 3
	volume_envelope 9, 7
	octave 2
	octave 3
	note F_, 2
	octave 1
	volume_envelope 10, 7
	note F_, 2
	octave 3
	volume_envelope 9, 7
	octave 2
	note A_, 2
	octave 1
	volume_envelope 11, 7
	note A_, 1
	rest 1
	octave 2
	octave 3
	volume_envelope 9, 7
	octave 2
	octave 3
	note F_, 2
	octave 1
	volume_envelope 11, 7
	note C_, 2
	octave 3
	volume_envelope 9, 7
	octave 2
	volume_envelope 10, 7
	octave 3
	volume_envelope 9, 7
	octave 2
	note A#, 2
	octave 1
	volume_envelope 10, 7
	note E_, 1
	rest 1
	octave 3
	volume_envelope 9, 7
	volume_envelope 8, 7
	octave 2
	volume_envelope 9, 7
	note G_, 1
	rest 1
	octave 1
	note F_, 2
	octave 3
	octave 2
	note A_, 2
	octave 1
	volume_envelope 10, 7
	note A_, 1
	rest 1
	octave 2
	octave 3
	volume_envelope 9, 7
	octave 2
	octave 3
	note C_, 2
	octave 5
	volume_envelope 6, 7
	volume_envelope 7, 7
	octave 1
	volume_envelope 9, 7
	octave 5
	volume_envelope 8, 7
	volume_envelope 9, 7
	note F_, 1
	volume_envelope 8, 7
	volume_envelope 9, 7
	note D_, 1
	octave 1
	octave 2
	octave 3
	volume_envelope 10, 7
	octave 4
	volume_envelope 9, 7
	octave 5
	volume_envelope 8, 7
	note D_, 1
	octave 4
	volume_envelope 9, 7
	volume_envelope 8, 7
	note A_, 1
	volume_envelope 9, 7
	octave 1
	volume_envelope 10, 7
	octave 4
	volume_envelope 9, 7
	volume_envelope 8, 7
	note C_, 1
	octave 3
	volume_envelope 9, 7
	octave 4
	volume_envelope 7, 7
	octave 3
	volume_envelope 8, 7
	note A_, 1
	volume_envelope 9, 7
	volume_envelope 8, 7
	octave 1
	volume_envelope 10, 7
	octave 3
	volume_envelope 11, 7
	volume_envelope 10, 7
	octave 2
	volume_envelope 9, 7
	octave 3
	volume_envelope 7, 7
	note E_, 1
	note C_, 1
	octave 2
	octave 1
	volume_envelope 10, 7
	octave 2
	volume_envelope 6, 7
	note A_, 2
	octave 1
	volume_envelope 8, 7
	octave 2
	volume_envelope 9, 7
	octave 3
	volume_envelope 8, 7
	note F_, 1
	rest 1
	octave 1
	volume_envelope 9, 7
	note A#, 2
	octave 2
	octave 3
	volume_envelope 10, 7
	note D_, 1
	rest 1
	octave 1
	note A#, 2
	volume_envelope 8, 7
	octave 3
	volume_envelope 9, 7
	octave 2
	octave 3
	volume_envelope 10, 7
	note D_, 2
	octave 1
	note A#, 2
	volume_envelope 9, 7
	octave 3
	volume_envelope 8, 7
	volume_envelope 10, 7
	octave 2
	volume_envelope 9, 7
	note A#, 2
	octave 1
	volume_envelope 10, 7
	note A#, 2
	volume_envelope 9, 7
	octave 3
	volume_envelope 10, 7
	octave 2
	volume_envelope 9, 7
	note A#, 1
	rest 1
	octave 1
	volume_envelope 10, 7
	note A#, 2
	volume_envelope 9, 7
	octave 3
	volume_envelope 10, 7
	volume_envelope 9, 7
	octave 2
	note A#, 1
	rest 1
	octave 1
	volume_envelope 10, 7
	note A#, 2
	volume_envelope 8, 7
	octave 3
	volume_envelope 9, 7
	octave 2
	octave 3
	volume_envelope 10, 7
	note D_, 1
	rest 1
	octave 1
	volume_envelope 11, 7
	note A#, 2
	octave 2
	volume_envelope 9, 7
	octave 3
	volume_envelope 10, 7
	octave 2
	volume_envelope 9, 7
	note A#, 1
	rest 1
	octave 1
	note F_, 1
	rest 1
	octave 3
	octave 2
	volume_envelope 10, 7
	note A_, 2
	octave 1
	note A_, 2
	octave 2
	octave 3
	volume_envelope 9, 7
	octave 2
	volume_envelope 10, 7
	octave 3
	volume_envelope 9, 7
	note C_, 2
	octave 1
	volume_envelope 10, 7
	note F_, 1
	rest 1
	volume_envelope 9, 7
	octave 3
	volume_envelope 10, 7
	octave 2
	octave 3
	note C_, 2
	octave 1
	volume_envelope 11, 7
	note A_, 2
	octave 2
	volume_envelope 10, 7
	octave 3
	volume_envelope 9, 7
	octave 2
	note A_, 2
	octave 1
	volume_envelope 10, 7
	note F_, 1
	rest 1
	volume_envelope 9, 7
	octave 3
	volume_envelope 10, 7
	octave 2
	volume_envelope 9, 7
	octave 3
	note C_, 2
	octave 1
	volume_envelope 10, 7
	note A_, 2
	octave 2
	octave 3
	octave 2
	volume_envelope 9, 7
	octave 3
	note F_, 2
	octave 1
	volume_envelope 10, 7
	note F_, 1
	rest 1
	volume_envelope 9, 7
	octave 3
	volume_envelope 11, 7
	volume_envelope 9, 7
	octave 2
	octave 3
	volume_envelope 8, 7
	note F_, 2
	octave 1
	volume_envelope 10, 7
	note G_, 2
	volume_envelope 9, 7
	octave 3
	volume_envelope 10, 7
	volume_envelope 9, 7
	octave 2
	octave 3
	note F_, 2
	octave 1
	volume_envelope 10, 7
	note A#, 2
	volume_envelope 9, 7
	octave 2
	volume_envelope 10, 7
	octave 3
	volume_envelope 9, 7
	note D_, 2
	octave 1
	volume_envelope 10, 7
	note A#, 2
	volume_envelope 9, 7
	octave 2
	octave 3
	volume_envelope 10, 7
	volume_envelope 9, 7
	note F_, 1
	rest 1
	octave 1
	volume_envelope 10, 7
	note A#, 2
	volume_envelope 9, 7
	octave 2
	octave 3
	volume_envelope 10, 7
	volume_envelope 9, 7
	note F_, 1
	rest 1
	octave 1
	volume_envelope 11, 7
	note A#, 2
	volume_envelope 9, 7
	octave 2
	octave 3
	volume_envelope 8, 7
	note F_, 2
	octave 1
	volume_envelope 11, 7
	note A#, 2
	volume_envelope 9, 7
	octave 3
	volume_envelope 8, 7
	octave 2
	volume_envelope 9, 7
	octave 3
	volume_envelope 10, 7
	note D_, 2
	octave 1
	note A#, 2
	volume_envelope 8, 7
	octave 2
	volume_envelope 9, 7
	octave 3
	volume_envelope 8, 7
	volume_envelope 9, 7
	note D_, 1
	rest 1
	octave 1
	volume_envelope 10, 7
	note A#, 2
	volume_envelope 9, 7
	octave 3
	volume_envelope 11, 7
	octave 2
	volume_envelope 9, 7
	octave 3
	note F_, 1
	rest 1
	octave 1
	note A#, 2
	octave 2
	octave 3
	note F_, 1
	rest 1
	octave 2
	volume_envelope 10, 7
	octave 3
	volume_envelope 8, 7
	volume_envelope 9, 7
	octave 2
	note G_, 1
	rest 1
	volume_envelope 11, 7
	octave 3
	volume_envelope 10, 7
	volume_envelope 9, 7
	octave 2
	volume_envelope 10, 7
	note G_, 3
	rest 1
	volume_envelope 11, 7
	octave 3
	volume_envelope 8, 7
	volume_envelope 9, 7
	octave 2
	volume_envelope 10, 7
	note G_, 3
	rest 1
	octave 3
	volume_envelope 9, 7
	octave 2
	volume_envelope 10, 7
	note G_, 3
	rest 1
	volume_envelope 11, 7
	octave 3
	volume_envelope 9, 7
	octave 2
	volume_envelope 10, 7
	octave 3
	volume_envelope 9, 7
	note E_, 2
	rest 2
	octave 2
	volume_envelope 10, 7
	volume_envelope 9, 7
	octave 3
	octave 2
	volume_envelope 10, 7
	note G_, 2
	rest 2
	octave 3
	volume_envelope 9, 7
	octave 2
	volume_envelope 10, 7
	volume_envelope 11, 7
	octave 3
	volume_envelope 10, 7
	note C_, 1
	rest 1
	octave 2
	volume_envelope 11, 7
	note C_, 2
	octave 1
	volume_envelope 9, 7
	octave 2
	octave 3
	octave 2
	octave 3
	note C_, 2
	octave 1
	volume_envelope 10, 7
	note A_, 2
	note G_, 2
	volume_envelope 11, 7
	rest 2
	octave 3
	volume_envelope 9, 7
	volume_envelope 10, 7
	octave 2
	note A_, 1
	rest 1
	octave 1
	note A_, 1
	rest 1
	octave 2
	octave 3
	octave 2
	octave 3
	note C_, 1
	rest 1
	octave 1
	volume_envelope 9, 7
	note F_, 2
	octave 3
	octave 2
	volume_envelope 10, 7
	octave 3
	volume_envelope 9, 7
	note C_, 2
	octave 1
	volume_envelope 10, 7
	note A_, 1
	rest 1
	octave 2
	volume_envelope 11, 7
	octave 3
	volume_envelope 10, 7
	octave 2
	volume_envelope 9, 7
	note A_, 2
	octave 1
	volume_envelope 11, 7
	note C_, 2
	octave 3
	volume_envelope 9, 7
	octave 2
	volume_envelope 10, 7
	octave 3
	volume_envelope 9, 7
	octave 2
	note A#, 2
	octave 1
	volume_envelope 11, 7
	note E_, 1
	rest 1
	volume_envelope 10, 7
	octave 2
	volume_envelope 9, 7
	octave 3
	octave 2
	octave 3
	note E_, 2
	octave 1
	volume_envelope 10, 7
	note C_, 2
	octave 2
	volume_envelope 9, 7
	octave 3
	octave 2
	volume_envelope 10, 7
	octave 3
	volume_envelope 8, 7
	note E_, 1
	rest 1
	octave 1
	volume_envelope 10, 7
	note E_, 2
	octave 2
	octave 3
	volume_envelope 9, 7
	octave 2
	volume_envelope 10, 7
	note G_, 2
	octave 1
	note C_, 2
	octave 2
	octave 3
	volume_envelope 8, 7
	octave 2
	volume_envelope 10, 7
	octave 3
	volume_envelope 9, 7
	note C_, 2
	octave 1
	volume_envelope 11, 7
	note E_, 1
	rest 1
	volume_envelope 10, 7
	octave 2
	octave 3
	volume_envelope 8, 7
	volume_envelope 9, 7
	octave 2
	volume_envelope 10, 7
	note G_, 1
	rest 1
	octave 1
	volume_envelope 11, 7
	note C_, 2
	octave 2
	volume_envelope 9, 7
	octave 3
	volume_envelope 8, 7
	octave 2
	volume_envelope 10, 7
	octave 3
	volume_envelope 9, 7
	note C_, 2
	octave 1
	volume_envelope 11, 7
	note E_, 1
	rest 1
	volume_envelope 10, 7
	octave 2
	octave 3
	volume_envelope 8, 7
	volume_envelope 9, 7
	octave 2
	volume_envelope 10, 7
	note G_, 2
	octave 3
	volume_envelope 11, 7
	octave 1
	volume_envelope 10, 7
	note F_, 2
	octave 3
	volume_envelope 9, 7
	octave 2
	octave 3
	volume_envelope 11, 7
	note A_, 1
	octave 4
	note C_, 1
	octave 1
	volume_envelope 10, 7
	note A_, 1
	octave 3
	volume_envelope 11, 7
	note A_, 1
	volume_envelope 10, 7
	octave 2
	octave 3
	volume_envelope 9, 7
	octave 2
	octave 3
	note F_, 1
	rest 1
	octave 1
	octave 4
	volume_envelope 11, 7
	note F_, 2
	octave 3
	volume_envelope 9, 7
	octave 2
	octave 3
	octave 4
	volume_envelope 11, 7
	note A_, 1
	octave 5
	note C_, 1
	octave 1
	note A_, 1
	octave 4
	note A_, 1
	octave 2
	volume_envelope 10, 7
	octave 3
	volume_envelope 9, 7
	octave 2
	octave 4
	volume_envelope 11, 7
	note F_, 2
	octave 1
	volume_envelope 10, 7
	note F_, 2
	octave 3
	volume_envelope 9, 7
	octave 2
	note A_, 2
	octave 1
	volume_envelope 11, 7
	note A_, 1
	rest 1
	octave 2
	volume_envelope 10, 7
	octave 3
	volume_envelope 9, 7
	octave 2
	octave 3
	note F_, 1
	rest 1
	octave 1
	note F_, 2
	octave 3
	volume_envelope 10, 7
	volume_envelope 9, 7
	octave 2
	octave 3
	volume_envelope 8, 7
	note C_, 2
	octave 1
	volume_envelope 10, 7
	note A_, 1
	rest 1
	octave 2
	octave 3
	volume_envelope 9, 7
	octave 2
	octave 3
	note F_, 1
	rest 1
	octave 1
	volume_envelope 11, 7
	note A#, 2
	octave 3
	volume_envelope 9, 7
	octave 2
	octave 3
	volume_envelope 10, 7
	octave 4
	volume_envelope 11, 7
	note D_, 1
	note F_, 1
	octave 2
	volume_envelope 10, 7
	note D_, 1
	octave 4
	volume_envelope 11, 7
	note D_, 1
	octave 2
	volume_envelope 9, 7
	octave 3
	volume_envelope 10, 7
	octave 2
	volume_envelope 9, 7
	octave 3
	volume_envelope 11, 7
	note A#, 2
	octave 1
	volume_envelope 10, 7
	octave 4
	volume_envelope 11, 7
	note A#, 2
	octave 5
	volume_envelope 10, 7
	octave 2
	octave 3
	volume_envelope 11, 7
	volume_envelope 9, 7
	note F_, 1
	octave 5
	volume_envelope 10, 7
	note F_, 1
	octave 2
	note D_, 1
	octave 5
	note D_, 1
	octave 2
	volume_envelope 9, 7
	octave 3
	volume_envelope 10, 7
	volume_envelope 9, 7
	octave 4
	volume_envelope 11, 7
	note A#, 1
	rest 1
	octave 1
	volume_envelope 10, 7
	note F_, 2
	octave 2
	octave 3
	note F_, 2
	octave 1
	note A_, 1
	rest 1
	octave 2
	octave 3
	octave 2
	volume_envelope 9, 7
	note A_, 1
	rest 1
	octave 1
	volume_envelope 10, 7
	note C_, 2
	octave 2
	volume_envelope 9, 7
	octave 3
	volume_envelope 8, 7
	volume_envelope 9, 7
	octave 2
	volume_envelope 10, 7
	note G_, 2
	octave 1
	note E_, 1
	rest 1
	octave 2
	volume_envelope 9, 7
	octave 3
	octave 2
	volume_envelope 10, 7
	note G_, 1
	rest 1
	octave 1
	volume_envelope 9, 7
	note F_, 2
	octave 3
	volume_envelope 10, 7
	octave 2
	volume_envelope 9, 7
	octave 3
	note F_, 2
	octave 1
	volume_envelope 10, 7
	note A_, 1
	rest 1
	octave 2
	octave 3
	volume_envelope 9, 7
	octave 2
	octave 3
	note F_, 1
	rest 1
	octave 1
	note F_, 2
	octave 3
	volume_envelope 10, 7
	octave 2
	volume_envelope 9, 7
	note A_, 2
	octave 1
	volume_envelope 11, 7
	note A_, 1
	rest 1
	octave 2
	volume_envelope 9, 7
	octave 3
	octave 2
	note A_, 1
	rest 1
	octave 1
	note F_, 2
	octave 3
	volume_envelope 10, 7
	volume_envelope 9, 7
	octave 2
	note A_, 2
	octave 1
	volume_envelope 10, 7
	note A_, 1
	rest 1
	octave 2
	octave 3
	octave 2
	volume_envelope 9, 7
	octave 3
	note F_, 1
	rest 1
	octave 1
	note F_, 2
	octave 3
	volume_envelope 10, 7
	octave 2
	volume_envelope 9, 7
	note A_, 2
	octave 1
	volume_envelope 10, 7
	note A_, 1
	rest 1
	octave 2
	volume_envelope 9, 7
	octave 3
	octave 2
	octave 3
	note F_, 1
	rest 1
	octave 2
	volume_envelope 10, 7
	note C_, 2
	octave 3
	volume_envelope 9, 7
	volume_envelope 10, 7
	octave 2
	volume_envelope 9, 7
	note A_, 2
	octave 1
	volume_envelope 10, 7
	note A_, 1
	rest 1
	octave 2
	volume_envelope 11, 7
	octave 3
	volume_envelope 10, 7
	octave 2
	volume_envelope 9, 7
	note A_, 1
	rest 1
	volume_envelope 10, 7
	note D_, 2
	octave 3
	volume_envelope 9, 7
	octave 2
	volume_envelope 10, 7
	note A_, 2
	octave 1
	note A_, 1
	rest 1
	octave 3
	volume_envelope 9, 7
	volume_envelope 11, 7
	octave 2
	volume_envelope 10, 7
	note A_, 1
	rest 1
	octave 1
	volume_envelope 11, 7
	note F_, 2
	octave 3
	volume_envelope 10, 7
	octave 2
	octave 3
	volume_envelope 9, 7
	note F_, 2
	octave 1
	volume_envelope 10, 7
	note A_, 1
	rest 1
	octave 2
	volume_envelope 11, 7
	octave 3
	volume_envelope 10, 7
	volume_envelope 9, 7
	octave 2
	note A_, 1
	rest 1
	octave 1
	note C_, 2
	octave 2
	volume_envelope 10, 7
	octave 3
	volume_envelope 9, 7
	octave 2
	volume_envelope 10, 7
	octave 3
	volume_envelope 9, 7
	note E_, 2
	octave 1
	volume_envelope 10, 7
	note E_, 1
	rest 1
	octave 2
	volume_envelope 9, 7
	octave 3
	volume_envelope 8, 7
	volume_envelope 9, 7
	note C_, 1
	rest 1
	octave 1
	note F_, 2
	octave 3
	octave 2
	note A_, 2
	octave 1
	volume_envelope 10, 7
	note A_, 1
	rest 1
	octave 2
	octave 3
	volume_envelope 9, 7
	octave 2
	volume_envelope 8, 7
	note A_, 1
	rest 1
	octave 1
	volume_envelope 9, 7
	note F_, 2
	octave 2
	octave 3
	note F_, 2
	octave 1
	volume_envelope 11, 7
	note A_, 1
	rest 1
	octave 2
	volume_envelope 10, 7
	volume_envelope 9, 7
	octave 3
	volume_envelope 8, 7
	volume_envelope 9, 7
	note C_, 1
	rest 1
	octave 1
	volume_envelope 10, 7
	note F_, 2
	octave 3
	volume_envelope 9, 7
	octave 2
	note A_, 2
	octave 1
	volume_envelope 10, 7
	note A_, 1
	rest 1
	octave 2
	octave 3
	volume_envelope 9, 7
	octave 2
	note A_, 1
	rest 1
	octave 1
	note F_, 2
	octave 3
	octave 2
	octave 3
	note C_, 2
	octave 1
	volume_envelope 11, 7
	note A_, 1
	rest 1
	octave 2
	volume_envelope 10, 7
	octave 3
	volume_envelope 9, 7
	octave 2
	note A_, 1
	rest 1
	volume_envelope 10, 7
	note C_, 2
	octave 3
	volume_envelope 9, 7
	octave 2
	octave 3
	volume_envelope 10, 7
	note C_, 2
	octave 1
	note A_, 2
	octave 2
	volume_envelope 9, 7
	octave 3
	note E_, 2
	octave 2
	note D_, 2
	octave 3
	volume_envelope 10, 7
	octave 2
	volume_envelope 9, 7
	octave 3
	note F_, 2
	octave 1
	volume_envelope 10, 7
	note A_, 2
	octave 3
	volume_envelope 11, 7
	volume_envelope 9, 7
	octave 2
	note A_, 1
	rest 1
	octave 1
	volume_envelope 10, 7
	note F_, 2
	octave 3
	volume_envelope 9, 7
	octave 2
	note A_, 2
	octave 1
	volume_envelope 11, 7
	note A_, 1
	rest 1
	octave 2
	octave 3
	volume_envelope 9, 7
	octave 2
	volume_envelope 10, 7
	note A_, 1
	rest 1
	octave 1
	volume_envelope 11, 7
	note C_, 2
	octave 3
	volume_envelope 9, 7
	octave 2
	volume_envelope 8, 7
	note F_, 2
	octave 1
	volume_envelope 10, 7
	note E_, 2
	octave 3
	volume_envelope 9, 7
	volume_envelope 10, 7
	octave 2
	volume_envelope 11, 7
	note G_, 1
	rest 1
	octave 1
	note D_, 2
	octave 3
	volume_envelope 9, 7
	volume_envelope 10, 7
	octave 2
	note A_, 1
	rest 1
	octave 1
	volume_envelope 11, 7
	note A_, 2
	octave 3
	volume_envelope 9, 7
	octave 2
	volume_envelope 10, 7
	note A_, 1
	rest 1
	note D_, 2
	octave 3
	volume_envelope 11, 7
	volume_envelope 10, 7
	octave 2
	note A_, 2
	octave 1
	note A_, 2
	octave 3
	volume_envelope 11, 7
	volume_envelope 10, 7
	octave 2
	note A_, 1
	rest 1
	note D_, 2
	octave 3
	volume_envelope 9, 7
	volume_envelope 10, 7
	octave 2
	note A_, 1
	rest 1
	octave 1
	note A_, 2
	octave 3
	volume_envelope 11, 7
	volume_envelope 9, 7
	octave 2
	volume_envelope 10, 7
	note A_, 1
	rest 1
	note D_, 2
	octave 3
	volume_envelope 11, 7
	octave 2
	volume_envelope 10, 7
	octave 3
	volume_envelope 9, 7
	note F_, 2
	octave 1
	volume_envelope 11, 7
	note A_, 2
	octave 3
	octave 2
	volume_envelope 10, 7
	octave 3
	note F_, 2
	octave 2
	volume_envelope 11, 7
	note C_, 1
	rest 1
	octave 1
	octave 3
	octave 2
	octave 3
	volume_envelope 9, 7
	note E_, 1
	rest 1
	octave 1
	volume_envelope 11, 7
	note A_, 1
	rest 1
	octave 3
	volume_envelope 9, 7
	octave 2
	octave 3
	octave 2
	volume_envelope 10, 7
	note G_, 1
	rest 1
	octave 1
	volume_envelope 11, 7
	octave 2
	octave 3
	volume_envelope 10, 7
	note F_, 1
	rest 3
	octave 1
	volume_envelope 11, 7
	octave 2
	note F_, 5
	sound_loop 0, .mainloop

Music_Obla_Ch3:
	note_type 12, 1, 0
	volume_envelope 1, 0
.mainloop
	rest 16
	rest 16
	rest 16
	rest 16
	rest 16
	rest 16
	rest 16
	rest 16
	rest 16
	rest 16
	rest 16
	octave 3
	volume_envelope 2, 0
	octave 4
	note F_, 1
	rest 1
	octave 3
	octave 4
	note F_, 2
	octave 3
	note A_, 2
	octave 4
	octave 3
	note A_, 2
	octave 4
	octave 3
	note A_, 2
	octave 4
	octave 3
	note A_, 2
	octave 4
	octave 3
	octave 4
	note F_, 2
	octave 3
	octave 4
	note F_, 2
	octave 3
	volume_envelope 1, 0
	octave 4
	volume_envelope 2, 0
	note F_, 6
	octave 3
	octave 4
	note F_, 5
	rest 3
	note A_, 2
	rest 2
	note G_, 2
	note F_, 1
	rest 1
	note G_, 1
	rest 1
	note F_, 1
	rest 1
	note E_, 3
	rest 1
	octave 3
	note A_, 9
	rest 9
	octave 4
	octave 3
	note A_, 1
	rest 1
	octave 4
	note F_, 1
	rest 1
	octave 3
	octave 4
	note F_, 1
	rest 1
	octave 3
	octave 4
	note F_, 2
	volume_envelope 1, 0
	octave 3
	volume_envelope 2, 0
	octave 4
	note C_, 2
	octave 3
	octave 4
	volume_envelope 1, 0
	volume_envelope 2, 0
	note C_, 2
	octave 3
	note A_, 1
	rest 1
	octave 4
	octave 3
	note A_, 1
	rest 1
	octave 4
	note E_, 4
	rest 2
	octave 3
	volume_envelope 1, 0
	octave 4
	volume_envelope 2, 0
	note D_, 6
	rest 2
	octave 3
	note A_, 4
	octave 4
	note G_, 2
	note F_, 2
	note G_, 2
	note F_, 1
	rest 1
	note E_, 3
	rest 1
	octave 3
	note A_, 10
	rest 16
	rest 16
	rest 16
	rest 16
	rest 16
	rest 16
	rest 16
	rest 16
	rest 8
	octave 4
	note F_, 1
	rest 1
	octave 3
	octave 4
	note F_, 1
	rest 1
	octave 3
	octave 4
	note C_, 1
	rest 1
	octave 3
	octave 4
	note F_, 1
	rest 1
	octave 3
	octave 4
	note C_, 1
	rest 1
	octave 3
	octave 4
	note C_, 1
	rest 1
	octave 3
	note A_, 1
	rest 1
	octave 4
	octave 3
	note A_, 1
	rest 1
	octave 4
	octave 3
	octave 4
	note E_, 5
	rest 1
	octave 3
	octave 4
	volume_envelope 1, 0
	volume_envelope 2, 0
	note A_, 5
	rest 3
	octave 3
	note A_, 4
	octave 4
	note A_, 2
	note F_, 2
	note G_, 2
	volume_envelope 1, 0
	note F_, 1
	rest 1
	note E_, 2
	rest 2
	volume_envelope 2, 0
	octave 3
	note A_, 7
	rest 11
	octave 4
	octave 3
	note A_, 1
	rest 1
	octave 4
	note C_, 1
	rest 1
	octave 3
	octave 4
	note C_, 1
	rest 1
	octave 3
	octave 4
	note C_, 1
	rest 1
	octave 3
	note A_, 1
	rest 1
	octave 4
	volume_envelope 1, 0
	volume_envelope 2, 0
	note C_, 1
	rest 1
	octave 3
	note A_, 1
	rest 1
	octave 4
	note C_, 1
	rest 1
	octave 3
	octave 4
	note E_, 5
	rest 1
	octave 3
	octave 4
	note D_, 5
	rest 3
	octave 3
	octave 4
	note A_, 3
	rest 1
	note G_, 1
	rest 1
	note F_, 1
	rest 1
	note G_, 1
	rest 1
	note F_, 1
	rest 1
	note E_, 3
	rest 1
	octave 3
	note A_, 5
	rest 16
	rest 16
	rest 16
	rest 16
	rest 16
	rest 16
	rest 16
	rest 16
	rest 5
	octave 4
	volume_envelope 1, 0
	note C_, 1
	rest 1
	octave 3
	note A#, 1
	rest 1
	note A_, 1
	rest 1
	note G_, 1
	rest 1
	note F_, 1
	rest 16
	rest 16
	rest 16
	rest 16
	rest 16
	rest 16
	rest 16
	rest 15
	octave 4
	volume_envelope 2, 0
	octave 3
	octave 4
	note C_, 1
	rest 1
	octave 3
	octave 4
	note C_, 1
	rest 1
	octave 3
	octave 4
	note C_, 1
	rest 1
	octave 3
	octave 4
	note C_, 1
	rest 1
	octave 3
	octave 4
	note F_, 2
	octave 3
	octave 4
	note F_, 2
	octave 3
	octave 4
	note F_, 2
	octave 3
	octave 4
	note C_, 1
	rest 1
	octave 3
	volume_envelope 1, 0
	octave 4
	volume_envelope 2, 0
	note C_, 6
	octave 3
	octave 4
	note D_, 7
	rest 1
	octave 3
	octave 4
	note A_, 3
	rest 1
	note G_, 2
	volume_envelope 1, 0
	note F_, 1
	rest 1
	volume_envelope 2, 0
	note G_, 1
	rest 1
	note F_, 1
	rest 1
	note E_, 2
	rest 2
	octave 3
	octave 4
	note F_, 7
	rest 11
	octave 3
	octave 4
	note C_, 1
	rest 1
	octave 3
	octave 4
	note C_, 1
	rest 1
	octave 3
	octave 4
	note C_, 1
	rest 1
	octave 3
	note A_, 1
	rest 1
	octave 4
	octave 3
	octave 4
	note C_, 1
	rest 1
	octave 3
	note A_, 1
	rest 1
	octave 4
	note F_, 1
	rest 1
	octave 3
	octave 4
	note C_, 1
	rest 1
	octave 3
	octave 4
	note C_, 5
	rest 1
	octave 3
	octave 4
	note A_, 4
	rest 4
	octave 3
	octave 4
	note A_, 2
	rest 2
	note G_, 2
	volume_envelope 1, 0
	note F_, 1
	rest 1
	volume_envelope 2, 0
	note G_, 1
	rest 1
	volume_envelope 1, 0
	note F_, 1
	rest 1
	volume_envelope 2, 0
	note E_, 3
	rest 1
	octave 3
	octave 4
	note F_, 7
	rest 16
	rest 16
	rest 16
	rest 16
	rest 16
	rest 16
	rest 16
	rest 16
	rest 3
	volume_envelope 1, 0
	note C_, 1
	rest 1
	octave 3
	note A#, 1
	rest 1
	note A_, 2
	note G_, 1
	rest 1
	note F_, 2
	rest 16
	rest 16
	rest 16
	rest 16
	rest 16
	rest 16
	rest 16
	rest 14
	volume_envelope 2, 0
	octave 4
	note C_, 1
	rest 1
	octave 3
	octave 4
	note C_, 1
	rest 1
	octave 3
	octave 4
	note F_, 1
	rest 1
	octave 3
	octave 4
	note F_, 1
	rest 1
	octave 3
	octave 4
	note F_, 2
	octave 3
	octave 4
	volume_envelope 1, 0
	volume_envelope 2, 0
	note C_, 2
	volume_envelope 1, 0
	volume_envelope 2, 0
	octave 3
	note A_, 1
	rest 1
	octave 4
	octave 3
	note A_, 1
	rest 1
	octave 4
	note E_, 5
	rest 1
	octave 3
	volume_envelope 1, 0
	octave 4
	volume_envelope 2, 0
	note A_, 6
	rest 2
	octave 3
	volume_envelope 1, 0
	octave 4
	volume_envelope 2, 0
	note A_, 4
	note G_, 1
	rest 1
	note F_, 1
	rest 1
	note G_, 1
	rest 1
	note F_, 1
	rest 1
	volume_envelope 1, 0
	note E_, 2
	rest 2
	volume_envelope 2, 0
	octave 3
	note A_, 7
	rest 11
	octave 4
	note C_, 1
	rest 1
	octave 3
	octave 4
	note C_, 1
	rest 1
	octave 3
	octave 4
	note C_, 1
	rest 1
	octave 3
	octave 4
	note C_, 2
	octave 3
	note A_, 2
	octave 4
	note C_, 2
	octave 3
	octave 4
	note C_, 2
	octave 3
	octave 4
	note C_, 1
	rest 1
	octave 3
	octave 4
	note E_, 5
	rest 1
	octave 3
	volume_envelope 1, 0
	octave 4
	volume_envelope 2, 0
	note A_, 6
	rest 2
	octave 3
	octave 4
	note A_, 4
	note G_, 1
	rest 1
	note F_, 1
	rest 1
	note G_, 1
	rest 1
	note F_, 1
	rest 1
	note E_, 3
	rest 1
	octave 3
	octave 4
	note F_, 16
	note F_, 10
	rest 5
	sound_loop 0, .mainloop

Music_Obla_Ch4:
	toggle_noise 1
	drum_speed 12
.mainloop
	rest 16
	drum_note 2, 2
	drum_note 7, 2
	drum_note 5, 2
	drum_note 7, 2
	drum_note 1, 2
	drum_note 7, 2
	drum_note 5, 2
	drum_note 7, 2
	drum_note 7, 2
	drum_note 7, 2
	drum_note 7, 2
	drum_note 7, 2
	drum_note 7, 2
	drum_note 7, 1
	drum_note 10, 1
	drum_note 7, 1
	drum_note 6, 1
	drum_note 7, 2
	drum_note 2, 2
	drum_note 7, 2
	drum_note 5, 2
	drum_note 7, 2
	drum_note 1, 2
	drum_note 7, 2
	drum_note 5, 2
	drum_note 7, 2
	drum_note 1, 2
	drum_note 7, 2
	drum_note 5, 2
	drum_note 7, 2
	drum_note 1, 2
	drum_note 7, 2
	drum_note 5, 2
	drum_note 7, 2
	drum_note 1, 2
	drum_note 7, 2
	drum_note 5, 2
	drum_note 7, 2
	drum_note 1, 2
	drum_note 7, 2
	drum_note 5, 2
	drum_note 7, 2
	drum_note 1, 2
	drum_note 7, 2
	drum_note 5, 2
	drum_note 7, 2
	drum_note 1, 2
	drum_note 7, 2
	drum_note 5, 2
	drum_note 7, 2
	drum_note 1, 2
	drum_note 7, 2
	drum_note 5, 2
	drum_note 7, 2
	drum_note 1, 2
	drum_note 7, 2
	drum_note 5, 2
	drum_note 7, 2
	drum_note 1, 2
	drum_note 7, 2
	drum_note 5, 2
	drum_note 7, 2
	drum_note 1, 2
	drum_note 7, 2
	drum_note 5, 2
	drum_note 7, 2
	drum_note 1, 2
	drum_note 7, 2
	drum_note 5, 2
	drum_note 7, 2
	drum_note 1, 2
	drum_note 7, 2
	drum_note 5, 2
	drum_note 7, 2
	drum_note 1, 2
	drum_note 7, 2
	drum_note 5, 2
	drum_note 7, 2
	drum_note 1, 2
	drum_note 7, 2
	drum_note 5, 2
	drum_note 7, 2
	drum_note 2, 2
	drum_note 7, 2
	drum_note 5, 2
	drum_note 7, 2
	drum_note 1, 2
	drum_note 7, 2
	drum_note 5, 2
	drum_note 7, 2
	drum_note 1, 2
	drum_note 7, 2
	drum_note 5, 2
	drum_note 7, 2
	drum_note 1, 2
	drum_note 7, 2
	drum_note 5, 2
	drum_note 7, 2
	drum_note 1, 2
	drum_note 7, 2
	drum_note 5, 2
	drum_note 7, 2
	drum_note 1, 2
	drum_note 7, 2
	drum_note 5, 2
	drum_note 7, 2
	drum_note 1, 2
	drum_note 7, 2
	drum_note 5, 2
	drum_note 7, 2
	drum_note 1, 2
	drum_note 7, 2
	drum_note 5, 2
	drum_note 7, 2
	drum_note 2, 2
	drum_note 7, 2
	drum_note 5, 2
	drum_note 7, 2
	drum_note 1, 2
	drum_note 7, 2
	drum_note 5, 2
	drum_note 7, 2
	drum_note 1, 2
	drum_note 7, 2
	drum_note 5, 2
	drum_note 7, 2
	drum_note 1, 2
	drum_note 7, 2
	drum_note 5, 2
	drum_note 7, 2
	drum_note 1, 2
	drum_note 7, 2
	drum_note 5, 2
	drum_note 7, 2
	drum_note 1, 2
	drum_note 7, 2
	drum_note 5, 2
	drum_note 7, 2
	drum_note 1, 2
	drum_note 7, 2
	drum_note 5, 2
	drum_note 7, 2
	drum_note 1, 2
	drum_note 7, 2
	drum_note 5, 2
	drum_note 7, 2
	drum_note 2, 2
	drum_note 7, 2
	drum_note 5, 2
	drum_note 7, 2
	drum_note 1, 2
	drum_note 7, 2
	drum_note 5, 2
	drum_note 7, 2
	drum_note 1, 2
	drum_note 7, 2
	drum_note 5, 2
	drum_note 7, 2
	drum_note 1, 2
	drum_note 7, 2
	drum_note 5, 2
	drum_note 7, 2
	drum_note 1, 2
	drum_note 7, 2
	drum_note 5, 2
	drum_note 7, 2
	drum_note 1, 2
	drum_note 7, 2
	drum_note 5, 2
	drum_note 7, 2
	drum_note 1, 2
	drum_note 7, 2
	drum_note 5, 2
	drum_note 7, 2
	drum_note 1, 2
	drum_note 7, 2
	drum_note 5, 2
	drum_note 7, 2
	drum_note 1, 2
	drum_note 7, 2
	drum_note 5, 2
	drum_note 7, 2
	drum_note 1, 2
	drum_note 7, 2
	drum_note 5, 2
	drum_note 7, 2
	drum_note 1, 2
	drum_note 7, 2
	drum_note 5, 2
	drum_note 7, 2
	drum_note 1, 2
	drum_note 7, 2
	drum_note 5, 2
	drum_note 7, 2
	drum_note 1, 2
	drum_note 7, 2
	drum_note 5, 2
	drum_note 7, 2
	drum_note 1, 2
	drum_note 7, 2
	drum_note 5, 2
	drum_note 7, 2
	drum_note 1, 2
	drum_note 7, 2
	drum_note 5, 2
	drum_note 7, 2
	drum_note 1, 2
	drum_note 7, 2
	drum_note 5, 2
	drum_note 7, 2
	drum_note 2, 2
	drum_note 7, 2
	drum_note 5, 2
	drum_note 7, 2
	drum_note 1, 2
	drum_note 7, 2
	drum_note 5, 2
	drum_note 7, 2
	drum_note 1, 2
	drum_note 7, 2
	drum_note 5, 2
	drum_note 7, 2
	drum_note 1, 2
	drum_note 7, 2
	drum_note 5, 2
	drum_note 7, 2
	drum_note 1, 2
	drum_note 7, 2
	drum_note 5, 2
	drum_note 7, 2
	drum_note 1, 2
	drum_note 7, 2
	drum_note 5, 2
	drum_note 7, 2
	drum_note 1, 2
	drum_note 7, 2
	drum_note 5, 2
	drum_note 7, 2
	drum_note 1, 2
	drum_note 7, 2
	drum_note 5, 2
	drum_note 7, 2
	drum_note 1, 2
	drum_note 7, 2
	drum_note 5, 2
	drum_note 7, 2
	drum_note 1, 2
	drum_note 7, 2
	drum_note 5, 2
	drum_note 7, 2
	drum_note 1, 2
	drum_note 7, 2
	drum_note 5, 2
	drum_note 7, 2
	drum_note 1, 2
	drum_note 7, 2
	drum_note 5, 2
	drum_note 7, 2
	drum_note 1, 2
	drum_note 7, 2
	drum_note 5, 2
	drum_note 7, 2
	drum_note 1, 2
	drum_note 7, 2
	drum_note 5, 2
	drum_note 7, 2
	drum_note 1, 2
	drum_note 7, 2
	drum_note 5, 2
	drum_note 7, 2
	drum_note 1, 2
	drum_note 10, 1
	drum_note 10, 1
	drum_note 6, 1
	drum_note 6, 1
	drum_note 6, 2
	drum_note 7, 2
	drum_note 7, 2
	drum_note 7, 2
	drum_note 7, 2
	drum_note 7, 2
	drum_note 7, 2
	drum_note 7, 2
	drum_note 7, 2
	drum_note 7, 2
	drum_note 7, 2
	drum_note 7, 2
	drum_note 7, 2
	drum_note 7, 2
	drum_note 7, 2
	drum_note 7, 2
	drum_note 7, 2
	drum_note 7, 2
	drum_note 7, 2
	drum_note 7, 2
	drum_note 7, 2
	drum_note 7, 2
	drum_note 7, 2
	drum_note 7, 2
	drum_note 7, 2
	drum_note 7, 2
	drum_note 7, 2
	drum_note 7, 2
	drum_note 7, 2
	drum_note 7, 2
	drum_note 7, 1
	drum_note 1, 1
	drum_note 7, 1
	drum_note 10, 1
	drum_note 7, 1
	drum_note 6, 1
	drum_note 7, 2
	drum_note 7, 2
	drum_note 7, 2
	drum_note 7, 2
	drum_note 7, 2
	drum_note 7, 2
	drum_note 7, 2
	drum_note 7, 2
	drum_note 7, 2
	drum_note 7, 2
	drum_note 7, 2
	drum_note 7, 2
	drum_note 7, 2
	drum_note 7, 2
	drum_note 7, 2
	drum_note 7, 2
	drum_note 7, 2
	drum_note 7, 2
	drum_note 7, 2
	drum_note 7, 2
	drum_note 7, 2
	drum_note 7, 2
	drum_note 7, 2
	drum_note 7, 2
	drum_note 7, 2
	drum_note 7, 2
	drum_note 7, 2
	drum_note 7, 2
	drum_note 7, 2
	drum_note 7, 2
	drum_note 7, 2
	drum_note 7, 2
	drum_note 2, 2
	drum_note 7, 2
	drum_note 5, 2
	drum_note 7, 2
	drum_note 1, 2
	drum_note 7, 2
	drum_note 5, 2
	drum_note 7, 2
	drum_note 1, 2
	drum_note 7, 2
	drum_note 5, 2
	drum_note 7, 2
	drum_note 1, 2
	drum_note 7, 2
	drum_note 5, 2
	drum_note 7, 2
	drum_note 1, 2
	drum_note 7, 2
	drum_note 5, 2
	drum_note 7, 2
	drum_note 1, 2
	drum_note 7, 2
	drum_note 5, 2
	drum_note 7, 2
	drum_note 1, 2
	drum_note 7, 2
	drum_note 5, 2
	drum_note 7, 2
	drum_note 1, 2
	drum_note 7, 2
	drum_note 5, 2
	drum_note 7, 2
	drum_note 1, 2
	drum_note 7, 2
	drum_note 5, 2
	drum_note 7, 2
	drum_note 1, 2
	drum_note 7, 2
	drum_note 5, 2
	drum_note 7, 2
	drum_note 1, 2
	drum_note 7, 2
	drum_note 5, 2
	drum_note 7, 2
	drum_note 1, 2
	drum_note 7, 2
	drum_note 5, 2
	drum_note 7, 2
	drum_note 1, 2
	drum_note 7, 2
	drum_note 5, 2
	drum_note 7, 2
	drum_note 1, 2
	drum_note 7, 2
	drum_note 5, 2
	drum_note 7, 2
	drum_note 1, 2
	drum_note 7, 2
	drum_note 5, 2
	drum_note 7, 2
	drum_note 1, 2
	drum_note 7, 2
	drum_note 5, 2
	drum_note 7, 2
	drum_note 2, 2
	drum_note 7, 2
	drum_note 5, 2
	drum_note 7, 2
	drum_note 1, 2
	drum_note 7, 2
	drum_note 5, 2
	drum_note 7, 2
	drum_note 1, 2
	drum_note 7, 2
	drum_note 5, 2
	drum_note 7, 2
	drum_note 1, 2
	drum_note 7, 2
	drum_note 5, 2
	drum_note 7, 2
	drum_note 1, 2
	drum_note 7, 2
	drum_note 5, 2
	drum_note 7, 2
	drum_note 1, 2
	drum_note 7, 2
	drum_note 5, 2
	drum_note 7, 2
	drum_note 1, 2
	drum_note 7, 2
	drum_note 5, 2
	drum_note 7, 2
	drum_note 1, 2
	drum_note 7, 2
	drum_note 5, 2
	drum_note 7, 2
	drum_note 2, 2
	drum_note 7, 2
	drum_note 5, 2
	drum_note 7, 2
	drum_note 1, 2
	drum_note 7, 2
	drum_note 5, 2
	drum_note 7, 2
	drum_note 1, 2
	drum_note 7, 2
	drum_note 5, 2
	drum_note 7, 2
	drum_note 1, 2
	drum_note 7, 2
	drum_note 5, 2
	drum_note 7, 2
	drum_note 1, 2
	drum_note 7, 2
	drum_note 5, 2
	drum_note 7, 2
	drum_note 1, 2
	drum_note 7, 2
	drum_note 5, 2
	drum_note 7, 2
	drum_note 1, 2
	drum_note 7, 2
	drum_note 5, 2
	drum_note 7, 2
	drum_note 1, 2
	drum_note 10, 1
	drum_note 10, 1
	drum_note 6, 1
	drum_note 6, 1
	drum_note 6, 2
	drum_note 7, 2
	drum_note 7, 2
	drum_note 7, 2
	drum_note 7, 2
	drum_note 7, 2
	drum_note 7, 2
	drum_note 7, 2
	drum_note 7, 2
	drum_note 7, 2
	drum_note 7, 2
	drum_note 7, 2
	drum_note 7, 2
	drum_note 7, 2
	drum_note 7, 2
	drum_note 7, 2
	drum_note 7, 2
	drum_note 7, 2
	drum_note 7, 2
	drum_note 7, 2
	drum_note 7, 2
	drum_note 7, 2
	drum_note 7, 2
	drum_note 7, 2
	drum_note 7, 2
	drum_note 7, 2
	drum_note 7, 2
	drum_note 7, 2
	drum_note 7, 2
	drum_note 7, 1
	drum_note 1, 1
	drum_note 7, 1
	drum_note 1, 1
	drum_note 7, 1
	drum_note 10, 1
	drum_note 7, 1
	drum_note 6, 1
	drum_note 7, 2
	drum_note 7, 2
	drum_note 7, 2
	drum_note 7, 2
	drum_note 7, 2
	drum_note 7, 2
	drum_note 7, 2
	drum_note 7, 2
	drum_note 7, 2
	drum_note 7, 2
	drum_note 7, 2
	drum_note 7, 2
	drum_note 7, 2
	drum_note 7, 2
	drum_note 7, 2
	drum_note 7, 2
	drum_note 7, 2
	drum_note 7, 2
	drum_note 7, 2
	drum_note 7, 2
	drum_note 7, 2
	drum_note 7, 2
	drum_note 7, 2
	drum_note 7, 2
	drum_note 7, 2
	drum_note 7, 2
	drum_note 7, 2
	drum_note 7, 2
	drum_note 7, 2
	drum_note 7, 2
	drum_note 7, 2
	drum_note 7, 2
	drum_note 2, 2
	drum_note 7, 2
	drum_note 5, 2
	drum_note 7, 2
	drum_note 1, 2
	drum_note 7, 2
	drum_note 5, 2
	drum_note 7, 2
	drum_note 1, 2
	drum_note 7, 2
	drum_note 5, 2
	drum_note 7, 2
	drum_note 1, 2
	drum_note 7, 2
	drum_note 5, 2
	drum_note 7, 2
	drum_note 1, 2
	drum_note 7, 2
	drum_note 5, 2
	drum_note 7, 2
	drum_note 1, 2
	drum_note 7, 2
	drum_note 5, 2
	drum_note 7, 2
	drum_note 1, 2
	drum_note 7, 2
	drum_note 5, 2
	drum_note 7, 2
	drum_note 1, 2
	drum_note 7, 2
	drum_note 5, 2
	drum_note 7, 2
	drum_note 1, 2
	drum_note 7, 2
	drum_note 5, 2
	drum_note 7, 2
	drum_note 1, 2
	drum_note 7, 2
	drum_note 5, 2
	drum_note 7, 2
	drum_note 1, 2
	drum_note 7, 2
	drum_note 5, 2
	drum_note 7, 2
	drum_note 1, 2
	drum_note 7, 2
	drum_note 5, 2
	drum_note 7, 2
	drum_note 1, 2
	drum_note 7, 2
	drum_note 5, 2
	drum_note 7, 2
	drum_note 1, 2
	drum_note 7, 2
	drum_note 5, 2
	drum_note 7, 2
	drum_note 1, 2
	drum_note 7, 2
	drum_note 5, 2
	drum_note 7, 2
	drum_note 1, 2
	drum_note 7, 2
	drum_note 5, 2
	drum_note 7, 2
	drum_note 7, 2
	drum_note 7, 2
	drum_note 7, 2
	drum_note 7, 2
	drum_note 7, 2
	drum_note 7, 2
	drum_note 7, 2
	drum_note 7, 2
	drum_note 7, 2
	drum_note 7, 2
	drum_note 7, 2
	drum_note 7, 2
	drum_note 7, 2
	drum_note 7, 2
	drum_note 7, 2
	drum_note 7, 2
	drum_note 7, 2
	drum_note 7, 2
	drum_note 7, 2
	drum_note 7, 2
	drum_note 7, 2
	drum_note 7, 2
	drum_note 7, 2
	drum_note 7, 2
	drum_note 7, 2
	drum_note 7, 2
	drum_note 7, 2
	drum_note 7, 2
	drum_note 7, 2
	drum_note 7, 2
	drum_note 7, 2
	drum_note 7, 2
	drum_note 7, 2
	drum_note 7, 2
	drum_note 7, 2
	drum_note 7, 2
	drum_note 7, 2
	drum_note 7, 2
	drum_note 7, 2
	drum_note 7, 2
	drum_note 7, 2
	drum_note 7, 2
	drum_note 7, 2
	drum_note 7, 2
	drum_note 7, 2
	drum_note 7, 2
	drum_note 7, 2
	drum_note 7, 2
	drum_note 7, 2
	drum_note 7, 2
	drum_note 7, 2
	drum_note 7, 2
	drum_note 7, 2
	drum_note 7, 2
	drum_note 7, 2
	drum_note 7, 2
	drum_note 7, 2
	drum_note 7, 2
	drum_note 7, 2
	drum_note 7, 2
	drum_note 7, 2
	drum_note 7, 2
	drum_note 7, 2
	drum_note 7, 2
	drum_note 7, 2
	drum_note 7, 2
	drum_note 7, 2
	drum_note 7, 2
	drum_note 7, 2
	drum_note 7, 2
	drum_note 7, 2
	drum_note 7, 2
	drum_note 7, 2
	drum_note 7, 2
	drum_note 7, 2
	drum_note 7, 2
	drum_note 7, 4
	drum_note 2, 2
	rest 3
	sound_loop 0, .mainloop
