;Coverted using MIDI2ASM
;Code by TriteHexagon
;Version 5.2.0 (16-Nov-2022)
;Visit github.com/TriteHexagon/Midi2ASM-Converter for up-to-date versions.

; ============================================================================================================

Music_OceanWinter:
	channel_count 4
	channel 1, Music_OceanWinter_Ch1
	channel 2, Music_OceanWinter_Ch2
	channel 3, Music_OceanWinter_Ch3
	channel 4, Music_OceanWinter_Ch4

Music_OceanWinter_Ch1:
	volume 7, 7
	duty_cycle 1
	note_type 12, 10, 7
	tempo 173
.mainloop
;Bar 1
	rest 16
	rest 16
	rest 16
	rest 16
;Bar 5
	octave 4
	volume_envelope 15, 7
	note F_, 16
	note F_, 4
;Bar 6
	octave 5
	note C_, 4
	octave 4
	note A#, 4
;Bar 7
	note G#, 2
	note G_, 2
	note F_, 4
	note D#, 4
	note C#, 4
;Bar 8
	note F_, 16
	note F_, 4
;Bar 9
	note G_, 4
	note G#, 2
	note A#, 2
	note G_, 12
;Bar 10
	note G#, 2
	note A#, 2
	octave 5
	note D#, 4
;Bar 11
	note C#, 4
	note C_, 2
	octave 4
	note A#, 2
	note G#, 2
	note G_, 2
	note F_, 16
	note F_, 8
;Bar 13
	rest 8
	note F_, 16
	note F_, 4
;Bar 15
	octave 5
	note C_, 4
	octave 4
	note A#, 4
	note G#, 2
	note G_, 2
	note F_, 4
;Bar 16
	note D#, 4
	note C#, 4
	note F_, 16
	note F_, 4
;Bar 17
	note G_, 4
;Bar 18
	note G#, 2
	note A#, 2
	note G_, 12
;Bar 19
	note G#, 2
	note A#, 2
	octave 5
	note D#, 4
	note C#, 4
	note C_, 2
	octave 4
	note A#, 2
;Bar 20
	note G#, 2
	note G_, 2
	note F_, 16
	note F_, 8
;Bar 21
	rest 16
	rest 16
	rest 16
	rest 16
	rest 16
	rest 16
	rest 16
	rest 16
	rest 16
	rest 8
;Bar 31
	note F_, 16
	note F_, 4
;Bar 32
	octave 5
	note C_, 4
	octave 4
	note A#, 4
;Bar 33
	note G#, 2
	note G_, 2
	note F_, 4
	note D#, 4
	note C#, 4
;Bar 34
	note F_, 16
	note F_, 4
;Bar 35
	note G_, 4
	note G#, 2
	note A#, 2
	note G_, 12
;Bar 36
	note G#, 2
	note A#, 2
	octave 5
	note D#, 4
;Bar 37
	;note C#, 0 | WARNING: Rounded down to 0
	rest 4
	note C_, 2
	octave 4
	note A#, 2
	note G#, 2
	;note G_, 0 | WARNING: Rounded down to 0
	rest 2
	note F_, 16
	note F_, 8
;Bar 39
	rest 8
	note F_, 16
	note F_, 4
;Bar 41
	octave 5
	note C_, 4
	octave 4
	note A#, 4
	note G#, 2
	note G_, 2
	note F_, 4
;Bar 42
	note D#, 4
	note C#, 4
	note F_, 16
	note F_, 4
;Bar 43
	note G_, 4
;Bar 44
	note G#, 2
	note A#, 2
	note G_, 12
;Bar 45
	note G#, 2
	note A#, 2
	octave 5
	note D#, 4
	;note C#, 0 | WARNING: Rounded down to 0
	rest 4
	note C_, 2
	octave 4
	note A#, 2
;Bar 46
	note G#, 2
	;note G_, 0 | WARNING: Rounded down to 0
	rest 2
	note F_, 16
	note F_, 8
;Bar 47
	rest 16
	rest 16
	rest 16
	rest 16
	rest 16
	rest 16
	rest 16
	rest 16
	rest 16
	rest 8
;Bar 57
	note F_, 16
	note F_, 4
;Bar 58
	octave 5
	note C_, 4
	octave 4
	note A#, 4
;Bar 59
	note G#, 2
	note G_, 2
	note F_, 4
	note D#, 4
	note C#, 4
;Bar 60
	note F_, 16
	note F_, 4
;Bar 61
	note G_, 4
	note G#, 2
	note A#, 2
	note G_, 12
;Bar 62
	note G#, 2
	note A#, 2
	octave 5
	note D#, 4
;Bar 63
	;note C#, 0 | WARNING: Rounded down to 0
	rest 4
	note C_, 2
	octave 4
	note A#, 2
	note G#, 2
	;note G_, 0 | WARNING: Rounded down to 0
	rest 2
	note F_, 16
	note F_, 8
;Bar 65
	rest 8
	note F_, 16
	note F_, 4
;Bar 67
	octave 5
	note C_, 4
	octave 4
	note A#, 4
	note G#, 2
	note G_, 2
	note F_, 4
;Bar 68
	note D#, 4
	note C#, 4
	note F_, 16
	note F_, 4
;Bar 69
	note G_, 4
;Bar 70
	note G#, 2
	note A#, 2
	note G_, 12
;Bar 71
	note G#, 2
	note A#, 2
	octave 5
	note D#, 4
	;note C#, 0 | WARNING: Rounded down to 0
	rest 4
	note C_, 2
	octave 4
	note A#, 2
;Bar 72
	note G#, 2
	;note G_, 0 | WARNING: Rounded down to 0
	rest 2
	note F_, 16
	note F_, 8
;Bar 73
	rest 16
	rest 16
	rest 16
	rest 16
	rest 16
	rest 16
	rest 16
	rest 16
	rest 16
	rest 8
;Bar 83
	note F_, 16
	note F_, 4
;Bar 84
	octave 5
	note C_, 4
	octave 4
	note A#, 4
;Bar 85
	note G#, 2
	note G_, 2
	note F_, 4
	note D#, 4
	note C#, 4
;Bar 86
	note F_, 16
	note F_, 4
;Bar 87
	note G_, 4
	note G#, 2
	note A#, 2
	note G_, 12
;Bar 88
	note G#, 2
	note A#, 2
	octave 5
	note D#, 4
;Bar 89
	;note C#, 0 | WARNING: Rounded down to 0
	rest 4
	note C_, 2
	octave 4
	note A#, 2
	note G#, 2
	;note G_, 0 | WARNING: Rounded down to 0
	rest 2
	note F_, 16
	note F_, 8
;Bar 91
	rest 8
	note F_, 16
	note F_, 4
;Bar 93
	octave 5
	note C_, 4
	octave 4
	note A#, 4
	note G#, 2
	note G_, 2
	note F_, 4
;Bar 94
	note D#, 4
	note C#, 4
	note F_, 16
	note F_, 4
;Bar 95
	note G_, 4
;Bar 96
	note G#, 2
	note A#, 2
	note G_, 12
;Bar 97
	note G#, 2
	note A#, 2
	octave 5
	note D#, 4
	;note C#, 0 | WARNING: Rounded down to 0
	rest 4
	note C_, 2
	octave 4
	note A#, 2
;Bar 98
	note G#, 2
	;note G_, 0 | WARNING: Rounded down to 0
	rest 2
	note F_, 16
	note F_, 16
	sound_loop 0, .mainloop

; ============================================================================================================

Music_OceanWinter_Ch2:
	duty_cycle 2
	note_type 12, 10, 7
.mainloop
;Bar 1
	volume_envelope 15, 7
	octave 1
	;note F_, 0 | WARNING: Rounded down to 0
	;note G#, 0 | WARNING: Rounded down to 0
	octave 2
	note C_, 8
	octave 1
	;note F_, 0 | WARNING: Rounded down to 0
	;note A#, 0 | WARNING: Rounded down to 0
	octave 2
	note C#, 8
;Bar 2
	;note D#, 0 | WARNING: Rounded down to 0
	;note C_, 0 | WARNING: Rounded down to 0
	octave 1
	note F_, 8
	octave 2
	;note C#, 0 | WARNING: Rounded down to 0
	octave 1
	;note F_, 0 | WARNING: Rounded down to 0
	note A#, 8
;Bar 3
	;note F_, 0 | WARNING: Rounded down to 0
	;note G#, 0 | WARNING: Rounded down to 0
	octave 2
	note C_, 8
	octave 1
	;note F_, 0 | WARNING: Rounded down to 0
	;note A#, 0 | WARNING: Rounded down to 0
	octave 2
	note C#, 8
;Bar 4
	;note D#, 0 | WARNING: Rounded down to 0
	;note C_, 0 | WARNING: Rounded down to 0
	octave 1
	note F_, 8
	octave 2
	;note C#, 0 | WARNING: Rounded down to 0
	octave 1
	;note F_, 0 | WARNING: Rounded down to 0
	note A#, 8
;Bar 5
	;note F_, 0 | WARNING: Rounded down to 0
	;note G#, 0 | WARNING: Rounded down to 0
	octave 2
	note C_, 8
	octave 1
	;note F_, 0 | WARNING: Rounded down to 0
	;note A#, 0 | WARNING: Rounded down to 0
	octave 2
	note C#, 8
;Bar 6
	;note D#, 0 | WARNING: Rounded down to 0
	;note C_, 0 | WARNING: Rounded down to 0
	octave 1
	note F_, 8
	octave 2
	;note C#, 0 | WARNING: Rounded down to 0
	octave 1
	;note F_, 0 | WARNING: Rounded down to 0
	note A#, 8
;Bar 7
	;note F_, 0 | WARNING: Rounded down to 0
	;note G#, 0 | WARNING: Rounded down to 0
	octave 2
	note C_, 8
	octave 1
	;note F_, 0 | WARNING: Rounded down to 0
	;note A#, 0 | WARNING: Rounded down to 0
	octave 2
	note C#, 8
;Bar 8
	;note D#, 0 | WARNING: Rounded down to 0
	;note C_, 0 | WARNING: Rounded down to 0
	octave 1
	note F_, 8
	octave 2
	;note C#, 0 | WARNING: Rounded down to 0
	octave 1
	;note F_, 0 | WARNING: Rounded down to 0
	note A#, 8
;Bar 9
	;note G_, 0 | WARNING: Rounded down to 0
	octave 2
	;note C_, 0 | WARNING: Rounded down to 0
	note D#, 8
	octave 1
	;note G#, 0 | WARNING: Rounded down to 0
	octave 2
	;note C#, 0 | WARNING: Rounded down to 0
	note F_, 8
;Bar 10
	octave 1
	;note G_, 0 | WARNING: Rounded down to 0
	octave 2
	;note C_, 0 | WARNING: Rounded down to 0
	note D#, 8
	octave 1
	;note F_, 0 | WARNING: Rounded down to 0
	;note A#, 0 | WARNING: Rounded down to 0
	octave 2
	note C#, 8
;Bar 11
	octave 1
	;note G_, 0 | WARNING: Rounded down to 0
	octave 2
	;note C_, 0 | WARNING: Rounded down to 0
	note D#, 8
	octave 1
	;note F_, 0 | WARNING: Rounded down to 0
	;note G#, 0 | WARNING: Rounded down to 0
	octave 2
	note C_, 8
;Bar 12
	octave 1
	;note F_, 0 | WARNING: Rounded down to 0
	;note A#, 0 | WARNING: Rounded down to 0
	octave 2
	note C#, 8
	;note D#, 0 | WARNING: Rounded down to 0
	;note C_, 0 | WARNING: Rounded down to 0
	octave 1
	note F_, 8
;Bar 13
	octave 2
	;note C#, 0 | WARNING: Rounded down to 0
	octave 1
	;note F_, 0 | WARNING: Rounded down to 0
	note A#, 8
	;note F_, 0 | WARNING: Rounded down to 0
	;note G#, 0 | WARNING: Rounded down to 0
	octave 2
	note C_, 8
;Bar 14
	octave 1
	;note F_, 0 | WARNING: Rounded down to 0
	;note A#, 0 | WARNING: Rounded down to 0
	octave 2
	note C#, 8
	;note D#, 0 | WARNING: Rounded down to 0
	;note C_, 0 | WARNING: Rounded down to 0
	octave 1
	note F_, 8
;Bar 15
	octave 2
	;note C#, 0 | WARNING: Rounded down to 0
	octave 1
	;note F_, 0 | WARNING: Rounded down to 0
	note A#, 8
	;note F_, 0 | WARNING: Rounded down to 0
	;note G#, 0 | WARNING: Rounded down to 0
	octave 2
	note C_, 8
;Bar 16
	octave 1
	;note F_, 0 | WARNING: Rounded down to 0
	;note A#, 0 | WARNING: Rounded down to 0
	octave 2
	note C#, 8
	;note D#, 0 | WARNING: Rounded down to 0
	;note C_, 0 | WARNING: Rounded down to 0
	octave 1
	note F_, 8
;Bar 17
	octave 2
	;note C#, 0 | WARNING: Rounded down to 0
	octave 1
	;note F_, 0 | WARNING: Rounded down to 0
	note A#, 8
	;note G_, 0 | WARNING: Rounded down to 0
	octave 2
	;note C_, 0 | WARNING: Rounded down to 0
	note D#, 8
;Bar 18
	octave 1
	;note G#, 0 | WARNING: Rounded down to 0
	octave 2
	;note C#, 0 | WARNING: Rounded down to 0
	note F_, 8
	octave 1
	;note G_, 0 | WARNING: Rounded down to 0
	octave 2
	;note C_, 0 | WARNING: Rounded down to 0
	note D#, 8
;Bar 19
	octave 1
	;note F_, 0 | WARNING: Rounded down to 0
	;note A#, 0 | WARNING: Rounded down to 0
	octave 2
	note C#, 8
	octave 1
	;note G_, 0 | WARNING: Rounded down to 0
	octave 2
	;note C_, 0 | WARNING: Rounded down to 0
	note D#, 8
;Bar 20
	octave 1
	;note F_, 0 | WARNING: Rounded down to 0
	;note G#, 0 | WARNING: Rounded down to 0
	octave 2
	note C_, 8
	octave 1
	;note F_, 0 | WARNING: Rounded down to 0
	;note A#, 0 | WARNING: Rounded down to 0
	octave 2
	note C#, 8
;Bar 21
	;note D#, 0 | WARNING: Rounded down to 0
	;note C_, 0 | WARNING: Rounded down to 0
	octave 1
	note F_, 8
	octave 2
	;note C#, 0 | WARNING: Rounded down to 0
	octave 1
	;note F_, 0 | WARNING: Rounded down to 0
	note A#, 8
;Bar 22
	volume_envelope 12, 7
	;note A#, 0 | WARNING: Rounded down to 0
	octave 2
	;note G_, 0 | WARNING: Rounded down to 0
	note D#, 16
;Bar 23
	octave 1
	;note G#, 0 | WARNING: Rounded down to 0
	octave 2
	;note C#, 0 | WARNING: Rounded down to 0
	note F_, 16
;Bar 24
	;note G_, 0 | WARNING: Rounded down to 0
	;note D#, 0 | WARNING: Rounded down to 0
	octave 1
	note A#, 16
;Bar 25
	;note G#, 0 | WARNING: Rounded down to 0
	octave 2
	;note C#, 0 | WARNING: Rounded down to 0
	note F_, 16
;Bar 26
	;note F_, 0 | WARNING: Rounded down to 0
	octave 1
	;note A#, 0 | WARNING: Rounded down to 0
	octave 2
	note C#, 8
	octave 1
	;note G_, 0 | WARNING: Rounded down to 0
	octave 2
	;note C_, 0 | WARNING: Rounded down to 0
	note D#, 8
;Bar 27
	octave 1
	volume_envelope 15, 7
	;note F_, 0 | WARNING: Rounded down to 0
	;note G#, 0 | WARNING: Rounded down to 0
	octave 2
	note C_, 8
	octave 1
	;note F_, 0 | WARNING: Rounded down to 0
	;note A#, 0 | WARNING: Rounded down to 0
	octave 2
	note C#, 8
;Bar 28
	;note D#, 0 | WARNING: Rounded down to 0
	;note C_, 0 | WARNING: Rounded down to 0
	octave 1
	note F_, 8
	octave 2
	;note C#, 0 | WARNING: Rounded down to 0
	octave 1
	;note F_, 0 | WARNING: Rounded down to 0
	note A#, 8
;Bar 29
	;note F_, 0 | WARNING: Rounded down to 0
	;note G#, 0 | WARNING: Rounded down to 0
	octave 2
	note C_, 8
	octave 1
	;note F_, 0 | WARNING: Rounded down to 0
	;note A#, 0 | WARNING: Rounded down to 0
	octave 2
	note C#, 8
;Bar 30
	;note D#, 0 | WARNING: Rounded down to 0
	;note C_, 0 | WARNING: Rounded down to 0
	octave 1
	note F_, 8
	octave 2
	;note C#, 0 | WARNING: Rounded down to 0
	octave 1
	;note F_, 0 | WARNING: Rounded down to 0
	note A#, 8
;Bar 31
	;note F_, 0 | WARNING: Rounded down to 0
	;note G#, 0 | WARNING: Rounded down to 0
	octave 2
	note C_, 8
	octave 1
	;note F_, 0 | WARNING: Rounded down to 0
	;note A#, 0 | WARNING: Rounded down to 0
	octave 2
	note C#, 8
;Bar 32
	;note D#, 0 | WARNING: Rounded down to 0
	;note C_, 0 | WARNING: Rounded down to 0
	octave 1
	note F_, 8
	octave 2
	;note C#, 0 | WARNING: Rounded down to 0
	octave 1
	;note F_, 0 | WARNING: Rounded down to 0
	note A#, 8
;Bar 33
	;note F_, 0 | WARNING: Rounded down to 0
	;note G#, 0 | WARNING: Rounded down to 0
	octave 2
	note C_, 8
	octave 1
	;note F_, 0 | WARNING: Rounded down to 0
	;note A#, 0 | WARNING: Rounded down to 0
	octave 2
	note C#, 8
;Bar 34
	;note D#, 0 | WARNING: Rounded down to 0
	;note C_, 0 | WARNING: Rounded down to 0
	octave 1
	note F_, 8
	octave 2
	;note C#, 0 | WARNING: Rounded down to 0
	octave 1
	;note F_, 0 | WARNING: Rounded down to 0
	note A#, 8
;Bar 35
	;note G_, 0 | WARNING: Rounded down to 0
	octave 2
	;note C_, 0 | WARNING: Rounded down to 0
	note D#, 8
	octave 1
	;note G#, 0 | WARNING: Rounded down to 0
	octave 2
	;note C#, 0 | WARNING: Rounded down to 0
	note F_, 8
;Bar 36
	octave 1
	;note G_, 0 | WARNING: Rounded down to 0
	octave 2
	;note C_, 0 | WARNING: Rounded down to 0
	note D#, 8
	octave 1
	;note F_, 0 | WARNING: Rounded down to 0
	;note A#, 0 | WARNING: Rounded down to 0
	octave 2
	note C#, 8
;Bar 37
	octave 1
	;note G_, 0 | WARNING: Rounded down to 0
	octave 2
	;note C_, 0 | WARNING: Rounded down to 0
	note D#, 8
	octave 1
	;note F_, 0 | WARNING: Rounded down to 0
	;note G#, 0 | WARNING: Rounded down to 0
	octave 2
	note C_, 8
;Bar 38
	octave 1
	;note F_, 0 | WARNING: Rounded down to 0
	;note A#, 0 | WARNING: Rounded down to 0
	octave 2
	note C#, 8
	;note D#, 0 | WARNING: Rounded down to 0
	;note C_, 0 | WARNING: Rounded down to 0
	octave 1
	note F_, 8
;Bar 39
	octave 2
	;note C#, 0 | WARNING: Rounded down to 0
	octave 1
	;note F_, 0 | WARNING: Rounded down to 0
	note A#, 8
	;note F_, 0 | WARNING: Rounded down to 0
	;note G#, 0 | WARNING: Rounded down to 0
	octave 2
	note C_, 8
;Bar 40
	octave 1
	;note F_, 0 | WARNING: Rounded down to 0
	;note A#, 0 | WARNING: Rounded down to 0
	octave 2
	note C#, 8
	;note D#, 0 | WARNING: Rounded down to 0
	;note C_, 0 | WARNING: Rounded down to 0
	octave 1
	note F_, 8
;Bar 41
	octave 2
	;note C#, 0 | WARNING: Rounded down to 0
	octave 1
	;note F_, 0 | WARNING: Rounded down to 0
	note A#, 8
	;note F_, 0 | WARNING: Rounded down to 0
	;note G#, 0 | WARNING: Rounded down to 0
	octave 2
	note C_, 8
;Bar 42
	octave 1
	;note F_, 0 | WARNING: Rounded down to 0
	;note A#, 0 | WARNING: Rounded down to 0
	octave 2
	note C#, 8
	;note D#, 0 | WARNING: Rounded down to 0
	;note C_, 0 | WARNING: Rounded down to 0
	octave 1
	note F_, 8
;Bar 43
	octave 2
	;note C#, 0 | WARNING: Rounded down to 0
	octave 1
	;note F_, 0 | WARNING: Rounded down to 0
	note A#, 8
	;note G_, 0 | WARNING: Rounded down to 0
	octave 2
	;note C_, 0 | WARNING: Rounded down to 0
	note D#, 8
;Bar 44
	octave 1
	;note G#, 0 | WARNING: Rounded down to 0
	octave 2
	;note C#, 0 | WARNING: Rounded down to 0
	note F_, 8
	octave 1
	;note G_, 0 | WARNING: Rounded down to 0
	octave 2
	;note C_, 0 | WARNING: Rounded down to 0
	note D#, 8
;Bar 45
	octave 1
	;note F_, 0 | WARNING: Rounded down to 0
	;note A#, 0 | WARNING: Rounded down to 0
	octave 2
	note C#, 8
	octave 1
	;note G_, 0 | WARNING: Rounded down to 0
	octave 2
	;note C_, 0 | WARNING: Rounded down to 0
	note D#, 8
;Bar 46
	octave 1
	;note F_, 0 | WARNING: Rounded down to 0
	;note G#, 0 | WARNING: Rounded down to 0
	octave 2
	note C_, 8
	octave 1
	;note F_, 0 | WARNING: Rounded down to 0
	;note A#, 0 | WARNING: Rounded down to 0
	octave 2
	note C#, 8
;Bar 47
	;note D#, 0 | WARNING: Rounded down to 0
	;note C_, 0 | WARNING: Rounded down to 0
	octave 1
	note F_, 8
	octave 2
	;note C#, 0 | WARNING: Rounded down to 0
	octave 1
	;note F_, 0 | WARNING: Rounded down to 0
	note A#, 8
;Bar 48
	volume_envelope 12, 7
	;note A#, 0 | WARNING: Rounded down to 0
	octave 2
	;note G_, 0 | WARNING: Rounded down to 0
	note D#, 16
;Bar 49
	octave 1
	;note G#, 0 | WARNING: Rounded down to 0
	octave 2
	;note C#, 0 | WARNING: Rounded down to 0
	note F_, 16
;Bar 50
	;note G_, 0 | WARNING: Rounded down to 0
	;note D#, 0 | WARNING: Rounded down to 0
	octave 1
	note A#, 16
;Bar 51
	;note G#, 0 | WARNING: Rounded down to 0
	octave 2
	;note C#, 0 | WARNING: Rounded down to 0
	note F_, 16
;Bar 52
	;note F_, 0 | WARNING: Rounded down to 0
	octave 1
	;note A#, 0 | WARNING: Rounded down to 0
	octave 2
	note C#, 8
	octave 1
	;note G_, 0 | WARNING: Rounded down to 0
	octave 2
	;note C_, 0 | WARNING: Rounded down to 0
	note D#, 8
;Bar 53
	octave 1
	volume_envelope 15, 7
	;note F_, 0 | WARNING: Rounded down to 0
	;note G#, 0 | WARNING: Rounded down to 0
	octave 2
	note C_, 8
	octave 1
	;note F_, 0 | WARNING: Rounded down to 0
	;note A#, 0 | WARNING: Rounded down to 0
	octave 2
	note C#, 8
;Bar 54
	;note D#, 0 | WARNING: Rounded down to 0
	;note C_, 0 | WARNING: Rounded down to 0
	octave 1
	note F_, 8
	octave 2
	;note C#, 0 | WARNING: Rounded down to 0
	octave 1
	;note F_, 0 | WARNING: Rounded down to 0
	note A#, 8
;Bar 55
	;note F_, 0 | WARNING: Rounded down to 0
	;note G#, 0 | WARNING: Rounded down to 0
	octave 2
	note C_, 8
	octave 1
	;note F_, 0 | WARNING: Rounded down to 0
	;note A#, 0 | WARNING: Rounded down to 0
	octave 2
	note C#, 8
;Bar 56
	;note D#, 0 | WARNING: Rounded down to 0
	;note C_, 0 | WARNING: Rounded down to 0
	octave 1
	note F_, 8
	octave 2
	;note C#, 0 | WARNING: Rounded down to 0
	octave 1
	;note F_, 0 | WARNING: Rounded down to 0
	note A#, 8
;Bar 57
	;note F_, 0 | WARNING: Rounded down to 0
	;note G#, 0 | WARNING: Rounded down to 0
	octave 2
	note C_, 8
	octave 1
	;note F_, 0 | WARNING: Rounded down to 0
	;note A#, 0 | WARNING: Rounded down to 0
	octave 2
	note C#, 8
;Bar 58
	;note D#, 0 | WARNING: Rounded down to 0
	;note C_, 0 | WARNING: Rounded down to 0
	octave 1
	note F_, 8
	octave 2
	;note C#, 0 | WARNING: Rounded down to 0
	octave 1
	;note F_, 0 | WARNING: Rounded down to 0
	note A#, 8
;Bar 59
	;note F_, 0 | WARNING: Rounded down to 0
	;note G#, 0 | WARNING: Rounded down to 0
	octave 2
	note C_, 8
	octave 1
	;note F_, 0 | WARNING: Rounded down to 0
	;note A#, 0 | WARNING: Rounded down to 0
	octave 2
	note C#, 8
;Bar 60
	;note D#, 0 | WARNING: Rounded down to 0
	;note C_, 0 | WARNING: Rounded down to 0
	octave 1
	note F_, 8
	octave 2
	;note C#, 0 | WARNING: Rounded down to 0
	octave 1
	;note F_, 0 | WARNING: Rounded down to 0
	note A#, 8
;Bar 61
	;note G_, 0 | WARNING: Rounded down to 0
	octave 2
	;note C_, 0 | WARNING: Rounded down to 0
	note D#, 8
	octave 1
	;note G#, 0 | WARNING: Rounded down to 0
	octave 2
	;note C#, 0 | WARNING: Rounded down to 0
	note F_, 8
;Bar 62
	octave 1
	;note G_, 0 | WARNING: Rounded down to 0
	octave 2
	;note C_, 0 | WARNING: Rounded down to 0
	note D#, 8
	octave 1
	;note F_, 0 | WARNING: Rounded down to 0
	;note A#, 0 | WARNING: Rounded down to 0
	octave 2
	note C#, 8
;Bar 63
	octave 1
	;note G_, 0 | WARNING: Rounded down to 0
	octave 2
	;note C_, 0 | WARNING: Rounded down to 0
	note D#, 8
	octave 1
	;note F_, 0 | WARNING: Rounded down to 0
	;note G#, 0 | WARNING: Rounded down to 0
	octave 2
	note C_, 8
;Bar 64
	octave 1
	;note F_, 0 | WARNING: Rounded down to 0
	;note A#, 0 | WARNING: Rounded down to 0
	octave 2
	note C#, 8
	;note D#, 0 | WARNING: Rounded down to 0
	;note C_, 0 | WARNING: Rounded down to 0
	octave 1
	note F_, 8
;Bar 65
	octave 2
	;note C#, 0 | WARNING: Rounded down to 0
	octave 1
	;note F_, 0 | WARNING: Rounded down to 0
	note A#, 8
	;note F_, 0 | WARNING: Rounded down to 0
	;note G#, 0 | WARNING: Rounded down to 0
	octave 2
	note C_, 8
;Bar 66
	octave 1
	;note F_, 0 | WARNING: Rounded down to 0
	;note A#, 0 | WARNING: Rounded down to 0
	octave 2
	note C#, 8
	;note D#, 0 | WARNING: Rounded down to 0
	;note C_, 0 | WARNING: Rounded down to 0
	octave 1
	note F_, 8
;Bar 67
	octave 2
	;note C#, 0 | WARNING: Rounded down to 0
	octave 1
	;note F_, 0 | WARNING: Rounded down to 0
	note A#, 8
	;note F_, 0 | WARNING: Rounded down to 0
	;note G#, 0 | WARNING: Rounded down to 0
	octave 2
	note C_, 8
;Bar 68
	octave 1
	;note F_, 0 | WARNING: Rounded down to 0
	;note A#, 0 | WARNING: Rounded down to 0
	octave 2
	note C#, 8
	;note D#, 0 | WARNING: Rounded down to 0
	;note C_, 0 | WARNING: Rounded down to 0
	octave 1
	note F_, 8
;Bar 69
	octave 2
	;note C#, 0 | WARNING: Rounded down to 0
	octave 1
	;note F_, 0 | WARNING: Rounded down to 0
	note A#, 8
	;note G_, 0 | WARNING: Rounded down to 0
	octave 2
	;note C_, 0 | WARNING: Rounded down to 0
	note D#, 8
;Bar 70
	octave 1
	;note G#, 0 | WARNING: Rounded down to 0
	octave 2
	;note C#, 0 | WARNING: Rounded down to 0
	note F_, 8
	octave 1
	;note G_, 0 | WARNING: Rounded down to 0
	octave 2
	;note C_, 0 | WARNING: Rounded down to 0
	note D#, 8
;Bar 71
	octave 1
	;note F_, 0 | WARNING: Rounded down to 0
	;note A#, 0 | WARNING: Rounded down to 0
	octave 2
	note C#, 8
	octave 1
	;note G_, 0 | WARNING: Rounded down to 0
	octave 2
	;note C_, 0 | WARNING: Rounded down to 0
	note D#, 8
;Bar 72
	octave 1
	;note F_, 0 | WARNING: Rounded down to 0
	;note G#, 0 | WARNING: Rounded down to 0
	octave 2
	note C_, 8
	octave 1
	;note F_, 0 | WARNING: Rounded down to 0
	;note A#, 0 | WARNING: Rounded down to 0
	octave 2
	note C#, 8
;Bar 73
	;note D#, 0 | WARNING: Rounded down to 0
	;note C_, 0 | WARNING: Rounded down to 0
	octave 1
	note F_, 8
	octave 2
	;note C#, 0 | WARNING: Rounded down to 0
	octave 1
	;note F_, 0 | WARNING: Rounded down to 0
	note A#, 8
;Bar 74
	volume_envelope 12, 7
	;note A#, 0 | WARNING: Rounded down to 0
	octave 2
	;note G_, 0 | WARNING: Rounded down to 0
	note D#, 16
;Bar 75
	octave 1
	;note G#, 0 | WARNING: Rounded down to 0
	octave 2
	;note C#, 0 | WARNING: Rounded down to 0
	note F_, 16
;Bar 76
	;note G_, 0 | WARNING: Rounded down to 0
	;note D#, 0 | WARNING: Rounded down to 0
	octave 1
	note A#, 16
;Bar 77
	;note G#, 0 | WARNING: Rounded down to 0
	octave 2
	;note C#, 0 | WARNING: Rounded down to 0
	note F_, 16
;Bar 78
	;note F_, 0 | WARNING: Rounded down to 0
	octave 1
	;note A#, 0 | WARNING: Rounded down to 0
	octave 2
	note C#, 8
	octave 1
	;note G_, 0 | WARNING: Rounded down to 0
	octave 2
	;note C_, 0 | WARNING: Rounded down to 0
	note D#, 8
;Bar 79
	octave 1
	volume_envelope 15, 7
	;note F_, 0 | WARNING: Rounded down to 0
	;note G#, 0 | WARNING: Rounded down to 0
	octave 2
	note C_, 8
	octave 1
	;note F_, 0 | WARNING: Rounded down to 0
	;note A#, 0 | WARNING: Rounded down to 0
	octave 2
	note C#, 8
;Bar 80
	;note D#, 0 | WARNING: Rounded down to 0
	;note C_, 0 | WARNING: Rounded down to 0
	octave 1
	note F_, 8
	octave 2
	;note C#, 0 | WARNING: Rounded down to 0
	octave 1
	;note F_, 0 | WARNING: Rounded down to 0
	note A#, 8
;Bar 81
	;note F_, 0 | WARNING: Rounded down to 0
	;note G#, 0 | WARNING: Rounded down to 0
	octave 2
	note C_, 8
	octave 1
	;note F_, 0 | WARNING: Rounded down to 0
	;note A#, 0 | WARNING: Rounded down to 0
	octave 2
	note C#, 8
;Bar 82
	;note D#, 0 | WARNING: Rounded down to 0
	;note C_, 0 | WARNING: Rounded down to 0
	octave 1
	note F_, 8
	octave 2
	;note C#, 0 | WARNING: Rounded down to 0
	octave 1
	;note F_, 0 | WARNING: Rounded down to 0
	note A#, 8
;Bar 83
	;note F_, 0 | WARNING: Rounded down to 0
	;note G#, 0 | WARNING: Rounded down to 0
	octave 2
	note C_, 8
	octave 1
	;note F_, 0 | WARNING: Rounded down to 0
	;note A#, 0 | WARNING: Rounded down to 0
	octave 2
	note C#, 8
;Bar 84
	;note D#, 0 | WARNING: Rounded down to 0
	;note C_, 0 | WARNING: Rounded down to 0
	octave 1
	note F_, 8
	octave 2
	;note C#, 0 | WARNING: Rounded down to 0
	octave 1
	;note F_, 0 | WARNING: Rounded down to 0
	note A#, 8
;Bar 85
	;note F_, 0 | WARNING: Rounded down to 0
	;note G#, 0 | WARNING: Rounded down to 0
	octave 2
	note C_, 8
	octave 1
	;note F_, 0 | WARNING: Rounded down to 0
	;note A#, 0 | WARNING: Rounded down to 0
	octave 2
	note C#, 8
;Bar 86
	;note D#, 0 | WARNING: Rounded down to 0
	;note C_, 0 | WARNING: Rounded down to 0
	octave 1
	note F_, 8
	octave 2
	;note C#, 0 | WARNING: Rounded down to 0
	octave 1
	;note F_, 0 | WARNING: Rounded down to 0
	note A#, 8
;Bar 87
	;note G_, 0 | WARNING: Rounded down to 0
	octave 2
	;note C_, 0 | WARNING: Rounded down to 0
	note D#, 8
	octave 1
	;note G#, 0 | WARNING: Rounded down to 0
	octave 2
	;note C#, 0 | WARNING: Rounded down to 0
	note F_, 8
;Bar 88
	octave 1
	;note G_, 0 | WARNING: Rounded down to 0
	octave 2
	;note C_, 0 | WARNING: Rounded down to 0
	note D#, 8
	octave 1
	;note F_, 0 | WARNING: Rounded down to 0
	;note A#, 0 | WARNING: Rounded down to 0
	octave 2
	note C#, 8
;Bar 89
	octave 1
	;note G_, 0 | WARNING: Rounded down to 0
	octave 2
	;note C_, 0 | WARNING: Rounded down to 0
	note D#, 8
	octave 1
	;note F_, 0 | WARNING: Rounded down to 0
	;note G#, 0 | WARNING: Rounded down to 0
	octave 2
	note C_, 8
;Bar 90
	octave 1
	;note F_, 0 | WARNING: Rounded down to 0
	;note A#, 0 | WARNING: Rounded down to 0
	octave 2
	note C#, 8
	;note D#, 0 | WARNING: Rounded down to 0
	;note C_, 0 | WARNING: Rounded down to 0
	octave 1
	note F_, 8
;Bar 91
	octave 2
	;note C#, 0 | WARNING: Rounded down to 0
	octave 1
	;note F_, 0 | WARNING: Rounded down to 0
	note A#, 8
	;note F_, 0 | WARNING: Rounded down to 0
	;note G#, 0 | WARNING: Rounded down to 0
	octave 2
	note C_, 8
;Bar 92
	octave 1
	;note F_, 0 | WARNING: Rounded down to 0
	;note A#, 0 | WARNING: Rounded down to 0
	octave 2
	note C#, 8
	;note D#, 0 | WARNING: Rounded down to 0
	;note C_, 0 | WARNING: Rounded down to 0
	octave 1
	note F_, 8
;Bar 93
	octave 2
	;note C#, 0 | WARNING: Rounded down to 0
	octave 1
	;note F_, 0 | WARNING: Rounded down to 0
	note A#, 8
	;note F_, 0 | WARNING: Rounded down to 0
	;note G#, 0 | WARNING: Rounded down to 0
	octave 2
	note C_, 8
;Bar 94
	octave 1
	;note F_, 0 | WARNING: Rounded down to 0
	;note A#, 0 | WARNING: Rounded down to 0
	octave 2
	note C#, 8
	;note D#, 0 | WARNING: Rounded down to 0
	;note C_, 0 | WARNING: Rounded down to 0
	octave 1
	note F_, 8
;Bar 95
	octave 2
	;note C#, 0 | WARNING: Rounded down to 0
	octave 1
	;note F_, 0 | WARNING: Rounded down to 0
	note A#, 8
	;note G_, 0 | WARNING: Rounded down to 0
	octave 2
	;note C_, 0 | WARNING: Rounded down to 0
	note D#, 8
;Bar 96
	octave 1
	;note G#, 0 | WARNING: Rounded down to 0
	octave 2
	;note C#, 0 | WARNING: Rounded down to 0
	note F_, 8
	octave 1
	;note G_, 0 | WARNING: Rounded down to 0
	octave 2
	;note C_, 0 | WARNING: Rounded down to 0
	note D#, 8
;Bar 97
	octave 1
	;note F_, 0 | WARNING: Rounded down to 0
	;note A#, 0 | WARNING: Rounded down to 0
	octave 2
	note C#, 8
	octave 1
	;note G_, 0 | WARNING: Rounded down to 0
	octave 2
	;note C_, 0 | WARNING: Rounded down to 0
	note D#, 8
;Bar 98
	octave 1
	;note F_, 0 | WARNING: Rounded down to 0
	;note G#, 0 | WARNING: Rounded down to 0
	octave 2
	note C_, 8
	octave 1
	;note F_, 0 | WARNING: Rounded down to 0
	;note A#, 0 | WARNING: Rounded down to 0
	octave 2
	note C#, 8
;Bar 99
	;note D#, 0 | WARNING: Rounded down to 0
	;note C_, 0 | WARNING: Rounded down to 0
	octave 1
	note F_, 8
	octave 2
	;note C#, 0 | WARNING: Rounded down to 0
	octave 1
	;note F_, 0 | WARNING: Rounded down to 0
	note A#, 8
	sound_loop 0, .mainloop

; ============================================================================================================

Music_OceanWinter_Ch3:
	note_type 12, 1, 0
.mainloop
;Bar 1
	volume_envelope 1, 0
	octave 2
	volume_envelope 2, 0
	note F_, 1
	rest 1
	octave 3
	note C_, 1
	rest 1
	octave 2
	note G#, 1
	rest 1
	octave 3
	note C_, 1
	rest 1
	octave 2
	note F_, 1
	rest 1
	octave 3
	note C#, 1
	rest 1
;Bar 2
	octave 2
	note A#, 1
	rest 1
	octave 3
	note C#, 1
	rest 1
	octave 2
	note F_, 1
	rest 1
	octave 3
	note D#, 1
	rest 1
	note C_, 1
	rest 1
	note D#, 1
	rest 1
	octave 2
	note F_, 1
	rest 1
	octave 3
	note C#, 1
	rest 1
;Bar 3
	octave 2
	note A#, 1
	rest 1
	octave 3
	note C#, 1
	rest 1
	octave 2
	note F_, 1
	rest 1
	octave 3
	note C_, 1
	rest 1
	octave 2
	note G#, 1
	rest 1
	octave 3
	note C_, 1
	rest 1
	octave 2
	note F_, 1
	rest 1
	octave 3
	note C#, 1
	rest 1
;Bar 4
	octave 2
	note A#, 1
	rest 1
	octave 3
	volume_envelope 1, 0
	note C#, 1
	rest 1
	octave 2
	note F_, 1
	rest 1
	octave 3
	note D#, 1
	rest 1
	note C_, 1
	rest 1
	note D#, 1
	rest 1
	octave 2
	note F_, 1
	rest 1
	octave 3
	note C#, 1
	rest 1
;Bar 5
	octave 2
	note A#, 1
	rest 1
	octave 3
	note C#, 1
	rest 1
	octave 2
	note F_, 1
	rest 1
	octave 3
	note C_, 1
	rest 1
	octave 2
	note G#, 1
	rest 1
	octave 3
	note C_, 1
	rest 1
	octave 2
	note F_, 1
	rest 1
	octave 3
	note C#, 1
	rest 1
;Bar 6
	octave 2
	note A#, 1
	rest 1
	octave 3
	note C#, 1
	rest 1
	octave 2
	note F_, 1
	rest 1
	octave 3
	note D#, 1
	rest 1
	note C_, 1
	rest 1
	note D#, 1
	rest 1
	octave 2
	note F_, 1
	rest 1
	octave 3
	note C#, 1
	rest 1
;Bar 7
	octave 2
	note A#, 1
	rest 1
	octave 3
	note C#, 1
	rest 1
	octave 2
	note F_, 1
	rest 1
	octave 3
	note C_, 1
	rest 1
	octave 2
	note G#, 1
	rest 1
	octave 3
	note C_, 1
	rest 1
	octave 2
	note F_, 1
	rest 1
	octave 3
	note C#, 1
	rest 1
;Bar 8
	octave 2
	note A#, 1
	rest 1
	octave 3
	note C#, 1
	rest 1
	octave 2
	note F_, 1
	rest 1
	octave 3
	note D#, 1
	rest 1
	note C_, 1
	rest 1
	note D#, 1
	rest 1
	octave 2
	note F_, 1
	rest 1
	octave 3
	note C#, 1
	rest 1
;Bar 9
	octave 2
	note A#, 1
	rest 1
	octave 3
	note C#, 1
	rest 1
	octave 2
	note D#, 1
	rest 1
	octave 3
	note C_, 1
	rest 1
	octave 2
	note G_, 1
	rest 1
	octave 3
	note C_, 1
	rest 1
	octave 2
	note C#, 1
	rest 1
	note G#, 1
	rest 1
;Bar 10
	note F_, 1
	rest 1
	note G#, 1
	rest 1
	note C_, 1
	rest 1
	note G_, 1
	rest 1
	note D#, 1
	rest 1
	note G_, 1
	rest 1
	octave 1
	note A#, 1
	rest 1
	octave 2
	note F_, 1
	rest 1
;Bar 11
	note C#, 1
	rest 1
	note F_, 2
	note C_, 1
	rest 1
	note G_, 1
	rest 1
	note D#, 1
	rest 1
	note G_, 2
	note F_, 1
	rest 1
	octave 3
	note C_, 1
	rest 1
;Bar 12
	octave 2
	note G#, 1
	rest 1
	octave 3
	note C_, 1
	rest 1
	octave 2
	note F_, 1
	rest 1
	octave 3
	note C#, 1
	rest 1
	octave 2
	note A#, 1
	rest 1
	octave 3
	note C#, 1
	rest 1
	octave 2
	note F_, 1
	rest 1
	octave 3
	note D#, 1
	rest 1
;Bar 13
	note C_, 1
	rest 1
	note D#, 1
	rest 1
	octave 2
	note F_, 1
	rest 1
	octave 3
	note C#, 1
	rest 1
	octave 2
	note A#, 1
	rest 1
	octave 3
	note C#, 1
	rest 1
	octave 2
	note F_, 1
	rest 1
	octave 3
	note C_, 1
	rest 1
;Bar 14
	octave 2
	note G#, 1
	rest 1
	octave 3
	note C_, 1
	rest 1
	octave 2
	note F_, 1
	rest 1
	octave 3
	note C#, 1
	rest 1
	octave 2
	note A#, 1
	rest 1
	octave 3
	note C#, 1
	rest 1
	octave 2
	note F_, 1
	rest 1
	octave 3
	note D#, 1
	rest 1
;Bar 15
	note C_, 1
	rest 1
	note D#, 1
	rest 1
	octave 2
	note F_, 1
	rest 1
	octave 3
	note C#, 1
	rest 1
	octave 2
	note A#, 1
	rest 1
	octave 3
	note C#, 1
	rest 1
	octave 2
	note F_, 1
	rest 1
	octave 3
	note C_, 1
	rest 1
;Bar 16
	octave 2
	note G#, 1
	rest 1
	octave 3
	note C_, 1
	rest 1
	octave 2
	note F_, 1
	rest 1
	octave 3
	note C#, 1
	rest 1
	octave 2
	note A#, 1
	rest 1
	octave 3
	note C#, 1
	rest 1
	octave 2
	note F_, 1
	rest 1
	octave 3
	note D#, 1
	rest 1
;Bar 17
	note C_, 1
	rest 1
	note D#, 1
	rest 1
	octave 2
	note F_, 1
	rest 1
	octave 3
	note C#, 1
	rest 1
	octave 2
	note A#, 1
	rest 1
	octave 3
	note C#, 1
	rest 1
	octave 2
	note D#, 1
	rest 1
	octave 3
	note C_, 1
	rest 1
;Bar 18
	octave 2
	note G_, 1
	rest 1
	octave 3
	note C_, 1
	rest 1
	octave 2
	note C#, 1
	rest 1
	note G#, 1
	rest 1
	note F_, 1
	rest 1
	note G#, 1
	rest 1
	note C_, 1
	rest 1
	note G_, 1
	rest 1
;Bar 19
	note D#, 1
	rest 1
	note G_, 1
	rest 1
	octave 1
	note A#, 1
	rest 1
	octave 2
	note F_, 1
	rest 1
	note C#, 1
	rest 1
	note F_, 2
	note C_, 1
	rest 1
	note G_, 1
	rest 1
;Bar 20
	note D#, 1
	rest 1
	note G_, 2
	note F_, 1
	rest 1
	octave 3
	note C_, 1
	rest 1
	octave 2
	note G#, 1
	rest 1
	octave 3
	note C_, 1
	rest 1
	octave 2
	note F_, 1
	rest 1
	octave 3
	note C#, 1
	rest 1
;Bar 21
	octave 2
	note A#, 1
	rest 1
	octave 3
	note C#, 1
	rest 1
	octave 2
	note F_, 1
	rest 1
	octave 3
	note D#, 1
	rest 1
	note C_, 1
	rest 1
	note D#, 1
	rest 1
	octave 2
	note F_, 1
	rest 1
	octave 3
	note C#, 1
	rest 1
;Bar 22
	octave 2
	note A#, 1
	rest 1
	octave 3
	note C#, 1
	rest 16
	rest 16
	rest 16
	rest 16
	rest 16
	rest 1
;Bar 27
	octave 2
	note F_, 1
	rest 1
	octave 3
	note C_, 1
	rest 1
	octave 2
	note G#, 1
	rest 1
	octave 3
	note C_, 1
	rest 1
	octave 2
	note F_, 1
	rest 1
	octave 3
	note C#, 1
	rest 1
;Bar 28
	octave 2
	note A#, 1
	rest 1
	octave 3
	note C#, 1
	rest 1
	octave 2
	note F_, 1
	rest 1
	octave 3
	note D#, 1
	rest 1
	note C_, 1
	rest 1
	note D#, 1
	rest 1
	octave 2
	note F_, 1
	rest 1
	octave 3
	note C#, 1
	rest 1
;Bar 29
	octave 2
	note A#, 1
	rest 1
	octave 3
	note C#, 1
	rest 1
	octave 2
	note F_, 1
	rest 1
	octave 3
	note C_, 1
	rest 1
	octave 2
	note G#, 1
	rest 1
	octave 3
	note C_, 1
	rest 1
	octave 2
	note F_, 1
	rest 1
	octave 3
	note C#, 1
	rest 1
;Bar 30
	octave 2
	note A#, 1
	rest 1
	octave 3
	note C#, 1
	rest 1
	octave 2
	note F_, 1
	rest 1
	octave 3
	note D#, 1
	rest 1
	note C_, 1
	rest 1
	note D#, 1
	rest 1
	octave 2
	note F_, 1
	rest 1
	octave 3
	note C#, 1
	rest 1
;Bar 31
	octave 2
	note A#, 1
	rest 1
	octave 3
	note C#, 1
	rest 1
	octave 2
	note F_, 1
	rest 1
	octave 3
	note C_, 1
	rest 1
	octave 2
	note G#, 1
	rest 1
	octave 3
	note C_, 1
	rest 1
	octave 2
	note F_, 1
	rest 1
	octave 3
	note C#, 1
	rest 1
;Bar 32
	octave 2
	note A#, 1
	rest 1
	octave 3
	note C#, 1
	rest 1
	octave 2
	note F_, 1
	rest 1
	octave 3
	note D#, 1
	rest 1
	note C_, 1
	rest 1
	note D#, 1
	rest 1
	octave 2
	note F_, 1
	rest 1
	octave 3
	note C#, 1
	rest 1
;Bar 33
	octave 2
	note A#, 1
	rest 1
	octave 3
	note C#, 1
	rest 1
	octave 2
	note F_, 1
	rest 1
	octave 3
	note C_, 1
	rest 1
	octave 2
	note G#, 1
	rest 1
	octave 3
	note C_, 1
	rest 1
	octave 2
	note F_, 1
	rest 1
	octave 3
	note C#, 1
	rest 1
;Bar 34
	octave 2
	note A#, 1
	rest 1
	octave 3
	note C#, 1
	rest 1
	octave 2
	note F_, 1
	rest 1
	octave 3
	note D#, 1
	rest 1
	note C_, 1
	rest 1
	note D#, 1
	rest 1
	octave 2
	note F_, 1
	rest 1
	octave 3
	note C#, 1
	rest 1
;Bar 35
	octave 2
	note A#, 1
	rest 1
	octave 3
	note C#, 1
	rest 1
	octave 2
	note D#, 1
	rest 1
	octave 3
	note C_, 1
	rest 1
	octave 2
	note G_, 1
	rest 1
	octave 3
	note C_, 1
	rest 1
	octave 2
	note C#, 1
	rest 1
	note G#, 1
	rest 1
;Bar 36
	note F_, 1
	rest 1
	note G#, 1
	rest 1
	note C_, 1
	rest 1
	note G_, 1
	rest 1
	note D#, 1
	rest 1
	note G_, 1
	rest 1
	octave 1
	note A#, 1
	rest 1
	octave 2
	note F_, 1
	rest 1
;Bar 37
	note C#, 1
	rest 1
	note F_, 2
	note C_, 1
	rest 1
	note G_, 1
	rest 1
	note D#, 1
	rest 1
	note G_, 2
	note F_, 1
	rest 1
	octave 3
	note C_, 1
	rest 1
;Bar 38
	octave 2
	note G#, 1
	rest 1
	octave 3
	note C_, 1
	rest 1
	octave 2
	note F_, 1
	rest 1
	octave 3
	note C#, 1
	rest 1
	octave 2
	note A#, 1
	rest 1
	octave 3
	note C#, 1
	rest 1
	octave 2
	note F_, 1
	rest 1
	octave 3
	note D#, 1
	rest 1
;Bar 39
	note C_, 1
	rest 1
	note D#, 1
	rest 1
	octave 2
	note F_, 1
	rest 1
	octave 3
	note C#, 1
	rest 1
	octave 2
	note A#, 1
	rest 1
	octave 3
	note C#, 1
	rest 1
	octave 2
	note F_, 1
	rest 1
	octave 3
	note C_, 1
	rest 1
;Bar 40
	octave 2
	note G#, 1
	rest 1
	octave 3
	note C_, 1
	rest 1
	octave 2
	note F_, 1
	rest 1
	octave 3
	note C#, 1
	rest 1
	octave 2
	note A#, 1
	rest 1
	octave 3
	note C#, 1
	rest 1
	octave 2
	note F_, 1
	rest 1
	octave 3
	note D#, 1
	rest 1
;Bar 41
	note C_, 1
	rest 1
	note D#, 1
	rest 1
	octave 2
	note F_, 1
	rest 1
	octave 3
	note C#, 1
	rest 1
	octave 2
	note A#, 1
	rest 1
	octave 3
	note C#, 1
	rest 1
	octave 2
	note F_, 1
	rest 1
	octave 3
	note C_, 1
	rest 1
;Bar 42
	octave 2
	note G#, 1
	rest 1
	octave 3
	note C_, 1
	rest 1
	octave 2
	note F_, 1
	rest 1
	octave 3
	note C#, 1
	rest 1
	octave 2
	note A#, 1
	rest 1
	octave 3
	note C#, 1
	rest 1
	octave 2
	note F_, 1
	rest 1
	octave 3
	note D#, 1
	rest 1
;Bar 43
	note C_, 1
	rest 1
	note D#, 1
	rest 1
	octave 2
	note F_, 1
	rest 1
	octave 3
	note C#, 1
	rest 1
	octave 2
	note A#, 1
	rest 1
	octave 3
	note C#, 1
	rest 1
	octave 2
	note D#, 1
	rest 1
	octave 3
	note C_, 1
	rest 1
;Bar 44
	octave 2
	note G_, 1
	rest 1
	octave 3
	note C_, 1
	rest 1
	octave 2
	note C#, 1
	rest 1
	note G#, 1
	rest 1
	note F_, 1
	rest 1
	note G#, 1
	rest 1
	note C_, 1
	rest 1
	note G_, 1
	rest 1
;Bar 45
	note D#, 1
	rest 1
	note G_, 1
	rest 1
	octave 1
	note A#, 1
	rest 1
	octave 2
	note F_, 1
	rest 1
	note C#, 1
	rest 1
	note F_, 2
	note C_, 1
	rest 1
	note G_, 1
	rest 1
;Bar 46
	note D#, 1
	rest 1
	note G_, 2
	note F_, 1
	rest 1
	octave 3
	note C_, 1
	rest 1
	octave 2
	note G#, 1
	rest 1
	octave 3
	note C_, 1
	rest 1
	octave 2
	note F_, 1
	rest 1
	octave 3
	note C#, 1
	rest 1
;Bar 47
	octave 2
	note A#, 1
	rest 1
	octave 3
	note C#, 1
	rest 1
	octave 2
	note F_, 1
	rest 1
	octave 3
	note D#, 1
	rest 1
	note C_, 1
	rest 1
	note D#, 1
	rest 1
	octave 2
	note F_, 1
	rest 1
	octave 3
	note C#, 1
	rest 1
;Bar 48
	octave 2
	note A#, 1
	rest 1
	octave 3
	note C#, 1
	rest 16
	rest 16
	rest 16
	rest 16
	rest 16
	rest 1
;Bar 53
	octave 2
	note F_, 1
	rest 1
	octave 3
	note C_, 1
	rest 1
	octave 2
	note G#, 1
	rest 1
	octave 3
	note C_, 1
	rest 1
	octave 2
	note F_, 1
	rest 1
	octave 3
	note C#, 1
	rest 1
;Bar 54
	octave 2
	note A#, 1
	rest 1
	octave 3
	note C#, 1
	rest 1
	octave 2
	note F_, 1
	rest 1
	octave 3
	note D#, 1
	rest 1
	note C_, 1
	rest 1
	note D#, 1
	rest 1
	octave 2
	note F_, 1
	rest 1
	octave 3
	note C#, 1
	rest 1
;Bar 55
	octave 2
	note A#, 1
	rest 1
	octave 3
	note C#, 1
	rest 1
	octave 2
	note F_, 1
	rest 1
	octave 3
	note C_, 1
	rest 1
	octave 2
	note G#, 1
	rest 1
	octave 3
	note C_, 1
	rest 1
	octave 2
	note F_, 1
	rest 1
	octave 3
	note C#, 1
	rest 1
;Bar 56
	octave 2
	note A#, 1
	rest 1
	octave 3
	note C#, 1
	rest 1
	octave 2
	note F_, 1
	rest 1
	octave 3
	note D#, 1
	rest 1
	note C_, 1
	rest 1
	note D#, 1
	rest 1
	octave 2
	note F_, 1
	rest 1
	octave 3
	note C#, 1
	rest 1
;Bar 57
	octave 2
	note A#, 1
	rest 1
	octave 3
	note C#, 1
	rest 1
	octave 2
	note F_, 1
	rest 1
	octave 3
	note C_, 1
	rest 1
	octave 2
	note G#, 1
	rest 1
	octave 3
	note C_, 1
	rest 1
	octave 2
	note F_, 1
	rest 1
	octave 3
	note C#, 1
	rest 1
;Bar 58
	octave 2
	note A#, 1
	rest 1
	octave 3
	note C#, 1
	rest 1
	octave 2
	note F_, 1
	rest 1
	octave 3
	note D#, 1
	rest 1
	note C_, 1
	rest 1
	note D#, 1
	rest 1
	octave 2
	note F_, 1
	rest 1
	octave 3
	note C#, 1
	rest 1
;Bar 59
	octave 2
	note A#, 1
	rest 1
	octave 3
	note C#, 1
	rest 1
	octave 2
	note F_, 1
	rest 1
	octave 3
	note C_, 1
	rest 1
	octave 2
	note G#, 1
	rest 1
	octave 3
	note C_, 1
	rest 1
	octave 2
	note F_, 1
	rest 1
	octave 3
	note C#, 1
	rest 1
;Bar 60
	octave 2
	note A#, 1
	rest 1
	octave 3
	note C#, 1
	rest 1
	octave 2
	note F_, 1
	rest 1
	octave 3
	note D#, 1
	rest 1
	note C_, 1
	rest 1
	note D#, 1
	rest 1
	octave 2
	note F_, 1
	rest 1
	octave 3
	note C#, 1
	rest 1
;Bar 61
	octave 2
	note A#, 1
	rest 1
	octave 3
	note C#, 1
	rest 1
	octave 2
	note D#, 1
	rest 1
	octave 3
	note C_, 1
	rest 1
	octave 2
	note G_, 1
	rest 1
	octave 3
	note C_, 1
	rest 1
	octave 2
	note C#, 1
	rest 1
	note G#, 1
	rest 1
;Bar 62
	note F_, 1
	rest 1
	note G#, 1
	rest 1
	note C_, 1
	rest 1
	note G_, 1
	rest 1
	note D#, 1
	rest 1
	note G_, 1
	rest 1
	octave 1
	note A#, 1
	rest 1
	octave 2
	note F_, 1
	rest 1
;Bar 63
	note C#, 1
	rest 1
	note F_, 2
	note C_, 1
	rest 1
	note G_, 1
	rest 1
	note D#, 1
	rest 1
	note G_, 2
	note F_, 1
	rest 1
	octave 3
	note C_, 1
	rest 1
;Bar 64
	octave 2
	note G#, 1
	rest 1
	octave 3
	note C_, 1
	rest 1
	octave 2
	note F_, 1
	rest 1
	octave 3
	note C#, 1
	rest 1
	octave 2
	note A#, 1
	rest 1
	octave 3
	note C#, 1
	rest 1
	octave 2
	note F_, 1
	rest 1
	octave 3
	note D#, 1
	rest 1
;Bar 65
	note C_, 1
	rest 1
	note D#, 1
	rest 1
	octave 2
	note F_, 1
	rest 1
	octave 3
	note C#, 1
	rest 1
	octave 2
	note A#, 1
	rest 1
	octave 3
	note C#, 1
	rest 1
	octave 2
	note F_, 1
	rest 1
	octave 3
	note C_, 1
	rest 1
;Bar 66
	octave 2
	note G#, 1
	rest 1
	octave 3
	note C_, 1
	rest 1
	octave 2
	note F_, 1
	rest 1
	octave 3
	note C#, 1
	rest 1
	octave 2
	note A#, 1
	rest 1
	octave 3
	note C#, 1
	rest 1
	octave 2
	note F_, 1
	rest 1
	octave 3
	note D#, 1
	rest 1
;Bar 67
	note C_, 1
	rest 1
	note D#, 1
	rest 1
	octave 2
	note F_, 1
	rest 1
	octave 3
	note C#, 1
	rest 1
	octave 2
	note A#, 1
	rest 1
	octave 3
	note C#, 1
	rest 1
	octave 2
	note F_, 1
	rest 1
	octave 3
	note C_, 1
	rest 1
;Bar 68
	octave 2
	note G#, 1
	rest 1
	octave 3
	note C_, 1
	rest 1
	octave 2
	note F_, 1
	rest 1
	octave 3
	note C#, 1
	rest 1
	octave 2
	note A#, 1
	rest 1
	octave 3
	note C#, 1
	rest 1
	octave 2
	note F_, 1
	rest 1
	octave 3
	note D#, 1
	rest 1
;Bar 69
	note C_, 1
	rest 1
	note D#, 1
	rest 1
	octave 2
	note F_, 1
	rest 1
	octave 3
	note C#, 1
	rest 1
	octave 2
	note A#, 1
	rest 1
	octave 3
	note C#, 1
	rest 1
	octave 2
	note D#, 1
	rest 1
	octave 3
	note C_, 1
	rest 1
;Bar 70
	octave 2
	note G_, 1
	rest 1
	octave 3
	note C_, 1
	rest 1
	octave 2
	note C#, 1
	rest 1
	note G#, 1
	rest 1
	note F_, 1
	rest 1
	note G#, 1
	rest 1
	note C_, 1
	rest 1
	note G_, 1
	rest 1
;Bar 71
	note D#, 1
	rest 1
	note G_, 1
	rest 1
	octave 1
	note A#, 1
	rest 1
	octave 2
	note F_, 1
	rest 1
	note C#, 1
	rest 1
	note F_, 2
	note C_, 1
	rest 1
	note G_, 1
	rest 1
;Bar 72
	note D#, 1
	rest 1
	note G_, 2
	note F_, 1
	rest 1
	octave 3
	note C_, 1
	rest 1
	octave 2
	note G#, 1
	rest 1
	octave 3
	note C_, 1
	rest 1
	octave 2
	note F_, 1
	rest 1
	octave 3
	note C#, 1
	rest 1
;Bar 73
	octave 2
	note A#, 1
	rest 1
	octave 3
	note C#, 1
	rest 1
	octave 2
	note F_, 1
	rest 1
	octave 3
	note D#, 1
	rest 1
	note C_, 1
	rest 1
	note D#, 1
	rest 1
	octave 2
	note F_, 1
	rest 1
	octave 3
	note C#, 1
	rest 1
;Bar 74
	octave 2
	note A#, 1
	rest 1
	octave 3
	note C#, 1
	rest 16
	rest 16
	rest 16
	rest 16
	rest 16
	rest 1
;Bar 79
	octave 2
	note F_, 1
	rest 1
	octave 3
	note C_, 1
	rest 1
	octave 2
	note G#, 1
	rest 1
	octave 3
	note C_, 1
	rest 1
	octave 2
	note F_, 1
	rest 1
	octave 3
	note C#, 1
	rest 1
;Bar 80
	octave 2
	note A#, 1
	rest 1
	octave 3
	note C#, 1
	rest 1
	octave 2
	note F_, 1
	rest 1
	octave 3
	note D#, 1
	rest 1
	note C_, 1
	rest 1
	note D#, 1
	rest 1
	octave 2
	note F_, 1
	rest 1
	octave 3
	note C#, 1
	rest 1
;Bar 81
	octave 2
	note A#, 1
	rest 1
	octave 3
	note C#, 1
	rest 1
	octave 2
	note F_, 1
	rest 1
	octave 3
	note C_, 1
	rest 1
	octave 2
	note G#, 1
	rest 1
	octave 3
	note C_, 1
	rest 1
	octave 2
	note F_, 1
	rest 1
	octave 3
	note C#, 1
	rest 1
;Bar 82
	octave 2
	note A#, 1
	rest 1
	octave 3
	note C#, 1
	rest 1
	octave 2
	note F_, 1
	rest 1
	octave 3
	note D#, 1
	rest 1
	note C_, 1
	rest 1
	note D#, 1
	rest 1
	octave 2
	note F_, 1
	rest 1
	octave 3
	note C#, 1
	rest 1
;Bar 83
	octave 2
	note A#, 1
	rest 1
	octave 3
	note C#, 1
	rest 1
	octave 2
	note F_, 1
	rest 1
	octave 3
	note C_, 1
	rest 1
	octave 2
	note G#, 1
	rest 1
	octave 3
	note C_, 1
	rest 1
	octave 2
	note F_, 1
	rest 1
	octave 3
	note C#, 1
	rest 1
;Bar 84
	octave 2
	note A#, 1
	rest 1
	octave 3
	note C#, 1
	rest 1
	octave 2
	note F_, 1
	rest 1
	octave 3
	note D#, 1
	rest 1
	note C_, 1
	rest 1
	note D#, 1
	rest 1
	octave 2
	note F_, 1
	rest 1
	octave 3
	note C#, 1
	rest 1
;Bar 85
	octave 2
	note A#, 1
	rest 1
	octave 3
	note C#, 1
	rest 1
	octave 2
	note F_, 1
	rest 1
	octave 3
	note C_, 1
	rest 1
	octave 2
	note G#, 1
	rest 1
	octave 3
	note C_, 1
	rest 1
	octave 2
	note F_, 1
	rest 1
	octave 3
	note C#, 1
	rest 1
;Bar 86
	octave 2
	note A#, 1
	rest 1
	octave 3
	note C#, 1
	rest 1
	octave 2
	note F_, 1
	rest 1
	octave 3
	note D#, 1
	rest 1
	note C_, 1
	rest 1
	note D#, 1
	rest 1
	octave 2
	note F_, 1
	rest 1
	octave 3
	note C#, 1
	rest 1
;Bar 87
	octave 2
	note A#, 1
	rest 1
	octave 3
	note C#, 1
	rest 1
	octave 2
	note D#, 1
	rest 1
	octave 3
	note C_, 1
	rest 1
	octave 2
	note G_, 1
	rest 1
	octave 3
	note C_, 1
	rest 1
	octave 2
	note C#, 1
	rest 1
	note G#, 1
	rest 1
;Bar 88
	note F_, 1
	rest 1
	note G#, 1
	rest 1
	note C_, 1
	rest 1
	note G_, 1
	rest 1
	note D#, 1
	rest 1
	note G_, 1
	rest 1
	octave 1
	note A#, 1
	rest 1
	octave 2
	note F_, 1
	rest 1
;Bar 89
	note C#, 1
	rest 1
	note F_, 2
	note C_, 1
	rest 1
	note G_, 1
	rest 1
	note D#, 1
	rest 1
	note G_, 2
	note F_, 1
	rest 1
	octave 3
	note C_, 1
	rest 1
;Bar 90
	octave 2
	note G#, 1
	rest 1
	octave 3
	note C_, 1
	rest 1
	octave 2
	note F_, 1
	rest 1
	octave 3
	note C#, 1
	rest 1
	octave 2
	note A#, 1
	rest 1
	octave 3
	note C#, 1
	rest 1
	octave 2
	note F_, 1
	rest 1
	octave 3
	note D#, 1
	rest 1
;Bar 91
	note C_, 1
	rest 1
	note D#, 1
	rest 1
	octave 2
	note F_, 1
	rest 1
	octave 3
	note C#, 1
	rest 1
	octave 2
	note A#, 1
	rest 1
	octave 3
	note C#, 1
	rest 1
	octave 2
	note F_, 1
	rest 1
	octave 3
	note C_, 1
	rest 1
;Bar 92
	octave 2
	note G#, 1
	rest 1
	octave 3
	note C_, 1
	rest 1
	octave 2
	note F_, 1
	rest 1
	octave 3
	note C#, 1
	rest 1
	octave 2
	note A#, 1
	rest 1
	octave 3
	note C#, 1
	rest 1
	octave 2
	note F_, 1
	rest 1
	octave 3
	note D#, 1
	rest 1
;Bar 93
	note C_, 1
	rest 1
	note D#, 1
	rest 1
	octave 2
	note F_, 1
	rest 1
	octave 3
	note C#, 1
	rest 1
	octave 2
	note A#, 1
	rest 1
	octave 3
	note C#, 1
	rest 1
	octave 2
	note F_, 1
	rest 1
	octave 3
	note C_, 1
	rest 1
;Bar 94
	octave 2
	note G#, 1
	rest 1
	octave 3
	note C_, 1
	rest 1
	octave 2
	note F_, 1
	rest 1
	octave 3
	note C#, 1
	rest 1
	octave 2
	note A#, 1
	rest 1
	octave 3
	note C#, 1
	rest 1
	octave 2
	note F_, 1
	rest 1
	octave 3
	note D#, 1
	rest 1
;Bar 95
	note C_, 1
	rest 1
	note D#, 1
	rest 1
	octave 2
	note F_, 1
	rest 1
	octave 3
	note C#, 1
	rest 1
	octave 2
	note A#, 1
	rest 1
	octave 3
	note C#, 1
	rest 1
	octave 2
	note D#, 1
	rest 1
	octave 3
	note C_, 1
	rest 1
;Bar 96
	octave 2
	note G_, 1
	rest 1
	octave 3
	note C_, 1
	rest 1
	octave 2
	note C#, 1
	rest 1
	note G#, 1
	rest 1
	note F_, 1
	rest 1
	note G#, 1
	rest 1
	note C_, 1
	rest 1
	note G_, 1
	rest 1
;Bar 97
	note D#, 1
	rest 1
	note G_, 1
	rest 1
	octave 1
	note A#, 1
	rest 1
	octave 2
	note F_, 1
	rest 1
	note C#, 1
	rest 1
	note F_, 2
	note C_, 1
	rest 1
	note G_, 1
	rest 1
;Bar 98
	note D#, 1
	rest 1
	note G_, 2
	note F_, 1
	rest 1
	octave 3
	note C_, 1
	rest 1
	octave 2
	note G#, 1
	rest 1
	octave 3
	note C_, 1
	rest 1
	octave 2
	note F_, 1
	rest 1
	octave 3
	note C#, 1
	rest 1
;Bar 99
	octave 2
	note A#, 1
	rest 1
	octave 3
	note C#, 1
	rest 1
	octave 2
	note F_, 1
	rest 1
	octave 3
	note D#, 1
	rest 1
	note C_, 1
	rest 1
	note D#, 1
	rest 1
	octave 2
	note F_, 1
	rest 1
	octave 3
	note C#, 1
	rest 1
;Bar 100
	octave 2
	note A#, 1
	rest 1
	octave 3
	note C#, 2
	sound_loop 0, .mainloop

; ============================================================================================================

Music_OceanWinter_Ch4:
	toggle_noise 1
	drum_speed 12
.mainloop
;Bar 1
	drum_note 6, 16
	drum_note 6, 16
	drum_note 6, 16
	drum_note 6, 16
;Bar 5
	rest 16
	rest 16
	rest 16
	rest 16
	rest 16
	rest 16
	rest 16
	rest 16
	rest 16
	rest 16
	rest 16
	rest 16
	rest 16
	rest 16
	rest 16
	rest 16
	rest 16
;Bar 22
	drum_note 4, 2
	drum_note 4, 4
	drum_note 4, 2
	drum_note 4, 2
	drum_note 4, 4
;Bar 23
	drum_note 4, 2
	drum_note 2, 2
	drum_note 2, 4
	drum_note 2, 2
	drum_note 2, 2
	drum_note 2, 4
;Bar 24
	drum_note 2, 2
	drum_note 4, 2
	drum_note 4, 4
	drum_note 4, 2
	drum_note 4, 2
	drum_note 4, 4
;Bar 25
	drum_note 4, 2
	drum_note 2, 2
	drum_note 2, 4
	drum_note 2, 2
	drum_note 2, 2
	drum_note 2, 4
;Bar 26
	drum_note 2, 2
	drum_note 11, 2
	drum_note 11, 4
	drum_note 11, 2
	drum_note 1, 2
	drum_note 1, 4
;Bar 27
	drum_note 1, 2
	drum_note 6, 16
;Bar 28
	drum_note 6, 16
;Bar 29
	drum_note 6, 16
;Bar 30
	drum_note 6, 16
;Bar 31
	drum_note 6, 16
;Bar 32
	drum_note 6, 16
;Bar 33
	drum_note 6, 16
;Bar 34
	drum_note 6, 16
;Bar 35
	drum_note 4, 8
	drum_note 2, 8
;Bar 36
	drum_note 1, 8
	drum_note 11, 8
;Bar 37
	drum_note 1, 8
	drum_note 6, 16
;Bar 38
	drum_note 6, 16
;Bar 39
	drum_note 6, 16
;Bar 40
	drum_note 6, 16
;Bar 41
	drum_note 6, 16
;Bar 42
	drum_note 6, 16
;Bar 43
	drum_note 4, 8
;Bar 44
	drum_note 2, 8
	drum_note 1, 8
;Bar 45
	drum_note 11, 8
	drum_note 1, 8
;Bar 46
	drum_note 6, 16
;Bar 47
	drum_note 6, 16
;Bar 48
	drum_note 4, 2
	drum_note 4, 4
	drum_note 4, 2
	drum_note 4, 2
	drum_note 4, 4
;Bar 49
	drum_note 4, 2
	drum_note 2, 2
	drum_note 2, 4
	drum_note 2, 2
	drum_note 2, 2
	drum_note 2, 4
;Bar 50
	drum_note 2, 2
	drum_note 4, 2
	drum_note 4, 4
	drum_note 4, 2
	drum_note 4, 2
	drum_note 4, 4
;Bar 51
	drum_note 4, 2
	drum_note 2, 2
	drum_note 2, 4
	drum_note 2, 2
	drum_note 2, 2
	drum_note 2, 4
;Bar 52
	drum_note 2, 2
	drum_note 11, 2
	drum_note 11, 4
	drum_note 11, 2
	drum_note 1, 2
	drum_note 1, 4
;Bar 53
	drum_note 1, 2
	drum_note 6, 16
;Bar 54
	drum_note 6, 16
;Bar 55
	drum_note 6, 16
;Bar 56
	drum_note 6, 16
;Bar 57
	drum_note 6, 16
;Bar 58
	drum_note 6, 16
;Bar 59
	drum_note 6, 16
;Bar 60
	drum_note 6, 16
;Bar 61
	drum_note 4, 8
	drum_note 2, 8
;Bar 62
	drum_note 1, 8
	drum_note 11, 8
;Bar 63
	drum_note 1, 8
	drum_note 6, 16
;Bar 64
	drum_note 6, 16
;Bar 65
	drum_note 6, 16
;Bar 66
	drum_note 6, 16
;Bar 67
	drum_note 6, 16
;Bar 68
	drum_note 6, 16
;Bar 69
	drum_note 4, 8
;Bar 70
	drum_note 2, 8
	drum_note 1, 8
;Bar 71
	drum_note 11, 8
	drum_note 1, 8
;Bar 72
	drum_note 6, 16
;Bar 73
	drum_note 6, 16
;Bar 74
	drum_note 4, 2
	drum_note 4, 4
	drum_note 4, 2
	drum_note 4, 2
	drum_note 4, 4
;Bar 75
	drum_note 4, 2
	drum_note 2, 2
	drum_note 2, 4
	drum_note 2, 2
	drum_note 2, 2
	drum_note 2, 4
;Bar 76
	drum_note 2, 2
	drum_note 4, 2
	drum_note 4, 4
	drum_note 4, 2
	drum_note 4, 2
	drum_note 4, 4
;Bar 77
	drum_note 4, 2
	drum_note 2, 2
	drum_note 2, 4
	drum_note 2, 2
	drum_note 2, 2
	drum_note 2, 4
;Bar 78
	drum_note 2, 2
	drum_note 11, 2
	drum_note 11, 4
	drum_note 11, 2
	drum_note 1, 2
	drum_note 1, 4
;Bar 79
	drum_note 1, 2
	drum_note 6, 16
;Bar 80
	drum_note 6, 16
;Bar 81
	drum_note 6, 16
;Bar 82
	drum_note 6, 16
;Bar 83
	drum_note 6, 16
;Bar 84
	drum_note 6, 16
;Bar 85
	drum_note 6, 16
;Bar 86
	drum_note 6, 16
;Bar 87
	drum_note 4, 8
	drum_note 2, 8
;Bar 88
	drum_note 1, 8
	drum_note 11, 8
;Bar 89
	drum_note 1, 8
	drum_note 6, 16
;Bar 90
	drum_note 6, 16
;Bar 91
	drum_note 6, 16
;Bar 92
	drum_note 6, 16
;Bar 93
	drum_note 6, 16
;Bar 94
	drum_note 6, 16
;Bar 95
	drum_note 4, 8
;Bar 96
	drum_note 2, 8
	drum_note 1, 8
;Bar 97
	drum_note 11, 8
	drum_note 1, 8
;Bar 98
	drum_note 6, 16
;Bar 99
	drum_note 6, 16
	sound_loop 0, .mainloop

; ============================================================================================================

