;Coverted using MIDI2ASM
;Code by TriteHexagon
;Version 5.2.0 (16-Nov-2022)
;Visit github.com/TriteHexagon/Midi2ASM-Converter for up-to-date versions.

; ============================================================================================================

Music_Onward:
	channel_count 1
	channel 1, Music_Onward_Ch1
	channel 2, Music_Onward_Ch2
	channel 3, Music_Onward_Ch3
	channel 4, Music_Onward_Ch4

Music_Onward_Ch1:
	volume 7, 7
	duty_cycle 0
	note_type 12, 10, 7
	tempo 120
;Bar 1
	rest 2
	octave 3
	volume_envelope 5, 7
	;note E_, 0 | WARNING: Rounded down to 0
	volume_envelope 6, 7
	note A_, 1
	rest 1
	volume_envelope 5, 7
	;note E_, 0 | WARNING: Rounded down to 0
	volume_envelope 6, 7
	note A_, 1
	rest 3
	volume_envelope 5, 7
	;note E_, 0 | WARNING: Rounded down to 0
	volume_envelope 6, 7
	note A_, 1
	rest 1
	volume_envelope 5, 7
	;note E_, 0 | WARNING: Rounded down to 0
	volume_envelope 6, 7
	note A_, 1
	rest 3
	volume_envelope 5, 7
	;note E_, 0 | WARNING: Rounded down to 0
	volume_envelope 7, 7
	note A_, 1
	rest 3
;Bar 2
	volume_envelope 5, 7
	;note E_, 0 | WARNING: Rounded down to 0
	volume_envelope 7, 7
	note G_, 1
	rest 1
	volume_envelope 5, 7
	;note E_, 0 | WARNING: Rounded down to 0
	volume_envelope 6, 7
	note G_, 1
	rest 3
	volume_envelope 5, 7
	;note E_, 0 | WARNING: Rounded down to 0
	volume_envelope 6, 7
	note G_, 1
	rest 1
	volume_envelope 5, 7
	;note E_, 0 | WARNING: Rounded down to 0
	volume_envelope 6, 7
	note G_, 1
	rest 3
	volume_envelope 5, 7
	;note E_, 0 | WARNING: Rounded down to 0
	volume_envelope 6, 7
	;note G_, 0 | WARNING: Rounded down to 0
	octave 1
	;note G#, 0 | WARNING: Rounded down to 0
	octave 1
	volume_envelope 7, 7
	note G#, 2
;Bar 3
	octave 1
	volume_envelope 5, 7
	;note A_, 0 | WARNING: Rounded down to 0
	octave 1
	volume_envelope 7, 7
	note A_, 2
	octave 3
	volume_envelope 5, 7
	;note E_, 0 | WARNING: Rounded down to 0
	volume_envelope 6, 7
	note A_, 1
	rest 1
	volume_envelope 5, 7
	;note E_, 0 | WARNING: Rounded down to 0
	volume_envelope 6, 7
	note A_, 1
	rest 3
	volume_envelope 5, 7
	;note E_, 0 | WARNING: Rounded down to 0
	volume_envelope 6, 7
	note A_, 1
	rest 1
	volume_envelope 5, 7
	;note E_, 0 | WARNING: Rounded down to 0
	volume_envelope 6, 7
	note A_, 1
	rest 3
	volume_envelope 5, 7
	;note E_, 0 | WARNING: Rounded down to 0
	volume_envelope 6, 7
	;note A_, 0 | WARNING: Rounded down to 0
	octave 1
	;note B_, 0 | WARNING: Rounded down to 0
	octave 1
	volume_envelope 7, 7
	note B_, 2
;Bar 4
	volume_envelope 5, 7
	;note C_, 0 | WARNING: Rounded down to 0
	octave 2
	volume_envelope 7, 7
	note C_, 2
	octave 3
	volume_envelope 5, 7
	;note E_, 0 | WARNING: Rounded down to 0
	volume_envelope 6, 7
	note G_, 1
	rest 1
	volume_envelope 5, 7
	;note E_, 0 | WARNING: Rounded down to 0
	volume_envelope 6, 7
	note G_, 1
	rest 3
	volume_envelope 5, 7
	;note E_, 0 | WARNING: Rounded down to 0
	volume_envelope 6, 7
	note G_, 1
	rest 1
	volume_envelope 5, 7
	;note E_, 0 | WARNING: Rounded down to 0
	volume_envelope 6, 7
	note G_, 1
	rest 3
	volume_envelope 5, 7
	;note E_, 0 | WARNING: Rounded down to 0
	volume_envelope 6, 7
	;note G_, 0 | WARNING: Rounded down to 0
	octave 1
	;note G#, 0 | WARNING: Rounded down to 0
	octave 1
	volume_envelope 7, 7
	note G#, 2
;Bar 5
	octave 1
	volume_envelope 5, 7
	;note A_, 0 | WARNING: Rounded down to 0
	octave 1
	volume_envelope 7, 7
	note A_, 2
	octave 3
	volume_envelope 5, 7
	;note E_, 0 | WARNING: Rounded down to 0
	volume_envelope 6, 7
	note A_, 1
	rest 1
	volume_envelope 5, 7
	;note E_, 0 | WARNING: Rounded down to 0
	volume_envelope 6, 7
	note A_, 1
	rest 3
	volume_envelope 5, 7
	;note E_, 0 | WARNING: Rounded down to 0
	volume_envelope 6, 7
	note A_, 1
	rest 1
	volume_envelope 5, 7
	;note E_, 0 | WARNING: Rounded down to 0
	volume_envelope 6, 7
	note A_, 1
	rest 3
	volume_envelope 5, 7
	;note E_, 0 | WARNING: Rounded down to 0
	volume_envelope 6, 7
	;note A_, 0 | WARNING: Rounded down to 0
	octave 1
	;note G#, 0 | WARNING: Rounded down to 0
	octave 1
	volume_envelope 7, 7
	note G#, 2
;Bar 6
	octave 1
	volume_envelope 5, 7
	;note G_, 0 | WARNING: Rounded down to 0
	octave 1
	volume_envelope 7, 7
	note G_, 2
	octave 3
	volume_envelope 5, 7
	;note E_, 0 | WARNING: Rounded down to 0
	volume_envelope 6, 7
	note G_, 1
	rest 1
	volume_envelope 5, 7
	;note E_, 0 | WARNING: Rounded down to 0
	volume_envelope 6, 7
	note G_, 1
	rest 3
	volume_envelope 5, 7
	;note E_, 0 | WARNING: Rounded down to 0
	volume_envelope 6, 7
	note G_, 1
	rest 1
	volume_envelope 5, 7
	;note E_, 0 | WARNING: Rounded down to 0
	volume_envelope 6, 7
	note G_, 1
	rest 3
	volume_envelope 5, 7
	;note E_, 0 | WARNING: Rounded down to 0
	volume_envelope 6, 7
	;note G_, 0 | WARNING: Rounded down to 0
	octave 1
	;note G#, 0 | WARNING: Rounded down to 0
	octave 1
	volume_envelope 7, 7
	note G#, 2
;Bar 7
	octave 1
	volume_envelope 5, 7
	;note A_, 0 | WARNING: Rounded down to 0
	octave 1
	volume_envelope 7, 7
	note A_, 2
	octave 3
	volume_envelope 5, 7
	note A_, 2
	volume_envelope 6, 7
	;note E_, 0 | WARNING: Rounded down to 0
	rest 2
	volume_envelope 5, 7
	;note C_, 0 | WARNING: Rounded down to 0
	rest 2
	volume_envelope 6, 7
	;note A_, 0 | WARNING: Rounded down to 0
	rest 2
	volume_envelope 5, 7
	;note E_, 0 | WARNING: Rounded down to 0
	rest 2
	volume_envelope 7, 7
	;note C_, 0 | WARNING: Rounded down to 0
	rest 2
	octave 1
	volume_envelope 6, 7
	;note B_, 0 | WARNING: Rounded down to 0
	octave 1
	volume_envelope 7, 7
	note B_, 2
;Bar 8
	volume_envelope 5, 7
	;note C_, 0 | WARNING: Rounded down to 0
	octave 2
	volume_envelope 7, 7
	note C_, 2
	octave 3
	volume_envelope 5, 7
	note G_, 2
	volume_envelope 6, 7
	;note E_, 0 | WARNING: Rounded down to 0
	rest 2
	volume_envelope 5, 7
	;note C_, 0 | WARNING: Rounded down to 0
	rest 2
	volume_envelope 6, 7
	;note G_, 0 | WARNING: Rounded down to 0
	rest 2
	volume_envelope 5, 7
	;note E_, 0 | WARNING: Rounded down to 0
	rest 2
	volume_envelope 6, 7
	;note G_, 0 | WARNING: Rounded down to 0
	rest 2
	volume_envelope 5, 7
	;note A_, 0 | WARNING: Rounded down to 0
	octave 1
	volume_envelope 6, 7
	;note G#, 0 | WARNING: Rounded down to 0
	octave 1
	volume_envelope 7, 7
	note G#, 2
;Bar 9
	octave 1
	volume_envelope 5, 7
	;note A_, 0 | WARNING: Rounded down to 0
	octave 1
	volume_envelope 7, 7
	note A_, 2
	octave 3
	volume_envelope 5, 7
	note A_, 2
	volume_envelope 6, 7
	;note E_, 0 | WARNING: Rounded down to 0
	rest 2
	volume_envelope 5, 7
	;note C_, 0 | WARNING: Rounded down to 0
	rest 2
	volume_envelope 6, 7
	;note A_, 0 | WARNING: Rounded down to 0
	rest 2
	volume_envelope 5, 7
	;note E_, 0 | WARNING: Rounded down to 0
	rest 2
	volume_envelope 7, 7
	;note C_, 0 | WARNING: Rounded down to 0
	rest 2
	octave 1
	volume_envelope 6, 7
	;note G#, 0 | WARNING: Rounded down to 0
	octave 1
	volume_envelope 7, 7
	note G#, 2
;Bar 10
	octave 1
	volume_envelope 5, 7
	;note G_, 0 | WARNING: Rounded down to 0
	octave 1
	volume_envelope 7, 7
	note G_, 2
	octave 3
	volume_envelope 5, 7
	note G_, 2
	volume_envelope 6, 7
	;note E_, 0 | WARNING: Rounded down to 0
	rest 2
	octave 2
	volume_envelope 5, 7
	;note B_, 0 | WARNING: Rounded down to 0
	rest 2
	octave 3
	volume_envelope 6, 7
	;note G_, 0 | WARNING: Rounded down to 0
	rest 2
	volume_envelope 5, 7
	;note E_, 0 | WARNING: Rounded down to 0
	rest 2
	volume_envelope 6, 7
	;note G_, 0 | WARNING: Rounded down to 0
	rest 2
	volume_envelope 5, 7
	;note A_, 0 | WARNING: Rounded down to 0
	octave 1
	volume_envelope 6, 7
	;note G#, 0 | WARNING: Rounded down to 0
	octave 1
	volume_envelope 7, 7
	note G#, 2
;Bar 11
	octave 1
	volume_envelope 5, 7
	;note A_, 0 | WARNING: Rounded down to 0
	octave 1
	volume_envelope 7, 7
	note A_, 3
	rest 1
	octave 4
	note A_, 2
	note G_, 1
	rest 1
	note E_, 2
	note D_, 2
	;note C_, 0 | WARNING: Rounded down to 0
	rest 2
	;note D_, 0 | WARNING: Rounded down to 0
	octave 1
	volume_envelope 6, 7
	;note B_, 0 | WARNING: Rounded down to 0
	octave 1
	volume_envelope 7, 7
	note B_, 2
;Bar 12
	octave 4
	;note E_, 0 | WARNING: Rounded down to 0
	octave 1
	volume_envelope 5, 7
	;note C_, 0 | WARNING: Rounded down to 0
	octave 2
	volume_envelope 7, 7
	note C_, 2
	octave 4
	note G_, 1
	rest 3
	note E_, 2
	note G_, 4
	note A_, 2
	octave 1
	volume_envelope 6, 7
	;note G#, 0 | WARNING: Rounded down to 0
	octave 1
	volume_envelope 7, 7
	note G#, 2
;Bar 13
	octave 1
	volume_envelope 5, 7
	;note A_, 0 | WARNING: Rounded down to 0
	octave 1
	volume_envelope 7, 7
	note A_, 2
	rest 2
	octave 4
	note A_, 2
	note G_, 2
	note E_, 2
	note D_, 2
	note C_, 2
	;note D_, 0 | WARNING: Rounded down to 0
	octave 1
	volume_envelope 6, 7
	;note G#, 0 | WARNING: Rounded down to 0
	octave 1
	volume_envelope 8, 7
	note G#, 2
;Bar 14
	octave 3
	;note B_, 0 | WARNING: Rounded down to 0
	octave 1
	volume_envelope 6, 7
	;note G_, 0 | WARNING: Rounded down to 0
	octave 1
	volume_envelope 7, 7
	note G_, 8
	rest 6
	octave 1
	volume_envelope 6, 7
	;note G#, 0 | WARNING: Rounded down to 0
	octave 1
	volume_envelope 7, 7
	note G#, 2
;Bar 15
	octave 1
	volume_envelope 5, 7
	;note A_, 0 | WARNING: Rounded down to 0
	octave 1
	volume_envelope 7, 7
	note A_, 2
	rest 2
	octave 4
	note A_, 2
	note G_, 1
	rest 1
	note E_, 2
	note D_, 2
	note C_, 2
	;note D_, 0 | WARNING: Rounded down to 0
	octave 1
	volume_envelope 6, 7
	;note B_, 0 | WARNING: Rounded down to 0
	octave 1
	volume_envelope 8, 7
	note B_, 2
;Bar 16
	octave 4
	;note E_, 0 | WARNING: Rounded down to 0
	octave 1
	volume_envelope 6, 7
	;note C_, 0 | WARNING: Rounded down to 0
	octave 2
	volume_envelope 7, 7
	note C_, 2
	octave 4
	note G_, 1
	rest 3
	note E_, 2
	note G_, 4
	note A_, 2
	octave 1
	volume_envelope 6, 7
	;note G#, 0 | WARNING: Rounded down to 0
	octave 1
	volume_envelope 8, 7
	note G#, 2
;Bar 17
	octave 1
	volume_envelope 6, 7
	;note A_, 0 | WARNING: Rounded down to 0
	octave 1
	volume_envelope 7, 7
	note A_, 3
	rest 1
	octave 5
	note C_, 2
	octave 4
	note B_, 1
	rest 1
	note B_, 2
	note A_, 2
	;note G_, 0 | WARNING: Rounded down to 0
	rest 2
	;note E_, 0 | WARNING: Rounded down to 0
	octave 1
	volume_envelope 6, 7
	;note G#, 0 | WARNING: Rounded down to 0
	octave 1
	volume_envelope 7, 7
	note G#, 2
;Bar 18
	octave 4
	;note G_, 0 | WARNING: Rounded down to 0
	octave 1
	volume_envelope 5, 7
	;note G_, 0 | WARNING: Rounded down to 0
	octave 1
	volume_envelope 7, 7
	note G_, 2
	rest 8
	octave 1
	volume_envelope 6, 7
	;note B_, 0 | WARNING: Rounded down to 0
	octave 1
	volume_envelope 7, 7
	note B_, 2
	volume_envelope 5, 7
	;note C_, 0 | WARNING: Rounded down to 0
	octave 2
	volume_envelope 7, 7
	note C_, 2
	octave 1
	volume_envelope 6, 7
	;note C#, 0 | WARNING: Rounded down to 0
	octave 2
	volume_envelope 7, 7
	note C#, 2
;Bar 19
	octave 1
	volume_envelope 5, 7
	;note D_, 0 | WARNING: Rounded down to 0
	octave 2
	volume_envelope 7, 7
	note D_, 3
	rest 1
	octave 3
	note A_, 4
	octave 4
	note D_, 2
	octave 1
	volume_envelope 5, 7
	;note E_, 0 | WARNING: Rounded down to 0
	octave 1
	volume_envelope 7, 7
	note E_, 2
	octave 1
	volume_envelope 5, 7
	;note F_, 0 | WARNING: Rounded down to 0
	octave 1
	volume_envelope 7, 7
	note F_, 2
	octave 4
	;note C_, 0 | WARNING: Rounded down to 0
	octave 1
	volume_envelope 5, 7
	;note F#, 0 | WARNING: Rounded down to 0
	octave 1
	volume_envelope 7, 7
	note F#, 2
;Bar 20
	octave 4
	;note C_, 0 | WARNING: Rounded down to 0
	octave 1
	volume_envelope 5, 7
	;note G_, 0 | WARNING: Rounded down to 0
	octave 1
	volume_envelope 7, 7
	note G_, 2
	octave 3
	note B_, 2
	note B_, 5
	rest 1
	octave 1
	volume_envelope 6, 7
	;note B_, 0 | WARNING: Rounded down to 0
	octave 1
	volume_envelope 8, 7
	note B_, 2
	volume_envelope 6, 7
	;note C_, 0 | WARNING: Rounded down to 0
	octave 2
	volume_envelope 7, 7
	note C_, 2
	octave 1
	volume_envelope 6, 7
	;note C#, 0 | WARNING: Rounded down to 0
	octave 2
	volume_envelope 8, 7
	note C#, 2
;Bar 21
	octave 1
	volume_envelope 6, 7
	;note D_, 0 | WARNING: Rounded down to 0
	octave 2
	volume_envelope 7, 7
	note D_, 2
	rest 2
	octave 3
	note A_, 2
	octave 1
	volume_envelope 6, 7
	;note C#, 0 | WARNING: Rounded down to 0
	octave 2
	volume_envelope 8, 7
	note C#, 2
	octave 4
	volume_envelope 7, 7
	;note D_, 0 | WARNING: Rounded down to 0
	octave 1
	volume_envelope 6, 7
	;note D_, 0 | WARNING: Rounded down to 0
	octave 2
	volume_envelope 7, 7
	note D_, 5
	rest 1
	octave 4
	;note C_, 0 | WARNING: Rounded down to 0
	octave 1
	volume_envelope 5, 7
	;note F#, 0 | WARNING: Rounded down to 0
	octave 1
	volume_envelope 7, 7
	note F#, 2
;Bar 22
	octave 3
	;note B_, 0 | WARNING: Rounded down to 0
	octave 1
	volume_envelope 5, 7
	;note G_, 0 | WARNING: Rounded down to 0
	octave 1
	volume_envelope 7, 7
	note G_, 5
	rest 5
	octave 1
	volume_envelope 6, 7
	;note B_, 0 | WARNING: Rounded down to 0
	octave 1
	volume_envelope 8, 7
	note B_, 2
	volume_envelope 6, 7
	;note C_, 0 | WARNING: Rounded down to 0
	octave 2
	volume_envelope 7, 7
	note C_, 2
	octave 1
	volume_envelope 6, 7
	;note C#, 0 | WARNING: Rounded down to 0
	octave 2
	volume_envelope 8, 7
	note C#, 2
;Bar 23
	octave 1
	volume_envelope 6, 7
	;note D_, 0 | WARNING: Rounded down to 0
	octave 2
	volume_envelope 7, 7
	note D_, 3
	rest 1
	octave 3
	note A_, 4
	octave 4
	note D_, 2
	octave 1
	volume_envelope 5, 7
	;note E_, 0 | WARNING: Rounded down to 0
	octave 1
	volume_envelope 7, 7
	note E_, 2
	octave 1
	volume_envelope 5, 7
	;note F_, 0 | WARNING: Rounded down to 0
	octave 1
	volume_envelope 7, 7
	note F_, 2
	octave 4
	;note C_, 0 | WARNING: Rounded down to 0
	octave 1
	volume_envelope 5, 7
	;note F#, 0 | WARNING: Rounded down to 0
	octave 1
	volume_envelope 7, 7
	note F#, 2
;Bar 24
	octave 4
	;note C_, 0 | WARNING: Rounded down to 0
	octave 1
	volume_envelope 5, 7
	;note G_, 0 | WARNING: Rounded down to 0
	octave 1
	volume_envelope 7, 7
	note G_, 6
	octave 4
	note D_, 1
	note C_, 1
	octave 3
	note B_, 2
	octave 1
	volume_envelope 6, 7
	;note B_, 0 | WARNING: Rounded down to 0
	octave 1
	volume_envelope 7, 7
	note B_, 2
	volume_envelope 5, 7
	;note C_, 0 | WARNING: Rounded down to 0
	octave 2
	volume_envelope 7, 7
	note C_, 2
	octave 1
	volume_envelope 6, 7
	;note C#, 0 | WARNING: Rounded down to 0
	octave 2
	volume_envelope 7, 7
	note C#, 2
;Bar 25
	octave 1
	volume_envelope 5, 7
	;note D_, 0 | WARNING: Rounded down to 0
	octave 2
	volume_envelope 7, 7
	note D_, 2
	rest 2
	octave 3
	note A_, 2
	octave 1
	volume_envelope 6, 7
	;note C#, 0 | WARNING: Rounded down to 0
	octave 2
	volume_envelope 8, 7
	note C#, 2
	octave 4
	volume_envelope 7, 7
	;note F_, 0 | WARNING: Rounded down to 0
	octave 1
	volume_envelope 6, 7
	;note D_, 0 | WARNING: Rounded down to 0
	octave 2
	volume_envelope 7, 7
	note D_, 5
	rest 1
	octave 4
	;note E_, 0 | WARNING: Rounded down to 0
	octave 1
	volume_envelope 5, 7
	;note F#, 0 | WARNING: Rounded down to 0
	octave 1
	volume_envelope 7, 7
	note F#, 2
;Bar 26
	octave 4
	;note D_, 0 | WARNING: Rounded down to 0
	octave 1
	volume_envelope 5, 7
	;note G_, 0 | WARNING: Rounded down to 0
	octave 1
	volume_envelope 7, 7
	note G_, 6
	octave 4
	;note C_, 0 | WARNING: Rounded down to 0
	octave 1
	volume_envelope 6, 7
	;note G_, 0 | WARNING: Rounded down to 0
	octave 1
	volume_envelope 7, 7
	note G_, 2
	octave 4
	;note E_, 0 | WARNING: Rounded down to 0
	octave 1
	volume_envelope 5, 7
	;note G#, 0 | WARNING: Rounded down to 0
	octave 1
	volume_envelope 7, 7
	note G#, 2
	rest 4
	octave 1
	volume_envelope 6, 7
	;note G#, 0 | WARNING: Rounded down to 0
	octave 1
	volume_envelope 7, 7
	note G#, 2
;Bar 27
	octave 1
	volume_envelope 5, 7
	;note A_, 0 | WARNING: Rounded down to 0
	octave 1
	volume_envelope 7, 7
	note A_, 2
	octave 3
	volume_envelope 5, 7
	;note E_, 0 | WARNING: Rounded down to 0
	volume_envelope 6, 7
	note A_, 1
	rest 1
	volume_envelope 5, 7
	;note E_, 0 | WARNING: Rounded down to 0
	volume_envelope 6, 7
	note A_, 1
	rest 3
	volume_envelope 5, 7
	;note E_, 0 | WARNING: Rounded down to 0
	volume_envelope 6, 7
	note A_, 1
	rest 1
	volume_envelope 5, 7
	;note E_, 0 | WARNING: Rounded down to 0
	volume_envelope 6, 7
	note A_, 1
	rest 3
	volume_envelope 5, 7
	;note E_, 0 | WARNING: Rounded down to 0
	volume_envelope 6, 7
	;note A_, 0 | WARNING: Rounded down to 0
	octave 1
	;note B_, 0 | WARNING: Rounded down to 0
	octave 1
	volume_envelope 7, 7
	note B_, 2
;Bar 28
	volume_envelope 5, 7
	;note C_, 0 | WARNING: Rounded down to 0
	octave 2
	volume_envelope 7, 7
	note C_, 2
	octave 3
	volume_envelope 5, 7
	;note E_, 0 | WARNING: Rounded down to 0
	volume_envelope 6, 7
	note G_, 1
	rest 1
	volume_envelope 5, 7
	;note E_, 0 | WARNING: Rounded down to 0
	volume_envelope 6, 7
	note G_, 1
	rest 3
	volume_envelope 5, 7
	;note E_, 0 | WARNING: Rounded down to 0
	volume_envelope 6, 7
	note G_, 1
	rest 1
	volume_envelope 5, 7
	;note E_, 0 | WARNING: Rounded down to 0
	volume_envelope 6, 7
	note G_, 1
	rest 3
	volume_envelope 5, 7
	;note E_, 0 | WARNING: Rounded down to 0
	volume_envelope 6, 7
	;note G_, 0 | WARNING: Rounded down to 0
	octave 1
	;note G#, 0 | WARNING: Rounded down to 0
	octave 1
	volume_envelope 7, 7
	note G#, 2
;Bar 29
	octave 1
	volume_envelope 5, 7
	;note A_, 0 | WARNING: Rounded down to 0
	octave 1
	volume_envelope 7, 7
	note A_, 2
	octave 3
	volume_envelope 5, 7
	;note E_, 0 | WARNING: Rounded down to 0
	volume_envelope 6, 7
	note A_, 1
	rest 1
	volume_envelope 5, 7
	;note E_, 0 | WARNING: Rounded down to 0
	volume_envelope 6, 7
	note A_, 1
	rest 3
	volume_envelope 5, 7
	;note E_, 0 | WARNING: Rounded down to 0
	volume_envelope 6, 7
	note A_, 1
	rest 1
	volume_envelope 5, 7
	;note E_, 0 | WARNING: Rounded down to 0
	volume_envelope 6, 7
	note A_, 1
	rest 3
	volume_envelope 5, 7
	;note E_, 0 | WARNING: Rounded down to 0
	volume_envelope 6, 7
	;note A_, 0 | WARNING: Rounded down to 0
	octave 1
	;note G#, 0 | WARNING: Rounded down to 0
	octave 1
	volume_envelope 7, 7
	note G#, 2
;Bar 30
	octave 1
	volume_envelope 5, 7
	;note G_, 0 | WARNING: Rounded down to 0
	octave 1
	volume_envelope 7, 7
	note G_, 2
	octave 3
	volume_envelope 5, 7
	;note E_, 0 | WARNING: Rounded down to 0
	volume_envelope 6, 7
	note G_, 1
	rest 1
	volume_envelope 5, 7
	;note E_, 0 | WARNING: Rounded down to 0
	volume_envelope 6, 7
	note G_, 1
	rest 3
	volume_envelope 5, 7
	;note E_, 0 | WARNING: Rounded down to 0
	volume_envelope 6, 7
	note G_, 1
	rest 1
	volume_envelope 5, 7
	;note E_, 0 | WARNING: Rounded down to 0
	volume_envelope 6, 7
	note G_, 1
	rest 3
	volume_envelope 5, 7
	;note E_, 0 | WARNING: Rounded down to 0
	volume_envelope 6, 7
	;note G_, 0 | WARNING: Rounded down to 0
	octave 1
	;note G#, 0 | WARNING: Rounded down to 0
	octave 1
	volume_envelope 7, 7
	note G#, 2
;Bar 31
	octave 1
	volume_envelope 5, 7
	;note A_, 0 | WARNING: Rounded down to 0
	octave 1
	volume_envelope 7, 7
	note A_, 2
	octave 3
	volume_envelope 5, 7
	note A_, 2
	volume_envelope 6, 7
	;note E_, 0 | WARNING: Rounded down to 0
	rest 2
	volume_envelope 5, 7
	;note C_, 0 | WARNING: Rounded down to 0
	rest 2
	volume_envelope 6, 7
	;note A_, 0 | WARNING: Rounded down to 0
	rest 2
	volume_envelope 5, 7
	;note E_, 0 | WARNING: Rounded down to 0
	rest 2
	volume_envelope 7, 7
	;note C_, 0 | WARNING: Rounded down to 0
	rest 2
	octave 1
	volume_envelope 6, 7
	;note B_, 0 | WARNING: Rounded down to 0
	octave 1
	volume_envelope 7, 7
	note B_, 2
;Bar 32
	volume_envelope 5, 7
	;note C_, 0 | WARNING: Rounded down to 0
	octave 2
	volume_envelope 7, 7
	note C_, 2
	octave 3
	volume_envelope 5, 7
	note G_, 2
	volume_envelope 6, 7
	;note E_, 0 | WARNING: Rounded down to 0
	rest 2
	volume_envelope 5, 7
	;note C_, 0 | WARNING: Rounded down to 0
	rest 2
	volume_envelope 6, 7
	;note G_, 0 | WARNING: Rounded down to 0
	rest 2
	volume_envelope 5, 7
	;note E_, 0 | WARNING: Rounded down to 0
	rest 2
	volume_envelope 6, 7
	;note G_, 0 | WARNING: Rounded down to 0
	rest 2
	volume_envelope 5, 7
	;note A_, 0 | WARNING: Rounded down to 0
	octave 1
	volume_envelope 6, 7
	;note G#, 0 | WARNING: Rounded down to 0
	octave 1
	volume_envelope 7, 7
	note G#, 2
;Bar 33
	octave 1
	volume_envelope 5, 7
	;note A_, 0 | WARNING: Rounded down to 0
	octave 1
	volume_envelope 7, 7
	note A_, 2
	octave 3
	volume_envelope 5, 7
	note A_, 2
	volume_envelope 6, 7
	;note E_, 0 | WARNING: Rounded down to 0
	rest 2
	volume_envelope 5, 7
	;note C_, 0 | WARNING: Rounded down to 0
	rest 2
	volume_envelope 6, 7
	;note A_, 0 | WARNING: Rounded down to 0
	rest 2
	volume_envelope 5, 7
	;note E_, 0 | WARNING: Rounded down to 0
	rest 2
	volume_envelope 7, 7
	;note C_, 0 | WARNING: Rounded down to 0
	rest 2
	octave 1
	volume_envelope 6, 7
	;note G#, 0 | WARNING: Rounded down to 0
	octave 1
	volume_envelope 7, 7
	note G#, 2
;Bar 34
	octave 1
	volume_envelope 5, 7
	;note G_, 0 | WARNING: Rounded down to 0
	octave 1
	volume_envelope 7, 7
	note G_, 2
	octave 3
	volume_envelope 5, 7
	note G_, 2
	volume_envelope 6, 7
	;note E_, 0 | WARNING: Rounded down to 0
	rest 2
	octave 2
	volume_envelope 5, 7
	;note B_, 0 | WARNING: Rounded down to 0
	rest 2
	octave 3
	volume_envelope 6, 7
	;note G_, 0 | WARNING: Rounded down to 0
	rest 2
	volume_envelope 5, 7
	;note E_, 0 | WARNING: Rounded down to 0
	rest 2
	volume_envelope 6, 7
	;note G_, 0 | WARNING: Rounded down to 0
	rest 2
	volume_envelope 5, 7
	;note A_, 0 | WARNING: Rounded down to 0
	octave 1
	volume_envelope 6, 7
	;note G#, 0 | WARNING: Rounded down to 0
	octave 1
	volume_envelope 7, 7
	note G#, 2
;Bar 35
	octave 1
	volume_envelope 5, 7
	;note A_, 0 | WARNING: Rounded down to 0
	octave 1
	volume_envelope 7, 7
	note A_, 3
	rest 1
	octave 4
	note A_, 2
	note G_, 1
	rest 1
	note E_, 2
	note D_, 2
	;note C_, 0 | WARNING: Rounded down to 0
	rest 2
	;note D_, 0 | WARNING: Rounded down to 0
	octave 1
	volume_envelope 6, 7
	;note B_, 0 | WARNING: Rounded down to 0
	octave 1
	volume_envelope 7, 7
	note B_, 2
;Bar 36
	octave 4
	;note E_, 0 | WARNING: Rounded down to 0
	octave 1
	volume_envelope 5, 7
	;note C_, 0 | WARNING: Rounded down to 0
	octave 2
	volume_envelope 7, 7
	note C_, 2
	octave 4
	note G_, 1
	rest 3
	note E_, 2
	note G_, 4
	note A_, 2
	octave 1
	volume_envelope 6, 7
	;note G#, 0 | WARNING: Rounded down to 0
	octave 1
	volume_envelope 7, 7
	note G#, 2
;Bar 37
	octave 1
	volume_envelope 5, 7
	;note A_, 0 | WARNING: Rounded down to 0
	octave 1
	volume_envelope 7, 7
	note A_, 2
	rest 2
	octave 4
	note A_, 2
	note G_, 2
	note E_, 2
	note D_, 2
	note C_, 2
	;note D_, 0 | WARNING: Rounded down to 0
	octave 1
	volume_envelope 6, 7
	;note G#, 0 | WARNING: Rounded down to 0
	octave 1
	volume_envelope 8, 7
	note G#, 2
;Bar 38
	octave 3
	;note B_, 0 | WARNING: Rounded down to 0
	octave 1
	volume_envelope 6, 7
	;note G_, 0 | WARNING: Rounded down to 0
	octave 1
	volume_envelope 7, 7
	note G_, 8
	rest 6
	octave 1
	volume_envelope 6, 7
	;note G#, 0 | WARNING: Rounded down to 0
	octave 1
	volume_envelope 7, 7
	note G#, 2
;Bar 39
	octave 1
	volume_envelope 5, 7
	;note A_, 0 | WARNING: Rounded down to 0
	octave 1
	volume_envelope 7, 7
	note A_, 2
	rest 2
	octave 4
	note A_, 2
	note G_, 1
	rest 1
	note E_, 2
	note D_, 2
	note C_, 2
	;note D_, 0 | WARNING: Rounded down to 0
	octave 1
	volume_envelope 6, 7
	;note B_, 0 | WARNING: Rounded down to 0
	octave 1
	volume_envelope 8, 7
	note B_, 2
;Bar 40
	octave 4
	;note E_, 0 | WARNING: Rounded down to 0
	octave 1
	volume_envelope 6, 7
	;note C_, 0 | WARNING: Rounded down to 0
	octave 2
	volume_envelope 7, 7
	note C_, 2
	octave 4
	note G_, 1
	rest 3
	note E_, 2
	note G_, 4
	note A_, 2
	octave 1
	volume_envelope 6, 7
	;note G#, 0 | WARNING: Rounded down to 0
	octave 1
	volume_envelope 8, 7
	note G#, 2
;Bar 41
	octave 1
	volume_envelope 6, 7
	;note A_, 0 | WARNING: Rounded down to 0
	octave 1
	volume_envelope 7, 7
	note A_, 3
	rest 1
	octave 5
	note C_, 2
	octave 4
	note B_, 1
	rest 1
	note B_, 2
	note A_, 2
	;note G_, 0 | WARNING: Rounded down to 0
	rest 2
	;note E_, 0 | WARNING: Rounded down to 0
	octave 1
	volume_envelope 6, 7
	;note G#, 0 | WARNING: Rounded down to 0
	octave 1
	volume_envelope 7, 7
	note G#, 2
;Bar 42
	octave 4
	;note G_, 0 | WARNING: Rounded down to 0
	octave 1
	volume_envelope 5, 7
	;note G_, 0 | WARNING: Rounded down to 0
	octave 1
	volume_envelope 7, 7
	note G_, 2
	rest 8
	octave 1
	volume_envelope 6, 7
	;note B_, 0 | WARNING: Rounded down to 0
	octave 1
	volume_envelope 7, 7
	note B_, 2
	volume_envelope 5, 7
	;note C_, 0 | WARNING: Rounded down to 0
	octave 2
	volume_envelope 7, 7
	note C_, 2
	octave 1
	volume_envelope 6, 7
	;note C#, 0 | WARNING: Rounded down to 0
	octave 2
	volume_envelope 7, 7
	note C#, 2
;Bar 43
	octave 1
	volume_envelope 5, 7
	;note D_, 0 | WARNING: Rounded down to 0
	octave 2
	volume_envelope 7, 7
	note D_, 3
	rest 1
	octave 3
	note A_, 4
	octave 4
	note D_, 2
	octave 1
	volume_envelope 5, 7
	;note E_, 0 | WARNING: Rounded down to 0
	octave 1
	volume_envelope 7, 7
	note E_, 2
	octave 1
	volume_envelope 5, 7
	;note F_, 0 | WARNING: Rounded down to 0
	octave 1
	volume_envelope 7, 7
	note F_, 2
	octave 4
	;note C_, 0 | WARNING: Rounded down to 0
	octave 1
	volume_envelope 5, 7
	;note F#, 0 | WARNING: Rounded down to 0
	octave 1
	volume_envelope 7, 7
	note F#, 2
;Bar 44
	octave 4
	;note C_, 0 | WARNING: Rounded down to 0
	octave 1
	volume_envelope 5, 7
	;note G_, 0 | WARNING: Rounded down to 0
	octave 1
	volume_envelope 7, 7
	note G_, 2
	octave 3
	note B_, 2
	note B_, 5
	rest 1
	octave 1
	volume_envelope 6, 7
	;note B_, 0 | WARNING: Rounded down to 0
	octave 1
	volume_envelope 8, 7
	note B_, 2
	volume_envelope 6, 7
	;note C_, 0 | WARNING: Rounded down to 0
	octave 2
	volume_envelope 7, 7
	note C_, 2
	octave 1
	volume_envelope 6, 7
	;note C#, 0 | WARNING: Rounded down to 0
	octave 2
	volume_envelope 8, 7
	note C#, 2
;Bar 45
	octave 1
	volume_envelope 6, 7
	;note D_, 0 | WARNING: Rounded down to 0
	octave 2
	volume_envelope 7, 7
	note D_, 2
	rest 2
	octave 3
	note A_, 2
	octave 1
	volume_envelope 6, 7
	;note C#, 0 | WARNING: Rounded down to 0
	octave 2
	volume_envelope 8, 7
	note C#, 2
	octave 4
	volume_envelope 7, 7
	;note D_, 0 | WARNING: Rounded down to 0
	octave 1
	volume_envelope 6, 7
	;note D_, 0 | WARNING: Rounded down to 0
	octave 2
	volume_envelope 7, 7
	note D_, 5
	rest 1
	octave 4
	;note C_, 0 | WARNING: Rounded down to 0
	octave 1
	volume_envelope 5, 7
	;note F#, 0 | WARNING: Rounded down to 0
	octave 1
	volume_envelope 7, 7
	note F#, 2
;Bar 46
	octave 3
	;note B_, 0 | WARNING: Rounded down to 0
	octave 1
	volume_envelope 5, 7
	;note G_, 0 | WARNING: Rounded down to 0
	octave 1
	volume_envelope 7, 7
	note G_, 5
	rest 5
	octave 1
	volume_envelope 6, 7
	;note B_, 0 | WARNING: Rounded down to 0
	octave 1
	volume_envelope 8, 7
	note B_, 2
	volume_envelope 6, 7
	;note C_, 0 | WARNING: Rounded down to 0
	octave 2
	volume_envelope 7, 7
	note C_, 2
	octave 1
	volume_envelope 6, 7
	;note C#, 0 | WARNING: Rounded down to 0
	octave 2
	volume_envelope 8, 7
	note C#, 2
;Bar 47
	octave 1
	volume_envelope 6, 7
	;note D_, 0 | WARNING: Rounded down to 0
	octave 2
	volume_envelope 7, 7
	note D_, 3
	rest 1
	octave 3
	note A_, 4
	octave 4
	note D_, 2
	octave 1
	volume_envelope 5, 7
	;note E_, 0 | WARNING: Rounded down to 0
	octave 1
	volume_envelope 7, 7
	note E_, 2
	octave 1
	volume_envelope 5, 7
	;note F_, 0 | WARNING: Rounded down to 0
	octave 1
	volume_envelope 7, 7
	note F_, 2
	octave 4
	;note C_, 0 | WARNING: Rounded down to 0
	octave 1
	volume_envelope 5, 7
	;note F#, 0 | WARNING: Rounded down to 0
	octave 1
	volume_envelope 7, 7
	note F#, 2
;Bar 48
	octave 4
	;note C_, 0 | WARNING: Rounded down to 0
	octave 1
	volume_envelope 5, 7
	;note G_, 0 | WARNING: Rounded down to 0
	octave 1
	volume_envelope 7, 7
	note G_, 6
	octave 4
	note D_, 1
	note C_, 1
	octave 3
	note B_, 2
	octave 1
	volume_envelope 6, 7
	;note B_, 0 | WARNING: Rounded down to 0
	octave 1
	volume_envelope 7, 7
	note B_, 2
	volume_envelope 5, 7
	;note C_, 0 | WARNING: Rounded down to 0
	octave 2
	volume_envelope 7, 7
	note C_, 2
	octave 1
	volume_envelope 6, 7
	;note C#, 0 | WARNING: Rounded down to 0
	octave 2
	volume_envelope 7, 7
	note C#, 2
;Bar 49
	octave 1
	volume_envelope 5, 7
	;note D_, 0 | WARNING: Rounded down to 0
	octave 2
	volume_envelope 7, 7
	note D_, 2
	rest 2
	octave 3
	note A_, 2
	octave 1
	volume_envelope 6, 7
	;note C#, 0 | WARNING: Rounded down to 0
	octave 2
	volume_envelope 8, 7
	note C#, 2
	octave 4
	volume_envelope 7, 7
	;note F_, 0 | WARNING: Rounded down to 0
	octave 1
	volume_envelope 6, 7
	;note D_, 0 | WARNING: Rounded down to 0
	octave 2
	volume_envelope 7, 7
	note D_, 5
	rest 1
	octave 4
	;note E_, 0 | WARNING: Rounded down to 0
	octave 1
	volume_envelope 5, 7
	;note F#, 0 | WARNING: Rounded down to 0
	octave 1
	volume_envelope 7, 7
	note F#, 2
;Bar 50
	octave 4
	;note D_, 0 | WARNING: Rounded down to 0
	octave 1
	volume_envelope 5, 7
	;note G_, 0 | WARNING: Rounded down to 0
	octave 1
	volume_envelope 7, 7
	note G_, 6
	octave 4
	;note C_, 0 | WARNING: Rounded down to 0
	octave 1
	volume_envelope 6, 7
	;note G_, 0 | WARNING: Rounded down to 0
	octave 1
	volume_envelope 7, 7
	note G_, 2
	octave 4
	;note E_, 0 | WARNING: Rounded down to 0
	octave 1
	volume_envelope 5, 7
	;note G#, 0 | WARNING: Rounded down to 0
	octave 1
	volume_envelope 7, 7
	note G#, 2
	rest 4
	octave 1
	volume_envelope 6, 7
	;note G#, 0 | WARNING: Rounded down to 0
	octave 1
	volume_envelope 7, 7
	note G#, 2
	sound_ret

; ============================================================================================================

