;Coverted using MIDI2ASM
;Code by TriteHexagon
;Version 5.2.0 (16-Nov-2022)
;Visit github.com/TriteHexagon/Midi2ASM-Converter for up-to-date versions.

; ============================================================================================================

Music_PissyPamper:
	channel_count 3
	channel 1, Music_PissyPamper_Ch1
	channel 2, Music_PissyPamper_Ch2
	channel 3, Music_PissyPamper_Ch3
	channel 4, Music_PissyPamper_Ch4

Music_PissyPamper_Ch1:
	volume 7, 7
	duty_cycle 1
	note_type 12, 10, 7
	tempo 119
.mainloop
;Bar 1
	octave 3
	volume_envelope 9, 7
	note D#, 6
	volume_envelope 9, 7
	note G_, 6
	octave 4
	volume_envelope 9, 7
	note C_, 6
;Bar 2
	volume_envelope 9, 7
	note D_, 6
	octave 3
	note A#, 4
	octave 4
	note C_, 4
;Bar 3
	octave 3
	note A_, 6
	note F_, 6
	note G_, 16
	note G_, 4
;Bar 5
	note D#, 6
	note G_, 6
	octave 4
	note C_, 6
;Bar 6
	note D_, 6
	octave 3
	note A#, 4
	octave 4
	note C_, 4
;Bar 7
	octave 3
	note A_, 6
	note F_, 6
	note G_, 16
	note G_, 4
;Bar 9
	note D#, 6
	note G_, 6
	octave 4
	note C_, 6
;Bar 10
	note D_, 6
	octave 3
	note A#, 4
	octave 4
	note C_, 4
;Bar 11
	octave 3
	note A_, 6
	note F_, 6
	note G_, 16
	note G_, 4
;Bar 13
	note D#, 6
	note G_, 6
	octave 4
	note C_, 6
;Bar 14
	note D_, 6
	octave 3
	note A#, 4
	octave 4
	note C_, 4
;Bar 15
	octave 3
	note A_, 6
	note F_, 6
	note G_, 16
	note G_, 4
;Bar 17
	note D#, 6
	note G_, 6
	octave 4
	note C_, 6
;Bar 18
	note D_, 6
	octave 3
	note A#, 4
	octave 4
	note C_, 4
;Bar 19
	octave 3
	note A_, 6
	note F_, 6
	note G_, 16
	note G_, 4
;Bar 21
	note D#, 6
	note G_, 6
	octave 4
	note C_, 6
;Bar 22
	note D_, 6
	octave 3
	note A#, 4
	octave 4
	note C_, 4
;Bar 23
	octave 3
	note A_, 6
	note F_, 6
	note G_, 16
	note G_, 4
;Bar 25
	note D#, 6
	note G_, 6
	octave 4
	note C_, 6
;Bar 26
	note D_, 6
	octave 3
	note A#, 4
	octave 4
	note C_, 4
;Bar 27
	octave 3
	note A_, 6
	note F_, 6
	note G_, 16
	note G_, 4
;Bar 29
	note D#, 6
	note G_, 6
	octave 4
	note C_, 6
;Bar 30
	note D_, 6
	octave 3
	note A#, 4
	octave 4
	note C_, 4
;Bar 31
	octave 3
	note A_, 6
	note F_, 6
	note G_, 16
	note G_, 4
;Bar 33
	note D#, 1
	rest 5
	note G_, 1
	rest 5
	octave 4
	volume_envelope 9, 7
	note C_, 2
	rest 4
;Bar 34
	note D_, 2
	rest 4
	octave 3
	note A#, 1
	rest 3
	octave 4
	note C_, 2
	rest 2
;Bar 35
	octave 3
	note A_, 3
	rest 3
	volume_envelope 9, 7
	note F_, 1
	rest 5
	note G_, 2
	rest 16
	rest 2
;Bar 37
	volume_envelope 9, 7
	note D#, 2
	rest 4
	note G_, 3
	rest 3
	octave 4
	note C_, 1
	rest 5
;Bar 38
	volume_envelope 9, 7
	note D_, 1
	rest 5
	octave 3
	note A#, 2
	rest 2
	octave 4
	note C_, 1
	rest 3
;Bar 39
	octave 3
	note A_, 1
	rest 5
	note F_, 2
	rest 4
	volume_envelope 9, 7
	note G_, 4
	rest 12
	sound_loop 0, .mainloop

; ============================================================================================================

Music_PissyPamper_Ch2:
	duty_cycle 1
	note_type 12, 10, 7
.mainloop
;Bar 1
	octave 2
	volume_envelope 9, 7
	note D#, 6
	volume_envelope 9, 7
	note G_, 6
	octave 3
	volume_envelope 9, 7
	note C_, 6
;Bar 2
	volume_envelope 9, 7
	note D_, 6
	octave 2
	note A#, 4
	octave 3
	note C_, 4
;Bar 3
	octave 2
	note A_, 6
	note F_, 6
	note G_, 16
	note G_, 4
;Bar 5
	note D#, 6
	note G_, 6
	octave 3
	note C_, 6
;Bar 6
	note D_, 6
	octave 2
	note A#, 4
	octave 3
	note C_, 4
;Bar 7
	octave 2
	note A_, 6
	note F_, 6
	note G_, 16
	note G_, 4
;Bar 9
	note D#, 6
	note G_, 6
	octave 3
	note C_, 6
;Bar 10
	note D_, 6
	octave 2
	note A#, 4
	octave 3
	note C_, 4
;Bar 11
	octave 2
	note A_, 6
	note F_, 6
	note G_, 16
	note G_, 4
;Bar 13
	note D#, 6
	note G_, 6
	octave 3
	note C_, 6
;Bar 14
	note D_, 6
	octave 2
	note A#, 4
	octave 3
	note C_, 4
;Bar 15
	octave 2
	note A_, 6
	note F_, 6
	note G_, 16
	note G_, 4
;Bar 17
	note D#, 6
	note G_, 6
	octave 3
	note C_, 6
;Bar 18
	note D_, 6
	octave 2
	note A#, 4
	octave 3
	note C_, 4
;Bar 19
	octave 2
	note A_, 6
	note F_, 6
	note G_, 16
	note G_, 4
;Bar 21
	note D#, 6
	note G_, 6
	octave 3
	note C_, 6
;Bar 22
	note D_, 6
	octave 2
	note A#, 4
	octave 3
	note C_, 4
;Bar 23
	octave 2
	note A_, 6
	note F_, 6
	note G_, 16
	note G_, 4
;Bar 25
	note D#, 6
	note G_, 6
	octave 3
	note C_, 6
;Bar 26
	note D_, 6
	octave 2
	note A#, 4
	octave 3
	note C_, 4
;Bar 27
	octave 2
	note A_, 6
	note F_, 6
	note G_, 16
	note G_, 4
;Bar 29
	note D#, 6
	note G_, 6
	octave 3
	note C_, 6
;Bar 30
	note D_, 6
	octave 2
	note A#, 4
	octave 3
	note C_, 4
;Bar 31
	octave 2
	note A_, 6
	note F_, 6
	note G_, 16
	note G_, 4
;Bar 33
	note D#, 1
	rest 5
	note G_, 1
	rest 5
	octave 3
	volume_envelope 9, 7
	note C_, 2
	rest 4
;Bar 34
	note D_, 2
	rest 4
	octave 2
	note A#, 1
	rest 3
	octave 3
	note C_, 2
	rest 2
;Bar 35
	octave 2
	note A_, 3
	rest 3
	volume_envelope 9, 7
	note F_, 1
	rest 5
	note G_, 2
	rest 16
	rest 2
;Bar 37
	volume_envelope 9, 7
	note D#, 2
	rest 4
	note G_, 3
	rest 3
	octave 3
	note C_, 1
	rest 5
;Bar 38
	volume_envelope 9, 7
	note D_, 1
	rest 5
	octave 2
	note A#, 2
	rest 2
	octave 3
	note C_, 1
	rest 3
;Bar 39
	octave 2
	note A_, 1
	rest 5
	note F_, 2
	rest 4
	volume_envelope 9, 7
	note G_, 4
	rest 12
	sound_loop 0, .mainloop

; ============================================================================================================

Music_PissyPamper_Ch3:
	note_type 12, 1, 0
.mainloop
;Bar 1
	octave 1
	volume_envelope 3, 3
	note G_, 16
	note G_, 15
;Bar 2
	rest 1
;Bar 3
	volume_envelope 3, 3
	note G_, 16
	note G_, 16
;Bar 5
	note G_, 16
	note G_, 16
;Bar 7
	note G_, 16
	note G_, 16
;Bar 9
	note G_, 16
	note G_, 16
;Bar 11
	note G_, 16
	note G_, 16
;Bar 13
	note G_, 16
	note G_, 16
;Bar 15
	note G_, 16
	note G_, 16
;Bar 17
	note G_, 16
	note G_, 16
;Bar 19
	note G_, 16
	note G_, 16
;Bar 21
	note G_, 16
	note G_, 16
;Bar 23
	note G_, 16
	note G_, 16
;Bar 25
	note G_, 16
	note G_, 16
;Bar 27
	note G_, 16
	note G_, 16
;Bar 29
	note G_, 16
	note G_, 16
;Bar 31
	note G_, 16
	note G_, 16
;Bar 33
	note G_, 3
	rest 16
	rest 13
;Bar 35
	note G_, 3
	rest 16
	rest 13
;Bar 37
	note G_, 1
	rest 16
	rest 15
;Bar 39
	note G_, 16
	rest 12
	sound_loop 0, .mainloop

; ============================================================================================================

Music_PissyPamper_Ch4:
	toggle_noise 0
	drum_speed 12
;Bar 1
	;note C_, 0 | WARNING: Rounded down to 0
	;note D#, 0 | WARNING: Rounded down to 0
	;note F#, 0 | WARNING: Rounded down to 0
	drum_note 8, 4
	drum_note 7, 2
	;note C_, 0 | WARNING: Rounded down to 0
	drum_note 9, 4
	drum_note 10, 2
	;note A#, 0 | WARNING: Rounded down to 0
	;note D#, 0 | WARNING: Rounded down to 0
	drum_note 9, 2
	;note G#, 0 | WARNING: Rounded down to 0
	drum_note 4, 2
;Bar 2
	;note C_, 0 | WARNING: Rounded down to 0
	;note F#, 0 | WARNING: Rounded down to 0
	drum_note 8, 2
	drum_note 9, 2
	;note G#, 0 | WARNING: Rounded down to 0
	;note F#, 0 | WARNING: Rounded down to 0
	drum_note 8, 2
	drum_note 1, 2
	drum_note 4, 2
	drum_note 10, 2
	;note A#, 0 | WARNING: Rounded down to 0
	drum_note 9, 2
	drum_note 9, 1
	drum_note 9, 1
;Bar 3
	;note C_, 0 | WARNING: Rounded down to 0
	;note D#, 0 | WARNING: Rounded down to 0
	;note F#, 0 | WARNING: Rounded down to 0
	drum_note 8, 4
	drum_note 7, 2
	;note C_, 0 | WARNING: Rounded down to 0
	drum_note 9, 4
	drum_note 10, 2
	;note A#, 0 | WARNING: Rounded down to 0
	;note D#, 0 | WARNING: Rounded down to 0
	drum_note 9, 2
	;note G#, 0 | WARNING: Rounded down to 0
	drum_note 4, 2
;Bar 4
	;note C_, 0 | WARNING: Rounded down to 0
	;note F#, 0 | WARNING: Rounded down to 0
	drum_note 8, 2
	drum_note 9, 2
	;note G#, 0 | WARNING: Rounded down to 0
	;note F#, 0 | WARNING: Rounded down to 0
	drum_note 8, 2
	drum_note 1, 2
	drum_note 4, 2
	;note G#, 0 | WARNING: Rounded down to 0
	drum_note 10, 2
	;note A#, 0 | WARNING: Rounded down to 0
	;note G#, 0 | WARNING: Rounded down to 0
	drum_note 9, 2
	drum_note 9, 1
	drum_note 9, 1
;Bar 5
	;note C_, 0 | WARNING: Rounded down to 0
	;note D#, 0 | WARNING: Rounded down to 0
	;note F#, 0 | WARNING: Rounded down to 0
	drum_note 8, 4
	drum_note 7, 2
	;note C_, 0 | WARNING: Rounded down to 0
	drum_note 9, 4
	drum_note 10, 2
	;note A#, 0 | WARNING: Rounded down to 0
	;note D#, 0 | WARNING: Rounded down to 0
	drum_note 9, 2
	;note G#, 0 | WARNING: Rounded down to 0
	drum_note 4, 2
;Bar 6
	;note C_, 0 | WARNING: Rounded down to 0
	;note F#, 0 | WARNING: Rounded down to 0
	drum_note 8, 2
	drum_note 9, 2
	;note G#, 0 | WARNING: Rounded down to 0
	;note F#, 0 | WARNING: Rounded down to 0
	drum_note 8, 2
	drum_note 1, 2
	drum_note 4, 2
	drum_note 10, 2
	;note A#, 0 | WARNING: Rounded down to 0
	drum_note 9, 2
	drum_note 9, 1
	drum_note 9, 1
;Bar 7
	;note C_, 0 | WARNING: Rounded down to 0
	;note D#, 0 | WARNING: Rounded down to 0
	;note F#, 0 | WARNING: Rounded down to 0
	drum_note 8, 4
	drum_note 7, 2
	;note C_, 0 | WARNING: Rounded down to 0
	drum_note 9, 4
	drum_note 10, 2
	;note A#, 0 | WARNING: Rounded down to 0
	;note D#, 0 | WARNING: Rounded down to 0
	drum_note 9, 2
	;note G#, 0 | WARNING: Rounded down to 0
	drum_note 4, 2
;Bar 8
	;note C_, 0 | WARNING: Rounded down to 0
	;note F#, 0 | WARNING: Rounded down to 0
	drum_note 8, 2
	drum_note 9, 2
	;note G#, 0 | WARNING: Rounded down to 0
	;note F#, 0 | WARNING: Rounded down to 0
	drum_note 8, 2
	drum_note 1, 2
	drum_note 4, 2
	;note G#, 0 | WARNING: Rounded down to 0
	drum_note 10, 2
	;note A#, 0 | WARNING: Rounded down to 0
	;note G#, 0 | WARNING: Rounded down to 0
	drum_note 9, 2
	drum_note 9, 1
	drum_note 9, 1
;Bar 9
	;note C_, 0 | WARNING: Rounded down to 0
	;note C_, 0 | WARNING: Rounded down to 0
	drum_note 1, 2
	drum_note 1, 2
	;note C_, 0 | WARNING: Rounded down to 0
	drum_note 1, 1
	drum_note 1, 1
	;note C_, 0 | WARNING: Rounded down to 0
	drum_note 2, 2
	;note C#, 0 | WARNING: Rounded down to 0
	drum_note 1, 2
	;note C_, 0 | WARNING: Rounded down to 0
	drum_note 2, 2
	;note C_, 0 | WARNING: Rounded down to 0
	drum_note 4, 2
	;note C_, 0 | WARNING: Rounded down to 0
	drum_note 1, 2
;Bar 10
	;note C_, 0 | WARNING: Rounded down to 0
	drum_note 4, 2
	;note C_, 0 | WARNING: Rounded down to 0
	drum_note 5, 2
	;note C_, 0 | WARNING: Rounded down to 0
	drum_note 1, 1
	drum_note 1, 1
	;note C_, 0 | WARNING: Rounded down to 0
	drum_note 5, 2
	;note C_, 0 | WARNING: Rounded down to 0
	drum_note 2, 2
	;note C_, 0 | WARNING: Rounded down to 0
	drum_note 1, 2
	;note C_, 0 | WARNING: Rounded down to 0
	drum_note 4, 2
	drum_note 1, 2
;Bar 11
	;note C_, 0 | WARNING: Rounded down to 0
	;note C_, 0 | WARNING: Rounded down to 0
	;note D_, 0 | WARNING: Rounded down to 0
	drum_note 3, 2
	drum_note 1, 2
	;note C_, 0 | WARNING: Rounded down to 0
	drum_note 3, 1
	drum_note 1, 1
	;note C_, 0 | WARNING: Rounded down to 0
	drum_note 1, 2
	;note C#, 0 | WARNING: Rounded down to 0
	drum_note 1, 2
	;note C_, 0 | WARNING: Rounded down to 0
	drum_note 1, 2
	;note C_, 0 | WARNING: Rounded down to 0
	drum_note 2, 2
	;note C_, 0 | WARNING: Rounded down to 0
	drum_note 1, 2
;Bar 12
	drum_note 1, 2
	drum_note 1, 2
	;note C_, 0 | WARNING: Rounded down to 0
	drum_note 1, 1
	drum_note 1, 1
	drum_note 1, 2
	;note C#, 0 | WARNING: Rounded down to 0
	drum_note 1, 2
	;note C_, 0 | WARNING: Rounded down to 0
	drum_note 1, 2
	drum_note 1, 2
	drum_note 1, 2
;Bar 13
	;note C_, 0 | WARNING: Rounded down to 0
	;note C_, 0 | WARNING: Rounded down to 0
	drum_note 1, 2
	drum_note 1, 2
	;note C_, 0 | WARNING: Rounded down to 0
	drum_note 1, 1
	drum_note 1, 1
	;note C_, 0 | WARNING: Rounded down to 0
	drum_note 2, 2
	;note C#, 0 | WARNING: Rounded down to 0
	drum_note 1, 2
	;note C_, 0 | WARNING: Rounded down to 0
	drum_note 2, 2
	;note C_, 0 | WARNING: Rounded down to 0
	drum_note 4, 2
	;note C_, 0 | WARNING: Rounded down to 0
	drum_note 1, 2
;Bar 14
	;note C_, 0 | WARNING: Rounded down to 0
	drum_note 4, 2
	;note C_, 0 | WARNING: Rounded down to 0
	drum_note 5, 2
	;note C_, 0 | WARNING: Rounded down to 0
	drum_note 1, 1
	drum_note 1, 1
	;note C_, 0 | WARNING: Rounded down to 0
	drum_note 5, 2
	;note C_, 0 | WARNING: Rounded down to 0
	drum_note 2, 2
	;note C_, 0 | WARNING: Rounded down to 0
	drum_note 1, 2
	;note C_, 0 | WARNING: Rounded down to 0
	drum_note 4, 2
	drum_note 1, 2
;Bar 15
	;note C_, 0 | WARNING: Rounded down to 0
	;note C_, 0 | WARNING: Rounded down to 0
	;note D_, 0 | WARNING: Rounded down to 0
	drum_note 3, 2
	drum_note 1, 2
	;note C_, 0 | WARNING: Rounded down to 0
	drum_note 3, 1
	drum_note 1, 1
	;note C_, 0 | WARNING: Rounded down to 0
	drum_note 1, 2
	;note C#, 0 | WARNING: Rounded down to 0
	drum_note 1, 2
	;note C_, 0 | WARNING: Rounded down to 0
	drum_note 1, 2
	;note C_, 0 | WARNING: Rounded down to 0
	drum_note 2, 2
	;note C_, 0 | WARNING: Rounded down to 0
	drum_note 1, 2
;Bar 16
	drum_note 1, 2
	drum_note 1, 2
	;note C_, 0 | WARNING: Rounded down to 0
	drum_note 1, 1
	drum_note 1, 1
	drum_note 1, 2
	;note C#, 0 | WARNING: Rounded down to 0
	drum_note 1, 2
	;note C_, 0 | WARNING: Rounded down to 0
	drum_note 1, 2
	drum_note 1, 2
	drum_note 1, 2
;Bar 17
	;note C_, 0 | WARNING: Rounded down to 0
	;note C_, 0 | WARNING: Rounded down to 0
	drum_note 1, 2
	drum_note 1, 2
	;note C_, 0 | WARNING: Rounded down to 0
	drum_note 1, 1
	drum_note 1, 1
	;note C_, 0 | WARNING: Rounded down to 0
	drum_note 2, 2
	;note C#, 0 | WARNING: Rounded down to 0
	drum_note 1, 2
	;note C_, 0 | WARNING: Rounded down to 0
	drum_note 2, 2
	;note C_, 0 | WARNING: Rounded down to 0
	drum_note 4, 2
	;note C_, 0 | WARNING: Rounded down to 0
	drum_note 1, 2
;Bar 18
	;note C_, 0 | WARNING: Rounded down to 0
	drum_note 4, 2
	;note C_, 0 | WARNING: Rounded down to 0
	drum_note 5, 2
	;note C_, 0 | WARNING: Rounded down to 0
	drum_note 1, 1
	drum_note 1, 1
	;note C_, 0 | WARNING: Rounded down to 0
	drum_note 5, 2
	;note C_, 0 | WARNING: Rounded down to 0
	drum_note 2, 2
	;note C_, 0 | WARNING: Rounded down to 0
	drum_note 1, 2
	;note C_, 0 | WARNING: Rounded down to 0
	drum_note 4, 2
	drum_note 1, 2
;Bar 19
	;note C_, 0 | WARNING: Rounded down to 0
	;note C_, 0 | WARNING: Rounded down to 0
	;note D_, 0 | WARNING: Rounded down to 0
	drum_note 3, 2
	drum_note 1, 2
	;note C_, 0 | WARNING: Rounded down to 0
	drum_note 3, 1
	drum_note 1, 1
	;note C_, 0 | WARNING: Rounded down to 0
	drum_note 1, 2
	;note C#, 0 | WARNING: Rounded down to 0
	drum_note 1, 2
	;note C_, 0 | WARNING: Rounded down to 0
	drum_note 1, 2
	;note C_, 0 | WARNING: Rounded down to 0
	drum_note 2, 2
	;note C_, 0 | WARNING: Rounded down to 0
	drum_note 1, 2
;Bar 20
	drum_note 1, 2
	drum_note 1, 2
	;note C_, 0 | WARNING: Rounded down to 0
	drum_note 1, 1
	drum_note 1, 1
	drum_note 1, 2
	;note C#, 0 | WARNING: Rounded down to 0
	drum_note 1, 2
	;note C_, 0 | WARNING: Rounded down to 0
	drum_note 1, 2
	drum_note 1, 2
	drum_note 1, 2
;Bar 21
	;note C_, 0 | WARNING: Rounded down to 0
	;note C_, 0 | WARNING: Rounded down to 0
	drum_note 1, 2
	drum_note 1, 2
	;note C_, 0 | WARNING: Rounded down to 0
	drum_note 1, 1
	drum_note 1, 1
	;note C_, 0 | WARNING: Rounded down to 0
	drum_note 2, 2
	;note C#, 0 | WARNING: Rounded down to 0
	drum_note 1, 2
	;note C_, 0 | WARNING: Rounded down to 0
	drum_note 2, 2
	;note C_, 0 | WARNING: Rounded down to 0
	drum_note 4, 2
	;note C_, 0 | WARNING: Rounded down to 0
	drum_note 1, 2
;Bar 22
	;note C_, 0 | WARNING: Rounded down to 0
	drum_note 4, 2
	;note C_, 0 | WARNING: Rounded down to 0
	drum_note 5, 2
	;note C_, 0 | WARNING: Rounded down to 0
	drum_note 1, 1
	drum_note 1, 1
	;note C_, 0 | WARNING: Rounded down to 0
	drum_note 5, 2
	;note C_, 0 | WARNING: Rounded down to 0
	drum_note 2, 2
	;note C_, 0 | WARNING: Rounded down to 0
	drum_note 1, 2
	;note C_, 0 | WARNING: Rounded down to 0
	drum_note 4, 2
	drum_note 1, 2
;Bar 23
	;note C_, 0 | WARNING: Rounded down to 0
	;note C_, 0 | WARNING: Rounded down to 0
	;note D_, 0 | WARNING: Rounded down to 0
	drum_note 3, 2
	drum_note 1, 2
	;note C_, 0 | WARNING: Rounded down to 0
	drum_note 3, 1
	drum_note 1, 1
	;note C_, 0 | WARNING: Rounded down to 0
	drum_note 1, 2
	;note C#, 0 | WARNING: Rounded down to 0
	drum_note 1, 2
	;note C_, 0 | WARNING: Rounded down to 0
	drum_note 1, 2
	;note C_, 0 | WARNING: Rounded down to 0
	drum_note 2, 2
	;note C_, 0 | WARNING: Rounded down to 0
	drum_note 1, 2
;Bar 24
	drum_note 1, 2
	drum_note 1, 2
	;note C_, 0 | WARNING: Rounded down to 0
	drum_note 1, 1
	drum_note 1, 1
	drum_note 1, 2
	;note C#, 0 | WARNING: Rounded down to 0
	drum_note 1, 2
	;note C_, 0 | WARNING: Rounded down to 0
	drum_note 1, 2
	drum_note 1, 2
	drum_note 1, 2
;Bar 25
	;note C_, 0 | WARNING: Rounded down to 0
	;note C_, 0 | WARNING: Rounded down to 0
	drum_note 1, 2
	drum_note 1, 2
	;note C_, 0 | WARNING: Rounded down to 0
	drum_note 1, 1
	drum_note 1, 1
	;note C_, 0 | WARNING: Rounded down to 0
	drum_note 2, 2
	;note C#, 0 | WARNING: Rounded down to 0
	drum_note 1, 2
	;note C_, 0 | WARNING: Rounded down to 0
	drum_note 2, 2
	;note C_, 0 | WARNING: Rounded down to 0
	drum_note 4, 2
	;note C_, 0 | WARNING: Rounded down to 0
	drum_note 1, 2
;Bar 26
	;note C_, 0 | WARNING: Rounded down to 0
	drum_note 4, 2
	;note C_, 0 | WARNING: Rounded down to 0
	drum_note 5, 2
	;note C_, 0 | WARNING: Rounded down to 0
	drum_note 1, 1
	drum_note 1, 1
	;note C_, 0 | WARNING: Rounded down to 0
	drum_note 5, 2
	;note C_, 0 | WARNING: Rounded down to 0
	drum_note 2, 2
	;note C_, 0 | WARNING: Rounded down to 0
	drum_note 1, 2
	;note C_, 0 | WARNING: Rounded down to 0
	drum_note 4, 2
	drum_note 1, 2
;Bar 27
	;note C_, 0 | WARNING: Rounded down to 0
	;note C_, 0 | WARNING: Rounded down to 0
	;note D_, 0 | WARNING: Rounded down to 0
	drum_note 3, 2
	drum_note 1, 2
	;note C_, 0 | WARNING: Rounded down to 0
	drum_note 3, 1
	drum_note 1, 1
	;note C_, 0 | WARNING: Rounded down to 0
	drum_note 1, 2
	;note C#, 0 | WARNING: Rounded down to 0
	drum_note 1, 2
	;note C_, 0 | WARNING: Rounded down to 0
	drum_note 1, 2
	;note C_, 0 | WARNING: Rounded down to 0
	drum_note 2, 2
	;note C_, 0 | WARNING: Rounded down to 0
	drum_note 1, 2
;Bar 28
	drum_note 1, 2
	drum_note 1, 2
	;note C_, 0 | WARNING: Rounded down to 0
	drum_note 1, 1
	drum_note 1, 1
	drum_note 1, 2
	;note C#, 0 | WARNING: Rounded down to 0
	drum_note 1, 2
	;note C_, 0 | WARNING: Rounded down to 0
	drum_note 1, 2
	drum_note 1, 2
	drum_note 1, 2
;Bar 29
	;note C_, 0 | WARNING: Rounded down to 0
	;note C_, 0 | WARNING: Rounded down to 0
	drum_note 1, 2
	drum_note 1, 2
	;note C_, 0 | WARNING: Rounded down to 0
	drum_note 1, 1
	drum_note 1, 1
	;note C_, 0 | WARNING: Rounded down to 0
	drum_note 2, 2
	;note C#, 0 | WARNING: Rounded down to 0
	drum_note 1, 2
	;note C_, 0 | WARNING: Rounded down to 0
	drum_note 2, 2
	;note C_, 0 | WARNING: Rounded down to 0
	drum_note 4, 2
	;note C_, 0 | WARNING: Rounded down to 0
	drum_note 1, 2
;Bar 30
	;note C_, 0 | WARNING: Rounded down to 0
	drum_note 4, 2
	;note C_, 0 | WARNING: Rounded down to 0
	drum_note 5, 2
	;note C_, 0 | WARNING: Rounded down to 0
	drum_note 1, 1
	drum_note 1, 1
	;note C_, 0 | WARNING: Rounded down to 0
	drum_note 5, 2
	;note C_, 0 | WARNING: Rounded down to 0
	drum_note 2, 2
	;note C_, 0 | WARNING: Rounded down to 0
	drum_note 1, 2
	;note C_, 0 | WARNING: Rounded down to 0
	drum_note 4, 2
	drum_note 1, 2
;Bar 31
	;note C_, 0 | WARNING: Rounded down to 0
	;note C_, 0 | WARNING: Rounded down to 0
	;note D_, 0 | WARNING: Rounded down to 0
	drum_note 3, 2
	drum_note 1, 2
	;note C_, 0 | WARNING: Rounded down to 0
	drum_note 3, 1
	drum_note 1, 1
	;note C_, 0 | WARNING: Rounded down to 0
	drum_note 1, 2
	;note C#, 0 | WARNING: Rounded down to 0
	drum_note 1, 2
	;note C_, 0 | WARNING: Rounded down to 0
	drum_note 1, 2
	;note C_, 0 | WARNING: Rounded down to 0
	drum_note 2, 2
	;note C_, 0 | WARNING: Rounded down to 0
	drum_note 1, 2
;Bar 32
	drum_note 1, 2
	drum_note 1, 2
	;note C_, 0 | WARNING: Rounded down to 0
	drum_note 1, 1
	drum_note 1, 1
	drum_note 1, 2
	;note C#, 0 | WARNING: Rounded down to 0
	drum_note 1, 2
	;note C_, 0 | WARNING: Rounded down to 0
	drum_note 1, 2
	drum_note 1, 2
	drum_note 1, 2
;Bar 33
	;note C_, 0 | WARNING: Rounded down to 0
	;note C_, 0 | WARNING: Rounded down to 0
	drum_note 1, 2
	drum_note 1, 2
	;note C_, 0 | WARNING: Rounded down to 0
	drum_note 1, 1
	drum_note 1, 1
	;note C_, 0 | WARNING: Rounded down to 0
	drum_note 2, 2
	;note C#, 0 | WARNING: Rounded down to 0
	drum_note 1, 2
	;note C_, 0 | WARNING: Rounded down to 0
	drum_note 2, 2
	;note C_, 0 | WARNING: Rounded down to 0
	drum_note 4, 2
	;note C_, 0 | WARNING: Rounded down to 0
	drum_note 1, 2
;Bar 34
	;note C_, 0 | WARNING: Rounded down to 0
	drum_note 4, 2
	;note C_, 0 | WARNING: Rounded down to 0
	drum_note 5, 2
	;note C_, 0 | WARNING: Rounded down to 0
	drum_note 1, 1
	drum_note 1, 1
	;note C_, 0 | WARNING: Rounded down to 0
	drum_note 5, 2
	;note C_, 0 | WARNING: Rounded down to 0
	drum_note 2, 2
	;note C_, 0 | WARNING: Rounded down to 0
	drum_note 1, 2
	;note C_, 0 | WARNING: Rounded down to 0
	drum_note 4, 2
	drum_note 1, 2
;Bar 35
	;note C_, 0 | WARNING: Rounded down to 0
	;note C_, 0 | WARNING: Rounded down to 0
	;note D_, 0 | WARNING: Rounded down to 0
	drum_note 3, 2
	drum_note 1, 2
	;note C_, 0 | WARNING: Rounded down to 0
	drum_note 3, 1
	drum_note 1, 1
	;note C_, 0 | WARNING: Rounded down to 0
	drum_note 1, 2
	;note C#, 0 | WARNING: Rounded down to 0
	drum_note 1, 2
	;note C_, 0 | WARNING: Rounded down to 0
	drum_note 1, 2
	;note C_, 0 | WARNING: Rounded down to 0
	drum_note 2, 2
	;note C_, 0 | WARNING: Rounded down to 0
	drum_note 1, 2
;Bar 36
	drum_note 1, 2
	drum_note 1, 2
	;note C_, 0 | WARNING: Rounded down to 0
	drum_note 1, 1
	drum_note 1, 1
	drum_note 1, 2
	;note C#, 0 | WARNING: Rounded down to 0
	drum_note 1, 2
	;note C_, 0 | WARNING: Rounded down to 0
	drum_note 1, 2
	drum_note 1, 2
	drum_note 1, 2
;Bar 37
	;note C_, 0 | WARNING: Rounded down to 0
	;note C_, 0 | WARNING: Rounded down to 0
	drum_note 1, 2
	drum_note 1, 2
	;note C_, 0 | WARNING: Rounded down to 0
	drum_note 1, 1
	drum_note 1, 1
	;note C_, 0 | WARNING: Rounded down to 0
	drum_note 2, 2
	;note C#, 0 | WARNING: Rounded down to 0
	drum_note 1, 2
	;note C_, 0 | WARNING: Rounded down to 0
	drum_note 2, 2
	;note C_, 0 | WARNING: Rounded down to 0
	drum_note 4, 2
	;note C_, 0 | WARNING: Rounded down to 0
	drum_note 1, 2
;Bar 38
	;note C_, 0 | WARNING: Rounded down to 0
	drum_note 4, 2
	;note C_, 0 | WARNING: Rounded down to 0
	drum_note 5, 2
	;note C_, 0 | WARNING: Rounded down to 0
	drum_note 1, 1
	drum_note 1, 1
	;note C_, 0 | WARNING: Rounded down to 0
	drum_note 5, 2
	;note C_, 0 | WARNING: Rounded down to 0
	drum_note 2, 2
	;note C_, 0 | WARNING: Rounded down to 0
	drum_note 1, 2
	;note C_, 0 | WARNING: Rounded down to 0
	drum_note 4, 2
	drum_note 1, 2
;Bar 39
	;note C_, 0 | WARNING: Rounded down to 0
	;note C_, 0 | WARNING: Rounded down to 0
	;note D_, 0 | WARNING: Rounded down to 0
	drum_note 3, 2
	drum_note 1, 2
	;note C_, 0 | WARNING: Rounded down to 0
	drum_note 3, 1
	drum_note 1, 1
	;note C_, 0 | WARNING: Rounded down to 0
	drum_note 1, 2
	;note C#, 0 | WARNING: Rounded down to 0
	drum_note 1, 2
	;note C_, 0 | WARNING: Rounded down to 0
	drum_note 1, 2
	;note C_, 0 | WARNING: Rounded down to 0
	drum_note 2, 2
	;note C_, 0 | WARNING: Rounded down to 0
	drum_note 1, 2
	sound_ret

; ============================================================================================================

