;Coverted using MIDI2ASM
;Code by TriteHexagon
;Version 5.2.0 (16-Nov-2022)
;Visit github.com/TriteHexagon/Midi2ASM-Converter for up-to-date versions.

; ============================================================================================================

Music_SadAlex:
	channel_count 3
	channel 1, Music_SadAlex_Ch1
	channel 2, Music_SadAlex_Ch2
	channel 3, Music_SadAlex_Ch3

Music_SadAlex_Ch1:
	volume 7, 7
	duty_cycle 1
	note_type 12, 10, 7
	tempo 137
.mainloop
;Bar 1
	octave 3
	volume_envelope 9, 7
	note A_, 8
	note B_, 8
;Bar 2
	octave 4
	note C_, 4
	octave 3
	note E_, 4
	note A_, 4
	note B_, 4
;Bar 3
	octave 4
	note C_, 8
	note D_, 4
	note C_, 2
	note D_, 2
;Bar 4
	octave 3
	note B_, 8
	note G_, 2
	note A_, 2
	note G_, 2
	note E_, 2
;Bar 5
	note G_, 8
	note F_, 4
	note G_, 4
;Bar 6
	note A_, 4
	note D_, 4
	note F_, 4
	note A_, 4
;Bar 7
	octave 4
	note E_, 4
	note D_, 4
	note C_, 4
	note D_, 4
;Bar 8
	octave 3
	note B_, 12
	octave 4
	note C_, 2
	note D_, 2
;Bar 9
	note E_, 8
	octave 3
	note A_, 4
	note B_, 4
;Bar 10
	octave 4
	note C_, 4
	octave 3
	note E_, 4
	note A_, 4
	note B_, 4
;Bar 11
	octave 4
	note C_, 8
	note D_, 4
	note C_, 2
	note D_, 2
;Bar 12
	octave 3
	note B_, 8
	note G_, 2
	note A_, 2
	note G_, 2
	note E_, 2
;Bar 13
	note G_, 8
	note F_, 4
	note G_, 4
;Bar 14
	note A_, 4
	note D_, 4
	note F_, 4
	note A_, 4
;Bar 15
	octave 4
	note E_, 4
	note D_, 4
	note C_, 4
	note D_, 4
;Bar 16
	octave 3
	note B_, 12
	note A_, 2
	note G_, 2
;Bar 17
	note A_, 16
;Bar 18
	note A_, 8
	note B_, 8
;Bar 19
	octave 4
	note C_, 4
	octave 3
	note E_, 4
	note A_, 4
	note B_, 4
;Bar 20
	octave 4
	note C_, 8
	note D_, 4
	note C_, 2
	note D_, 2
;Bar 21
	octave 3
	note B_, 8
	note G_, 2
	note A_, 2
	note G_, 2
	note E_, 2
;Bar 22
	note G_, 8
	note F_, 4
	note G_, 4
;Bar 23
	note A_, 4
	note D_, 4
	note F_, 4
	note A_, 4
;Bar 24
	octave 4
	note E_, 4
	note D_, 4
	note C_, 4
	note D_, 4
;Bar 25
	octave 3
	note B_, 12
	octave 4
	note C_, 2
	note D_, 2
;Bar 26
	note E_, 8
	octave 3
	note A_, 4
	note B_, 4
;Bar 27
	octave 4
	note C_, 4
	octave 3
	note E_, 4
	note A_, 4
	note B_, 4
;Bar 28
	octave 4
	note C_, 8
	note D_, 4
	note C_, 2
	note D_, 2
;Bar 29
	octave 3
	note B_, 8
	note G_, 2
	note A_, 2
	note G_, 2
	note E_, 2
;Bar 30
	note G_, 8
	note F_, 4
	note G_, 4
;Bar 31
	note A_, 4
	note D_, 4
	note F_, 4
	note A_, 4
;Bar 32
	octave 4
	note E_, 4
	note D_, 4
	note C_, 4
	note D_, 4
;Bar 33
	octave 3
	note B_, 12
	note A_, 2
	note G_, 2
;Bar 34
	note A_, 16
	sound_loop 0, .mainloop

; ============================================================================================================

Music_SadAlex_Ch2:
	duty_cycle 1
	note_type 12, 10, 7
.mainloop
;Bar 1
	volume_envelope 9, 7
	rest 16
;Bar 2
	octave 3
	volume_envelope 7, 7
	note E_, 16
	note E_, 4
;Bar 3
	octave 2
	note A_, 4
	octave 3
	note C_, 4
	note E_, 4
;Bar 4
	note E_, 16
	note E_, 4
;Bar 5
	note G_, 4
	note F_, 4
	note E_, 4
;Bar 6
	note D_, 16
	note D_, 4
;Bar 7
	octave 2
	note A_, 4
	note B_, 4
	octave 3
	note C_, 4
;Bar 8
	octave 2
	note B_, 16
	note B_, 8
;Bar 9
	octave 3
	note C_, 4
	note D_, 4
;Bar 10
	note E_, 16
	note E_, 4
;Bar 11
	octave 2
	note A_, 4
	octave 3
	note C_, 4
	note E_, 4
;Bar 12
	note E_, 16
	note E_, 4
;Bar 13
	note G_, 4
	note F_, 4
	note E_, 4
;Bar 14
	note D_, 16
	note D_, 4
;Bar 15
	octave 2
	note A_, 4
	note B_, 4
	octave 3
	note C_, 4
;Bar 16
	note D_, 12
	note E_, 2
	note F_, 2
;Bar 17
	note E_, 16
;Bar 18
	rest 16
;Bar 19
	note E_, 16
	note E_, 4
;Bar 20
	octave 2
	note A_, 4
	octave 3
	note C_, 4
	note E_, 4
;Bar 21
	note E_, 16
	note E_, 4
;Bar 22
	note G_, 4
	note F_, 4
	note E_, 4
;Bar 23
	note D_, 16
	note D_, 4
;Bar 24
	octave 2
	note A_, 4
	note B_, 4
	octave 3
	note C_, 4
;Bar 25
	octave 2
	note B_, 16
	note B_, 8
;Bar 26
	octave 3
	note C_, 4
	note D_, 4
;Bar 27
	note E_, 16
	note E_, 4
;Bar 28
	octave 2
	note A_, 4
	octave 3
	note C_, 4
	note E_, 4
;Bar 29
	note E_, 16
	note E_, 4
;Bar 30
	note G_, 4
	note F_, 4
	note E_, 4
;Bar 31
	note D_, 16
	note D_, 4
;Bar 32
	octave 2
	note A_, 4
	note B_, 4
	octave 3
	note C_, 4
;Bar 33
	note D_, 12
	note E_, 2
	note F_, 2
;Bar 34
	note E_, 16
	sound_loop 0, .mainloop

; ============================================================================================================

Music_SadAlex_Ch3:
	note_type 12, 1, 0
.mainloop
;Bar 1
	volume_envelope 2, 0
	rest 16
;Bar 2
	octave 2
	note A_, 12
	octave 3
	note E_, 4
;Bar 3
	octave 4
	note C_, 4
	octave 3
	note B_, 4
	note A_, 4
	note E_, 4
;Bar 4
	octave 2
	note G_, 12
	octave 3
	note D_, 4
;Bar 5
	note B_, 4
	note A_, 4
	note G_, 4
	note D_, 4
;Bar 6
	octave 2
	note A_, 12
	octave 3
	note D_, 4
;Bar 7
	note A_, 4
	note G_, 4
	note F_, 4
	note D_, 4
;Bar 8
	octave 2
	note G#, 12
	note B_, 4
;Bar 9
	octave 3
	note G#, 4
	note F#, 4
	note E_, 4
	octave 2
	note B_, 4
;Bar 10
	note A_, 12
	octave 3
	note E_, 4
;Bar 11
	octave 4
	note C_, 4
	octave 3
	note B_, 4
	note A_, 4
	note E_, 4
;Bar 12
	octave 2
	note G_, 12
	octave 3
	note D_, 4
;Bar 13
	note B_, 4
	note A_, 4
	note G_, 4
	note D_, 4
;Bar 14
	octave 2
	note A_, 12
	octave 3
	note D_, 4
;Bar 15
	note A_, 4
	note G_, 4
	note F_, 4
	note D_, 4
;Bar 16
	octave 2
	note G#, 8
	octave 3
	note E_, 8
;Bar 17
	octave 2
	note A_, 16
;Bar 18
	rest 16
;Bar 19
	note A_, 12
	octave 3
	note E_, 4
;Bar 20
	octave 4
	note C_, 4
	octave 3
	note B_, 4
	note A_, 4
	note E_, 4
;Bar 21
	octave 2
	note G_, 12
	octave 3
	note D_, 4
;Bar 22
	note B_, 4
	note A_, 4
	note G_, 4
	note D_, 4
;Bar 23
	octave 2
	note A_, 12
	octave 3
	note D_, 4
;Bar 24
	note A_, 4
	note G_, 4
	note F_, 4
	note D_, 4
;Bar 25
	octave 2
	note G#, 12
	note B_, 4
;Bar 26
	octave 3
	note G#, 4
	note F#, 4
	note E_, 4
	octave 2
	note B_, 4
;Bar 27
	note A_, 12
	octave 3
	note E_, 4
;Bar 28
	octave 4
	note C_, 4
	octave 3
	note B_, 4
	note A_, 4
	note E_, 4
;Bar 29
	octave 2
	note G_, 12
	octave 3
	note D_, 4
;Bar 30
	note B_, 4
	note A_, 4
	note G_, 4
	note D_, 4
;Bar 31
	octave 2
	note A_, 12
	octave 3
	note D_, 4
;Bar 32
	note A_, 4
	note G_, 4
	note F_, 4
	note D_, 4
;Bar 33
	octave 2
	note G#, 8
	octave 3
	note E_, 8
;Bar 34
	octave 2
	note A_, 16
	sound_loop 0, .mainloop

; ============================================================================================================
