;Coverted using MIDI2ASM
;Code by TriteHexagon
;Version 5.2.0 (16-Nov-2022)
;Visit github.com/TriteHexagon/Midi2ASM-Converter for up-to-date versions.

; ============================================================================================================

Music_SafariRoute:
	channel_count 4
	channel 1, Music_SafariRoute_Ch1
	channel 2, Music_SafariRoute_Ch2
	channel 3, Music_SafariRoute_Ch3
	channel 4, Music_SafariRoute_Ch4

Music_SafariRoute_Ch1:
	volume 7, 7
	duty_cycle 3
	note_type 12, 10, 7
	tempo 193
.mainloop
;Bar 1
	rest 16
	rest 16
	rest 16
	rest 16
;Bar 5
	octave 3
	volume_envelope 7, 7
	note D_, 1
	volume_envelope 8, 7
	note F_, 1
	volume_envelope 7, 7
	note A_, 1
	octave 4
	volume_envelope 8, 7
	note D_, 1
;Bar 6
	octave 3
	volume_envelope 7, 7
	note D_, 1
	volume_envelope 8, 7
	note F_, 1
	note A_, 1
	octave 4
	note D_, 1
	octave 3
	volume_envelope 7, 7
	note D_, 1
	volume_envelope 8, 7
	note F_, 1
	note A_, 1
	octave 4
	note D_, 1
	octave 3
	volume_envelope 7, 7
	note D_, 1
	volume_envelope 8, 7
	note F_, 1
	note A_, 1
	octave 4
	note D_, 1
	octave 3
	note D_, 1
	note G_, 1
	note B_, 1
	octave 4
	volume_envelope 7, 7
	note D_, 1
;Bar 7
	octave 3
	volume_envelope 8, 7
	note D_, 1
	note G_, 1
	note B_, 1
	octave 4
	volume_envelope 7, 7
	note D_, 1
	octave 3
	note D_, 1
	volume_envelope 8, 7
	note G_, 1
	note B_, 1
	octave 4
	volume_envelope 7, 7
	note D_, 1
	octave 3
	volume_envelope 8, 7
	note D_, 1
	note G_, 1
	note B_, 1
	octave 4
	note D_, 1
	octave 3
	volume_envelope 7, 7
	note D_, 1
	volume_envelope 8, 7
	note F_, 1
	volume_envelope 7, 7
	note A_, 1
	octave 4
	volume_envelope 8, 7
	note D_, 1
;Bar 8
	octave 3
	volume_envelope 7, 7
	note D_, 1
	volume_envelope 8, 7
	note F_, 1
	note A_, 1
	octave 4
	note D_, 1
	octave 3
	volume_envelope 7, 7
	note D_, 1
	volume_envelope 8, 7
	note F_, 1
	note A_, 1
	octave 4
	note D_, 1
	octave 3
	volume_envelope 7, 7
	note D_, 1
	volume_envelope 8, 7
	note F_, 1
	note A_, 1
	octave 4
	note D_, 1
	octave 3
	note D_, 1
	note G_, 1
	note B_, 1
	octave 4
	volume_envelope 7, 7
	note D_, 1
;Bar 9
	octave 3
	volume_envelope 8, 7
	note D_, 1
	note G_, 1
	note B_, 1
	octave 4
	volume_envelope 7, 7
	note D_, 1
	octave 3
	note D_, 1
	volume_envelope 8, 7
	note G_, 1
	note B_, 1
	octave 4
	volume_envelope 7, 7
	note D_, 1
	octave 3
	volume_envelope 8, 7
	note D_, 1
	note G_, 1
	note B_, 1
	octave 4
	note D_, 1
	octave 3
	volume_envelope 7, 7
	note D_, 1
	volume_envelope 8, 7
	note F_, 1
	volume_envelope 7, 7
	note A_, 1
	octave 4
	volume_envelope 8, 7
	note D_, 1
;Bar 10
	octave 3
	volume_envelope 7, 7
	note D_, 1
	volume_envelope 8, 7
	note F_, 1
	note A_, 1
	octave 4
	note D_, 1
	octave 3
	volume_envelope 7, 7
	note D_, 1
	volume_envelope 8, 7
	note F_, 1
	note A_, 1
	octave 4
	note D_, 1
	octave 3
	volume_envelope 7, 7
	note D_, 1
	volume_envelope 8, 7
	note F_, 1
	note A_, 1
	octave 4
	note D_, 1
	octave 3
	note D_, 1
	note G_, 1
	note B_, 1
	octave 4
	volume_envelope 7, 7
	note D_, 1
;Bar 11
	octave 3
	volume_envelope 8, 7
	note D_, 1
	note G_, 1
	note B_, 1
	octave 4
	volume_envelope 7, 7
	note D_, 1
	octave 3
	note D_, 1
	volume_envelope 8, 7
	note G_, 1
	note B_, 1
	octave 4
	volume_envelope 7, 7
	note D_, 1
	octave 3
	volume_envelope 8, 7
	note D_, 1
	note G_, 1
	note B_, 1
	octave 4
	note D_, 1
	octave 3
	volume_envelope 7, 7
	note D_, 1
	volume_envelope 8, 7
	note F_, 1
	volume_envelope 7, 7
	note A_, 1
	octave 4
	volume_envelope 8, 7
	note D_, 1
;Bar 12
	octave 3
	volume_envelope 7, 7
	note D_, 1
	volume_envelope 8, 7
	note F_, 1
	note A_, 1
	octave 4
	note D_, 1
	octave 3
	volume_envelope 7, 7
	note D_, 1
	volume_envelope 8, 7
	note F_, 1
	note A_, 1
	octave 4
	note D_, 1
	octave 3
	volume_envelope 7, 7
	note D_, 1
	volume_envelope 8, 7
	note F_, 1
	note A_, 1
	octave 4
	note D_, 1
	octave 3
	note D_, 1
	note G_, 1
	note B_, 1
	octave 4
	volume_envelope 7, 7
	note D_, 1
;Bar 13
	octave 3
	volume_envelope 8, 7
	note D_, 1
	note G_, 1
	note B_, 1
	octave 4
	volume_envelope 7, 7
	note D_, 1
	octave 3
	note D_, 1
	volume_envelope 8, 7
	note G_, 1
	note B_, 1
	octave 4
	volume_envelope 7, 7
	note D_, 1
	octave 3
	volume_envelope 8, 7
	note D_, 1
	note G_, 1
	note B_, 1
	octave 4
	note D_, 1
	octave 3
	volume_envelope 7, 7
	note D_, 1
	volume_envelope 8, 7
	note F_, 1
	volume_envelope 7, 7
	note A_, 1
	octave 4
	volume_envelope 8, 7
	note D_, 1
;Bar 14
	octave 3
	volume_envelope 7, 7
	note D_, 1
	volume_envelope 8, 7
	note F_, 1
	note A_, 1
	octave 4
	note D_, 1
	octave 3
	volume_envelope 7, 7
	note D_, 1
	volume_envelope 8, 7
	note F_, 1
	note A_, 1
	octave 4
	note D_, 1
	octave 3
	volume_envelope 7, 7
	note D_, 1
	volume_envelope 8, 7
	note F_, 1
	note A_, 1
	octave 4
	note D_, 1
	octave 3
	note D_, 1
	note G_, 1
	note B_, 1
	octave 4
	volume_envelope 7, 7
	note D_, 1
;Bar 15
	octave 3
	volume_envelope 8, 7
	note D_, 1
	note G_, 1
	note B_, 1
	octave 4
	volume_envelope 7, 7
	note D_, 1
	octave 3
	note D_, 1
	volume_envelope 8, 7
	note G_, 1
	note B_, 1
	octave 4
	volume_envelope 7, 7
	note D_, 1
	octave 3
	volume_envelope 8, 7
	note D_, 1
	note G_, 1
	note B_, 1
	octave 4
	note D_, 1
	octave 3
	volume_envelope 7, 7
	note D_, 1
	volume_envelope 8, 7
	note F_, 1
	volume_envelope 7, 7
	note A_, 1
	octave 4
	volume_envelope 8, 7
	note D_, 1
;Bar 16
	octave 3
	volume_envelope 7, 7
	note D_, 1
	volume_envelope 8, 7
	note F_, 1
	note A_, 1
	octave 4
	note D_, 1
	octave 3
	volume_envelope 7, 7
	note D_, 1
	volume_envelope 8, 7
	note F_, 1
	note A_, 1
	octave 4
	note D_, 1
	octave 3
	volume_envelope 7, 7
	note D_, 1
	volume_envelope 8, 7
	note F_, 1
	note A_, 1
	octave 4
	note D_, 1
	octave 3
	note D_, 1
	note G_, 1
	note B_, 1
	octave 4
	volume_envelope 7, 7
	note D_, 1
;Bar 17
	octave 3
	volume_envelope 8, 7
	note D_, 1
	note G_, 1
	note B_, 1
	octave 4
	volume_envelope 7, 7
	note D_, 1
	octave 3
	note D_, 1
	volume_envelope 8, 7
	note G_, 1
	note B_, 1
	octave 4
	volume_envelope 7, 7
	note D_, 1
	octave 3
	volume_envelope 8, 7
	note D_, 1
	note G_, 1
	note B_, 1
	octave 4
	note D_, 1
	octave 3
	volume_envelope 7, 7
	note D_, 1
	volume_envelope 8, 7
	note F_, 1
	volume_envelope 7, 7
	note A_, 1
	octave 4
	volume_envelope 8, 7
	note D_, 1
;Bar 18
	octave 3
	volume_envelope 7, 7
	note D_, 1
	volume_envelope 8, 7
	note F_, 1
	note A_, 1
	octave 4
	note D_, 1
	octave 3
	volume_envelope 7, 7
	note D_, 1
	volume_envelope 8, 7
	note F_, 1
	note A_, 1
	octave 4
	note D_, 1
	octave 3
	volume_envelope 7, 7
	note D_, 1
	volume_envelope 8, 7
	note F_, 1
	note A_, 1
	octave 4
	note D_, 1
	octave 3
	note D_, 1
	note G_, 1
	note B_, 1
	octave 4
	volume_envelope 7, 7
	note D_, 1
;Bar 19
	octave 3
	volume_envelope 8, 7
	note D_, 1
	note G_, 1
	note B_, 1
	octave 4
	volume_envelope 7, 7
	note D_, 1
	octave 3
	note D_, 1
	volume_envelope 8, 7
	note G_, 1
	note B_, 1
	octave 4
	volume_envelope 7, 7
	note D_, 1
	octave 3
	volume_envelope 8, 7
	note D_, 1
	note G_, 1
	note B_, 1
	octave 4
	note D_, 1
	octave 3
	volume_envelope 7, 7
	note D_, 1
	volume_envelope 8, 7
	note F_, 1
	volume_envelope 7, 7
	note A_, 1
	octave 4
	volume_envelope 8, 7
	note D_, 1
;Bar 20
	octave 3
	volume_envelope 7, 7
	note D_, 1
	volume_envelope 8, 7
	note F_, 1
	note A_, 1
	octave 4
	note D_, 1
	octave 3
	volume_envelope 7, 7
	note D_, 1
	volume_envelope 8, 7
	note F_, 1
	note A_, 1
	octave 4
	note D_, 1
	octave 3
	volume_envelope 7, 7
	note D_, 1
	volume_envelope 8, 7
	note F_, 1
	note A_, 1
	octave 4
	note D_, 1
	octave 3
	note D_, 1
	note G_, 1
	note B_, 1
	octave 4
	volume_envelope 7, 7
	note D_, 1
;Bar 21
	octave 3
	volume_envelope 8, 7
	note D_, 1
	note G_, 1
	note B_, 1
	octave 4
	volume_envelope 7, 7
	note D_, 1
	octave 3
	note D_, 1
	volume_envelope 8, 7
	note G_, 1
	note B_, 1
	octave 4
	volume_envelope 7, 7
	note D_, 1
	octave 3
	volume_envelope 8, 7
	note D_, 1
	note G_, 1
	note B_, 1
	octave 4
	note D_, 1
	rest 16
	rest 16
	rest 16
	rest 16
	rest 16
	rest 16
	rest 16
	rest 16
	rest 16
	rest 16
	rest 16
	rest 16
	sound_loop 0, .mainloop

; ============================================================================================================

Music_SafariRoute_Ch2:
	duty_cycle 3
	note_type 12, 10, 7
.mainloop
;Bar 1
	volume_envelope 13, 5
	rest 16
	rest 16
	rest 16
	rest 16
;Bar 5
	octave 1
	note D_, 1
	rest 1
	note D_, 2
;Bar 6
	octave 2
	note D_, 1
	note C_, 1
	octave 1
	note A_, 1
	note G_, 2
	note G#, 1
	note A_, 1
	note F_, 2
	note D_, 1
	octave 2
	note D_, 2
	octave 1
	note D_, 2
	note D_, 2
;Bar 7
	octave 2
	note D_, 1
	note C_, 1
	octave 1
	note A_, 1
	note G_, 2
	note G#, 1
	note A_, 1
	note F_, 2
	note D_, 1
	octave 2
	note F_, 2
	octave 1
	note D_, 1
	rest 1
	note D_, 2
;Bar 8
	octave 2
	note D_, 1
	note C_, 1
	octave 1
	note A_, 1
	note G_, 2
	note G#, 1
	note A_, 1
	note F_, 2
	note D_, 1
	octave 2
	note D_, 2
	octave 1
	note D_, 2
	note D_, 2
;Bar 9
	octave 2
	note D_, 1
	note C_, 1
	octave 1
	note A_, 1
	octave 2
	note G_, 2
	note F#, 1
	note F_, 1
	note D_, 1
	note C_, 1
	octave 1
	note A_, 1
	note G_, 1
	note F_, 1
	note D_, 1
	rest 1
	note D_, 2
;Bar 10
	octave 2
	note D_, 1
	note C_, 1
	octave 1
	note A_, 1
	note G_, 2
	note G#, 1
	note A_, 1
	note F_, 2
	note D_, 1
	octave 2
	note D_, 2
	octave 1
	note D_, 2
	note D_, 2
;Bar 11
	octave 2
	note D_, 1
	note C_, 1
	octave 1
	note A_, 1
	note G_, 2
	note G#, 1
	note A_, 1
	note F_, 2
	note D_, 1
	octave 2
	note F_, 2
	octave 1
	note D_, 1
	rest 1
	note D_, 2
;Bar 12
	octave 2
	note D_, 1
	note C_, 1
	octave 1
	note A_, 1
	note G_, 2
	note G#, 1
	note A_, 1
	note F_, 2
	note D_, 1
	octave 2
	note D_, 2
	octave 1
	note D_, 2
	note D_, 2
;Bar 13
	octave 2
	note D_, 1
	note C_, 1
	octave 1
	note A_, 1
	octave 2
	note G_, 2
	note F#, 1
	note F_, 1
	note D_, 1
	note C_, 1
	octave 1
	note A_, 1
	note G_, 1
	note F_, 1
	note D_, 1
	rest 1
	note D_, 2
;Bar 14
	octave 2
	note D_, 1
	note C_, 1
	octave 1
	note A_, 1
	note G_, 2
	note G#, 1
	note A_, 1
	note F_, 2
	note D_, 1
	octave 2
	note D_, 2
	octave 1
	note D_, 2
	note D_, 2
;Bar 15
	octave 2
	note D_, 1
	note C_, 1
	octave 1
	note A_, 1
	note G_, 2
	note G#, 1
	note A_, 1
	note F_, 2
	note D_, 1
	octave 2
	note F_, 2
	octave 1
	note D_, 1
	rest 1
	note D_, 2
;Bar 16
	octave 2
	note D_, 1
	note C_, 1
	octave 1
	note A_, 1
	note G_, 2
	note G#, 1
	note A_, 1
	note F_, 2
	note D_, 1
	octave 2
	note D_, 2
	octave 1
	note D_, 2
	note D_, 2
;Bar 17
	octave 2
	note D_, 1
	note C_, 1
	octave 1
	note A_, 1
	octave 2
	note G_, 2
	note F#, 1
	note F_, 1
	note D_, 1
	note C_, 1
	octave 1
	note A_, 1
	note G_, 1
	note F_, 1
	note D_, 1
	rest 1
	note D_, 2
;Bar 18
	octave 2
	note D_, 1
	note C_, 1
	octave 1
	note A_, 1
	note G_, 2
	note G#, 1
	note A_, 1
	note F_, 2
	note D_, 1
	octave 2
	note D_, 2
	octave 1
	note D_, 2
	note D_, 2
;Bar 19
	octave 2
	note D_, 1
	note C_, 1
	octave 1
	note A_, 1
	note G_, 2
	note G#, 1
	note A_, 1
	note F_, 2
	note D_, 1
	octave 2
	note F_, 2
	octave 1
	note D_, 1
	rest 1
	note D_, 2
;Bar 20
	octave 2
	note D_, 1
	note C_, 1
	octave 1
	note A_, 1
	note G_, 2
	note G#, 1
	note A_, 1
	note F_, 2
	note D_, 1
	octave 2
	note D_, 2
	octave 1
	note D_, 2
	note D_, 2
;Bar 21
	octave 2
	note D_, 1
	note C_, 1
	octave 1
	note A_, 1
	octave 2
	note G_, 2
	note F#, 1
	note F_, 1
	note D_, 1
	note C_, 1
	octave 1
	note A_, 1
	note G_, 1
	note F_, 1
	note D_, 1
	rest 1
	note D_, 2
;Bar 22
	octave 2
	note D_, 1
	note C_, 1
	octave 1
	note A_, 1
	note G_, 2
	note G#, 1
	note A_, 1
	note F_, 2
	note D_, 1
	octave 2
	note D_, 2
	octave 1
	note D_, 2
	note D_, 2
;Bar 23
	octave 2
	note D_, 1
	note C_, 1
	octave 1
	note A_, 1
	note G_, 2
	note G#, 1
	note A_, 1
	note F_, 2
	note D_, 1
	octave 2
	note F_, 2
	octave 1
	note D_, 1
	rest 1
	note D_, 2
;Bar 24
	octave 2
	note D_, 1
	note C_, 1
	octave 1
	note A_, 1
	note G_, 2
	note G#, 1
	note A_, 1
	note F_, 2
	note D_, 1
	octave 2
	note D_, 2
	octave 1
	note D_, 2
	note D_, 2
;Bar 25
	octave 2
	note D_, 1
	note C_, 1
	octave 1
	note A_, 1
	octave 2
	note G_, 2
	note F#, 1
	note F_, 1
	note D_, 1
	note C_, 1
	octave 1
	note A_, 1
	note G_, 1
	note F_, 1
	octave 2
	note D_, 1
	note C_, 1
	note D_, 1
	octave 1
	note D_, 3
;Bar 26
	octave 2
	note D_, 1
	note C_, 1
	note D_, 1
	octave 1
	note D_, 3
	octave 2
	note C_, 1
	note D_, 1
	note F_, 2
	note D_, 1
	note C_, 1
	note D_, 1
	octave 1
	note D_, 3
;Bar 27
	octave 2
	note D_, 1
	note C_, 1
	note D_, 1
	note C_, 1
	octave 1
	note A_, 1
	note G#, 1
	volume_envelope 11, 7
	note G_, 1
	volume_envelope 13, 7
	note F#, 1
	note F_, 2
	octave 2
	note D_, 1
	note C_, 1
	note D_, 1
	octave 1
	note D_, 3
;Bar 28
	octave 2
	note D_, 1
	note C_, 1
	note D_, 1
	octave 1
	note D_, 3
	octave 2
	note C_, 1
	note D_, 1
	note F_, 2
	note D_, 1
	note C_, 1
	note D_, 1
	octave 1
	note D_, 3
;Bar 29
	octave 2
	note D_, 1
	note C_, 1
	note D_, 1
	note C_, 1
	octave 1
	note A_, 1
	note G#, 1
	volume_envelope 11, 7
	note G_, 1
	volume_envelope 13, 7
	note F#, 1
	note F_, 2
	octave 2
	note D_, 1
	note C_, 1
	note D_, 1
	octave 1
	note D_, 3
;Bar 30
	octave 2
	note D_, 1
	note C_, 1
	note D_, 1
	octave 1
	note D_, 3
	octave 2
	note C_, 1
	note D_, 1
	note F_, 2
	note D_, 1
	note C_, 1
	note D_, 1
	octave 1
	note D_, 3
;Bar 31
	octave 2
	note D_, 1
	note C_, 1
	note D_, 1
	note C_, 1
	octave 1
	note A_, 1
	note G#, 1
	volume_envelope 11, 7
	note G_, 1
	volume_envelope 13, 7
	note F#, 1
	note F_, 2
	octave 2
	note D_, 1
	note C_, 1
	note D_, 1
	octave 1
	note D_, 3
;Bar 32
	octave 2
	note D_, 1
	note C_, 1
	note D_, 1
	octave 1
	note D_, 3
	octave 2
	note C_, 1
	note D_, 1
	note F_, 2
	note D_, 1
	note C_, 1
	note D_, 1
	octave 1
	note D_, 3
;Bar 33
	octave 2
	note D_, 1
	note C_, 1
	note D_, 1
	note C_, 1
	octave 1
	note A_, 1
	note G#, 1
	volume_envelope 11, 7
	note G_, 1
	volume_envelope 13, 7
	note F#, 1
	note F_, 2
	sound_loop 0, .mainloop

; ============================================================================================================

Music_SafariRoute_Ch3:
	note_type 12, 1, 0
.mainloop
;Bar 1
	volume_envelope 1, 0
	rest 16
	rest 16
	rest 16
	rest 16
;Bar 5
	octave 1
	volume_envelope 2, 0
	note D_, 1
	rest 1
	volume_envelope 1, 0
	note D_, 2
;Bar 6
	octave 2
	note D_, 1
	note C_, 1
	octave 1
	note A_, 1
	note G_, 2
	note G#, 1
	note A_, 1
	volume_envelope 2, 0
	note F_, 2
	volume_envelope 1, 0
	note D_, 1
	octave 2
	note D_, 2
	octave 1
	note D_, 2
	note D_, 2
;Bar 7
	octave 2
	note D_, 1
	note C_, 1
	octave 1
	note A_, 1
	note G_, 2
	note G#, 1
	note A_, 1
	note F_, 2
	note D_, 1
	octave 2
	note F_, 2
	octave 1
	volume_envelope 2, 0
	note D_, 1
	rest 1
	volume_envelope 1, 0
	note D_, 2
;Bar 8
	octave 2
	note D_, 1
	note C_, 1
	octave 1
	note A_, 1
	note G_, 2
	note G#, 1
	note A_, 1
	volume_envelope 2, 0
	note F_, 2
	volume_envelope 1, 0
	note D_, 1
	octave 2
	note D_, 2
	octave 1
	note D_, 2
	note D_, 2
;Bar 9
	octave 2
	note D_, 1
	note C_, 1
	octave 1
	note A_, 1
	note G_, 2
	note G#, 1
	note A_, 1
	note F_, 2
	note D_, 1
	octave 2
	note F_, 2
	octave 1
	volume_envelope 2, 0
	note D_, 1
	rest 1
	volume_envelope 1, 0
	note D_, 2
;Bar 10
	octave 2
	note D_, 1
	note C_, 1
	octave 1
	note A_, 1
	note G_, 2
	note G#, 1
	note A_, 1
	volume_envelope 2, 0
	note F_, 2
	volume_envelope 1, 0
	note D_, 1
	octave 2
	note D_, 2
	octave 1
	note D_, 2
	note D_, 2
;Bar 11
	octave 2
	note D_, 1
	note C_, 1
	octave 1
	note A_, 1
	note G_, 2
	note G#, 1
	note A_, 1
	note F_, 2
	note D_, 1
	octave 2
	note F_, 2
	octave 1
	volume_envelope 2, 0
	note D_, 1
	rest 1
	volume_envelope 1, 0
	note D_, 2
;Bar 12
	octave 2
	note D_, 1
	note C_, 1
	octave 1
	note A_, 1
	note G_, 2
	note G#, 1
	note A_, 1
	volume_envelope 2, 0
	note F_, 2
	volume_envelope 1, 0
	note D_, 1
	octave 2
	note D_, 2
	octave 1
	note D_, 2
	note D_, 2
;Bar 13
	octave 2
	note D_, 1
	note C_, 1
	octave 1
	note A_, 1
	note G_, 2
	note G#, 1
	note A_, 1
	note F_, 2
	note D_, 1
	octave 2
	note F_, 2
	octave 1
	volume_envelope 2, 0
	note D_, 1
	rest 1
	volume_envelope 1, 0
	note D_, 2
;Bar 14
	octave 2
	note D_, 1
	note C_, 1
	octave 1
	note A_, 1
	note G_, 2
	note G#, 1
	note A_, 1
	volume_envelope 2, 0
	note F_, 2
	volume_envelope 1, 0
	note D_, 1
	octave 2
	note D_, 2
	octave 1
	note D_, 2
	note D_, 2
;Bar 15
	octave 2
	note D_, 1
	note C_, 1
	octave 1
	note A_, 1
	note G_, 2
	note G#, 1
	note A_, 1
	note F_, 2
	note D_, 1
	octave 2
	note F_, 2
	octave 1
	volume_envelope 2, 0
	note D_, 1
	rest 1
	volume_envelope 1, 0
	note D_, 2
;Bar 16
	octave 2
	note D_, 1
	note C_, 1
	octave 1
	note A_, 1
	note G_, 2
	note G#, 1
	note A_, 1
	volume_envelope 2, 0
	note F_, 2
	volume_envelope 1, 0
	note D_, 1
	octave 2
	note D_, 2
	octave 1
	note D_, 2
	note D_, 2
;Bar 17
	octave 2
	note D_, 1
	note C_, 1
	octave 1
	note A_, 1
	note G_, 2
	note G#, 1
	note A_, 1
	note F_, 2
	note D_, 1
	octave 2
	note F_, 2
	octave 1
	volume_envelope 2, 0
	note D_, 1
	rest 1
	volume_envelope 1, 0
	note D_, 2
;Bar 18
	octave 2
	note D_, 1
	note C_, 1
	octave 1
	note A_, 1
	note G_, 2
	note G#, 1
	note A_, 1
	volume_envelope 2, 0
	note F_, 2
	volume_envelope 1, 0
	note D_, 1
	octave 2
	note D_, 2
	octave 1
	note D_, 2
	note D_, 2
;Bar 19
	octave 2
	note D_, 1
	note C_, 1
	octave 1
	note A_, 1
	note G_, 2
	note G#, 1
	note A_, 1
	note F_, 2
	note D_, 1
	octave 2
	note F_, 2
	octave 1
	volume_envelope 2, 0
	note D_, 1
	rest 1
	volume_envelope 1, 0
	note D_, 2
;Bar 20
	octave 2
	note D_, 1
	note C_, 1
	octave 1
	note A_, 1
	note G_, 2
	note G#, 1
	note A_, 1
	volume_envelope 2, 0
	note F_, 2
	volume_envelope 1, 0
	note D_, 1
	octave 2
	note D_, 2
	octave 1
	note D_, 2
	note D_, 2
;Bar 21
	octave 2
	note D_, 1
	note C_, 1
	octave 1
	note A_, 1
	note G_, 2
	note G#, 1
	note A_, 1
	note F_, 2
	note D_, 1
	octave 2
	note F_, 2
	rest 16
	rest 16
	rest 16
	rest 16
;Bar 25
	note D_, 1
	note C_, 1
	note D_, 1
	octave 1
	note D_, 3
;Bar 26
	octave 2
	note D_, 1
	note C_, 1
	note D_, 1
	octave 1
	note D_, 3
	octave 2
	note C_, 1
	note D_, 1
	note F_, 2
	note D_, 1
	note C_, 1
	note D_, 1
	octave 1
	note D_, 3
;Bar 27
	octave 2
	note D_, 1
	note C_, 1
	note D_, 1
	note C_, 1
	octave 1
	note A_, 1
	note G#, 1
	volume_envelope 2, 0
	note G_, 1
	volume_envelope 1, 0
	note F#, 1
	note F_, 2
	octave 2
	note D_, 1
	note C_, 1
	note D_, 1
	octave 1
	note D_, 3
;Bar 28
	octave 2
	note D_, 1
	note C_, 1
	note D_, 1
	octave 1
	note D_, 3
	octave 2
	note C_, 1
	note D_, 1
	note F_, 2
	note D_, 1
	note C_, 1
	note D_, 1
	octave 1
	note D_, 3
;Bar 29
	octave 2
	note D_, 1
	note C_, 1
	note D_, 1
	note C_, 1
	octave 1
	note A_, 1
	note G#, 1
	volume_envelope 2, 0
	note G_, 1
	volume_envelope 1, 0
	note F#, 1
	note F_, 1
	rest 1
	octave 2
	note D_, 1
	note C_, 1
	note D_, 1
	octave 1
	note D_, 3
;Bar 30
	octave 2
	note D_, 1
	note C_, 1
	note D_, 1
	octave 1
	note D_, 3
	octave 2
	note C_, 1
	note D_, 1
	note F_, 2
	note D_, 1
	note C_, 1
	note D_, 1
	octave 1
	note D_, 3
;Bar 31
	octave 2
	note D_, 1
	note C_, 1
	note D_, 1
	note C_, 1
	octave 1
	note A_, 1
	note G#, 1
	volume_envelope 2, 0
	note G_, 1
	volume_envelope 1, 0
	note F#, 1
	note F_, 2
	octave 2
	note D_, 1
	note C_, 1
	note D_, 1
	octave 1
	note D_, 3
;Bar 32
	octave 2
	note D_, 1
	note C_, 1
	note D_, 1
	octave 1
	note D_, 3
	octave 2
	note C_, 1
	note D_, 1
	note F_, 2
	note D_, 1
	note C_, 1
	note D_, 1
	octave 1
	note D_, 3
;Bar 33
	octave 2
	note D_, 1
	note C_, 1
	note D_, 1
	note C_, 1
	octave 1
	note A_, 1
	note G#, 1
	volume_envelope 2, 0
	note G_, 1
	volume_envelope 1, 0
	note F#, 1
	note F_, 2
	sound_loop 0, .mainloop

; ============================================================================================================

Music_SafariRoute_Ch4:
	toggle_noise 1
	drum_speed 12
.mainloop
;Bar 1
	drum_note 1, 2
	drum_note 1, 2
;Bar 2
	drum_note 5, 2
	drum_note 1, 1
	drum_note 5, 1
	drum_note 1, 1
	drum_note 5, 1
	drum_note 1, 2
	drum_note 5, 2
	drum_note 1, 1
	drum_note 5, 1
	drum_note 1, 2
	drum_note 1, 2
;Bar 3
	drum_note 5, 2
	drum_note 1, 1
	drum_note 5, 1
	drum_note 1, 1
	drum_note 5, 1
	drum_note 1, 2
	drum_note 5, 2
	drum_note 1, 1
	drum_note 5, 1
	drum_note 1, 2
	drum_note 1, 2
;Bar 4
	drum_note 5, 2
	drum_note 1, 1
	drum_note 5, 1
	drum_note 1, 1
	drum_note 5, 1
	drum_note 1, 2
	drum_note 5, 2
	drum_note 1, 1
	drum_note 5, 1
	drum_note 1, 2
	drum_note 1, 2
;Bar 5
	drum_note 5, 2
	drum_note 1, 1
	drum_note 5, 1
	drum_note 1, 1
	drum_note 5, 1
	drum_note 1, 2
	drum_note 5, 4
	drum_note 1, 2
	drum_note 1, 2
;Bar 6
	drum_note 3, 2
	drum_note 1, 1
	drum_note 3, 1
	drum_note 1, 1
	drum_note 3, 1
	drum_note 1, 2
	drum_note 3, 2
	drum_note 1, 1
	drum_note 3, 1
	drum_note 1, 2
	drum_note 1, 2
;Bar 7
	drum_note 3, 2
	drum_note 1, 1
	drum_note 3, 1
	drum_note 1, 1
	drum_note 3, 1
	drum_note 1, 2
	drum_note 3, 2
	drum_note 1, 1
	drum_note 3, 1
	drum_note 1, 2
	drum_note 1, 2
;Bar 8
	drum_note 3, 2
	drum_note 1, 1
	drum_note 3, 1
	drum_note 1, 1
	drum_note 3, 1
	drum_note 1, 2
	drum_note 3, 2
	drum_note 1, 1
	drum_note 3, 1
	drum_note 1, 2
	drum_note 1, 2
;Bar 9
	drum_note 3, 2
	drum_note 1, 1
	drum_note 3, 1
	drum_note 1, 1
	drum_note 3, 1
	drum_note 1, 2
	drum_note 3, 4
	drum_note 1, 2
	drum_note 1, 2
;Bar 10
	drum_note 3, 2
	drum_note 1, 1
	drum_note 3, 1
	drum_note 1, 1
	drum_note 3, 1
	drum_note 1, 2
	drum_note 3, 2
	drum_note 1, 1
	drum_note 3, 1
	drum_note 1, 2
	drum_note 1, 2
;Bar 11
	drum_note 3, 2
	drum_note 1, 1
	drum_note 3, 1
	drum_note 1, 1
	drum_note 3, 1
	drum_note 1, 2
	drum_note 3, 2
	drum_note 1, 1
	drum_note 3, 1
	drum_note 1, 2
	drum_note 1, 2
;Bar 12
	drum_note 3, 2
	drum_note 1, 1
	drum_note 3, 1
	drum_note 1, 1
	drum_note 3, 1
	drum_note 1, 2
	drum_note 3, 2
	drum_note 1, 1
	drum_note 3, 1
	drum_note 1, 2
	drum_note 1, 2
;Bar 13
	drum_note 3, 2
	drum_note 1, 1
	drum_note 3, 1
	drum_note 1, 1
	drum_note 3, 1
	drum_note 1, 2
	drum_note 3, 4
	drum_note 1, 2
	drum_note 1, 2
;Bar 14
	drum_note 3, 2
	drum_note 1, 1
	drum_note 3, 1
	drum_note 1, 1
	drum_note 3, 1
	drum_note 1, 2
	drum_note 3, 2
	drum_note 1, 1
	drum_note 3, 1
	drum_note 1, 2
	drum_note 1, 2
;Bar 15
	drum_note 3, 2
	drum_note 1, 1
	drum_note 3, 1
	drum_note 1, 1
	drum_note 3, 1
	drum_note 1, 2
	drum_note 3, 2
	drum_note 1, 1
	drum_note 3, 1
	drum_note 1, 2
	drum_note 1, 2
;Bar 16
	drum_note 3, 2
	drum_note 1, 1
	drum_note 3, 1
	drum_note 1, 1
	drum_note 3, 1
	drum_note 1, 2
	drum_note 3, 2
	drum_note 1, 1
	drum_note 3, 1
	drum_note 1, 2
	drum_note 1, 2
;Bar 17
	drum_note 3, 2
	drum_note 1, 1
	drum_note 3, 1
	drum_note 1, 1
	drum_note 3, 1
	drum_note 1, 2
	drum_note 3, 4
	drum_note 1, 2
	drum_note 1, 2
;Bar 18
	drum_note 3, 2
	drum_note 1, 1
	drum_note 3, 1
	drum_note 1, 1
	drum_note 3, 1
	drum_note 1, 2
	drum_note 3, 2
	drum_note 1, 1
	drum_note 3, 1
	drum_note 1, 2
	drum_note 1, 2
;Bar 19
	drum_note 3, 2
	drum_note 1, 1
	drum_note 3, 1
	drum_note 1, 1
	drum_note 3, 1
	drum_note 1, 2
	drum_note 3, 2
	drum_note 1, 1
	drum_note 3, 1
	drum_note 1, 2
	drum_note 1, 2
;Bar 20
	drum_note 3, 2
	drum_note 1, 1
	drum_note 3, 1
	drum_note 1, 1
	drum_note 3, 1
	drum_note 1, 2
	drum_note 3, 2
	drum_note 1, 1
	drum_note 3, 1
	drum_note 1, 2
	drum_note 1, 2
;Bar 21
	drum_note 3, 2
	drum_note 1, 1
	drum_note 3, 1
	drum_note 1, 1
	drum_note 3, 1
	drum_note 1, 2
	drum_note 3, 4
	drum_note 1, 2
	drum_note 1, 2
;Bar 22
	drum_note 5, 2
	drum_note 1, 1
	drum_note 5, 1
	drum_note 1, 1
	drum_note 5, 1
	drum_note 1, 2
	drum_note 5, 2
	drum_note 1, 1
	drum_note 5, 1
	drum_note 1, 2
	drum_note 1, 2
;Bar 23
	drum_note 5, 2
	drum_note 1, 1
	drum_note 5, 1
	drum_note 1, 1
	drum_note 5, 1
	drum_note 1, 2
	drum_note 5, 2
	drum_note 1, 1
	drum_note 5, 1
	drum_note 1, 2
	drum_note 1, 2
;Bar 24
	drum_note 5, 2
	drum_note 1, 1
	drum_note 5, 1
	drum_note 1, 1
	drum_note 5, 1
	drum_note 1, 2
	drum_note 5, 2
	drum_note 1, 1
	drum_note 5, 1
	drum_note 1, 16
;Bar 25
	drum_note 1, 2
	drum_note 1, 2
;Bar 26
	drum_note 3, 2
	drum_note 1, 1
	drum_note 3, 1
	drum_note 1, 1
	drum_note 3, 1
	drum_note 1, 2
	drum_note 3, 2
	drum_note 1, 1
	drum_note 3, 1
	drum_note 1, 2
	drum_note 1, 2
;Bar 27
	drum_note 3, 2
	drum_note 1, 1
	drum_note 3, 1
	drum_note 1, 1
	drum_note 3, 1
	drum_note 1, 2
	drum_note 3, 2
	drum_note 1, 1
	drum_note 3, 1
	drum_note 1, 2
	drum_note 1, 2
;Bar 28
	drum_note 3, 2
	drum_note 1, 1
	drum_note 3, 1
	drum_note 1, 1
	drum_note 3, 1
	drum_note 1, 2
	drum_note 3, 2
	drum_note 1, 1
	drum_note 3, 1
	drum_note 1, 2
	drum_note 1, 2
;Bar 29
	drum_note 3, 2
	drum_note 1, 1
	drum_note 3, 1
	drum_note 1, 1
	drum_note 3, 1
	drum_note 1, 2
	drum_note 3, 4
	drum_note 1, 2
	drum_note 1, 2
;Bar 30
	drum_note 3, 2
	drum_note 1, 1
	drum_note 3, 1
	drum_note 1, 1
	drum_note 3, 1
	drum_note 1, 2
	drum_note 3, 2
	drum_note 1, 1
	drum_note 3, 1
	drum_note 1, 2
	drum_note 1, 2
;Bar 31
	drum_note 3, 2
	drum_note 1, 1
	drum_note 3, 1
	drum_note 1, 1
	drum_note 3, 1
	drum_note 1, 2
	drum_note 3, 2
	drum_note 1, 1
	drum_note 3, 1
	drum_note 1, 2
	drum_note 1, 2
;Bar 32
	drum_note 3, 2
	drum_note 1, 1
	drum_note 3, 1
	drum_note 1, 1
	drum_note 3, 1
	drum_note 1, 2
	drum_note 3, 2
	drum_note 1, 1
	drum_note 3, 1
	drum_note 1, 2
	drum_note 1, 2
;Bar 33
	drum_note 3, 2
	drum_note 1, 1
	drum_note 3, 1
	drum_note 1, 1
	drum_note 3, 1
	drum_note 1, 2
	;note D_, 0 | WARNING: Rounded down to 0
	rest 4
	sound_loop 0, .mainloop

; ============================================================================================================

