;Coverted using MIDI2ASM
;Code by TriteHexagon
;Version 5.2.0 (16-Nov-2022)
;Visit github.com/TriteHexagon/Midi2ASM-Converter for up-to-date versions.

; ============================================================================================================

Music_Sewers:
	channel_count 4
	channel 1, Music_Sewers_Ch1
	channel 2, Music_Sewers_Ch2
	channel 3, Music_Sewers_Ch3
	channel 4, Music_Sewers_Ch4

Music_Sewers_Ch1:
	volume 7, 7
	duty_cycle 2
	note_type 12, 10, 7
	tempo 106
;Bar 1
	rest 3
	octave 4
	volume_envelope 9, 7
	note G#, 1
	rest 4
	note G_, 1 ; WARNING: Auto-Sync says: Rounded up!
	rest 7
;Bar 2
	note F_, 1
	rest 6
	note D_, 1 ; WARNING: Auto-Sync says: Rounded up!
	rest 11
;Bar 3
	note G#, 1
	rest 4
	note G_, 1 ; WARNING: Auto-Sync says: Rounded up!
	rest 7
;Bar 4
	note F_, 1 ; WARNING: Auto-Sync says: Rounded up!
	rest 6
	note D_, 1 ; WARNING: Auto-Sync says: Rounded up!
	rest 7
	octave 5
	note C_, 1
;Bar 5
	note D_, 1
	rest 3
	octave 4
	note A_, 1 ; WARNING: Auto-Sync says: Rounded up!
	rest 2
	note G_, 1
	note A_, 1
	rest 2
	note D_, 1 ; WARNING: Auto-Sync says: Rounded up!
	rest 3
	note D_, 1 ; WARNING: Auto-Sync says: Rounded up!
;Bar 6
	note F_, 1 ; WARNING: Auto-Sync says: Rounded up!
	note G_, 2
	note G#, 1 ; WARNING: Auto-Sync says: Rounded up!
	note G_, 1
	rest 2
	note F_, 1 ; WARNING: Auto-Sync says: Rounded up!
	note G_, 1 ; WARNING: Auto-Sync says: Rounded up!
	rest 2
	note D_, 1
	note F_, 1 ; WARNING: Auto-Sync says: Rounded up!
	rest 2
	note G_, 1
;Bar 7
	note A_, 1 ; WARNING: Auto-Sync says: Rounded up!
	rest 3
	octave 5
	note C_, 1 ; WARNING: Auto-Sync says: Rounded up!
	rest 3
	note D_, 1
	rest 6
	note C_, 1 ; WARNING: Auto-Sync says: Rounded up!
;Bar 8
	note D_, 1 ; WARNING: Auto-Sync says: Rounded up!
	rest 2
	octave 4
	note A_, 1
	note G#, 1
	rest 2
	note G_, 1 ; WARNING: Auto-Sync says: Rounded up!
	rest 7
	octave 5
	note C_, 1 ; WARNING: Auto-Sync says: Rounded up!
;Bar 9
	note D_, 1 ; WARNING: Auto-Sync says: Rounded up!
	rest 3
	octave 4
	note A_, 1 ; WARNING: Auto-Sync says: Rounded up!
	rest 2
	note G_, 1
	note A_, 1 ; WARNING: Auto-Sync says: Rounded up!
	rest 2
	note D_, 1
	rest 3
	note D_, 1 ; WARNING: Auto-Sync says: Rounded up!
;Bar 10
	note G#, 1
	note G_, 2
	note F_, 1
	note G_, 1
	rest 2
	note G#, 1 ; WARNING: Auto-Sync says: Rounded up!
	rest 4
	note A_, 1 ; WARNING: Auto-Sync says: Rounded up!
	rest 2
	octave 5
	note C_, 1 ; WARNING: Auto-Sync says: Rounded up!
;Bar 11
	note D_, 1
	rest 3
	note F_, 1
	rest 3
	note G#, 1
	rest 2
	note G_, 1
	note F_, 1 ; WARNING: Auto-Sync says: Rounded up!
	rest 2
	note D_, 1
;Bar 12
	rest 15
	note C_, 1 ; WARNING: Auto-Sync says: Rounded up!
;Bar 13
	note D_, 1
	rest 3
	octave 4
	note A_, 1
	rest 2
	note G_, 1 ; WARNING: Auto-Sync says: Rounded up!
	note A_, 1
	rest 2
	note D_, 1
	rest 3
	note D_, 1
;Bar 14
	note F_, 1
	note G_, 2
	note G#, 1 ; WARNING: Auto-Sync says: Rounded up!
	note G_, 1
	rest 2
	note F_, 1 ; WARNING: Auto-Sync says: Rounded up!
	note G_, 1 ; WARNING: Auto-Sync says: Rounded up!
	rest 2
	note D_, 1 ; WARNING: Auto-Sync says: Rounded up!
	note F_, 1 ; WARNING: Auto-Sync says: Rounded up!
	rest 2
	note G_, 1 ; WARNING: Auto-Sync says: Rounded up!
;Bar 15
	note A_, 1
	rest 3
	octave 5
	note C_, 1 ; WARNING: Auto-Sync says: Rounded up!
	rest 3
	note D_, 1 ; WARNING: Auto-Sync says: Rounded up!
	rest 6
	note C_, 1
;Bar 16
	note D_, 1 ; WARNING: Auto-Sync says: Rounded up!
	rest 2
	octave 4
	note A_, 1
	note G#, 1 ; WARNING: Auto-Sync says: Rounded up!
	rest 2
	note G_, 1
	rest 7
	octave 5
	note C_, 1
;Bar 17
	note D_, 1
	rest 3
	octave 4
	note A_, 1 ; WARNING: Auto-Sync says: Rounded up!
	rest 2
	note G_, 1
	note A_, 1 ; WARNING: Auto-Sync says: Rounded up!
	rest 2
	note D_, 1
	rest 3
	note D_, 1 ; WARNING: Auto-Sync says: Rounded up!
;Bar 18
	note G#, 1 ; WARNING: Auto-Sync says: Rounded up!
	note G_, 2 ; WARNING: Auto-Sync says: Rounded up!
	note F_, 1
	note G_, 1
	rest 2
	note G#, 1 ; WARNING: Auto-Sync says: Rounded up!
	rest 4
	note A_, 1
	rest 2
	octave 5
	note C_, 1 ; WARNING: Auto-Sync says: Rounded up!
;Bar 19
	note D_, 1 ; WARNING: Auto-Sync says: Rounded up!
	rest 3
	note F_, 1 ; WARNING: Auto-Sync says: Rounded up!
	rest 3
	note G#, 1
	rest 2
	note G_, 1
	note F_, 1
	rest 2
	note D_, 1 ; WARNING: Auto-Sync says: Rounded up!
;Bar 20
	rest 3
	note C_, 1 ; WARNING: Auto-Sync says: Rounded up!
	note D_, 1 ; WARNING: Auto-Sync says: Rounded up!
	rest 2
	note C_, 1
	note D_, 1
	rest 2
	note G_, 1 ; WARNING: Auto-Sync says: Rounded up!
	rest 7
;Bar 21
	note E_, 1
	rest 4
	note E_, 1 ; WARNING: Auto-Sync says: Rounded up!
	rest 3
	note D_, 1
	rest 3
;Bar 22
	note E_, 1
	rest 2
	note E_, 1
	note D_, 1
	rest 2
	note E_, 1 ; WARNING: Auto-Sync says: Rounded up!
	rest 8
;Bar 23
	note D#, 1
	rest 2
	note D_, 1 ; WARNING: Auto-Sync says: Rounded up!
	note C_, 1
	rest 2
	octave 4
	note A_, 1
	octave 5
	note C_, 1 ; WARNING: Auto-Sync says: Rounded up!
	rest 2
	note C_, 1
	rest 3
	octave 4
	note A_, 1
;Bar 24
	octave 5
	note C_, 1 ; WARNING: Auto-Sync says: Rounded up!
	rest 2
	note D_, 1
	rest 3
	note C_, 1 ; WARNING: Auto-Sync says: Rounded up!
	rest 11
;Bar 25
	note E_, 1
	rest 4
	note E_, 1 ; WARNING: Auto-Sync says: Rounded up!
	rest 3
	note D_, 1 ; WARNING: Auto-Sync says: Rounded up!
	rest 3
;Bar 26
	note E_, 1 ; WARNING: Auto-Sync says: Rounded up!
	rest 2
	note E_, 1
	note D_, 1
	rest 2
	note E_, 1 ; WARNING: Auto-Sync says: Rounded up!
	rest 8
;Bar 27
	octave 4
	note A_, 1
	rest 2
	octave 5
	note C_, 1 ; WARNING: Auto-Sync says: Rounded up!
	note D_, 1 ; WARNING: Auto-Sync says: Rounded up!
	rest 2
	note D#, 1 ; WARNING: Auto-Sync says: Rounded up!
	rest 3
	note D_, 1
	note C_, 1 ; WARNING: Auto-Sync says: Rounded up!
	rest 2
	note G#, 1
;Bar 28
	rest 3
	note D#, 1 ; WARNING: Auto-Sync says: Rounded up!
	note D_, 1
	rest 2
	note C_, 1 ; WARNING: Auto-Sync says: Rounded up!
	note D_, 1 ; WARNING: Auto-Sync says: Rounded up!
	rest 2
	note E_, 1 ; WARNING: Auto-Sync says: Rounded up!
	rest 7
;Bar 29
	octave 4
	note G#, 1 ; WARNING: Auto-Sync says: Rounded up!
	rest 4
	note G_, 1
	rest 7
;Bar 30
	note F_, 1 ; WARNING: Auto-Sync says: Rounded up!
	rest 6
	note D_, 1 ; WARNING: Auto-Sync says: Rounded up!
	rest 11
;Bar 31
	note G#, 1
	rest 4
	note G_, 1 ; WARNING: Auto-Sync says: Rounded up!
	rest 7
;Bar 32
	note F_, 1 ; WARNING: Auto-Sync says: Rounded up!
	rest 6
	note D_, 1
	rest 7
	octave 5
	note C_, 1
;Bar 33
	note D_, 1
	rest 3
	octave 4
	note A_, 1 ; WARNING: Auto-Sync says: Rounded up!
	rest 2
	note G_, 1 ; WARNING: Auto-Sync says: Rounded up!
	note A_, 1 ; WARNING: Auto-Sync says: Rounded up!
	rest 2
	note D_, 1
	rest 3
	note D_, 1
;Bar 34
	note F_, 1 ; WARNING: Auto-Sync says: Rounded up!
	note G_, 2 ; WARNING: Auto-Sync says: Rounded up!
	note G#, 1
	note G_, 1 ; WARNING: Auto-Sync says: Rounded up!
	rest 2
	note F_, 1 ; WARNING: Auto-Sync says: Rounded up!
	note G_, 1
	rest 2
	note D_, 1
	note F_, 1
	rest 2
	note G_, 1
;Bar 35
	note A_, 1
	rest 3
	octave 5
	note C_, 1 ; WARNING: Auto-Sync says: Rounded up!
	rest 3
	note D_, 1 ; WARNING: Auto-Sync says: Rounded up!
	rest 6
	note C_, 1
;Bar 36
	note D_, 1 ; WARNING: Auto-Sync says: Rounded up!
	rest 2
	octave 4
	note A_, 1 ; WARNING: Auto-Sync says: Rounded up!
	note G#, 1 ; WARNING: Auto-Sync says: Rounded up!
	rest 2
	note G_, 1
	rest 7
	octave 5
	note C_, 1
;Bar 37
	note D_, 1
	rest 3
	octave 4
	note A_, 1
	rest 2
	note G_, 1
	note A_, 1
	rest 2
	note D_, 1
	rest 3
	note D_, 1
;Bar 38
	note G#, 1
	note G_, 2
	note F_, 1
	note G_, 1
	rest 2
	note G#, 1
	rest 4
	note A_, 1
	rest 2
	octave 5
	note C_, 1
;Bar 39
	note D_, 1
	rest 3
	note F_, 1
	rest 3
	note G#, 1
	rest 2
	note G_, 1
	note F_, 1
	rest 2
	note D_, 1
;Bar 40
	rest 15
	note C_, 1
;Bar 41
	note D_, 1
	rest 3
	octave 4
	note A_, 1
	rest 2
	note G_, 1
	note A_, 1
	rest 2
	note D_, 1
	rest 3
	note D_, 1
;Bar 42
	note F_, 1
	note G_, 2
	note G#, 1
	note G_, 1
	rest 2
	note F_, 1
	note G_, 1
	rest 2
	note D_, 1
	note F_, 1
	rest 2
	note G_, 1
;Bar 43
	note A_, 1
	rest 3
	octave 5
	note C_, 1
	rest 3
	note D_, 1
	rest 6
	note C_, 1
;Bar 44
	note D_, 1
	rest 2
	octave 4
	note A_, 1
	note G#, 1
	rest 2
	note G_, 1
	rest 7
	octave 5
	note C_, 1
;Bar 45
	note D_, 1
	rest 3
	octave 4
	note A_, 1
	rest 2
	note G_, 1
	note A_, 1
	rest 2
	note D_, 1
	rest 3
	note D_, 1
;Bar 46
	note G#, 1
	note G_, 2
	note F_, 1
	note G_, 1
	rest 2
	note G#, 1
	rest 4
	note A_, 1
	rest 2
	octave 5
	note C_, 1
;Bar 47
	note D_, 1
	rest 3
	note F_, 1
	rest 3
	note G#, 1
	rest 2
	note G_, 1
	note F_, 1
	rest 2
	note D_, 1
;Bar 48
	rest 3
	note C_, 1
	note D_, 1
	rest 2
	note C_, 1
	note D_, 1
	rest 2
	note G_, 1
	rest 7
;Bar 49
	note E_, 1
	rest 4
	note E_, 1
	rest 3
	note D_, 1
	rest 3
;Bar 50
	note E_, 1
	rest 2
	note E_, 1
	note D_, 1
	rest 2
	note E_, 1
	rest 8
;Bar 51
	note D#, 1
	rest 2
	note D_, 1
	note C_, 1
	rest 2
	octave 4
	note A_, 1
	octave 5
	note C_, 1
	rest 2
	note C_, 1
	rest 3
	octave 4
	note A_, 1
;Bar 52
	octave 5
	note C_, 1
	rest 2
	note D_, 1
	rest 3
	note C_, 1
	rest 11
;Bar 53
	note E_, 1
	rest 4
	note E_, 1
	rest 3
	note D_, 1
	rest 3
;Bar 54
	note E_, 1
	rest 2
	note E_, 1
	note D_, 1
	rest 2
	note E_, 1
	rest 8
;Bar 55
	octave 4
	note A_, 1
	rest 2
	octave 5
	note C_, 1
	note D_, 1
	rest 2
	note D#, 1
	rest 3
	note D_, 1
	note C_, 1
	rest 2
	note G#, 1
;Bar 56
	rest 3
	note D#, 1
	note D_, 1
	rest 2
	note C_, 1
	note D_, 1
	rest 2
	note E_, 1
	rest 7
;Bar 57
	octave 4
	note G#, 1
	rest 4
	note G_, 1
	rest 7
;Bar 58
	note F_, 1
	rest 6
	note D_, 1
	rest 11
;Bar 59
	note G#, 1
	rest 4
	note G_, 1
	rest 7
;Bar 60
	note F_, 1
	rest 6
	note D_, 1
	rest 7
	octave 5
	note C_, 1
;Bar 61
	note D_, 1
	rest 3
	octave 4
	note A_, 1
	rest 2
	note G_, 1
	note A_, 1
	rest 2
	note D_, 1
	rest 3
	note D_, 1
;Bar 62
	note F_, 1
	note G_, 2
	note G#, 1
	note G_, 1
	rest 2
	note F_, 1
	note G_, 1
	rest 2
	note D_, 1
	note F_, 1
	rest 2
	note G_, 1
;Bar 63
	note A_, 1
	rest 3
	octave 5
	note C_, 1
	rest 3
	note D_, 1
	rest 6
	note C_, 1
;Bar 64
	note D_, 1
	rest 2
	octave 4
	note A_, 1
	note G#, 1
	rest 2
	note G_, 1
	rest 7
	octave 5
	note C_, 1
;Bar 65
	note D_, 1
	rest 3
	octave 4
	note A_, 1
	rest 2
	note G_, 1
	note A_, 1
	rest 2
	note D_, 1
	rest 3
	note D_, 1
;Bar 66
	note G#, 1
	note G_, 2
	note F_, 1
	note G_, 1
	rest 2
	note G#, 1
	rest 4
	note A_, 1
	rest 2
	octave 5
	note C_, 1
;Bar 67
	note D_, 1
	rest 3
	note F_, 1
	rest 3
	note G#, 1
	rest 2
	note G_, 1
	note F_, 1
	rest 2
	note D_, 1
;Bar 68
	rest 15
	note C_, 1
;Bar 69
	note D_, 1
	rest 3
	octave 4
	note A_, 1
	rest 2
	note G_, 1
	note A_, 1
	rest 2
	note D_, 1
	rest 3
	note D_, 1
;Bar 70
	note F_, 1
	note G_, 2
	note G#, 1
	note G_, 1
	rest 2
	note F_, 1
	note G_, 1
	rest 2
	note D_, 1
	note F_, 1
	rest 2
	note G_, 1
;Bar 71
	note A_, 1
	rest 3
	octave 5
	note C_, 1
	rest 3
	note D_, 1
	rest 6
	note C_, 1
;Bar 72
	note D_, 1
	rest 2
	octave 4
	note A_, 1
	note G#, 1
	rest 2
	note G_, 1
	rest 7
	octave 5
	note C_, 1
;Bar 73
	note D_, 1
	rest 3
	octave 4
	note A_, 1
	rest 2
	note G_, 1
	note A_, 1
	rest 2
	note D_, 1
	rest 3
	note D_, 1
;Bar 74
	note G#, 1
	note G_, 2
	note F_, 1
	note G_, 1
	rest 2
	note G#, 1
	rest 4
	note A_, 1
	rest 2
	octave 5
	note C_, 1
;Bar 75
	note D_, 1
	rest 3
	note F_, 1
	rest 3
	note G#, 1
	rest 2
	note G_, 1
	note F_, 1
	rest 2
	note D_, 1
;Bar 76
	rest 3
	note C_, 1
	note D_, 1
	rest 2
	note C_, 1
	note D_, 1
	rest 2
	note G_, 1
	rest 7
;Bar 77
	note E_, 1
	rest 4
	note E_, 1
	rest 3
	note D_, 1
	rest 3
;Bar 78
	note E_, 1
	rest 2
	note E_, 1
	note D_, 1
	rest 2
	note E_, 1
	rest 8
;Bar 79
	note D#, 1
	rest 2
	note D_, 1
	note C_, 1
	rest 2
	octave 4
	note A_, 1
	octave 5
	note C_, 1
	rest 2
	note C_, 1
	rest 3
	octave 4
	note A_, 1
;Bar 80
	octave 5
	note C_, 1
	rest 2
	note D_, 1
	rest 3
	note C_, 1
	rest 11
;Bar 81
	note E_, 1
	rest 4
	note E_, 1
	rest 3
	note D_, 1
	rest 3
;Bar 82
	note E_, 1
	rest 2
	note E_, 1
	note D_, 1
	rest 2
	note E_, 1
	rest 8
;Bar 83
	octave 4
	note A_, 1
	rest 2
	octave 5
	note C_, 1
	note D_, 1
	rest 2
	note D#, 1
	rest 3
	note D_, 1
	note C_, 1
	rest 2
	note G#, 1
;Bar 84
	rest 3
	note D#, 1
	note D_, 1
	rest 2
	note C_, 1
	note D_, 1
	rest 2
	note E_, 1
	sound_ret

; ============================================================================================================

Music_Sewers_Ch2:
	duty_cycle 1
	note_type 12, 10, 7
;Bar 1
	volume_envelope 9, 7
	rest 3
	octave 3
	note F_, 1
	rest 4
	note E_, 1 ; WARNING: Auto-Sync says: Rounded up!
	rest 7
;Bar 2
	note D_, 1
	rest 6
	octave 2
	note A_, 1 ; WARNING: Auto-Sync says: Rounded up!
	rest 11
;Bar 3
	octave 3
	note F_, 1
	rest 4
	note E_, 1 ; WARNING: Auto-Sync says: Rounded up!
	rest 7
;Bar 4
	note D_, 1
	rest 6
	octave 2
	note A_, 1 ; WARNING: Auto-Sync says: Rounded up!
	rest 7
	octave 4
	note C_, 1
;Bar 5
	note D_, 1
	rest 7
	note F_, 1
	rest 7
;Bar 6
	note G_, 1
	rest 6
	note G#, 1
	rest 7
	note C_, 1
;Bar 7
	note D_, 1
	rest 7
	note F_, 1 ; WARNING: Auto-Sync says: Rounded up!
	rest 7
;Bar 8
	note G_, 1
	rest 6
	note C#, 1
	rest 7
	note C_, 1 ; WARNING: Auto-Sync says: Rounded up!
;Bar 9
	note D_, 1 ; WARNING: Auto-Sync says: Rounded up!
	rest 7
	note F_, 1
	rest 7
;Bar 10
	note G_, 1
	rest 6
	note G#, 1 ; WARNING: Auto-Sync says: Rounded up!
	rest 7
	note C_, 1
;Bar 11
	note D_, 1 ; WARNING: Auto-Sync says: Rounded up!
	rest 7
	note G#, 1
	rest 7
;Bar 12
	note G_, 1 ; WARNING: Auto-Sync says: Rounded up!
	rest 6
	note D_, 1
	rest 7
	octave 3
	note G_, 1
;Bar 13
	note A_, 1
	rest 6
	note D_, 1 ; WARNING: Auto-Sync says: Rounded up!
	rest 3
	octave 2
	note A_, 1
	rest 3
	note A_, 1
;Bar 14
	octave 3
	note D_, 1
	note E_, 2
	note F_, 1
	note E_, 1
	rest 2
	note D_, 1
	note E_, 1
	rest 2
	octave 2
	note A_, 1 ; WARNING: Auto-Sync says: Rounded up!
	rest 3
	note A_, 1
;Bar 15
	note A_, 1 ; WARNING: Auto-Sync says: Rounded up!
	rest 2
	octave 3
	note D_, 1
	rest 3
	note D_, 1
	rest 3
	note F#, 1 ; WARNING: Auto-Sync says: Rounded up!
	note F_, 1
	rest 2
	note E_, 1
;Bar 16
	note F_, 1 ; WARNING: Auto-Sync says: Rounded up!
	rest 2
	note D_, 1
	note C#, 1
	rest 2
	note C_, 1
	rest 7
	note G_, 1
;Bar 17
	note A_, 1 ; WARNING: Auto-Sync says: Rounded up!
	rest 6
	note D_, 1
	rest 3
	octave 2
	note A_, 1 ; WARNING: Auto-Sync says: Rounded up!
	rest 3
	note A_, 1
;Bar 18
	octave 3
	note F_, 1
	note E_, 2 ; WARNING: Auto-Sync says: Rounded up!
	note D_, 1
	note E_, 1
	rest 2
	note F_, 1 ; WARNING: Auto-Sync says: Rounded up!
	rest 4
	note D_, 1 ; WARNING: Auto-Sync says: Rounded up!
	rest 2
	note E_, 1
;Bar 19
	note F_, 1 ; WARNING: Auto-Sync says: Rounded up!
	rest 3
	note A_, 1 ; WARNING: Auto-Sync says: Rounded up!
	rest 3
	octave 4
	note C_, 1 ; WARNING: Auto-Sync says: Rounded up!
	rest 2
	octave 3
	note B_, 1
	note G_, 1 ; WARNING: Auto-Sync says: Rounded up!
	rest 2
	note A_, 1 ; WARNING: Auto-Sync says: Rounded up!
;Bar 20
	rest 11
	note A#, 1 ; WARNING: Auto-Sync says: Rounded up!
	rest 7
;Bar 21
	note F_, 1
	rest 4
	note F_, 1 ; WARNING: Auto-Sync says: Rounded up!
	rest 3
	note F_, 1 ; WARNING: Auto-Sync says: Rounded up!
	rest 3
;Bar 22
	note F_, 1
	rest 2
	note F_, 1 ; WARNING: Auto-Sync says: Rounded up!
	note F_, 1
	rest 2
	note F_, 1
	rest 8
;Bar 23
	note C_, 1
	rest 3
	note D#, 1 ; WARNING: Auto-Sync says: Rounded up!
	rest 3
	note F#, 1
	rest 3
	note G_, 1
	rest 3
;Bar 24
	note D#, 1
	rest 3
	note D_, 1
	rest 3
	note C_, 1
	rest 3
	octave 2
	note A_, 1
	rest 6
;Bar 25
	octave 3
	note F_, 1 ; WARNING: Auto-Sync says: Rounded up!
	rest 4
	note F_, 1 ; WARNING: Auto-Sync says: Rounded up!
	rest 3
	note F_, 1
	rest 3
;Bar 26
	note F_, 1
	rest 2
	note F_, 1 ; WARNING: Auto-Sync says: Rounded up!
	note F_, 1
	rest 2
	note F_, 1
	rest 8
;Bar 27
	note A_, 1
	rest 2
	octave 4
	note C_, 1
	note D_, 1 ; WARNING: Auto-Sync says: Rounded up!
	rest 2
	note D#, 1
	rest 3
	note D_, 1 ; WARNING: Auto-Sync says: Rounded up!
	note C_, 1
	rest 2
	note G#, 1
;Bar 28
	rest 3
	note D#, 1
	note D_, 1
	rest 2
	note C_, 1 ; WARNING: Auto-Sync says: Rounded up!
	note D_, 1
	rest 2
	octave 3
	note E_, 1
	rest 7
;Bar 29
	note F_, 1
	rest 4
	note E_, 1
	rest 7
;Bar 30
	note D_, 1 ; WARNING: Auto-Sync says: Rounded up!
	rest 6
	octave 2
	note A_, 1 ; WARNING: Auto-Sync says: Rounded up!
	rest 11
;Bar 31
	octave 3
	note F_, 1 ; WARNING: Auto-Sync says: Rounded up!
	rest 4
	note E_, 1
	rest 7
;Bar 32
	note D_, 1 ; WARNING: Auto-Sync says: Rounded up!
	rest 6
	octave 2
	note A_, 1
	rest 7
	octave 4
	note C_, 1
;Bar 33
	note D_, 1
	rest 7
	note F_, 1 ; WARNING: Auto-Sync says: Rounded up!
	rest 7
;Bar 34
	note G_, 1 ; WARNING: Auto-Sync says: Rounded up!
	rest 6
	note G#, 1
	rest 7
	note C_, 1 ; WARNING: Auto-Sync says: Rounded up!
;Bar 35
	note D_, 1
	rest 7
	note F_, 1
	rest 7
;Bar 36
	note G_, 1
	rest 6
	note C#, 1 ; WARNING: Auto-Sync says: Rounded up!
	rest 7
	note C_, 1
;Bar 37
	note D_, 1
	rest 7
	note F_, 1
	rest 7
;Bar 38
	note G_, 1
	rest 6
	note G#, 1 ; WARNING: Auto-Sync says: Rounded up!
	rest 7
	note C_, 1
;Bar 39
	note D_, 1
	rest 7
	note G#, 1 ; WARNING: Auto-Sync says: Rounded up!
	rest 7
;Bar 40
	note G_, 1 ; WARNING: Auto-Sync says: Rounded up!
	rest 6
	note D_, 1
	rest 7
	octave 3
	note G_, 1
;Bar 41
	note A_, 1 ; WARNING: Auto-Sync says: Rounded up!
	rest 6
	note D_, 1
	rest 3
	octave 2
	note A_, 1
	rest 3
	note A_, 1
;Bar 42
	octave 3
	note D_, 1
	note E_, 2
	note F_, 1
	note E_, 1
	rest 2
	note D_, 1
	note E_, 1
	rest 2
	octave 2
	note A_, 1
	rest 3
	note A_, 1
;Bar 43
	note A_, 1
	rest 2
	octave 3
	note D_, 1
	rest 3
	note D_, 1
	rest 3
	note F#, 1
	note F_, 1
	rest 2
	note E_, 1
;Bar 44
	note F_, 1
	rest 2
	note D_, 1
	note C#, 1
	rest 2
	note C_, 1
	rest 7
	note G_, 1
;Bar 45
	note A_, 1
	rest 6
	note D_, 1
	rest 3
	octave 2
	note A_, 1
	rest 3
	note A_, 1
;Bar 46
	octave 3
	note F_, 1
	note E_, 2
	note D_, 1
	note E_, 1
	rest 2
	note F_, 1
	rest 4
	note D_, 1
	rest 2
	note E_, 1
;Bar 47
	note F_, 1
	rest 3
	note A_, 1
	rest 3
	octave 4
	note C_, 1
	rest 2
	octave 3
	note B_, 1
	note G_, 1
	rest 2
	note A_, 1
;Bar 48
	rest 11
	note A#, 1
	rest 7
;Bar 49
	note F_, 1
	rest 4
	note F_, 1
	rest 3
	note F_, 1
	rest 3
;Bar 50
	note F_, 1
	rest 2
	note F_, 1
	note F_, 1
	rest 2
	note F_, 1
	rest 8
;Bar 51
	note C_, 1
	rest 3
	note D#, 1
	rest 3
	note F#, 1
	rest 3
	note G_, 1
	rest 3
;Bar 52
	note D#, 1
	rest 3
	note D_, 1
	rest 3
	note C_, 1
	rest 3
	octave 2
	note A_, 1
	rest 6
;Bar 53
	octave 3
	note F_, 1
	rest 4
	note F_, 1
	rest 3
	note F_, 1
	rest 3
;Bar 54
	note F_, 1
	rest 2
	note F_, 1
	note F_, 1
	rest 2
	note F_, 1
	rest 8
;Bar 55
	note A_, 1
	rest 2
	octave 4
	note C_, 1
	note D_, 1
	rest 2
	note D#, 1
	rest 3
	note D_, 1
	note C_, 1
	rest 2
	note G#, 1
;Bar 56
	rest 3
	note D#, 1
	note D_, 1
	rest 2
	note C_, 1
	note D_, 1
	rest 2
	octave 3
	note E_, 1
	rest 7
;Bar 57
	note F_, 1
	rest 4
	note E_, 1
	rest 7
;Bar 58
	note D_, 1
	rest 6
	octave 2
	note A_, 1
	rest 11
;Bar 59
	octave 3
	note F_, 1
	rest 4
	note E_, 1
	rest 7
;Bar 60
	note D_, 1
	rest 6
	octave 2
	note A_, 1
	rest 7
	octave 4
	note C_, 1
;Bar 61
	note D_, 1
	rest 7
	note F_, 1
	rest 7
;Bar 62
	note G_, 1
	rest 6
	note G#, 1
	rest 7
	note C_, 1
;Bar 63
	note D_, 1
	rest 7
	note F_, 1
	rest 7
;Bar 64
	note G_, 1
	rest 6
	note C#, 1
	rest 7
	note C_, 1
;Bar 65
	note D_, 1
	rest 7
	note F_, 1
	rest 7
;Bar 66
	note G_, 1
	rest 6
	note G#, 1
	rest 7
	note C_, 1
;Bar 67
	note D_, 1
	rest 7
	note G#, 1
	rest 7
;Bar 68
	note G_, 1
	rest 6
	note D_, 1
	rest 7
	octave 3
	note G_, 1
;Bar 69
	note A_, 1
	rest 6
	note D_, 1
	rest 3
	octave 2
	note A_, 1
	rest 3
	note A_, 1
;Bar 70
	octave 3
	note D_, 1
	note E_, 2
	note F_, 1
	note E_, 1
	rest 2
	note D_, 1
	note E_, 1
	rest 2
	octave 2
	note A_, 1
	rest 3
	note A_, 1
;Bar 71
	note A_, 1
	rest 2
	octave 3
	note D_, 1
	rest 3
	note D_, 1
	rest 3
	note F#, 1
	note F_, 1
	rest 2
	note E_, 1
;Bar 72
	note F_, 1
	rest 2
	note D_, 1
	note C#, 1
	rest 2
	note C_, 1
	rest 7
	note G_, 1
;Bar 73
	note A_, 1
	rest 6
	note D_, 1
	rest 3
	octave 2
	note A_, 1
	rest 3
	note A_, 1
;Bar 74
	octave 3
	note F_, 1
	note E_, 2
	note D_, 1
	note E_, 1
	rest 2
	note F_, 1
	rest 4
	note D_, 1
	rest 2
	note E_, 1
;Bar 75
	note F_, 1
	rest 3
	note A_, 1
	rest 3
	octave 4
	note C_, 1
	rest 2
	octave 3
	note B_, 1
	note G_, 1
	rest 2
	note A_, 1
;Bar 76
	rest 11
	note A#, 1
	rest 7
;Bar 77
	note F_, 1
	rest 4
	note F_, 1
	rest 3
	note F_, 1
	rest 3
;Bar 78
	note F_, 1
	rest 2
	note F_, 1
	note F_, 1
	rest 2
	note F_, 1
	rest 8
;Bar 79
	note C_, 1
	rest 3
	note D#, 1
	rest 3
	note F#, 1
	rest 3
	note G_, 1
	rest 3
;Bar 80
	note D#, 1
	rest 3
	note D_, 1
	rest 3
	note C_, 1
	rest 3
	octave 2
	note A_, 1
	rest 6
;Bar 81
	octave 3
	note F_, 1
	rest 4
	note F_, 1
	rest 3
	note F_, 1
	rest 3
;Bar 82
	note F_, 1
	rest 2
	note F_, 1
	note F_, 1
	rest 2
	note F_, 1
	rest 8
;Bar 83
	note A_, 1
	rest 2
	octave 4
	note C_, 1
	note D_, 1
	rest 2
	note D#, 1
	rest 3
	note D_, 1
	note C_, 1
	rest 2
	note G#, 1
;Bar 84
	rest 3
	note D#, 1
	note D_, 1
	rest 2
	note C_, 1
	note D_, 1
	rest 2
	octave 3
	note E_, 1
	sound_ret

; ============================================================================================================

Music_Sewers_Ch3:
	note_type 12, 1, 0
;Bar 1
	octave 2
	volume_envelope 2, 0
	note D_, 1 ; WARNING: Auto-Sync says: Rounded up!
	rest 2
	note C_, 1
	note C#, 1 ; WARNING: Auto-Sync says: Rounded up!
	rest 2
	note D_, 1 ; WARNING: Auto-Sync says: Rounded up!
	rest 3
	note C_, 1 ; WARNING: Auto-Sync says: Rounded up!
	note C#, 1 ; WARNING: Auto-Sync says: Rounded up!
	rest 2
	note D_, 1
;Bar 2
	rest 3
	note C_, 1
	note C#, 1 ; WARNING: Auto-Sync says: Rounded up!
	rest 2
	note D_, 1 ; WARNING: Auto-Sync says: Rounded up!
	note F_, 1
	rest 2
	note F#, 1
	note F_, 1
	rest 2
	note F#, 1
;Bar 3
	note D_, 1
	rest 2
	note C_, 1
	note C#, 1
	rest 2
	note D_, 1
	rest 3
	note C_, 1
	note C#, 1
	rest 2
	note D_, 1
;Bar 4
	rest 3
	note C_, 1
	note C#, 1
	rest 2
	note D_, 1
	note F#, 1
	rest 2
	note F_, 1
	note E_, 1
	rest 2
	note D_, 1
;Bar 5
	note D_, 1
	rest 3
	note F_, 1
	rest 3
	note E_, 1
	rest 3
	note D#, 1
	rest 3
;Bar 6
	note D_, 1
	rest 3
	octave 1
	note B_, 1
	rest 3
	octave 2
	note C_, 1
	rest 3
	note C#, 1
	rest 3
;Bar 7
	note D_, 1
	rest 3
	note G#, 1
	rest 3
	note A_, 1
	rest 3
	octave 3
	note C_, 1
	rest 3
;Bar 8
	octave 2
	note B_, 1
	rest 3
	note A_, 1
	rest 3
	note G_, 1
	rest 3
	note A_, 1
	rest 2
	octave 3
	note D_, 1
;Bar 9
	rest 3
	note D_, 1
	octave 2
	note D_, 1
	rest 3
	note G#, 1
	rest 3
	note G_, 1
	rest 3
;Bar 10
	note F_, 1
	rest 3
	note D_, 1
	rest 3
	note C_, 1
	rest 3
	note D_, 1
	rest 3
;Bar 11
	note F_, 1
	rest 3
	note G#, 1
	rest 3
	note G_, 1
	rest 3
	note G#, 1
	rest 3
;Bar 12
	note F_, 1
	rest 3
	note E_, 1
	rest 3
	note D#, 1
	rest 3
	note D_, 1 ; WARNING: Auto-Sync says: Rounded up!
	rest 3
;Bar 13
	note D_, 1 ; WARNING: Auto-Sync says: Rounded up!
	rest 3
	note F_, 1 ; WARNING: Auto-Sync says: Rounded up!
	rest 3
	note E_, 1 ; WARNING: Auto-Sync says: Rounded up!
	rest 3
	note D#, 1 ; WARNING: Auto-Sync says: Rounded up!
	rest 3
;Bar 14
	note D_, 1 ; WARNING: Auto-Sync says: Rounded up!
	rest 3
	octave 1
	note B_, 1 ; WARNING: Auto-Sync says: Rounded up!
	rest 3
	octave 2
	note C_, 1 ; WARNING: Auto-Sync says: Rounded up!
	rest 3
	note C#, 1
	rest 3
;Bar 15
	note D_, 1
	rest 3
	note G#, 1
	rest 3
	note A_, 1
	rest 3
	octave 3
	note C_, 1
	rest 3
;Bar 16
	octave 2
	note B_, 1
	rest 3
	note A_, 1
	rest 3
	note G_, 1 ; WARNING: Auto-Sync says: Rounded up!
	rest 3
	note A_, 1
	rest 2
	octave 3
	note D_, 1
;Bar 17
	rest 3
	note D_, 1
	octave 2
	note D_, 1
	rest 3
	note G#, 1
	rest 3
	note G_, 1
	rest 3
;Bar 18
	note F_, 1
	rest 3
	note D_, 1
	rest 3
	note C_, 1
	rest 3
	note D_, 1
	rest 3
;Bar 19
	note F_, 1
	rest 3
	note G#, 1
	rest 3
	note G_, 1
	rest 3
	note G#, 1
	rest 2
	note A#, 1
;Bar 20
	rest 11
	octave 3
	note C_, 1
	rest 4
;Bar 21
	octave 1
	note G_, 1
	rest 3
	octave 2
	note G_, 1
	rest 3
	octave 1
	note G_, 1
	rest 3
	octave 2
	note G_, 1
	rest 3
;Bar 22
	octave 1
	note G_, 1
	rest 3
	octave 2
	note G_, 1
	rest 3
	octave 1
	note G_, 1
	rest 3
	octave 2
	note G_, 1
	rest 3
;Bar 23
	octave 1
	note A_, 1
	rest 3
	octave 2
	note A_, 1
	rest 3
	octave 1
	note A_, 1
	rest 3
	octave 2
	note A_, 1
	rest 3
;Bar 24
	octave 1
	note A_, 1
	rest 3
	octave 2
	note A_, 1
	rest 3
	octave 1
	note A_, 1
	rest 3
	octave 2
	note A_, 1
	rest 3
;Bar 25
	octave 1
	note F_, 1
	rest 3
	octave 2
	note F_, 1
	rest 3
	octave 1
	note F_, 1
	rest 3
	octave 2
	note F_, 1 ; WARNING: Auto-Sync says: Rounded up!
	rest 3
;Bar 26
	octave 1
	note F_, 1
	rest 3
	octave 2
	note F_, 1 ; WARNING: Auto-Sync says: Rounded up!
	rest 3
	octave 1
	note F_, 1
	rest 3
	octave 2
	note F_, 1
	rest 3
;Bar 27
	note A_, 1 ; WARNING: Auto-Sync says: Rounded up!
	rest 6
	note G_, 1 ; WARNING: Auto-Sync says: Rounded up!
	rest 7
	note F_, 1
;Bar 28
	rest 11
	note G_, 1
	rest 4
;Bar 29
	note D_, 1 ; WARNING: Auto-Sync says: Rounded up!
	rest 2
	note C_, 1
	note C#, 1
	rest 2
	note D_, 1
	rest 3
	note C_, 1
	note C#, 1
	rest 2
	note D_, 1
;Bar 30
	rest 3
	note C_, 1
	note C#, 1
	rest 2
	note D_, 1
	note F_, 1
	rest 2
	note F#, 1
	note F_, 1
	rest 2
	note F#, 1
;Bar 31
	note D_, 1
	rest 2
	note C_, 1
	note C#, 1
	rest 2
	note D_, 1
	rest 3
	note C_, 1
	note C#, 1
	rest 2
	note D_, 1
;Bar 32
	rest 3
	note C_, 1
	note C#, 1
	rest 2
	note D_, 1
	note F#, 1
	rest 2
	note F_, 1
	note E_, 1
	rest 2
	note D_, 1
;Bar 33
	note D_, 1
	rest 3
	note F_, 1
	rest 3
	note E_, 1
	rest 3
	note D#, 1
	rest 3
;Bar 34
	note D_, 1
	rest 3
	octave 1
	note B_, 1
	rest 3
	octave 2
	note C_, 1
	rest 3
	note C#, 1
	rest 3
;Bar 35
	note D_, 1
	rest 3
	note G#, 1
	rest 3
	note A_, 1
	rest 3
	octave 3
	note C_, 1
	rest 3
;Bar 36
	octave 2
	note B_, 1
	rest 3
	note A_, 1
	rest 3
	note G_, 1
	rest 3
	note A_, 1
	rest 2
	octave 3
	note D_, 1
;Bar 37
	rest 3
	note D_, 1
	octave 2
	note D_, 1
	rest 3
	note G#, 1
	rest 3
	note G_, 1
	rest 3
;Bar 38
	note F_, 1
	rest 3
	note D_, 1
	rest 3
	note C_, 1
	rest 3
	note D_, 1
	rest 3
;Bar 39
	note F_, 1
	rest 3
	note G#, 1
	rest 3
	note G_, 1
	rest 3
	note G#, 1
	rest 3
;Bar 40
	note F_, 1
	rest 3
	note E_, 1
	rest 3
	note D#, 1
	rest 3
	note D_, 1
	rest 3
;Bar 41
	note D_, 1
	rest 3
	note F_, 1
	rest 3
	note E_, 1
	rest 3
	note D#, 1
	rest 3
;Bar 42
	note D_, 1
	rest 3
	octave 1
	note B_, 1
	rest 3
	octave 2
	note C_, 1
	rest 3
	note C#, 1
	rest 3
;Bar 43
	note D_, 1
	rest 3
	note G#, 1
	rest 3
	note A_, 1
	rest 3
	octave 3
	note C_, 1
	rest 3
;Bar 44
	octave 2
	note B_, 1
	rest 3
	note A_, 1
	rest 3
	note G_, 1
	rest 3
	note A_, 1
	rest 2
	octave 3
	note D_, 1
;Bar 45
	rest 3
	note D_, 1
	octave 2
	note D_, 1
	rest 3
	note G#, 1
	rest 3
	note G_, 1
	rest 3
;Bar 46
	note F_, 1
	rest 3
	note D_, 1
	rest 3
	note C_, 1
	rest 3
	note D_, 1
	rest 3
;Bar 47
	note F_, 1
	rest 3
	note G#, 1
	rest 3
	note G_, 1
	rest 3
	note G#, 1
	rest 2
	note A#, 1
;Bar 48
	rest 11
	octave 3
	note C_, 1
	rest 4
;Bar 49
	octave 1
	note G_, 1
	rest 3
	octave 2
	note G_, 1
	rest 3
	octave 1
	note G_, 1
	rest 3
	octave 2
	note G_, 1
	rest 3
;Bar 50
	octave 1
	note G_, 1
	rest 3
	octave 2
	note G_, 1
	rest 3
	octave 1
	note G_, 1
	rest 3
	octave 2
	note G_, 1
	rest 3
;Bar 51
	octave 1
	note A_, 1
	rest 3
	octave 2
	note A_, 1
	rest 3
	octave 1
	note A_, 1
	rest 3
	octave 2
	note A_, 1
	rest 3
;Bar 52
	octave 1
	note A_, 1
	rest 3
	octave 2
	note A_, 1
	rest 3
	octave 1
	note A_, 1
	rest 3
	octave 2
	note A_, 1
	rest 3
;Bar 53
	octave 1
	note F_, 1
	rest 3
	octave 2
	note F_, 1
	rest 3
	octave 1
	note F_, 1
	rest 3
	octave 2
	note F_, 1
	rest 3
;Bar 54
	octave 1
	note F_, 1
	rest 3
	octave 2
	note F_, 1
	rest 3
	octave 1
	note F_, 1
	rest 3
	octave 2
	note F_, 1
	rest 3
;Bar 55
	note A_, 1
	rest 6
	note G_, 1
	rest 7
	note F_, 1
;Bar 56
	rest 11
	note G_, 1
	rest 4
;Bar 57
	note D_, 1
	rest 2
	note C_, 1
	note C#, 1
	rest 2
	note D_, 1
	rest 3
	note C_, 1
	note C#, 1
	rest 2
	note D_, 1
;Bar 58
	rest 3
	note C_, 1
	note C#, 1
	rest 2
	note D_, 1
	note F_, 1
	rest 2
	note F#, 1
	note F_, 1
	rest 2
	note F#, 1
;Bar 59
	note D_, 1
	rest 2
	note C_, 1
	note C#, 1
	rest 2
	note D_, 1
	rest 3
	note C_, 1
	note C#, 1
	rest 2
	note D_, 1
;Bar 60
	rest 3
	note C_, 1
	note C#, 1
	rest 2
	note D_, 1
	note F#, 1
	rest 2
	note F_, 1
	note E_, 1
	rest 2
	note D_, 1
;Bar 61
	note D_, 1
	rest 3
	note F_, 1
	rest 3
	note E_, 1
	rest 3
	note D#, 1
	rest 3
;Bar 62
	note D_, 1
	rest 3
	octave 1
	note B_, 1
	rest 3
	octave 2
	note C_, 1
	rest 3
	note C#, 1
	rest 3
;Bar 63
	note D_, 1
	rest 3
	note G#, 1
	rest 3
	note A_, 1
	rest 3
	octave 3
	note C_, 1
	rest 3
;Bar 64
	octave 2
	note B_, 1
	rest 3
	note A_, 1
	rest 3
	note G_, 1
	rest 3
	note A_, 1
	rest 2
	octave 3
	note D_, 1
;Bar 65
	rest 3
	note D_, 1
	octave 2
	note D_, 1
	rest 3
	note G#, 1
	rest 3
	note G_, 1
	rest 3
;Bar 66
	note F_, 1
	rest 3
	note D_, 1
	rest 3
	note C_, 1
	rest 3
	note D_, 1
	rest 3
;Bar 67
	note F_, 1
	rest 3
	note G#, 1
	rest 3
	note G_, 1
	rest 3
	note G#, 1
	rest 3
;Bar 68
	note F_, 1
	rest 3
	note E_, 1
	rest 3
	note D#, 1
	rest 3
	note D_, 1
	rest 3
;Bar 69
	note D_, 1
	rest 3
	note F_, 1
	rest 3
	note E_, 1
	rest 3
	note D#, 1
	rest 3
;Bar 70
	note D_, 1
	rest 3
	octave 1
	note B_, 1
	rest 3
	octave 2
	note C_, 1
	rest 3
	note C#, 1
	rest 3
;Bar 71
	note D_, 1
	rest 3
	note G#, 1
	rest 3
	note A_, 1
	rest 3
	octave 3
	note C_, 1
	rest 3
;Bar 72
	octave 2
	note B_, 1
	rest 3
	note A_, 1
	rest 3
	note G_, 1
	rest 3
	note A_, 1
	rest 2
	octave 3
	note D_, 1
;Bar 73
	rest 3
	note D_, 1
	octave 2
	note D_, 1
	rest 3
	note G#, 1
	rest 3
	note G_, 1
	rest 3
;Bar 74
	note F_, 1
	rest 3
	note D_, 1
	rest 3
	note C_, 1
	rest 3
	note D_, 1
	rest 3
;Bar 75
	note F_, 1
	rest 3
	note G#, 1
	rest 3
	note G_, 1
	rest 3
	note G#, 1
	rest 2
	note A#, 1
;Bar 76
	rest 11
	octave 3
	note C_, 1
	rest 4
;Bar 77
	octave 1
	note G_, 1
	rest 3
	octave 2
	note G_, 1
	rest 3
	octave 1
	note G_, 1
	rest 3
	octave 2
	note G_, 1
	rest 3
;Bar 78
	octave 1
	note G_, 1
	rest 3
	octave 2
	note G_, 1
	rest 3
	octave 1
	note G_, 1
	rest 3
	octave 2
	note G_, 1
	rest 3
;Bar 79
	octave 1
	note A_, 1
	rest 3
	octave 2
	note A_, 1
	rest 3
	octave 1
	note A_, 1
	rest 3
	octave 2
	note A_, 1
	rest 3
;Bar 80
	octave 1
	note A_, 1
	rest 3
	octave 2
	note A_, 1
	rest 3
	octave 1
	note A_, 1
	rest 3
	octave 2
	note A_, 1
	rest 3
;Bar 81
	octave 1
	note F_, 1
	rest 3
	octave 2
	note F_, 1
	rest 3
	octave 1
	note F_, 1
	rest 3
	octave 2
	note F_, 1
	rest 3
;Bar 82
	octave 1
	note F_, 1
	rest 3
	octave 2
	note F_, 1
	rest 3
	octave 1
	note F_, 1
	rest 3
	octave 2
	note F_, 1
	rest 3
;Bar 83
	note A_, 1
	rest 6
	note G_, 1
	rest 7
	note F_, 1
;Bar 84
	rest 11
	note G_, 1
	sound_ret

; ============================================================================================================

Music_Sewers_Ch4:
	toggle_noise 1
	drum_speed 12
;Bar 1
	drum_note 11, 4
	;note F#, 0 | WARNING: Rounded down to 0
	drum_note 3, 3
	;note F#, 0 | WARNING: Rounded down to 0
	drum_note 3, 1
	drum_note 11, 4
	;note F#, 0 | WARNING: Rounded down to 0
	drum_note 3, 3
	;note F#, 0 | WARNING: Rounded down to 0
	drum_note 3, 1
;Bar 2
	drum_note 11, 4
	;note F#, 0 | WARNING: Rounded down to 0
	drum_note 3, 3
	;note F#, 0 | WARNING: Rounded down to 0
	drum_note 3, 1
	drum_note 11, 4
	;note F#, 0 | WARNING: Rounded down to 0
	drum_note 3, 3
	;note F#, 0 | WARNING: Rounded down to 0
	drum_note 3, 1
;Bar 3
	drum_note 11, 4
	;note F#, 0 | WARNING: Rounded down to 0
	drum_note 3, 3
	;note F#, 0 | WARNING: Rounded down to 0
	drum_note 3, 1
	drum_note 11, 4
	;note F#, 0 | WARNING: Rounded down to 0
	drum_note 3, 3
	;note F#, 0 | WARNING: Rounded down to 0
	drum_note 3, 1
;Bar 4
	drum_note 11, 4
	;note F#, 0 | WARNING: Rounded down to 0
	drum_note 3, 3
	;note F#, 0 | WARNING: Rounded down to 0
	drum_note 3, 1
	drum_note 11, 4
	;note F#, 0 | WARNING: Rounded down to 0
	drum_note 3, 3
	;note F#, 0 | WARNING: Rounded down to 0
	drum_note 3, 1
;Bar 5
	drum_note 11, 4
	;note F#, 0 | WARNING: Rounded down to 0
	drum_note 3, 3
	;note F#, 0 | WARNING: Rounded down to 0
	drum_note 3, 1
	drum_note 11, 4
	;note F#, 0 | WARNING: Rounded down to 0
	drum_note 3, 3
	;note F#, 0 | WARNING: Rounded down to 0
	drum_note 3, 1
;Bar 6
	drum_note 11, 4
	;note F#, 0 | WARNING: Rounded down to 0
	drum_note 3, 3
	;note F#, 0 | WARNING: Rounded down to 0
	drum_note 3, 1
	drum_note 11, 4
	;note F#, 0 | WARNING: Rounded down to 0
	drum_note 3, 3
	;note F#, 0 | WARNING: Rounded down to 0
	drum_note 3, 1
;Bar 7
	drum_note 11, 4
	;note F#, 0 | WARNING: Rounded down to 0
	drum_note 3, 3
	;note F#, 0 | WARNING: Rounded down to 0
	drum_note 3, 1
	drum_note 11, 4
	;note F#, 0 | WARNING: Rounded down to 0
	drum_note 3, 3
	;note F#, 0 | WARNING: Rounded down to 0
	drum_note 3, 1
;Bar 8
	drum_note 11, 4
	;note F#, 0 | WARNING: Rounded down to 0
	drum_note 3, 3
	;note F#, 0 | WARNING: Rounded down to 0
	drum_note 3, 1
	drum_note 11, 4
	;note F#, 0 | WARNING: Rounded down to 0
	drum_note 3, 3
	;note F#, 0 | WARNING: Rounded down to 0
	drum_note 3, 1
;Bar 9
	drum_note 11, 4
	;note F#, 0 | WARNING: Rounded down to 0
	drum_note 3, 3
	;note F#, 0 | WARNING: Rounded down to 0
	drum_note 3, 1
	drum_note 11, 4
	;note F#, 0 | WARNING: Rounded down to 0
	drum_note 3, 3
	;note F#, 0 | WARNING: Rounded down to 0
	drum_note 3, 1
;Bar 10
	drum_note 11, 4
	;note F#, 0 | WARNING: Rounded down to 0
	drum_note 3, 3
	;note F#, 0 | WARNING: Rounded down to 0
	drum_note 3, 1
	drum_note 11, 4
	;note F#, 0 | WARNING: Rounded down to 0
	drum_note 3, 3
	;note F#, 0 | WARNING: Rounded down to 0
	drum_note 3, 1
;Bar 11
	drum_note 11, 4
	;note F#, 0 | WARNING: Rounded down to 0
	drum_note 3, 3
	;note F#, 0 | WARNING: Rounded down to 0
	drum_note 3, 1
	drum_note 11, 4
	;note F#, 0 | WARNING: Rounded down to 0
	drum_note 3, 3
	;note F#, 0 | WARNING: Rounded down to 0
	drum_note 3, 1
;Bar 12
	drum_note 11, 4
	;note F#, 0 | WARNING: Rounded down to 0
	drum_note 3, 3
	;note F#, 0 | WARNING: Rounded down to 0
	drum_note 3, 1
	drum_note 11, 4
	;note F#, 0 | WARNING: Rounded down to 0
	drum_note 3, 3
	;note F#, 0 | WARNING: Rounded down to 0
	drum_note 3, 1
;Bar 13
	;note F#, 0 | WARNING: Rounded down to 0
	drum_note 12, 3
	drum_note 7, 1
	drum_note 3, 3
	drum_note 7, 1
	drum_note 7, 3
	drum_note 7, 1
	drum_note 3, 3
	;note F#, 0 | WARNING: Rounded down to 0
	drum_note 3, 1
;Bar 14
	;note F#, 0 | WARNING: Rounded down to 0
	drum_note 12, 3
	drum_note 7, 1
	drum_note 3, 3
	drum_note 7, 1
	drum_note 7, 3
	drum_note 7, 1
	drum_note 3, 3
	;note F#, 0 | WARNING: Rounded down to 0
	drum_note 3, 1
;Bar 15
	;note F#, 0 | WARNING: Rounded down to 0
	drum_note 12, 3
	drum_note 7, 1
	drum_note 3, 3
	drum_note 7, 1
	drum_note 7, 3
	drum_note 7, 1
	drum_note 3, 3
	;note F#, 0 | WARNING: Rounded down to 0
	drum_note 3, 1
;Bar 16
	;note F#, 0 | WARNING: Rounded down to 0
	drum_note 12, 3
	drum_note 7, 1
	drum_note 3, 3
	drum_note 7, 1
	drum_note 7, 3
	drum_note 7, 1
	drum_note 3, 3
	;note F#, 0 | WARNING: Rounded down to 0
	drum_note 3, 1
;Bar 17
	;note F#, 0 | WARNING: Rounded down to 0
	drum_note 12, 3
	drum_note 7, 1
	drum_note 3, 3
	drum_note 7, 1
	drum_note 7, 3
	drum_note 7, 1
	drum_note 3, 3
	;note F#, 0 | WARNING: Rounded down to 0
	drum_note 3, 1
;Bar 18
	;note F#, 0 | WARNING: Rounded down to 0
	drum_note 12, 3
	drum_note 7, 1
	drum_note 3, 3
	drum_note 7, 1
	drum_note 7, 3
	drum_note 7, 1
	drum_note 3, 3
	;note F#, 0 | WARNING: Rounded down to 0
	drum_note 3, 1
;Bar 19
	;note F#, 0 | WARNING: Rounded down to 0
	drum_note 12, 3
	drum_note 7, 1
	drum_note 3, 1
	drum_note 3, 2
	;note F#, 0 | WARNING: Rounded down to 0
	drum_note 3, 1
	;note F#, 0 | WARNING: Rounded down to 0
	drum_note 12, 3
	drum_note 7, 1
	drum_note 3, 3
	;note F#, 0 | WARNING: Rounded down to 0
	drum_note 3, 5
;Bar 20
	drum_note 12, 4
	drum_note 12, 3
	drum_note 11, 5
;Bar 21
	;note F#, 0 | WARNING: Rounded down to 0
	drum_note 12, 3
	drum_note 7, 1
	;note F#, 0 | WARNING: Rounded down to 0
	drum_note 3, 3
	drum_note 7, 1
	drum_note 7, 3
	drum_note 7, 1
	;note F#, 0 | WARNING: Rounded down to 0
	drum_note 3, 3
	drum_note 7, 1
;Bar 22
	;note F#, 0 | WARNING: Rounded down to 0
	drum_note 12, 3
	drum_note 7, 1
	;note F#, 0 | WARNING: Rounded down to 0
	drum_note 3, 3
	drum_note 7, 1
	drum_note 7, 3
	drum_note 7, 1
	;note F#, 0 | WARNING: Rounded down to 0
	drum_note 3, 3
	drum_note 7, 1
;Bar 23
	;note F#, 0 | WARNING: Rounded down to 0
	drum_note 12, 3
	drum_note 7, 1
	;note F#, 0 | WARNING: Rounded down to 0
	drum_note 3, 3
	drum_note 7, 1
	drum_note 7, 3
	drum_note 7, 1
	;note F#, 0 | WARNING: Rounded down to 0
	drum_note 3, 3
	drum_note 7, 1
;Bar 24
	;note F#, 0 | WARNING: Rounded down to 0
	drum_note 12, 3
	drum_note 7, 1
	;note F#, 0 | WARNING: Rounded down to 0
	drum_note 3, 3
	drum_note 7, 1
	drum_note 7, 3
	drum_note 7, 1
	;note F#, 0 | WARNING: Rounded down to 0
	drum_note 3, 3
	drum_note 7, 1
;Bar 25
	;note F#, 0 | WARNING: Rounded down to 0
	drum_note 12, 3
	drum_note 7, 1
	;note F#, 0 | WARNING: Rounded down to 0
	drum_note 3, 3
	drum_note 7, 1
	drum_note 7, 3
	drum_note 7, 1
	;note F#, 0 | WARNING: Rounded down to 0
	drum_note 3, 3
	drum_note 7, 1
;Bar 26
	;note F#, 0 | WARNING: Rounded down to 0
	drum_note 12, 3
	drum_note 7, 1
	;note F#, 0 | WARNING: Rounded down to 0
	drum_note 3, 3
	;note F#, 0 | WARNING: Rounded down to 0
	drum_note 12, 1
	drum_note 7, 3
	;note F#, 0 | WARNING: Rounded down to 0
	drum_note 12, 1
	;note F#, 0 | WARNING: Rounded down to 0
	drum_note 3, 3
	drum_note 7, 1
;Bar 27
	;note F#, 0 | WARNING: Rounded down to 0
	drum_note 12, 3
	;note F#, 0 | WARNING: Rounded down to 0
	drum_note 12, 1
	;note F#, 0 | WARNING: Rounded down to 0
	drum_note 3, 3
	;note F#, 0 | WARNING: Rounded down to 0
	drum_note 12, 4
	;note F#, 0 | WARNING: Rounded down to 0
	drum_note 12, 1
	;note F#, 0 | WARNING: Rounded down to 0
	drum_note 3, 3
	;note A#, 0 | WARNING: Rounded down to 0
	drum_note 12, 9
;Bar 28
	drum_note 3, 3
	drum_note 11, 5
;Bar 29
	drum_note 11, 4
	;note F#, 0 | WARNING: Rounded down to 0
	drum_note 3, 3
	;note F#, 0 | WARNING: Rounded down to 0
	drum_note 3, 1
	drum_note 11, 4
	;note F#, 0 | WARNING: Rounded down to 0
	drum_note 3, 3
	;note F#, 0 | WARNING: Rounded down to 0
	drum_note 3, 1
;Bar 30
	drum_note 11, 4
	;note F#, 0 | WARNING: Rounded down to 0
	drum_note 3, 3
	;note F#, 0 | WARNING: Rounded down to 0
	drum_note 3, 1
	drum_note 11, 4
	;note F#, 0 | WARNING: Rounded down to 0
	drum_note 3, 3
	;note F#, 0 | WARNING: Rounded down to 0
	drum_note 3, 1
;Bar 31
	drum_note 11, 4
	;note F#, 0 | WARNING: Rounded down to 0
	drum_note 3, 3
	;note F#, 0 | WARNING: Rounded down to 0
	drum_note 3, 1
	drum_note 11, 4
	;note F#, 0 | WARNING: Rounded down to 0
	drum_note 3, 3
	;note F#, 0 | WARNING: Rounded down to 0
	drum_note 3, 1
;Bar 32
	drum_note 11, 4
	;note F#, 0 | WARNING: Rounded down to 0
	drum_note 3, 3
	;note F#, 0 | WARNING: Rounded down to 0
	drum_note 3, 1
	drum_note 11, 4
	;note F#, 0 | WARNING: Rounded down to 0
	drum_note 3, 3
	;note F#, 0 | WARNING: Rounded down to 0
	drum_note 3, 1
;Bar 33
	drum_note 11, 4
	;note F#, 0 | WARNING: Rounded down to 0
	drum_note 3, 3
	;note F#, 0 | WARNING: Rounded down to 0
	drum_note 3, 1
	drum_note 11, 4
	;note F#, 0 | WARNING: Rounded down to 0
	drum_note 3, 3
	;note F#, 0 | WARNING: Rounded down to 0
	drum_note 3, 1
;Bar 34
	drum_note 11, 4
	;note F#, 0 | WARNING: Rounded down to 0
	drum_note 3, 3
	;note F#, 0 | WARNING: Rounded down to 0
	drum_note 3, 1
	drum_note 11, 4
	;note F#, 0 | WARNING: Rounded down to 0
	drum_note 3, 3
	;note F#, 0 | WARNING: Rounded down to 0
	drum_note 3, 1
;Bar 35
	drum_note 11, 4
	;note F#, 0 | WARNING: Rounded down to 0
	drum_note 3, 3
	;note F#, 0 | WARNING: Rounded down to 0
	drum_note 3, 1
	drum_note 11, 4
	;note F#, 0 | WARNING: Rounded down to 0
	drum_note 3, 3
	;note F#, 0 | WARNING: Rounded down to 0
	drum_note 3, 1
;Bar 36
	drum_note 11, 4
	;note F#, 0 | WARNING: Rounded down to 0
	drum_note 3, 3
	;note F#, 0 | WARNING: Rounded down to 0
	drum_note 3, 1
	drum_note 11, 4
	;note F#, 0 | WARNING: Rounded down to 0
	drum_note 3, 3
	;note F#, 0 | WARNING: Rounded down to 0
	drum_note 3, 1
;Bar 37
	drum_note 11, 4
	;note F#, 0 | WARNING: Rounded down to 0
	drum_note 3, 3
	;note F#, 0 | WARNING: Rounded down to 0
	drum_note 3, 1
	drum_note 11, 4
	;note F#, 0 | WARNING: Rounded down to 0
	drum_note 3, 3
	;note F#, 0 | WARNING: Rounded down to 0
	drum_note 3, 1
;Bar 38
	drum_note 11, 4
	;note F#, 0 | WARNING: Rounded down to 0
	drum_note 3, 3
	;note F#, 0 | WARNING: Rounded down to 0
	drum_note 3, 1
	drum_note 11, 4
	;note F#, 0 | WARNING: Rounded down to 0
	drum_note 3, 3
	;note F#, 0 | WARNING: Rounded down to 0
	drum_note 3, 1
;Bar 39
	drum_note 11, 4
	;note F#, 0 | WARNING: Rounded down to 0
	drum_note 3, 3
	;note F#, 0 | WARNING: Rounded down to 0
	drum_note 3, 1
	drum_note 11, 4
	;note F#, 0 | WARNING: Rounded down to 0
	drum_note 3, 3
	;note F#, 0 | WARNING: Rounded down to 0
	drum_note 3, 1
;Bar 40
	drum_note 11, 4
	;note F#, 0 | WARNING: Rounded down to 0
	drum_note 3, 3
	;note F#, 0 | WARNING: Rounded down to 0
	drum_note 3, 1
	drum_note 11, 4
	;note F#, 0 | WARNING: Rounded down to 0
	drum_note 3, 3
	;note F#, 0 | WARNING: Rounded down to 0
	drum_note 3, 1
;Bar 41
	;note F#, 0 | WARNING: Rounded down to 0
	drum_note 12, 3
	drum_note 7, 1
	drum_note 3, 3
	drum_note 7, 1
	drum_note 7, 3
	drum_note 7, 1
	drum_note 3, 3
	;note F#, 0 | WARNING: Rounded down to 0
	drum_note 3, 1
;Bar 42
	;note F#, 0 | WARNING: Rounded down to 0
	drum_note 12, 3
	drum_note 7, 1
	drum_note 3, 3
	drum_note 7, 1
	drum_note 7, 3
	drum_note 7, 1
	drum_note 3, 3
	;note F#, 0 | WARNING: Rounded down to 0
	drum_note 3, 1
;Bar 43
	;note F#, 0 | WARNING: Rounded down to 0
	drum_note 12, 3
	drum_note 7, 1
	drum_note 3, 3
	drum_note 7, 1
	drum_note 7, 3
	drum_note 7, 1
	drum_note 3, 3
	;note F#, 0 | WARNING: Rounded down to 0
	drum_note 3, 1
;Bar 44
	;note F#, 0 | WARNING: Rounded down to 0
	drum_note 12, 3
	drum_note 7, 1
	drum_note 3, 3
	drum_note 7, 1
	drum_note 7, 3
	drum_note 7, 1
	drum_note 3, 3
	;note F#, 0 | WARNING: Rounded down to 0
	drum_note 3, 1
;Bar 45
	;note F#, 0 | WARNING: Rounded down to 0
	drum_note 12, 3
	drum_note 7, 1
	drum_note 3, 3
	drum_note 7, 1
	drum_note 7, 3
	drum_note 7, 1
	drum_note 3, 3
	;note F#, 0 | WARNING: Rounded down to 0
	drum_note 3, 1
;Bar 46
	;note F#, 0 | WARNING: Rounded down to 0
	drum_note 12, 3
	drum_note 7, 1
	drum_note 3, 3
	drum_note 7, 1
	drum_note 7, 3
	drum_note 7, 1
	drum_note 3, 3
	;note F#, 0 | WARNING: Rounded down to 0
	drum_note 3, 1
;Bar 47
	;note F#, 0 | WARNING: Rounded down to 0
	drum_note 12, 3
	drum_note 7, 1
	drum_note 3, 1
	drum_note 3, 2
	;note F#, 0 | WARNING: Rounded down to 0
	drum_note 3, 1
	;note F#, 0 | WARNING: Rounded down to 0
	drum_note 12, 3
	drum_note 7, 1
	drum_note 3, 3
	;note F#, 0 | WARNING: Rounded down to 0
	drum_note 3, 5
;Bar 48
	drum_note 12, 4
	drum_note 12, 3
	drum_note 11, 5
;Bar 49
	;note F#, 0 | WARNING: Rounded down to 0
	drum_note 12, 3
	drum_note 7, 1
	;note F#, 0 | WARNING: Rounded down to 0
	drum_note 3, 3
	drum_note 7, 1
	drum_note 7, 3
	drum_note 7, 1
	;note F#, 0 | WARNING: Rounded down to 0
	drum_note 3, 3
	drum_note 7, 1
;Bar 50
	;note F#, 0 | WARNING: Rounded down to 0
	drum_note 12, 3
	drum_note 7, 1
	;note F#, 0 | WARNING: Rounded down to 0
	drum_note 3, 3
	drum_note 7, 1
	drum_note 7, 3
	drum_note 7, 1
	;note F#, 0 | WARNING: Rounded down to 0
	drum_note 3, 3
	drum_note 7, 1
;Bar 51
	;note F#, 0 | WARNING: Rounded down to 0
	drum_note 12, 3
	drum_note 7, 1
	;note F#, 0 | WARNING: Rounded down to 0
	drum_note 3, 3
	drum_note 7, 1
	drum_note 7, 3
	drum_note 7, 1
	;note F#, 0 | WARNING: Rounded down to 0
	drum_note 3, 3
	drum_note 7, 1
;Bar 52
	;note F#, 0 | WARNING: Rounded down to 0
	drum_note 12, 3
	drum_note 7, 1
	;note F#, 0 | WARNING: Rounded down to 0
	drum_note 3, 3
	drum_note 7, 1
	drum_note 7, 3
	drum_note 7, 1
	;note F#, 0 | WARNING: Rounded down to 0
	drum_note 3, 3
	drum_note 7, 1
;Bar 53
	;note F#, 0 | WARNING: Rounded down to 0
	drum_note 12, 3
	drum_note 7, 1
	;note F#, 0 | WARNING: Rounded down to 0
	drum_note 3, 3
	drum_note 7, 1
	drum_note 7, 3
	drum_note 7, 1
	;note F#, 0 | WARNING: Rounded down to 0
	drum_note 3, 3
	drum_note 7, 1
;Bar 54
	;note F#, 0 | WARNING: Rounded down to 0
	drum_note 12, 3
	drum_note 7, 1
	;note F#, 0 | WARNING: Rounded down to 0
	drum_note 3, 3
	;note F#, 0 | WARNING: Rounded down to 0
	drum_note 12, 1
	drum_note 7, 3
	;note F#, 0 | WARNING: Rounded down to 0
	drum_note 12, 1
	;note F#, 0 | WARNING: Rounded down to 0
	drum_note 3, 3
	drum_note 7, 1
;Bar 55
	;note F#, 0 | WARNING: Rounded down to 0
	drum_note 12, 3
	;note F#, 0 | WARNING: Rounded down to 0
	drum_note 12, 1
	;note F#, 0 | WARNING: Rounded down to 0
	drum_note 3, 3
	;note F#, 0 | WARNING: Rounded down to 0
	drum_note 12, 4
	;note F#, 0 | WARNING: Rounded down to 0
	drum_note 12, 1
	;note F#, 0 | WARNING: Rounded down to 0
	drum_note 3, 3
	;note A#, 0 | WARNING: Rounded down to 0
	drum_note 12, 9
;Bar 56
	drum_note 3, 3
	drum_note 11, 5
;Bar 57
	drum_note 11, 4
	;note F#, 0 | WARNING: Rounded down to 0
	drum_note 3, 3
	;note F#, 0 | WARNING: Rounded down to 0
	drum_note 3, 1
	drum_note 11, 4
	;note F#, 0 | WARNING: Rounded down to 0
	drum_note 3, 3
	;note F#, 0 | WARNING: Rounded down to 0
	drum_note 3, 1
;Bar 58
	drum_note 11, 4
	;note F#, 0 | WARNING: Rounded down to 0
	drum_note 3, 3
	;note F#, 0 | WARNING: Rounded down to 0
	drum_note 3, 1
	drum_note 11, 4
	;note F#, 0 | WARNING: Rounded down to 0
	drum_note 3, 3
	;note F#, 0 | WARNING: Rounded down to 0
	drum_note 3, 1
;Bar 59
	drum_note 11, 4
	;note F#, 0 | WARNING: Rounded down to 0
	drum_note 3, 3
	;note F#, 0 | WARNING: Rounded down to 0
	drum_note 3, 1
	drum_note 11, 4
	;note F#, 0 | WARNING: Rounded down to 0
	drum_note 3, 3
	;note F#, 0 | WARNING: Rounded down to 0
	drum_note 3, 1
;Bar 60
	drum_note 11, 4
	;note F#, 0 | WARNING: Rounded down to 0
	drum_note 3, 3
	;note F#, 0 | WARNING: Rounded down to 0
	drum_note 3, 1
	drum_note 11, 4
	;note F#, 0 | WARNING: Rounded down to 0
	drum_note 3, 3
	;note F#, 0 | WARNING: Rounded down to 0
	drum_note 3, 1
;Bar 61
	drum_note 11, 4
	;note F#, 0 | WARNING: Rounded down to 0
	drum_note 3, 3
	;note F#, 0 | WARNING: Rounded down to 0
	drum_note 3, 1
	drum_note 11, 4
	;note F#, 0 | WARNING: Rounded down to 0
	drum_note 3, 3
	;note F#, 0 | WARNING: Rounded down to 0
	drum_note 3, 1
;Bar 62
	drum_note 11, 4
	;note F#, 0 | WARNING: Rounded down to 0
	drum_note 3, 3
	;note F#, 0 | WARNING: Rounded down to 0
	drum_note 3, 1
	drum_note 11, 4
	;note F#, 0 | WARNING: Rounded down to 0
	drum_note 3, 3
	;note F#, 0 | WARNING: Rounded down to 0
	drum_note 3, 1
;Bar 63
	drum_note 11, 4
	;note F#, 0 | WARNING: Rounded down to 0
	drum_note 3, 3
	;note F#, 0 | WARNING: Rounded down to 0
	drum_note 3, 1
	drum_note 11, 4
	;note F#, 0 | WARNING: Rounded down to 0
	drum_note 3, 3
	;note F#, 0 | WARNING: Rounded down to 0
	drum_note 3, 1
;Bar 64
	drum_note 11, 4
	;note F#, 0 | WARNING: Rounded down to 0
	drum_note 3, 3
	;note F#, 0 | WARNING: Rounded down to 0
	drum_note 3, 1
	drum_note 11, 4
	;note F#, 0 | WARNING: Rounded down to 0
	drum_note 3, 3
	;note F#, 0 | WARNING: Rounded down to 0
	drum_note 3, 1
;Bar 65
	drum_note 11, 4
	;note F#, 0 | WARNING: Rounded down to 0
	drum_note 3, 3
	;note F#, 0 | WARNING: Rounded down to 0
	drum_note 3, 1
	drum_note 11, 4
	;note F#, 0 | WARNING: Rounded down to 0
	drum_note 3, 3
	;note F#, 0 | WARNING: Rounded down to 0
	drum_note 3, 1
;Bar 66
	drum_note 11, 4
	;note F#, 0 | WARNING: Rounded down to 0
	drum_note 3, 3
	;note F#, 0 | WARNING: Rounded down to 0
	drum_note 3, 1
	drum_note 11, 4
	;note F#, 0 | WARNING: Rounded down to 0
	drum_note 3, 3
	;note F#, 0 | WARNING: Rounded down to 0
	drum_note 3, 1
;Bar 67
	drum_note 11, 4
	;note F#, 0 | WARNING: Rounded down to 0
	drum_note 3, 3
	;note F#, 0 | WARNING: Rounded down to 0
	drum_note 3, 1
	drum_note 11, 4
	;note F#, 0 | WARNING: Rounded down to 0
	drum_note 3, 3
	;note F#, 0 | WARNING: Rounded down to 0
	drum_note 3, 1
;Bar 68
	drum_note 11, 4
	;note F#, 0 | WARNING: Rounded down to 0
	drum_note 3, 3
	;note F#, 0 | WARNING: Rounded down to 0
	drum_note 3, 1
	drum_note 11, 4
	;note F#, 0 | WARNING: Rounded down to 0
	drum_note 3, 3
	;note F#, 0 | WARNING: Rounded down to 0
	drum_note 3, 1
;Bar 69
	;note F#, 0 | WARNING: Rounded down to 0
	drum_note 12, 3
	drum_note 7, 1
	drum_note 3, 3
	drum_note 7, 1
	drum_note 7, 3
	drum_note 7, 1
	drum_note 3, 3
	;note F#, 0 | WARNING: Rounded down to 0
	drum_note 3, 1
;Bar 70
	;note F#, 0 | WARNING: Rounded down to 0
	drum_note 12, 3
	drum_note 7, 1
	drum_note 3, 3
	drum_note 7, 1
	drum_note 7, 3
	drum_note 7, 1
	drum_note 3, 3
	;note F#, 0 | WARNING: Rounded down to 0
	drum_note 3, 1
;Bar 71
	;note F#, 0 | WARNING: Rounded down to 0
	drum_note 12, 3
	drum_note 7, 1
	drum_note 3, 3
	drum_note 7, 1
	drum_note 7, 3
	drum_note 7, 1
	drum_note 3, 3
	;note F#, 0 | WARNING: Rounded down to 0
	drum_note 3, 1
;Bar 72
	;note F#, 0 | WARNING: Rounded down to 0
	drum_note 12, 3
	drum_note 7, 1
	drum_note 3, 3
	drum_note 7, 1
	drum_note 7, 3
	drum_note 7, 1
	drum_note 3, 3
	;note F#, 0 | WARNING: Rounded down to 0
	drum_note 3, 1
;Bar 73
	;note F#, 0 | WARNING: Rounded down to 0
	drum_note 12, 3
	drum_note 7, 1
	drum_note 3, 3
	drum_note 7, 1
	drum_note 7, 3
	drum_note 7, 1
	drum_note 3, 3
	;note F#, 0 | WARNING: Rounded down to 0
	drum_note 3, 1
;Bar 74
	;note F#, 0 | WARNING: Rounded down to 0
	drum_note 12, 3
	drum_note 7, 1
	drum_note 3, 3
	drum_note 7, 1
	drum_note 7, 3
	drum_note 7, 1
	drum_note 3, 3
	;note F#, 0 | WARNING: Rounded down to 0
	drum_note 3, 1
;Bar 75
	;note F#, 0 | WARNING: Rounded down to 0
	drum_note 12, 3
	drum_note 7, 1
	drum_note 3, 1
	drum_note 3, 2
	;note F#, 0 | WARNING: Rounded down to 0
	drum_note 3, 1
	;note F#, 0 | WARNING: Rounded down to 0
	drum_note 12, 3
	drum_note 7, 1
	drum_note 3, 3
	;note F#, 0 | WARNING: Rounded down to 0
	drum_note 3, 5
;Bar 76
	drum_note 12, 4
	drum_note 12, 3
	drum_note 11, 5
;Bar 77
	;note F#, 0 | WARNING: Rounded down to 0
	drum_note 12, 3
	drum_note 7, 1
	;note F#, 0 | WARNING: Rounded down to 0
	drum_note 3, 3
	drum_note 7, 1
	drum_note 7, 3
	drum_note 7, 1
	;note F#, 0 | WARNING: Rounded down to 0
	drum_note 3, 3
	drum_note 7, 1
;Bar 78
	;note F#, 0 | WARNING: Rounded down to 0
	drum_note 12, 3
	drum_note 7, 1
	;note F#, 0 | WARNING: Rounded down to 0
	drum_note 3, 3
	drum_note 7, 1
	drum_note 7, 3
	drum_note 7, 1
	;note F#, 0 | WARNING: Rounded down to 0
	drum_note 3, 3
	drum_note 7, 1
;Bar 79
	;note F#, 0 | WARNING: Rounded down to 0
	drum_note 12, 3
	drum_note 7, 1
	;note F#, 0 | WARNING: Rounded down to 0
	drum_note 3, 3
	drum_note 7, 1
	drum_note 7, 3
	drum_note 7, 1
	;note F#, 0 | WARNING: Rounded down to 0
	drum_note 3, 3
	drum_note 7, 1
;Bar 80
	;note F#, 0 | WARNING: Rounded down to 0
	drum_note 12, 3
	drum_note 7, 1
	;note F#, 0 | WARNING: Rounded down to 0
	drum_note 3, 3
	drum_note 7, 1
	drum_note 7, 3
	drum_note 7, 1
	;note F#, 0 | WARNING: Rounded down to 0
	drum_note 3, 3
	drum_note 7, 1
;Bar 81
	;note F#, 0 | WARNING: Rounded down to 0
	drum_note 12, 3
	drum_note 7, 1
	;note F#, 0 | WARNING: Rounded down to 0
	drum_note 3, 3
	drum_note 7, 1
	drum_note 7, 3
	drum_note 7, 1
	;note F#, 0 | WARNING: Rounded down to 0
	drum_note 3, 3
	drum_note 7, 1
;Bar 82
	;note F#, 0 | WARNING: Rounded down to 0
	drum_note 12, 3
	drum_note 7, 1
	;note F#, 0 | WARNING: Rounded down to 0
	drum_note 3, 3
	;note F#, 0 | WARNING: Rounded down to 0
	drum_note 12, 1
	drum_note 7, 3
	;note F#, 0 | WARNING: Rounded down to 0
	drum_note 12, 1
	;note F#, 0 | WARNING: Rounded down to 0
	drum_note 3, 3
	drum_note 7, 1
;Bar 83
	;note F#, 0 | WARNING: Rounded down to 0
	drum_note 12, 3
	;note F#, 0 | WARNING: Rounded down to 0
	drum_note 12, 1
	;note F#, 0 | WARNING: Rounded down to 0
	drum_note 3, 3
	;note F#, 0 | WARNING: Rounded down to 0
	drum_note 12, 4
	;note F#, 0 | WARNING: Rounded down to 0
	drum_note 12, 1
	;note F#, 0 | WARNING: Rounded down to 0
	drum_note 3, 3
	;note A#, 0 | WARNING: Rounded down to 0
	drum_note 12, 9
;Bar 84
	drum_note 3, 3
	drum_note 11, 1
	sound_ret

; ============================================================================================================

