;Coverted using MIDI2ASM
;Code by TriteHexagon
;Version 5.2.0 (16-Nov-2022)
;Visit github.com/TriteHexagon/Midi2ASM-Converter for up-to-date versions.

; ============================================================================================================

Music_Shanson:
	channel_count 4
	channel 1, Music_Shanson_Ch1
	channel 2, Music_Shanson_Ch2
	channel 3, Music_Shanson_Ch3
	channel 4, Music_Shanson_Ch4

Music_Shanson_Ch1:
	volume 7, 7
	duty_cycle 0
	note_type 12, 10, 7
	tempo 112
;Bar 1
	rest 4
	octave 3
	volume_envelope 15, 7
	note D_, 2
	note G_, 2
	note A#, 4
	note D_, 2
	note G_, 2
;Bar 2
	note A#, 4
	note E_, 2
	note G_, 2
	octave 4
	note C_, 4
	octave 3
	note E_, 2
	note G_, 2
;Bar 3
	octave 4
	note C_, 4
	octave 3
	note C_, 2
	note F_, 2
	note A_, 4
	note F_, 2
	note A_, 2
;Bar 4
	note C_, 4
	note D_, 2
	note F_, 2
	note D_, 4
	note D_, 2
	note F_, 2
;Bar 5
	note D_, 4
	note D_, 2
	note G_, 2
	note A#, 4
	note D_, 2
	note G_, 2
;Bar 6
	note A#, 4
	note E_, 2
	note G_, 2
	note A_, 4
	note E_, 2
	note G_, 2
;Bar 7
	note A_, 4
	note F_, 2
	note F_, 2
	note F_, 4
	note F_, 2
	note F_, 2
;Bar 8
	note F_, 4
	note F_, 2
	note F_, 2
	note F_, 4
	note F_, 2
	note F_, 2
;Bar 9
	note F_, 4
	note D_, 2
	note G_, 2
	note A#, 4
	note D_, 2
	note G_, 2
;Bar 10
	note A#, 4
	note E_, 2
	note G_, 2
	octave 4
	note C_, 4
	octave 3
	note E_, 2
	note G_, 2
;Bar 11
	octave 4
	note C_, 4
	octave 3
	note C_, 2
	note F_, 2
	note A_, 4
	note F_, 2
	note A_, 2
;Bar 12
	note C_, 4
	note D_, 2
	note F_, 2
	note D_, 4
	note D_, 2
	note F_, 2
;Bar 13
	note D_, 4
	note D_, 2
	note G_, 2
	note A#, 4
	note D_, 2
	note G_, 2
;Bar 14
	note A#, 4
	note E_, 2
	note G_, 2
	note A_, 4
	note E_, 2
	note G_, 2
;Bar 15
	note A_, 4
	note D_, 2
	note D_, 2
	note D_, 4
	note D_, 4
;Bar 16
	note D_, 4
	note D_, 4
	rest 16
	rest 16
	rest 16
	rest 16
	rest 16
	rest 16
	rest 16
	rest 16
	rest 12
;Bar 25
	note D_, 2
	note G_, 2
	note A#, 4
	note D_, 2
	note G_, 2
;Bar 26
	note A#, 4
	note E_, 2
	note G_, 2
	octave 4
	note C_, 4
	octave 3
	note E_, 2
	note G_, 2
;Bar 27
	octave 4
	note C_, 4
	octave 3
	note C_, 2
	note F_, 2
	note A_, 4
	note F_, 2
	note A_, 2
;Bar 28
	note C_, 4
	note D_, 2
	note F_, 2
	note D_, 4
	note D_, 2
	note F_, 2
;Bar 29
	note D_, 4
	note D_, 2
	note G_, 2
	note A#, 4
	note D_, 2
	note G_, 2
;Bar 30
	note A#, 4
	note E_, 2
	note G_, 2
	note A_, 4
	note E_, 2
	note G_, 2
;Bar 31
	note A_, 4
	note F_, 2
	note F_, 2
	note F_, 4
	note F_, 2
	note F_, 2
;Bar 32
	note F_, 4
	note F_, 2
	note F_, 2
	note F_, 4
	note F_, 2
	note F_, 2
;Bar 33
	note F_, 4
	note D_, 2
	note G_, 2
	note A#, 4
	note D_, 2
	note G_, 2
;Bar 34
	note A#, 4
	note E_, 2
	note G_, 2
	octave 4
	note C_, 4
	octave 3
	note E_, 2
	note G_, 2
;Bar 35
	octave 4
	note C_, 4
	octave 3
	note C_, 2
	note F_, 2
	note A_, 4
	note F_, 2
	note A_, 2
;Bar 36
	note C_, 4
	note D_, 2
	note F_, 2
	note D_, 4
	note D_, 2
	note F_, 2
;Bar 37
	note D_, 4
	note D_, 2
	note G_, 2
	note A#, 4
	note D_, 2
	note G_, 2
;Bar 38
	note A#, 4
	note E_, 2
	note G_, 2
	note A_, 4
	note E_, 2
	note G_, 2
;Bar 39
	note A_, 4
	note D_, 2
	note D_, 2
	note D_, 4
	note D_, 4
;Bar 40
	note D_, 4
	note D_, 12
	sound_ret

; ============================================================================================================

Music_Shanson_Ch2:
	duty_cycle 0
	note_type 12, 10, 7
;Bar 1
	octave 4
	volume_envelope 15, 7
	note E_, 2
	note F#, 2
	octave 5
	note C_, 2
	octave 4
	note A#, 2
	octave 5
	note C_, 2
	note D_, 6
;Bar 2
	octave 4
	note G_, 4
	note F_, 2
	note E_, 4
	note E_, 10
;Bar 3
	note A#, 2
	note A_, 2
	note A#, 2
	octave 5
	note C_, 6
;Bar 4
	octave 4
	note E_, 4
	note E_, 2
	note D_, 4
	note D_, 10
;Bar 5
	note A_, 2
	note G_, 2
	note A_, 2
	note A#, 4
	note D_, 2
;Bar 6
	note E_, 2
	note C#, 2
	rest 8
	octave 3
	note A_, 2
	octave 4
	note A_, 2
;Bar 7
	note E_, 2
	note F_, 2
	rest 16
	rest 10
;Bar 8
	note D_, 2
;Bar 9
	note E_, 2
	note F#, 2
	octave 5
	note C_, 2
	octave 4
	note A#, 2
	octave 5
	note C_, 2
	note D_, 6
;Bar 10
	octave 4
	note G_, 4
	note F_, 2
	note E_, 4
	note E_, 10
;Bar 11
	note A#, 2
	note A_, 2
	note A#, 2
	octave 5
	note C_, 6
;Bar 12
	octave 4
	note E_, 4
	note E_, 2
	note D_, 4
	note D_, 10
;Bar 13
	note A_, 2
	note G_, 2
	note A_, 2
	note A#, 4
	note D_, 2
;Bar 14
	note E_, 2
	note C#, 2
	rest 8
	octave 3
	note A_, 2
	octave 4
	note G_, 2
;Bar 15
	note F_, 2
	note D_, 2
	rest 16
	rest 16
	rest 16
	rest 16
	rest 16
	rest 16
	rest 16
	rest 16
	rest 16
	rest 2
;Bar 24
	octave 5
	note G_, 4
	note G_, 2
	note A_, 3
	note G_, 3
;Bar 25
	note A#, 16
	note A#, 6
;Bar 26
	note E_, 2
	note E_, 2
	note A_, 2
	note G_, 4
;Bar 27
	note F_, 16
	note F_, 6
;Bar 28
	note D_, 4
	note F_, 2
	note D_, 6
;Bar 29
	note E_, 4
	note E_, 4
	note G_, 2
	note A#, 4
;Bar 30
	note A_, 10
	note E_, 6
;Bar 31
	note F_, 16
	note F_, 6
;Bar 32
	note A_, 4
	octave 6
	note C_, 2
	octave 5
	note A_, 4
;Bar 33
	note A#, 16
	note A#, 6
;Bar 34
	note E_, 2
	note E_, 2
	note A_, 2
	note G_, 4
;Bar 35
	note F_, 16
	note F_, 6
;Bar 36
	note D_, 4
	note F_, 2
	note D_, 6
;Bar 37
	note E_, 4
	note E_, 4
	note G_, 2
	note A#, 4
;Bar 38
	note A_, 6
	note E_, 4
	note G_, 2
	note F_, 4
;Bar 39
	note D_, 16
	note D_, 6
	sound_ret

; ============================================================================================================

Music_Shanson_Ch3:
	note_type 12, 1, 0
;Bar 1
	volume_envelope 1, 0
	rest 4
	octave 2
	note G_, 4
	note D_, 4
	note G_, 4
;Bar 2
	note D_, 4
	note C_, 4
	note G_, 4
	note C_, 4
;Bar 3
	note G_, 4
	note F_, 4
	note C_, 4
	note F_, 4
;Bar 4
	note A_, 4
	note A#, 4
	note E_, 4
	note A#, 4
;Bar 5
	note E_, 4
	note G_, 4
	note D_, 4
	note G_, 4
;Bar 6
	note D_, 4
	note A_, 4
	note E_, 4
	note A_, 4
;Bar 7
	note E_, 4
	note D_, 4
	note A_, 4
	note D_, 4
;Bar 8
	note A_, 4
	note D_, 4
	octave 3
	note C_, 4
	octave 2
	note A#, 4
;Bar 9
	note A_, 4
	note G_, 4
	note D_, 4
	note G_, 4
;Bar 10
	note D_, 4
	note C_, 4
	note G_, 4
	note C_, 4
;Bar 11
	note G_, 4
	note F_, 4
	note C_, 4
	note F_, 4
;Bar 12
	note A_, 4
	note A#, 4
	note E_, 4
	note A#, 4
;Bar 13
	note E_, 4
	note G_, 4
	note D_, 4
	note G_, 4
;Bar 14
	note D_, 4
	note A_, 4
	note E_, 4
	note A_, 4
;Bar 15
	note E_, 4
	note D_, 4
	note A_, 4
	note D_, 4
;Bar 16
	note A_, 2
	note F_, 2
	note D_, 12
;Bar 17
	note E_, 4
	note G_, 4
	note D_, 4
	note G_, 4
;Bar 18
	note D_, 4
	note C_, 4
	note G_, 4
	note C_, 4
;Bar 19
	note G_, 4
	note F_, 4
	note C_, 4
	note F_, 4
;Bar 20
	note A_, 4
	note A#, 4
	note E_, 4
	note A#, 4
;Bar 21
	note E_, 4
	note G_, 4
	note D_, 4
	note G_, 4
;Bar 22
	note D_, 4
	note A_, 4
	note E_, 4
	note A_, 4
;Bar 23
	note E_, 4
	note D_, 4
	note A_, 4
	note D_, 4
;Bar 24
	note A_, 4
	note D_, 4
	octave 3
	note C_, 4
	octave 2
	note A#, 4
;Bar 25
	note A_, 4
	note G_, 4
	note D_, 4
	note G_, 4
;Bar 26
	note D_, 4
	note C_, 4
	note G_, 4
	note C_, 4
;Bar 27
	note G_, 4
	note F_, 4
	note C_, 4
	note F_, 4
;Bar 28
	note A_, 4
	note A#, 4
	note E_, 4
	note A#, 4
;Bar 29
	note E_, 4
	note G_, 4
	note D_, 4
	note G_, 4
;Bar 30
	note D_, 4
	note A_, 4
	note E_, 4
	note A_, 4
;Bar 31
	note E_, 4
	note D_, 4
	note A_, 4
	note D_, 4
;Bar 32
	note A_, 4
	note D_, 4
	note A_, 4
	note D_, 4
;Bar 33
	note E_, 4
	note G_, 4
	note D_, 4
	note G_, 4
;Bar 34
	note D_, 4
	note C_, 4
	note G_, 4
	note C_, 4
;Bar 35
	note G_, 4
	note F_, 4
	note C_, 4
	note F_, 4
;Bar 36
	note A_, 4
	note A#, 4
	note E_, 4
	note A#, 4
;Bar 37
	note E_, 4
	note G_, 4
	note D_, 4
	note G_, 4
;Bar 38
	note D_, 4
	note A_, 4
	note E_, 4
	note A_, 4
;Bar 39
	note E_, 4
	note D_, 4
	note A_, 4
	note D_, 4
;Bar 40
	note A_, 2
	note F_, 2
	note D_, 16
	note D_, 12
	sound_ret

; ============================================================================================================

Music_Shanson_Ch4:
	toggle_noise 1
	drum_speed 12
;Bar 1
	rest 4
	drum_note 8, 8
	drum_note 3, 8
;Bar 2
	drum_note 5, 8
	drum_note 8, 8
;Bar 3
	drum_note 6, 8
	drum_note 6, 8
;Bar 4
	drum_note 3, 8
	drum_note 6, 8
;Bar 5
	rest 16
	rest 16
	rest 16
	rest 16
;Bar 9
	drum_note 8, 8
	drum_note 3, 8
;Bar 10
	drum_note 5, 8
	drum_note 8, 8
;Bar 11
	drum_note 6, 8
	drum_note 6, 8
;Bar 12
	drum_note 3, 8
	drum_note 6, 8
;Bar 13
	rest 16
	rest 16
	rest 16
	rest 2
;Bar 16
	drum_note 3, 4
	drum_note 5, 2
	drum_note 7, 6
;Bar 17
	drum_note 11, 1
	drum_note 10, 1
	drum_note 8, 10
	drum_note 8, 4
;Bar 18
	drum_note 6, 2
	drum_note 5, 10
	drum_note 10, 4
;Bar 19
	drum_note 8, 2
	drum_note 11, 6
	drum_note 10, 12
;Bar 20
	drum_note 10, 4
	drum_note 11, 2
	drum_note 1, 3
	drum_note 11, 3
;Bar 21
	drum_note 10, 2
	drum_note 1, 10
	drum_note 12, 4
;Bar 22
	drum_note 1, 2
	drum_note 4, 10
	drum_note 3, 4
;Bar 23
	drum_note 10, 2
	drum_note 11, 16
	drum_note 11, 2
;Bar 24
	drum_note 8, 4
	drum_note 8, 2
	drum_note 10, 3
	drum_note 8, 3
;Bar 25
	drum_note 11, 16
	drum_note 11, 6
;Bar 26
	drum_note 5, 2
	drum_note 5, 2
	drum_note 10, 2
	drum_note 8, 4
;Bar 27
	drum_note 6, 16
	drum_note 6, 6
;Bar 28
	drum_note 3, 4
	drum_note 6, 2
	drum_note 3, 6
;Bar 29
	drum_note 5, 4
	drum_note 5, 4
	drum_note 8, 2
	drum_note 11, 4
;Bar 30
	drum_note 10, 10
	drum_note 5, 6
;Bar 31
	drum_note 6, 16
	drum_note 6, 6
;Bar 32
	drum_note 10, 4
	drum_note 1, 2
	drum_note 10, 4
;Bar 33
	drum_note 11, 16
	drum_note 11, 6
;Bar 34
	drum_note 5, 2
	drum_note 5, 2
	drum_note 10, 2
	drum_note 8, 4
;Bar 35
	drum_note 6, 16
	drum_note 6, 6
;Bar 36
	drum_note 3, 4
	drum_note 6, 2
	drum_note 3, 6
;Bar 37
	drum_note 5, 4
	drum_note 5, 4
	drum_note 8, 2
	drum_note 11, 4
;Bar 38
	drum_note 10, 6
	drum_note 5, 4
	drum_note 8, 2
	drum_note 6, 4
;Bar 39
	drum_note 3, 16
	drum_note 3, 6
	sound_ret

; ============================================================================================================

