;Coverted using MIDI2ASM
;Code by TriteHexagon
;Version 5.2.0 (16-Nov-2022)
;Visit github.com/TriteHexagon/Midi2ASM-Converter for up-to-date versions.

; ============================================================================================================

Music_SonicBoom:
	channel_count 2
	channel 1, Music_SonicBoom_Ch1
	channel 2, Music_SonicBoom_Ch2

Music_SonicBoom_Ch1:
	volume 7, 7
	duty_cycle 0
	note_type 12, 10, 7
	tempo 95
.mainloop
;Bar 1
	octave 4
	volume_envelope 9, 7
	note D_, 2
	octave 3
	note B_, 4
	octave 4
	note D_, 2
	octave 3
	note B_, 2
	note B_, 2
	octave 4
	note E_, 4
;Bar 2
	note D_, 2
	octave 3
	note B_, 4
	octave 4
	note D_, 2
	octave 3
	note B_, 2
	note B_, 2
	octave 4
	note E_, 4
;Bar 3
	note D_, 2
	octave 3
	note B_, 4
	octave 4
	note D_, 2
	octave 3
	note B_, 2
	note B_, 2
	octave 4
	note E_, 4
;Bar 4
	note D_, 2
	octave 3
	note B_, 4
	octave 4
	note D_, 2
	octave 3
	note B_, 2
	note B_, 2
	octave 4
	note E_, 4
;Bar 5
	note D_, 2
	octave 3
	note B_, 4
	octave 4
	note D_, 2
	octave 3
	note B_, 2
	note B_, 2
	octave 4
	note E_, 4
;Bar 6
	note D_, 2
	octave 3
	note B_, 4
	octave 4
	note D_, 2
	octave 3
	note B_, 2
	note B_, 2
	octave 4
	note E_, 4
;Bar 7
	note D_, 2
	octave 3
	note B_, 4
	octave 4
	note D_, 2
	octave 3
	note B_, 2
	note B_, 2
	octave 4
	note E_, 4
;Bar 8
	note D_, 2
	octave 3
	note B_, 6
	note B_, 2
	octave 4
	note D_, 4
	note E_, 10
;Bar 9
	octave 3
	note B_, 2
	octave 4
	note D_, 4
	note E_, 10
;Bar 10
	octave 3
	note B_, 2
	octave 4
	note D_, 4
	note G_, 4
;Bar 11
	note F#, 4
	note E_, 4
	note D_, 4
	octave 3
	note A_, 1
	note B_, 1
;Bar 12
	note A_, 8
	note G_, 4
	note E_, 2 ; WARNING: Auto-Sync says: Rounded up!
	note A_, 4
;Bar 13
	note A_, 14
;Bar 14
	rest 12
	octave 4
	note G_, 14
;Bar 15
	note F#, 2
	note E_, 2
	note D_, 2
;Bar 16
	note E_, 8
	octave 3
	note B_, 2
	octave 4
	note D_, 4
	note E_, 10
;Bar 17
	octave 3
	note B_, 2
	octave 4
	note D_, 4
	note E_, 10
;Bar 18
	octave 3
	note B_, 2
	octave 4
	note D_, 4
	note G_, 4
;Bar 19
	note A_, 4
	note B_, 4
	note G_, 4
	note E_, 8
;Bar 20
	note D_, 2
	note D_, 2
	note D_, 4
	note D_, 4
;Bar 21
	note E_, 16
	note E_, 14
;Bar 23
	note A_, 2
	note A_, 4
	note A_, 4
	note B_, 4
	note A_, 10
;Bar 24
	note C_, 2
	note D#, 4
	note F_, 8
;Bar 25
	rest 2
	note F_, 2
	note G_, 4
	note G#, 10
;Bar 26
	note G#, 2
	octave 5
	note C_, 4
	octave 4
	note A#, 2
;Bar 27
	octave 5
	note C_, 4
	rest 2
	octave 4
	note A#, 4
	note G#, 4
	octave 5
	note C_, 4
;Bar 28
	octave 4
	note A#, 4
	note A#, 4
	octave 5
	note C_, 6
;Bar 29
	octave 4
	note F_, 8
	note F_, 2
	note G_, 4
	note G#, 10
;Bar 30
	note G#, 2
	octave 5
	note C_, 4
	octave 4
	note A#, 2
;Bar 31
	octave 5
	note C_, 4
	rest 2
	octave 4
	note A#, 4
	note G#, 4
	octave 5
	note C_, 4
;Bar 32
	octave 4
	note A#, 4
	note A#, 4
	note G#, 6
;Bar 33
	rest 8
	octave 3
	note B_, 4
	octave 4
	note E_, 16
	note E_, 4
;Bar 35
	rest 8
	note D_, 4
	note G_, 16
	note G_, 4
;Bar 37
	note D_, 2
	octave 3
	note B_, 4
	octave 4
	note D_, 2
	octave 3
	note B_, 2
	note B_, 2
	octave 4
	note E_, 4
;Bar 38
	note D_, 2
	octave 3
	note B_, 4
	octave 4
	note D_, 2
	octave 3
	note B_, 2
	note B_, 2
	octave 4
	note E_, 4
;Bar 39
	octave 5
	note E_, 10
	note D_, 2 ; WARNING: Auto-Sync says: Rounded up!
	octave 4
	note B_, 1
	octave 5
	note D_, 2
	octave 4
	note B_, 1
;Bar 40
	octave 5
	note E_, 8
	octave 3
	note B_, 2
	octave 4
	note D_, 4
	note E_, 10
;Bar 41
	octave 3
	note B_, 2
	octave 4
	note D_, 4
	note E_, 10
;Bar 42
	octave 3
	note B_, 2
	octave 4
	note D_, 4
	note G_, 4
;Bar 43
	note F#, 4
	note G_, 4
	note F#, 4
	note E_, 6
;Bar 44
	note D_, 2
	note D_, 2
	note D_, 2
	note D_, 4
	note D_, 4
;Bar 45
	note E_, 16
	note E_, 14
;Bar 47
	note B_, 16
;Bar 48
	note A_, 1
	note B_, 1
	note A_, 2
	note G_, 2
	note E_, 2
	note C_, 2
	note D#, 4
	note F_, 8
;Bar 49
	rest 2
	note F_, 2
	note G_, 4
	note G#, 10
;Bar 50
	note G#, 2
	octave 5
	note C_, 4
	octave 4
	note A#, 2
;Bar 51
	octave 5
	note C_, 4
	rest 2
	octave 4
	note A#, 4
	note G#, 4
	octave 5
	note C_, 4
;Bar 52
	octave 4
	note A#, 4
	note A#, 4
	octave 5
	note C_, 6
;Bar 53
	octave 4
	note F_, 8
	note F_, 2
	note G_, 4
	note G#, 10
;Bar 54
	note G#, 2
	octave 5
	note C_, 4
	octave 4
	note A#, 2
;Bar 55
	octave 5
	note C_, 4
	rest 2
	octave 4
	note A#, 4
	note G#, 4
	octave 5
	note C_, 4
;Bar 56
	octave 4
	note A#, 4
	note A#, 4
	octave 5
	note C_, 6
;Bar 57
	octave 4
	note F_, 8
	note F_, 2
	note G_, 4
	note G#, 10
;Bar 58
	note G#, 2
	octave 5
	note C_, 4
	octave 4
	note A#, 2
;Bar 59
	octave 5
	note C_, 4
	rest 2
	octave 4
	note A#, 4
	note G#, 4
	octave 5
	note C_, 4
;Bar 60
	octave 4
	note A#, 4
	note A#, 4
	octave 5
	note C_, 6
;Bar 61
	octave 4
	note F_, 8
	note F_, 2
	note G_, 4
	note G#, 10
;Bar 62
	note G#, 2
	octave 5
	note C_, 4
	octave 4
	note A#, 2
;Bar 63
	octave 5
	note C_, 4
	rest 2
	octave 4
	note A#, 4
	note G#, 4
	octave 5
	note C_, 4
;Bar 64
	octave 4
	note A#, 4
	note A#, 4
	note G#, 6
;Bar 65
	rest 8
	octave 3
	note B_, 4
	octave 4
	note E_, 16
	note E_, 4
;Bar 67
	rest 8
	note D_, 4
	note G_, 16
	note G_, 4
;Bar 69
	note D_, 2
	octave 3
	note B_, 4
	octave 4
	note D_, 2
	octave 3
	note B_, 2
	note B_, 2
	octave 4
	note E_, 4
;Bar 70
	note D_, 2
	octave 3
	note B_, 4
	octave 4
	note D_, 2
	octave 3
	note B_, 2
	note B_, 2
	octave 4
	note E_, 4
;Bar 71
	note D_, 2
	octave 3
	note B_, 4
	octave 4
	note D_, 2
	octave 3
	note B_, 2
	note B_, 2
	octave 4
	note E_, 4
;Bar 72
	note D_, 2
	octave 3
	note B_, 6
	note B_, 2
	octave 4
	note D_, 4
	note E_, 10
;Bar 73
	octave 3
	note B_, 2
	octave 4
	note D_, 4
	note E_, 10
;Bar 74
	octave 3
	note B_, 2
	octave 4
	note D_, 4
	note G_, 4
;Bar 75
	note F#, 4
	note E_, 4
	note D_, 4
	octave 3
	note A_, 1
	note B_, 1
;Bar 76
	note A_, 8
	note G_, 4
	note E_, 2
	note A_, 4
;Bar 77
	note A_, 14
;Bar 78
	rest 12
	octave 4
	note G_, 14
;Bar 79
	note F#, 2
	note E_, 2
	note D_, 2
;Bar 80
	note E_, 8
	octave 3
	note B_, 2
	octave 4
	note D_, 4
	note E_, 10
;Bar 81
	octave 3
	note B_, 2
	octave 4
	note D_, 4
	note E_, 10
;Bar 82
	octave 3
	note B_, 2
	octave 4
	note D_, 4
	note G_, 4
;Bar 83
	note A_, 4
	note B_, 4
	note G_, 4
	note E_, 8
;Bar 84
	note D_, 2
	note D_, 2
	note D_, 4
	note D_, 4
;Bar 85
	note E_, 16
	note E_, 14
;Bar 87
	note A_, 2
	note A_, 4
	note A_, 4
	note B_, 4
	note A_, 10
;Bar 88
	note C_, 2
	note D#, 4
	note F_, 8
;Bar 89
	rest 2
	note F_, 2
	note G_, 4
	note G#, 10
;Bar 90
	note G#, 2
	octave 5
	note C_, 4
	octave 4
	note A#, 2
;Bar 91
	octave 5
	note C_, 4
	rest 2
	octave 4
	note A#, 4
	note G#, 4
	octave 5
	note C_, 4
;Bar 92
	octave 4
	note A#, 4
	note A#, 4
	octave 5
	note C_, 6
;Bar 93
	octave 4
	note F_, 8
	note F_, 2
	note G_, 4
	note G#, 10
;Bar 94
	note G#, 2
	octave 5
	note C_, 4
	octave 4
	note A#, 2
;Bar 95
	octave 5
	note C_, 4
	rest 2
	octave 4
	note A#, 4
	note G#, 4
	octave 5
	note C_, 4
;Bar 96
	octave 4
	note A#, 4
	note A#, 4
	note G#, 6
;Bar 97
	rest 8
	octave 3
	note B_, 4
	octave 4
	note E_, 16
	note E_, 4
;Bar 99
	rest 8
	note D_, 4
	note G_, 16
	note G_, 4
;Bar 101
	note D_, 2
	octave 3
	note B_, 4
	octave 4
	note D_, 2
	octave 3
	note B_, 2
	note B_, 2
	octave 4
	note E_, 4
;Bar 102
	note D_, 2
	octave 3
	note B_, 4
	octave 4
	note D_, 2
	octave 3
	note B_, 2
	note B_, 2
	octave 4
	note E_, 4
;Bar 103
	octave 5
	note E_, 10
	note D_, 2
	octave 4
	note B_, 1
	octave 5
	note D_, 2
	octave 4
	note B_, 1
;Bar 104
	octave 5
	note E_, 8
	octave 3
	note B_, 2
	octave 4
	note D_, 4
	note E_, 10
;Bar 105
	octave 3
	note B_, 2
	octave 4
	note D_, 4
	note E_, 10
;Bar 106
	octave 3
	note B_, 2
	octave 4
	note D_, 4
	note G_, 4
;Bar 107
	note F#, 4
	note G_, 4
	note F#, 4
	note E_, 6
;Bar 108
	note D_, 2
	note D_, 2
	note D_, 2
	note D_, 4
	note D_, 4
;Bar 109
	note E_, 16
	note E_, 14
;Bar 111
	note B_, 16
;Bar 112
	note A_, 1
	note B_, 1
	note A_, 2
	note G_, 2
	note E_, 2
	note C_, 2
	note D#, 4
	note F_, 8
;Bar 113
	rest 2
	note F_, 2
	note G_, 4
	note G#, 10
;Bar 114
	note G#, 2
	octave 5
	note C_, 4
	octave 4
	note A#, 2
;Bar 115
	octave 5
	note C_, 4
	rest 2
	octave 4
	note A#, 4
	note G#, 4
	octave 5
	note C_, 4
;Bar 116
	octave 4
	note A#, 4
	note A#, 4
	octave 5
	note C_, 6
;Bar 117
	octave 4
	note F_, 8
	note F_, 2
	note G_, 4
	note G#, 10
;Bar 118
	note G#, 2
	octave 5
	note C_, 4
	octave 4
	note A#, 2
;Bar 119
	octave 5
	note C_, 4
	rest 2
	octave 4
	note A#, 4
	note G#, 4
	octave 5
	note C_, 4
;Bar 120
	octave 4
	note A#, 4
	note A#, 4
	octave 5
	note C_, 6
;Bar 121
	octave 4
	note F_, 8
	note F_, 2
	note G_, 4
	note G#, 10
;Bar 122
	note G#, 2
	octave 5
	note C_, 4
	octave 4
	note A#, 2
;Bar 123
	octave 5
	note C_, 4
	rest 2
	octave 4
	note A#, 4
	note G#, 4
	octave 5
	note C_, 4
;Bar 124
	octave 4
	note A#, 4
	note A#, 4
	octave 5
	note C_, 6
;Bar 125
	octave 4
	note F_, 8
	note F_, 2
	note G_, 4
	note G#, 10
;Bar 126
	note G#, 2
	octave 5
	note C_, 4
	octave 4
	note A#, 2
;Bar 127
	octave 5
	note C_, 4
	rest 2
	octave 4
	note A#, 4
	note G#, 4
	octave 5
	note C_, 4
;Bar 128
	octave 4
	note A#, 4
	note A#, 4
	note G#, 6
;Bar 129
	rest 8
	octave 3
	note B_, 4
	octave 4
	note E_, 16
	note E_, 4
;Bar 131
	rest 8
	note D_, 4
	note G_, 16
	note G_, 4
;Bar 133
	note D_, 2
	octave 3
	note B_, 4
	octave 4
	note D_, 2
	octave 3
	note B_, 2
	note B_, 2
	octave 4
	note E_, 4
;Bar 134
	note D_, 2
	octave 3
	note B_, 4
	octave 4
	note D_, 2
	octave 3
	note B_, 2
	note B_, 2
	octave 4
	note E_, 4
	sound_loop 0, .mainloop

; ============================================================================================================

Music_SonicBoom_Ch2:
	duty_cycle 2
	note_type 12, 10, 7
.mainloop
;Bar 1
	octave 1
	volume_envelope 9, 7
	;note B_, 0 | WARNING: Rounded down to 0
	octave 2
	;note E_, 0 | WARNING: Rounded down to 0
	octave 1
	note E_, 8
	note E_, 2
	note E_, 6
;Bar 2
	;note B_, 0 | WARNING: Rounded down to 0
	octave 2
	;note E_, 0 | WARNING: Rounded down to 0
	octave 1
	note E_, 8
	note E_, 2
	note E_, 6
;Bar 3
	octave 2
	;note D_, 0 | WARNING: Rounded down to 0
	;note G_, 0 | WARNING: Rounded down to 0
	octave 1
	note G_, 8
	note G_, 2
	note G_, 6
;Bar 4
	octave 2
	;note D_, 0 | WARNING: Rounded down to 0
	;note G_, 0 | WARNING: Rounded down to 0
	octave 1
	note G_, 8
	note G_, 2
	note G_, 6
;Bar 5
	octave 2
	;note E_, 0 | WARNING: Rounded down to 0
	;note A_, 0 | WARNING: Rounded down to 0
	octave 1
	note A_, 8
	note A_, 2
	note A_, 6
;Bar 6
	octave 2
	;note E_, 0 | WARNING: Rounded down to 0
	;note A_, 0 | WARNING: Rounded down to 0
	octave 1
	note A_, 8
	note A_, 2
	note A_, 6
;Bar 7
	octave 2
	;note E_, 0 | WARNING: Rounded down to 0
	;note A_, 0 | WARNING: Rounded down to 0
	octave 1
	note A_, 8
	note A_, 2
	note A_, 6
;Bar 8
	octave 2
	;note E_, 0 | WARNING: Rounded down to 0
	;note A_, 0 | WARNING: Rounded down to 0
	octave 1
	note A_, 8
	octave 2
	note D_, 2
	note C#, 2
	octave 1
	note B_, 2
	note A_, 2
;Bar 9
	;note B_, 0 | WARNING: Rounded down to 0
	octave 2
	;note E_, 0 | WARNING: Rounded down to 0
	octave 1
	note E_, 8
	note E_, 2
	note E_, 6
;Bar 10
	;note B_, 0 | WARNING: Rounded down to 0
	octave 2
	;note E_, 0 | WARNING: Rounded down to 0
	octave 1
	note E_, 8
	note E_, 2
	note E_, 6
;Bar 11
	octave 2
	;note D_, 0 | WARNING: Rounded down to 0
	;note G_, 0 | WARNING: Rounded down to 0
	octave 1
	note G_, 8
	note G_, 2
	note G_, 6
;Bar 12
	octave 2
	;note D_, 0 | WARNING: Rounded down to 0
	;note G_, 0 | WARNING: Rounded down to 0
	octave 1
	note G_, 8
	note G_, 2
	note G_, 6
;Bar 13
	octave 2
	;note E_, 0 | WARNING: Rounded down to 0
	;note A_, 0 | WARNING: Rounded down to 0
	octave 1
	note A_, 8
	note A_, 2
	note A_, 6
;Bar 14
	octave 2
	;note E_, 0 | WARNING: Rounded down to 0
	;note A_, 0 | WARNING: Rounded down to 0
	octave 1
	note A_, 8
	note A_, 2
	note A_, 6
;Bar 15
	octave 2
	;note E_, 0 | WARNING: Rounded down to 0
	;note A_, 0 | WARNING: Rounded down to 0
	octave 1
	note A_, 8
	note A_, 2
	note A_, 6
;Bar 16
	octave 2
	;note E_, 0 | WARNING: Rounded down to 0
	;note A_, 0 | WARNING: Rounded down to 0
	octave 1
	note A_, 8
	octave 2
	note D_, 2
	note C#, 2
	octave 1
	note B_, 2
	note A_, 2
;Bar 17
	;note B_, 0 | WARNING: Rounded down to 0
	octave 2
	;note E_, 0 | WARNING: Rounded down to 0
	octave 1
	note E_, 8
	note E_, 2
	note E_, 6
;Bar 18
	;note B_, 0 | WARNING: Rounded down to 0
	octave 2
	;note E_, 0 | WARNING: Rounded down to 0
	octave 1
	note E_, 8
	note E_, 2
	note E_, 6
;Bar 19
	octave 2
	;note D_, 0 | WARNING: Rounded down to 0
	;note G_, 0 | WARNING: Rounded down to 0
	octave 1
	note G_, 8
	note G_, 2
	note G_, 6
;Bar 20
	octave 2
	;note D_, 0 | WARNING: Rounded down to 0
	;note G_, 0 | WARNING: Rounded down to 0
	octave 1
	note G_, 8
	note G_, 2
	note G_, 6
;Bar 21
	octave 2
	;note E_, 0 | WARNING: Rounded down to 0
	;note A_, 0 | WARNING: Rounded down to 0
	octave 1
	note A_, 8
	note A_, 2
	note A_, 6
;Bar 22
	octave 2
	;note E_, 0 | WARNING: Rounded down to 0
	;note A_, 0 | WARNING: Rounded down to 0
	octave 1
	note A_, 8
	note A_, 2
	note A_, 6
;Bar 23
	octave 2
	;note E_, 0 | WARNING: Rounded down to 0
	;note A_, 0 | WARNING: Rounded down to 0
	octave 1
	note A_, 2
	note A_, 4
	note A_, 4
	note A_, 4
	note A_, 2
;Bar 24
	octave 2
	;note A_, 0 | WARNING: Rounded down to 0
	octave 1
	note A_, 8
	octave 2
	note C_, 2
	octave 1
	note A#, 2
	note G#, 2
	note G_, 2
;Bar 25
	octave 2
	;note C_, 0 | WARNING: Rounded down to 0
	;note F_, 0 | WARNING: Rounded down to 0
	octave 1
	note F_, 8
	note F_, 2
	note F_, 6
;Bar 26
	;note G#, 0 | WARNING: Rounded down to 0
	octave 2
	;note C#, 0 | WARNING: Rounded down to 0
	octave 1
	note C#, 8
	note C#, 2
	note C#, 6
;Bar 27
	;note A#, 0 | WARNING: Rounded down to 0
	octave 2
	;note D#, 0 | WARNING: Rounded down to 0
	octave 1
	note D#, 8
	note D#, 2
	note D#, 6
;Bar 28
	octave 2
	;note F_, 0 | WARNING: Rounded down to 0
	;note A#, 0 | WARNING: Rounded down to 0
	octave 1
	note A#, 8
	note A#, 2
	note A#, 6
;Bar 29
	octave 2
	;note C_, 0 | WARNING: Rounded down to 0
	;note F_, 0 | WARNING: Rounded down to 0
	octave 1
	note F_, 8
	note F_, 2
	note F_, 6
;Bar 30
	;note G#, 0 | WARNING: Rounded down to 0
	octave 2
	;note C#, 0 | WARNING: Rounded down to 0
	octave 1
	note C#, 8
	note C#, 2
	note C#, 6
;Bar 31
	;note A#, 0 | WARNING: Rounded down to 0
	octave 2
	;note D#, 0 | WARNING: Rounded down to 0
	octave 1
	note D#, 8
	note D#, 2
	note D#, 6
;Bar 32
	octave 2
	;note F_, 0 | WARNING: Rounded down to 0
	;note A#, 0 | WARNING: Rounded down to 0
	octave 1
	note A#, 8
	note A#, 4
	octave 2
	note C_, 2
	octave 1
	note A#, 2
;Bar 33
	;note B_, 0 | WARNING: Rounded down to 0
	octave 2
	;note E_, 0 | WARNING: Rounded down to 0
	octave 1
	note E_, 8
	note E_, 2
	note E_, 6
;Bar 34
	;note B_, 0 | WARNING: Rounded down to 0
	octave 2
	;note E_, 0 | WARNING: Rounded down to 0
	octave 1
	note E_, 8
	note E_, 2
	note E_, 6
;Bar 35
	octave 2
	;note D_, 0 | WARNING: Rounded down to 0
	;note G_, 0 | WARNING: Rounded down to 0
	octave 1
	note G_, 8
	note G_, 2
	note G_, 6
;Bar 36
	octave 2
	;note D_, 0 | WARNING: Rounded down to 0
	;note G_, 0 | WARNING: Rounded down to 0
	octave 1
	note G_, 8
	note G_, 2
	note G_, 6
;Bar 37
	octave 2
	;note A_, 0 | WARNING: Rounded down to 0
	octave 1
	note A_, 8
	octave 2
	;note E_, 0 | WARNING: Rounded down to 0
	octave 1
	note A_, 2
	note A_, 2
	octave 2
	note A_, 4
;Bar 38
	octave 1
	note A_, 8
	note A_, 2
	note A_, 6
;Bar 39
	octave 2
	;note E_, 0 | WARNING: Rounded down to 0
	;note A_, 0 | WARNING: Rounded down to 0
	octave 1
	note A_, 8
	note A_, 2
	note A_, 6
;Bar 40
	octave 2
	;note E_, 0 | WARNING: Rounded down to 0
	;note A_, 0 | WARNING: Rounded down to 0
	octave 1
	note A_, 8
	octave 2
	note D_, 2
	note C#, 2
	octave 1
	note B_, 2
	note A_, 2
;Bar 41
	;note B_, 0 | WARNING: Rounded down to 0
	octave 2
	;note E_, 0 | WARNING: Rounded down to 0
	octave 1
	note E_, 8
	note E_, 2
	note E_, 6
;Bar 42
	;note B_, 0 | WARNING: Rounded down to 0
	octave 2
	;note E_, 0 | WARNING: Rounded down to 0
	octave 1
	note E_, 8
	note E_, 2
	note E_, 6
;Bar 43
	octave 2
	;note D_, 0 | WARNING: Rounded down to 0
	;note G_, 0 | WARNING: Rounded down to 0
	octave 1
	note G_, 8
	note G_, 2
	note G_, 6
;Bar 44
	octave 2
	;note D_, 0 | WARNING: Rounded down to 0
	;note G_, 0 | WARNING: Rounded down to 0
	octave 1
	note G_, 8
	note G_, 2
	note G_, 6
;Bar 45
	octave 2
	;note A_, 0 | WARNING: Rounded down to 0
	octave 1
	note A_, 8
	octave 2
	;note E_, 0 | WARNING: Rounded down to 0
	octave 1
	note A_, 2
	note A_, 2
	octave 2
	note A_, 4
;Bar 46
	octave 1
	note A_, 8
	note A_, 2
	note A_, 6
;Bar 47
	octave 2
	;note E_, 0 | WARNING: Rounded down to 0
	;note A_, 0 | WARNING: Rounded down to 0
	octave 1
	note A_, 8
	note A_, 2
	note A_, 6
;Bar 48
	octave 2
	;note A_, 0 | WARNING: Rounded down to 0
	octave 1
	note A_, 8
	octave 2
	note C_, 2
	octave 1
	note A#, 2
	note G#, 2
	note G_, 2
;Bar 49
	octave 2
	;note C_, 0 | WARNING: Rounded down to 0
	;note F_, 0 | WARNING: Rounded down to 0
	octave 1
	note F_, 8
	note F_, 2
	note F_, 6
;Bar 50
	;note G#, 0 | WARNING: Rounded down to 0
	octave 2
	;note C#, 0 | WARNING: Rounded down to 0
	octave 1
	note C#, 8
	note C#, 2
	note C#, 6
;Bar 51
	;note A#, 0 | WARNING: Rounded down to 0
	octave 2
	;note D#, 0 | WARNING: Rounded down to 0
	octave 1
	note D#, 8
	note D#, 2
	note D#, 6
;Bar 52
	octave 2
	;note F_, 0 | WARNING: Rounded down to 0
	;note A#, 0 | WARNING: Rounded down to 0
	octave 1
	note A#, 8
	note A#, 2
	note A#, 6
;Bar 53
	octave 2
	;note C_, 0 | WARNING: Rounded down to 0
	;note F_, 0 | WARNING: Rounded down to 0
	octave 1
	note F_, 8
	note F_, 2
	note F_, 6
;Bar 54
	;note G#, 0 | WARNING: Rounded down to 0
	octave 2
	;note C#, 0 | WARNING: Rounded down to 0
	octave 1
	note C#, 8
	note C#, 2
	note C#, 6
;Bar 55
	;note A#, 0 | WARNING: Rounded down to 0
	octave 2
	;note D#, 0 | WARNING: Rounded down to 0
	octave 1
	note D#, 8
	note D#, 2
	note D#, 6
;Bar 56
	octave 2
	;note F_, 0 | WARNING: Rounded down to 0
	;note A#, 0 | WARNING: Rounded down to 0
	octave 1
	note A#, 8
	note A#, 4
	octave 2
	note C_, 2
	octave 1
	note A#, 2
;Bar 57
	octave 2
	;note C_, 0 | WARNING: Rounded down to 0
	;note F_, 0 | WARNING: Rounded down to 0
	octave 1
	note F_, 8
	note F_, 2
	note F_, 6
;Bar 58
	;note G#, 0 | WARNING: Rounded down to 0
	octave 2
	;note C#, 0 | WARNING: Rounded down to 0
	octave 1
	note C#, 8
	note C#, 2
	note C#, 6
;Bar 59
	;note A#, 0 | WARNING: Rounded down to 0
	octave 2
	;note D#, 0 | WARNING: Rounded down to 0
	octave 1
	note D#, 8
	note D#, 2
	note D#, 6
;Bar 60
	octave 2
	;note F_, 0 | WARNING: Rounded down to 0
	;note A#, 0 | WARNING: Rounded down to 0
	octave 1
	note A#, 8
	note A#, 2
	note A#, 6
;Bar 61
	octave 2
	;note C_, 0 | WARNING: Rounded down to 0
	;note F_, 0 | WARNING: Rounded down to 0
	octave 1
	note F_, 8
	note F_, 2
	note F_, 6
;Bar 62
	;note G#, 0 | WARNING: Rounded down to 0
	octave 2
	;note C#, 0 | WARNING: Rounded down to 0
	octave 1
	note C#, 8
	note C#, 2
	note C#, 6
;Bar 63
	;note A#, 0 | WARNING: Rounded down to 0
	octave 2
	;note D#, 0 | WARNING: Rounded down to 0
	octave 1
	note D#, 8
	note D#, 2
	note D#, 6
;Bar 64
	octave 2
	;note F_, 0 | WARNING: Rounded down to 0
	;note A#, 0 | WARNING: Rounded down to 0
	octave 1
	note A#, 8
	note A#, 4
	octave 2
	note C_, 2
	octave 1
	note A#, 2
;Bar 65
	;note B_, 0 | WARNING: Rounded down to 0
	octave 2
	;note E_, 0 | WARNING: Rounded down to 0
	octave 1
	note E_, 8
	note E_, 2
	note E_, 6
;Bar 66
	;note B_, 0 | WARNING: Rounded down to 0
	octave 2
	;note E_, 0 | WARNING: Rounded down to 0
	octave 1
	note E_, 8
	note E_, 2
	note E_, 6
;Bar 67
	octave 2
	;note D_, 0 | WARNING: Rounded down to 0
	;note G_, 0 | WARNING: Rounded down to 0
	octave 1
	note G_, 8
	note G_, 2
	note G_, 6
;Bar 68
	octave 2
	;note D_, 0 | WARNING: Rounded down to 0
	;note G_, 0 | WARNING: Rounded down to 0
	octave 1
	note G_, 8
	note G_, 2
	note G_, 6
;Bar 69
	octave 2
	;note A_, 0 | WARNING: Rounded down to 0
	octave 1
	note A_, 8
	octave 2
	;note E_, 0 | WARNING: Rounded down to 0
	octave 1
	note A_, 2
	note A_, 2
	octave 2
	note A_, 4
;Bar 70
	octave 1
	note A_, 8
	note A_, 2
	note A_, 6
;Bar 71
	octave 2
	;note E_, 0 | WARNING: Rounded down to 0
	;note A_, 0 | WARNING: Rounded down to 0
	octave 1
	note A_, 8
	note A_, 2
	note A_, 6
;Bar 72
	octave 2
	;note E_, 0 | WARNING: Rounded down to 0
	;note A_, 0 | WARNING: Rounded down to 0
	octave 1
	note A_, 8
	octave 2
	note D_, 2
	note C#, 2
	octave 1
	note B_, 2
	note A_, 2
;Bar 73
	;note B_, 0 | WARNING: Rounded down to 0
	octave 2
	;note E_, 0 | WARNING: Rounded down to 0
	octave 1
	note E_, 8
	note E_, 2
	note E_, 6
;Bar 74
	;note B_, 0 | WARNING: Rounded down to 0
	octave 2
	;note E_, 0 | WARNING: Rounded down to 0
	octave 1
	note E_, 8
	note E_, 2
	note E_, 6
;Bar 75
	octave 2
	;note D_, 0 | WARNING: Rounded down to 0
	;note G_, 0 | WARNING: Rounded down to 0
	octave 1
	note G_, 8
	note G_, 2
	note G_, 6
;Bar 76
	octave 2
	;note D_, 0 | WARNING: Rounded down to 0
	;note G_, 0 | WARNING: Rounded down to 0
	octave 1
	note G_, 8
	note G_, 2
	note G_, 6
;Bar 77
	octave 2
	;note E_, 0 | WARNING: Rounded down to 0
	;note A_, 0 | WARNING: Rounded down to 0
	octave 1
	note A_, 8
	note A_, 2
	note A_, 6
;Bar 78
	octave 2
	;note E_, 0 | WARNING: Rounded down to 0
	;note A_, 0 | WARNING: Rounded down to 0
	octave 1
	note A_, 8
	note A_, 2
	note A_, 6
;Bar 79
	octave 2
	;note E_, 0 | WARNING: Rounded down to 0
	;note A_, 0 | WARNING: Rounded down to 0
	octave 1
	note A_, 8
	note A_, 2
	note A_, 6
;Bar 80
	octave 2
	;note E_, 0 | WARNING: Rounded down to 0
	;note A_, 0 | WARNING: Rounded down to 0
	octave 1
	note A_, 8
	octave 2
	note D_, 2
	note C#, 2
	octave 1
	note B_, 2
	note A_, 2
;Bar 81
	;note B_, 0 | WARNING: Rounded down to 0
	octave 2
	;note E_, 0 | WARNING: Rounded down to 0
	octave 1
	note E_, 8
	note E_, 2
	note E_, 6
;Bar 82
	;note B_, 0 | WARNING: Rounded down to 0
	octave 2
	;note E_, 0 | WARNING: Rounded down to 0
	octave 1
	note E_, 8
	note E_, 2
	note E_, 6
;Bar 83
	octave 2
	;note D_, 0 | WARNING: Rounded down to 0
	;note G_, 0 | WARNING: Rounded down to 0
	octave 1
	note G_, 8
	note G_, 2
	note G_, 6
;Bar 84
	octave 2
	;note D_, 0 | WARNING: Rounded down to 0
	;note G_, 0 | WARNING: Rounded down to 0
	octave 1
	note G_, 8
	note G_, 2
	note G_, 6
;Bar 85
	octave 2
	;note E_, 0 | WARNING: Rounded down to 0
	;note A_, 0 | WARNING: Rounded down to 0
	octave 1
	note A_, 8
	note A_, 2
	note A_, 6
;Bar 86
	octave 2
	;note E_, 0 | WARNING: Rounded down to 0
	;note A_, 0 | WARNING: Rounded down to 0
	octave 1
	note A_, 8
	note A_, 2
	note A_, 6
;Bar 87
	octave 2
	;note E_, 0 | WARNING: Rounded down to 0
	;note A_, 0 | WARNING: Rounded down to 0
	octave 1
	note A_, 2
	note A_, 4
	note A_, 4
	note A_, 4
	note A_, 2
;Bar 88
	octave 2
	;note A_, 0 | WARNING: Rounded down to 0
	octave 1
	note A_, 8
	octave 2
	note C_, 2
	octave 1
	note A#, 2
	note G#, 2
	note G_, 2
;Bar 89
	octave 2
	;note C_, 0 | WARNING: Rounded down to 0
	;note F_, 0 | WARNING: Rounded down to 0
	octave 1
	note F_, 8
	note F_, 2
	note F_, 6
;Bar 90
	;note G#, 0 | WARNING: Rounded down to 0
	octave 2
	;note C#, 0 | WARNING: Rounded down to 0
	octave 1
	note C#, 8
	note C#, 2
	note C#, 6
;Bar 91
	;note A#, 0 | WARNING: Rounded down to 0
	octave 2
	;note D#, 0 | WARNING: Rounded down to 0
	octave 1
	note D#, 8
	note D#, 2
	note D#, 6
;Bar 92
	octave 2
	;note F_, 0 | WARNING: Rounded down to 0
	;note A#, 0 | WARNING: Rounded down to 0
	octave 1
	note A#, 8
	note A#, 2
	note A#, 6
;Bar 93
	octave 2
	;note C_, 0 | WARNING: Rounded down to 0
	;note F_, 0 | WARNING: Rounded down to 0
	octave 1
	note F_, 8
	note F_, 2
	note F_, 6
;Bar 94
	;note G#, 0 | WARNING: Rounded down to 0
	octave 2
	;note C#, 0 | WARNING: Rounded down to 0
	octave 1
	note C#, 8
	note C#, 2
	note C#, 6
;Bar 95
	;note A#, 0 | WARNING: Rounded down to 0
	octave 2
	;note D#, 0 | WARNING: Rounded down to 0
	octave 1
	note D#, 8
	note D#, 2
	note D#, 6
;Bar 96
	octave 2
	;note F_, 0 | WARNING: Rounded down to 0
	;note A#, 0 | WARNING: Rounded down to 0
	octave 1
	note A#, 8
	note A#, 4
	octave 2
	note C_, 2
	octave 1
	note A#, 2
;Bar 97
	;note B_, 0 | WARNING: Rounded down to 0
	octave 2
	;note E_, 0 | WARNING: Rounded down to 0
	octave 1
	note E_, 8
	note E_, 2
	note E_, 6
;Bar 98
	;note B_, 0 | WARNING: Rounded down to 0
	octave 2
	;note E_, 0 | WARNING: Rounded down to 0
	octave 1
	note E_, 8
	note E_, 2
	note E_, 6
;Bar 99
	octave 2
	;note D_, 0 | WARNING: Rounded down to 0
	;note G_, 0 | WARNING: Rounded down to 0
	octave 1
	note G_, 8
	note G_, 2
	note G_, 6
;Bar 100
	octave 2
	;note D_, 0 | WARNING: Rounded down to 0
	;note G_, 0 | WARNING: Rounded down to 0
	octave 1
	note G_, 8
	note G_, 2
	note G_, 6
;Bar 101
	octave 2
	;note A_, 0 | WARNING: Rounded down to 0
	octave 1
	note A_, 8
	octave 2
	;note E_, 0 | WARNING: Rounded down to 0
	octave 1
	note A_, 2
	note A_, 2
	octave 2
	note A_, 4
;Bar 102
	octave 1
	note A_, 8
	note A_, 2
	note A_, 6
;Bar 103
	octave 2
	;note E_, 0 | WARNING: Rounded down to 0
	;note A_, 0 | WARNING: Rounded down to 0
	octave 1
	note A_, 8
	note A_, 2
	note A_, 6
;Bar 104
	octave 2
	;note E_, 0 | WARNING: Rounded down to 0
	;note A_, 0 | WARNING: Rounded down to 0
	octave 1
	note A_, 8
	octave 2
	note D_, 2
	note C#, 2
	octave 1
	note B_, 2
	note A_, 2
;Bar 105
	;note B_, 0 | WARNING: Rounded down to 0
	octave 2
	;note E_, 0 | WARNING: Rounded down to 0
	octave 1
	note E_, 8
	note E_, 2
	note E_, 6
;Bar 106
	;note B_, 0 | WARNING: Rounded down to 0
	octave 2
	;note E_, 0 | WARNING: Rounded down to 0
	octave 1
	note E_, 8
	note E_, 2
	note E_, 6
;Bar 107
	octave 2
	;note D_, 0 | WARNING: Rounded down to 0
	;note G_, 0 | WARNING: Rounded down to 0
	octave 1
	note G_, 8
	note G_, 2
	note G_, 6
;Bar 108
	octave 2
	;note D_, 0 | WARNING: Rounded down to 0
	;note G_, 0 | WARNING: Rounded down to 0
	octave 1
	note G_, 8
	note G_, 2
	note G_, 6
;Bar 109
	octave 2
	;note A_, 0 | WARNING: Rounded down to 0
	octave 1
	note A_, 8
	octave 2
	;note E_, 0 | WARNING: Rounded down to 0
	octave 1
	note A_, 2
	note A_, 2
	octave 2
	note A_, 4
;Bar 110
	octave 1
	note A_, 8
	note A_, 2
	note A_, 6
;Bar 111
	octave 2
	;note E_, 0 | WARNING: Rounded down to 0
	;note A_, 0 | WARNING: Rounded down to 0
	octave 1
	note A_, 8
	note A_, 2
	note A_, 6
;Bar 112
	octave 2
	;note A_, 0 | WARNING: Rounded down to 0
	octave 1
	note A_, 8
	octave 2
	note C_, 2
	octave 1
	note A#, 2
	note G#, 2
	note G_, 2
;Bar 113
	octave 2
	;note C_, 0 | WARNING: Rounded down to 0
	;note F_, 0 | WARNING: Rounded down to 0
	octave 1
	note F_, 8
	note F_, 2
	note F_, 6
;Bar 114
	;note G#, 0 | WARNING: Rounded down to 0
	octave 2
	;note C#, 0 | WARNING: Rounded down to 0
	octave 1
	note C#, 8
	note C#, 2
	note C#, 6
;Bar 115
	;note A#, 0 | WARNING: Rounded down to 0
	octave 2
	;note D#, 0 | WARNING: Rounded down to 0
	octave 1
	note D#, 8
	note D#, 2
	note D#, 6
;Bar 116
	octave 2
	;note F_, 0 | WARNING: Rounded down to 0
	;note A#, 0 | WARNING: Rounded down to 0
	octave 1
	note A#, 8
	note A#, 2
	note A#, 6
;Bar 117
	octave 2
	;note C_, 0 | WARNING: Rounded down to 0
	;note F_, 0 | WARNING: Rounded down to 0
	octave 1
	note F_, 8
	note F_, 2
	note F_, 6
;Bar 118
	;note G#, 0 | WARNING: Rounded down to 0
	octave 2
	;note C#, 0 | WARNING: Rounded down to 0
	octave 1
	note C#, 8
	note C#, 2
	note C#, 6
;Bar 119
	;note A#, 0 | WARNING: Rounded down to 0
	octave 2
	;note D#, 0 | WARNING: Rounded down to 0
	octave 1
	note D#, 8
	note D#, 2
	note D#, 6
;Bar 120
	octave 2
	;note F_, 0 | WARNING: Rounded down to 0
	;note A#, 0 | WARNING: Rounded down to 0
	octave 1
	note A#, 8
	note A#, 4
	octave 2
	note C_, 2
	octave 1
	note A#, 2
;Bar 121
	octave 2
	;note C_, 0 | WARNING: Rounded down to 0
	;note F_, 0 | WARNING: Rounded down to 0
	octave 1
	note F_, 8
	note F_, 2
	note F_, 6
;Bar 122
	;note G#, 0 | WARNING: Rounded down to 0
	octave 2
	;note C#, 0 | WARNING: Rounded down to 0
	octave 1
	note C#, 8
	note C#, 2
	note C#, 6
;Bar 123
	;note A#, 0 | WARNING: Rounded down to 0
	octave 2
	;note D#, 0 | WARNING: Rounded down to 0
	octave 1
	note D#, 8
	note D#, 2
	note D#, 6
;Bar 124
	octave 2
	;note F_, 0 | WARNING: Rounded down to 0
	;note A#, 0 | WARNING: Rounded down to 0
	octave 1
	note A#, 8
	note A#, 2
	note A#, 6
;Bar 125
	octave 2
	;note C_, 0 | WARNING: Rounded down to 0
	;note F_, 0 | WARNING: Rounded down to 0
	octave 1
	note F_, 8
	note F_, 2
	note F_, 6
;Bar 126
	;note G#, 0 | WARNING: Rounded down to 0
	octave 2
	;note C#, 0 | WARNING: Rounded down to 0
	octave 1
	note C#, 8
	note C#, 2
	note C#, 6
;Bar 127
	;note A#, 0 | WARNING: Rounded down to 0
	octave 2
	;note D#, 0 | WARNING: Rounded down to 0
	octave 1
	note D#, 8
	note D#, 2
	note D#, 6
;Bar 128
	octave 2
	;note F_, 0 | WARNING: Rounded down to 0
	;note A#, 0 | WARNING: Rounded down to 0
	octave 1
	note A#, 8
	note A#, 4
	octave 2
	note C_, 2
	octave 1
	note A#, 2
;Bar 129
	;note B_, 0 | WARNING: Rounded down to 0
	octave 2
	;note E_, 0 | WARNING: Rounded down to 0
	octave 1
	note E_, 8
	note E_, 2
	note E_, 6
;Bar 130
	;note B_, 0 | WARNING: Rounded down to 0
	octave 2
	;note E_, 0 | WARNING: Rounded down to 0
	octave 1
	note E_, 8
	note E_, 2
	note E_, 6
;Bar 131
	octave 2
	;note D_, 0 | WARNING: Rounded down to 0
	;note G_, 0 | WARNING: Rounded down to 0
	octave 1
	note G_, 8
	note G_, 2
	note G_, 6
;Bar 132
	octave 2
	;note D_, 0 | WARNING: Rounded down to 0
	;note G_, 0 | WARNING: Rounded down to 0
	octave 1
	note G_, 8
	note G_, 2
	note G_, 6
;Bar 133
	octave 2
	;note A_, 0 | WARNING: Rounded down to 0
	octave 1
	note A_, 8
	octave 2
	;note E_, 0 | WARNING: Rounded down to 0
	octave 1
	note A_, 2
	note A_, 2
	octave 2
	note A_, 4
;Bar 134
	octave 1
	note A_, 8
	note A_, 2
	note A_, 6
	sound_loop 0, .mainloop

; ============================================================================================================

