;Coverted using MIDI2ASM
;Code by TriteHexagon
;Version 5.2.0 (16-Nov-2022)
;Visit github.com/TriteHexagon/Midi2ASM-Converter for up-to-date versions.

; ============================================================================================================

Music_TogetherForever:
	channel_count 3
	channel 1, Music_TogetherForever_Ch1
	channel 2, Music_TogetherForever_Ch2
	channel 3, Music_TogetherForever_Ch3

Music_TogetherForever_Ch1:
	volume 10, 10
	duty_cycle 1
	note_type 12, 10, 7
	tempo 164
;Bar 1
	rest 6
	octave 4
	volume_envelope 8, 7
	note E_, 2
	note D_, 2
	note E_, 2
	note C#, 2
	octave 3
	note A_, 2
;Bar 2
	note B_, 2
	note G_, 2
	octave 4
	note F#, 2
	note E_, 4
	note C#, 2
	octave 3
	note B_, 2
	note A_, 2
;Bar 3
	rest 2
	note F#, 2
	note A_, 2
	note B_, 8
	note A_, 2
;Bar 4
	note B_, 2
	note G_, 2
	octave 4
	note F#, 2
	note E_, 4
	note C#, 2
	octave 3
	note B_, 4
;Bar 5
	note B_, 4
	note A_, 10
	note A_, 2
;Bar 6
	note B_, 2
	note G_, 2
	octave 4
	note F#, 2
	note E_, 4
	note C#, 2
	octave 3
	note B_, 2
	note A_, 2
;Bar 7
	rest 2
	note B_, 2
	octave 4
	note C#, 2
	note D_, 4
	note D_, 2
	note E_, 2
	note F#, 2
;Bar 8
	note G_, 2
	note F#, 2
	note E_, 2
	note C#, 4
	note D_, 2
	note E_, 4
;Bar 9
	note D_, 4
	rest 16
;Bar 10
	volume_envelope 6, 7
	note D_, 4
	note D_, 4
	rest 4
;Bar 11
	note C#, 1
	octave 3
	note B_, 2
	note B_, 2
	note A_, 1
	note A_, 6
	rest 4
;Bar 12
	note A_, 2
	note F#, 2
	note A_, 2
	note F#, 2
	note A_, 2
	octave 4
	note C#, 4
	note D_, 1
	note C#, 1
;Bar 13
	octave 3
	note B_, 4
	rest 3
	note F#, 1
	note B_, 4
	octave 4
	note C#, 4
;Bar 14
	rest 4
	note D_, 1
	note D_, 2
	note E_, 9
;Bar 15
	note C#, 1
	octave 3
	note B_, 2
	note B_, 2
	note A_, 1
	note A_, 6
	rest 2
	note F#, 2
;Bar 16
	note A_, 2
	note F#, 2
	note A_, 2
	note F#, 2
	note A_, 2
	octave 4
	note C#, 2
	note D_, 3
	note C#, 1
;Bar 17
	octave 3
	note B_, 8
	rest 6
	note A_, 2
;Bar 18
	octave 4
	note C#, 3
	note C#, 2
	note C#, 3
	note C#, 3
	octave 3
	note B_, 3
	note A_, 2
;Bar 19
	octave 4
	note C_, 2
	note C_, 1
	note C_, 3
	note D_, 4
	note E_, 2
	rest 2
	octave 3
	note A_, 2
;Bar 20
	note B_, 2
	note B_, 2
	rest 2
	note A_, 2
	note B_, 2
	note A_, 2
	note G_, 2
	octave 4
	note C_, 2
;Bar 21
	octave 3
	note B_, 2
	note A_, 6
	rest 8
;Bar 22
	octave 4
	note C#, 3
	note C#, 1
	note C#, 2
	note C#, 4
	octave 3
	note B_, 3
	note A_, 2
	note A_, 1
;Bar 23
	octave 4
	note C_, 3
	note C_, 3
	note C_, 2
	note D_, 3
	note E_, 3
	octave 3
	note A_, 2
;Bar 24
	note B_, 2
	note A_, 2
	note G_, 2
	note A_, 2
	note B_, 2
	note A_, 2
	note G_, 2
	octave 4
	note C_, 2
;Bar 25
	octave 3
	note B_, 2
	note A_, 10
	rest 2
	note A_, 2
;Bar 26
	volume_envelope 8, 7
	note B_, 2
	note G_, 2
	octave 4
	note F#, 2
	note E_, 4
	note C#, 2
	octave 3
	note B_, 2
	note A_, 2
;Bar 27
	rest 2
	note F#, 2
	octave 4
	note E_, 2
	note D_, 6
	rest 2
	octave 3
	note A_, 2
;Bar 28
	note B_, 2
	note G_, 2
	octave 4
	note F#, 2
	note E_, 4
	note C#, 2
	octave 3
	note B_, 2
	octave 4
	note C#, 1
	octave 3
	note B_, 1
;Bar 29
	note A_, 14
	note A_, 2
;Bar 30
	note B_, 2
	note G_, 2
	octave 4
	note F#, 2
	note E_, 4
	note C#, 2
	octave 3
	note B_, 2
	note A_, 2
;Bar 31
	rest 2
	note B_, 2
	octave 4
	note C#, 2
	note D_, 4
	note D_, 2
	note E_, 2
	note F#, 2
;Bar 32
	note G_, 2
	note F#, 2
	note E_, 2
	note C#, 4
	note D_, 2
	note E_, 2
	note D_, 2
;Bar 33
	note E_, 2
	note D_, 2
	rest 16
;Bar 34
	volume_envelope 6, 7
	note D_, 4
	note D_, 4
	rest 4
;Bar 35
	note C#, 1
	octave 3
	note B_, 2
	note B_, 2
	note A_, 1
	note A_, 6
	rest 2
	note F#, 2
;Bar 36
	note A_, 2
	note F#, 2
	note A_, 2
	note F#, 2
	note A_, 2
	octave 4
	note C#, 4
	note D_, 1
	note C#, 1
;Bar 37
	octave 3
	note B_, 4
	rest 3
	note F#, 1
	note B_, 4
	octave 4
	note C#, 4
;Bar 38
	rest 4
	note D_, 1
	note D_, 2
	note E_, 7
	note E_, 2
;Bar 39
	note C#, 1
	octave 3
	note B_, 2
	note B_, 2
	note A_, 1
	note A_, 6
	rest 2
	note F#, 2
;Bar 40
	note A_, 2
	note F#, 2
	note A_, 2
	note F#, 2
	note A_, 2
	octave 4
	note C#, 2
	note D_, 3
	note C#, 1
;Bar 41
	octave 3
	note B_, 8
	rest 6
	note A_, 2
;Bar 42
	octave 4
	note C#, 3
	note C#, 2
	note C#, 3
	note C#, 3
	octave 3
	note B_, 3
	note A_, 2
;Bar 43
	octave 4
	note C_, 2
	note C_, 1
	note C_, 3
	note D_, 4
	note E_, 2
	rest 2
	octave 3
	note A_, 2
;Bar 44
	note B_, 2
	note B_, 2
	rest 2
	note A_, 2
	note B_, 2
	note A_, 2
	note G_, 2
	octave 4
	note C_, 2
;Bar 45
	octave 3
	note B_, 2
	note A_, 6
	rest 8
;Bar 46
	octave 4
	note C#, 3
	note C#, 1
	note C#, 2
	note C#, 4
	octave 3
	note B_, 3
	note A_, 2
	note A_, 1
;Bar 47
	octave 4
	note C_, 3
	note C_, 3
	note C_, 2
	note D_, 3
	note E_, 3
	octave 3
	note A_, 2
;Bar 48
	note B_, 2
	note A_, 2
	note G_, 2
	note A_, 2
	note B_, 2
	note A_, 2
	note G_, 2
	octave 4
	note C_, 2
;Bar 49
	octave 3
	note B_, 2
	note A_, 10
	rest 2
	note A_, 2
;Bar 50
	volume_envelope 8, 7
	note B_, 2
	note G_, 2
	octave 4
	note F#, 2
	note E_, 4
	note C#, 2
	octave 3
	note B_, 2
	note A_, 2
;Bar 51
	rest 2
	note F#, 2
	octave 4
	note E_, 2
	note D_, 6
	rest 2
	octave 3
	note A_, 2
;Bar 52
	note B_, 2
	note G_, 2
	octave 4
	note F#, 2
	note E_, 4
	note C#, 2
	octave 3
	note B_, 2
	octave 4
	note C#, 1
	octave 3
	note B_, 1
;Bar 53
	note A_, 14
	note A_, 2
;Bar 54
	note B_, 2
	note G_, 2
	octave 4
	note F#, 2
	note E_, 4
	note C#, 2
	octave 3
	note B_, 2
	note A_, 2
;Bar 55
	rest 2
	note B_, 2
	octave 4
	note C#, 2
	note D_, 4
	note D_, 2
	note E_, 2
	note F#, 2
;Bar 56
	note G_, 2
	note F#, 2
	note E_, 2
	note C#, 4
	note D_, 2
	note E_, 2
	note D_, 2
;Bar 57
	note E_, 2
	note D_, 2
	rest 10
	octave 3
	note A_, 2
;Bar 58
	note B_, 2
	note G_, 2
	octave 4
	note F#, 2
	note E_, 4
	note C#, 2
	octave 3
	note B_, 2
	note A_, 2
;Bar 59
	rest 2
	note F#, 2
	octave 4
	note E_, 2
	note D_, 6
	rest 2
	octave 3
	note A_, 2
;Bar 60
	note B_, 2
	note G_, 2
	octave 4
	note F#, 2
	note E_, 4
	note C#, 2
	octave 3
	note B_, 2
	octave 4
	note C#, 1
	octave 3
	note B_, 1
;Bar 61
	note A_, 14
	note A_, 2
;Bar 62
	note B_, 2
	note G_, 2
	octave 4
	note F#, 2
	note E_, 4
	note C#, 2
	octave 3
	note B_, 2
	note A_, 2
;Bar 63
	rest 2
	note B_, 2
	octave 4
	note C#, 2
	note D_, 4
	note D_, 2
	note E_, 2
	note F#, 2
;Bar 64
	note G_, 2
	note F#, 2
	note E_, 2
	note G_, 4
	note F#, 2
	note E_, 2
	note D_, 2
;Bar 65
	note E_, 2
	note D_, 10
	rest 2
	octave 3
	note D_, 2
;Bar 66
	note E_, 2
	note C_, 2
	note B_, 2
	note A_, 4
	note F#, 2
	note E_, 2
	note D_, 2
;Bar 67
	rest 2
	octave 2
	note B_, 2
	octave 3
	note D_, 2
	note E_, 8
	note D_, 2
;Bar 68
	note E_, 2
	note C_, 2
	note B_, 2
	note A_, 4
	note F#, 2
	note E_, 4
;Bar 69
	note E_, 4
	note D_, 10
	note D_, 2
;Bar 70
	note E_, 2
	note C_, 2
	note B_, 2
	note A_, 4
	note F#, 2
	note E_, 2
	note D_, 2
;Bar 71
	rest 2
	note E_, 2
	note F#, 2
	note G_, 4
	note G_, 2
	note A_, 2
	note B_, 2
;Bar 72
	octave 4
	note C_, 2
	octave 3
	note B_, 2
	note A_, 2
	octave 4
	note C_, 4
	octave 3
	note B_, 2
	note A_, 2
	note G_, 2
;Bar 73
	note G_, 2
	note A_, 2
	note B_, 2
	note A_, 4
	note A_, 2
	note B_, 1
	octave 4
	note C#, 1
	octave 3
	note A_, 2
;Bar 74
	octave 4
	volume_envelope 6, 7
	note C#, 3
	note C#, 2
	note C#, 3
	note C#, 3
	octave 3
	note B_, 3
	note A_, 2
;Bar 75
	octave 4
	note C_, 2
	note C_, 1
	note C_, 3
	note D_, 4
	note E_, 2
	rest 2
	octave 3
	note A_, 2
;Bar 76
	note B_, 2
	note B_, 2
	rest 2
	note A_, 2
	note B_, 2
	note A_, 2
	note G_, 2
	octave 4
	note C_, 2
;Bar 77
	octave 3
	note B_, 2
	note A_, 6
	rest 8
;Bar 78
	octave 4
	note C#, 3
	note C#, 1
	note C#, 2
	note C#, 4
	octave 3
	note B_, 3
	note A_, 2
	note A_, 1
;Bar 79
	octave 4
	note C_, 3
	note C_, 3
	note C_, 2
	note D_, 3
	note E_, 3
	octave 3
	note A_, 2
;Bar 80
	note B_, 2
	note A_, 2
	note G_, 2
	note A_, 2
	note B_, 2
	note A_, 2
	note G_, 2
	octave 4
	note C_, 2
;Bar 81
	octave 3
	note B_, 2
	note A_, 10
	rest 2
	note A_, 2
;Bar 82
	volume_envelope 8, 7
	note B_, 2
	note G_, 2
	octave 4
	note F#, 2
	note E_, 4
	note C#, 2
	octave 3
	note B_, 2
	note A_, 2
;Bar 83
	rest 2
	note F#, 2
	octave 4
	note E_, 2
	note D_, 6
	rest 2
	octave 3
	note A_, 2
;Bar 84
	note B_, 2
	note G_, 2
	octave 4
	note F#, 2
	note E_, 4
	note C#, 2
	octave 3
	note B_, 2
	octave 4
	note C#, 1
	octave 3
	note B_, 1
;Bar 85
	note A_, 14
	note A_, 2
;Bar 86
	note B_, 2
	note G_, 2
	octave 4
	note F#, 2
	note E_, 4
	note C#, 2
	octave 3
	note B_, 2
	note A_, 2
;Bar 87
	rest 2
	note B_, 2
	octave 4
	note C#, 2
	note D_, 4
	note D_, 2
	note E_, 2
	note F#, 2
;Bar 88
	note G_, 2
	note F#, 2
	note E_, 2
	note C#, 4
	note D_, 2
	note E_, 2
	note D_, 2
;Bar 89
	note E_, 2
	note D_, 2
	rest 10
	octave 3
	note A_, 2
;Bar 90
	note B_, 2
	note G_, 2
	octave 4
	note F#, 2
	note E_, 4
	note C#, 2
	octave 3
	note B_, 2
	note A_, 2
;Bar 91
	rest 2
	note F#, 2
	octave 4
	note E_, 2
	note D_, 6
	rest 2
	octave 3
	note A_, 2
;Bar 92
	note B_, 2
	note G_, 2
	octave 4
	note F#, 2
	note E_, 4
	note C#, 2
	octave 3
	note B_, 2
	octave 4
	note C#, 1
	octave 3
	note B_, 1
;Bar 93
	note A_, 14
	note A_, 2
;Bar 94
	note B_, 2
	note G_, 2
	octave 4
	note F#, 2
	note E_, 4
	note C#, 2
	octave 3
	note B_, 2
	note A_, 2
;Bar 95
	rest 2
	note B_, 2
	octave 4
	note C#, 2
	note D_, 4
	note D_, 2
	note E_, 2
	note F#, 2
;Bar 96
	note G_, 2
	note F#, 2
	note E_, 2
	note C#, 4
	note D_, 2
	note E_, 2
	note D_, 2
;Bar 97
	note E_, 2
	note D_, 2
	rest 10
	octave 3
	note A_, 2
	sound_ret

; ============================================================================================================

Music_TogetherForever_Ch2:
	duty_cycle 2
	note_type 12, 10, 7
;Bar 1
	octave 3
	note A_, 1
	note A_, 1
	note A_, 1
	note A_, 1
	note A_, 1
	rest 1
	note A_, 1
	note A_, 1
	note A_, 1
	note A_, 1
	note A_, 1
	rest 1
	note A_, 1
	note A_, 1
	note A_, 1
	note A_, 1
;Bar 2
	octave 2
	;note B_, 0 | WARNING: Rounded down to 0
	octave 3
	;note D_, 0 | WARNING: Rounded down to 0
	note G_, 6
	;note C#, 0 | WARNING: Rounded down to 0
	;note E_, 0 | WARNING: Rounded down to 0
	note A_, 10
;Bar 3
	;note C#, 0 | WARNING: Rounded down to 0
	;note F#, 0 | WARNING: Rounded down to 0
	note A_, 6
	;note D_, 0 | WARNING: Rounded down to 0
	;note F#, 0 | WARNING: Rounded down to 0
	note B_, 10
;Bar 4
	;note D_, 0 | WARNING: Rounded down to 0
	;note G_, 0 | WARNING: Rounded down to 0
	note B_, 4
	;note B_, 0 | WARNING: Rounded down to 0
	octave 4
	;note D_, 0 | WARNING: Rounded down to 0
	note G_, 2
	octave 3
	;note A_, 0 | WARNING: Rounded down to 0
	octave 4
	;note C#, 0 | WARNING: Rounded down to 0
	note E_, 10
;Bar 5
	octave 3
	;note F#, 0 | WARNING: Rounded down to 0
	;note A_, 0 | WARNING: Rounded down to 0
	octave 4
	note C#, 4
	octave 3
	;note F#, 0 | WARNING: Rounded down to 0
	;note B_, 0 | WARNING: Rounded down to 0
	octave 4
	note D_, 12
;Bar 6
	octave 2
	;note B_, 0 | WARNING: Rounded down to 0
	octave 3
	;note D_, 0 | WARNING: Rounded down to 0
	note G_, 6
	;note C#, 0 | WARNING: Rounded down to 0
	;note E_, 0 | WARNING: Rounded down to 0
	note A_, 10
;Bar 7
	;note C#, 0 | WARNING: Rounded down to 0
	;note F#, 0 | WARNING: Rounded down to 0
	note A_, 6
	;note D_, 0 | WARNING: Rounded down to 0
	;note F#, 0 | WARNING: Rounded down to 0
	note B_, 10
;Bar 8
	;note B_, 0 | WARNING: Rounded down to 0
	octave 4
	;note D_, 0 | WARNING: Rounded down to 0
	note G_, 6
	octave 3
	;note A_, 0 | WARNING: Rounded down to 0
	octave 4
	;note C#, 0 | WARNING: Rounded down to 0
	note E_, 10
;Bar 9
	octave 3
	;note E_, 0 | WARNING: Rounded down to 0
	;note A_, 0 | WARNING: Rounded down to 0
	octave 4
	note C#, 4
	octave 3
	;note F#, 0 | WARNING: Rounded down to 0
	;note A_, 0 | WARNING: Rounded down to 0
	octave 4
	note D_, 12
;Bar 10
	octave 2
	volume_envelope 9, 7
	;note B_, 0 | WARNING: Rounded down to 0
	octave 3
	;note D_, 0 | WARNING: Rounded down to 0
	note F#, 16
;Bar 11
	octave 2
	;note A_, 0 | WARNING: Rounded down to 0
	octave 3
	;note C#, 0 | WARNING: Rounded down to 0
	note E_, 16
;Bar 12
	octave 2
	;note A_, 0 | WARNING: Rounded down to 0
	octave 3
	;note C#, 0 | WARNING: Rounded down to 0
	note F#, 16
;Bar 13
	octave 2
	;note B_, 0 | WARNING: Rounded down to 0
	octave 3
	;note D_, 0 | WARNING: Rounded down to 0
	note F#, 16
;Bar 14
	octave 2
	;note B_, 0 | WARNING: Rounded down to 0
	octave 3
	;note D_, 0 | WARNING: Rounded down to 0
	note F#, 16
;Bar 15
	octave 2
	;note A_, 0 | WARNING: Rounded down to 0
	octave 3
	;note C#, 0 | WARNING: Rounded down to 0
	note E_, 16
;Bar 16
	octave 2
	;note A_, 0 | WARNING: Rounded down to 0
	octave 3
	;note C#, 0 | WARNING: Rounded down to 0
	note F#, 16
;Bar 17
	octave 2
	;note B_, 0 | WARNING: Rounded down to 0
	octave 3
	;note D_, 0 | WARNING: Rounded down to 0
	note F#, 16
;Bar 18
	octave 2
	;note A_, 0 | WARNING: Rounded down to 0
	octave 3
	;note C#, 0 | WARNING: Rounded down to 0
	;note D_, 0 | WARNING: Rounded down to 0
	note F#, 16
;Bar 19
	;note F_, 0 | WARNING: Rounded down to 0
	note A_, 16
;Bar 20
	;note C_, 0 | WARNING: Rounded down to 0
	;note E_, 0 | WARNING: Rounded down to 0
	note G_, 16
;Bar 21
	octave 2
	;note B_, 0 | WARNING: Rounded down to 0
	octave 3
	;note D_, 0 | WARNING: Rounded down to 0
	note G_, 6
	octave 2
	;note B_, 0 | WARNING: Rounded down to 0
	octave 3
	;note D_, 0 | WARNING: Rounded down to 0
	note G_, 6
	octave 2
	;note A_, 0 | WARNING: Rounded down to 0
	octave 3
	;note C#, 0 | WARNING: Rounded down to 0
	note E_, 4
;Bar 22
	octave 2
	;note A_, 0 | WARNING: Rounded down to 0
	octave 3
	;note C#, 0 | WARNING: Rounded down to 0
	;note D_, 0 | WARNING: Rounded down to 0
	note F#, 16
;Bar 23
	;note F_, 0 | WARNING: Rounded down to 0
	note A_, 16
;Bar 24
	;note C_, 0 | WARNING: Rounded down to 0
	;note E_, 0 | WARNING: Rounded down to 0
	note G_, 16
;Bar 25
	octave 2
	;note B_, 0 | WARNING: Rounded down to 0
	octave 3
	;note D_, 0 | WARNING: Rounded down to 0
	note G_, 4
	octave 2
	;note A_, 0 | WARNING: Rounded down to 0
	octave 3
	;note C#, 0 | WARNING: Rounded down to 0
	note E_, 10
	rest 2
;Bar 26
	octave 2
	volume_envelope 10, 7
	;note B_, 0 | WARNING: Rounded down to 0
	octave 3
	;note D_, 0 | WARNING: Rounded down to 0
	note G_, 6
	;note C#, 0 | WARNING: Rounded down to 0
	;note E_, 0 | WARNING: Rounded down to 0
	note A_, 10
;Bar 27
	;note C#, 0 | WARNING: Rounded down to 0
	;note F#, 0 | WARNING: Rounded down to 0
	note A_, 6
	;note D_, 0 | WARNING: Rounded down to 0
	;note F#, 0 | WARNING: Rounded down to 0
	note B_, 10
;Bar 28
	;note D_, 0 | WARNING: Rounded down to 0
	;note G_, 0 | WARNING: Rounded down to 0
	note B_, 4
	;note B_, 0 | WARNING: Rounded down to 0
	octave 4
	;note D_, 0 | WARNING: Rounded down to 0
	note G_, 2
	octave 3
	;note A_, 0 | WARNING: Rounded down to 0
	octave 4
	;note C#, 0 | WARNING: Rounded down to 0
	note E_, 10
;Bar 29
	octave 3
	;note F#, 0 | WARNING: Rounded down to 0
	;note A_, 0 | WARNING: Rounded down to 0
	octave 4
	note C#, 4
	octave 3
	;note F#, 0 | WARNING: Rounded down to 0
	;note B_, 0 | WARNING: Rounded down to 0
	octave 4
	note D_, 12
;Bar 30
	octave 2
	;note B_, 0 | WARNING: Rounded down to 0
	octave 3
	;note D_, 0 | WARNING: Rounded down to 0
	note G_, 6
	;note C#, 0 | WARNING: Rounded down to 0
	;note E_, 0 | WARNING: Rounded down to 0
	note A_, 10
;Bar 31
	;note C#, 0 | WARNING: Rounded down to 0
	;note F#, 0 | WARNING: Rounded down to 0
	note A_, 6
	;note D_, 0 | WARNING: Rounded down to 0
	;note F#, 0 | WARNING: Rounded down to 0
	note B_, 10
;Bar 32
	;note B_, 0 | WARNING: Rounded down to 0
	octave 4
	;note D_, 0 | WARNING: Rounded down to 0
	note G_, 6
	octave 3
	;note A_, 0 | WARNING: Rounded down to 0
	octave 4
	;note C#, 0 | WARNING: Rounded down to 0
	note E_, 10
;Bar 33
	octave 3
	;note E_, 0 | WARNING: Rounded down to 0
	;note A_, 0 | WARNING: Rounded down to 0
	octave 4
	note C#, 4
	octave 3
	;note F#, 0 | WARNING: Rounded down to 0
	;note A_, 0 | WARNING: Rounded down to 0
	octave 4
	note D_, 12
;Bar 34
	octave 2
	volume_envelope 9, 7
	;note B_, 0 | WARNING: Rounded down to 0
	octave 3
	;note D_, 0 | WARNING: Rounded down to 0
	note F#, 16
;Bar 35
	octave 2
	;note A_, 0 | WARNING: Rounded down to 0
	octave 3
	;note C#, 0 | WARNING: Rounded down to 0
	note E_, 16
;Bar 36
	octave 2
	;note A_, 0 | WARNING: Rounded down to 0
	octave 3
	;note C#, 0 | WARNING: Rounded down to 0
	note F#, 16
;Bar 37
	octave 2
	;note B_, 0 | WARNING: Rounded down to 0
	octave 3
	;note D_, 0 | WARNING: Rounded down to 0
	note F#, 16
;Bar 38
	octave 2
	;note B_, 0 | WARNING: Rounded down to 0
	octave 3
	;note D_, 0 | WARNING: Rounded down to 0
	note F#, 16
;Bar 39
	octave 2
	;note A_, 0 | WARNING: Rounded down to 0
	octave 3
	;note C#, 0 | WARNING: Rounded down to 0
	note E_, 16
;Bar 40
	octave 2
	;note A_, 0 | WARNING: Rounded down to 0
	octave 3
	;note C#, 0 | WARNING: Rounded down to 0
	note F#, 16
;Bar 41
	octave 2
	;note B_, 0 | WARNING: Rounded down to 0
	octave 3
	;note D_, 0 | WARNING: Rounded down to 0
	note F#, 16
;Bar 42
	octave 2
	;note A_, 0 | WARNING: Rounded down to 0
	octave 3
	;note C#, 0 | WARNING: Rounded down to 0
	;note D_, 0 | WARNING: Rounded down to 0
	note F#, 16
;Bar 43
	;note F_, 0 | WARNING: Rounded down to 0
	note A_, 16
;Bar 44
	;note C_, 0 | WARNING: Rounded down to 0
	;note E_, 0 | WARNING: Rounded down to 0
	note G_, 16
;Bar 45
	octave 2
	;note B_, 0 | WARNING: Rounded down to 0
	octave 3
	;note D_, 0 | WARNING: Rounded down to 0
	note G_, 6
	octave 2
	;note B_, 0 | WARNING: Rounded down to 0
	octave 3
	;note D_, 0 | WARNING: Rounded down to 0
	note G_, 6
	octave 2
	;note A_, 0 | WARNING: Rounded down to 0
	octave 3
	;note C#, 0 | WARNING: Rounded down to 0
	note E_, 4
;Bar 46
	octave 2
	;note A_, 0 | WARNING: Rounded down to 0
	octave 3
	;note C#, 0 | WARNING: Rounded down to 0
	;note D_, 0 | WARNING: Rounded down to 0
	note F#, 16
;Bar 47
	;note F_, 0 | WARNING: Rounded down to 0
	note A_, 16
;Bar 48
	;note C_, 0 | WARNING: Rounded down to 0
	;note E_, 0 | WARNING: Rounded down to 0
	note G_, 16
;Bar 49
	octave 2
	;note B_, 0 | WARNING: Rounded down to 0
	octave 3
	;note D_, 0 | WARNING: Rounded down to 0
	note G_, 4
	octave 2
	;note A_, 0 | WARNING: Rounded down to 0
	octave 3
	;note C#, 0 | WARNING: Rounded down to 0
	note E_, 10
	rest 2
;Bar 50
	octave 2
	volume_envelope 10, 7
	;note B_, 0 | WARNING: Rounded down to 0
	octave 3
	;note D_, 0 | WARNING: Rounded down to 0
	note G_, 6
	;note C#, 0 | WARNING: Rounded down to 0
	;note E_, 0 | WARNING: Rounded down to 0
	note A_, 10
;Bar 51
	;note C#, 0 | WARNING: Rounded down to 0
	;note F#, 0 | WARNING: Rounded down to 0
	note A_, 6
	;note D_, 0 | WARNING: Rounded down to 0
	;note F#, 0 | WARNING: Rounded down to 0
	note B_, 10
;Bar 52
	;note D_, 0 | WARNING: Rounded down to 0
	;note G_, 0 | WARNING: Rounded down to 0
	note B_, 4
	;note B_, 0 | WARNING: Rounded down to 0
	octave 4
	;note D_, 0 | WARNING: Rounded down to 0
	note G_, 2
	octave 3
	;note A_, 0 | WARNING: Rounded down to 0
	octave 4
	;note C#, 0 | WARNING: Rounded down to 0
	note E_, 10
;Bar 53
	octave 3
	;note F#, 0 | WARNING: Rounded down to 0
	;note A_, 0 | WARNING: Rounded down to 0
	octave 4
	note C#, 4
	octave 3
	;note F#, 0 | WARNING: Rounded down to 0
	;note B_, 0 | WARNING: Rounded down to 0
	octave 4
	note D_, 12
;Bar 54
	octave 2
	;note B_, 0 | WARNING: Rounded down to 0
	octave 3
	;note D_, 0 | WARNING: Rounded down to 0
	note G_, 6
	;note C#, 0 | WARNING: Rounded down to 0
	;note E_, 0 | WARNING: Rounded down to 0
	note A_, 10
;Bar 55
	;note C#, 0 | WARNING: Rounded down to 0
	;note F#, 0 | WARNING: Rounded down to 0
	note A_, 6
	;note D_, 0 | WARNING: Rounded down to 0
	;note F#, 0 | WARNING: Rounded down to 0
	note B_, 10
;Bar 56
	;note B_, 0 | WARNING: Rounded down to 0
	octave 4
	;note D_, 0 | WARNING: Rounded down to 0
	note G_, 6
	octave 3
	;note A_, 0 | WARNING: Rounded down to 0
	octave 4
	;note C#, 0 | WARNING: Rounded down to 0
	note E_, 10
;Bar 57
	octave 3
	;note E_, 0 | WARNING: Rounded down to 0
	;note A_, 0 | WARNING: Rounded down to 0
	octave 4
	note C#, 4
	octave 3
	;note F#, 0 | WARNING: Rounded down to 0
	;note A_, 0 | WARNING: Rounded down to 0
	octave 4
	note D_, 12
;Bar 58
	octave 2
	;note B_, 0 | WARNING: Rounded down to 0
	octave 3
	;note D_, 0 | WARNING: Rounded down to 0
	note G_, 6
	;note C#, 0 | WARNING: Rounded down to 0
	;note E_, 0 | WARNING: Rounded down to 0
	note A_, 10
;Bar 59
	;note C#, 0 | WARNING: Rounded down to 0
	;note F#, 0 | WARNING: Rounded down to 0
	note A_, 6
	;note D_, 0 | WARNING: Rounded down to 0
	;note F#, 0 | WARNING: Rounded down to 0
	note B_, 10
;Bar 60
	;note D_, 0 | WARNING: Rounded down to 0
	;note G_, 0 | WARNING: Rounded down to 0
	note B_, 4
	;note B_, 0 | WARNING: Rounded down to 0
	octave 4
	;note D_, 0 | WARNING: Rounded down to 0
	note G_, 2
	octave 3
	;note A_, 0 | WARNING: Rounded down to 0
	octave 4
	;note C#, 0 | WARNING: Rounded down to 0
	note E_, 10
;Bar 61
	octave 3
	;note F#, 0 | WARNING: Rounded down to 0
	;note A_, 0 | WARNING: Rounded down to 0
	octave 4
	note C#, 4
	octave 3
	;note F#, 0 | WARNING: Rounded down to 0
	;note B_, 0 | WARNING: Rounded down to 0
	octave 4
	note D_, 12
;Bar 62
	octave 2
	;note B_, 0 | WARNING: Rounded down to 0
	octave 3
	;note D_, 0 | WARNING: Rounded down to 0
	note G_, 6
	;note C#, 0 | WARNING: Rounded down to 0
	;note E_, 0 | WARNING: Rounded down to 0
	note A_, 10
;Bar 63
	;note C#, 0 | WARNING: Rounded down to 0
	;note F#, 0 | WARNING: Rounded down to 0
	note A_, 6
	;note D_, 0 | WARNING: Rounded down to 0
	;note F#, 0 | WARNING: Rounded down to 0
	note B_, 10
;Bar 64
	;note A_, 0 | WARNING: Rounded down to 0
	octave 4
	note C_, 6
	octave 3
	;note A_, 0 | WARNING: Rounded down to 0
	octave 4
	note C_, 6
	rest 4
;Bar 65
	octave 3
	;note F#, 0 | WARNING: Rounded down to 0
	note B_, 14
	rest 2
;Bar 66
	;note C_, 0 | WARNING: Rounded down to 0
	;note E_, 0 | WARNING: Rounded down to 0
	note G_, 6
	octave 2
	;note A_, 0 | WARNING: Rounded down to 0
	octave 3
	;note D_, 0 | WARNING: Rounded down to 0
	note F#, 10
;Bar 67
	octave 2
	;note B_, 0 | WARNING: Rounded down to 0
	octave 3
	;note D_, 0 | WARNING: Rounded down to 0
	note F#, 6
	octave 2
	;note B_, 0 | WARNING: Rounded down to 0
	octave 3
	;note E_, 0 | WARNING: Rounded down to 0
	note G_, 10
;Bar 68
	octave 2
	;note B_, 0 | WARNING: Rounded down to 0
	octave 3
	;note D_, 0 | WARNING: Rounded down to 0
	note G_, 6
	octave 2
	;note A_, 0 | WARNING: Rounded down to 0
	octave 3
	;note D_, 0 | WARNING: Rounded down to 0
	note F#, 10
;Bar 69
	octave 2
	;note B_, 0 | WARNING: Rounded down to 0
	octave 3
	;note D_, 0 | WARNING: Rounded down to 0
	note F#, 6
	octave 2
	;note B_, 0 | WARNING: Rounded down to 0
	octave 3
	;note E_, 0 | WARNING: Rounded down to 0
	note G_, 10
;Bar 70
	;note C_, 0 | WARNING: Rounded down to 0
	;note E_, 0 | WARNING: Rounded down to 0
	note G_, 6
	octave 2
	;note A_, 0 | WARNING: Rounded down to 0
	octave 3
	;note D_, 0 | WARNING: Rounded down to 0
	note F#, 10
;Bar 71
	octave 2
	;note B_, 0 | WARNING: Rounded down to 0
	octave 3
	;note D_, 0 | WARNING: Rounded down to 0
	note F#, 6
	octave 2
	;note B_, 0 | WARNING: Rounded down to 0
	octave 3
	;note E_, 0 | WARNING: Rounded down to 0
	note G_, 10
;Bar 72
	;note C_, 0 | WARNING: Rounded down to 0
	;note E_, 0 | WARNING: Rounded down to 0
	note G_, 16
;Bar 73
	octave 2
	;note B_, 0 | WARNING: Rounded down to 0
	octave 3
	note D_, 6
	;note C#, 0 | WARNING: Rounded down to 0
	note E_, 8
	rest 2
;Bar 74
	octave 2
	volume_envelope 9, 7
	;note A_, 0 | WARNING: Rounded down to 0
	octave 3
	;note C#, 0 | WARNING: Rounded down to 0
	;note D_, 0 | WARNING: Rounded down to 0
	note F#, 16
;Bar 75
	;note F_, 0 | WARNING: Rounded down to 0
	note A_, 16
;Bar 76
	;note C_, 0 | WARNING: Rounded down to 0
	;note E_, 0 | WARNING: Rounded down to 0
	note G_, 16
;Bar 77
	octave 2
	;note B_, 0 | WARNING: Rounded down to 0
	octave 3
	;note D_, 0 | WARNING: Rounded down to 0
	note G_, 6
	octave 2
	;note B_, 0 | WARNING: Rounded down to 0
	octave 3
	;note D_, 0 | WARNING: Rounded down to 0
	note G_, 6
	octave 2
	;note A_, 0 | WARNING: Rounded down to 0
	octave 3
	;note C#, 0 | WARNING: Rounded down to 0
	note E_, 4
;Bar 78
	octave 2
	;note A_, 0 | WARNING: Rounded down to 0
	octave 3
	;note C#, 0 | WARNING: Rounded down to 0
	;note D_, 0 | WARNING: Rounded down to 0
	note F#, 16
;Bar 79
	;note F_, 0 | WARNING: Rounded down to 0
	note A_, 16
;Bar 80
	;note C_, 0 | WARNING: Rounded down to 0
	;note E_, 0 | WARNING: Rounded down to 0
	note G_, 16
;Bar 81
	octave 2
	;note B_, 0 | WARNING: Rounded down to 0
	octave 3
	;note D_, 0 | WARNING: Rounded down to 0
	note G_, 4
	octave 2
	;note A_, 0 | WARNING: Rounded down to 0
	octave 3
	;note C#, 0 | WARNING: Rounded down to 0
	note E_, 10
	rest 2
;Bar 82
	octave 2
	volume_envelope 10, 7
	;note B_, 0 | WARNING: Rounded down to 0
	octave 3
	;note D_, 0 | WARNING: Rounded down to 0
	note G_, 6
	;note C#, 0 | WARNING: Rounded down to 0
	;note E_, 0 | WARNING: Rounded down to 0
	note A_, 10
;Bar 83
	;note C#, 0 | WARNING: Rounded down to 0
	;note F#, 0 | WARNING: Rounded down to 0
	note A_, 6
	;note D_, 0 | WARNING: Rounded down to 0
	;note F#, 0 | WARNING: Rounded down to 0
	note B_, 10
;Bar 84
	;note D_, 0 | WARNING: Rounded down to 0
	;note G_, 0 | WARNING: Rounded down to 0
	note B_, 4
	;note B_, 0 | WARNING: Rounded down to 0
	octave 4
	;note D_, 0 | WARNING: Rounded down to 0
	note G_, 2
	octave 3
	;note A_, 0 | WARNING: Rounded down to 0
	octave 4
	;note C#, 0 | WARNING: Rounded down to 0
	note E_, 10
;Bar 85
	octave 3
	;note F#, 0 | WARNING: Rounded down to 0
	;note A_, 0 | WARNING: Rounded down to 0
	octave 4
	note C#, 4
	octave 3
	;note F#, 0 | WARNING: Rounded down to 0
	;note B_, 0 | WARNING: Rounded down to 0
	octave 4
	note D_, 12
;Bar 86
	octave 2
	;note B_, 0 | WARNING: Rounded down to 0
	octave 3
	;note D_, 0 | WARNING: Rounded down to 0
	note G_, 6
	;note C#, 0 | WARNING: Rounded down to 0
	;note E_, 0 | WARNING: Rounded down to 0
	note A_, 10
;Bar 87
	;note C#, 0 | WARNING: Rounded down to 0
	;note F#, 0 | WARNING: Rounded down to 0
	note A_, 6
	;note D_, 0 | WARNING: Rounded down to 0
	;note F#, 0 | WARNING: Rounded down to 0
	note B_, 10
;Bar 88
	;note B_, 0 | WARNING: Rounded down to 0
	octave 4
	;note D_, 0 | WARNING: Rounded down to 0
	note G_, 6
	octave 3
	;note A_, 0 | WARNING: Rounded down to 0
	octave 4
	;note C#, 0 | WARNING: Rounded down to 0
	note E_, 10
;Bar 89
	octave 3
	;note E_, 0 | WARNING: Rounded down to 0
	;note A_, 0 | WARNING: Rounded down to 0
	octave 4
	note C#, 4
	octave 3
	;note F#, 0 | WARNING: Rounded down to 0
	;note A_, 0 | WARNING: Rounded down to 0
	octave 4
	note D_, 12
;Bar 90
	octave 2
	;note B_, 0 | WARNING: Rounded down to 0
	octave 3
	;note D_, 0 | WARNING: Rounded down to 0
	note G_, 6
	;note C#, 0 | WARNING: Rounded down to 0
	;note E_, 0 | WARNING: Rounded down to 0
	note A_, 10
;Bar 91
	;note C#, 0 | WARNING: Rounded down to 0
	;note F#, 0 | WARNING: Rounded down to 0
	note A_, 6
	;note D_, 0 | WARNING: Rounded down to 0
	;note F#, 0 | WARNING: Rounded down to 0
	note B_, 10
;Bar 92
	;note D_, 0 | WARNING: Rounded down to 0
	;note G_, 0 | WARNING: Rounded down to 0
	note B_, 4
	;note B_, 0 | WARNING: Rounded down to 0
	octave 4
	;note D_, 0 | WARNING: Rounded down to 0
	note G_, 2
	octave 3
	;note A_, 0 | WARNING: Rounded down to 0
	octave 4
	;note C#, 0 | WARNING: Rounded down to 0
	note E_, 10
;Bar 93
	octave 3
	;note F#, 0 | WARNING: Rounded down to 0
	;note A_, 0 | WARNING: Rounded down to 0
	octave 4
	note C#, 4
	octave 3
	;note F#, 0 | WARNING: Rounded down to 0
	;note B_, 0 | WARNING: Rounded down to 0
	octave 4
	note D_, 12
;Bar 94
	octave 2
	;note B_, 0 | WARNING: Rounded down to 0
	octave 3
	;note D_, 0 | WARNING: Rounded down to 0
	note G_, 6
	;note C#, 0 | WARNING: Rounded down to 0
	;note E_, 0 | WARNING: Rounded down to 0
	note A_, 10
;Bar 95
	;note C#, 0 | WARNING: Rounded down to 0
	;note F#, 0 | WARNING: Rounded down to 0
	note A_, 6
	;note D_, 0 | WARNING: Rounded down to 0
	;note F#, 0 | WARNING: Rounded down to 0
	note B_, 10
;Bar 96
	;note B_, 0 | WARNING: Rounded down to 0
	octave 4
	;note D_, 0 | WARNING: Rounded down to 0
	note G_, 6
	octave 3
	;note A_, 0 | WARNING: Rounded down to 0
	octave 4
	;note C#, 0 | WARNING: Rounded down to 0
	note E_, 10
;Bar 97
	octave 3
	;note E_, 0 | WARNING: Rounded down to 0
	;note A_, 0 | WARNING: Rounded down to 0
	octave 4
	note C#, 4
	octave 3
	;note F#, 0 | WARNING: Rounded down to 0
	;note A_, 0 | WARNING: Rounded down to 0
	octave 4
	note D_, 12
	sound_ret

; ============================================================================================================

Music_TogetherForever_Ch3:
	note_type 12, 1, 0
;Bar 1
	volume_envelope 2, 0
	rest 16
;Bar 2
	octave 2
	note G_, 2
	octave 3
	note G_, 2
	octave 2
	note G_, 2
	octave 3
	note G_, 2
	octave 2
	note A_, 2
	octave 3
	note G_, 2
	octave 2
	note A_, 2
	octave 3
	note G_, 2
;Bar 3
	octave 2
	note F#, 2
	octave 3
	note F#, 2
	octave 2
	note F#, 2
	octave 3
	note F#, 2
	octave 2
	note B_, 2
	octave 3
	note B_, 2
	octave 2
	note B_, 2
	octave 3
	note B_, 2
;Bar 4
	octave 2
	note G_, 2
	octave 3
	note G_, 2
	octave 2
	note G_, 2
	octave 3
	note G_, 2
	octave 2
	note A_, 2
	octave 3
	note A_, 2
	octave 2
	note A_, 2
	octave 3
	note A_, 2
;Bar 5
	octave 2
	note F#, 2
	octave 3
	note F#, 2
	octave 2
	note B_, 2
	octave 3
	note B_, 2
	octave 2
	note B_, 2
	octave 3
	note B_, 2
	octave 2
	note B_, 2
	octave 3
	note B_, 2
;Bar 6
	octave 2
	note G_, 2
	octave 3
	note G_, 2
	octave 2
	note G_, 2
	octave 3
	note G_, 2
	octave 2
	note A_, 2
	octave 3
	note A_, 2
	octave 2
	note A_, 2
	octave 3
	note A_, 2
;Bar 7
	octave 2
	note F#, 2
	octave 3
	note F#, 2
	octave 2
	note F#, 2
	octave 3
	note F#, 2
	octave 2
	note B_, 2
	octave 3
	note B_, 2
	octave 2
	note B_, 2
	octave 3
	note B_, 2
;Bar 8
	octave 2
	note G_, 2
	octave 3
	note G_, 2
	octave 2
	note G_, 2
	octave 3
	note G_, 2
	octave 2
	note A_, 2
	octave 3
	note A_, 2
	octave 2
	note A_, 2
	octave 3
	note A_, 2
;Bar 9
	octave 2
	note D_, 2
	octave 3
	note D_, 2
	octave 2
	note D_, 2
	octave 3
	note D_, 2
	octave 2
	note D_, 2
	octave 3
	note D_, 2
	octave 2
	note D_, 2
	octave 3
	note D_, 2
;Bar 10
	octave 2
	note B_, 4
	note B_, 4
	note B_, 4
	note B_, 4
;Bar 11
	note B_, 4
	note B_, 4
	note B_, 4
	note B_, 4
;Bar 12
	note B_, 4
	note B_, 4
	note B_, 4
	note B_, 4
;Bar 13
	note B_, 4
	note B_, 4
	note B_, 4
	note B_, 4
;Bar 14
	note B_, 4
	note B_, 4
	note B_, 4
	note B_, 4
;Bar 15
	note B_, 4
	note B_, 4
	note B_, 4
	note B_, 4
;Bar 16
	note B_, 4
	note B_, 4
	note B_, 4
	note B_, 4
;Bar 17
	note B_, 4
	note B_, 4
	note B_, 4
	note B_, 4
;Bar 18
	note D_, 4
	note D_, 4
	note D_, 4
	note D_, 4
;Bar 19
	note G_, 4
	note G_, 4
	note G_, 4
	note G_, 4
;Bar 20
	note C_, 4
	note C_, 4
	note C_, 4
	note C_, 4
;Bar 21
	note A_, 4
	note A_, 4
	note A_, 4
	note A_, 4
;Bar 22
	note D_, 4
	note D_, 4
	note D_, 4
	note D_, 4
;Bar 23
	note G_, 4
	note G_, 4
	note G_, 4
	note G_, 4
;Bar 24
	note C_, 4
	note C_, 4
	note C_, 4
	note C_, 4
;Bar 25
	note A_, 4
	note A_, 4
	note A_, 4
	note A_, 4
;Bar 26
	note G_, 2
	octave 3
	note G_, 2
	octave 2
	note G_, 2
	octave 3
	note G_, 2
	octave 2
	note A_, 2
	octave 3
	note A_, 2
	octave 2
	note A_, 2
	octave 3
	note A_, 2
;Bar 27
	octave 2
	note F#, 2
	octave 3
	note F#, 2
	octave 2
	note F#, 2
	octave 3
	note F#, 2
	octave 2
	note B_, 2
	octave 3
	note B_, 2
	octave 2
	note B_, 2
	octave 3
	note B_, 2
;Bar 28
	octave 2
	note G_, 2
	octave 3
	note G_, 2
	octave 2
	note G_, 2
	octave 3
	note G_, 2
	octave 2
	note A_, 2
	octave 3
	note A_, 2
	octave 2
	note A_, 2
	octave 3
	note A_, 2
;Bar 29
	octave 2
	note F#, 2
	octave 3
	note F#, 2
	octave 2
	note B_, 2
	octave 3
	note B_, 2
	octave 2
	note B_, 2
	octave 3
	note B_, 2
	octave 2
	note B_, 2
	octave 3
	note B_, 2
;Bar 30
	octave 2
	note G_, 2
	octave 3
	note G_, 2
	octave 2
	note G_, 2
	octave 3
	note G_, 2
	octave 2
	note A_, 2
	octave 3
	note A_, 2
	octave 2
	note A_, 2
	octave 3
	note A_, 2
;Bar 31
	octave 2
	note F#, 2
	octave 3
	note F#, 2
	octave 2
	note F#, 2
	octave 3
	note F#, 2
	octave 2
	note B_, 2
	octave 3
	note B_, 2
	octave 2
	note B_, 2
	octave 3
	note B_, 2
;Bar 32
	octave 2
	note G_, 2
	octave 3
	note G_, 2
	octave 2
	note G_, 2
	octave 3
	note G_, 2
	octave 2
	note A_, 2
	octave 3
	note A_, 2
	octave 2
	note A_, 2
	octave 3
	note A_, 2
;Bar 33
	octave 2
	note D_, 2
	octave 3
	note D_, 2
	octave 2
	note D_, 2
	octave 3
	note D_, 2
	octave 2
	note D_, 2
	octave 3
	note D_, 2
	octave 2
	note D_, 2
	octave 3
	note D_, 2
;Bar 34
	octave 2
	note B_, 4
	note B_, 4
	note B_, 4
	note B_, 4
;Bar 35
	note B_, 4
	note B_, 4
	note B_, 4
	note B_, 4
;Bar 36
	note B_, 4
	note B_, 4
	note B_, 4
	note B_, 4
;Bar 37
	note B_, 4
	note B_, 4
	note B_, 4
	note B_, 4
;Bar 38
	note B_, 4
	note B_, 4
	note B_, 4
	note B_, 4
;Bar 39
	note B_, 4
	note B_, 4
	note B_, 4
	note B_, 4
;Bar 40
	note B_, 4
	note B_, 4
	note B_, 4
	note B_, 4
;Bar 41
	note B_, 4
	note B_, 4
	note B_, 4
	note B_, 4
;Bar 42
	note D_, 4
	note D_, 4
	note D_, 4
	note D_, 4
;Bar 43
	note G_, 4
	note G_, 4
	note G_, 4
	note G_, 4
;Bar 44
	note C_, 4
	note C_, 4
	note C_, 4
	note C_, 4
;Bar 45
	note A_, 4
	note A_, 4
	note A_, 4
	note A_, 4
;Bar 46
	note D_, 4
	note D_, 4
	note D_, 4
	note D_, 4
;Bar 47
	note G_, 4
	note G_, 4
	note G_, 4
	note G_, 4
;Bar 48
	note C_, 4
	note C_, 4
	note C_, 4
	note C_, 4
;Bar 49
	note A_, 4
	note A_, 4
	note A_, 4
	note A_, 4
;Bar 50
	note G_, 2
	octave 3
	note G_, 2
	octave 2
	note G_, 2
	octave 3
	note G_, 2
	octave 2
	note A_, 2
	octave 3
	note G_, 2
	octave 2
	note A_, 2
	octave 3
	note G_, 2
;Bar 51
	octave 2
	note F#, 2
	octave 3
	note F#, 2
	octave 2
	note F#, 2
	octave 3
	note F#, 2
	octave 2
	note B_, 2
	octave 3
	note B_, 2
	octave 2
	note B_, 2
	octave 3
	note B_, 2
;Bar 52
	octave 2
	note G_, 2
	octave 3
	note G_, 2
	octave 2
	note G_, 2
	octave 3
	note G_, 2
	octave 2
	note A_, 2
	octave 3
	note A_, 2
	octave 2
	note A_, 2
	octave 3
	note A_, 2
;Bar 53
	octave 2
	note F#, 2
	octave 3
	note F#, 2
	octave 2
	note B_, 2
	octave 3
	note B_, 2
	octave 2
	note B_, 2
	octave 3
	note B_, 2
	octave 2
	note B_, 2
	octave 3
	note B_, 2
;Bar 54
	octave 2
	note G_, 2
	octave 3
	note G_, 2
	octave 2
	note G_, 2
	octave 3
	note G_, 2
	octave 2
	note A_, 2
	octave 3
	note A_, 2
	octave 2
	note A_, 2
	octave 3
	note A_, 2
;Bar 55
	octave 2
	note F#, 2
	octave 3
	note F#, 2
	octave 2
	note F#, 2
	octave 3
	note F#, 2
	octave 2
	note B_, 2
	octave 3
	note B_, 2
	octave 2
	note B_, 2
	octave 3
	note B_, 2
;Bar 56
	octave 2
	note G_, 2
	octave 3
	note G_, 2
	octave 2
	note G_, 2
	octave 3
	note G_, 2
	octave 2
	note A_, 2
	octave 3
	note A_, 2
	octave 2
	note A_, 2
	octave 3
	note A_, 2
;Bar 57
	octave 2
	note D_, 2
	octave 3
	note D_, 2
	octave 2
	note D_, 2
	octave 3
	note D_, 2
	octave 2
	note D_, 2
	octave 3
	note D_, 2
	octave 2
	note D_, 2
	octave 3
	note D_, 2
;Bar 58
	octave 2
	note G_, 2
	octave 3
	note G_, 2
	octave 2
	note G_, 2
	octave 3
	note G_, 2
	octave 2
	note A_, 2
	octave 3
	note G_, 2
	octave 2
	note A_, 2
	octave 3
	note G_, 2
;Bar 59
	octave 2
	note F#, 2
	octave 3
	note F#, 2
	octave 2
	note F#, 2
	octave 3
	note F#, 2
	octave 2
	note B_, 2
	octave 3
	note B_, 2
	octave 2
	note B_, 2
	octave 3
	note B_, 2
;Bar 60
	octave 2
	note G_, 2
	octave 3
	note G_, 2
	octave 2
	note G_, 2
	octave 3
	note G_, 2
	octave 2
	note A_, 2
	octave 3
	note A_, 2
	octave 2
	note A_, 2
	octave 3
	note A_, 2
;Bar 61
	octave 2
	note F#, 2
	octave 3
	note F#, 2
	octave 2
	note B_, 2
	octave 3
	note B_, 2
	octave 2
	note B_, 2
	octave 3
	note B_, 2
	octave 2
	note B_, 2
	octave 3
	note B_, 2
;Bar 62
	octave 2
	note G_, 2
	octave 3
	note G_, 2
	octave 2
	note G_, 2
	octave 3
	note G_, 2
	octave 2
	note A_, 2
	octave 3
	note A_, 2
	octave 2
	note A_, 2
	octave 3
	note A_, 2
;Bar 63
	octave 2
	note F#, 2
	octave 3
	note F#, 2
	octave 2
	note F#, 2
	octave 3
	note F#, 2
	octave 2
	note B_, 2
	octave 3
	note B_, 2
	octave 2
	note B_, 2
	octave 3
	note B_, 2
;Bar 64
	octave 2
	note D_, 2
	octave 3
	note D_, 2
	octave 2
	note D_, 2
	octave 3
	note D_, 2
	octave 2
	note D_, 2
	octave 3
	note D_, 2
	octave 2
	note D_, 2
	octave 3
	note D_, 2
;Bar 65
	octave 2
	note G_, 2
	octave 3
	note G_, 2
	octave 2
	note G_, 2
	octave 3
	note G_, 2
	octave 2
	note G_, 2
	octave 3
	note G_, 2
	octave 2
	note G_, 2
	octave 3
	note G_, 2
;Bar 66
	octave 2
	note C_, 2
	octave 3
	note C_, 2
	octave 2
	note C_, 2
	octave 3
	note C_, 2
	octave 2
	note D_, 2
	octave 3
	note D_, 2
	octave 2
	note D_, 2
	octave 3
	note D_, 2
;Bar 67
	octave 2
	note D_, 2
	octave 3
	note D_, 2
	octave 2
	note D_, 2
	octave 3
	note D_, 2
	octave 2
	note E_, 2
	octave 3
	note E_, 2
	octave 2
	note E_, 2
	octave 3
	note E_, 2
;Bar 68
	octave 2
	note C_, 2
	octave 3
	note C_, 2
	octave 2
	note C_, 2
	octave 3
	note C_, 2
	octave 2
	note D_, 2
	octave 3
	note D_, 2
	octave 2
	note D_, 2
	octave 3
	note D_, 2
;Bar 69
	octave 2
	note B_, 2
	octave 3
	note D_, 2
	octave 2
	note E_, 2
	octave 3
	note E_, 2
	octave 2
	note E_, 2
	octave 3
	note E_, 2
	octave 2
	note E_, 2
	octave 3
	note E_, 2
;Bar 70
	octave 2
	note C_, 2
	octave 3
	note C_, 2
	octave 2
	note C_, 2
	octave 3
	note C_, 2
	octave 2
	note D_, 2
	octave 3
	note D_, 2
	octave 2
	note D_, 2
	octave 3
	note D_, 2
;Bar 71
	octave 2
	note D_, 2
	octave 3
	note D_, 2
	octave 2
	note D_, 2
	octave 3
	note D_, 2
	octave 2
	note E_, 2
	octave 3
	note E_, 2
	octave 2
	note E_, 2
	octave 3
	note E_, 2
;Bar 72
	octave 2
	note C_, 2
	octave 3
	note C_, 2
	octave 2
	note C_, 2
	octave 3
	note C_, 2
	octave 2
	note C_, 2
	octave 3
	note C_, 2
	octave 2
	note C_, 2
	octave 3
	note C_, 2
;Bar 73
	octave 2
	note A_, 2
	octave 3
	note A_, 2
	octave 2
	note A_, 2
	octave 3
	note A_, 2
	octave 2
	note A_, 2
	octave 3
	note A_, 2
	octave 2
	note A_, 2
	octave 3
	note A_, 2
;Bar 74
	octave 2
	note D_, 4
	note D_, 4
	note D_, 4
	note D_, 4
;Bar 75
	note G_, 4
	note G_, 4
	note G_, 4
	note G_, 4
;Bar 76
	note C_, 4
	note C_, 4
	note C_, 4
	note C_, 4
;Bar 77
	note A_, 4
	note A_, 4
	note A_, 4
	note A_, 4
;Bar 78
	note D_, 4
	note D_, 4
	note D_, 4
	note D_, 4
;Bar 79
	note G_, 4
	note G_, 4
	note G_, 4
	note G_, 4
;Bar 80
	note C_, 4
	note C_, 4
	note C_, 4
	note C_, 4
;Bar 81
	note A_, 4
	note A_, 4
	note A_, 4
	note A_, 4
;Bar 82
	note G_, 2
	octave 3
	note G_, 2
	octave 2
	note G_, 2
	octave 3
	note G_, 2
	octave 2
	note A_, 2
	octave 3
	note G_, 2
	octave 2
	note A_, 2
	octave 3
	note G_, 2
;Bar 83
	octave 2
	note F#, 2
	octave 3
	note F#, 2
	octave 2
	note F#, 2
	octave 3
	note F#, 2
	octave 2
	note B_, 2
	octave 3
	note B_, 2
	octave 2
	note B_, 2
	octave 3
	note B_, 2
;Bar 84
	octave 2
	note G_, 2
	octave 3
	note G_, 2
	octave 2
	note G_, 2
	octave 3
	note G_, 2
	octave 2
	note A_, 2
	octave 3
	note A_, 2
	octave 2
	note A_, 2
	octave 3
	note A_, 2
;Bar 85
	octave 2
	note F#, 2
	octave 3
	note F#, 2
	octave 2
	note B_, 2
	octave 3
	note B_, 2
	octave 2
	note B_, 2
	octave 3
	note B_, 2
	octave 2
	note B_, 2
	octave 3
	note B_, 2
;Bar 86
	octave 2
	note G_, 2
	octave 3
	note G_, 2
	octave 2
	note G_, 2
	octave 3
	note G_, 2
	octave 2
	note A_, 2
	octave 3
	note A_, 2
	octave 2
	note A_, 2
	octave 3
	note A_, 2
;Bar 87
	octave 2
	note F#, 2
	octave 3
	note F#, 2
	octave 2
	note F#, 2
	octave 3
	note F#, 2
	octave 2
	note B_, 2
	octave 3
	note B_, 2
	octave 2
	note B_, 2
	octave 3
	note B_, 2
;Bar 88
	octave 2
	note G_, 2
	octave 3
	note G_, 2
	octave 2
	note G_, 2
	octave 3
	note G_, 2
	octave 2
	note A_, 2
	octave 3
	note A_, 2
	octave 2
	note A_, 2
	octave 3
	note A_, 2
;Bar 89
	octave 2
	note D_, 2
	octave 3
	note D_, 2
	octave 2
	note D_, 2
	octave 3
	note D_, 2
	octave 2
	note D_, 2
	octave 3
	note D_, 2
	octave 2
	note D_, 2
	octave 3
	note D_, 2
;Bar 90
	octave 2
	note G_, 2
	octave 3
	note G_, 2
	octave 2
	note G_, 2
	octave 3
	note G_, 2
	octave 2
	note A_, 2
	octave 3
	note G_, 2
	octave 2
	note A_, 2
	octave 3
	note G_, 2
;Bar 91
	octave 2
	note F#, 2
	octave 3
	note F#, 2
	octave 2
	note F#, 2
	octave 3
	note F#, 2
	octave 2
	note B_, 2
	octave 3
	note B_, 2
	octave 2
	note B_, 2
	octave 3
	note B_, 2
;Bar 92
	octave 2
	note G_, 2
	octave 3
	note G_, 2
	octave 2
	note G_, 2
	octave 3
	note G_, 2
	octave 2
	note A_, 2
	octave 3
	note A_, 2
	octave 2
	note A_, 2
	octave 3
	note A_, 2
;Bar 93
	octave 2
	note F#, 2
	octave 3
	note F#, 2
	octave 2
	note B_, 2
	octave 3
	note B_, 2
	octave 2
	note B_, 2
	octave 3
	note B_, 2
	octave 2
	note B_, 2
	octave 3
	note B_, 2
;Bar 94
	octave 2
	note G_, 2
	octave 3
	note G_, 2
	octave 2
	note G_, 2
	octave 3
	note G_, 2
	octave 2
	note A_, 2
	octave 3
	note A_, 2
	octave 2
	note A_, 2
	octave 3
	note A_, 2
;Bar 95
	octave 2
	note F#, 2
	octave 3
	note F#, 2
	octave 2
	note F#, 2
	octave 3
	note F#, 2
	octave 2
	note B_, 2
	octave 3
	note B_, 2
	octave 2
	note B_, 2
	octave 3
	note B_, 2
;Bar 96
	octave 2
	note G_, 2
	octave 3
	note G_, 2
	octave 2
	note G_, 2
	octave 3
	note G_, 2
	octave 2
	note A_, 2
	octave 3
	note A_, 2
	octave 2
	note A_, 2
	octave 3
	note A_, 2
;Bar 97
	octave 2
	note D_, 2
	octave 3
	note D_, 2
	octave 2
	note D_, 2
	octave 3
	note D_, 2
	octave 2
	note D_, 2
	octave 3
	note D_, 2
	octave 2
	note D_, 2
	octave 3
	note D_, 2
	sound_ret

; ============================================================================================================

