;Coverted using MIDI2ASM
;Code by TriteHexagon
;Version 5.2.0 (16-Nov-2022)
;Visit github.com/TriteHexagon/Midi2ASM-Converter for up-to-date versions.

; ============================================================================================================

Music_Unatco:
	channel_count 4
	channel 1, Music_Unatco_Ch1
	channel 2, Music_Unatco_Ch2
	channel 3, Music_Unatco_Ch3
	channel 4, Music_Unatco_Ch4

Music_Unatco_Ch1:
	volume 7, 7
	duty_cycle 0
	note_type 12, 10, 7
	tempo 224
.mainloop
;Bar 1
	octave 1
	volume_envelope 11, 7
	note A#, 1 ; WARNING: Auto-Sync says: Rounded down!
	rest 1
	note A#, 1 ; WARNING: Auto-Sync says: Rounded down!
	note A#, 1
	rest 1
	note A#, 1 ; WARNING: Auto-Sync says: Rounded down!
	note A#, 1
	rest 1
	octave 3
	;note F_, 0 | WARNING: Rounded down to 0
	octave 1
	note A#, 1
	rest 1
	octave 3
	;note F_, 0 | WARNING: Rounded down to 0
	octave 1
	note G#, 1 ; WARNING: Auto-Sync says: Rounded down!
	octave 3
	note D#, 1
	octave 1
	note G#, 1
	octave 3
	;note D#, 0 | WARNING: Rounded down to 0
	octave 1
	note G#, 1
	octave 3
	note D#, 1 ; WARNING: Auto-Sync says: Rounded down!
	;note F_, 0 | WARNING: Rounded down to 0
	octave 1
	note G#, 1 ; WARNING: Auto-Sync says: Rounded down!
;Bar 2
	octave 3
	volume_envelope 7, 7
	;note D#, 0 | WARNING: Rounded down to 0
	octave 1
	volume_envelope 11, 7
	note A#, 1 ; WARNING: Auto-Sync says: Rounded down!
	octave 3
	volume_envelope 7, 7
	note F_, 1
	octave 1
	volume_envelope 11, 7
	note A#, 1
	note A#, 1 ; WARNING: Auto-Sync says: Rounded down!
	rest 1
	note A#, 1 ; WARNING: Auto-Sync says: Rounded down!
	note A#, 1
	rest 1
	octave 3
	;note F_, 0 | WARNING: Rounded down to 0
	octave 1
	note A#, 1
	rest 1
	octave 3
	;note F_, 0 | WARNING: Rounded down to 0
	octave 1
	note G#, 1
	octave 3
	note D#, 1 ; WARNING: Auto-Sync says: Rounded down!
	octave 1
	note G#, 1
	octave 3
	;note D#, 0 | WARNING: Rounded down to 0
	octave 1
	note G#, 1
	octave 3
	note D#, 1 ; WARNING: Auto-Sync says: Rounded down!
	;note F_, 0 | WARNING: Rounded down to 0
	octave 1
	note G#, 1 ; WARNING: Auto-Sync says: Rounded down!
;Bar 3
	octave 3
	volume_envelope 7, 7
	;note D#, 0 | WARNING: Rounded down to 0
	octave 1
	volume_envelope 11, 7
	note A#, 1
	octave 3
	volume_envelope 7, 7
	note F_, 1 ; WARNING: Auto-Sync says: Rounded down!
	octave 1
	volume_envelope 11, 7
	note A#, 1
	note A#, 1 ; WARNING: Auto-Sync says: Rounded down!
	rest 1
	note A#, 1
	note A#, 1 ; WARNING: Auto-Sync says: Rounded down!
	rest 1
	octave 3
	;note F_, 0 | WARNING: Rounded down to 0
	octave 1
	note A#, 1
	rest 1
	octave 3
	;note F_, 0 | WARNING: Rounded down to 0
	octave 1
	note G#, 1
	octave 3
	note D#, 1 ; WARNING: Auto-Sync says: Rounded down!
	octave 1
	note G#, 1
	octave 3
	;note D#, 0 | WARNING: Rounded down to 0
	octave 1
	note G#, 1
	octave 3
	note D#, 1 ; WARNING: Auto-Sync says: Rounded down!
	;note F_, 0 | WARNING: Rounded down to 0
	octave 1
	note G#, 1
;Bar 4
	octave 3
	volume_envelope 7, 7
	;note D#, 0 | WARNING: Rounded down to 0
	octave 1
	volume_envelope 11, 7
	note F#, 1
	octave 3
	volume_envelope 7, 7
	note F_, 1 ; WARNING: Auto-Sync says: Rounded down!
	octave 1
	volume_envelope 11, 7
	note A#, 1
	note F#, 1
	rest 1
	note F#, 1
	note F#, 1 ; WARNING: Auto-Sync says: Rounded down!
	rest 1
	;note F#, 0 | WARNING: Rounded down to 0
	octave 3
	note C#, 1 ; WARNING: Auto-Sync says: Rounded down!
	rest 1
	octave 1
	;note F#, 0 | WARNING: Rounded down to 0
	octave 3
	note C#, 1
	note D#, 1 ; WARNING: Auto-Sync says: Rounded down!
	octave 1
	note F#, 1
	;note G#, 0 | WARNING: Rounded down to 0
	octave 3
	note D#, 1
	octave 2
	note A#, 1
	octave 3
	;note C_, 0 | WARNING: Rounded down to 0
	octave 1
	note G#, 1
;Bar 5
	note A#, 1 ; WARNING: Auto-Sync says: Rounded down!
	rest 1
	note A#, 1
	note A#, 1 ; WARNING: Auto-Sync says: Rounded down!
	rest 1
	note A#, 1 ; WARNING: Auto-Sync says: Rounded down!
	note A#, 1
	rest 1
	octave 3
	;note F_, 0 | WARNING: Rounded down to 0
	octave 1
	note A#, 1
	rest 1
	octave 3
	;note F_, 0 | WARNING: Rounded down to 0
	octave 1
	note G#, 1 ; WARNING: Auto-Sync says: Rounded down!
	octave 3
	note D#, 1
	octave 1
	note G#, 1 ; WARNING: Auto-Sync says: Rounded down!
	octave 3
	;note D#, 0 | WARNING: Rounded down to 0
	octave 1
	note G#, 1
	octave 3
	note D#, 1 ; WARNING: Auto-Sync says: Rounded down!
	;note F_, 0 | WARNING: Rounded down to 0
	octave 1
	note G#, 1 ; WARNING: Auto-Sync says: Rounded down!
;Bar 6
	octave 3
	volume_envelope 7, 7
	;note D#, 0 | WARNING: Rounded down to 0
	octave 1
	volume_envelope 11, 7
	note A#, 1
	octave 3
	volume_envelope 7, 7
	note F_, 1 ; WARNING: Auto-Sync says: Rounded down!
	octave 1
	volume_envelope 11, 7
	note A#, 1
	note A#, 1 ; WARNING: Auto-Sync says: Rounded down!
	rest 1
	note A#, 1
	note A#, 1 ; WARNING: Auto-Sync says: Rounded down!
	rest 1
	octave 3
	;note F_, 0 | WARNING: Rounded down to 0
	octave 1
	note A#, 1
	rest 1
	octave 3
	;note F_, 0 | WARNING: Rounded down to 0
	octave 1
	note G#, 1 ; WARNING: Auto-Sync says: Rounded down!
	octave 3
	note D#, 1 ; WARNING: Auto-Sync says: Rounded down!
	octave 1
	note G#, 1 ; WARNING: Auto-Sync says: Rounded down!
	octave 3
	;note D#, 0 | WARNING: Rounded down to 0
	octave 1
	note G#, 1 ; WARNING: Auto-Sync says: Rounded down!
	octave 3
	note D#, 1
	;note F_, 0 | WARNING: Rounded down to 0
	octave 1
	note G#, 1 ; WARNING: Auto-Sync says: Rounded down!
;Bar 7
	octave 3
	volume_envelope 7, 7
	;note D#, 0 | WARNING: Rounded down to 0
	octave 1
	volume_envelope 11, 7
	note A#, 1 ; WARNING: Auto-Sync says: Rounded down!
	octave 3
	volume_envelope 7, 7
	note F_, 1
	octave 1
	volume_envelope 11, 7
	note A#, 1
	note A#, 1 ; WARNING: Auto-Sync says: Rounded down!
	rest 1
	note A#, 1 ; WARNING: Auto-Sync says: Rounded down!
	note A#, 1
	rest 1
	octave 3
	;note F_, 0 | WARNING: Rounded down to 0
	octave 1
	note A#, 1
	rest 1
	octave 3
	;note F_, 0 | WARNING: Rounded down to 0
	octave 1
	note G#, 1
	octave 3
	note D#, 1 ; WARNING: Auto-Sync says: Rounded down!
	octave 1
	note G#, 1
	octave 3
	;note D#, 0 | WARNING: Rounded down to 0
	octave 1
	note G#, 1
	octave 3
	note D#, 1
	;note F_, 0 | WARNING: Rounded down to 0
	octave 1
	note G#, 1
;Bar 8
	octave 3
	volume_envelope 7, 7
	;note D#, 0 | WARNING: Rounded down to 0
	octave 1
	volume_envelope 11, 7
	note F#, 1 ; WARNING: Auto-Sync says: Rounded up!
	octave 3
	volume_envelope 7, 7
	note F_, 1
	octave 1
	volume_envelope 11, 7
	note A#, 1
	note F#, 1
	rest 1
	note F#, 1
	note F#, 1
	rest 1
	;note F#, 0 | WARNING: Rounded down to 0
	octave 3
	note C#, 1
	rest 1
	octave 1
	;note F#, 0 | WARNING: Rounded down to 0
	octave 3
	note C#, 1
	note D#, 1
	octave 1
	note F#, 1
	;note G#, 0 | WARNING: Rounded down to 0
	octave 3
	note D#, 1
	octave 2
	note A#, 1
	octave 3
	;note C_, 0 | WARNING: Rounded down to 0
	octave 1
	note G#, 1
;Bar 9
	note A#, 1
	rest 1
	note A#, 1
	note A#, 1
	rest 1
	note A#, 1
	note A#, 1
	rest 1
	octave 3
	;note F_, 0 | WARNING: Rounded down to 0
	octave 1
	note A#, 1
	rest 1
	octave 3
	;note F_, 0 | WARNING: Rounded down to 0
	octave 1
	note G#, 1
	octave 3
	note D#, 1
	octave 1
	note G#, 1
	octave 3
	;note D#, 0 | WARNING: Rounded down to 0
	octave 1
	note G#, 1
	octave 3
	note D#, 1
	;note F_, 0 | WARNING: Rounded down to 0
	octave 1
	note G#, 1
;Bar 10
	octave 3
	volume_envelope 7, 7
	;note D#, 0 | WARNING: Rounded down to 0
	octave 1
	volume_envelope 11, 7
	note A#, 1
	octave 3
	volume_envelope 7, 7
	note F_, 1
	octave 1
	volume_envelope 11, 7
	note A#, 1
	note A#, 1
	rest 1
	note A#, 1
	note A#, 1
	rest 1
	octave 3
	;note F_, 0 | WARNING: Rounded down to 0
	octave 1
	note A#, 1
	rest 1
	octave 3
	;note F_, 0 | WARNING: Rounded down to 0
	octave 1
	note G#, 1
	octave 3
	note D#, 1
	octave 1
	note G#, 1
	octave 3
	;note D#, 0 | WARNING: Rounded down to 0
	octave 1
	note G#, 1
	octave 3
	note D#, 1
	;note F_, 0 | WARNING: Rounded down to 0
	octave 1
	note G#, 1
;Bar 11
	octave 3
	volume_envelope 7, 7
	;note D#, 0 | WARNING: Rounded down to 0
	octave 1
	volume_envelope 11, 7
	note A#, 1
	octave 3
	volume_envelope 7, 7
	note F_, 1
	octave 1
	volume_envelope 11, 7
	note A#, 1
	note A#, 1
	rest 1
	note A#, 1
	note A#, 1
	rest 1
	octave 3
	;note F_, 0 | WARNING: Rounded down to 0
	octave 1
	note A#, 1
	rest 1
	octave 3
	;note F_, 0 | WARNING: Rounded down to 0
	octave 1
	note G#, 1
	octave 3
	note D#, 1
	octave 1
	note G#, 1
	octave 3
	;note D#, 0 | WARNING: Rounded down to 0
	octave 1
	note G#, 1
	octave 3
	note D#, 1
	;note F_, 0 | WARNING: Rounded down to 0
	octave 1
	note G#, 1
;Bar 12
	octave 3
	volume_envelope 7, 7
	;note D#, 0 | WARNING: Rounded down to 0
	octave 1
	volume_envelope 11, 7
	note F#, 1
	octave 3
	volume_envelope 7, 7
	note F_, 1
	octave 1
	volume_envelope 11, 7
	note A#, 1
	note F#, 1
	rest 1
	note F#, 1
	note F#, 1
	rest 1
	;note F#, 0 | WARNING: Rounded down to 0
	octave 3
	note C#, 1
	rest 1
	octave 1
	;note F#, 0 | WARNING: Rounded down to 0
	octave 3
	note C#, 1
	note D#, 1
	octave 1
	note F#, 1
	;note G#, 0 | WARNING: Rounded down to 0
	octave 3
	note D#, 1
	octave 2
	note A#, 1
	octave 3
	;note C_, 0 | WARNING: Rounded down to 0
	octave 1
	note G#, 1
;Bar 13
	note A#, 1
	rest 1
	note A#, 1
	note A#, 1
	rest 1
	note A#, 1
	note A#, 1
	rest 1
	octave 3
	;note F_, 0 | WARNING: Rounded down to 0
	octave 1
	note A#, 1
	rest 1
	octave 3
	;note F_, 0 | WARNING: Rounded down to 0
	octave 1
	note G#, 1
	octave 3
	note D#, 1
	octave 1
	note G#, 1
	octave 3
	;note D#, 0 | WARNING: Rounded down to 0
	octave 1
	note G#, 1
	octave 3
	note D#, 1
	;note F_, 0 | WARNING: Rounded down to 0
	octave 1
	note G#, 1
;Bar 14
	octave 3
	volume_envelope 7, 7
	;note D#, 0 | WARNING: Rounded down to 0
	octave 1
	volume_envelope 11, 7
	note A#, 1
	octave 3
	volume_envelope 7, 7
	note F_, 1
	octave 1
	volume_envelope 11, 7
	note A#, 1
	note A#, 1
	rest 1
	note A#, 1
	note A#, 1
	rest 1
	octave 3
	;note F_, 0 | WARNING: Rounded down to 0
	octave 1
	note A#, 1
	rest 1
	octave 3
	;note F_, 0 | WARNING: Rounded down to 0
	octave 1
	note G#, 1
	octave 3
	note D#, 1
	octave 1
	note G#, 1
	octave 3
	;note D#, 0 | WARNING: Rounded down to 0
	octave 1
	note G#, 1
	octave 3
	note D#, 1
	;note F_, 0 | WARNING: Rounded down to 0
	octave 1
	note G#, 1
;Bar 15
	octave 3
	volume_envelope 7, 7
	;note D#, 0 | WARNING: Rounded down to 0
	octave 1
	volume_envelope 11, 7
	note A#, 1
	octave 3
	volume_envelope 7, 7
	note F_, 1
	octave 1
	volume_envelope 11, 7
	note A#, 1
	note A#, 1
	rest 1
	note A#, 1
	note A#, 1
	rest 1
	octave 3
	;note F_, 0 | WARNING: Rounded down to 0
	octave 1
	note A#, 1
	rest 1
	octave 3
	;note F_, 0 | WARNING: Rounded down to 0
	octave 1
	note G#, 1
	octave 3
	note D#, 1
	octave 1
	note G#, 1
	octave 3
	;note D#, 0 | WARNING: Rounded down to 0
	octave 1
	note G#, 1
	octave 3
	note D#, 1
	;note F_, 0 | WARNING: Rounded down to 0
	octave 1
	note G#, 1
;Bar 16
	octave 3
	volume_envelope 7, 7
	;note D#, 0 | WARNING: Rounded down to 0
	octave 1
	volume_envelope 11, 7
	note F#, 1
	octave 3
	volume_envelope 7, 7
	note F_, 1
	octave 1
	volume_envelope 11, 7
	note A#, 1
	note F#, 1
	rest 1
	note F#, 1
	note F#, 1
	rest 1
	;note F#, 0 | WARNING: Rounded down to 0
	octave 3
	note C#, 1
	rest 1
	octave 1
	;note F#, 0 | WARNING: Rounded down to 0
	octave 3
	note C#, 1
	note D#, 1
	octave 1
	note F#, 1
	;note G#, 0 | WARNING: Rounded down to 0
	octave 3
	note D#, 1
	octave 2
	note A#, 1
	octave 3
	;note C_, 0 | WARNING: Rounded down to 0
	octave 1
	note G#, 1
;Bar 17
	note A#, 1
	rest 1
	note A#, 1
	note A#, 1
	rest 1
	note A#, 1
	note A#, 1
	rest 1
	octave 3
	;note F_, 0 | WARNING: Rounded down to 0
	octave 1
	note A#, 1
	rest 1
	octave 3
	;note F_, 0 | WARNING: Rounded down to 0
	octave 1
	note G#, 1
	octave 3
	note D#, 1
	octave 1
	note G#, 1
	octave 3
	;note D#, 0 | WARNING: Rounded down to 0
	octave 1
	note G#, 1
	octave 3
	note D#, 1
	;note F_, 0 | WARNING: Rounded down to 0
	octave 1
	note G#, 1
;Bar 18
	octave 3
	volume_envelope 7, 7
	;note D#, 0 | WARNING: Rounded down to 0
	octave 1
	volume_envelope 11, 7
	note A#, 1
	octave 3
	volume_envelope 7, 7
	note F_, 1
	octave 1
	volume_envelope 11, 7
	note A#, 1
	note A#, 1
	rest 1
	note A#, 1
	note A#, 1
	rest 1
	octave 3
	;note F_, 0 | WARNING: Rounded down to 0
	octave 1
	note A#, 1
	rest 1
	octave 3
	;note F_, 0 | WARNING: Rounded down to 0
	octave 1
	note G#, 1
	octave 3
	note D#, 1
	octave 1
	note G#, 1
	octave 3
	;note D#, 0 | WARNING: Rounded down to 0
	octave 1
	note G#, 1
	octave 3
	note D#, 1
	;note F_, 0 | WARNING: Rounded down to 0
	octave 1
	note G#, 1
;Bar 19
	octave 3
	volume_envelope 7, 7
	;note D#, 0 | WARNING: Rounded down to 0
	octave 1
	volume_envelope 11, 7
	note A#, 1
	octave 3
	volume_envelope 7, 7
	note F_, 1
	octave 1
	volume_envelope 11, 7
	note A#, 1
	note A#, 1
	rest 1
	note A#, 1
	note A#, 1
	rest 1
	octave 3
	;note F_, 0 | WARNING: Rounded down to 0
	octave 1
	note A#, 1
	rest 1
	octave 3
	;note F_, 0 | WARNING: Rounded down to 0
	octave 1
	note G#, 1
	octave 3
	note D#, 1
	octave 1
	note G#, 1
	octave 3
	;note D#, 0 | WARNING: Rounded down to 0
	octave 1
	note G#, 1
	octave 3
	note D#, 1
	;note F_, 0 | WARNING: Rounded down to 0
	octave 1
	note G#, 1
;Bar 20
	octave 3
	volume_envelope 7, 7
	;note D#, 0 | WARNING: Rounded down to 0
	octave 1
	volume_envelope 11, 7
	note F#, 1
	octave 3
	volume_envelope 7, 7
	note F_, 1
	octave 1
	volume_envelope 11, 7
	note A#, 1
	note F#, 1
	rest 1
	note F#, 1
	note F#, 1
	rest 1
	;note F#, 0 | WARNING: Rounded down to 0
	octave 3
	note C#, 1
	rest 1
	octave 1
	;note F#, 0 | WARNING: Rounded down to 0
	octave 3
	note C#, 1
	note D#, 1
	octave 1
	note F#, 1
	;note G#, 0 | WARNING: Rounded down to 0
	octave 3
	note D#, 1
	octave 2
	note A#, 1
	octave 3
	;note C_, 0 | WARNING: Rounded down to 0
	octave 1
	note G#, 1
;Bar 21
	note A#, 1
	rest 1
	note A#, 1
	note A#, 1
	rest 1
	note A#, 1
	note A#, 1
	rest 1
	octave 3
	;note F_, 0 | WARNING: Rounded down to 0
	octave 1
	note A#, 1
	rest 1
	octave 3
	;note F_, 0 | WARNING: Rounded down to 0
	octave 1
	note G#, 1
	octave 3
	note D#, 1
	octave 1
	note G#, 1
	octave 3
	;note D#, 0 | WARNING: Rounded down to 0
	octave 1
	note G#, 1
	octave 3
	note D#, 1
	;note F_, 0 | WARNING: Rounded down to 0
	octave 1
	note G#, 1
;Bar 22
	octave 3
	volume_envelope 7, 7
	;note D#, 0 | WARNING: Rounded down to 0
	octave 1
	volume_envelope 11, 7
	note A#, 1
	octave 3
	volume_envelope 7, 7
	note F_, 1
	octave 1
	volume_envelope 11, 7
	note A#, 1
	note A#, 1
	rest 1
	note A#, 1
	note A#, 1
	rest 1
	octave 3
	;note F_, 0 | WARNING: Rounded down to 0
	octave 1
	note A#, 1
	rest 1
	octave 3
	;note F_, 0 | WARNING: Rounded down to 0
	octave 1
	note G#, 1
	octave 3
	note D#, 1
	octave 1
	note G#, 1
	octave 3
	;note D#, 0 | WARNING: Rounded down to 0
	octave 1
	note G#, 1
	octave 3
	note D#, 1
	;note F_, 0 | WARNING: Rounded down to 0
	octave 1
	note G#, 1
;Bar 23
	octave 3
	volume_envelope 7, 7
	;note D#, 0 | WARNING: Rounded down to 0
	octave 1
	volume_envelope 11, 7
	note A#, 1
	octave 3
	volume_envelope 7, 7
	note F_, 1
	octave 1
	volume_envelope 11, 7
	note A#, 1
	note A#, 1
	rest 1
	note A#, 1
	note A#, 1
	rest 1
	octave 3
	;note F_, 0 | WARNING: Rounded down to 0
	octave 1
	note A#, 1
	rest 1
	octave 3
	;note F_, 0 | WARNING: Rounded down to 0
	octave 1
	note G#, 1
	octave 3
	note D#, 1
	octave 1
	note G#, 1
	octave 3
	;note D#, 0 | WARNING: Rounded down to 0
	octave 1
	note G#, 1
	octave 3
	note D#, 1
	;note F_, 0 | WARNING: Rounded down to 0
	octave 1
	note G#, 1
;Bar 24
	octave 3
	volume_envelope 7, 7
	;note D#, 0 | WARNING: Rounded down to 0
	octave 1
	volume_envelope 11, 7
	note F#, 1
	octave 3
	volume_envelope 7, 7
	note F_, 1
	octave 1
	volume_envelope 11, 7
	note A#, 1
	note F#, 1
	rest 1
	note F#, 1
	note F#, 1
	rest 1
	;note F#, 0 | WARNING: Rounded down to 0
	octave 3
	note C#, 1
	rest 1
	octave 1
	;note F#, 0 | WARNING: Rounded down to 0
	octave 3
	note C#, 1
	note D#, 1
	octave 1
	note F#, 1
	;note G#, 0 | WARNING: Rounded down to 0
	octave 3
	note D#, 1
	octave 2
	note A#, 1
	octave 3
	;note C_, 0 | WARNING: Rounded down to 0
	octave 1
	note G#, 1
;Bar 25
	note A#, 1
	rest 1
	note A#, 1
	note A#, 1
	rest 1
	note A#, 1
	note A#, 1
	rest 1
	octave 2
	note C#, 1
	rest 1
	octave 1
	note G#, 1
	octave 2
	note C_, 1
	rest 1
	octave 1
	note G#, 1
	note G#, 1
	note A#, 1
;Bar 26
	note A#, 1
	note A#, 1
	rest 1
	note A#, 1
	rest 1
	note A#, 1
	note A#, 1
	rest 1
	octave 2
	note C#, 1
	rest 1
	octave 1
	note G#, 1
	octave 2
	note C_, 1
	rest 1
	octave 1
	note G#, 1
	note G#, 1
	note A#, 1
;Bar 27
	note A#, 1
	rest 1
	note A#, 1
	note A#, 1
	rest 1
	note A#, 1
	note A#, 1
	rest 1
	octave 3
	;note F_, 0 | WARNING: Rounded down to 0
	octave 1
	note A#, 1
	rest 1
	octave 3
	;note F_, 0 | WARNING: Rounded down to 0
	octave 1
	note G#, 1
	octave 3
	note D#, 1
	octave 1
	note G#, 1
	octave 3
	;note D#, 0 | WARNING: Rounded down to 0
	octave 1
	note G#, 1
	octave 3
	note D#, 1
	;note F_, 0 | WARNING: Rounded down to 0
	octave 1
	note G#, 1
;Bar 28
	octave 3
	volume_envelope 7, 7
	;note D#, 0 | WARNING: Rounded down to 0
	octave 1
	volume_envelope 11, 7
	note A#, 1
	octave 3
	volume_envelope 7, 7
	note F_, 1
	octave 1
	volume_envelope 11, 7
	note A#, 1
	note A#, 1
	rest 1
	note A#, 1
	note A#, 1
	rest 1
	octave 3
	;note F_, 0 | WARNING: Rounded down to 0
	octave 1
	note A#, 1
	rest 1
	octave 3
	;note F_, 0 | WARNING: Rounded down to 0
	octave 1
	note G#, 1
	octave 3
	note D#, 1
	octave 1
	note G#, 1
	octave 3
	;note D#, 0 | WARNING: Rounded down to 0
	octave 1
	note G#, 1
	octave 3
	note D#, 1
	;note F_, 0 | WARNING: Rounded down to 0
	octave 1
	note G#, 1
;Bar 29
	octave 3
	volume_envelope 7, 7
	;note D#, 0 | WARNING: Rounded down to 0
	octave 1
	volume_envelope 11, 7
	note A#, 1
	octave 3
	volume_envelope 7, 7
	note F_, 1
	octave 1
	volume_envelope 11, 7
	note A#, 1
	note A#, 1
	rest 1
	note A#, 1
	note A#, 1
	rest 1
	octave 3
	;note F_, 0 | WARNING: Rounded down to 0
	octave 1
	note A#, 1
	rest 1
	octave 3
	;note F_, 0 | WARNING: Rounded down to 0
	octave 1
	note G#, 1
	octave 3
	note D#, 1
	octave 1
	note G#, 1
	octave 3
	;note D#, 0 | WARNING: Rounded down to 0
	octave 1
	note G#, 1
	octave 3
	note D#, 1
	;note F_, 0 | WARNING: Rounded down to 0
	octave 1
	note G#, 1
;Bar 30
	octave 3
	volume_envelope 7, 7
	;note D#, 0 | WARNING: Rounded down to 0
	octave 1
	volume_envelope 11, 7
	note A#, 1
	octave 3
	volume_envelope 7, 7
	note F_, 1
	octave 1
	volume_envelope 11, 7
	note A#, 1
	note A#, 1
	rest 1
	note A#, 1
	note A#, 1
	rest 1
	octave 3
	;note F_, 0 | WARNING: Rounded down to 0
	octave 1
	note A#, 1
	rest 1
	octave 3
	;note F_, 0 | WARNING: Rounded down to 0
	octave 1
	note G#, 1
	octave 3
	note D#, 1
	octave 1
	note G#, 1
	octave 3
	;note D#, 0 | WARNING: Rounded down to 0
	octave 1
	note G#, 1
	octave 3
	note D#, 1
	;note F_, 0 | WARNING: Rounded down to 0
	octave 1
	note G#, 1
;Bar 31
	octave 3
	volume_envelope 7, 7
	;note D#, 0 | WARNING: Rounded down to 0
	octave 1
	volume_envelope 11, 7
	note A#, 1
	octave 3
	volume_envelope 7, 7
	note F_, 1
	octave 1
	volume_envelope 11, 7
	note A#, 1
	note A#, 1
	rest 1
	note A#, 1
	note A#, 1
	rest 1
	octave 3
	;note F_, 0 | WARNING: Rounded down to 0
	octave 1
	note A#, 1
	rest 1
	octave 3
	;note F_, 0 | WARNING: Rounded down to 0
	octave 1
	note G#, 1
	octave 3
	note D#, 1
	octave 1
	note G#, 1
	octave 3
	;note D#, 0 | WARNING: Rounded down to 0
	octave 1
	note G#, 1
	octave 3
	note D#, 1
	;note F_, 0 | WARNING: Rounded down to 0
	octave 1
	note G#, 1
;Bar 32
	octave 3
	volume_envelope 7, 7
	;note D#, 0 | WARNING: Rounded down to 0
	octave 1
	volume_envelope 11, 7
	note F#, 1
	octave 3
	volume_envelope 7, 7
	note F_, 1
	octave 1
	volume_envelope 11, 7
	note A#, 1
	note F#, 1
	rest 1
	note F#, 1
	note F#, 1
	rest 1
	;note F#, 0 | WARNING: Rounded down to 0
	octave 3
	note C#, 1
	rest 1
	octave 1
	;note F#, 0 | WARNING: Rounded down to 0
	octave 3
	note C#, 1
	note D#, 1
	octave 1
	note F#, 1
	;note G#, 0 | WARNING: Rounded down to 0
	octave 3
	note D#, 1
	octave 2
	note A#, 1
	octave 3
	;note C_, 0 | WARNING: Rounded down to 0
	octave 1
	note G#, 1
	sound_loop 0, .mainloop

; ============================================================================================================

Music_Unatco_Ch2:
	duty_cycle 1
	note_type 12, 10, 7
.mainloop
;Bar 1
	octave 1
	volume_envelope 7, 7
	note A#, 16
	note A#, 16
;Bar 3
	note G#, 16
;Bar 4
	note F#, 16
;Bar 5
	note A#, 16
	note A#, 16
;Bar 7
	note G#, 16
;Bar 8
	note F#, 16
;Bar 9
	octave 2
	;note A#, 0 | WARNING: Rounded down to 0
	;note F_, 0 | WARNING: Rounded down to 0
	;note C#, 0 | WARNING: Rounded down to 0
	octave 1
	note A#, 16
	note A#, 16
;Bar 11
	octave 2
	;note G#, 0 | WARNING: Rounded down to 0
	;note F_, 0 | WARNING: Rounded down to 0
	;note D#, 0 | WARNING: Rounded down to 0
	octave 1
	note G#, 16
;Bar 12
	octave 2
	;note D#, 0 | WARNING: Rounded down to 0
	octave 1
	;note A#, 0 | WARNING: Rounded down to 0
	octave 1
	;note F#, 0 | WARNING: Rounded down to 0
	octave 2
	note F#, 16
;Bar 13
	;note A#, 0 | WARNING: Rounded down to 0
	;note F_, 0 | WARNING: Rounded down to 0
	;note C#, 0 | WARNING: Rounded down to 0
	octave 1
	note A#, 16
	note A#, 16
;Bar 15
	octave 2
	;note D#, 0 | WARNING: Rounded down to 0
	;note F_, 0 | WARNING: Rounded down to 0
	;note G#, 0 | WARNING: Rounded down to 0
	octave 1
	note G#, 16
;Bar 16
	octave 2
	;note D#, 0 | WARNING: Rounded down to 0
	octave 1
	;note F#, 0 | WARNING: Rounded down to 0
	octave 2
	;note F#, 0 | WARNING: Rounded down to 0
	octave 1
	note A#, 16
;Bar 17
	octave 1
	note A#, 16
	note A#, 16
;Bar 19
	;note G#, 0 | WARNING: Rounded down to 0
	octave 2
	note A#, 16
;Bar 20
	octave 1
	;note F#, 0 | WARNING: Rounded down to 0
	octave 2
	note F#, 16
;Bar 21
	;note F_, 0 | WARNING: Rounded down to 0
	;note A#, 0 | WARNING: Rounded down to 0
	octave 1
	note A#, 16
	note A#, 16
;Bar 23
	;note G#, 0 | WARNING: Rounded down to 0
	octave 2
	note A#, 16
;Bar 24
	octave 1
	;note F#, 0 | WARNING: Rounded down to 0
	octave 2
	note F#, 16
;Bar 25
	;note A#, 0 | WARNING: Rounded down to 0
	octave 3
	note C#, 8
	;note C_, 0 | WARNING: Rounded down to 0
	octave 2
	note G#, 8
;Bar 26
	;note A#, 0 | WARNING: Rounded down to 0
	note F_, 16
;Bar 27
	octave 1
	note A#, 16
	note A#, 16
;Bar 29
	;note G#, 0 | WARNING: Rounded down to 0
	octave 1
	;note A#, 0 | WARNING: Rounded down to 0
	octave 2
	;note C#, 0 | WARNING: Rounded down to 0
	note F_, 16
;Bar 30
	octave 1
	;note F#, 0 | WARNING: Rounded down to 0
	octave 2
	note A#, 16
;Bar 31
	octave 1
	;note A#, 0 | WARNING: Rounded down to 0
	octave 2
	;note D#, 0 | WARNING: Rounded down to 0
	octave 3
	;note C_, 0 | WARNING: Rounded down to 0
	octave 2
	note G#, 16
;Bar 32
	;note A#, 0 | WARNING: Rounded down to 0
	;note F#, 0 | WARNING: Rounded down to 0
	note C#, 16
	sound_loop 0, .mainloop

; ============================================================================================================

Music_Unatco_Ch3:
	note_type 12, 1, 0
.mainloop
;Bar 1
	volume_envelope 2, 0
	rest 16
	rest 16
	rest 16
	rest 16
	rest 16
	rest 16
	rest 16
	rest 16
;Bar 9
	octave 4
	volume_envelope 1, 0
	note A#, 1
	note C_, 1
	note C#, 1
	note C_, 1
	note C#, 1
	note C_, 1
	note C#, 1
	note F_, 1
	note A#, 1
	note C_, 1
	note C#, 1
	note C_, 1
	note C#, 1
	note C_, 1
	note C#, 1
	note F_, 1
;Bar 10
	note A#, 1
	note C_, 1
	note C#, 1
	note C_, 1
	note C#, 1
	note C_, 1
	note C#, 1
	note F_, 1
	note A#, 1
	note C_, 1
	note C#, 1
	note C_, 1
	note C#, 1
	note C_, 1
	note C#, 1
	note F_, 1
;Bar 11
	note A#, 1
	note C_, 1
	note C#, 1
	note C_, 1
	note C#, 1
	note C_, 1
	note C#, 1
	note F_, 1
	note A#, 1
	note C_, 1
	note C#, 1
	note C_, 1
	note C#, 1
	note C_, 1
	note C#, 1
	note F_, 1
;Bar 12
	note A#, 1
	note C_, 1
	note C#, 1
	note C_, 1
	note C#, 1
	note C_, 1
	note C#, 1
	note F_, 1
	note A#, 1
	note C_, 1
	note C#, 1
	note C_, 1
	note C#, 1
	note C_, 1
	note C#, 1
	note F_, 1 ; WARNING: Auto-Sync says: Rounded up!
;Bar 13
	note A#, 1
	note C_, 1
	note C#, 1
	note C_, 1
	note C#, 1
	note C_, 1
	note C#, 1
	note F_, 1
	note A#, 1
	note C_, 1
	note C#, 1
	note C_, 1
	note C#, 1
	note C_, 1
	note C#, 1
	note F_, 1
;Bar 14
	note A#, 1
	note C_, 1
	note C#, 1
	note C_, 1
	note C#, 1
	note C_, 1
	note C#, 1
	note F_, 1
	note A#, 1
	note C_, 1
	note C#, 1
	note C_, 1
	note C#, 1
	note C_, 1
	note C#, 1
	note F_, 1
;Bar 15
	note A#, 1
	note C_, 1
	note C#, 1
	note C_, 1
	note C#, 1
	note C_, 1
	note C#, 1
	note F_, 1
	note A#, 1
	note C_, 1
	note C#, 1
	note C_, 1
	note C#, 1
	note C_, 1
	note C#, 1
	note F_, 1
;Bar 16
	note A#, 1
	note C_, 1
	note C#, 1
	note C_, 1
	note C#, 1
	note C_, 1
	note C#, 1
	note F_, 1
	note A#, 1
	note C_, 1
	note C#, 1
	note C_, 1
	note C#, 1
	note C_, 1
	note C#, 1
	note F_, 1
;Bar 17
	note A#, 1
	note C_, 1
	note C#, 1
	note C_, 1
	note C#, 1
	note C_, 1
	note C#, 1
	note F_, 1
	note A#, 1
	note C_, 1
	note C#, 1
	note C_, 1
	note C#, 1
	note C_, 1
	note C#, 1
	note F_, 1
;Bar 18
	note A#, 1
	note C_, 1
	note C#, 1
	note C_, 1
	note C#, 1
	note C_, 1
	note C#, 1
	note F_, 1
	note A#, 1
	note C_, 1
	note C#, 1
	note C_, 1
	note C#, 1
	note C_, 1
	note C#, 1
	note F_, 1
;Bar 19
	note A#, 1
	note C_, 1
	note C#, 1
	note C_, 1
	note C#, 1
	note C_, 1
	note C#, 1
	note F_, 1
	note A#, 1
	note C_, 1
	note C#, 1
	note C_, 1
	note C#, 1
	note C_, 1
	note C#, 1
	note F_, 1
;Bar 20
	note A#, 1
	note C_, 1
	note C#, 1
	note C_, 1
	note C#, 1
	note C_, 1
	note C#, 1
	note F_, 1
	note A#, 1
	note C_, 1
	note C#, 1
	note C_, 1
	note C#, 1
	note C_, 1
	note C#, 1
	note F_, 1
;Bar 21
	note A#, 1
	note C_, 1
	note C#, 1
	note C_, 1
	note C#, 1
	note C_, 1
	note C#, 1
	note F_, 1
	note A#, 1
	note C_, 1
	note C#, 1
	note C_, 1
	note C#, 1
	note C_, 1
	note C#, 1
	note F_, 1
;Bar 22
	note A#, 1
	note C_, 1
	note C#, 1
	note C_, 1
	note C#, 1
	note C_, 1
	note C#, 1
	note F_, 1
	note A#, 1
	note C_, 1
	note C#, 1
	note C_, 1
	note C#, 1
	note C_, 1
	note C#, 1
	note F_, 1
;Bar 23
	note A#, 1
	note C_, 1
	note C#, 1
	note C_, 1
	note C#, 1
	note C_, 1
	note C#, 1
	note F_, 1
	note A#, 1
	note C_, 1
	note C#, 1
	note C_, 1
	note C#, 1
	note C_, 1
	note C#, 1
	note F_, 1
;Bar 24
	note A#, 1
	note C_, 1
	note C#, 1
	note C_, 1
	note C#, 1
	note C_, 1
	note C#, 1
	note F_, 1
	note A#, 1
	note C_, 1
	note C#, 1
	note C_, 1
	note C#, 1
	note C_, 1
	note C#, 1
	note F_, 1
	sound_loop 0, .mainloop

; ============================================================================================================

Music_Unatco_Ch4:
	toggle_noise 1
	drum_speed 12
.mainloop
;Bar 1
	rest 16
	rest 16
	rest 16
	rest 16
	rest 16
	rest 16
	rest 16
	rest 16
;Bar 9
	drum_note 11, 2
	rest 16
	rest 16
	rest 14
;Bar 12
	drum_note 7, 6
	drum_note 4, 4
	drum_note 9, 4
	drum_note 2, 2
;Bar 13
	drum_note 11, 2
	rest 16
	rest 16
	rest 14
;Bar 16
	drum_note 7, 6
	drum_note 4, 4
	drum_note 9, 4
	drum_note 2, 2
;Bar 17
	drum_note 11, 2
	rest 16
	rest 16
	rest 16
	rest 16
	rest 16
	rest 16
	rest 16
	rest 16
	rest 16
	rest 16
	rest 14
;Bar 28
	drum_note 7, 6
	drum_note 4, 4
	drum_note 9, 4
	drum_note 2, 2
;Bar 29
	drum_note 11, 2
	rest 16
	rest 16
	rest 14
;Bar 32
	drum_note 7, 6
	drum_note 4, 4
	drum_note 9, 4
	drum_note 2, 2
	sound_loop 0, .mainloop

; ============================================================================================================

