;Coverted using MIDI2ASM
;Code by TriteHexagon
;Version 5.2.0 (16-Nov-2022)
;Visit github.com/TriteHexagon/Midi2ASM-Converter for up-to-date versions.

; ============================================================================================================

Music_WildEncounter:
	channel_count 4
	channel 1, Music_WildEncounter_Ch1
	channel 2, Music_WildEncounter_Ch2
	channel 3, Music_WildEncounter_Ch3
	channel 4, Music_WildEncounter_Ch4

Music_WildEncounter_Ch1:
	volume 7, 7
	duty_cycle 0
	note_type 12, 10, 7
	tempo 97
.mainloop
;Bar 1
	octave 1
	volume_envelope 12, 7
	;note D#, 0 | WARNING: Rounded down to 0
	note A#, 2
	;note D#, 0 | WARNING: Rounded down to 0
	note A#, 2
	;note F_, 0 | WARNING: Rounded down to 0
	octave 2
	note F_, 2
	octave 1
	;note D#, 0 | WARNING: Rounded down to 0
	note A#, 2
	;note D#, 0 | WARNING: Rounded down to 0
	note A#, 2
	;note F#, 0 | WARNING: Rounded down to 0
	octave 2
	note F#, 2
	octave 1
	;note D#, 0 | WARNING: Rounded down to 0
	note A#, 2
	;note D#, 0 | WARNING: Rounded down to 0
	note A#, 2
;Bar 2
	;note G#, 0 | WARNING: Rounded down to 0
	octave 2
	note G#, 2
	octave 1
	;note D#, 0 | WARNING: Rounded down to 0
	note A#, 2
	;note D#, 0 | WARNING: Rounded down to 0
	note A#, 2
	;note A#, 0 | WARNING: Rounded down to 0
	octave 2
	note D#, 2
	octave 1
	;note D#, 0 | WARNING: Rounded down to 0
	octave 2
	note D#, 2
	octave 1
	;note D#, 0 | WARNING: Rounded down to 0
	octave 2
	note D#, 2
	octave 1
	;note G#, 0 | WARNING: Rounded down to 0
	octave 2
	note G#, 2
	octave 1
	;note D#, 0 | WARNING: Rounded down to 0
	octave 2
	note D#, 2
;Bar 3
	octave 1
	;note A#, 0 | WARNING: Rounded down to 0
	note D#, 2
	;note D#, 0 | WARNING: Rounded down to 0
	note A#, 2
	;note F_, 0 | WARNING: Rounded down to 0
	octave 2
	note F_, 2
	octave 1
	;note D#, 0 | WARNING: Rounded down to 0
	note A#, 2
	;note D#, 0 | WARNING: Rounded down to 0
	note A#, 2
	;note F#, 0 | WARNING: Rounded down to 0
	octave 2
	note F#, 2
	octave 1
	;note D#, 0 | WARNING: Rounded down to 0
	note A#, 2
	;note D#, 0 | WARNING: Rounded down to 0
	note A#, 2
;Bar 4
	;note G#, 0 | WARNING: Rounded down to 0
	octave 2
	note G#, 2
	octave 1
	;note D#, 0 | WARNING: Rounded down to 0
	note A#, 2
	;note D#, 0 | WARNING: Rounded down to 0
	note A#, 2
	;note A#, 0 | WARNING: Rounded down to 0
	octave 2
	note D#, 2
	octave 1
	;note D#, 0 | WARNING: Rounded down to 0
	octave 2
	note D#, 2
	octave 1
	;note D#, 0 | WARNING: Rounded down to 0
	octave 2
	note D#, 2
	octave 1
	;note G#, 0 | WARNING: Rounded down to 0
	octave 2
	note G#, 2
	octave 1
	;note D#, 0 | WARNING: Rounded down to 0
	octave 2
	note D#, 2
;Bar 5
	octave 1
	;note B_, 0 | WARNING: Rounded down to 0
	octave 1
	note F#, 2
	octave 1
	;note B_, 0 | WARNING: Rounded down to 0
	octave 1
	note F#, 2
	;note D#, 0 | WARNING: Rounded down to 0
	octave 2
	note D#, 2
	octave 1
	;note B_, 0 | WARNING: Rounded down to 0
	octave 1
	note F#, 2
	octave 1
	;note B_, 0 | WARNING: Rounded down to 0
	octave 1
	note F#, 2
	;note F_, 0 | WARNING: Rounded down to 0
	octave 2
	note F_, 2
	octave 1
	;note B_, 0 | WARNING: Rounded down to 0
	octave 1
	note F#, 2
	octave 1
	;note B_, 0 | WARNING: Rounded down to 0
	octave 1
	note F#, 2
;Bar 6
	;note F#, 0 | WARNING: Rounded down to 0
	octave 2
	note F#, 2
	octave 1
	;note B_, 0 | WARNING: Rounded down to 0
	octave 1
	note F#, 2
	octave 1
	;note B_, 0 | WARNING: Rounded down to 0
	octave 1
	note F#, 2
	;note F#, 0 | WARNING: Rounded down to 0
	note B_, 2
	octave 1
	;note B_, 0 | WARNING: Rounded down to 0
	octave 1
	note B_, 2
	octave 1
	;note B_, 0 | WARNING: Rounded down to 0
	octave 1
	note B_, 2
	;note F_, 0 | WARNING: Rounded down to 0
	octave 2
	note F_, 2
	octave 1
	;note B_, 0 | WARNING: Rounded down to 0
	octave 1
	note B_, 2
;Bar 7
	;note C#, 0 | WARNING: Rounded down to 0
	note G#, 2
	;note C#, 0 | WARNING: Rounded down to 0
	note G#, 2
	;note F_, 0 | WARNING: Rounded down to 0
	octave 2
	note C#, 2
	octave 1
	;note C#, 0 | WARNING: Rounded down to 0
	note G#, 2
	;note C#, 0 | WARNING: Rounded down to 0
	note G#, 2
	octave 2
	;note C#, 0 | WARNING: Rounded down to 0
	octave 1
	note F#, 2
	;note C#, 0 | WARNING: Rounded down to 0
	note G#, 2
	;note C#, 0 | WARNING: Rounded down to 0
	note G#, 2
;Bar 8
	;note G#, 0 | WARNING: Rounded down to 0
	octave 2
	note C#, 2
	octave 1
	;note C#, 0 | WARNING: Rounded down to 0
	octave 2
	note C#, 2
	octave 1
	;note C#, 0 | WARNING: Rounded down to 0
	octave 2
	note C#, 2
	octave 1
	;note A#, 0 | WARNING: Rounded down to 0
	octave 2
	note F_, 2
	octave 1
	;note C#, 0 | WARNING: Rounded down to 0
	octave 2
	note C#, 2
	octave 1
	;note C#, 0 | WARNING: Rounded down to 0
	octave 2
	note C#, 2
	octave 1
	;note G#, 0 | WARNING: Rounded down to 0
	octave 2
	note D#, 2
	octave 1
	;note C#, 0 | WARNING: Rounded down to 0
	octave 2
	note C#, 2
;Bar 9
	octave 1
	;note D#, 0 | WARNING: Rounded down to 0
	note A#, 2
	;note D#, 0 | WARNING: Rounded down to 0
	note A#, 2
	;note F_, 0 | WARNING: Rounded down to 0
	octave 2
	note F_, 2
	octave 1
	;note D#, 0 | WARNING: Rounded down to 0
	note A#, 2
	;note D#, 0 | WARNING: Rounded down to 0
	note A#, 2
	;note F#, 0 | WARNING: Rounded down to 0
	octave 2
	note F#, 2
	octave 1
	;note D#, 0 | WARNING: Rounded down to 0
	note A#, 2
	;note D#, 0 | WARNING: Rounded down to 0
	note A#, 2
;Bar 10
	;note G#, 0 | WARNING: Rounded down to 0
	octave 2
	note G#, 2
	octave 1
	;note D#, 0 | WARNING: Rounded down to 0
	note A#, 2
	;note D#, 0 | WARNING: Rounded down to 0
	note A#, 2
	;note A#, 0 | WARNING: Rounded down to 0
	octave 2
	note D#, 2
	octave 1
	;note D#, 0 | WARNING: Rounded down to 0
	octave 2
	note D#, 2
	octave 1
	;note D#, 0 | WARNING: Rounded down to 0
	octave 2
	note D#, 2
	octave 1
	;note G#, 0 | WARNING: Rounded down to 0
	octave 2
	note G#, 2
	octave 1
	;note D#, 0 | WARNING: Rounded down to 0
	octave 2
	note D#, 2
;Bar 11
	octave 1
	;note A#, 0 | WARNING: Rounded down to 0
	note D#, 2
	;note D#, 0 | WARNING: Rounded down to 0
	note A#, 2
	;note F_, 0 | WARNING: Rounded down to 0
	octave 2
	note F_, 2
	octave 1
	;note D#, 0 | WARNING: Rounded down to 0
	note A#, 2
	;note D#, 0 | WARNING: Rounded down to 0
	note A#, 2
	;note F#, 0 | WARNING: Rounded down to 0
	octave 2
	note F#, 2
	octave 1
	;note D#, 0 | WARNING: Rounded down to 0
	note A#, 2
	;note D#, 0 | WARNING: Rounded down to 0
	note A#, 2
;Bar 12
	;note G#, 0 | WARNING: Rounded down to 0
	octave 2
	note G#, 2
	octave 1
	;note D#, 0 | WARNING: Rounded down to 0
	note A#, 2
	;note D#, 0 | WARNING: Rounded down to 0
	note A#, 2
	;note A#, 0 | WARNING: Rounded down to 0
	octave 2
	note D#, 2
	octave 1
	;note D#, 0 | WARNING: Rounded down to 0
	octave 2
	note D#, 2
	octave 1
	;note D#, 0 | WARNING: Rounded down to 0
	octave 2
	note D#, 2
	octave 1
	;note G#, 0 | WARNING: Rounded down to 0
	octave 2
	note G#, 2
	octave 1
	;note D#, 0 | WARNING: Rounded down to 0
	octave 2
	note D#, 2
;Bar 13
	octave 1
	;note B_, 0 | WARNING: Rounded down to 0
	octave 1
	note F#, 2
	octave 1
	;note B_, 0 | WARNING: Rounded down to 0
	octave 1
	note F#, 2
	;note D#, 0 | WARNING: Rounded down to 0
	octave 2
	note D#, 2
	octave 1
	;note B_, 0 | WARNING: Rounded down to 0
	octave 1
	note F#, 2
	octave 1
	;note B_, 0 | WARNING: Rounded down to 0
	octave 1
	note F#, 2
	;note F_, 0 | WARNING: Rounded down to 0
	octave 2
	note F_, 2
	octave 1
	;note B_, 0 | WARNING: Rounded down to 0
	octave 1
	note F#, 2
	octave 1
	;note B_, 0 | WARNING: Rounded down to 0
	octave 1
	note F#, 2
;Bar 14
	;note F#, 0 | WARNING: Rounded down to 0
	octave 2
	note F#, 2
	octave 1
	;note B_, 0 | WARNING: Rounded down to 0
	octave 1
	note F#, 2
	octave 1
	;note B_, 0 | WARNING: Rounded down to 0
	octave 1
	note F#, 2
	;note F#, 0 | WARNING: Rounded down to 0
	note B_, 2
	octave 1
	;note B_, 0 | WARNING: Rounded down to 0
	octave 1
	note B_, 2
	octave 1
	;note B_, 0 | WARNING: Rounded down to 0
	octave 1
	note B_, 2
	;note F_, 0 | WARNING: Rounded down to 0
	octave 2
	note F_, 2
	octave 1
	;note B_, 0 | WARNING: Rounded down to 0
	octave 1
	note B_, 2
;Bar 15
	;note C#, 0 | WARNING: Rounded down to 0
	note G#, 2
	;note C#, 0 | WARNING: Rounded down to 0
	note G#, 2
	;note F_, 0 | WARNING: Rounded down to 0
	octave 2
	note C#, 2
	octave 1
	;note C#, 0 | WARNING: Rounded down to 0
	note G#, 2
	;note C#, 0 | WARNING: Rounded down to 0
	note G#, 2
	octave 2
	;note C#, 0 | WARNING: Rounded down to 0
	octave 1
	note F#, 2
	;note C#, 0 | WARNING: Rounded down to 0
	note G#, 2
	;note C#, 0 | WARNING: Rounded down to 0
	note G#, 2
;Bar 16
	;note G#, 0 | WARNING: Rounded down to 0
	octave 2
	note C#, 2
	octave 1
	;note C#, 0 | WARNING: Rounded down to 0
	octave 2
	note C#, 2
	octave 1
	;note C#, 0 | WARNING: Rounded down to 0
	octave 2
	note C#, 2
	octave 1
	;note A#, 0 | WARNING: Rounded down to 0
	octave 2
	note F_, 2
	octave 1
	;note C#, 0 | WARNING: Rounded down to 0
	octave 2
	note C#, 2
	octave 1
	;note C#, 0 | WARNING: Rounded down to 0
	octave 2
	note C#, 2
	octave 1
	;note G#, 0 | WARNING: Rounded down to 0
	octave 2
	note D#, 2
	octave 1
	;note C#, 0 | WARNING: Rounded down to 0
	octave 2
	note C#, 2
;Bar 17
	volume_envelope 12, 7
	;note C#, 0 | WARNING: Rounded down to 0
	note F#, 6
	;note F#, 0 | WARNING: Rounded down to 0
	note A#, 4
	;note G#, 0 | WARNING: Rounded down to 0
	octave 3
	note C#, 4
	;note C#, 0 | WARNING: Rounded down to 0
	note F#, 2
;Bar 18
	;note C#, 0 | WARNING: Rounded down to 0
	note F#, 2
	;note C#, 0 | WARNING: Rounded down to 0
	note F#, 2
	octave 2
	;note G#, 0 | WARNING: Rounded down to 0
	octave 3
	note C#, 8
	octave 2
	;note F#, 0 | WARNING: Rounded down to 0
	note B_, 4
;Bar 19
	octave 3
	;note D#, 0 | WARNING: Rounded down to 0
	octave 1
	note B_, 2
	octave 3
	;note F#, 0 | WARNING: Rounded down to 0
	octave 2
	note D#, 2
	octave 3
	;note B_, 0 | WARNING: Rounded down to 0
	octave 2
	note F#, 2
	octave 3
	;note D#, 0 | WARNING: Rounded down to 0
	octave 2
	note G#, 2
	octave 3
	;note F#, 0 | WARNING: Rounded down to 0
	octave 1
	note B_, 2
	octave 3
	;note B_, 0 | WARNING: Rounded down to 0
	octave 2
	note D#, 2
	octave 3
	;note D#, 0 | WARNING: Rounded down to 0
	octave 2
	note F#, 2
	octave 3
	;note F#, 0 | WARNING: Rounded down to 0
	octave 2
	note G#, 2
;Bar 20
	octave 3
	;note C#, 0 | WARNING: Rounded down to 0
	octave 2
	note C#, 2
	octave 3
	;note F#, 0 | WARNING: Rounded down to 0
	octave 2
	note F_, 2
	octave 4
	;note C#, 0 | WARNING: Rounded down to 0
	octave 2
	note F#, 2
	octave 3
	;note C#, 0 | WARNING: Rounded down to 0
	octave 2
	note G#, 2
	octave 3
	;note F#, 0 | WARNING: Rounded down to 0
	octave 2
	note C#, 2
	octave 4
	;note C#, 0 | WARNING: Rounded down to 0
	octave 2
	note F_, 2
	octave 3
	;note C#, 0 | WARNING: Rounded down to 0
	octave 2
	note F#, 2
	octave 3
	;note F#, 0 | WARNING: Rounded down to 0
	octave 2
	note G#, 2
;Bar 21
	octave 2
	;note C#, 0 | WARNING: Rounded down to 0
	note F#, 6
	;note F#, 0 | WARNING: Rounded down to 0
	note A#, 4
	;note G#, 0 | WARNING: Rounded down to 0
	octave 3
	note C#, 4
	;note C#, 0 | WARNING: Rounded down to 0
	note F_, 2
;Bar 22
	note C#, 2
	;note C#, 0 | WARNING: Rounded down to 0
	note F#, 2
	octave 2
	;note G#, 0 | WARNING: Rounded down to 0
	octave 3
	note C#, 8
	octave 2
	;note F#, 0 | WARNING: Rounded down to 0
	note B_, 4
;Bar 23
	octave 3
	;note D#, 0 | WARNING: Rounded down to 0
	octave 1
	note B_, 2
	octave 3
	;note F#, 0 | WARNING: Rounded down to 0
	octave 2
	note D#, 2
	octave 3
	;note B_, 0 | WARNING: Rounded down to 0
	octave 2
	note F#, 2
	octave 3
	;note D#, 0 | WARNING: Rounded down to 0
	octave 2
	note G#, 2
	octave 3
	;note F#, 0 | WARNING: Rounded down to 0
	octave 1
	note B_, 2
	octave 3
	;note B_, 0 | WARNING: Rounded down to 0
	octave 2
	note D#, 2
	octave 3
	;note D#, 0 | WARNING: Rounded down to 0
	octave 2
	note F#, 2
	octave 3
	;note F#, 0 | WARNING: Rounded down to 0
	octave 2
	note G#, 2
;Bar 24
	octave 3
	;note C#, 0 | WARNING: Rounded down to 0
	octave 2
	note C#, 2
	octave 3
	;note F#, 0 | WARNING: Rounded down to 0
	octave 2
	note F_, 2
	octave 4
	;note C#, 0 | WARNING: Rounded down to 0
	octave 2
	note F#, 2
	octave 3
	;note C#, 0 | WARNING: Rounded down to 0
	octave 2
	note G#, 2
	octave 3
	;note F#, 0 | WARNING: Rounded down to 0
	octave 2
	note C#, 2
	octave 4
	;note C#, 0 | WARNING: Rounded down to 0
	octave 2
	note F_, 2
	octave 3
	;note C#, 0 | WARNING: Rounded down to 0
	octave 2
	note F#, 2
	octave 3
	;note F#, 0 | WARNING: Rounded down to 0
	octave 2
	note G#, 1
	octave 3
	note D#, 1
;Bar 25
	octave 1
	volume_envelope 11, 7
	;note D#, 0 | WARNING: Rounded down to 0
	note A#, 2
	;note D#, 0 | WARNING: Rounded down to 0
	note A#, 2
	;note F_, 0 | WARNING: Rounded down to 0
	octave 2
	note F_, 2
	octave 1
	;note D#, 0 | WARNING: Rounded down to 0
	note A#, 2
	;note D#, 0 | WARNING: Rounded down to 0
	note A#, 2
	;note F#, 0 | WARNING: Rounded down to 0
	octave 2
	note F#, 2
	octave 1
	;note D#, 0 | WARNING: Rounded down to 0
	note A#, 2
	;note D#, 0 | WARNING: Rounded down to 0
	note A#, 2
;Bar 26
	;note G#, 0 | WARNING: Rounded down to 0
	octave 2
	note G#, 2
	octave 1
	;note D#, 0 | WARNING: Rounded down to 0
	note A#, 2
	;note D#, 0 | WARNING: Rounded down to 0
	note A#, 2
	;note A#, 0 | WARNING: Rounded down to 0
	octave 2
	note D#, 2
	octave 1
	;note D#, 0 | WARNING: Rounded down to 0
	octave 2
	note D#, 2
	octave 1
	;note D#, 0 | WARNING: Rounded down to 0
	octave 2
	note D#, 2
	octave 1
	;note G#, 0 | WARNING: Rounded down to 0
	octave 2
	note G#, 2
	octave 1
	;note D#, 0 | WARNING: Rounded down to 0
	octave 2
	note D#, 2
;Bar 27
	octave 1
	;note A#, 0 | WARNING: Rounded down to 0
	note D#, 2
	;note D#, 0 | WARNING: Rounded down to 0
	note A#, 2
	;note F_, 0 | WARNING: Rounded down to 0
	octave 2
	note F_, 2
	octave 1
	;note D#, 0 | WARNING: Rounded down to 0
	note A#, 2
	;note D#, 0 | WARNING: Rounded down to 0
	note A#, 2
	;note F#, 0 | WARNING: Rounded down to 0
	octave 2
	note F#, 2
	octave 1
	;note D#, 0 | WARNING: Rounded down to 0
	note A#, 2
	;note D#, 0 | WARNING: Rounded down to 0
	note A#, 2
;Bar 28
	;note G#, 0 | WARNING: Rounded down to 0
	octave 2
	note G#, 2
	octave 1
	;note D#, 0 | WARNING: Rounded down to 0
	note A#, 2
	;note D#, 0 | WARNING: Rounded down to 0
	note A#, 2
	;note A#, 0 | WARNING: Rounded down to 0
	octave 2
	note D#, 2
	octave 1
	;note D#, 0 | WARNING: Rounded down to 0
	octave 2
	note D#, 2
	octave 1
	;note D#, 0 | WARNING: Rounded down to 0
	octave 2
	note D#, 2
	octave 1
	;note G#, 0 | WARNING: Rounded down to 0
	octave 2
	note G#, 2
	octave 1
	;note D#, 0 | WARNING: Rounded down to 0
	octave 2
	note D#, 2
;Bar 29
	octave 1
	;note B_, 0 | WARNING: Rounded down to 0
	octave 1
	note F#, 2
	octave 1
	;note B_, 0 | WARNING: Rounded down to 0
	octave 1
	note F#, 2
	;note D#, 0 | WARNING: Rounded down to 0
	octave 2
	note D#, 2
	octave 1
	;note B_, 0 | WARNING: Rounded down to 0
	octave 1
	note F#, 2
	octave 1
	;note B_, 0 | WARNING: Rounded down to 0
	octave 1
	note F#, 2
	;note F_, 0 | WARNING: Rounded down to 0
	octave 2
	note F_, 2
	octave 1
	;note B_, 0 | WARNING: Rounded down to 0
	octave 1
	note F#, 2
	octave 1
	;note B_, 0 | WARNING: Rounded down to 0
	octave 1
	note F#, 2
;Bar 30
	;note F#, 0 | WARNING: Rounded down to 0
	octave 2
	note F#, 2
	octave 1
	;note B_, 0 | WARNING: Rounded down to 0
	octave 1
	note F#, 2
	octave 1
	;note B_, 0 | WARNING: Rounded down to 0
	octave 1
	note F#, 2
	;note F#, 0 | WARNING: Rounded down to 0
	note B_, 2
	octave 1
	;note B_, 0 | WARNING: Rounded down to 0
	octave 1
	note B_, 2
	octave 1
	;note B_, 0 | WARNING: Rounded down to 0
	octave 1
	note B_, 2
	;note F_, 0 | WARNING: Rounded down to 0
	octave 2
	note F_, 2
	octave 1
	;note B_, 0 | WARNING: Rounded down to 0
	octave 1
	note B_, 2
;Bar 31
	;note C#, 0 | WARNING: Rounded down to 0
	note G#, 2
	;note C#, 0 | WARNING: Rounded down to 0
	note G#, 2
	;note F_, 0 | WARNING: Rounded down to 0
	octave 2
	note C#, 2
	octave 1
	;note C#, 0 | WARNING: Rounded down to 0
	note G#, 2
	;note C#, 0 | WARNING: Rounded down to 0
	note G#, 2
	octave 2
	;note C#, 0 | WARNING: Rounded down to 0
	octave 1
	note F#, 2
	;note C#, 0 | WARNING: Rounded down to 0
	note G#, 2
	;note C#, 0 | WARNING: Rounded down to 0
	note G#, 2
;Bar 32
	;note G#, 0 | WARNING: Rounded down to 0
	octave 2
	note C#, 2
	octave 1
	;note C#, 0 | WARNING: Rounded down to 0
	octave 2
	note C#, 2
	octave 1
	;note C#, 0 | WARNING: Rounded down to 0
	octave 2
	note C#, 2
	octave 1
	;note A#, 0 | WARNING: Rounded down to 0
	octave 2
	note F_, 2
	octave 1
	;note C#, 0 | WARNING: Rounded down to 0
	octave 2
	note C#, 2
	octave 1
	;note C#, 0 | WARNING: Rounded down to 0
	octave 2
	note C#, 2
	octave 1
	;note G#, 0 | WARNING: Rounded down to 0
	octave 2
	note D#, 2
	octave 1
	;note C#, 0 | WARNING: Rounded down to 0
	octave 2
	note C#, 2
;Bar 33
	octave 1
	;note D#, 0 | WARNING: Rounded down to 0
	note A#, 2
	;note D#, 0 | WARNING: Rounded down to 0
	note A#, 2
	;note F_, 0 | WARNING: Rounded down to 0
	octave 2
	note F_, 2
	octave 1
	;note D#, 0 | WARNING: Rounded down to 0
	note A#, 2
	;note D#, 0 | WARNING: Rounded down to 0
	note A#, 2
	;note F#, 0 | WARNING: Rounded down to 0
	octave 2
	note F#, 2
	octave 1
	;note D#, 0 | WARNING: Rounded down to 0
	note A#, 2
	;note D#, 0 | WARNING: Rounded down to 0
	note A#, 2
;Bar 34
	;note G#, 0 | WARNING: Rounded down to 0
	octave 2
	note G#, 2
	octave 1
	;note D#, 0 | WARNING: Rounded down to 0
	note A#, 2
	;note D#, 0 | WARNING: Rounded down to 0
	note A#, 2
	;note A#, 0 | WARNING: Rounded down to 0
	octave 2
	note D#, 2
	octave 1
	;note D#, 0 | WARNING: Rounded down to 0
	octave 2
	note D#, 2
	octave 1
	;note D#, 0 | WARNING: Rounded down to 0
	octave 2
	note D#, 2
	octave 1
	;note G#, 0 | WARNING: Rounded down to 0
	octave 2
	note G#, 2
	octave 1
	;note D#, 0 | WARNING: Rounded down to 0
	octave 2
	note D#, 2
;Bar 35
	octave 1
	;note A#, 0 | WARNING: Rounded down to 0
	note D#, 2
	;note D#, 0 | WARNING: Rounded down to 0
	note A#, 2
	;note F_, 0 | WARNING: Rounded down to 0
	octave 2
	note F_, 2
	octave 1
	;note D#, 0 | WARNING: Rounded down to 0
	note A#, 2
	;note D#, 0 | WARNING: Rounded down to 0
	note A#, 2
	;note F#, 0 | WARNING: Rounded down to 0
	octave 2
	note F#, 2
	octave 1
	;note D#, 0 | WARNING: Rounded down to 0
	note A#, 2
	;note D#, 0 | WARNING: Rounded down to 0
	note A#, 2
;Bar 36
	;note G#, 0 | WARNING: Rounded down to 0
	octave 2
	note G#, 2
	octave 1
	;note D#, 0 | WARNING: Rounded down to 0
	note A#, 2
	;note D#, 0 | WARNING: Rounded down to 0
	note A#, 2
	;note A#, 0 | WARNING: Rounded down to 0
	octave 2
	note D#, 2
	octave 1
	;note D#, 0 | WARNING: Rounded down to 0
	octave 2
	note D#, 2
	octave 1
	;note D#, 0 | WARNING: Rounded down to 0
	octave 2
	note D#, 2
	octave 1
	;note G#, 0 | WARNING: Rounded down to 0
	octave 2
	note G#, 2
	octave 1
	;note D#, 0 | WARNING: Rounded down to 0
	octave 2
	note D#, 2
;Bar 37
	octave 1
	;note B_, 0 | WARNING: Rounded down to 0
	octave 1
	note F#, 2
	octave 1
	;note B_, 0 | WARNING: Rounded down to 0
	octave 1
	note F#, 2
	;note D#, 0 | WARNING: Rounded down to 0
	octave 2
	note D#, 2
	octave 1
	;note B_, 0 | WARNING: Rounded down to 0
	octave 1
	note F#, 2
	octave 1
	;note B_, 0 | WARNING: Rounded down to 0
	octave 1
	note F#, 2
	;note F_, 0 | WARNING: Rounded down to 0
	octave 2
	note F_, 2
	octave 1
	;note B_, 0 | WARNING: Rounded down to 0
	octave 1
	note F#, 2
	octave 1
	;note B_, 0 | WARNING: Rounded down to 0
	octave 1
	note F#, 2
;Bar 38
	;note F#, 0 | WARNING: Rounded down to 0
	octave 2
	note F#, 2
	octave 1
	;note B_, 0 | WARNING: Rounded down to 0
	octave 1
	note F#, 2
	octave 1
	;note B_, 0 | WARNING: Rounded down to 0
	octave 1
	note F#, 2
	;note F#, 0 | WARNING: Rounded down to 0
	note B_, 2
	octave 1
	;note B_, 0 | WARNING: Rounded down to 0
	octave 1
	note B_, 2
	octave 1
	;note B_, 0 | WARNING: Rounded down to 0
	octave 1
	note B_, 2
	;note F_, 0 | WARNING: Rounded down to 0
	octave 2
	note F_, 2
	octave 1
	;note B_, 0 | WARNING: Rounded down to 0
	octave 1
	note B_, 2
;Bar 39
	;note C#, 0 | WARNING: Rounded down to 0
	note G#, 2
	;note C#, 0 | WARNING: Rounded down to 0
	note G#, 2
	;note F_, 0 | WARNING: Rounded down to 0
	octave 2
	note C#, 2
	octave 1
	;note C#, 0 | WARNING: Rounded down to 0
	note G#, 2
	;note C#, 0 | WARNING: Rounded down to 0
	note G#, 2
	octave 2
	;note C#, 0 | WARNING: Rounded down to 0
	octave 1
	note F#, 2
	;note C#, 0 | WARNING: Rounded down to 0
	note G#, 2
	;note C#, 0 | WARNING: Rounded down to 0
	note G#, 2
;Bar 40
	;note G#, 0 | WARNING: Rounded down to 0
	octave 2
	note C#, 2
	octave 1
	;note C#, 0 | WARNING: Rounded down to 0
	octave 2
	note C#, 2
	octave 1
	;note C#, 0 | WARNING: Rounded down to 0
	octave 2
	note C#, 2
	octave 1
	;note A#, 0 | WARNING: Rounded down to 0
	octave 2
	note F_, 2
	octave 1
	;note C#, 0 | WARNING: Rounded down to 0
	octave 2
	note C#, 2
	octave 1
	;note C#, 0 | WARNING: Rounded down to 0
	octave 2
	note C#, 2
	octave 1
	;note G#, 0 | WARNING: Rounded down to 0
	octave 2
	note D#, 2
	octave 1
	;note C#, 0 | WARNING: Rounded down to 0
	octave 2
	note C#, 2
;Bar 41
	volume_envelope 12, 7
	;note C#, 0 | WARNING: Rounded down to 0
	note F#, 6
	;note F#, 0 | WARNING: Rounded down to 0
	note A#, 4
	;note G#, 0 | WARNING: Rounded down to 0
	octave 3
	note C#, 4
	;note C#, 0 | WARNING: Rounded down to 0
	note F#, 2
;Bar 42
	;note C#, 0 | WARNING: Rounded down to 0
	note F#, 2
	;note C#, 0 | WARNING: Rounded down to 0
	note F#, 2
	octave 2
	;note G#, 0 | WARNING: Rounded down to 0
	octave 3
	note C#, 8
	octave 2
	;note F#, 0 | WARNING: Rounded down to 0
	note B_, 4
;Bar 43
	octave 3
	;note D#, 0 | WARNING: Rounded down to 0
	octave 1
	note B_, 2
	octave 3
	;note F#, 0 | WARNING: Rounded down to 0
	octave 2
	note D#, 2
	octave 3
	;note B_, 0 | WARNING: Rounded down to 0
	octave 2
	note F#, 2
	octave 3
	;note D#, 0 | WARNING: Rounded down to 0
	octave 2
	note G#, 2
	octave 3
	;note F#, 0 | WARNING: Rounded down to 0
	octave 1
	note B_, 2
	octave 3
	;note B_, 0 | WARNING: Rounded down to 0
	octave 2
	note D#, 2
	octave 3
	;note D#, 0 | WARNING: Rounded down to 0
	octave 2
	note F#, 2
	octave 3
	;note F#, 0 | WARNING: Rounded down to 0
	octave 2
	note G#, 2
;Bar 44
	octave 3
	;note C#, 0 | WARNING: Rounded down to 0
	octave 2
	note C#, 2
	octave 3
	;note F#, 0 | WARNING: Rounded down to 0
	octave 2
	note F_, 2
	octave 4
	;note C#, 0 | WARNING: Rounded down to 0
	octave 2
	note F#, 2
	octave 3
	;note C#, 0 | WARNING: Rounded down to 0
	octave 2
	note G#, 2
	octave 3
	;note F#, 0 | WARNING: Rounded down to 0
	octave 2
	note C#, 2
	octave 4
	;note C#, 0 | WARNING: Rounded down to 0
	octave 2
	note F_, 2
	octave 3
	;note C#, 0 | WARNING: Rounded down to 0
	octave 2
	note F#, 2
	octave 3
	;note F#, 0 | WARNING: Rounded down to 0
	octave 2
	note G#, 2
;Bar 45
	octave 2
	;note C#, 0 | WARNING: Rounded down to 0
	note F#, 6
	;note F#, 0 | WARNING: Rounded down to 0
	note A#, 4
	;note G#, 0 | WARNING: Rounded down to 0
	octave 3
	note C#, 4
	;note C#, 0 | WARNING: Rounded down to 0
	note F_, 2
;Bar 46
	note C#, 2
	;note C#, 0 | WARNING: Rounded down to 0
	note F#, 2
	octave 2
	;note G#, 0 | WARNING: Rounded down to 0
	octave 3
	note C#, 8
	octave 2
	;note F#, 0 | WARNING: Rounded down to 0
	note B_, 4
;Bar 47
	octave 3
	;note D#, 0 | WARNING: Rounded down to 0
	octave 1
	note B_, 2
	octave 3
	;note F#, 0 | WARNING: Rounded down to 0
	octave 2
	note D#, 2
	octave 3
	;note B_, 0 | WARNING: Rounded down to 0
	octave 2
	note F#, 2
	octave 3
	;note D#, 0 | WARNING: Rounded down to 0
	octave 2
	note G#, 2
	octave 3
	;note F#, 0 | WARNING: Rounded down to 0
	octave 1
	note B_, 2
	octave 3
	;note B_, 0 | WARNING: Rounded down to 0
	octave 2
	note D#, 2
	octave 3
	;note D#, 0 | WARNING: Rounded down to 0
	octave 2
	note F#, 2
	octave 3
	;note F#, 0 | WARNING: Rounded down to 0
	octave 2
	note G#, 2
;Bar 48
	octave 3
	;note C#, 0 | WARNING: Rounded down to 0
	octave 2
	note C#, 2
	octave 3
	;note F#, 0 | WARNING: Rounded down to 0
	octave 2
	note F_, 2
	octave 4
	;note C#, 0 | WARNING: Rounded down to 0
	octave 2
	note F#, 2
	octave 3
	;note C#, 0 | WARNING: Rounded down to 0
	octave 2
	note G#, 2
	octave 3
	;note F#, 0 | WARNING: Rounded down to 0
	octave 2
	note C#, 2
	octave 4
	;note C#, 0 | WARNING: Rounded down to 0
	octave 2
	note F_, 2
	octave 3
	;note C#, 0 | WARNING: Rounded down to 0
	octave 2
	note F#, 2
	octave 3
	;note F#, 0 | WARNING: Rounded down to 0
	octave 2
	note G#, 2
	sound_loop 0, .mainloop

; ============================================================================================================

Music_WildEncounter_Ch2:
	duty_cycle 1
	note_type 12, 10, 7
.mainloop
;Bar 1
	volume_envelope 10, 7
	rest 16
	rest 16
	rest 16
	rest 16
	rest 16
	rest 16
	rest 16
	rest 16
	rest 16
	rest 16
	rest 16
	rest 16
	rest 16
	rest 16
	rest 16
	rest 16
	rest 16
	rest 16
	rest 16
	rest 16
	rest 16
	rest 16
	rest 16
	rest 16
	rest 4
;Bar 25
	octave 5
	note F#, 4
	note F_, 2
	note F#, 4
	note G#, 6
;Bar 26
	note F#, 4
	note F_, 2
	note F#, 6
;Bar 27
	rest 4
	note F#, 4
	note F_, 2
	note F#, 4
	note G#, 6
;Bar 28
	note F#, 4
	note F_, 2
	note F#, 4
	octave 4
	note B_, 16
	note B_, 10
;Bar 30
	note B_, 2
	octave 5
	note C#, 2
	note D#, 4
;Bar 31
	note D_, 16
;Bar 32
	note F_, 8
	octave 5
	volume_envelope 8, 7
	;note D_, 0 | WARNING: Rounded down to 0
	;note A_, 0 | WARNING: Rounded down to 0
	octave 5
	note C#, 4
	octave 5
	;note F_, 0 | WARNING: Rounded down to 0
	octave 5
	;note C_, 0 | WARNING: Rounded down to 0
	note D#, 4
;Bar 33
	rest 4
	octave 5
	volume_envelope 12, 7
	note F#, 4
	note F_, 2
	note F#, 4
	note G#, 6
;Bar 34
	note F#, 4
	note F_, 2
	note F#, 6
;Bar 35
	rest 4
	note F#, 4
	note F_, 2
	note F#, 4
	note G#, 6
;Bar 36
	note F#, 4
	note F_, 2
	note F#, 4
	octave 4
	note B_, 16
	note B_, 10
;Bar 38
	note B_, 2
	octave 5
	note C#, 2
	note D#, 4
;Bar 39
	note D_, 16
;Bar 40
	note F_, 8
	octave 5
	volume_envelope 8, 7
	;note D_, 0 | WARNING: Rounded down to 0
	;note A_, 0 | WARNING: Rounded down to 0
	octave 5
	note D_, 4
	octave 5
	;note F_, 0 | WARNING: Rounded down to 0
	octave 5
	;note C_, 0 | WARNING: Rounded down to 0
	note F_, 4
;Bar 41
	rest 16
	rest 16
;Bar 43
	octave 3
	note B_, 2
	octave 4
	note F#, 2
	note B_, 2
	octave 3
	note B_, 2
	octave 4
	note F#, 2
	note B_, 2
	octave 3
	note B_, 2
	octave 4
	note F#, 2
;Bar 44
	note C#, 2
	note G#, 2
	octave 5
	note C#, 2
	octave 4
	note C#, 2
	note G#, 2
	octave 5
	note C#, 2
	octave 4
	note C#, 2
	note G#, 2
;Bar 45
	rest 16
	rest 16
;Bar 47
	octave 3
	note B_, 2
	octave 4
	note F#, 2
	note B_, 2
	octave 3
	note B_, 2
	octave 4
	note F#, 2
	note B_, 2
	octave 3
	note B_, 2
	octave 4
	note F#, 2
;Bar 48
	note C#, 2
	note G#, 2
	octave 5
	note C#, 2
	octave 4
	note C#, 2
	note G#, 2
	octave 5
	note C#, 2
	octave 4
	note C#, 2
	note G#, 2
	sound_loop 0, .mainloop

; ============================================================================================================

Music_WildEncounter_Ch3:
	note_type 12, 1, 0
.mainloop
;Bar 1
	octave 2
	volume_envelope 1, 0
	note D#, 1
	rest 1
	note D#, 4
	note D#, 4
	note D#, 4
	note D#, 2
;Bar 2
	note D#, 1
	rest 1
	note D#, 4
	note D#, 6
	note D#, 4
;Bar 3
	octave 1
	note B_, 1
	rest 1
	note B_, 4
	note B_, 4
	note B_, 4
	note B_, 2
;Bar 4
	note B_, 1
	rest 1
	note B_, 4
	note B_, 6
	note B_, 4
;Bar 5
	note G#, 1
	rest 1
	note G#, 4
	note G#, 4
	note G#, 4
	note G#, 2
;Bar 6
	note G#, 1
	rest 1
	note G#, 4
	note G#, 6
	note G#, 4
;Bar 7
	note A#, 1
	rest 1
	note A#, 4
	note A#, 4
	note A#, 4
	note A#, 2
;Bar 8
	note A#, 1
	rest 1
	note A#, 4
	note A#, 6
	note A#, 4
;Bar 9
	octave 2
	note D#, 1
	rest 1
	note D#, 4
	note D#, 4
	note D#, 4
	note D#, 2
;Bar 10
	note D#, 1
	rest 1
	note D#, 4
	note D#, 6
	note D#, 4
;Bar 11
	octave 1
	note B_, 1
	rest 1
	note B_, 4
	note B_, 4
	note B_, 4
	note B_, 2
;Bar 12
	note B_, 1
	rest 1
	note B_, 4
	note B_, 6
	note B_, 4
;Bar 13
	note G#, 1
	rest 1
	note G#, 4
	note G#, 4
	note G#, 4
	note G#, 2
;Bar 14
	note G#, 1
	rest 1
	note G#, 4
	note G#, 6
	note G#, 4
;Bar 15
	note A#, 1
	rest 1
	note A#, 4
	note A#, 4
	note A#, 4
	note A#, 2
;Bar 16
	note A#, 1
	rest 1
	note A#, 4
	note A#, 6
	note A#, 4
;Bar 17
	;note F#, 0 | WARNING: Rounded down to 0
	octave 2
	note F#, 8
	octave 1
	;note F_, 0 | WARNING: Rounded down to 0
	octave 2
	note F_, 2
	note F_, 4
	octave 1
	;note D#, 0 | WARNING: Rounded down to 0
	octave 2
	note D#, 2
;Bar 18
	rest 2
	note D#, 2
	octave 1
	;note C#, 0 | WARNING: Rounded down to 0
	octave 2
	note C#, 12
;Bar 19
	octave 1
	;note B_, 0 | WARNING: Rounded down to 0
	octave 1
	note B_, 1
	rest 1
	note B_, 4
	note B_, 4
	note B_, 4
	note B_, 2
;Bar 20
	;note C#, 0 | WARNING: Rounded down to 0
	octave 2
	note C#, 1
	rest 1
	note C#, 4
	note C#, 6
	note C#, 4
;Bar 21
	octave 1
	;note F#, 0 | WARNING: Rounded down to 0
	octave 2
	note F#, 8
	octave 1
	;note F_, 0 | WARNING: Rounded down to 0
	octave 2
	note F_, 2
	note F_, 4
	octave 1
	;note D#, 0 | WARNING: Rounded down to 0
	octave 2
	note D#, 2
;Bar 22
	rest 2
	note D#, 2
	octave 1
	;note C#, 0 | WARNING: Rounded down to 0
	octave 2
	note C#, 12
;Bar 23
	octave 1
	;note B_, 0 | WARNING: Rounded down to 0
	octave 1
	note B_, 1
	rest 1
	note B_, 4
	note B_, 4
	note B_, 4
	note B_, 2
;Bar 24
	;note C#, 0 | WARNING: Rounded down to 0
	octave 2
	note C#, 1
	rest 1
	note C#, 4
	note C#, 6
	note C#, 4
;Bar 25
	note D#, 1
	rest 1
	note D#, 4
	note D#, 4
	note D#, 4
	note D#, 2
;Bar 26
	note D#, 1
	rest 1
	note D#, 4
	note D#, 6
	note D#, 4
;Bar 27
	octave 1
	note B_, 1
	rest 1
	note B_, 4
	note B_, 4
	note B_, 4
	note B_, 2
;Bar 28
	note B_, 1
	rest 1
	note B_, 4
	note B_, 6
	note B_, 4
;Bar 29
	note G#, 1
	rest 1
	note G#, 4
	note G#, 4
	note G#, 4
	note G#, 2
;Bar 30
	note G#, 1
	rest 1
	note G#, 4
	note G#, 6
	note G#, 4
;Bar 31
	note A#, 1
	rest 1
	note A#, 4
	note A#, 4
	note A#, 4
	note A#, 2
;Bar 32
	note A#, 1
	rest 1
	note A#, 4
	note A#, 6
	note A#, 4
;Bar 33
	octave 2
	note D#, 1
	rest 1
	note D#, 4
	note D#, 4
	note D#, 4
	note D#, 2
;Bar 34
	note D#, 1
	rest 1
	note D#, 4
	note D#, 6
	note D#, 4
;Bar 35
	octave 1
	note B_, 1
	rest 1
	note B_, 4
	note B_, 4
	note B_, 4
	note B_, 2
;Bar 36
	note B_, 1
	rest 1
	note B_, 4
	note B_, 6
	note B_, 4
;Bar 37
	note G#, 1
	rest 1
	note G#, 4
	note G#, 4
	note G#, 4
	note G#, 2
;Bar 38
	note G#, 1
	rest 1
	note G#, 4
	note G#, 6
	note G#, 4
;Bar 39
	note A#, 1
	rest 1
	note A#, 4
	note A#, 4
	note A#, 4
	note A#, 2
;Bar 40
	note A#, 1
	rest 1
	note A#, 4
	note A#, 6
	note A#, 4
;Bar 41
	;note F#, 0 | WARNING: Rounded down to 0
	octave 2
	note F#, 8
	octave 1
	;note F_, 0 | WARNING: Rounded down to 0
	octave 2
	note F_, 2
	note F_, 4
	octave 1
	;note D#, 0 | WARNING: Rounded down to 0
	octave 2
	note D#, 2
;Bar 42
	rest 2
	note D#, 2
	octave 1
	;note C#, 0 | WARNING: Rounded down to 0
	octave 2
	note C#, 12
;Bar 43
	octave 1
	;note B_, 0 | WARNING: Rounded down to 0
	octave 1
	note B_, 1
	rest 1
	note B_, 4
	note B_, 4
	note B_, 4
	note B_, 2
;Bar 44
	;note C#, 0 | WARNING: Rounded down to 0
	octave 2
	note C#, 1
	rest 1
	note C#, 4
	note C#, 6
	note C#, 4
;Bar 45
	octave 1
	;note F#, 0 | WARNING: Rounded down to 0
	octave 2
	note F#, 8
	octave 1
	;note F_, 0 | WARNING: Rounded down to 0
	octave 2
	note F_, 2
	note F_, 4
	octave 1
	;note D#, 0 | WARNING: Rounded down to 0
	octave 2
	note D#, 2
;Bar 46
	rest 2
	note D#, 2
	octave 1
	;note C#, 0 | WARNING: Rounded down to 0
	octave 2
	note C#, 12
;Bar 47
	octave 1
	;note B_, 0 | WARNING: Rounded down to 0
	octave 1
	note B_, 1
	rest 1
	note B_, 4
	note B_, 4
	note B_, 4
	note B_, 2
;Bar 48
	;note C#, 0 | WARNING: Rounded down to 0
	octave 2
	note C#, 1
	rest 1
	note C#, 4
	note C#, 6
	note C#, 4
	sound_loop 0, .mainloop

; ============================================================================================================

Music_WildEncounter_Ch4:
	toggle_noise 1
	drum_speed 12
.mainloop
;Bar 1
	rest 16
	rest 16
	rest 16
	rest 16
	rest 16
	rest 16
	rest 16
	rest 16
;Bar 9
	;note C_, 0 | WARNING: Rounded down to 0
	;note F#, 0 | WARNING: Rounded down to 0
	;note F_, 0 | WARNING: Rounded down to 0
	;note C#, 0 | WARNING: Rounded down to 0
	drum_note 10, 2
	;note C_, 0 | WARNING: Rounded down to 0
	drum_note 11, 2
	;note F#, 0 | WARNING: Rounded down to 0
	drum_note 5, 2
	;note A#, 0 | WARNING: Rounded down to 0
	drum_note 6, 2
	;note C_, 0 | WARNING: Rounded down to 0
	drum_note 7, 2
	drum_note 11, 2
	;note F#, 0 | WARNING: Rounded down to 0
	drum_note 5, 2
	;note C_, 0 | WARNING: Rounded down to 0
	;note A#, 0 | WARNING: Rounded down to 0
	drum_note 6, 2
;Bar 10
	;note C_, 0 | WARNING: Rounded down to 0
	;note F#, 0 | WARNING: Rounded down to 0
	drum_note 6, 2
	;note C_, 0 | WARNING: Rounded down to 0
	drum_note 11, 2
	;note F#, 0 | WARNING: Rounded down to 0
	drum_note 5, 2
	;note A#, 0 | WARNING: Rounded down to 0
	drum_note 6, 2
	;note C_, 0 | WARNING: Rounded down to 0
	drum_note 7, 2
	drum_note 11, 2
	;note F#, 0 | WARNING: Rounded down to 0
	drum_note 5, 1
	;note C_, 0 | WARNING: Rounded down to 0
	drum_note 10, 1
	;note A#, 0 | WARNING: Rounded down to 0
	;note C_, 0 | WARNING: Rounded down to 0
	;note G_, 0 | WARNING: Rounded down to 0
	drum_note 5, 2
;Bar 11
	;note C_, 0 | WARNING: Rounded down to 0
	;note F#, 0 | WARNING: Rounded down to 0
	drum_note 6, 2
	;note C_, 0 | WARNING: Rounded down to 0
	drum_note 11, 2
	;note F#, 0 | WARNING: Rounded down to 0
	drum_note 5, 2
	;note A#, 0 | WARNING: Rounded down to 0
	drum_note 6, 2
	;note C_, 0 | WARNING: Rounded down to 0
	drum_note 7, 2
	drum_note 11, 2
	;note F#, 0 | WARNING: Rounded down to 0
	drum_note 5, 2
	;note C_, 0 | WARNING: Rounded down to 0
	;note A#, 0 | WARNING: Rounded down to 0
	drum_note 6, 2
;Bar 12
	;note C_, 0 | WARNING: Rounded down to 0
	;note F#, 0 | WARNING: Rounded down to 0
	drum_note 6, 2
	;note C_, 0 | WARNING: Rounded down to 0
	drum_note 11, 2
	;note F#, 0 | WARNING: Rounded down to 0
	drum_note 5, 2
	;note A#, 0 | WARNING: Rounded down to 0
	drum_note 6, 2
	;note C_, 0 | WARNING: Rounded down to 0
	drum_note 7, 2
	drum_note 11, 2
	;note F#, 0 | WARNING: Rounded down to 0
	drum_note 5, 1
	;note C_, 0 | WARNING: Rounded down to 0
	drum_note 10, 1
	;note A#, 0 | WARNING: Rounded down to 0
	;note C_, 0 | WARNING: Rounded down to 0
	;note G_, 0 | WARNING: Rounded down to 0
	drum_note 5, 2
;Bar 13
	;note C_, 0 | WARNING: Rounded down to 0
	;note F#, 0 | WARNING: Rounded down to 0
	drum_note 6, 2
	;note C_, 0 | WARNING: Rounded down to 0
	drum_note 11, 2
	;note F#, 0 | WARNING: Rounded down to 0
	;note E_, 0 | WARNING: Rounded down to 0
	drum_note 5, 2
	;note A#, 0 | WARNING: Rounded down to 0
	drum_note 6, 2
	;note C_, 0 | WARNING: Rounded down to 0
	drum_note 7, 2
	;note A#, 0 | WARNING: Rounded down to 0
	drum_note 5, 2
	;note F#, 0 | WARNING: Rounded down to 0
	drum_note 5, 2
	;note C_, 0 | WARNING: Rounded down to 0
	;note A#, 0 | WARNING: Rounded down to 0
	;note F_, 0 | WARNING: Rounded down to 0
	drum_note 5, 2
;Bar 14
	;note C_, 0 | WARNING: Rounded down to 0
	;note F#, 0 | WARNING: Rounded down to 0
	drum_note 6, 2
	;note C_, 0 | WARNING: Rounded down to 0
	drum_note 11, 2
	;note F#, 0 | WARNING: Rounded down to 0
	;note E_, 0 | WARNING: Rounded down to 0
	drum_note 5, 2
	;note A#, 0 | WARNING: Rounded down to 0
	drum_note 6, 2
	;note C_, 0 | WARNING: Rounded down to 0
	drum_note 7, 2
	;note A#, 0 | WARNING: Rounded down to 0
	drum_note 5, 2
	;note F#, 0 | WARNING: Rounded down to 0
	drum_note 5, 1
	;note C_, 0 | WARNING: Rounded down to 0
	drum_note 10, 1
	;note A#, 0 | WARNING: Rounded down to 0
	;note C_, 0 | WARNING: Rounded down to 0
	;note G_, 0 | WARNING: Rounded down to 0
	drum_note 5, 2
;Bar 15
	;note C_, 0 | WARNING: Rounded down to 0
	;note F#, 0 | WARNING: Rounded down to 0
	drum_note 6, 2
	;note C_, 0 | WARNING: Rounded down to 0
	drum_note 11, 2
	;note F#, 0 | WARNING: Rounded down to 0
	;note E_, 0 | WARNING: Rounded down to 0
	drum_note 5, 2
	;note A#, 0 | WARNING: Rounded down to 0
	drum_note 6, 2
	;note C_, 0 | WARNING: Rounded down to 0
	drum_note 7, 2
	;note A#, 0 | WARNING: Rounded down to 0
	drum_note 5, 2
	;note F#, 0 | WARNING: Rounded down to 0
	drum_note 5, 2
	;note C_, 0 | WARNING: Rounded down to 0
	;note A#, 0 | WARNING: Rounded down to 0
	;note F_, 0 | WARNING: Rounded down to 0
	drum_note 5, 2
;Bar 16
	;note C_, 0 | WARNING: Rounded down to 0
	;note F#, 0 | WARNING: Rounded down to 0
	;note F_, 0 | WARNING: Rounded down to 0
	drum_note 3, 2
	;note C_, 0 | WARNING: Rounded down to 0
	;note A#, 0 | WARNING: Rounded down to 0
	drum_note 1, 1
	drum_note 12, 1
	;note F#, 0 | WARNING: Rounded down to 0
	;note E_, 0 | WARNING: Rounded down to 0
	drum_note 1, 2
	;note A#, 0 | WARNING: Rounded down to 0
	;note F_, 0 | WARNING: Rounded down to 0
	drum_note 10, 2
	;note C_, 0 | WARNING: Rounded down to 0
	;note F#, 0 | WARNING: Rounded down to 0
	drum_note 1, 1
	drum_note 1, 1
	;note A#, 0 | WARNING: Rounded down to 0
	drum_note 12, 1
	drum_note 12, 1
	;note F#, 0 | WARNING: Rounded down to 0
	;note E_, 0 | WARNING: Rounded down to 0
	drum_note 10, 1
	;note C_, 0 | WARNING: Rounded down to 0
	drum_note 10, 1
	;note A#, 0 | WARNING: Rounded down to 0
	;note C_, 0 | WARNING: Rounded down to 0
	drum_note 8, 1
	drum_note 8, 1
;Bar 17
	;note C_, 0 | WARNING: Rounded down to 0
	;note F#, 0 | WARNING: Rounded down to 0
	;note F_, 0 | WARNING: Rounded down to 0
	;note C#, 0 | WARNING: Rounded down to 0
	drum_note 10, 2
	;note C_, 0 | WARNING: Rounded down to 0
	drum_note 11, 2
	;note F#, 0 | WARNING: Rounded down to 0
	drum_note 5, 2
	;note A#, 0 | WARNING: Rounded down to 0
	drum_note 6, 2
	;note C_, 0 | WARNING: Rounded down to 0
	drum_note 7, 2
	drum_note 11, 2
	;note F#, 0 | WARNING: Rounded down to 0
	drum_note 5, 2
	;note C_, 0 | WARNING: Rounded down to 0
	;note A#, 0 | WARNING: Rounded down to 0
	drum_note 6, 2
;Bar 18
	;note C_, 0 | WARNING: Rounded down to 0
	;note F#, 0 | WARNING: Rounded down to 0
	drum_note 6, 2
	;note C_, 0 | WARNING: Rounded down to 0
	drum_note 11, 2
	;note F#, 0 | WARNING: Rounded down to 0
	drum_note 5, 2
	;note A#, 0 | WARNING: Rounded down to 0
	drum_note 6, 2
	;note C_, 0 | WARNING: Rounded down to 0
	drum_note 7, 2
	drum_note 11, 2
	;note F#, 0 | WARNING: Rounded down to 0
	drum_note 5, 1
	;note C_, 0 | WARNING: Rounded down to 0
	drum_note 10, 1
	;note A#, 0 | WARNING: Rounded down to 0
	;note C_, 0 | WARNING: Rounded down to 0
	;note G_, 0 | WARNING: Rounded down to 0
	drum_note 5, 2
;Bar 19
	;note C_, 0 | WARNING: Rounded down to 0
	;note F#, 0 | WARNING: Rounded down to 0
	drum_note 6, 2
	;note C_, 0 | WARNING: Rounded down to 0
	drum_note 11, 2
	;note F#, 0 | WARNING: Rounded down to 0
	drum_note 5, 2
	;note A#, 0 | WARNING: Rounded down to 0
	drum_note 6, 2
	;note C_, 0 | WARNING: Rounded down to 0
	drum_note 7, 2
	drum_note 11, 2
	;note F#, 0 | WARNING: Rounded down to 0
	drum_note 5, 2
	;note C_, 0 | WARNING: Rounded down to 0
	;note A#, 0 | WARNING: Rounded down to 0
	drum_note 6, 2
;Bar 20
	;note C_, 0 | WARNING: Rounded down to 0
	;note F#, 0 | WARNING: Rounded down to 0
	drum_note 6, 2
	;note C_, 0 | WARNING: Rounded down to 0
	drum_note 11, 2
	;note F#, 0 | WARNING: Rounded down to 0
	drum_note 5, 2
	;note A#, 0 | WARNING: Rounded down to 0
	drum_note 6, 2
	;note C_, 0 | WARNING: Rounded down to 0
	drum_note 7, 2
	drum_note 11, 2
	;note F#, 0 | WARNING: Rounded down to 0
	drum_note 5, 1
	;note C_, 0 | WARNING: Rounded down to 0
	drum_note 10, 1
	;note A#, 0 | WARNING: Rounded down to 0
	;note C_, 0 | WARNING: Rounded down to 0
	;note G_, 0 | WARNING: Rounded down to 0
	drum_note 5, 2
;Bar 21
	;note C_, 0 | WARNING: Rounded down to 0
	;note F#, 0 | WARNING: Rounded down to 0
	;note F_, 0 | WARNING: Rounded down to 0
	;note C#, 0 | WARNING: Rounded down to 0
	drum_note 10, 2
	;note C_, 0 | WARNING: Rounded down to 0
	drum_note 11, 2
	;note F#, 0 | WARNING: Rounded down to 0
	drum_note 5, 2
	;note A#, 0 | WARNING: Rounded down to 0
	drum_note 6, 2
	;note C_, 0 | WARNING: Rounded down to 0
	drum_note 7, 2
	drum_note 11, 2
	;note F#, 0 | WARNING: Rounded down to 0
	drum_note 5, 2
	;note C_, 0 | WARNING: Rounded down to 0
	;note A#, 0 | WARNING: Rounded down to 0
	drum_note 6, 2
;Bar 22
	;note C_, 0 | WARNING: Rounded down to 0
	;note F#, 0 | WARNING: Rounded down to 0
	drum_note 6, 2
	;note C_, 0 | WARNING: Rounded down to 0
	drum_note 11, 2
	;note F#, 0 | WARNING: Rounded down to 0
	drum_note 5, 2
	;note A#, 0 | WARNING: Rounded down to 0
	drum_note 6, 2
	;note C_, 0 | WARNING: Rounded down to 0
	drum_note 7, 2
	drum_note 11, 2
	;note F#, 0 | WARNING: Rounded down to 0
	drum_note 5, 1
	;note C_, 0 | WARNING: Rounded down to 0
	drum_note 10, 1
	;note A#, 0 | WARNING: Rounded down to 0
	;note C_, 0 | WARNING: Rounded down to 0
	;note G_, 0 | WARNING: Rounded down to 0
	drum_note 5, 2
;Bar 23
	;note C_, 0 | WARNING: Rounded down to 0
	;note F#, 0 | WARNING: Rounded down to 0
	drum_note 6, 2
	;note C_, 0 | WARNING: Rounded down to 0
	drum_note 11, 2
	;note F#, 0 | WARNING: Rounded down to 0
	drum_note 5, 2
	;note A#, 0 | WARNING: Rounded down to 0
	drum_note 6, 2
	;note C_, 0 | WARNING: Rounded down to 0
	drum_note 7, 2
	drum_note 11, 2
	;note F#, 0 | WARNING: Rounded down to 0
	drum_note 5, 2
	;note C_, 0 | WARNING: Rounded down to 0
	;note A#, 0 | WARNING: Rounded down to 0
	drum_note 6, 2
;Bar 24
	;note C_, 0 | WARNING: Rounded down to 0
	;note F#, 0 | WARNING: Rounded down to 0
	drum_note 6, 2
	;note C_, 0 | WARNING: Rounded down to 0
	drum_note 11, 2
	;note F#, 0 | WARNING: Rounded down to 0
	drum_note 5, 2
	;note A#, 0 | WARNING: Rounded down to 0
	drum_note 6, 2
	;note C_, 0 | WARNING: Rounded down to 0
	drum_note 7, 2
	drum_note 11, 2
	;note F#, 0 | WARNING: Rounded down to 0
	drum_note 5, 1
	;note C_, 0 | WARNING: Rounded down to 0
	drum_note 10, 1
	;note A#, 0 | WARNING: Rounded down to 0
	;note C_, 0 | WARNING: Rounded down to 0
	;note G_, 0 | WARNING: Rounded down to 0
	drum_note 5, 2
;Bar 25
	;note C_, 0 | WARNING: Rounded down to 0
	;note F#, 0 | WARNING: Rounded down to 0
	;note F_, 0 | WARNING: Rounded down to 0
	;note C#, 0 | WARNING: Rounded down to 0
	drum_note 10, 2
	;note C_, 0 | WARNING: Rounded down to 0
	drum_note 11, 2
	;note F#, 0 | WARNING: Rounded down to 0
	drum_note 5, 2
	;note A#, 0 | WARNING: Rounded down to 0
	drum_note 6, 2
	;note C_, 0 | WARNING: Rounded down to 0
	drum_note 7, 2
	drum_note 11, 2
	;note F#, 0 | WARNING: Rounded down to 0
	drum_note 5, 2
	;note C_, 0 | WARNING: Rounded down to 0
	;note A#, 0 | WARNING: Rounded down to 0
	drum_note 6, 2
;Bar 26
	;note C_, 0 | WARNING: Rounded down to 0
	;note F#, 0 | WARNING: Rounded down to 0
	drum_note 6, 2
	;note C_, 0 | WARNING: Rounded down to 0
	drum_note 11, 2
	;note F#, 0 | WARNING: Rounded down to 0
	drum_note 5, 2
	;note A#, 0 | WARNING: Rounded down to 0
	drum_note 6, 2
	;note C_, 0 | WARNING: Rounded down to 0
	drum_note 7, 2
	drum_note 11, 2
	;note F#, 0 | WARNING: Rounded down to 0
	drum_note 5, 1
	;note C_, 0 | WARNING: Rounded down to 0
	drum_note 10, 1
	;note A#, 0 | WARNING: Rounded down to 0
	;note C_, 0 | WARNING: Rounded down to 0
	;note G_, 0 | WARNING: Rounded down to 0
	drum_note 5, 2
;Bar 27
	;note C_, 0 | WARNING: Rounded down to 0
	;note F#, 0 | WARNING: Rounded down to 0
	drum_note 6, 2
	;note C_, 0 | WARNING: Rounded down to 0
	drum_note 11, 2
	;note F#, 0 | WARNING: Rounded down to 0
	drum_note 5, 2
	;note A#, 0 | WARNING: Rounded down to 0
	drum_note 6, 2
	;note C_, 0 | WARNING: Rounded down to 0
	drum_note 7, 2
	drum_note 11, 2
	;note F#, 0 | WARNING: Rounded down to 0
	drum_note 5, 2
	;note C_, 0 | WARNING: Rounded down to 0
	;note A#, 0 | WARNING: Rounded down to 0
	drum_note 6, 2
;Bar 28
	;note C_, 0 | WARNING: Rounded down to 0
	;note F#, 0 | WARNING: Rounded down to 0
	drum_note 6, 2
	;note C_, 0 | WARNING: Rounded down to 0
	drum_note 11, 2
	;note F#, 0 | WARNING: Rounded down to 0
	drum_note 5, 2
	;note A#, 0 | WARNING: Rounded down to 0
	drum_note 6, 2
	;note C_, 0 | WARNING: Rounded down to 0
	drum_note 7, 2
	drum_note 11, 2
	;note F#, 0 | WARNING: Rounded down to 0
	drum_note 5, 1
	;note C_, 0 | WARNING: Rounded down to 0
	drum_note 10, 1
	;note A#, 0 | WARNING: Rounded down to 0
	;note C_, 0 | WARNING: Rounded down to 0
	;note G_, 0 | WARNING: Rounded down to 0
	drum_note 5, 2
;Bar 29
	;note C_, 0 | WARNING: Rounded down to 0
	;note F#, 0 | WARNING: Rounded down to 0
	drum_note 6, 2
	;note C_, 0 | WARNING: Rounded down to 0
	drum_note 11, 2
	;note F#, 0 | WARNING: Rounded down to 0
	;note E_, 0 | WARNING: Rounded down to 0
	drum_note 5, 2
	;note A#, 0 | WARNING: Rounded down to 0
	drum_note 6, 2
	;note C_, 0 | WARNING: Rounded down to 0
	drum_note 7, 2
	;note A#, 0 | WARNING: Rounded down to 0
	drum_note 5, 2
	;note F#, 0 | WARNING: Rounded down to 0
	drum_note 5, 2
	;note C_, 0 | WARNING: Rounded down to 0
	;note A#, 0 | WARNING: Rounded down to 0
	;note F_, 0 | WARNING: Rounded down to 0
	drum_note 5, 2
;Bar 30
	;note C_, 0 | WARNING: Rounded down to 0
	;note F#, 0 | WARNING: Rounded down to 0
	drum_note 6, 2
	;note C_, 0 | WARNING: Rounded down to 0
	drum_note 11, 2
	;note F#, 0 | WARNING: Rounded down to 0
	;note E_, 0 | WARNING: Rounded down to 0
	drum_note 5, 2
	;note A#, 0 | WARNING: Rounded down to 0
	drum_note 6, 2
	;note C_, 0 | WARNING: Rounded down to 0
	drum_note 7, 2
	;note A#, 0 | WARNING: Rounded down to 0
	drum_note 5, 2
	;note F#, 0 | WARNING: Rounded down to 0
	drum_note 5, 1
	;note C_, 0 | WARNING: Rounded down to 0
	drum_note 10, 1
	;note A#, 0 | WARNING: Rounded down to 0
	;note C_, 0 | WARNING: Rounded down to 0
	;note G_, 0 | WARNING: Rounded down to 0
	drum_note 5, 2
;Bar 31
	;note C_, 0 | WARNING: Rounded down to 0
	;note F#, 0 | WARNING: Rounded down to 0
	drum_note 6, 2
	;note C_, 0 | WARNING: Rounded down to 0
	drum_note 11, 2
	;note F#, 0 | WARNING: Rounded down to 0
	;note E_, 0 | WARNING: Rounded down to 0
	drum_note 5, 2
	;note A#, 0 | WARNING: Rounded down to 0
	drum_note 6, 2
	;note C_, 0 | WARNING: Rounded down to 0
	drum_note 7, 2
	;note A#, 0 | WARNING: Rounded down to 0
	drum_note 5, 2
	;note F#, 0 | WARNING: Rounded down to 0
	drum_note 5, 2
	;note C_, 0 | WARNING: Rounded down to 0
	;note A#, 0 | WARNING: Rounded down to 0
	;note F_, 0 | WARNING: Rounded down to 0
	drum_note 5, 2
;Bar 32
	;note C_, 0 | WARNING: Rounded down to 0
	;note F#, 0 | WARNING: Rounded down to 0
	;note F_, 0 | WARNING: Rounded down to 0
	drum_note 3, 2
	;note C_, 0 | WARNING: Rounded down to 0
	;note A#, 0 | WARNING: Rounded down to 0
	drum_note 1, 1
	drum_note 12, 1
	;note F#, 0 | WARNING: Rounded down to 0
	;note E_, 0 | WARNING: Rounded down to 0
	drum_note 1, 2
	;note A#, 0 | WARNING: Rounded down to 0
	;note F_, 0 | WARNING: Rounded down to 0
	drum_note 10, 2
	;note C_, 0 | WARNING: Rounded down to 0
	;note F#, 0 | WARNING: Rounded down to 0
	drum_note 1, 1
	drum_note 1, 1
	;note A#, 0 | WARNING: Rounded down to 0
	drum_note 12, 1
	drum_note 12, 1
	;note F#, 0 | WARNING: Rounded down to 0
	;note E_, 0 | WARNING: Rounded down to 0
	drum_note 10, 1
	;note C_, 0 | WARNING: Rounded down to 0
	drum_note 10, 1
	;note A#, 0 | WARNING: Rounded down to 0
	;note C_, 0 | WARNING: Rounded down to 0
	drum_note 8, 1
	drum_note 8, 1
;Bar 33
	;note C_, 0 | WARNING: Rounded down to 0
	;note F#, 0 | WARNING: Rounded down to 0
	;note F_, 0 | WARNING: Rounded down to 0
	;note C#, 0 | WARNING: Rounded down to 0
	drum_note 10, 2
	;note C_, 0 | WARNING: Rounded down to 0
	drum_note 11, 2
	;note F#, 0 | WARNING: Rounded down to 0
	drum_note 5, 2
	;note A#, 0 | WARNING: Rounded down to 0
	drum_note 6, 2
	;note C_, 0 | WARNING: Rounded down to 0
	drum_note 7, 2
	drum_note 11, 2
	;note F#, 0 | WARNING: Rounded down to 0
	drum_note 5, 2
	;note C_, 0 | WARNING: Rounded down to 0
	;note A#, 0 | WARNING: Rounded down to 0
	drum_note 6, 2
;Bar 34
	;note C_, 0 | WARNING: Rounded down to 0
	;note F#, 0 | WARNING: Rounded down to 0
	drum_note 6, 2
	;note C_, 0 | WARNING: Rounded down to 0
	drum_note 11, 2
	;note F#, 0 | WARNING: Rounded down to 0
	drum_note 5, 2
	;note A#, 0 | WARNING: Rounded down to 0
	drum_note 6, 2
	;note C_, 0 | WARNING: Rounded down to 0
	drum_note 7, 2
	drum_note 11, 2
	;note F#, 0 | WARNING: Rounded down to 0
	drum_note 5, 1
	;note C_, 0 | WARNING: Rounded down to 0
	drum_note 10, 1
	;note A#, 0 | WARNING: Rounded down to 0
	;note C_, 0 | WARNING: Rounded down to 0
	;note G_, 0 | WARNING: Rounded down to 0
	drum_note 5, 2
;Bar 35
	;note C_, 0 | WARNING: Rounded down to 0
	;note F#, 0 | WARNING: Rounded down to 0
	drum_note 6, 2
	;note C_, 0 | WARNING: Rounded down to 0
	drum_note 11, 2
	;note F#, 0 | WARNING: Rounded down to 0
	drum_note 5, 2
	;note A#, 0 | WARNING: Rounded down to 0
	drum_note 6, 2
	;note C_, 0 | WARNING: Rounded down to 0
	drum_note 7, 2
	drum_note 11, 2
	;note F#, 0 | WARNING: Rounded down to 0
	drum_note 5, 2
	;note C_, 0 | WARNING: Rounded down to 0
	;note A#, 0 | WARNING: Rounded down to 0
	drum_note 6, 2
;Bar 36
	;note C_, 0 | WARNING: Rounded down to 0
	;note F#, 0 | WARNING: Rounded down to 0
	drum_note 6, 2
	;note C_, 0 | WARNING: Rounded down to 0
	drum_note 11, 2
	;note F#, 0 | WARNING: Rounded down to 0
	drum_note 5, 2
	;note A#, 0 | WARNING: Rounded down to 0
	drum_note 6, 2
	;note C_, 0 | WARNING: Rounded down to 0
	drum_note 7, 2
	drum_note 11, 2
	;note F#, 0 | WARNING: Rounded down to 0
	drum_note 5, 1
	;note C_, 0 | WARNING: Rounded down to 0
	drum_note 10, 1
	;note A#, 0 | WARNING: Rounded down to 0
	;note C_, 0 | WARNING: Rounded down to 0
	;note G_, 0 | WARNING: Rounded down to 0
	drum_note 5, 2
;Bar 37
	;note C_, 0 | WARNING: Rounded down to 0
	;note F#, 0 | WARNING: Rounded down to 0
	drum_note 6, 2
	;note C_, 0 | WARNING: Rounded down to 0
	drum_note 11, 2
	;note F#, 0 | WARNING: Rounded down to 0
	;note E_, 0 | WARNING: Rounded down to 0
	drum_note 5, 2
	;note A#, 0 | WARNING: Rounded down to 0
	drum_note 6, 2
	;note C_, 0 | WARNING: Rounded down to 0
	drum_note 7, 2
	;note A#, 0 | WARNING: Rounded down to 0
	drum_note 5, 2
	;note F#, 0 | WARNING: Rounded down to 0
	drum_note 5, 2
	;note C_, 0 | WARNING: Rounded down to 0
	;note A#, 0 | WARNING: Rounded down to 0
	;note F_, 0 | WARNING: Rounded down to 0
	drum_note 5, 2
;Bar 38
	;note C_, 0 | WARNING: Rounded down to 0
	;note F#, 0 | WARNING: Rounded down to 0
	drum_note 6, 2
	;note C_, 0 | WARNING: Rounded down to 0
	drum_note 11, 2
	;note F#, 0 | WARNING: Rounded down to 0
	;note E_, 0 | WARNING: Rounded down to 0
	drum_note 5, 2
	;note A#, 0 | WARNING: Rounded down to 0
	drum_note 6, 2
	;note C_, 0 | WARNING: Rounded down to 0
	drum_note 7, 2
	;note A#, 0 | WARNING: Rounded down to 0
	drum_note 5, 2
	;note F#, 0 | WARNING: Rounded down to 0
	drum_note 5, 1
	;note C_, 0 | WARNING: Rounded down to 0
	drum_note 10, 1
	;note A#, 0 | WARNING: Rounded down to 0
	;note C_, 0 | WARNING: Rounded down to 0
	;note G_, 0 | WARNING: Rounded down to 0
	drum_note 5, 2
;Bar 39
	;note C_, 0 | WARNING: Rounded down to 0
	;note F#, 0 | WARNING: Rounded down to 0
	drum_note 6, 2
	;note C_, 0 | WARNING: Rounded down to 0
	drum_note 11, 2
	;note F#, 0 | WARNING: Rounded down to 0
	;note E_, 0 | WARNING: Rounded down to 0
	drum_note 5, 2
	;note A#, 0 | WARNING: Rounded down to 0
	drum_note 6, 2
	;note C_, 0 | WARNING: Rounded down to 0
	drum_note 7, 2
	;note A#, 0 | WARNING: Rounded down to 0
	drum_note 5, 2
	;note F#, 0 | WARNING: Rounded down to 0
	drum_note 5, 2
	;note C_, 0 | WARNING: Rounded down to 0
	;note A#, 0 | WARNING: Rounded down to 0
	;note F_, 0 | WARNING: Rounded down to 0
	drum_note 5, 2
;Bar 40
	;note C_, 0 | WARNING: Rounded down to 0
	;note F#, 0 | WARNING: Rounded down to 0
	;note F_, 0 | WARNING: Rounded down to 0
	drum_note 3, 2
	;note C_, 0 | WARNING: Rounded down to 0
	;note A#, 0 | WARNING: Rounded down to 0
	drum_note 1, 1
	drum_note 12, 1
	;note F#, 0 | WARNING: Rounded down to 0
	;note E_, 0 | WARNING: Rounded down to 0
	drum_note 1, 2
	;note A#, 0 | WARNING: Rounded down to 0
	;note F_, 0 | WARNING: Rounded down to 0
	drum_note 10, 2
	;note C_, 0 | WARNING: Rounded down to 0
	;note F#, 0 | WARNING: Rounded down to 0
	drum_note 1, 1
	drum_note 1, 1
	;note A#, 0 | WARNING: Rounded down to 0
	drum_note 12, 1
	drum_note 12, 1
	;note F#, 0 | WARNING: Rounded down to 0
	;note E_, 0 | WARNING: Rounded down to 0
	drum_note 10, 1
	;note C_, 0 | WARNING: Rounded down to 0
	drum_note 10, 1
	;note A#, 0 | WARNING: Rounded down to 0
	;note C_, 0 | WARNING: Rounded down to 0
	drum_note 8, 1
	drum_note 8, 1
;Bar 41
	;note C_, 0 | WARNING: Rounded down to 0
	;note F#, 0 | WARNING: Rounded down to 0
	;note F_, 0 | WARNING: Rounded down to 0
	;note C#, 0 | WARNING: Rounded down to 0
	drum_note 10, 2
	;note C_, 0 | WARNING: Rounded down to 0
	drum_note 11, 2
	;note F#, 0 | WARNING: Rounded down to 0
	drum_note 5, 2
	;note A#, 0 | WARNING: Rounded down to 0
	drum_note 6, 2
	;note C_, 0 | WARNING: Rounded down to 0
	drum_note 7, 2
	drum_note 11, 2
	;note F#, 0 | WARNING: Rounded down to 0
	drum_note 5, 2
	;note C_, 0 | WARNING: Rounded down to 0
	;note A#, 0 | WARNING: Rounded down to 0
	drum_note 6, 2
;Bar 42
	;note C_, 0 | WARNING: Rounded down to 0
	;note F#, 0 | WARNING: Rounded down to 0
	drum_note 6, 2
	;note C_, 0 | WARNING: Rounded down to 0
	drum_note 11, 2
	;note F#, 0 | WARNING: Rounded down to 0
	drum_note 5, 2
	;note A#, 0 | WARNING: Rounded down to 0
	drum_note 6, 2
	;note C_, 0 | WARNING: Rounded down to 0
	drum_note 7, 2
	drum_note 11, 2
	;note F#, 0 | WARNING: Rounded down to 0
	drum_note 5, 1
	;note C_, 0 | WARNING: Rounded down to 0
	drum_note 10, 1
	;note A#, 0 | WARNING: Rounded down to 0
	;note C_, 0 | WARNING: Rounded down to 0
	;note G_, 0 | WARNING: Rounded down to 0
	drum_note 5, 2
;Bar 43
	;note C_, 0 | WARNING: Rounded down to 0
	;note F#, 0 | WARNING: Rounded down to 0
	drum_note 6, 2
	;note C_, 0 | WARNING: Rounded down to 0
	drum_note 11, 2
	;note F#, 0 | WARNING: Rounded down to 0
	drum_note 5, 2
	;note A#, 0 | WARNING: Rounded down to 0
	drum_note 6, 2
	;note C_, 0 | WARNING: Rounded down to 0
	drum_note 7, 2
	drum_note 11, 2
	;note F#, 0 | WARNING: Rounded down to 0
	drum_note 5, 2
	;note C_, 0 | WARNING: Rounded down to 0
	;note A#, 0 | WARNING: Rounded down to 0
	drum_note 6, 2
;Bar 44
	;note C_, 0 | WARNING: Rounded down to 0
	;note F#, 0 | WARNING: Rounded down to 0
	drum_note 6, 2
	;note C_, 0 | WARNING: Rounded down to 0
	drum_note 11, 2
	;note F#, 0 | WARNING: Rounded down to 0
	drum_note 5, 2
	;note A#, 0 | WARNING: Rounded down to 0
	drum_note 6, 2
	;note C_, 0 | WARNING: Rounded down to 0
	drum_note 7, 2
	drum_note 11, 2
	;note F#, 0 | WARNING: Rounded down to 0
	drum_note 5, 1
	;note C_, 0 | WARNING: Rounded down to 0
	drum_note 10, 1
	;note A#, 0 | WARNING: Rounded down to 0
	;note C_, 0 | WARNING: Rounded down to 0
	;note G_, 0 | WARNING: Rounded down to 0
	drum_note 5, 2
;Bar 45
	;note C_, 0 | WARNING: Rounded down to 0
	;note F#, 0 | WARNING: Rounded down to 0
	;note F_, 0 | WARNING: Rounded down to 0
	;note C#, 0 | WARNING: Rounded down to 0
	drum_note 10, 2
	;note C_, 0 | WARNING: Rounded down to 0
	drum_note 11, 2
	;note F#, 0 | WARNING: Rounded down to 0
	drum_note 5, 2
	;note A#, 0 | WARNING: Rounded down to 0
	drum_note 6, 2
	;note C_, 0 | WARNING: Rounded down to 0
	drum_note 7, 2
	drum_note 11, 2
	;note F#, 0 | WARNING: Rounded down to 0
	drum_note 5, 2
	;note C_, 0 | WARNING: Rounded down to 0
	;note A#, 0 | WARNING: Rounded down to 0
	drum_note 6, 2
;Bar 46
	;note C_, 0 | WARNING: Rounded down to 0
	;note F#, 0 | WARNING: Rounded down to 0
	drum_note 6, 2
	;note C_, 0 | WARNING: Rounded down to 0
	drum_note 11, 2
	;note F#, 0 | WARNING: Rounded down to 0
	drum_note 5, 2
	;note A#, 0 | WARNING: Rounded down to 0
	drum_note 6, 2
	;note C_, 0 | WARNING: Rounded down to 0
	drum_note 7, 2
	drum_note 11, 2
	;note F#, 0 | WARNING: Rounded down to 0
	drum_note 5, 1
	;note C_, 0 | WARNING: Rounded down to 0
	drum_note 10, 1
	;note A#, 0 | WARNING: Rounded down to 0
	;note C_, 0 | WARNING: Rounded down to 0
	;note G_, 0 | WARNING: Rounded down to 0
	drum_note 5, 2
;Bar 47
	;note C_, 0 | WARNING: Rounded down to 0
	;note F#, 0 | WARNING: Rounded down to 0
	drum_note 6, 2
	;note C_, 0 | WARNING: Rounded down to 0
	drum_note 11, 2
	;note F#, 0 | WARNING: Rounded down to 0
	drum_note 5, 2
	;note A#, 0 | WARNING: Rounded down to 0
	drum_note 6, 2
	;note C_, 0 | WARNING: Rounded down to 0
	drum_note 7, 2
	drum_note 11, 2
	;note F#, 0 | WARNING: Rounded down to 0
	drum_note 5, 2
	;note C_, 0 | WARNING: Rounded down to 0
	;note A#, 0 | WARNING: Rounded down to 0
	drum_note 6, 2
;Bar 48
	;note C_, 0 | WARNING: Rounded down to 0
	;note F#, 0 | WARNING: Rounded down to 0
	drum_note 6, 2
	;note C_, 0 | WARNING: Rounded down to 0
	drum_note 11, 2
	;note F#, 0 | WARNING: Rounded down to 0
	drum_note 5, 2
	;note A#, 0 | WARNING: Rounded down to 0
	drum_note 6, 2
	;note C_, 0 | WARNING: Rounded down to 0
	drum_note 7, 2
	drum_note 11, 2
	;note F#, 0 | WARNING: Rounded down to 0
	drum_note 5, 1
	;note C_, 0 | WARNING: Rounded down to 0
	drum_note 10, 1
	;note A#, 0 | WARNING: Rounded down to 0
	;note C_, 0 | WARNING: Rounded down to 0
	;note G_, 0 | WARNING: Rounded down to 0
	drum_note 5, 2
	sound_loop 0, .mainloop

; ============================================================================================================

