;Coverted using MIDI2ASM
;Code by TriteHexagon
;Version 5.2.0 (16-Nov-2022)
;Visit github.com/TriteHexagon/Midi2ASM-Converter for up-to-date versions.

; ============================================================================================================

Music_WildBeast:
	channel_count 4
	channel 1, Music_WildBeast_Ch1
	channel 2, Music_WildBeast_Ch2
	channel 3, Music_WildBeast_Ch3
	channel 4, Music_WildBeast_Ch4

Music_WildBeast_Ch1:
	volume 7, 7
	duty_cycle 1
	note_type 12, 10, 7
	tempo 106
;Bar 1
	rest 16
.mainloop
	rest 16
	rest 16
	rest 16
;Bar 5
	octave 3
	volume_envelope 9, 7
	note A_, 2
	octave 4
	note E_, 2
	note A_, 2
	note E_, 2
	note B_, 2
	note E_, 2
	octave 3
	note A_, 2
	octave 5
	note C_, 2
;Bar 6
	octave 4
	note E_, 2
	octave 3
	note A_, 2
	octave 4
	note B_, 2
	note E_, 2
	octave 3
	note A_, 2
	octave 4
	note A_, 2
	note E_, 2
	octave 3
	note A_, 2
;Bar 7
	octave 4
	note E_, 2
	octave 3
	note A_, 2
	octave 4
	note A_, 2
	note E_, 2
	note B_, 2
	note E_, 2
	octave 3
	note A_, 2
	octave 5
	note C_, 2
;Bar 8
	octave 4
	note E_, 2
	octave 3
	note A_, 2
	octave 5
	note D_, 2
	octave 4
	note E_, 2
	octave 3
	note A_, 2
	octave 5
	note C_, 2
	octave 4
	note E_, 2
	octave 3
	note A_, 2
;Bar 9
	octave 4
	note D_, 2
	note A_, 2
	octave 5
	note D_, 2
	octave 4
	note A_, 2
	octave 5
	note E_, 2
	octave 4
	note A_, 2
	note D_, 2
	octave 5
	note F_, 2
;Bar 10
	octave 4
	note A_, 2
	note D_, 2
	octave 5
	note E_, 2
	octave 4
	note A_, 2
	note D_, 2
	octave 5
	note D_, 2
	octave 4
	note A_, 2
	note D_, 2
;Bar 11
	note A_, 2
	note D_, 2
	octave 5
	note D_, 2
	octave 4
	note A_, 2
	octave 5
	note E_, 2
	octave 4
	note A_, 2
	note D_, 2
	octave 5
	note F_, 2
;Bar 12
	octave 4
	note A_, 2
	note D_, 2
	octave 5
	note G_, 2
	octave 4
	note A_, 2
	note D_, 2
	octave 5
	note F_, 2
	octave 4
	note A_, 2
	note D_, 2
;Bar 13
	octave 3
	note A_, 2
	octave 4
	note E_, 2
	note A_, 2
	note E_, 2
	note B_, 2
	note E_, 2
	octave 3
	note A_, 2
	octave 5
	note C_, 2
;Bar 14
	octave 4
	note E_, 2
	octave 3
	note A_, 2
	octave 4
	note B_, 2
	note E_, 2
	octave 3
	note A_, 2
	octave 4
	note A_, 2
	note E_, 2
	octave 3
	note A_, 2
;Bar 15
	octave 4
	note E_, 2
	octave 3
	note A_, 2
	octave 4
	note A_, 2
	note E_, 2
	note B_, 2
	note E_, 2
	octave 3
	note A_, 2
	octave 5
	note C_, 2
;Bar 16
	octave 4
	note E_, 2
	octave 3
	note A_, 2
	octave 5
	note D_, 2
	octave 4
	note E_, 2
	octave 3
	note A_, 2
	octave 5
	note C_, 2
	octave 4
	note E_, 2
	octave 3
	note A_, 2
;Bar 17
	octave 4
	note D_, 2
	note A_, 2
	octave 5
	note D_, 2
	octave 4
	note A_, 2
	octave 5
	note E_, 2
	octave 4
	note A_, 2
	note D_, 2
	octave 5
	note F_, 2
;Bar 18
	octave 4
	note A_, 2
	note D_, 2
	octave 5
	note E_, 2
	octave 4
	note A_, 2
	note D_, 2
	octave 5
	note D_, 2
	octave 4
	note A_, 2
	note D_, 2
;Bar 19
	note A_, 2
	note D_, 2
	octave 5
	note D_, 2
	octave 4
	note A_, 2
	octave 5
	note E_, 2
	octave 4
	note A_, 2
	note D_, 2
	octave 5
	note F_, 2
;Bar 20
	octave 4
	note A_, 2
	note D_, 2
	octave 5
	note G_, 2
	octave 4
	note A_, 2
	note D_, 2
	octave 5
	note F_, 2
	octave 4
	note A_, 2
	note D_, 2
;Bar 21
	octave 3
	note E_, 8
	note G_, 1
	note B_, 1
	octave 4
	note D_, 1
	note E_, 1
	note G#, 1
	note B_, 1
	octave 5
	note D_, 1
	note E_, 1
;Bar 22
	note F_, 1
	note E_, 1
	note F_, 1
	note E_, 1
	note F_, 1
	note E_, 1
	note F_, 1
	note E_, 1
	note D_, 1
	note C_, 1
	note D_, 1
	note E_, 1
	note D_, 1
	note C_, 1
	octave 4
	note B_, 1
	note A_, 1
;Bar 23
	note B_, 1
	note A_, 1
	note G_, 1
	note F_, 1
	note B_, 1
	note A_, 1
	note G_, 1
	note F_, 1
	note G_, 1
	note A_, 1
	note G_, 1
	note F_, 1
	note E_, 1
	note F_, 1
	note E_, 1
	note D_, 1
;Bar 24
	note C_, 1
	octave 3
	note B_, 1
	note A_, 1
	note B_, 1
	octave 4
	note C_, 1
	note D_, 1
	note C_, 1
	octave 3
	note B_, 1
	note A_, 1
	note B_, 1
	note A_, 1
	note G#, 1
	note A_, 1
	note G#, 1
	note E_, 1
	note F_, 1
;Bar 25
	note E_, 1
	note D_, 1
	note C_, 1
	note D_, 1
	note E_, 1
	note G_, 1
	note A_, 1
	note B_, 1
	octave 4
	note C_, 1
	note D_, 1
	note E_, 1
	note F_, 1
	note E_, 1
	note D_, 1
	note C_, 1
	note D_, 1
;Bar 26
	note E_, 1
	note D_, 1
	note C_, 1
	octave 3
	note B_, 1
	note A_, 1
	note G_, 1
	note A_, 1
	note B_, 1
	note A_, 1
	note G_, 1
	note F_, 1
	note E_, 1
	note D_, 1
	note C_, 1
	note D_, 1
	note E_, 1
;Bar 27
	note F#, 1
	note E_, 1
	note D_, 1
	octave 2
	note B_, 1
	note A_, 1
	note G_, 1
	note F#, 1
	note G_, 1
	note A_, 1
	note B_, 1
	octave 3
	note D_, 1
	note C_, 1
	note D_, 1
	note E_, 1
	note D_, 1
	note C_, 1
;Bar 28
	octave 2
	note B_, 1
	note A_, 1
	note B_, 1
	octave 3
	note C_, 1
	note D_, 1
	note E_, 1
	note F_, 1
	note G_, 1
	note A_, 1
	note B_, 1
	octave 4
	note C_, 1
	note D_, 1
	note E_, 1
	note F_, 1
	note G_, 1
	note A_, 1
;Bar 29
	note B_, 1
	note G#, 1
	note E_, 1
	note D_, 1
	octave 3
	note B_, 1
	octave 4
	note D_, 1
	note E_, 1
	note F#, 1
	note G#, 1
	note A_, 1
	note B_, 1
	note G#, 1
	note A_, 1
	note B_, 1
	octave 5
	note C_, 1
	note D_, 1
;Bar 30
	note E_, 1
	note D_, 1
	note C_, 1
	octave 4
	note B_, 1
	note A_, 1
	note B_, 1
	note A_, 1
	note G_, 1
	note F_, 1
	note E_, 1
	note D_, 1
	note E_, 1
	note D_, 1
	note C_, 1
	note D_, 1
	note E_, 1
;Bar 31
	note D_, 1
	note C_, 1
	note D_, 1
	note E_, 1
	note F_, 1
	note G_, 1
	note E_, 1
	note F_, 1
	note G_, 1
	note A_, 1
	note B_, 1
	note G_, 1
	note F_, 1
	note G_, 1
	note A_, 1
	note B_, 1
;Bar 32
	octave 5
	note C_, 1
	octave 4
	note G_, 1
	note C_, 1
	octave 5
	note C_, 1
	octave 4
	note G_, 1
	note C_, 1
	note B_, 1
	note G_, 1
	note C_, 1
	note B_, 1
	note G_, 1
	note C_, 1
	note G_, 1
	note E_, 1
	octave 3
	note G_, 1
	octave 4
	note F_, 1
;Bar 33
	note G_, 1
	note F_, 1
	note D_, 1
	note A_, 1
	note G_, 1
	note D_, 1
	note B_, 1
	octave 5
	note C_, 1
	octave 4
	note B_, 1
	octave 5
	note D_, 1
	note C_, 1
	octave 4
	note B_, 1
	note A_, 1
	note B_, 1
	octave 5
	note C_, 1
	note D_, 1
;Bar 34
	note C_, 1
	octave 4
	note A#, 1
	note A_, 1
	note G_, 1
	note F_, 1
	note D#, 1
	note F_, 1
	note G_, 1
	note A_, 1
	note A#, 1
	note G_, 1
	note A_, 1
	note A#, 1
	octave 5
	note C_, 1
	note D_, 1
	note D#, 1
;Bar 35
	note E_, 1
	note D_, 1
	octave 4
	note B_, 1
	note A_, 1
	octave 5
	note E_, 1
	note D_, 1
	octave 4
	note B_, 1
	note A_, 1
	octave 5
	note E_, 1
	octave 4
	note B_, 1
	note G#, 1
	note E_, 1
	octave 5
	note E_, 1
	octave 4
	note B_, 1
	note G#, 1
	note E_, 1
;Bar 36
	octave 5
	note D_, 1
	octave 4
	note B_, 1
	note G#, 1
	note E_, 1
	octave 5
	note D_, 1
	octave 4
	note B_, 1
	note G#, 1
	note E_, 1
	note D_, 1
	note C_, 1
	octave 3
	note B_, 1
	note A_, 1
	note G#, 1
	note F_, 1
	note E_, 1
	note D_, 1
;Bar 37
	rest 8
	octave 5
	note D_, 16
	note D_, 16
;Bar 39
	note C#, 1
	note C_, 1
	octave 4
	note B_, 1
	note A_, 1
	note B_, 1
	octave 5
	note C_, 1
	note D_, 1
	note C_, 1
;Bar 40
	octave 4
	note B_, 1
	note A_, 1
	note G_, 1
	note F_, 1
	note G_, 1
	note A_, 1
	note B_, 1
	note A_, 1
	note G_, 1
	note F_, 1
	note E_, 1
	note D_, 1
	note E_, 1
	note C_, 1
	note D_, 1
	note E_, 1
;Bar 41
	note D_, 1
	note C_, 1
	octave 3
	note B_, 1
	octave 4
	note C_, 1
	octave 3
	note B_, 1
	note A_, 1
	note G_, 1
	note A_, 1
	note G_, 1
	note E_, 1
	note D_, 1
	note E_, 1
	note G_, 1
	note A_, 1
	note B_, 1
	octave 4
	note C_, 1
;Bar 42
	octave 3
	note B_, 1
	note A_, 1
	note G_, 1
	note E_, 1
	octave 4
	note C_, 1
	octave 3
	note B_, 1
	note A_, 1
	note G_, 1
	note E_, 1
	note D_, 1
	octave 4
	note C_, 1
	octave 3
	note B_, 1
	note A_, 1
	note G_, 1
	note E_, 1
	note D_, 1
;Bar 43
	note D#, 1
	note E_, 16
	note E_, 15
;Bar 45
	note A_, 2
	octave 4
	note E_, 2
	note A_, 2
	note E_, 2
	note B_, 2
	note E_, 2
	octave 3
	note A_, 2
	octave 5
	note C_, 2
;Bar 46
	octave 4
	note E_, 2
	octave 3
	note A_, 2
	octave 4
	note B_, 2
	note E_, 2
	octave 3
	note A_, 2
	octave 4
	note A_, 2
	note E_, 2
	octave 3
	note A_, 2
;Bar 47
	octave 4
	note E_, 2
	octave 3
	note A_, 2
	octave 4
	note A_, 2
	note E_, 2
	note B_, 2
	note E_, 2
	octave 3
	note A_, 2
	octave 5
	note C_, 2
;Bar 48
	octave 4
	note E_, 2
	octave 3
	note A_, 2
	octave 5
	note D_, 2
	octave 4
	note E_, 2
	octave 3
	note A_, 2
	octave 5
	note C_, 2
	octave 4
	note E_, 2
	octave 3
	note A_, 2
;Bar 49
	octave 4
	note D_, 2
	note A_, 2
	octave 5
	note D_, 2
	octave 4
	note A_, 2
	octave 5
	note E_, 2
	octave 4
	note A_, 2
	note D_, 2
	octave 5
	note F_, 2
;Bar 50
	octave 4
	note A_, 2
	note D_, 2
	octave 5
	note E_, 2
	octave 4
	note A_, 2
	note D_, 2
	octave 5
	note D_, 2
	octave 4
	note A_, 2
	note D_, 2
;Bar 51
	note A_, 2
	note D_, 2
	octave 5
	note D_, 2
	octave 4
	note A_, 2
	octave 5
	note E_, 2
	octave 4
	note A_, 2
	note D_, 2
	octave 5
	note F_, 2
;Bar 52
	octave 4
	note A_, 2
	note D_, 2
	octave 5
	note G_, 2
	octave 4
	note A_, 2
	note D_, 2
	octave 5
	note F_, 2
	octave 4
	note A_, 2
	note D_, 2
;Bar 53
	octave 3
	note A_, 2
	octave 4
	note E_, 2
	note A_, 2
	note E_, 2
	note B_, 2
	note E_, 2
	octave 3
	note A_, 2
	octave 5
	note C_, 2
;Bar 54
	octave 4
	note E_, 2
	octave 3
	note A_, 2
	octave 4
	note B_, 2
	note E_, 2
	octave 3
	note A_, 2
	octave 4
	note A_, 2
	note E_, 2
	octave 3
	note A_, 2
;Bar 55
	octave 4
	note E_, 2
	octave 3
	note A_, 2
	octave 4
	note A_, 2
	note E_, 2
	note B_, 2
	note E_, 2
	octave 3
	note A_, 2
	octave 5
	note C_, 2
;Bar 56
	octave 4
	note E_, 2
	octave 3
	note A_, 2
	octave 5
	note D_, 2
	octave 4
	note E_, 2
	octave 3
	note A_, 2
	octave 5
	note C_, 2
	octave 4
	note E_, 2
	octave 3
	note A_, 2
;Bar 57
	octave 4
	note D_, 2
	note A_, 2
	octave 5
	note D_, 2
	octave 4
	note A_, 2
	octave 5
	note E_, 2
	octave 4
	note A_, 2
	note D_, 2
	octave 5
	note F_, 2
;Bar 58
	octave 4
	note A_, 2
	note D_, 2
	octave 5
	note E_, 2
	octave 4
	note A_, 2
	note D_, 2
	octave 5
	note D_, 2
	octave 4
	note A_, 2
	note D_, 2
;Bar 59
	note A_, 2
	note D_, 2
	octave 5
	note D_, 2
	octave 4
	note A_, 2
	octave 5
	note E_, 2
	octave 4
	note A_, 2
	note D_, 2
	octave 5
	note F_, 2
;Bar 60
	octave 4
	note A_, 2
	note D_, 2
	octave 5
	note G_, 2
	octave 4
	note A_, 2
	note D_, 2
	octave 5
	note F_, 2
	octave 4
	note A_, 2
	note D_, 2
;Bar 61
	octave 3
	note E_, 8
	note G_, 1
	note B_, 1
	octave 4
	note D_, 1
	note E_, 1
	note G#, 1
	note B_, 1
	octave 5
	note D_, 1
	note E_, 1
;Bar 62
	note F_, 1
	note E_, 1
	note F_, 1
	note E_, 1
	note F_, 1
	note E_, 1
	note F_, 1
	note E_, 1
	note D_, 1
	note C_, 1
	note D_, 1
	note E_, 1
	note D_, 1
	note C_, 1
	octave 4
	note B_, 1
	note A_, 1
;Bar 63
	note B_, 1
	note A_, 1
	note G_, 1
	note F_, 1
	note B_, 1
	note A_, 1
	note G_, 1
	note F_, 1
	note G_, 1
	note A_, 1
	note G_, 1
	note F_, 1
	note E_, 1
	note F_, 1
	note E_, 1
	note D_, 1
;Bar 64
	note C_, 1
	octave 3
	note B_, 1
	note A_, 1
	note B_, 1
	octave 4
	note C_, 1
	note D_, 1
	note C_, 1
	octave 3
	note B_, 1
	note A_, 1
	note B_, 1
	note A_, 1
	note G#, 1
	note A_, 1
	note G#, 1
	note E_, 1
	note F_, 1
;Bar 65
	note E_, 1
	note D_, 1
	note C_, 1
	note D_, 1
	note E_, 1
	note G_, 1
	note A_, 1
	note B_, 1
	octave 4
	note C_, 1
	note D_, 1
	note E_, 1
	note F_, 1
	note E_, 1
	note D_, 1
	note C_, 1
	note D_, 1
;Bar 66
	note E_, 1
	note D_, 1
	note C_, 1
	octave 3
	note B_, 1
	note A_, 1
	note G_, 1
	note A_, 1
	note B_, 1
	note A_, 1
	note G_, 1
	note F_, 1
	note E_, 1
	note D_, 1
	note C_, 1
	note D_, 1
	note E_, 1
;Bar 67
	note F#, 1
	note E_, 1
	note D_, 1
	octave 2
	note B_, 1
	note A_, 1
	note G_, 1
	note F#, 1
	note G_, 1
	note A_, 1
	note B_, 1
	octave 3
	note D_, 1
	note C_, 1
	note D_, 1
	note E_, 1
	note D_, 1
	note C_, 1
;Bar 68
	octave 2
	note B_, 1
	note A_, 1
	note B_, 1
	octave 3
	note C_, 1
	note D_, 1
	note E_, 1
	note F_, 1
	note G_, 1
	note A_, 1
	note B_, 1
	octave 4
	note C_, 1
	note D_, 1
	note E_, 1
	note F_, 1
	note G_, 1
	note A_, 1
;Bar 69
	note B_, 1
	note G#, 1
	note E_, 1
	note D_, 1
	octave 3
	note B_, 1
	octave 4
	note D_, 1
	note E_, 1
	note F#, 1
	note G#, 1
	note A_, 1
	note B_, 1
	note G#, 1
	note A_, 1
	note B_, 1
	octave 5
	note C_, 1
	note D_, 1
;Bar 70
	note E_, 1
	note D_, 1
	note C_, 1
	octave 4
	note B_, 1
	note A_, 1
	note B_, 1
	note A_, 1
	note G_, 1
	note F_, 1
	note E_, 1
	note D_, 1
	note E_, 1
	note D_, 1
	note C_, 1
	note D_, 1
	note E_, 1
;Bar 71
	note D_, 1
	note C_, 1
	note D_, 1
	note E_, 1
	note F_, 1
	note G_, 1
	note E_, 1
	note F_, 1
	note G_, 1
	note A_, 1
	note B_, 1
	note G_, 1
	note F_, 1
	note G_, 1
	note A_, 1
	note B_, 1
;Bar 72
	octave 5
	note C_, 1
	octave 4
	note G_, 1
	note C_, 1
	octave 5
	note C_, 1
	octave 4
	note G_, 1
	note C_, 1
	note B_, 1
	note G_, 1
	note C_, 1
	note B_, 1
	note G_, 1
	note C_, 1
	note G_, 1
	note E_, 1
	octave 3
	note G_, 1
	octave 4
	note F_, 1
;Bar 73
	note G_, 1
	note F_, 1
	note D_, 1
	note A_, 1
	note G_, 1
	note D_, 1
	note B_, 1
	octave 5
	note C_, 1
	octave 4
	note B_, 1
	octave 5
	note D_, 1
	note C_, 1
	octave 4
	note B_, 1
	note A_, 1
	note B_, 1
	octave 5
	note C_, 1
	note D_, 1
;Bar 74
	note C_, 1
	octave 4
	note A#, 1
	note A_, 1
	note G_, 1
	note F_, 1
	note D#, 1
	note F_, 1
	note G_, 1
	note A_, 1
	note A#, 1
	note G_, 1
	note A_, 1
	note A#, 1
	octave 5
	note C_, 1
	note D_, 1
	note D#, 1
;Bar 75
	note E_, 1
	note D_, 1
	octave 4
	note B_, 1
	note A_, 1
	octave 5
	note E_, 1
	note D_, 1
	octave 4
	note B_, 1
	note A_, 1
	octave 5
	note E_, 1
	octave 4
	note B_, 1
	note G#, 1
	note E_, 1
	octave 5
	note E_, 1
	octave 4
	note B_, 1
	note G#, 1
	note E_, 1
;Bar 76
	octave 5
	note D_, 1
	octave 4
	note B_, 1
	note G#, 1
	note E_, 1
	octave 5
	note D_, 1
	octave 4
	note B_, 1
	note G#, 1
	note E_, 1
	note D_, 1
	note C_, 1
	octave 3
	note B_, 1
	note A_, 1
	note G#, 1
	note F_, 1
	note E_, 1
	note D_, 1
;Bar 77
	rest 8
	octave 5
	note D_, 16
	note D_, 16
;Bar 79
	note C#, 1
	note C_, 1
	octave 4
	note B_, 1
	note A_, 1
	note B_, 1
	octave 5
	note C_, 1
	note D_, 1
	note C_, 1
;Bar 80
	octave 4
	note B_, 1
	note A_, 1
	note G_, 1
	note F_, 1
	note G_, 1
	note A_, 1
	note B_, 1
	note A_, 1
	note G_, 1
	note F_, 1
	note E_, 1
	note D_, 1
	note E_, 1
	note C_, 1
	note D_, 1
	note E_, 1
;Bar 81
	note D_, 1
	note C_, 1
	octave 3
	note B_, 1
	octave 4
	note C_, 1
	octave 3
	note B_, 1
	note A_, 1
	note G_, 1
	note A_, 1
	note G_, 1
	note E_, 1
	note D_, 1
	note E_, 1
	note G_, 1
	note A_, 1
	note B_, 1
	octave 4
	note C_, 1
;Bar 82
	octave 3
	note B_, 1
	note A_, 1
	note G_, 1
	note E_, 1
	octave 4
	note C_, 1
	octave 3
	note B_, 1
	note A_, 1
	note G_, 1
	note E_, 1
	note D_, 1
	octave 4
	note C_, 1
	octave 3
	note B_, 1
	note A_, 1
	note G_, 1
	note E_, 1
	note D_, 1
;Bar 83
	note D#, 1
	note E_, 16
	note E_, 15
	rest 5
	rest 5
	rest 5
	rest 1
	sound_loop 0, .mainloop

; ============================================================================================================

Music_WildBeast_Ch2:
	duty_cycle 0
	note_type 12, 10, 7
.mainloop
;Bar 1
	octave 1
	volume_envelope 11, 7
	note A_, 2
	volume_envelope 9, 7
	note A_, 2
	note A_, 2
	note A_, 2
	octave 2
	volume_envelope 11, 7
	note C_, 2
	octave 1
	volume_envelope 9, 7
	note A_, 2
	note A_, 2
	octave 2
	volume_envelope 11, 7
	note D_, 2
;Bar 2
	octave 1
	volume_envelope 9, 7
	note A_, 2
	note A_, 2
	octave 2
	volume_envelope 11, 7
	note C_, 2
	octave 1
	volume_envelope 9, 7
	note A_, 2
	note A_, 2
	volume_envelope 11, 7
	note B_, 2
	volume_envelope 9, 7
	note A_, 2
	note A_, 2
;Bar 3
	volume_envelope 11, 7
	note A_, 2
	volume_envelope 9, 7
	note A_, 2
	note A_, 2
	note A_, 2
	octave 2
	volume_envelope 11, 7
	note C_, 2
	octave 1
	volume_envelope 9, 7
	note A_, 2
	note A_, 2
	octave 2
	volume_envelope 11, 7
	note D_, 2
;Bar 4
	octave 1
	volume_envelope 9, 7
	note A_, 2
	note A_, 2
	octave 2
	volume_envelope 11, 7
	note E_, 2
	octave 1
	volume_envelope 9, 7
	note A_, 2
	note A_, 2
	octave 2
	volume_envelope 11, 7
	note D_, 2
	octave 1
	volume_envelope 9, 7
	note A_, 2
	note A_, 2
;Bar 5
	volume_envelope 11, 7
	note A_, 2
	volume_envelope 9, 7
	note A_, 2
	note A_, 2
	note A_, 2
	octave 2
	volume_envelope 11, 7
	note C_, 2
	octave 1
	volume_envelope 9, 7
	note A_, 2
	note A_, 2
	octave 2
	volume_envelope 11, 7
	note D_, 2
;Bar 6
	octave 1
	volume_envelope 9, 7
	note A_, 2
	note A_, 2
	octave 2
	volume_envelope 11, 7
	note C_, 2
	octave 1
	volume_envelope 9, 7
	note A_, 2
	note A_, 2
	volume_envelope 11, 7
	note B_, 2
	volume_envelope 9, 7
	note A_, 2
	note A_, 2
;Bar 7
	volume_envelope 11, 7
	note A_, 2
	volume_envelope 9, 7
	note A_, 2
	note A_, 2
	note A_, 2
	octave 2
	volume_envelope 11, 7
	note C_, 2
	octave 1
	volume_envelope 9, 7
	note A_, 2
	note A_, 2
	octave 2
	volume_envelope 11, 7
	note D_, 2
;Bar 8
	octave 1
	volume_envelope 9, 7
	note A_, 2
	note A_, 2
	octave 2
	volume_envelope 11, 7
	note E_, 2
	octave 1
	volume_envelope 9, 7
	note A_, 2
	note A_, 2
	octave 2
	volume_envelope 11, 7
	note D_, 2
	octave 1
	volume_envelope 9, 7
	note A_, 2
	note A_, 2
;Bar 9
	octave 2
	volume_envelope 11, 7
	note D_, 2
	volume_envelope 8, 7
	note D_, 2
	volume_envelope 9, 7
	note D_, 2
	note D_, 2
	volume_envelope 11, 7
	note F_, 2
	volume_envelope 9, 7
	note D_, 2
	note D_, 2
	volume_envelope 11, 7
	note G_, 2
;Bar 10
	volume_envelope 9, 7
	note D_, 2
	note D_, 2
	volume_envelope 11, 7
	note F_, 2
	volume_envelope 9, 7
	note D_, 2
	note D_, 2
	volume_envelope 11, 7
	note E_, 2
	volume_envelope 9, 7
	note D_, 2
	note D_, 2
;Bar 11
	volume_envelope 11, 7
	note D_, 2
	volume_envelope 9, 7
	note D_, 2
	note D_, 2
	note D_, 2
	volume_envelope 11, 7
	note F_, 2
	volume_envelope 9, 7
	note D_, 2
	note D_, 2
	volume_envelope 11, 7
	note G_, 2
;Bar 12
	volume_envelope 9, 7
	note D_, 2
	note D_, 2
	volume_envelope 11, 7
	note A_, 2
	volume_envelope 9, 7
	note D_, 2
	note D_, 2
	volume_envelope 11, 7
	note G_, 2
	volume_envelope 9, 7
	note D_, 2
	note D_, 2
;Bar 13
	octave 1
	volume_envelope 11, 7
	note A_, 2
	volume_envelope 9, 7
	note A_, 2
	note A_, 2
	note A_, 2
	octave 2
	volume_envelope 11, 7
	note C_, 2
	octave 1
	volume_envelope 9, 7
	note A_, 2
	note A_, 2
	octave 2
	volume_envelope 11, 7
	note D_, 2
;Bar 14
	octave 1
	volume_envelope 9, 7
	note A_, 2
	note A_, 2
	octave 2
	volume_envelope 11, 7
	note C_, 2
	octave 1
	volume_envelope 9, 7
	note A_, 2
	note A_, 2
	volume_envelope 11, 7
	note B_, 2
	volume_envelope 9, 7
	note A_, 2
	note A_, 2
;Bar 15
	volume_envelope 11, 7
	note A_, 2
	volume_envelope 9, 7
	note A_, 2
	note A_, 2
	note A_, 2
	octave 2
	volume_envelope 11, 7
	note C_, 2
	octave 1
	volume_envelope 9, 7
	note A_, 2
	note A_, 2
	octave 2
	volume_envelope 11, 7
	note D_, 2
;Bar 16
	octave 1
	volume_envelope 9, 7
	note A_, 2
	note A_, 2
	octave 2
	volume_envelope 11, 7
	note E_, 2
	octave 1
	volume_envelope 9, 7
	note A_, 2
	note A_, 2
	octave 2
	volume_envelope 11, 7
	note D_, 2
	octave 1
	volume_envelope 9, 7
	note A_, 2
	note A_, 2
;Bar 17
	octave 2
	volume_envelope 11, 7
	note D_, 2
	volume_envelope 8, 7
	note D_, 2
	volume_envelope 9, 7
	note D_, 2
	note D_, 2
	volume_envelope 11, 7
	note F_, 2
	volume_envelope 9, 7
	note D_, 2
	note D_, 2
	volume_envelope 11, 7
	note G_, 2
;Bar 18
	volume_envelope 9, 7
	note D_, 2
	note D_, 2
	volume_envelope 11, 7
	note F_, 2
	volume_envelope 9, 7
	note D_, 2
	note D_, 2
	volume_envelope 11, 7
	note E_, 2
	volume_envelope 9, 7
	note D_, 2
	note D_, 2
;Bar 19
	volume_envelope 11, 7
	note D_, 2
	volume_envelope 9, 7
	note D_, 2
	note D_, 2
	note D_, 2
	volume_envelope 11, 7
	note F_, 2
	volume_envelope 9, 7
	note D_, 2
	note D_, 2
	volume_envelope 11, 7
	note G_, 2
;Bar 20
	volume_envelope 9, 7
	note D_, 2
	note D_, 2
	volume_envelope 11, 7
	note A_, 2
	volume_envelope 9, 7
	note D_, 2
	note D_, 2
	volume_envelope 11, 7
	note G_, 2
	volume_envelope 9, 7
	note D_, 2
	note D_, 2
;Bar 21
	octave 1
	volume_envelope 11, 7
	note E_, 16
;Bar 22
	note F_, 12
	note F_, 2
	volume_envelope 9, 7
	note F_, 2
;Bar 23
	volume_envelope 11, 7
	note G_, 16
;Bar 24
	note G#, 10
	volume_envelope 9, 7
	note G#, 2
	volume_envelope 12, 7
	note G#, 2
	volume_envelope 8, 7
	note G#, 2
;Bar 25
	volume_envelope 11, 7
	note A_, 16
;Bar 26
	note F_, 10
	note F_, 2
	note F_, 1
	rest 3
;Bar 27
	note F#, 14
	note F#, 2
;Bar 28
	note G_, 2
	volume_envelope 9, 7
	note G_, 2
	note G_, 2
	volume_envelope 11, 7
	note G_, 2
	volume_envelope 9, 7
	note G_, 2
	note G_, 2
	volume_envelope 11, 7
	note G_, 4
;Bar 29
	note G#, 16
;Bar 30
	note A_, 12
	note A_, 2
	note A_, 2
;Bar 31
	note B_, 16
;Bar 32
	octave 2
	note C_, 10
	volume_envelope 9, 7
	note C_, 2
	volume_envelope 12, 7
	note C_, 2
	volume_envelope 8, 7
	note C_, 2
;Bar 33
	octave 1
	volume_envelope 11, 7
	note D_, 12
	note D_, 2
	note D_, 2
;Bar 34
	note D#, 12
	note D#, 2
	note D#, 2
;Bar 35
	note E_, 14
	volume_envelope 9, 7
	note E_, 2
;Bar 36
	volume_envelope 11, 7
	note E_, 2
	volume_envelope 9, 7
	note E_, 2
	note E_, 2
	volume_envelope 11, 7
	note E_, 2
	volume_envelope 9, 7
	note E_, 2
	note E_, 2
	volume_envelope 11, 7
	note G#, 4
;Bar 37
	note A_, 2
	volume_envelope 9, 7
	note A_, 2
	note A_, 2
	note A_, 2
	octave 2
	volume_envelope 11, 7
	note C_, 2
	octave 1
	volume_envelope 9, 7
	note A_, 2
	note A_, 2
	octave 2
	volume_envelope 11, 7
	note D_, 2
;Bar 38
	octave 1
	volume_envelope 9, 7
	note A_, 2
	note A_, 2
	octave 2
	volume_envelope 11, 7
	note C_, 2
	octave 1
	volume_envelope 9, 7
	note A_, 2
	note A_, 2
	volume_envelope 11, 7
	note B_, 2
	volume_envelope 9, 7
	note A_, 2
	note A_, 2
;Bar 39
	volume_envelope 11, 7
	note A_, 2
	volume_envelope 9, 7
	note A_, 2
	note A_, 2
	note A_, 2
	octave 2
	volume_envelope 11, 7
	note C_, 2
	octave 1
	volume_envelope 9, 7
	note A_, 2
	note A_, 2
	octave 2
	volume_envelope 11, 7
	note D_, 2
;Bar 40
	octave 1
	volume_envelope 9, 7
	note A_, 2
	note A_, 2
	octave 2
	volume_envelope 11, 7
	note E_, 2
	octave 1
	volume_envelope 9, 7
	note A_, 2
	note A_, 2
	octave 2
	volume_envelope 11, 7
	note D_, 2
	octave 1
	volume_envelope 9, 7
	note A_, 2
	note A_, 2
;Bar 41
	volume_envelope 11, 7
	note A_, 2
	volume_envelope 9, 7
	note A_, 2
	note A_, 2
	note A_, 2
	octave 2
	volume_envelope 11, 7
	note C_, 2
	octave 1
	volume_envelope 9, 7
	note A_, 2
	note A_, 2
	octave 2
	volume_envelope 11, 7
	note D_, 2
;Bar 42
	octave 1
	volume_envelope 9, 7
	note A_, 2
	note A_, 2
	octave 2
	volume_envelope 11, 7
	note C_, 2
	octave 1
	volume_envelope 9, 7
	note A_, 2
	note A_, 2
	volume_envelope 11, 7
	note B_, 2
	volume_envelope 9, 7
	note A_, 2
	note A_, 2
;Bar 43
	volume_envelope 11, 7
	note A_, 2
	volume_envelope 9, 7
	note A_, 2
	note A_, 2
	note A_, 2
	octave 2
	volume_envelope 11, 7
	note C_, 2
	octave 1
	volume_envelope 9, 7
	note A_, 2
	note A_, 2
	octave 2
	volume_envelope 11, 7
	note D_, 2
;Bar 44
	octave 1
	volume_envelope 9, 7
	note A_, 2
	note A_, 2
	octave 2
	volume_envelope 11, 7
	note E_, 2
	octave 1
	volume_envelope 9, 7
	note A_, 2
	note A_, 2
	octave 2
	volume_envelope 11, 7
	note D_, 2
	octave 1
	volume_envelope 9, 7
	note A_, 2
	note A_, 2
;Bar 45
	volume_envelope 11, 7
	note A_, 2
	volume_envelope 9, 7
	note A_, 2
	note A_, 2
	note A_, 2
	octave 2
	volume_envelope 11, 7
	note C_, 2
	octave 1
	volume_envelope 9, 7
	note A_, 2
	note A_, 2
	octave 2
	volume_envelope 11, 7
	note D_, 2
;Bar 46
	octave 1
	volume_envelope 9, 7
	note A_, 2
	note A_, 2
	octave 2
	volume_envelope 11, 7
	note C_, 2
	octave 1
	volume_envelope 9, 7
	note A_, 2
	note A_, 2
	volume_envelope 11, 7
	note B_, 2
	volume_envelope 9, 7
	note A_, 2
	note A_, 2
;Bar 47
	volume_envelope 11, 7
	note A_, 2
	volume_envelope 9, 7
	note A_, 2
	note A_, 2
	note A_, 2
	octave 2
	volume_envelope 11, 7
	note C_, 2
	octave 1
	volume_envelope 9, 7
	note A_, 2
	note A_, 2
	octave 2
	volume_envelope 11, 7
	note D_, 2
;Bar 48
	octave 1
	volume_envelope 9, 7
	note A_, 2
	note A_, 2
	octave 2
	volume_envelope 11, 7
	note E_, 2
	octave 1
	volume_envelope 9, 7
	note A_, 2
	note A_, 2
	octave 2
	volume_envelope 11, 7
	note D_, 2
	octave 1
	volume_envelope 9, 7
	note A_, 2
	note A_, 2
;Bar 49
	octave 2
	volume_envelope 11, 7
	note D_, 2
	volume_envelope 8, 7
	note D_, 2
	volume_envelope 9, 7
	note D_, 2
	note D_, 2
	volume_envelope 11, 7
	note F_, 2
	volume_envelope 9, 7
	note D_, 2
	note D_, 2
	volume_envelope 11, 7
	note G_, 2
;Bar 50
	volume_envelope 9, 7
	note D_, 2
	note D_, 2
	volume_envelope 11, 7
	note F_, 2
	volume_envelope 9, 7
	note D_, 2
	note D_, 2
	volume_envelope 11, 7
	note E_, 2
	volume_envelope 9, 7
	note D_, 2
	note D_, 2
;Bar 51
	volume_envelope 11, 7
	note D_, 2
	volume_envelope 9, 7
	note D_, 2
	note D_, 2
	note D_, 2
	volume_envelope 11, 7
	note F_, 2
	volume_envelope 9, 7
	note D_, 2
	note D_, 2
	volume_envelope 11, 7
	note G_, 2
;Bar 52
	volume_envelope 9, 7
	note D_, 2
	note D_, 2
	volume_envelope 11, 7
	note A_, 2
	volume_envelope 9, 7
	note D_, 2
	note D_, 2
	volume_envelope 11, 7
	note G_, 2
	volume_envelope 9, 7
	note D_, 2
	note D_, 2
;Bar 53
	octave 1
	volume_envelope 11, 7
	note A_, 2
	volume_envelope 9, 7
	note A_, 2
	note A_, 2
	note A_, 2
	octave 2
	volume_envelope 11, 7
	note C_, 2
	octave 1
	volume_envelope 9, 7
	note A_, 2
	note A_, 2
	octave 2
	volume_envelope 11, 7
	note D_, 2
;Bar 54
	octave 1
	volume_envelope 9, 7
	note A_, 2
	note A_, 2
	octave 2
	volume_envelope 11, 7
	note C_, 2
	octave 1
	volume_envelope 9, 7
	note A_, 2
	note A_, 2
	volume_envelope 11, 7
	note B_, 2
	volume_envelope 9, 7
	note A_, 2
	note A_, 2
;Bar 55
	volume_envelope 11, 7
	note A_, 2
	volume_envelope 9, 7
	note A_, 2
	note A_, 2
	note A_, 2
	octave 2
	volume_envelope 11, 7
	note C_, 2
	octave 1
	volume_envelope 9, 7
	note A_, 2
	note A_, 2
	octave 2
	volume_envelope 11, 7
	note D_, 2
;Bar 56
	octave 1
	volume_envelope 9, 7
	note A_, 2
	note A_, 2
	octave 2
	volume_envelope 11, 7
	note E_, 2
	octave 1
	volume_envelope 9, 7
	note A_, 2
	note A_, 2
	octave 2
	volume_envelope 11, 7
	note D_, 2
	octave 1
	volume_envelope 9, 7
	note A_, 2
	note A_, 2
;Bar 57
	octave 2
	volume_envelope 11, 7
	note D_, 2
	volume_envelope 8, 7
	note D_, 2
	volume_envelope 9, 7
	note D_, 2
	note D_, 2
	volume_envelope 11, 7
	note F_, 2
	volume_envelope 9, 7
	note D_, 2
	note D_, 2
	volume_envelope 11, 7
	note G_, 2
;Bar 58
	volume_envelope 9, 7
	note D_, 2
	note D_, 2
	volume_envelope 11, 7
	note F_, 2
	volume_envelope 9, 7
	note D_, 2
	note D_, 2
	volume_envelope 11, 7
	note E_, 2
	volume_envelope 9, 7
	note D_, 2
	note D_, 2
;Bar 59
	volume_envelope 11, 7
	note D_, 2
	volume_envelope 9, 7
	note D_, 2
	note D_, 2
	note D_, 2
	volume_envelope 11, 7
	note F_, 2
	volume_envelope 9, 7
	note D_, 2
	note D_, 2
	volume_envelope 11, 7
	note G_, 2
;Bar 60
	volume_envelope 9, 7
	note D_, 2
	note D_, 2
	volume_envelope 11, 7
	note A_, 2
	volume_envelope 9, 7
	note D_, 2
	note D_, 2
	volume_envelope 11, 7
	note G_, 2
	volume_envelope 9, 7
	note D_, 2
	note D_, 2
;Bar 61
	octave 1
	volume_envelope 11, 7
	note E_, 16
;Bar 62
	note F_, 12
	note F_, 2
	volume_envelope 9, 7
	note F_, 2
;Bar 63
	volume_envelope 11, 7
	note G_, 16
;Bar 64
	note G#, 10
	volume_envelope 9, 7
	note G#, 2
	volume_envelope 12, 7
	note G#, 2
	volume_envelope 8, 7
	note G#, 2
;Bar 65
	volume_envelope 11, 7
	note A_, 16
;Bar 66
	note F_, 10
	note F_, 2
	note F_, 1
	rest 3
;Bar 67
	note F#, 14
	note F#, 2
;Bar 68
	note G_, 2
	volume_envelope 9, 7
	note G_, 2
	note G_, 2
	volume_envelope 11, 7
	note G_, 2
	volume_envelope 9, 7
	note G_, 2
	note G_, 2
	volume_envelope 11, 7
	note G_, 4
;Bar 69
	note G#, 16
;Bar 70
	note A_, 12
	note A_, 2
	note A_, 2
;Bar 71
	note B_, 16
;Bar 72
	octave 2
	note C_, 10
	volume_envelope 9, 7
	note C_, 2
	volume_envelope 12, 7
	note C_, 2
	volume_envelope 8, 7
	note C_, 2
;Bar 73
	octave 1
	volume_envelope 11, 7
	note D_, 12
	note D_, 2
	note D_, 2
;Bar 74
	note D#, 12
	note D#, 2
	note D#, 2
;Bar 75
	note E_, 14
	volume_envelope 9, 7
	note E_, 2
;Bar 76
	volume_envelope 11, 7
	note E_, 2
	volume_envelope 9, 7
	note E_, 2
	note E_, 2
	volume_envelope 11, 7
	note E_, 2
	volume_envelope 9, 7
	note E_, 2
	note E_, 2
	volume_envelope 11, 7
	note G#, 4
;Bar 77
	note A_, 2
	volume_envelope 9, 7
	note A_, 2
	note A_, 2
	note A_, 2
	octave 2
	volume_envelope 11, 7
	note C_, 2
	octave 1
	volume_envelope 9, 7
	note A_, 2
	note A_, 2
	octave 2
	volume_envelope 11, 7
	note D_, 2
;Bar 78
	octave 1
	volume_envelope 9, 7
	note A_, 2
	note A_, 2
	octave 2
	volume_envelope 11, 7
	note C_, 2
	octave 1
	volume_envelope 9, 7
	note A_, 2
	note A_, 2
	volume_envelope 11, 7
	note B_, 2
	volume_envelope 9, 7
	note A_, 2
	note A_, 2
;Bar 79
	volume_envelope 11, 7
	note A_, 2
	volume_envelope 9, 7
	note A_, 2
	note A_, 2
	note A_, 2
	octave 2
	volume_envelope 11, 7
	note C_, 2
	octave 1
	volume_envelope 9, 7
	note A_, 2
	note A_, 2
	octave 2
	volume_envelope 11, 7
	note D_, 2
;Bar 80
	octave 1
	volume_envelope 9, 7
	note A_, 2
	note A_, 2
	octave 2
	volume_envelope 11, 7
	note E_, 2
	octave 1
	volume_envelope 9, 7
	note A_, 2
	note A_, 2
	octave 2
	volume_envelope 11, 7
	note D_, 2
	octave 1
	volume_envelope 9, 7
	note A_, 2
	note A_, 2
;Bar 81
	volume_envelope 11, 7
	note A_, 2
	volume_envelope 9, 7
	note A_, 2
	note A_, 2
	note A_, 2
	octave 2
	volume_envelope 11, 7
	note C_, 2
	octave 1
	volume_envelope 9, 7
	note A_, 2
	note A_, 2
	octave 2
	volume_envelope 11, 7
	note D_, 2
;Bar 82
	octave 1
	volume_envelope 9, 7
	note A_, 2
	note A_, 2
	octave 2
	volume_envelope 11, 7
	note C_, 2
	octave 1
	volume_envelope 9, 7
	note A_, 2
	note A_, 2
	volume_envelope 11, 7
	note B_, 2
	volume_envelope 9, 7
	note A_, 2
	note A_, 2
;Bar 83
	volume_envelope 11, 7
	note A_, 2
	volume_envelope 9, 7
	note A_, 2
	note A_, 2
	note A_, 2
	octave 2
	volume_envelope 11, 7
	note C_, 2
	octave 1
	volume_envelope 9, 7
	note A_, 2
	note A_, 2
	octave 2
	volume_envelope 11, 7
	note D_, 2
;Bar 84
	octave 1
	volume_envelope 9, 7
	note A_, 2
	note A_, 2
	octave 2
	volume_envelope 11, 7
	note E_, 2
	octave 1
	volume_envelope 9, 7
	note A_, 2
	note A_, 2
	octave 2
	volume_envelope 11, 7
	note D_, 2
	octave 1
	volume_envelope 9, 7
	note A_, 2
	note A_, 2
	sound_loop 0, .mainloop

; ============================================================================================================

Music_WildBeast_Ch3:
	note_type 12, 1, 0
	tempo 106
;Bar 1
	volume_envelope 2, 0
	rest 16
.mainloop
	rest 16
	rest 16
	rest 16
	rest 2
;Bar 5
	octave 4
	volume_envelope 1, 0
	note A_, 2
	octave 5
	note E_, 2
	note A_, 2
	note E_, 2
	note B_, 2
	note E_, 2
	octave 4
	note A_, 2
;Bar 6
	octave 6
	note C_, 2
	octave 5
	note E_, 2
	octave 4
	note A_, 2
	octave 5
	note B_, 2
	note E_, 2
	octave 4
	note A_, 2
	octave 5
	note A_, 2
	note E_, 2
;Bar 7
	octave 4
	note A_, 2
	octave 5
	note E_, 2
	octave 4
	note A_, 2
	octave 5
	note A_, 2
	note E_, 2
	note B_, 2
	note E_, 2
	octave 4
	note A_, 2
;Bar 8
	octave 6
	note C_, 2
	octave 5
	note E_, 2
	octave 4
	note A_, 2
	octave 6
	note D_, 2
	octave 5
	note E_, 2
	octave 4
	note A_, 2
	octave 6
	note C_, 2
	octave 5
	note E_, 2
;Bar 9
	octave 4
	note A_, 2
	octave 5
	note D_, 2
	note A_, 2
	octave 6
	note D_, 2
	octave 5
	note A_, 2
	octave 6
	note E_, 2
	octave 5
	note A_, 2
	note D_, 2
;Bar 10
	octave 6
	note F_, 2
	octave 5
	note A_, 2
	note D_, 2
	octave 6
	note E_, 2
	octave 5
	note A_, 2
	note D_, 2
	octave 6
	note D_, 2
	octave 5
	note A_, 2
;Bar 11
	note D_, 2
	note A_, 2
	note D_, 2
	octave 6
	note D_, 2
	octave 5
	note A_, 2
	octave 6
	note E_, 2
	octave 5
	note A_, 2
	note D_, 2
;Bar 12
	octave 6
	note F_, 2
	octave 5
	note A_, 2
	note D_, 2
	octave 6
	note G_, 2
	octave 5
	note A_, 2
	note D_, 2
	octave 6
	note F_, 2
	octave 5
	note A_, 2
;Bar 13
	note D_, 2
	octave 4
	note A_, 2
	octave 5
	note E_, 2
	note A_, 2
	note E_, 2
	note B_, 2
	note E_, 2
	octave 4
	note A_, 2
;Bar 14
	octave 6
	note C_, 2
	octave 5
	note E_, 2
	octave 4
	note A_, 2
	octave 5
	note B_, 2
	note E_, 2
	octave 4
	note A_, 2
	octave 5
	note A_, 2
	note E_, 2
;Bar 15
	octave 4
	note A_, 2
	octave 5
	note E_, 2
	octave 4
	note A_, 2
	octave 5
	note A_, 2
	note E_, 2
	note B_, 2
	note E_, 2
	octave 4
	note A_, 2
;Bar 16
	octave 6
	note C_, 2
	octave 5
	note E_, 2
	octave 4
	note A_, 2
	octave 6
	note D_, 2
	octave 5
	note E_, 2
	octave 4
	note A_, 2
	octave 6
	note C_, 2
	octave 5
	note E_, 2
;Bar 17
	octave 4
	note A_, 2
	octave 5
	note D_, 2
	note A_, 2
	octave 6
	note D_, 2
	octave 5
	note A_, 2
	octave 6
	note E_, 2
	octave 5
	note A_, 2
	note D_, 2
;Bar 18
	octave 6
	note F_, 2
	octave 5
	note A_, 2
	note D_, 2
	octave 6
	note E_, 2
	octave 5
	note A_, 2
	note D_, 2
	octave 6
	note D_, 2
	octave 5
	note A_, 2
;Bar 19
	note D_, 2
	note A_, 2
	note D_, 2
	octave 6
	note D_, 2
	octave 5
	note A_, 2
	octave 6
	note E_, 2
	octave 5
	note A_, 2
	note D_, 2
;Bar 20
	octave 6
	note F_, 2
	octave 5
	note A_, 2
	note D_, 2
	octave 6
	note G_, 2
	octave 5
	note A_, 2
	note D_, 2
	octave 6
	note F_, 2
	octave 5
	note A_, 2
;Bar 21
	note D_, 2
	octave 4
	note E_, 8
	note G_, 1
	note B_, 1
	octave 5
	note D_, 1
	note E_, 1
	note G#, 1
	note B_, 1
;Bar 22
	octave 6
	note D_, 1
	note E_, 1
	note F_, 1
	note E_, 1
	note F_, 1
	note E_, 1
	note F_, 1
	note E_, 1
	note F_, 1
	note E_, 1
	note D_, 1
	note C_, 1
	note D_, 1
	note E_, 1
	note D_, 1
	note C_, 1
;Bar 23
	octave 5
	note B_, 1
	note A_, 1
	note B_, 1
	note A_, 1
	note G_, 1
	note F_, 1
	note B_, 1
	note A_, 1
	note G_, 1
	note F_, 1
	note G_, 1
	note A_, 1
	note G_, 1
	note F_, 1
	note E_, 1
	note F_, 1
;Bar 24
	note E_, 1
	note D_, 1
	note C_, 1
	octave 4
	note B_, 1
	note A_, 1
	note B_, 1
	octave 5
	note C_, 1
	note D_, 1
	note C_, 1
	octave 4
	note B_, 1
	note A_, 1
	note B_, 1
	note A_, 1
	note G#, 1
	note A_, 1
	note G#, 1
;Bar 25
	note E_, 1
	note F_, 1
	note E_, 1
	note D_, 1
	note C_, 1
	note D_, 1
	note E_, 1
	note G_, 1
	note A_, 1
	note B_, 1
	octave 5
	note C_, 1
	note D_, 1
	note E_, 1
	note F_, 1
	note E_, 1
	note D_, 1
;Bar 26
	note C_, 1
	note D_, 1
	note E_, 1
	note D_, 1
	note C_, 1
	octave 4
	note B_, 1
	note A_, 1
	note G_, 1
	note A_, 1
	note B_, 1
	note A_, 1
	note G_, 1
	note F_, 1
	note E_, 1
	note D_, 1
	note C_, 1
;Bar 27
	note D_, 1
	note E_, 1
	note F#, 1
	note E_, 1
	note D_, 1
	octave 3
	note B_, 1
	note A_, 1
	note G_, 1
	note F#, 1
	note G_, 1
	note A_, 1
	note B_, 1
	octave 4
	note D_, 1
	note C_, 1
	note D_, 1
	note E_, 1
;Bar 28
	note D_, 1
	note C_, 1
	octave 3
	note B_, 1
	note A_, 1
	note B_, 1
	octave 4
	note C_, 1
	note D_, 1
	note E_, 1
	note F_, 1
	note G_, 1
	note A_, 1
	note B_, 1
	octave 5
	note C_, 1
	note D_, 1
	note E_, 1
	note F_, 1
;Bar 29
	note G_, 1
	note A_, 1
	note B_, 1
	note G#, 1
	note E_, 1
	note D_, 1
	octave 4
	note B_, 1
	octave 5
	note D_, 1
	note E_, 1
	note F#, 1
	note G#, 1
	note A_, 1
	note B_, 1
	note G#, 1
	note A_, 1
	note B_, 1
;Bar 30
	octave 6
	note C_, 1
	note D_, 1
	note E_, 1
	note D_, 1
	note C_, 1
	octave 5
	note B_, 1
	note A_, 1
	note B_, 1
	note A_, 1
	note G_, 1
	note F_, 1
	note E_, 1
	note D_, 1
	note E_, 1
	note D_, 1
	note C_, 1
;Bar 31
	note D_, 1
	note E_, 1
	note D_, 1
	note C_, 1
	note D_, 1
	note E_, 1
	note F_, 1
	note G_, 1
	note E_, 1
	note F_, 1
	note G_, 1
	note A_, 1
	note B_, 1
	note G_, 1
	note F_, 1
	note G_, 1
;Bar 32
	note A_, 1
	note B_, 1
	octave 6
	note C_, 1
	octave 5
	note G_, 1
	note C_, 1
	octave 6
	note C_, 1
	octave 5
	note G_, 1
	note C_, 1
	note B_, 1
	note G_, 1
	note C_, 1
	note B_, 1
	note G_, 1
	note C_, 1
	note G_, 1
	note E_, 1
;Bar 33
	octave 4
	note G_, 1
	octave 5
	note F_, 1
	note G_, 1
	note F_, 1
	note D_, 1
	note A_, 1
	note G_, 1
	note D_, 1
	note B_, 1
	octave 6
	note C_, 1
	octave 5
	note B_, 1
	octave 6
	note D_, 1
	note C_, 1
	octave 5
	note B_, 1
	note A_, 1
	note B_, 1
;Bar 34
	octave 6
	note C_, 1
	note D_, 1
	note C_, 1
	octave 5
	note A#, 1
	note A_, 1
	note G_, 1
	note F_, 1
	note D#, 1
	note F_, 1
	note G_, 1
	note A_, 1
	note A#, 1
	note G_, 1
	note A_, 1
	note A#, 1
	octave 6
	note C_, 1
;Bar 35
	note D_, 1
	note D#, 1
	note E_, 1
	note D_, 1
	octave 5
	note B_, 1
	note A_, 1
	octave 6
	note E_, 1
	note D_, 1
	octave 5
	note B_, 1
	note A_, 1
	octave 6
	note E_, 1
	octave 5
	note B_, 1
	note G#, 1
	note E_, 1
	octave 6
	note E_, 1
	octave 5
	note B_, 1
;Bar 36
	note G#, 1
	note E_, 1
	octave 6
	note D_, 1
	octave 5
	note B_, 1
	note G#, 1
	note E_, 1
	octave 6
	note D_, 1
	octave 5
	note B_, 1
	note G#, 1
	note E_, 1
	note D_, 1
	note C_, 1
	octave 4
	note B_, 1
	note A_, 1
	note G#, 1
	note F_, 1
;Bar 37
	note E_, 1
	note D_, 1
	rest 8
	octave 6
	note D_, 16
	note D_, 16
;Bar 39
	note C#, 1
	note C_, 1
	octave 5
	note B_, 1
	note A_, 1
	note B_, 1
	octave 6
	note C_, 1
;Bar 40
	note D_, 1
	note C_, 1
	octave 5
	note B_, 1
	note A_, 1
	note G_, 1
	note F_, 1
	note G_, 1
	note A_, 1
	note B_, 1
	note A_, 1
	note G_, 1
	note F_, 1
	note E_, 1
	note D_, 1
	note E_, 1
	note C_, 1
;Bar 41
	note D_, 1
	note E_, 1
	note D_, 1
	note C_, 1
	octave 4
	note B_, 1
	octave 5
	note C_, 1
	octave 4
	note B_, 1
	note A_, 1
	note G_, 1
	note A_, 1
	note G_, 1
	note E_, 1
	note D_, 1
	note E_, 1
	note G_, 1
	note A_, 1
;Bar 42
	note B_, 1
	octave 5
	note C_, 1
	octave 4
	note B_, 1
	note A_, 1
	note G_, 1
	note E_, 1
	octave 5
	note C_, 1
	octave 4
	note B_, 1
	note A_, 1
	note G_, 1
	note E_, 1
	note D_, 1
	octave 5
	note C_, 1
	octave 4
	note B_, 1
	note A_, 1
	note G_, 1
;Bar 43
	note E_, 1
	note D_, 1
	note D#, 1
	note E_, 16
	note E_, 15
;Bar 45
	note A_, 2
	octave 5
	note E_, 2
	note A_, 2
	note E_, 2
	note B_, 2
	note E_, 2
	octave 4
	note A_, 2
;Bar 46
	octave 6
	note C_, 2
	octave 5
	note E_, 2
	octave 4
	note A_, 2
	octave 5
	note B_, 2
	note E_, 2
	octave 4
	note A_, 2
	octave 5
	note A_, 2
	note E_, 2
;Bar 47
	octave 4
	note A_, 2
	octave 5
	note E_, 2
	octave 4
	note A_, 2
	octave 5
	note A_, 2
	note E_, 2
	note B_, 2
	note E_, 2
	octave 4
	note A_, 2
;Bar 48
	octave 6
	note C_, 2
	octave 5
	note E_, 2
	octave 4
	note A_, 2
	octave 6
	note D_, 2
	octave 5
	note E_, 2
	octave 4
	note A_, 2
	octave 6
	note C_, 2
	octave 5
	note E_, 2
;Bar 49
	octave 4
	note A_, 2
	octave 5
	note D_, 2
	note A_, 2
	octave 6
	note D_, 2
	octave 5
	note A_, 2
	octave 6
	note E_, 2
	octave 5
	note A_, 2
	note D_, 2
;Bar 50
	octave 6
	note F_, 2
	octave 5
	note A_, 2
	note D_, 2
	octave 6
	note E_, 2
	octave 5
	note A_, 2
	note D_, 2
	octave 6
	note D_, 2
	octave 5
	note A_, 2
;Bar 51
	note D_, 2
	note A_, 2
	note D_, 2
	octave 6
	note D_, 2
	octave 5
	note A_, 2
	octave 6
	note E_, 2
	octave 5
	note A_, 2
	note D_, 2
;Bar 52
	octave 6
	note F_, 2
	octave 5
	note A_, 2
	note D_, 2
	octave 6
	note G_, 2
	octave 5
	note A_, 2
	note D_, 2
	octave 6
	note F_, 2
	octave 5
	note A_, 2
;Bar 53
	note D_, 2
	octave 4
	note A_, 2
	octave 5
	note E_, 2
	note A_, 2
	note E_, 2
	note B_, 2
	note E_, 2
	octave 4
	note A_, 2
;Bar 54
	octave 6
	note C_, 2
	octave 5
	note E_, 2
	octave 4
	note A_, 2
	octave 5
	note B_, 2
	note E_, 2
	octave 4
	note A_, 2
	octave 5
	note A_, 2
	note E_, 2
;Bar 55
	octave 4
	note A_, 2
	octave 5
	note E_, 2
	octave 4
	note A_, 2
	octave 5
	note A_, 2
	note E_, 2
	note B_, 2
	note E_, 2
	octave 4
	note A_, 2
;Bar 56
	octave 6
	note C_, 2
	octave 5
	note E_, 2
	octave 4
	note A_, 2
	octave 6
	note D_, 2
	octave 5
	note E_, 2
	octave 4
	note A_, 2
	octave 6
	note C_, 2
	octave 5
	note E_, 2
;Bar 57
	octave 4
	note A_, 2
	octave 5
	note D_, 2
	note A_, 2
	octave 6
	note D_, 2
	octave 5
	note A_, 2
	octave 6
	note E_, 2
	octave 5
	note A_, 2
	note D_, 2
;Bar 58
	octave 6
	note F_, 2
	octave 5
	note A_, 2
	note D_, 2
	octave 6
	note E_, 2
	octave 5
	note A_, 2
	note D_, 2
	octave 6
	note D_, 2
	octave 5
	note A_, 2
;Bar 59
	note D_, 2
	note A_, 2
	note D_, 2
	octave 6
	note D_, 2
	octave 5
	note A_, 2
	octave 6
	note E_, 2
	octave 5
	note A_, 2
	note D_, 2
;Bar 60
	octave 6
	note F_, 2
	octave 5
	note A_, 2
	note D_, 2
	octave 6
	note G_, 2
	octave 5
	note A_, 2
	note D_, 2
	octave 6
	note F_, 2
	octave 5
	note A_, 2
;Bar 61
	note D_, 2
	octave 4
	note E_, 8
	note G_, 1
	note B_, 1
	octave 5
	note D_, 1
	note E_, 1
	note G#, 1
	note B_, 1
;Bar 62
	octave 6
	note D_, 1
	note E_, 1
	note F_, 1
	note E_, 1
	note F_, 1
	note E_, 1
	note F_, 1
	note E_, 1
	note F_, 1
	note E_, 1
	note D_, 1
	note C_, 1
	note D_, 1
	note E_, 1
	note D_, 1
	note C_, 1
;Bar 63
	octave 5
	note B_, 1
	note A_, 1
	note B_, 1
	note A_, 1
	note G_, 1
	note F_, 1
	note B_, 1
	note A_, 1
	note G_, 1
	note F_, 1
	note G_, 1
	note A_, 1
	note G_, 1
	note F_, 1
	note E_, 1
	note F_, 1
;Bar 64
	note E_, 1
	note D_, 1
	note C_, 1
	octave 4
	note B_, 1
	note A_, 1
	note B_, 1
	octave 5
	note C_, 1
	note D_, 1
	note C_, 1
	octave 4
	note B_, 1
	note A_, 1
	note B_, 1
	note A_, 1
	note G#, 1
	note A_, 1
	note G#, 1
;Bar 65
	note E_, 1
	note F_, 1
	note E_, 1
	note D_, 1
	note C_, 1
	note D_, 1
	note E_, 1
	note G_, 1
	note A_, 1
	note B_, 1
	octave 5
	note C_, 1
	note D_, 1
	note E_, 1
	note F_, 1
	note E_, 1
	note D_, 1
;Bar 66
	note C_, 1
	note D_, 1
	note E_, 1
	note D_, 1
	note C_, 1
	octave 4
	note B_, 1
	note A_, 1
	note G_, 1
	note A_, 1
	note B_, 1
	note A_, 1
	note G_, 1
	note F_, 1
	note E_, 1
	note D_, 1
	note C_, 1
;Bar 67
	note D_, 1
	note E_, 1
	note F#, 1
	note E_, 1
	note D_, 1
	octave 3
	note B_, 1
	note A_, 1
	note G_, 1
	note F#, 1
	note G_, 1
	note A_, 1
	note B_, 1
	octave 4
	note D_, 1
	note C_, 1
	note D_, 1
	note E_, 1
;Bar 68
	note D_, 1
	note C_, 1
	octave 3
	note B_, 1
	note A_, 1
	note B_, 1
	octave 4
	note C_, 1
	note D_, 1
	note E_, 1
	note F_, 1
	note G_, 1
	note A_, 1
	note B_, 1
	octave 5
	note C_, 1
	note D_, 1
	note E_, 1
	note F_, 1
;Bar 69
	note G_, 1
	note A_, 1
	note B_, 1
	note G#, 1
	note E_, 1
	note D_, 1
	octave 4
	note B_, 1
	octave 5
	note D_, 1
	note E_, 1
	note F#, 1
	note G#, 1
	note A_, 1
	note B_, 1
	note G#, 1
	note A_, 1
	note B_, 1
;Bar 70
	octave 6
	note C_, 1
	note D_, 1
	note E_, 1
	note D_, 1
	note C_, 1
	octave 5
	note B_, 1
	note A_, 1
	note B_, 1
	note A_, 1
	note G_, 1
	note F_, 1
	note E_, 1
	note D_, 1
	note E_, 1
	note D_, 1
	note C_, 1
;Bar 71
	note D_, 1
	note E_, 1
	note D_, 1
	note C_, 1
	note D_, 1
	note E_, 1
	note F_, 1
	note G_, 1
	note E_, 1
	note F_, 1
	note G_, 1
	note A_, 1
	note B_, 1
	note G_, 1
	note F_, 1
	note G_, 1
;Bar 72
	note A_, 1
	note B_, 1
	octave 6
	note C_, 1
	octave 5
	note G_, 1
	note C_, 1
	octave 6
	note C_, 1
	octave 5
	note G_, 1
	note C_, 1
	note B_, 1
	note G_, 1
	note C_, 1
	note B_, 1
	note G_, 1
	note C_, 1
	note G_, 1
	note E_, 1
;Bar 73
	octave 4
	note G_, 1
	octave 5
	note F_, 1
	note G_, 1
	note F_, 1
	note D_, 1
	note A_, 1
	note G_, 1
	note D_, 1
	note B_, 1
	octave 6
	note C_, 1
	octave 5
	note B_, 1
	octave 6
	note D_, 1
	note C_, 1
	octave 5
	note B_, 1
	note A_, 1
	note B_, 1
;Bar 74
	octave 6
	note C_, 1
	note D_, 1
	note C_, 1
	octave 5
	note A#, 1
	note A_, 1
	note G_, 1
	note F_, 1
	note D#, 1
	note F_, 1
	note G_, 1
	note A_, 1
	note A#, 1
	note G_, 1
	note A_, 1
	note A#, 1
	octave 6
	note C_, 1
;Bar 75
	note D_, 1
	note D#, 1
	note E_, 1
	note D_, 1
	octave 5
	note B_, 1
	note A_, 1
	octave 6
	note E_, 1
	note D_, 1
	octave 5
	note B_, 1
	note A_, 1
	octave 6
	note E_, 1
	octave 5
	note B_, 1
	note G#, 1
	note E_, 1
	octave 6
	note E_, 1
	octave 5
	note B_, 1
;Bar 76
	note G#, 1
	note E_, 1
	octave 6
	note D_, 1
	octave 5
	note B_, 1
	note G#, 1
	note E_, 1
	octave 6
	note D_, 1
	octave 5
	note B_, 1
	note G#, 1
	note E_, 1
	note D_, 1
	note C_, 1
	octave 4
	note B_, 1
	note A_, 1
	note G#, 1
	note F_, 1
;Bar 77
	note E_, 1
	note D_, 1
	rest 8
	octave 6
	note D_, 16
	note D_, 16
;Bar 79
	note C#, 1
	note C_, 1
	octave 5
	note B_, 1
	note A_, 1
	note B_, 1
	octave 6
	note C_, 1
;Bar 80
	note D_, 1
	note C_, 1
	octave 5
	note B_, 1
	note A_, 1
	note G_, 1
	note F_, 1
	note G_, 1
	note A_, 1
	note B_, 1
	note A_, 1
	note G_, 1
	note F_, 1
	note E_, 1
	note D_, 1
	note E_, 1
	note C_, 1
;Bar 81
	note D_, 1
	note E_, 1
	note D_, 1
	note C_, 1
	octave 4
	note B_, 1
	octave 5
	note C_, 1
	octave 4
	note B_, 1
	note A_, 1
	note G_, 1
	note A_, 1
	note G_, 1
	note E_, 1
	note D_, 1
	note E_, 1
	note G_, 1
	note A_, 1
;Bar 82
	note B_, 1
	octave 5
	note C_, 1
	octave 4
	note B_, 1
	note A_, 1
	note G_, 1
	note E_, 1
	octave 5
	note C_, 1
	octave 4
	note B_, 1
	note A_, 1
	note G_, 1
	note E_, 1
	note D_, 1
	octave 5
	note C_, 1
	octave 4
	note B_, 1
	note A_, 1
	note G_, 1
;Bar 83
	note E_, 1
	note D_, 1
	note D#, 1
	note E_, 16
	note E_, 15
	rest 5
	rest 5
	rest 4
	sound_loop 0, .mainloop

; ============================================================================================================

Music_WildBeast_Ch4:
	toggle_noise 0
	drum_speed 12
.mainloop
;Bar 1
	rest 4
	drum_note 12, 2
	drum_note 12, 6
	drum_note 12, 6
;Bar 2
	drum_note 12, 4
	drum_note 12, 6
	drum_note 12, 2
	drum_note 12, 6
;Bar 3
	drum_note 12, 2
	drum_note 12, 6
	drum_note 12, 6
;Bar 4
	drum_note 12, 4
	drum_note 12, 6
	drum_note 12, 2
	drum_note 12, 6
;Bar 5
	drum_note 3, 2
	drum_note 12, 6
	drum_note 3, 6
;Bar 6
	drum_note 12, 2
	drum_note 3, 2
	drum_note 12, 6
	drum_note 3, 2
	drum_note 12, 6
;Bar 7
	drum_note 3, 2
	drum_note 12, 6
	drum_note 3, 6
;Bar 8
	drum_note 12, 2
	drum_note 3, 2
	drum_note 12, 6
	drum_note 3, 2
	drum_note 12, 6
;Bar 9
	drum_note 3, 2
	drum_note 12, 6
	drum_note 3, 6
;Bar 10
	drum_note 12, 2
	drum_note 3, 2
	drum_note 12, 6
	drum_note 3, 2
	drum_note 12, 6
;Bar 11
	drum_note 3, 2
	drum_note 12, 6
	drum_note 3, 6
;Bar 12
	drum_note 12, 2
	drum_note 3, 2
	drum_note 12, 6
	drum_note 3, 2
	drum_note 12, 6
;Bar 13
	drum_note 3, 2
	drum_note 12, 6
	drum_note 3, 6
;Bar 14
	drum_note 12, 2
	drum_note 3, 2
	drum_note 12, 6
	drum_note 3, 2
	drum_note 12, 6
;Bar 15
	drum_note 3, 2
	drum_note 12, 6
	drum_note 3, 6
;Bar 16
	drum_note 12, 2
	drum_note 3, 2
	drum_note 12, 6
	drum_note 3, 2
	drum_note 12, 6
;Bar 17
	drum_note 3, 2
	drum_note 12, 6
	drum_note 3, 6
;Bar 18
	drum_note 12, 2
	drum_note 3, 2
	drum_note 12, 6
	drum_note 3, 2
	drum_note 12, 6
;Bar 19
	drum_note 3, 2
	drum_note 12, 6
	drum_note 3, 6
;Bar 20
	drum_note 12, 2
	drum_note 3, 2
	drum_note 12, 2
	drum_note 3, 4
	drum_note 3, 4
;Bar 21
	drum_note 12, 16
;Bar 22
	drum_note 12, 12
	drum_note 3, 2
	drum_note 12, 2
;Bar 23
	drum_note 12, 16
;Bar 24
	drum_note 12, 10
	drum_note 12, 2
	drum_note 3, 2
	drum_note 12, 2
;Bar 25
	drum_note 12, 16
;Bar 26
	drum_note 12, 10
	drum_note 7, 2
	drum_note 11, 4
;Bar 27
	drum_note 12, 14
	drum_note 12, 2
;Bar 28
	drum_note 3, 2
	drum_note 12, 2
	drum_note 12, 2
	drum_note 3, 2
	drum_note 12, 2
	drum_note 12, 2
	drum_note 3, 4
;Bar 29
	drum_note 12, 16
;Bar 30
	drum_note 12, 12
	drum_note 3, 2
	drum_note 12, 2
;Bar 31
	drum_note 12, 16
;Bar 32
	drum_note 12, 10
	drum_note 12, 2
	drum_note 3, 2
	drum_note 12, 2
;Bar 33
	drum_note 12, 12
	drum_note 3, 2
	drum_note 12, 2
;Bar 34
	drum_note 12, 10
	drum_note 7, 2
	drum_note 3, 2
	drum_note 12, 2
;Bar 35
	drum_note 12, 8
	drum_note 11, 6
	drum_note 12, 2
;Bar 36
	drum_note 3, 2
	drum_note 12, 2
	drum_note 12, 2
	drum_note 3, 2
	drum_note 12, 2
	drum_note 12, 2
	drum_note 3, 2
	drum_note 12, 6
;Bar 37
	drum_note 12, 2
	drum_note 12, 6
	drum_note 12, 6
;Bar 38
	drum_note 12, 4
	drum_note 12, 6
	drum_note 12, 2
	drum_note 12, 6
;Bar 39
	drum_note 12, 2
	drum_note 12, 6
	drum_note 12, 6
;Bar 40
	drum_note 12, 4
	drum_note 12, 6
	drum_note 12, 2
	drum_note 12, 6
;Bar 41
	drum_note 12, 2
	drum_note 12, 6
	drum_note 12, 6
;Bar 42
	drum_note 12, 4
	drum_note 12, 6
	drum_note 12, 2
	drum_note 12, 6
;Bar 43
	drum_note 12, 2
	drum_note 12, 6
	drum_note 12, 6
;Bar 44
	drum_note 12, 4
	drum_note 12, 6
	drum_note 12, 2
	drum_note 12, 6
;Bar 45
	drum_note 3, 2
	drum_note 12, 6
	drum_note 3, 6
;Bar 46
	drum_note 12, 2
	drum_note 3, 2
	drum_note 12, 6
	drum_note 3, 2
	drum_note 12, 6
;Bar 47
	drum_note 3, 2
	drum_note 12, 6
	drum_note 3, 6
;Bar 48
	drum_note 12, 2
	drum_note 3, 2
	drum_note 12, 6
	drum_note 3, 2
	drum_note 12, 6
;Bar 49
	drum_note 3, 2
	drum_note 12, 6
	drum_note 3, 6
;Bar 50
	drum_note 12, 2
	drum_note 3, 2
	drum_note 12, 6
	drum_note 3, 2
	drum_note 12, 6
;Bar 51
	drum_note 3, 2
	drum_note 12, 6
	drum_note 3, 6
;Bar 52
	drum_note 12, 2
	drum_note 3, 2
	drum_note 12, 6
	drum_note 3, 2
	drum_note 12, 6
;Bar 53
	drum_note 3, 2
	drum_note 12, 6
	drum_note 3, 6
;Bar 54
	drum_note 12, 2
	drum_note 3, 2
	drum_note 12, 6
	drum_note 3, 2
	drum_note 12, 6
;Bar 55
	drum_note 3, 2
	drum_note 12, 6
	drum_note 3, 6
;Bar 56
	drum_note 12, 2
	drum_note 3, 2
	drum_note 12, 6
	drum_note 3, 2
	drum_note 12, 6
;Bar 57
	drum_note 3, 2
	drum_note 12, 6
	drum_note 3, 6
;Bar 58
	drum_note 12, 2
	drum_note 3, 2
	drum_note 12, 6
	drum_note 3, 2
	drum_note 12, 6
;Bar 59
	drum_note 3, 2
	drum_note 12, 6
	drum_note 3, 6
;Bar 60
	drum_note 12, 2
	drum_note 3, 2
	drum_note 12, 2
	drum_note 3, 4
	drum_note 3, 4
;Bar 61
	drum_note 12, 16
;Bar 62
	drum_note 12, 12
	drum_note 3, 2
	drum_note 12, 2
;Bar 63
	drum_note 12, 16
;Bar 64
	drum_note 12, 10
	drum_note 12, 2
	drum_note 3, 2
	drum_note 12, 2
;Bar 65
	drum_note 12, 16
;Bar 66
	drum_note 12, 10
	drum_note 7, 2
	drum_note 11, 4
;Bar 67
	drum_note 12, 14
	drum_note 12, 2
;Bar 68
	drum_note 3, 2
	drum_note 12, 2
	drum_note 12, 2
	drum_note 3, 2
	drum_note 12, 2
	drum_note 12, 2
	drum_note 3, 4
;Bar 69
	drum_note 12, 16
;Bar 70
	drum_note 12, 12
	drum_note 3, 2
	drum_note 12, 2
;Bar 71
	drum_note 12, 16
;Bar 72
	drum_note 12, 10
	drum_note 12, 2
	drum_note 3, 2
	drum_note 12, 2
;Bar 73
	drum_note 12, 12
	drum_note 3, 2
	drum_note 12, 2
;Bar 74
	drum_note 12, 10
	drum_note 7, 2
	drum_note 3, 2
	drum_note 12, 2
;Bar 75
	drum_note 12, 8
	drum_note 11, 6
	drum_note 12, 2
;Bar 76
	drum_note 3, 2
	drum_note 12, 2
	drum_note 12, 2
	drum_note 3, 2
	drum_note 12, 2
	drum_note 12, 2
	drum_note 3, 2
	drum_note 12, 6
;Bar 77
	drum_note 12, 2
	drum_note 12, 6
	drum_note 12, 6
;Bar 78
	drum_note 12, 4
	drum_note 12, 6
	drum_note 12, 2
	drum_note 12, 6
;Bar 79
	drum_note 12, 2
	drum_note 12, 6
	drum_note 12, 6
;Bar 80
	drum_note 12, 4
	drum_note 12, 6
	drum_note 12, 2
	drum_note 12, 6
;Bar 81
	drum_note 12, 2
	drum_note 12, 6
	drum_note 12, 6
;Bar 82
	drum_note 12, 4
	drum_note 12, 6
	drum_note 12, 2
	drum_note 12, 6
;Bar 83
	drum_note 12, 2
	drum_note 12, 6
	drum_note 12, 6
;Bar 84
	drum_note 12, 4
	drum_note 12, 6
	drum_note 12, 2
	drum_note 12, 2
	sound_loop 0, .mainloop

; ============================================================================================================

