Music_Cinnabar::
	channel_count 3
	channel 1, Music_Cinnabar_Ch1
	channel 2, Music_Cinnabar_Ch2
	channel 3, Music_Cinnabar_Ch3

Music_Cinnabar_Ch1::
	tempo 144
	volume 7, 7
	duty_cycle 3
	vibrato 12, 3, 4
	toggle_perfect_pitch

Music_Cinnabar_branch_b878::
	note_type 12, 11, 5
	rest 4
	octave 3
	note D_, 4
	note E_, 6
	note C#, 2
	note_type 12, 11, 1
	note D_, 4
	note_type 12, 11, 5
	note B_, 4
	octave 4
	note C_, 6
	octave 3
	note A_, 2
	note_type 12, 11, 1
	note B_, 4
	note_type 12, 11, 5
	note G_, 4
	note F#, 4
	note E_, 2
	note F#, 2
	note_type 12, 11, 1
	note G_, 4
	note_type 12, 11, 5
	note G_, 4
	note F#, 4
	note E_, 4
	note D_, 4
	note E_, 4
	note F#, 6
	note A_, 2
	note_type 12, 11, 1
	note G_, 4
	note_type 12, 11, 5
	note B_, 4
	octave 4
	note C_, 6
	octave 3
	note A_, 2
	note B_, 4
	note G_, 4
	note F#, 3
	note E_, 1
	note F#, 2
	note A_, 2
	note_type 12, 10, 2
	note G_, 4
	octave 4
	note D_, 1
	note E_, 1
	note D_, 4
	note_type 12, 7, 2
	note D_, 1
	note E_, 1
	note D_, 4
	note_type 12, 10, 7
	octave 3
	note B_, 6
	note G_, 2
	note E_, 8
	octave 4
	note C_, 6
	octave 3
	note A_, 2
	note F#, 8
	octave 4
	note F#, 6
	note D_, 2
	octave 3
	note B_, 2
	note A_, 2
	note G_, 2
	note F#, 2
	note G_, 8
	note F#, 4
	note E_, 4
;Bar 1
	octave 2
	volume_envelope 9, 7
	;note G_, 0 | WARNING: Rounded down to 0
	octave 4
	note G_, 4
	octave 2
	;note C_, 0 | WARNING: Rounded down to 0
	octave 4
	note C_, 2
	rest 4
	octave 3
	;note C_, 0 | WARNING: Rounded down to 0
	octave 5
	note C_, 4
	octave 2
	;note A_, 0 | WARNING: Rounded down to 0
	octave 4
	note A_, 2
;Bar 2
	octave 2
	;note G_, 0 | WARNING: Rounded down to 0
	octave 4
	note G_, 4
	octave 2
	;note C_, 0 | WARNING: Rounded down to 0
	octave 4
	note C_, 2
	rest 4
	octave 2
	volume_envelope 8, 7
	;note G_, 0 | WARNING: Rounded down to 0
	octave 4
	note G_, 4
	octave 2
	;note F_, 0 | WARNING: Rounded down to 0
	octave 4
	note F_, 2
;Bar 3
	octave 2
	volume_envelope 10, 7
	;note E_, 0 | WARNING: Rounded down to 0
	octave 4
	note E_, 1
	rest 1
	octave 2
	volume_envelope 8, 7
	;note E_, 0 | WARNING: Rounded down to 0
	octave 4
	note E_, 2
	octave 2
	volume_envelope 9, 7
	;note F_, 0 | WARNING: Rounded down to 0
	octave 4
	note F_, 2
	octave 2
	;note G_, 0 | WARNING: Rounded down to 0
	octave 4
	note G_, 2
	octave 2
	;note C_, 0 | WARNING: Rounded down to 0
	octave 4
	note C_, 4
	octave 2
	;note D_, 0 | WARNING: Rounded down to 0
	octave 4
	note D_, 4
;Bar 4
	octave 2
	;note E_, 0 | WARNING: Rounded down to 0
	octave 4
	note E_, 9
	octave 1
	volume_envelope 8, 7
	;note G_, 0 | WARNING: Rounded down to 0
	octave 3
	note G_, 1
	octave 1
	volume_envelope 7, 7
	;note A_, 0 | WARNING: Rounded down to 0
	octave 3
	note A_, 1
	octave 1
	;note B_, 0 | WARNING: Rounded down to 0
	octave 3
	note B_, 1
	octave 2
	;note C_, 0 | WARNING: Rounded down to 0
	octave 4
	note C_, 1
	octave 2
	volume_envelope 5, 7
	;note D_, 0 | WARNING: Rounded down to 0
	octave 4
	note D_, 1
	octave 2
	volume_envelope 6, 7
	;note E_, 0 | WARNING: Rounded down to 0
	octave 4
	note E_, 1
	octave 2
	volume_envelope 5, 7
	;note F_, 0 | WARNING: Rounded down to 0
	octave 4
	note F_, 1
;Bar 5
	octave 2
	volume_envelope 7, 7
	;note G_, 0 | WARNING: Rounded down to 0
	octave 4
	note G_, 4
	octave 2
	volume_envelope 10, 7
	;note C_, 0 | WARNING: Rounded down to 0
	octave 4
	note C_, 2
	rest 4
	octave 3
	volume_envelope 9, 7
	;note C_, 0 | WARNING: Rounded down to 0
	octave 5
	note C_, 4
	octave 2
	;note A_, 0 | WARNING: Rounded down to 0
	octave 4
	note A_, 2
;Bar 6
	octave 2
	;note G_, 0 | WARNING: Rounded down to 0
	octave 4
	note G_, 4
	octave 2
	;note C_, 0 | WARNING: Rounded down to 0
	octave 4
	note C_, 2
	rest 4
	octave 2
	;note G_, 0 | WARNING: Rounded down to 0
	octave 4
	note G_, 4
	octave 2
	volume_envelope 10, 7
	;note F_, 0 | WARNING: Rounded down to 0
	octave 4
	note F_, 2
;Bar 7
	octave 2
	volume_envelope 8, 7
	;note E_, 0 | WARNING: Rounded down to 0
	octave 4
	note E_, 1
	rest 1
	octave 2
	;note E_, 0 | WARNING: Rounded down to 0
	octave 4
	note E_, 2
	octave 2
	volume_envelope 9, 7
	;note F_, 0 | WARNING: Rounded down to 0
	octave 4
	note F_, 2
	octave 2
	volume_envelope 8, 7
	;note G_, 0 | WARNING: Rounded down to 0
	octave 4
	note G_, 2
	octave 2
	volume_envelope 10, 7
	;note C_, 0 | WARNING: Rounded down to 0
	octave 4
	note C_, 4
	octave 2
	;note D_, 0 | WARNING: Rounded down to 0
	octave 4
	note D_, 4
;Bar 8
	octave 2
	;note C_, 0 | WARNING: Rounded down to 0
	octave 4
	note C_, 11
	rest 5
;Bar 9
	octave 2
	volume_envelope 9, 7
	;note B_, 0 | WARNING: Rounded down to 0
	octave 4
	note B_, 4
	octave 2
	;note E_, 0 | WARNING: Rounded down to 0
	octave 4
	note E_, 2
	rest 4
	octave 3
	;note C_, 0 | WARNING: Rounded down to 0
	octave 5
	note C_, 4
	octave 2
	;note B_, 0 | WARNING: Rounded down to 0
	octave 4
	note B_, 2
;Bar 10
	octave 2
	;note B_, 0 | WARNING: Rounded down to 0
	octave 4
	note B_, 2
	octave 2
	;note A_, 0 | WARNING: Rounded down to 0
	octave 4
	note A_, 2
	octave 2
	volume_envelope 8, 7
	;note A_, 0 | WARNING: Rounded down to 0
	octave 4
	note A_, 2
	octave 2
	volume_envelope 9, 7
	;note B_, 0 | WARNING: Rounded down to 0
	octave 4
	note B_, 2
	octave 2
	volume_envelope 10, 7
	;note A_, 0 | WARNING: Rounded down to 0
	octave 4
	note A_, 6
	rest 2
;Bar 11
	octave 2
	volume_envelope 9, 7
	;note A_, 0 | WARNING: Rounded down to 0
	octave 4
	note A_, 4
	octave 2
	;note D_, 0 | WARNING: Rounded down to 0
	octave 4
	note D_, 2
	rest 4
	octave 2
	;note B_, 0 | WARNING: Rounded down to 0
	octave 4
	note B_, 4
	octave 2
	volume_envelope 10, 7
	;note A_, 0 | WARNING: Rounded down to 0
	octave 4
	note A_, 2
;Bar 12
	octave 2
	volume_envelope 11, 7
	;note A_, 0 | WARNING: Rounded down to 0
	octave 4
	note A_, 1
	rest 1
	octave 2
	volume_envelope 10, 7
	;note G_, 0 | WARNING: Rounded down to 0
	octave 4
	note G_, 2
	octave 2
	volume_envelope 9, 7
	;note G_, 0 | WARNING: Rounded down to 0
	octave 4
	note G_, 2
	octave 2
	volume_envelope 10, 7
	;note A_, 0 | WARNING: Rounded down to 0
	octave 4
	note A_, 2
	octave 2
	volume_envelope 11, 7
	;note G_, 0 | WARNING: Rounded down to 0
	octave 4
	note G_, 1
	octave 1
	volume_envelope 10, 7
	;note G_, 0 | WARNING: Rounded down to 0
	octave 3
	note G_, 1
	octave 1
	volume_envelope 8, 7
	;note A_, 0 | WARNING: Rounded down to 0
	octave 3
	note A_, 1
	octave 1
	volume_envelope 6, 7
	;note B_, 0 | WARNING: Rounded down to 0
	octave 3
	note B_, 1
	octave 2
	;note C_, 0 | WARNING: Rounded down to 0
	octave 4
	note C_, 1
	octave 2
	;note D_, 0 | WARNING: Rounded down to 0
	octave 4
	note D_, 1
	octave 2
	volume_envelope 7, 7
	;note E_, 0 | WARNING: Rounded down to 0
	octave 4
	note E_, 1
	octave 2
	volume_envelope 8, 7
	;note F_, 0 | WARNING: Rounded down to 0
	octave 4
	note F_, 1
;Bar 13
	octave 2
	volume_envelope 9, 7
	;note G_, 0 | WARNING: Rounded down to 0
	octave 4
	note G_, 4
	octave 2
	volume_envelope 10, 7
	;note C_, 0 | WARNING: Rounded down to 0
	octave 4
	note C_, 2
	rest 4
	octave 3
	volume_envelope 9, 7
	;note C_, 0 | WARNING: Rounded down to 0
	octave 5
	note C_, 4
	octave 2
	;note A_, 0 | WARNING: Rounded down to 0
	octave 4
	note A_, 2
;Bar 14
	octave 2
	;note G_, 0 | WARNING: Rounded down to 0
	octave 4
	note G_, 4
	octave 2
	volume_envelope 8, 7
	;note C_, 0 | WARNING: Rounded down to 0
	octave 4
	note C_, 2
	rest 4
	octave 2
	volume_envelope 9, 7
	;note G_, 0 | WARNING: Rounded down to 0
	octave 4
	note G_, 4
	octave 2
	volume_envelope 10, 7
	;note F_, 0 | WARNING: Rounded down to 0
	octave 4
	note F_, 2
;Bar 15
	octave 2
	;note E_, 0 | WARNING: Rounded down to 0
	octave 4
	note E_, 1
	rest 1
	octave 2
	volume_envelope 9, 7
	;note E_, 0 | WARNING: Rounded down to 0
	octave 4
	note E_, 2
	octave 2
	;note F_, 0 | WARNING: Rounded down to 0
	octave 4
	note F_, 2
	octave 2
	volume_envelope 8, 7
	;note G_, 0 | WARNING: Rounded down to 0
	octave 4
	note G_, 2
	octave 2
	volume_envelope 9, 7
	;note C_, 0 | WARNING: Rounded down to 0
	octave 4
	note C_, 4
	octave 2
	volume_envelope 10, 7
	;note D_, 0 | WARNING: Rounded down to 0
	octave 3
	note D_, 4
	note D_, 4
	sound_loop 0, Music_Cinnabar_branch_b878


Music_Cinnabar_Ch2::
	duty_cycle 3
	vibrato 10, 2, 3

Music_Cinnabar_branch_b8d9::
	note_type 12, 12, 7
	octave 3
	note G_, 6
	note A_, 1
	note B_, 1
	octave 4
	note C_, 6
	note D_, 1
	note E_, 1
	note_type 12, 12, 1
	note D_, 4
	note_type 12, 12, 7
	note G_, 4
	note A_, 6
	note G_, 1
	note F#, 1
	note E_, 4
	note D_, 4
	note C_, 3
	octave 3
	note B_, 1
	octave 4
	note C_, 2
	note D_, 1
	note E_, 1
	note_type 12, 12, 1
	note D_, 4
	note_type 12, 12, 7
	octave 3
	note B_, 8
	note A_, 4
	note G_, 6
	note A_, 1
	note B_, 1
	octave 4
	note C_, 6
	note D_, 1
	note E_, 1
	note_type 12, 12, 1
	note D_, 4
	note_type 12, 12, 7
	note G_, 4
	note A_, 6
	note G_, 1
	note F#, 1
	note E_, 4
	note D_, 4
	note C_, 3
	octave 3
	note B_, 1
	octave 4
	note C_, 2
	note D_, 1
	note E_, 1
	note_type 12, 12, 1
	note D_, 4
	note_type 12, 12, 7
	octave 3
	note A_, 4
	note G_, 4
	note F#, 4
	note_type 12, 11, 0
	octave 4
	note D_, 6
	octave 3
	note B_, 2
	note G_, 8
	octave 4
	note E_, 6
	note C_, 2
	octave 3
	note A_, 8
	octave 4
	note A_, 6
	note F#, 2
	note D_, 2
	note C_, 2
	octave 3
	note B_, 2
	note A_, 2
	note B_, 4
	octave 4
	note D_, 4
	octave 3
	note B_, 2
	note A_, 6
;Bar 1
	octave 3
	volume_envelope 9, 7
	note G_, 4
	note C_, 2
	rest 4
	octave 4
	note C_, 4
	octave 3
	volume_envelope 10, 7
	note A_, 2
;Bar 2
	volume_envelope 9, 7
	note G_, 4
	note C_, 2
	rest 4
	note G_, 4
	note F_, 2
;Bar 3
	volume_envelope 10, 7
	note E_, 1
	rest 1
	volume_envelope 8, 7
	note E_, 2
	volume_envelope 9, 7
	note F_, 2
	note G_, 2
	note C_, 4
	note D_, 4
;Bar 4
	note E_, 9
	octave 2
	note G_, 1
	volume_envelope 8, 7
	note A_, 1
	volume_envelope 7, 7
	note B_, 1
	octave 3
	note C_, 1
	volume_envelope 5, 7
	note D_, 1
	volume_envelope 6, 7
	note E_, 1
	volume_envelope 5, 7
	note F_, 1
;Bar 5
	volume_envelope 8, 7
	note G_, 4
	volume_envelope 10, 7
	note C_, 2
	rest 4
	octave 4
	note C_, 4
	octave 3
	volume_envelope 9, 7
	note A_, 2
;Bar 6
	volume_envelope 10, 7
	note G_, 4
	volume_envelope 9, 7
	note C_, 2
	rest 4
	note G_, 4
	volume_envelope 10, 7
	note F_, 2
;Bar 7
	volume_envelope 8, 7
	note E_, 1
	rest 1
	volume_envelope 9, 7
	note E_, 2
	volume_envelope 10, 7
	note F_, 2
	volume_envelope 8, 7
	note G_, 2
	volume_envelope 10, 7
	note C_, 4
	note D_, 4
;Bar 8
	note C_, 11
	rest 5
;Bar 9
	volume_envelope 9, 7
	note B_, 4
	note E_, 2
	rest 4
	octave 4
	volume_envelope 10, 7
	note C_, 4
	octave 3
	volume_envelope 9, 7
	note B_, 2
;Bar 10
	note B_, 2
	volume_envelope 10, 7
	note A_, 2
	volume_envelope 9, 7
	note A_, 2
	note B_, 2
	volume_envelope 10, 7
	note A_, 6
	rest 2
;Bar 11
	volume_envelope 9, 7
	note A_, 4
	note D_, 2
	rest 4
	note B_, 4
	volume_envelope 10, 7
	note A_, 2
;Bar 12
	volume_envelope 11, 7
	note A_, 1
	rest 1
	volume_envelope 10, 7
	note G_, 2
	volume_envelope 9, 7
	note G_, 2
	volume_envelope 10, 7
	note A_, 2
	volume_envelope 11, 7
	note G_, 1
	octave 2
	volume_envelope 10, 7
	note G_, 1
	volume_envelope 8, 7
	note A_, 1
	volume_envelope 6, 7
	note B_, 1
	octave 3
	note C_, 1
	note D_, 1
	volume_envelope 8, 7
	note E_, 1
	note F_, 1
;Bar 13
	volume_envelope 9, 7
	note G_, 4
	volume_envelope 10, 7
	note C_, 2
	rest 4
	octave 4
	note C_, 4
	octave 3
	volume_envelope 9, 7
	note A_, 2
;Bar 14
	note G_, 4
	note C_, 2
	rest 4
	note G_, 4
	volume_envelope 10, 7
	note F_, 2
;Bar 15
	note E_, 1
	rest 1
	volume_envelope 9, 7
	note E_, 2
	volume_envelope 10, 7
	note F_, 2
	volume_envelope 8, 7
	note G_, 2
	volume_envelope 9, 7
	note C_, 4
	volume_envelope 10, 7
	octave 3
	note D_, 4
	note G_, 4
	sound_loop 0, Music_Cinnabar_branch_b8d9


Music_Cinnabar_Ch3::
	note_type 12, 1, 0

Music_Cinnabar_branch_b93f::
	octave 4
	note G_, 1
	rest 3
	note B_, 2
	note G_, 1
	note G_, 1
	note A_, 1
	rest 1
	note A_, 1
	rest 1
	octave 5
	note C_, 2
	octave 4
	note F#, 1
	rest 1
	note G_, 1
	rest 3
	note B_, 2
	note G_, 1
	note G_, 1
	note A_, 1
	rest 1
	note A_, 1
	rest 1
	octave 5
	note C_, 2
	octave 4
	note F#, 1
	rest 1
	note G_, 1
	rest 3
	note B_, 2
	note G_, 1
	note G_, 1
	note A_, 1
	rest 1
	note A_, 1
	rest 1
	octave 5
	note C_, 2
	octave 4
	note F#, 1
	rest 1
	note G_, 1
	rest 3
	note B_, 2
	note G_, 1
	note G_, 1
	note A_, 1
	rest 1
	note A_, 1
	rest 1
	octave 5
	note C_, 2
	octave 4
	note A_, 1
	rest 1
	note G_, 1
	rest 3
	note B_, 2
	note G_, 1
	note G_, 1
	note A_, 1
	rest 1
	note A_, 1
	rest 1
	octave 5
	note C_, 2
	octave 4
	note F#, 1
	rest 1
	note G_, 1
	rest 3
	note B_, 2
	note G_, 1
	note G_, 1
	note A_, 1
	rest 1
	note A_, 1
	rest 1
	octave 5
	note C_, 2
	octave 4
	note F#, 1
	rest 1
	note G_, 1
	rest 3
	note B_, 2
	note G_, 1
	note G_, 1
	note A_, 1
	rest 1
	note A_, 1
	rest 1
	octave 5
	note C_, 2
	octave 4
	note F#, 1
	rest 1
	note G_, 1
	rest 3
	note B_, 4
	note A_, 1
	rest 1
	note A_, 1
	rest 1
	octave 5
	note C_, 4
	octave 4
	note B_, 1
	rest 3
	octave 5
	note D_, 2
	octave 4
	note B_, 1
	note B_, 1
	note B_, 1
	rest 1
	note B_, 1
	rest 1
	octave 5
	note C_, 2
	octave 4
	note B_, 1
	rest 1
	note G_, 1
	rest 3
	octave 5
	note E_, 2
	note C_, 1
	note C_, 1
	note C_, 1
	rest 1
	note C_, 1
	rest 1
	note E_, 2
	note C_, 1
	rest 1
	octave 4
	note A_, 1
	rest 3
	octave 5
	note A_, 2
	note F#, 1
	note F#, 1
	note D_, 1
	rest 1
	note D_, 1
	rest 1
	note D_, 2
	note C_, 1
	rest 1
	octave 4
	note B_, 1
	rest 3
	octave 5
	note D_, 2
	note C_, 1
	note C_, 1
	octave 4
	note B_, 1
	rest 1
	note B_, 1
	rest 1
	note A_, 2
	octave 5
	note C_, 1
	rest 1
;Bar 1
	octave 4
	volume_envelope 2, 0
	note C_, 4
	note E_, 4
	note F_, 4
	note G_, 4
;Bar 2
	note C_, 4
	note E_, 4
	note F_, 4
	note G_, 4
;Bar 3
	note C_, 4
	note E_, 4
	note F_, 4
	note G_, 4
;Bar 4
	note C_, 4
	note E_, 4
	note F_, 4
	note G_, 4
;Bar 5
	note C_, 4
	note E_, 4
	note F_, 4
	note G_, 4
;Bar 6
	note C_, 4
	note E_, 4
	note F_, 4
	note G_, 4
;Bar 7
	note C_, 4
	note E_, 4
	note F_, 4
	note G_, 4
;Bar 8
	note C_, 4
	note G_, 4
	note C_, 4
	note G_, 4
;Bar 9
	octave 3
	note B_, 4
	note E_, 4
	note B_, 4
	note E_, 4
;Bar 10
	note A_, 4
	octave 4
	note E_, 4
	octave 3
	note A_, 4
	octave 4
	note E_, 4
;Bar 11
	note D_, 4
	octave 3
	note A_, 4
	octave 4
	note D_, 4
	octave 3
	note A_, 4
;Bar 12
	note G_, 4
	octave 4
	note D_, 4
	octave 3
	note G_, 4
	octave 4
	note D_, 4
;Bar 13
	note C_, 4
	note E_, 4
	note F_, 4
	note G_, 4
;Bar 14
	note C_, 4
	note E_, 4
	note F_, 4
	note G_, 4
;Bar 15
	note C_, 4
	note E_, 4
	note F_, 4
	octave 4
	note G_, 4
	note G_, 4
	sound_loop 0, Music_Cinnabar_branch_b93f
